<?xml version="1.0" encoding="UTF-8" standalone="no"?>
<svg preserveAspectRatio="xMaxYMax meet" viewBox="0 0 628 258" version="1.1" xmlns="http://www.w3.org/2000/svg" xmlns:xlink="http://www.w3.org/1999/xlink" xmlns:sketch="http://www.bohemiancoding.com/sketch/ns">
    <!-- Generator: Sketch 3.3.1 (12002) - http://www.bohemiancoding.com/sketch -->
    <title>objc-logo-white</title>
    <desc>Created with Sketch.</desc>
    <defs></defs>
    <g id="Logo" stroke="none" stroke-width="1" fill="none" fill-rule="evenodd" sketch:type="MSPage">
        <g id="objc-logo-white" sketch:type="MSArtboardGroup">
            <g id="arrows" sketch:type="MSLayerGroup" transform="translate(390.000000, 70.000000)" fill="#FFA940">
                <path d="M83,53 L91,46 L45.5,0 L0,46 L8,53 L40,19 L40,105 L51,105 L51,19 L83,53 Z" id="arrow-up" sketch:type="MSShapeGroup"></path>
                <path d="M180,61 L188,54 L142.5,8 L97,54 L105,61 L137,27 L137,113 L148,113 L148,27 L180,61 Z" id="arrow-down" sketch:type="MSShapeGroup" transform="translate(142.500000, 60.500000) scale(1, -1) translate(-142.500000, -60.500000) "></path>
            </g>
            <g id="letters" sketch:type="MSLayerGroup" transform="translate(50.000000, 50.000000)" fill="#0091D9">
                <path d="M260.362195,124 C244.981846,124 235.180692,116.89558 229.101464,107.929364 C224.534654,101.162781 222,91.8562622 222,79.001233 C222,66.1462038 224.534654,56.8396855 229.101464,50.0731019 C235.183156,41.1068855 244.814347,34 260.194696,34 C270.330848,34 278.612195,37.3832918 284.52885,43.1363674 C290.27308,48.719292 294.327541,55.6959476 295,65 L280.5,65 C279.327541,59.0817053 277.259887,54.9778886 274.05031,51.7622818 C270.668309,48.549141 265.771427,46.5196592 260.194696,46.5196592 C253.603118,46.5196592 249.03877,48.886977 245.324234,52.1025838 C238.565157,57.8556594 236.702963,68.5110557 236.702963,79.001233 C236.702963,89.4889443 238.565157,100.146807 245.324234,105.897416 C249.03877,109.113023 253.603118,111.482807 260.194696,111.482807 C266.106425,111.482807 271.345694,109.283174 274.72277,105.729731 C277.76731,102.51659 279.79454,98.6253117 280.5,93 L295,93 C294.330004,102.136367 290.780503,109.115489 285.03381,114.698414 C278.952119,120.616708 270.840734,124 260.362195,124 Z" id="letter-c" sketch:type="MSShapeGroup"></path>
                <path d="M168,156.305624 L168,143.938657 C171.581638,144.615419 175.170744,144.785844 178.75736,144.785844 C185.241146,144.785844 188.489261,139.700247 188,133.940357 L188,36 L202.999999,36 L202.999999,133.769932 C203.002488,148.680933 195.660005,158 179.2676,158 C174.829754,158 172.268596,157.661619 168,156.305624 Z M188,0 L203,0 L203,15 L188,15 L188,0 Z" id="letter-j" sketch:type="MSShapeGroup"></path>
                <path d="M132.357584,124 C122.688813,124 111.662458,119.275886 106.741524,110.673621 L106,122 L93,122 L93,0 L108,0 L108,46 C112.579684,38.2412391 123.027591,34.2492117 132.357584,34.2492117 C142.365132,34.2492117 150.337541,37.6232275 155.936031,42.8539357 C164.590941,51.1192908 168.999999,64.6178133 168.999999,79.2942903 C169.002472,93.4666323 164.761566,106.456101 156.618532,114.723916 C151.020042,120.458759 142.877008,124 132.357584,124 Z M130.57174,46 C124.254902,46 119.984749,48.5126789 116.566138,51.528382 C109.392779,57.7282768 107,67.9474811 107,78.5012209 C107,89.0525189 109.392779,99.2741651 116.566138,105.471618 C119.984749,108.487321 124.254902,111 130.57174,111 C149.873327,111 155,94.0803186 155,78.5012209 C155,62.9221233 149.873327,46 130.57174,46 L130.57174,46 Z" id="letter-b" sketch:type="MSShapeGroup"></path>
                <path d="M63.8437419,114.01781 C57.5932884,120.111187 48.8145893,124 38.0049236,124 C27.1952578,124 18.4116351,120.111187 12.1611817,114.01781 C2.87535631,104.883908 0,92.5344001 0,79.001233 C0,65.4680659 2.87535631,53.1160917 12.1587199,43.9821903 C18.4091734,37.8912787 27.1927961,34 38.0024618,34 C48.8121275,34 57.5908266,37.8912787 63.8412801,43.9821903 C73.1295672,53.1160917 76,65.4680659 76,79.001233 C76,92.5344001 73.132029,104.883908 63.8437419,114.01781 L63.8437419,114.01781 Z M53.9954056,52.064834 C50.418779,48.5280369 45.3132129,46 38.502482,46 C31.6917512,46 26.581221,48.5255824 23.0045944,52.064834 C16.8764259,58.2941132 15,68.5657969 15,78.5012272 C15,88.4366575 16.8764259,98.7058868 23.0045944,104.93762 C26.581221,108.471963 31.6917512,111 38.502482,111 C45.3132129,111 50.418779,108.474418 53.9954056,104.93762 C60.1235741,98.7083412 62,88.4366575 62,78.5012272 C62,68.5657969 60.1210921,58.2941132 53.9954056,52.064834 L53.9954056,52.064834 Z" id="letter-o" sketch:type="MSShapeGroup"></path>
            </g>
        </g>
    </g>
</svg>