<svg xmlns="http://www.w3.org/2000/svg" viewBox="0 0 398 170"><g fill="none" fill-rule="evenodd"><path stroke="#000" d="M125 42.5h142m-8 53h139m-398 0h130m-130 46h398"/><path fill="#B7F2D4" fill-rule="nonzero" d="M397.5 169.5l-10.8-19.8c-.9-1.6-1.9-2.8-2.5-4.5-5.7 7-7.6 14.4-11.4 21.7-3.3-7.6-4.8-14.4-9.4-21.3-2.5 3.8-11.8 18.5-13.5 20.9-3.9-8.1-8.1-13.2-12-21.3-6 8.1-12.3 13.7-17.9 22.1-5-8.6-9.4-16.5-16.5-23.6-1.3 2.3-9.2 21.2-11.9 24.8-3.9-7.4-7.3-16.3-12.1-24-4.9 7.7-6.5 15.4-10.5 23.7-5.7-7.9-9-14.9-15.2-22.4-4.2 6.6-6.3 14.2-9.4 21.4-.3.7-.1 1.7-.8 1.5-3.2-5.4-6.4-10.9-9.7-16.3-1.6-2.8-4.2-6.1-6.7-8.2-3.2 8.4-5.4 16.8-7 25.6-3.3-7.9-7.3-15.5-10.6-23.3-2.5 7.4-5.5 12.9-7.9 20.4-2.1-6-4.3-11.9-6.6-17.9-.6-1.5-1.1-3.8-2.5-4.6-4 8.4-6.5 15.5-9.2 24.4-2.3-2.6-9.7-18.9-11.6-23.6-3.4 8.8-7.3 14.4-10.8 23.2-2.3-4.4-7.4-20.3-11.1-23.6-2.4 3-7.6 19.1-9.8 23.2-2-3.9-7.8-19.7-10-23.5-1.4 2-8.4 23.7-9.1 24-3.9-6.8-8.1-16.1-13.1-24.6-3.8 8.7-10.5 24.4-10.6 24.3-6-8.2-9.3-15.2-15.6-22.6-4.1 8.7-7.3 14-11.3 22.7-5.5-8-8.4-14.1-13.3-22.5-1.5 2.3-2.2 4.9-2.8 7.5-1.4 5.5-3.3 11.1-4.6 16.6-4.4-7.8-6.6-16.9-11.3-24.6-4 7.8-7.9 15.7-11.7 23.6.1-1.5-1.6-1.9-2.3-3.3-3-6.6-6.1-13.2-9.1-19.8-.7.4-1.1 1.9-1.5 2.6-4.5 7.1-9 14.3-13.5 21.4"/><path fill="#FFDA85" fill-rule="nonzero" d="M27.4 91.2c-.2 5.8-.2 13.2-.4 19 8.5.1 18.4.7 26.9.6-.2 10.9-.7 21.9-1 32.8 10.1 1.2 13.5.7 23.7 0 .3-11.8-.2-20.3.2-30.7 4.7-.3 24.9.6 28.9.4.5-7.3 1-13.2 1-20.6-27.7.4-51.8-1.1-79.3-1.5z"/><path fill="#FF703D" fill-rule="nonzero" d="M106.5 77.3c-.4 5 .1 9.7-.4 14.7-26.7.6-52-1.9-78.8-1.3.6-5.6-.2-10.4.5-15.9 26 .9 52.5 1.1 78.7 2.5z"/><path fill="#B7F2D4" fill-rule="nonzero" d="M104.5 75c.3.3.7-.2.7-.5.4-4 .6-8.8.5-12.9-26.1.2-52.5.9-78.5 2-.2 3.2-.3 6.3-.5 9.5 25.7 1.9 52 3.4 77.8 1.9z"/><path fill="#0068DA" fill-rule="nonzero" d="M109.1 38.2c.4 7.6-.9 14.7-1.4 22.4-26.1.7-51.6.9-77.6 1-1.6-7.3-2.7-14.7-3.2-22.2 27.7.9 54.5.6 82.2-1.2z"/><path fill="#FFB08E" fill-rule="nonzero" d="M251.4 71.4c.7 1.9.7 3.9.7 5.9-.2 10.9-.9 22.1-1.1 33-13.8.9-28.1 1.1-42 1.7.8 10.9.5 21.4.8 32.4-7.5-.1-15.1-.2-22.5.7.2-10.5-.3-21-1.3-31.4-14.5.6-29.5-1.1-43.9-2.6.2-13.9.3-27.9.5-41.8 4.1.7 8.9.1 13.1 0 31.7-.8 64-.5 95.7 2.1z"/><path fill="#3B3639" fill-rule="nonzero" d="M143.2 58c36.3 1.3 69.6 1.3 106.2 3.3.1 2.8-.2 6.5 0 9.3-36.9-3.1-70.2-1.8-105.1-2.8-.5-3-1.2-6.4-1.7-9.5"/><path fill="#B7F2D4" fill-rule="nonzero" d="M249 41.4c-1.2 6.1-3.5 11.3-4.8 17.4.3-.1.5.5.3.7-.2.2-.7.2-1 .1-5.9-1.1-11.9-1.2-17.9-1.2-26.6-.1-53.5-1-80.1-1.1-.4-5.7-.7-11.3-1.1-17 13.9-.8 93 .8 104.6 1.1z"/><path fill="#FF703D" fill-rule="nonzero" d="M373.9 98.3c1.2 2.7 1.7 5.9 1.3 8.7-8.9 2.1-18.2 2.6-27.4 2 2.9 11.6 3.5 23.8 4.4 35.6-12.5.3-24.9-.9-37.4-1.3 1.1-11.2 1.9-22.4 2.6-33.7-10.3-.2-20.6-1-30.7-2.5.1-3 .2-5.9.3-8.9 13.8-.5 80.5 1.8 86.9.1z"/><path fill="#FFD164" fill-rule="nonzero" d="M373.5 98.1c0 .5 0 1.1-.1 1.6 1.1-9.1 1.2-19.2 1-28.4-19.6 1.8-39.3-2.3-58.9-1.4-9.9.4-19.4 1.9-29.2 1 .9 8.8 1.3 17.7 1.2 26.6 28.7 1.9 57.8-4 86.2 1.1-.2-.6.2 0-.2-.5zm-1.3-57.4c.6-.4 1.1.6 1.1 1.3 0 2.2.3 4.5.3 6.6-29 2-58.3 2.8-87.4 1.7-.7-2.2-.8-4.6-.4-6.9 28.7-2.6 57.5-3.7 86.4-2.7z"/><path fill="#FFB08E" fill-rule="nonzero" d="M372.4 49.4c.8 6.8-2.2 13.1-1.6 19.9-27.7-.6-55.8-1.1-83.5-1.8-.8-5.4-1-10.9-.6-16.3 28.3 1.6 57.6 1.4 85.7-1.8zm-240-33c-29.1.8-58.1 2.6-87.1 5.5-5.4.5-10.9 1.1-16.3.8-6.1-.3-12.3-1.7-18.4-1 .4 1.8 1.7 2.5 3.1 3.8 7.9 6.8 18 10.7 28.3 12.5 10.3 1.8 20.9 1.6 31.4.9 4.7-.3 9.4-.7 14-1.6 17.4-3.4 29.9-11.8 45-20.9z"/><path fill="#B7F2D4" fill-rule="nonzero" d="M114.5 2.2C100.4 12.4 84.3 18.5 68 20c-5.3.5-10.6.5-15.9.3-5.4-.1-10.7-.4-16-1.7-9.7-2.3-18.9-8.2-25.9-16.6 35.3 2.8 68.9-2.4 104.3.2z"/><path fill="#FF703D" fill-rule="nonzero" d="M244.7 19c-6.8 7.5-14.2 14.5-22.3 20.6-18.7.7-36.1-.9-54.8-.9-3.9-2.5-5.9-3.1-8.7-4.7-6.8-4-13.4-8.3-19.6-13.1 28.6 1.8 57.4 2.1 86 .4 3.8-.2 7.7-.5 11.5-1 2.7-.4 5.2-.7 7.9-1.3z"/><path fill="#FFD164" fill-rule="nonzero" d="M145.2 4c-.6-1-1.5-1.9-2.3-2.7 4.1.5 8.2.2 12.3.2 33.7.2 66.3-.2 99.7-.1-7.5 4.3-13.8 8.9-19.4 15.6-.9 1.1-2.1 3.7-3.5 3.7-3.1 0-70.8 1.1-71.9.3L145.2 4z"/><path stroke="#000" d="M0 42.5h125m141 0h132m-269 53h132"/><path fill="#0068DA" fill-rule="nonzero" d="M363 2.3c.4 0 .8 8.1.9 11.4-2.4-.1-10.8.7-11.2.9-.9.4 1 11.3.6 11.3-4.8.1-13.8.1-13.8.4 0 3.7-.7 8.9-.7 12.7-4.2.6-16.8 1-17.9.9-.3-3.6.9-11.6.4-11.6-.1 0-8.3.2-11.4.2-.4-4.8-.5-10.1-1.4-14.9-5.7.2-11.2.7-16.8 1.3-.4-4-1-8-1.8-12 11.6-.9 23.3-.6 35-.7 12-.2 27 .1 38.1.1z"/></g></svg>