<?xml version="1.0" encoding="utf-8"?>
<!-- Generator: Adobe Illustrator 24.2.1, SVG Export Plug-In . SVG Version: 6.00 Build 0)  -->
<svg version="1.1" xmlns="http://www.w3.org/2000/svg" xmlns:xlink="http://www.w3.org/1999/xlink" x="0px" y="0px"
	 viewBox="0 0 398 170.1" style="enable-background:new 0 0 398 170.1;" xml:space="preserve">
<style type="text/css">
	.st0{fill:#FFD065;}
	.st1{fill:#FFAC89;}
	.st2{fill:none;}
	.st3{fill:#B7F2D4;}
	.st4{fill:#FF6A36;}
	.st5{fill:#006AD9;}
	.st6{fill:#FF6A36;stroke:#181718;stroke-width:1.386;stroke-linecap:round;stroke-miterlimit:10;}
	.st7{fill:#FFD984;}
	.st8{fill:none;stroke:#181718;stroke-miterlimit:10;}
	.st9{fill:none;stroke:#181718;stroke-width:0.6115;stroke-miterlimit:10;}
	.st10{fill:#FF703D;}
	.st11{fill:none;stroke:#3A3739;stroke-width:0.9987;stroke-miterlimit:10;}
	.st12{fill:none;stroke:#3A3739;stroke-width:1.0998;stroke-miterlimit:10;}
	.st13{fill:#3A3739;}
</style>
<g id="formas">
	<polygon class="st0" points="49.9,102.8 31,165.6 50.1,165.6 69.1,165.6 	"/>
	<path class="st1" d="M82.7,32.2c6.9,13.5,23.2,15.4,34.4,5c6.4-6,8.1-14.1,6.1-21.3c-1.3-5-4.1-11.3-6.8-15.8H81.3
		C73.6,8.9,77.4,21.7,82.7,32.2z"/>
	<path class="st10" d="M214.9,97.2l36.6,1.3l-10.1,7.2l9.1,2.6L237.3,128l-27.3-2.6C209.9,116.8,211.7,105.3,214.9,97.2z"/>
	<path class="st3" d="M25.6,89.9c0,1.3,0.1,2.8,1.1,3.7c0.9,0.8,2.2,0.9,3.4,0.9c21.2,0.2,42.5-0.5,63.6-2.3c1-0.1,2.2-0.2,3-0.9
		c1-0.8,1.3-2.1,1.5-3.4c1.1-5.8,2.2-11.5,3.3-17.3c0.2-0.9,0.3-1.9-0.1-2.7c-0.5-1-1.7-1.4-2.8-1.7C85.1,62,75.3,50.5,63.9,41.9
		c-1.3-1-2.6-1.9-4.1-2.3c-1.7-0.4-3.5-0.1-5.3,0.2c-10.8,1.8-22.6,2.6-32.9,5.9C20.3,59.8,25.9,75.4,25.6,89.9z"/>
	<path class="st5" d="M379.3,86.7c-2.7-16.6-5.7-34-15.3-47.5c-5.1-7.1-13.6-13.2-21.3-10.3c-4.7,1.8-7.9,6.5-9.3,11.5
		c-1.4,5.1-1.3,10.5-1.2,15.8c-0.5-5.7-2.2-12.1-4.4-17.4c-2-4.8-5.4-9.7-10.3-10.3c-4.9-0.6-9.1,3.5-11.6,7.8
		c-6.6,11.3-6.8,26.6-0.5,38.5c-2.8-8.2-3.4-18.3-8.2-25.4s-14.5-11.7-21.3-7.1c-3.7,2.5-5.6,7.1-6.1,11.8c-0.5,4.6,0.3,9.3,1.1,14
		c1.5,8.6,2.9,17.3,4.4,25.9c2.8,16.6,7.9,33.7,12.5,49.9c21.2-3.8,42.1-9.8,62.1-18c12.4-5.1,24.7-11,37.9-13.1
		c1.2-0.2-0.6-2.6,0-3.7C384.4,103,380.4,93.7,379.3,86.7z"/>
	<rect x="86.9" y="155.6" class="st13" width="85" height="1"/>
	<rect x="118.9" y="27.5" transform="matrix(1 -3.910039e-03 3.910039e-03 1 -0.1082 0.5786)" class="st13" width="58" height="1"/>
	<rect x="236.4" y="70.1" class="st13" width="11.5" height="1"/>
	<rect x="8.4" y="70.1" class="st13" width="8.5" height="1"/>
	<rect x="61.4" y="70.1" class="st13" width="79.5" height="1"/>
	<rect x="241.9" y="112.6" class="st13" width="24.5" height="1"/>
	<path class="st13" d="M116.8,40.6L42,35.6l-1.1-17l0.5,0l79.6-2L116.8,40.6z M42.9,34.6l73.1,4.9l3.8-22l-77.9,2L42.9,34.6z"/>
	<path class="st13" d="M236.9,84.6l-97-3l1-23l97,1L236.9,84.6z M141,80.6l95,3l1-23l-95-1L141,80.6z"/>
	<path class="st13" d="M364,147.7l-97.1-2.5l0-0.5l-4-100L364,41V147.7z M268,144.1l94.9,2.4V42.2L264,45.8L268,144.1z"/>
	<path class="st13" d="M61.9,99.6l-46-2l2-52h44V99.6z M16.9,96.6l44,2v-52h-42L16.9,96.6z"/>
	<path class="st13" d="M241.9,122.6h-161l1.1-15l160-7V122.6z M82,121.6h159v-20l-158,7L82,121.6z"/>
	<polygon class="st0" points="10.2,16.4 15.2,0.1 5.2,0.1 	"/>
	<path class="st1" d="M113.1,165.6c-3.1-8.5-20.4-3.4-26.3,0.1c-2.2,1.3-4,2.8-5.4,4.4h35.1C115.2,168.2,114.1,166.6,113.1,165.6z"
		/>
	<polygon class="st2" points="0,170.1 5.2,170.1 0,153 	"/>
	<path class="st0" d="M185.3,11.9c0.4,3,15,10.1,19.2,10.8c4.8,0.8-17.4,5.9-17.4,10c-0.1,4,16.9,8.7,33.8,8.8
		c17.6,0.1,35.7-4.6,35.7-8.8c0-4.3-18.5-8.1-18.1-9.7c0-0.1,0.2-0.2,0.7-0.3c4.2-0.7,18.8-7.8,19.2-10.8
		c0.3-2.4-16.4-10.9-23.1-10.4c0.8-0.3,2.1-0.8,3.5-1.4h-33.8c1.5,0.6,2.7,1.1,3.5,1.4C201.7,0.9,184.9,9.5,185.3,11.9z"/>
	<polygon class="st10" points="186.5,53.5 186.5,83.5 129,83.5 154.5,60 154.5,75.8 170.8,56 173.6,75.5 	"/>
	<path class="st5" d="M112.7,141.1c2-6.6,4.1-14,6.1-20.6c10.9,2.1,21.8,3.8,32.8,5.3c2.6,0.4,6.7,1.2,7.9,1.4
		c1.8-5.1,4.1-11.2,5.3-16.4c-16.3-4.3-38.8-9.4-55.1-13.4c-4.3,13.1-7.2,26.1-11.4,38C103,137,108.2,139.2,112.7,141.1z"/>
	<polygon class="st2" points="251.4,146.7 171.5,148.6 174.2,170.1 250.8,170.1 	"/>
	<polygon class="st2" points="380,165.6 398,165.1 398,140.3 381.9,140.6 	"/>
	<polygon class="st13" points="380,165.6 381.9,140.6 398,140.3 398,139.3 381.4,139.6 381,139.6 378.9,166.6 398,166.1 398,165.1 	
		"/>
	<polygon class="st13" points="171.5,148.6 251.4,146.7 250.8,170.1 251.8,170.1 252.4,145.6 170.4,147.7 173.2,170.1 174.2,170.1 	
		"/>
	<polygon class="st2" points="249.9,27.6 250,27.6 250.8,0.1 174.2,0.1 180.4,48.6 249.4,47.6 250,28.6 249.9,28.6 	"/>
	<polygon class="st2" points="86.9,162.6 85,138.6 0,140.3 0,165.1 	"/>
	<polygon class="st13" points="249.9,27.6 249.9,28.6 250,28.6 250,27.6 	"/>
	<polygon class="st13" points="251,27.6 251,28.6 398,28.1 398,27.6 398,27.1 	"/>
	<rect x="0" y="112.6" class="st13" width="81.9" height="1"/>
	<polygon class="st13" points="88,163.6 85.9,137.6 0,139.3 0,140.3 85,138.6 86.9,162.6 0,165.1 0,166.1 87.4,163.6 	"/>
	<polygon class="st13" points="179.5,49.6 250.4,48.6 251,28.6 250,28.6 249.4,47.6 180.4,48.6 174.2,0.1 173.2,0.1 179.4,49.2 	"/>
	<polygon class="st13" points="250,27.6 251,27.6 251.8,0.1 250.8,0.1 	"/>
	<polygon class="st13" points="250,27.6 250,28.6 251,28.6 251,27.6 	"/>
	<rect x="363" y="112.6" class="st13" width="35" height="1"/>
	<rect x="0" y="27.1" class="st13" width="42" height="1"/>
	<rect x="251.9" y="155.6" class="st13" width="128" height="1"/>
	<polygon class="st0" points="10.1,123.6 0,123.6 0,153 5.2,170.1 15.2,170.1 29.1,123.6 	"/>
	<polygon class="st0" points="389,123.6 398,153 398,123.6 	"/>
	<path class="st0" d="M258,158.4c0.3-7.3-17.9-9.9-23.4-10.1c2.9-0.9,5.9-1.9,8.9-2.8h-0.1c5.9-1.9,12.4-4.1,18.2-6.1
		c-12.2,0-24.5,0-36.7,0c-2,0-3.9,0-5.9,0c-12.2,0-24.5,0-36.7,0c6,2,12.4,4.3,18.3,6.3l0.1,0c2.7,0.9,5.5,1.7,8.2,2.6
		c-5.5,0.1-23.7,2.7-23.4,10.1c0.1,3,12.4,8.8,19.4,11.7h33.8C245.6,167.2,257.9,161.4,258,158.4z"/>
</g>
<g id="linhas">
</g>
</svg>
