<svg id="Layer_1" data-name="Layer 1" xmlns="http://www.w3.org/2000/svg" viewBox="0 0 398 170"><defs><style>.cls-1{fill:#ffd065;}.cls-2{fill:#b7f2d4;}.cls-3{fill:#3b3639;}.cls-4{fill:#ffac89;}.cls-5{fill:#006ad9;}.cls-6{fill:#ff6a36;}.cls-7{fill:#ffd984;}.cls-8{fill:none;stroke:#000;stroke-miterlimit:10;}</style></defs><title>ST__16_Forms</title><path class="cls-1" d="M243.28,60.43c-.1,2.54.73,7.06.72,9.67q77-2.62,154-.86v-9.7C346.51,57,294.84,58.73,243.28,60.43Z"/><path class="cls-1" d="M28.72,70A19.16,19.16,0,0,0,30,61.49C20,60.65,10,60,0,59.54v9.7Q14.36,69.57,28.72,70Z"/><path class="cls-2" d="M35.78,151.39q-.46-7.16-.92-14.32L0,137v17.59Q17.93,153.49,35.78,151.39Z"/><path class="cls-2" d="M356.49,138.37c-2.38,2.34-.54,14-.53,17.52q21,0,42-1.29V137l-24.11,0C370.25,137,359.26,135.66,356.49,138.37Z"/><path class="cls-3" d="M375.56,12.41a5.44,5.44,0,0,1,.89,3.81,34.28,34.28,0,0,1-2,8.57l-12.35-.21a1,1,0,0,1-.66-.18.93.93,0,0,1-.21-.61c-.28-3.15-.79-4.37.43-7.28a2.44,2.44,0,0,1,.68-1C362.78,15.11,374.71,11.37,375.56,12.41Z"/><path class="cls-4" d="M211.14,67.74c3.57-4.06,3.72-10.57.83-15.13-.14-.22-.32-.46-.58-.46a.82.82,0,0,0-.52.26,77.45,77.45,0,0,0-8.21,8.13,1.67,1.67,0,0,1-1.08.72,1.65,1.65,0,0,1-1-.4l-8.1-5.63A25.12,25.12,0,0,0,191,60c-.18,2.28-.22,5,1,7C194,70.18,203,77,211.14,67.74Z"/><path class="cls-2" d="M103.89,67.38a38.08,38.08,0,0,0,5.78.23l72.83-.79-.93-12c-10.21.43-19,.7-28.07.71-7.71,0-35.25.12-41.13.75-2,.21-5.8-.57-7.47,1.18S103.92,64.65,103.89,67.38Z"/><path class="cls-5" d="M55.49,54.05q.57,10.63,2.18,21.18c-.1-.64-7.73-2.76-8.68-3.13-1.83-.72-5-1.62-5.06-4.08,0-2.19,3.55-5,4.9-6.57Q52.12,57.72,55.49,54.05Z"/><path class="cls-4" d="M336.37,109.7a6.22,6.22,0,0,0,2.73-.38c4.7-2.18,1.77-12.83-4-10.18S329.41,109.59,336.37,109.7Z"/><path class="cls-6" d="M321.92,107.1a21.22,21.22,0,0,0-.33-6.5c-23-.11-45.94-.23-68.88.79-16.94.75-33.85,2.12-50.77,3.31-8.67.61-17.33,1.18-26,1.59-2.35.11-20.33.05-13.89,7.08,2.19,2.39,7.71.87,10.51.66l13-.91q13-.88,25.93-1.65,25.94-1.53,51.9-2.59Q292.62,107.69,321.92,107.1Z"/><path class="cls-7" d="M98.42,108.89l14.25-1.12,0-10.83a1,1,0,0,0-.12-.58,1,1,0,0,0-.81-.26l-8.9,0c-1.18,0-3.55-.3-4.57.42-1.8,1.26-.61.22-.57,1.87C97.79,101.65,98.17,105.46,98.42,108.89Z"/><path class="cls-1" d="M88.25,98.35l.29,6.31L3,111.43c-.79-4.82-1.15-10.09,4.59-10.64,6.43-.62,13-.56,19.45-.55,13.24,0,26.49.61,39.73.12C68.53,100.29,88.29,99.22,88.25,98.35Z"/><path class="cls-5" d="M311,139.26l12.86,0a1.53,1.53,0,0,1,.78.14,1.52,1.52,0,0,1,.57,1,36.82,36.82,0,0,1,1,10.79c0-.21-12.82.52-14-.35C310,149,311.09,141.8,311,139.26Z"/><path class="cls-3" d="M115.34,147.59a12.73,12.73,0,0,0,5.66,1.14c53.18,2.41,106.48,3.59,159.64.87a116,116,0,0,0,14.86-1.44c1.83-.33,3.95-1,4.5-2.79.5-1.6-.64-3.33-2.13-4.09a10.77,10.77,0,0,0-4.91-.77l-76.45-.06-76.45-.06c-6.75,0-13.67.43-20.37-.29C115.21,139.63,109.18,144.17,115.34,147.59Z"/><path class="cls-6" d="M52.86,151.58a246.56,246.56,0,0,0,29.78-2,15.2,15.2,0,0,0-1.46-8.47,140.19,140.19,0,0,1-24.29,2.27l-.08-5.9a25.41,25.41,0,0,0-6.32,1S52.17,147.92,52.86,151.58Z"/><path class="cls-5" d="M140.47,22.68c21.14-.14,42.28-.29,63.41.06,26.92.45,120.84.7,147.63,3.32l-3.59-11.14c-28.4-2-123.84-2.71-152.31-3.12-26-.37-72,.37-97.94,1.1l-30.42.86c-6.69.19-19.25-2.25-24,3.69-6.34,8,7.21,5.71,11.69,5.67l30.86-.21C97.37,22.84,128.92,22.76,140.47,22.68Z"/><line class="cls-8" x1="49.5" y1="8.5" x2="49.5" y2="27.5"/><line class="cls-8" x1="109" y1="51.5" x2="109" y2="70.5"/><line class="cls-8" x1="320" y1="52.5" x2="320" y2="75.5"/><line class="cls-8" x1="360" y1="130.5" x2="360" y2="161.5"/><line class="cls-8" x1="295" y1="96.5" x2="295" y2="111.5"/><line class="cls-8" x1="25" y1="91.5" x2="25" y2="118.5"/><line class="cls-8" x1="145" y1="135.5" x2="145" y2="154.5"/></svg>