<svg id="Layer_1" data-name="Layer 1" xmlns="http://www.w3.org/2000/svg" viewBox="0 0 398 170"><defs><style>.cls-1{fill:#ffac89;}.cls-2,.cls-9{fill:none;}.cls-3{fill:#ffd984;}.cls-4{fill:#b7f2d4;}.cls-5{fill:#006ad9;}.cls-6{fill:#ff6a36;}.cls-7{fill:#ffd065;}.cls-8{fill:#fff;}.cls-9{stroke:#000;stroke-miterlimit:10;}.cls-10{fill:#3b3639;}</style></defs><title>ST__19_Building a Layout Library16_Forms</title><path class="cls-1" d="M168.53,60.2c30.57-.18,60.91,1.06,91,0,.47-6.61-.84-37.08-2.46-60.21H149.67q0,30.46,1.23,60.87C156.57,61.37,162.85,60.23,168.53,60.2Z"/><rect class="cls-2" width="398" height="170"/><path class="cls-3" d="M129.62,70.92l1.88,87.65c0,.35,0,.78-.36.91s.71.6,1.06.64c-36.42,2.09-72.57,4-109.05,4.46l-.85-94.33c30.14,2.21,60.19,1.6,90.33-.49C118.45,69.36,123.8,71.33,129.62,70.92Z"/><polygon class="cls-4" points="133.29 12.29 24 16.89 24.67 58 132.45 57.86 133.29 12.29"/><polygon class="cls-5" points="31 35.09 30.76 20.03 36.81 20.69 105.62 18 129 18.31 129.16 28.02 128.55 33.38 127.48 33.49 109.59 33 49.88 33.72 31 35.09"/><polygon class="cls-1" points="85.96 53.79 85.03 38.96 128.99 38.15 128.54 53 85.96 53.79"/><polygon class="cls-6" points="31.14 53.82 31.59 39 80.22 38.2 81.15 53 31.14 53.82"/><rect class="cls-4" x="285" y="130" width="102" height="24"/><path class="cls-1" d="M289.73,139.29c1.38-4.84,3.95-9.15,5.22-9.58,2.74,1.76,3.72,4.89,5.89,8.15,1.67,2.5,8,12.72,10,15.35H297.36c-3.09,0-3.3,0-11.95,0C285.45,152.77,288.32,144.24,289.73,139.29Z"/><path class="cls-7" d="M324.72,129.63c.1,0,.15-.1.25-.12a3.72,3.72,0,0,0-1.07,1.25c-.66,1-1.45,2-2.07,3.1-.5.85-.89,1.76-1.37,2.63-1.28,2.3-3,4.33-4.33,6.56s-2.34,4.88-3.55,7.3A8.14,8.14,0,0,1,310.8,153H334l-9-23"/><path class="cls-5" d="M343.09,130.82q8.46,10.9,16.23,22.31l-12.5-.1c-1.91,0-10.9,1.06-12-.36s2.73-8.82,3.36-10.45Q340.47,136.45,343.09,130.82Z"/><path class="cls-8" d="M370,132.26q7.58,11,16.18,21.31c-.56-.67-5.09-.42-6-.48q-3.3-.22-6.6-.34t-6.33-.14c-1.36,0-5.41.73-6.49,0C358.15,150.91,368.42,134.93,370,132.26Z"/><path class="cls-6" d="M180.85,80.83q-.53,16.66.29,33.34c-4.56.81-9.19-2-12.79-4.87-2.5-2-4.86-4.41-6-7.43-1.41-3.92-.45-8.34,1.36-12.09a15.71,15.71,0,0,1,2.86-4.27C170.24,81.84,175.71,81.23,180.85,80.83Z"/><path class="cls-5" d="M184.82,80.84q1.16,16.64,1.47,33.32c2.1.58,4.22-.21,6.34-.74,3.76-.95,7.92-2.18,9.88-5.52,1.34-2.28,1.34-5.08,1.18-7.72-.18-3-.59-6.08-2.27-8.54a15.84,15.84,0,0,0-5.09-4.35C192.88,85.22,188.64,82.07,184.82,80.84Z"/><path class="cls-4" d="M220.07,79.54c-4.77.73-8.61,4.7-10.21,9.25s-1.28,9.57-.24,14.28a9.83,9.83,0,0,0,1.21,3.32c1.3,2,3.7,2.89,6,3.41a29.91,29.91,0,0,0,9.35.59A166.51,166.51,0,0,0,220.07,79.54Z"/><path class="cls-1" d="M228.85,78.84l1.33,31.37c3.6-.36,7.2-.62,10.45-2.21a14.82,14.82,0,0,0,7.45-7.55,16.66,16.66,0,0,0,.65-8.58,13.12,13.12,0,0,0-1.85-5.4,13.3,13.3,0,0,0-4.49-3.87A29.6,29.6,0,0,0,228.85,78.84Z"/><polygon class="cls-5" points="56.18 113.62 30.12 116.05 43.63 150.49 56.18 113.62"/><polygon class="cls-8" points="30.12 116.05 56.18 113.62 43.63 81.62 30.12 116.05"/><polygon class="cls-5" points="122.18 115.62 96.12 115.05 109.63 150.49 122.18 115.62"/><polygon class="cls-8" points="96.12 115.05 122.18 115.62 109.63 81.62 96.12 115.05"/><polygon class="cls-6" points="61.84 118.48 87.9 116.05 74.39 81.62 61.84 118.48"/><polygon class="cls-8" points="87.9 116.05 61.84 118.48 74.39 150.49 87.9 116.05"/><line class="cls-9" x1="0.5" y1="60.25" x2="287.5" y2="78.25"/><line class="cls-9" x1="275.5" x2="275.5" y2="126"/><line class="cls-9" x1="275.5" y1="143" x2="275.5" y2="170"/><line class="cls-9" x1="148" y1="125.75" x2="387" y2="117.75"/><path class="cls-3" d="M171,44.71a5.47,5.47,0,0,0,3-.68,7,7,0,0,0,2.3-3.12c1.92-4,2.14-7.63-2.29-9.77-2.77-1.34-6.54-1.94-9.28-.21C157.51,35.48,164.38,44.66,171,44.71Z"/><path class="cls-6" d="M186.18,36.53A6.2,6.2,0,0,0,188.44,42a13.36,13.36,0,0,0,5.56,2.6c1.58.4,3.34.67,4.78-.1,4.38-2.36,3.08-10.31-.74-12.6S187,31.94,186.18,36.53Z"/><path class="cls-7" d="M209.21,40.19a6.94,6.94,0,0,0,4.1,5.38,6.78,6.78,0,0,0,3.34.5,7,7,0,0,0,5.72-3.81C226.91,32.51,208.08,30.87,209.21,40.19Z"/><path class="cls-4" d="M233.91,44.15a7.85,7.85,0,0,0,6.61,3.47A6.9,6.9,0,0,0,245,46c4.47-4,.62-11.28-4.53-12.39C234.82,32.36,231,39.56,233.91,44.15Z"/><path class="cls-4" d="M164.72,18.32a8.11,8.11,0,0,0,7,2.56,7.29,7.29,0,0,0,5.73-4.67C179,11.68,174.8,6.45,170,7.47,165.6,8.4,161.23,14.52,164.72,18.32Z"/><path class="cls-5" d="M190.81,20.51c8.28,1.87,9.23-9.95,1.76-11.17S183.16,18.78,190.81,20.51Z"/><path class="cls-6" d="M207.59,15.75a4.31,4.31,0,0,0-.24,1.67,4.91,4.91,0,0,0,1.11,2.52,8.66,8.66,0,0,0,7.38,3.55,6.37,6.37,0,0,0,5.78-5.36C222.41,10.06,210,8.36,207.59,15.75Z"/><path class="cls-10" d="M230,18.1a5.63,5.63,0,0,0,2.54,3.4,9.46,9.46,0,0,0,7.15,1.63,6.78,6.78,0,0,0,1.76-12.65C237,8,229,12.85,230,18.1Z"/><path class="cls-1" d="M255,147.4c-7.86.61-17.15-1.15-25-1.8-8.11-.68-17.22-.22-25.31-1.35-18.45-2.57-36.33-.48-54.83.06q-.2,12.84-.18,25.69H257.05C256.39,160.52,255.67,152.26,255,147.4Zm-79.72,13.83a5.5,5.5,0,0,1-.48,1.19,5.4,5.4,0,0,1-2.49,2.13,6.6,6.6,0,0,1-6.16-.14c-4.28-2.67-2.54-9.65,1.7-11.48C173,150.74,176.53,156.9,175.28,161.24Zm21.24-1.18c-.28,1.74-1,3.6-2.6,4.37-1.91.94-4.18-.08-6-1.23a6.72,6.72,0,0,1-3-3.24C182.65,153,198.57,147.36,196.52,160.06Zm21.86,6.16a8.38,8.38,0,0,1-6.76.17,8.12,8.12,0,0,1-4.88-4.46,5.17,5.17,0,0,1,1.71-6.07c3.73-2.4,11.84.09,12.87,4.59A5.48,5.48,0,0,1,218.38,166.22Zm22.1-.23a7.09,7.09,0,0,1-4.33.52,8.27,8.27,0,0,1-3.46-1.18c-5.33-3.55-1.64-11.56,3.94-12.22C243,152.35,246,163,240.47,166Z"/><path class="cls-10" d="M167.85,152.94c-4.24,1.83-6,8.81-1.7,11.48a6.6,6.6,0,0,0,6.16.14,5.4,5.4,0,0,0,2.49-2.13,5.5,5.5,0,0,0,.48-1.19C176.53,156.9,173,150.74,167.85,152.94Z"/><path class="cls-7" d="M184.94,160a6.72,6.72,0,0,0,3,3.24c1.79,1.15,4.06,2.17,6,1.23,1.58-.78,2.32-2.63,2.6-4.37C198.57,147.36,182.65,153,184.94,160Z"/><path class="cls-5" d="M208.44,155.86a5.17,5.17,0,0,0-1.71,6.07,8.12,8.12,0,0,0,4.88,4.46,8.38,8.38,0,0,0,6.76-.17,5.48,5.48,0,0,0,2.94-5.77C220.28,155.94,212.17,153.45,208.44,155.86Z"/><path class="cls-4" d="M236.63,153.1c-5.58.66-9.27,8.68-3.94,12.22a8.27,8.27,0,0,0,3.46,1.18,7.09,7.09,0,0,0,4.33-.52C246,163,243,152.35,236.63,153.1Z"/><path class="cls-5" d="M314.1,22.67a38.56,38.56,0,0,0-8.87,4.94c-6.13,4.84-9.49,12.43-11.2,20a63.16,63.16,0,0,0-1.12,21.06A24.89,24.89,0,0,0,296,79a25.12,25.12,0,0,0,4.8,5.4,62.21,62.21,0,0,0,30,14.93,54.09,54.09,0,0,0,33.08-4.27c6.86-3.32,13.06-8.38,16.68-15.08,5-9.17,4.55-20.46,1.43-30.4a56.67,56.67,0,0,0-17.38-26.26c-3.85-3.23-8.62-6.62-13.45-8.18s-11,.11-15.79,1A103.79,103.79,0,0,0,314.1,22.67Z"/><path class="cls-4" d="M316,33.6A4.67,4.67,0,0,0,311.61,35a6.08,6.08,0,0,0-1.51,4.44,1.86,1.86,0,0,0,.24.94,1.81,1.81,0,0,0,.65.54,5.52,5.52,0,0,0,6.07-.41c1.67-1.37,2.52-4.18,1.13-5.82A4.34,4.34,0,0,0,316,33.6Z"/><path class="cls-4" d="M329.14,28c-2,.28-2.41,3.73-1.31,5.41A4.23,4.23,0,0,0,330.54,35a5.51,5.51,0,0,0,5-1.15c1.28-1.27,1.43-3.66,0-4.77a7.31,7.31,0,0,0-2.25-.95A11,11,0,0,0,329.14,28Z"/><path class="cls-4" d="M355.4,28.87c-1.48-2.16-5.46-1.16-6.91,1a4.86,4.86,0,0,0,.19,5.49A4.92,4.92,0,0,0,353.93,37a10.87,10.87,0,0,0,1.72-1C358.83,34.39,356,29.75,355.4,28.87Z"/><path class="cls-7" d="M343.16,41.9a4.46,4.46,0,0,0-4.54-.62c-2,.74-3.91,2.37-3.78,4.45a4.15,4.15,0,0,0,2,3,11.58,11.58,0,0,0,3.46,1.38,5.53,5.53,0,0,0,2,.29c2.05-.2,3.23-2.56,3.21-4.63a4.44,4.44,0,0,0-.79-2.68A6.18,6.18,0,0,0,343.16,41.9Z"/><path class="cls-10" d="M363.83,44.53a4.86,4.86,0,0,0-4-.09A3.16,3.16,0,0,0,358,47.83a3.81,3.81,0,0,0,2.69,2.5,4.74,4.74,0,0,0,4-.35A3,3,0,0,0,366,46.42,3.39,3.39,0,0,0,363.83,44.53Z"/><path class="cls-4" d="M376.59,57.3a3.28,3.28,0,0,0-3.59.11,5,5,0,0,0-2,3.16,3.88,3.88,0,0,0,.55,3.22A5,5,0,0,0,373.35,65a6.77,6.77,0,0,0,2.44.8c2.45.18,4.56-2.49,4.08-4.91S376.59,57.3,376.59,57.3Z"/><path class="cls-4" d="M353.75,57.73c-1.94-.4-3.85,1.56-3.75,3.54a4.75,4.75,0,0,0,3.74,4.09,4.48,4.48,0,0,0,1.76.08,4,4,0,0,0,2.74-5.34C357.3,58,353.75,57.73,353.75,57.73Z"/><path class="cls-10" d="M368.89,80.68a4.19,4.19,0,0,0,2.73-2.33,3.42,3.42,0,0,0,0-2,4.28,4.28,0,0,0-7.42-1.66,4,4,0,0,0-.47,4.42C364.56,80.48,367.79,81.05,368.89,80.68Z"/><path class="cls-4" d="M348.82,88.61a3.19,3.19,0,0,1-1.09-2.32,4.9,4.9,0,0,1,1.74-4.19,4.07,4.07,0,0,1,4.43-.4,3.49,3.49,0,0,1,1.57,4.06,4.05,4.05,0,0,1-1.28,1.72C352.51,88.86,349.79,89.35,348.82,88.61Z"/><path class="cls-4" d="M334.33,83.84a7.59,7.59,0,0,1,2.81,3.73,5.2,5.2,0,0,1,.52,1.7,3.89,3.89,0,0,1-1.41,3,6.5,6.5,0,0,1-8.08.37,5.75,5.75,0,0,1-2.24-5.33,4.79,4.79,0,0,1,4-4C331,83.25,332.35,82.7,334.33,83.84Z"/><path class="cls-1" d="M340.4,68.27a3.58,3.58,0,0,0-4.43-.41,5.77,5.77,0,0,0-2.42,4,4.73,4.73,0,0,0,.18,2.52c.78,1.95,3.21,2.68,5.3,2.57a4.85,4.85,0,0,0,2.27-.57c2-1.17,2-4.12.86-6.11A4.89,4.89,0,0,0,340.4,68.27Z"/><path class="cls-4" d="M326.22,56.2a3.05,3.05,0,0,0-3.56,2.33,4.58,4.58,0,0,0,1.55,4.27A5,5,0,0,0,328.86,64a3.55,3.55,0,0,0,2.51-3.84,4.5,4.5,0,0,0-1.83-2.59A7,7,0,0,0,326.22,56.2Z"/><path class="cls-4" d="M318.93,74.26a4.76,4.76,0,0,0-3.9-.39,3.84,3.84,0,0,0-2.48,2.94A4,4,0,0,0,314,80.34a5.94,5.94,0,0,0,3.64,1.35c1.58.07,3.4-.56,3.88-2.06a3.37,3.37,0,0,0-.29-2.43A8.35,8.35,0,0,0,318.93,74.26Z"/><path class="cls-6" d="M300.93,61.07a5.13,5.13,0,0,0-1.45,2.62,5.27,5.27,0,0,0,.2,3.49,4.25,4.25,0,0,0,5.91,1.62c1.95-1.24,2.11-3.92,1.38-6.11C306,59.75,301.69,60.4,300.93,61.07Z"/><path class="cls-4" d="M308.66,48.31a5.34,5.34,0,0,1,3-.63,5.18,5.18,0,0,1,3.69,1.83,2.79,2.79,0,0,1-.35,3.8c-.55.39-1,1.44-3,1.44C308.37,54.75,304.71,50.29,308.66,48.31Z"/></svg>