<svg xmlns="http://www.w3.org/2000/svg" viewBox="0 0 398 170"><g fill="none"><path fill="#B7F2D4" d="M11.9 44.7c1.1 11.4 4.2 32 30.7 32.5s64.9 1 64.9 1 54.4-.5 56.1-.7c1.7-.2 25.3-1.9 30.2-27.2 4.9-25.3-24.2-34.8-37.4-36.9-13.2-2.1-44.5-4.7-56.9-4.2-12.4.5-40.4.2-54.2 2.2C27 14.2 10.1 25.8 11.9 44.7z"/><path fill="#FF6A36" d="M110.1 19.9l1.6 52.1c2.3-.3 3.9-.9 5.3-1.8l-.7-49.4c-1.8-.6-3.9-.8-6.2-.9zm-2.1-1.4h-3.1c-.9 0-1.9.1-2.9.2v53.9c.9.2 1.8.3 2.8.4.8.1 1.6.2 2.3.2l.9-43.8V18.5zm-16.8 5.3L94 69.3c1.2.4 2.5.8 4 1.2l-2.5-48.8c-1.5.6-2.9 1.3-4.3 2.1zm-3.3 2.3c-1.7 1.3-3.2 2.7-4.6 4.3-.8.9-1.5 1.8-2.2 2.8 2.1 3.8 3.4 8 3.8 12.4-.6 5-2.4 9.6-5.2 13.5 2.1 4 4.8 5.3 5.3 5.8.5.4 2.4 1.7 5.6 3.1l-2.7-41.9z"/><path fill="#3B3639" d="M81.1 33.2c-2.5 3.7-4.1 8-4.1 12.8 0 5.3.9 9.2 2.1 12 .2.5.4.9.6 1.3 2.8-3.9 4.6-8.6 5.2-13.5-.4-4.6-1.7-8.9-3.8-12.6z"/><path fill="#FFAC89" d="M95.3 21.7l2.5 48.8c1.3.3 2.7.6 4.2.9V19.9c-2.2.3-4.4.9-6.7 1.8zm12.7-1.9v10.4l-.9 41.8c2 .1 3.7.1 5.2-.1l-1.6-52.1H108zm9 .9l.7 49.4c1-.6 1.8-1.3 2.6-2l2.4-44.5c-1.8-1.4-3.6-2.3-5.7-2.9zm-29.1 5.4l2.8 42c1 .4 2.1.8 3.3 1.3l-2.7-45.5c-1.2.6-2.3 1.4-3.4 2.2z"/><path fill="#FF6A36" d="M124.5 48.5c-.4-6.5 1-12.5 3.8-17.3-1.9-3.5-3.9-5.9-6-7.6L120 68.1c1-1 1.9-2 3-3 .4-.3.8-.8 1.2-1.3.8-1.1 1.7-2.5 2.5-4.2-2-3.5-2.9-7.4-2.2-11.1z"/><path fill="#3B3639" d="M130.1 35.3c-.4-1.2-.8-2.3-1.4-3.4-.1-.3-.3-.5-.4-.7-2.8 4.9-4.2 10.8-3.8 17.3-.7 3.8.2 7.6 2.3 11.1 3.1-6.3 5.8-16.2 3.3-24.3z"/><path fill="#006AD9" d="M182.9 38c-3.6-10.1-16.1-18.5-32.3-19.2-1.3 0-2.5.1-3.7.2-5.3.6-9.8 2.7-13.4 5.8-2.1 1.8-3.8 3.9-5.2 6.3.1.2.3.5.4.7.6 1.1 1 2.2 1.4 3.4 2.5 8.1-.2 18-3.3 24.3 3.1 5.1 8.7 9.5 15.7 11.9 3.1 1.1 6.4 1.7 9.8 1.9 1 .1 2.1.1 3.2 0 15.6-.9 27.9-10.5 28.5-25v-2.4c.3-2.6-.1-5.3-1.1-7.9z"/><path fill="#B7F2D4" d="M136.1 37.1c1.4-.1 6.5-2 6.5-4.6-.1-3.6-4.3-4.5-6.7-2.7-.7.5-1.9 1.8-2.2 2.5-.3.7-.3 5 2.4 4.8zm8.5-10.8c.7 1 5.1 4.2 7.6 3 3.5-1.7 2.4-5.5-.5-6.5-.8-.3-2.7-.7-3.6-.6-.7 0-5 2.1-3.5 4.1zm6.4 43.6c1.2-.5 5.2-4.1 4.1-6.4-1.6-3.3-5.9-2.7-7.3-.3-.4.7-1 2.3-1 3.1 0 .6 1.8 4.7 4.2 3.6zm8.3-41.7c.3 1.2 3.4 5.4 6.2 4.9 4-.7 4.2-4.5 1.8-6.3-.7-.5-2.3-1.4-3.2-1.5-.6-.2-5.4.6-4.8 2.9zm9.1 10.2c.3 1.2 3.4 5.4 6.2 4.9 4-.7 4.2-4.5 1.8-6.3-.7-.5-2.3-1.4-3.2-1.5-.6-.2-5.4.6-4.8 2.9zm-10-1.5c-1.2-.6-6.6-1.7-8.3.4-2.3 3 .6 5.9 3.7 5.6.9-.1 2.8-.5 3.5-.9.6-.3 3.4-3.8 1.1-5.1zm-18.9 5.9c-1.1.7-4.6 4.6-3.1 6.8 2 3.1 6.2 2 7.3-.6.3-.7.7-2.4.6-3.2-.1-.6-2.5-4.4-4.8-3zm14.2 12.1c1.2.5 6.8 1 8.2-1.3 1.9-3.2-1.4-5.7-4.5-5.2-.9.2-2.7.8-3.3 1.3-.6.4-2.9 4.2-.4 5.2zm8.7 5.4c-.4 1.2-.1 6.2 2.6 7 3.8 1.2 6.2-2.1 5.1-4.7-.3-.7-1.2-2.2-1.9-2.7-.5-.4-5.1-1.9-5.8.4zm8.2-10.7c-.2 1.2 1 6.1 3.8 6.6 4 .7 5.8-2.9 4.3-5.3-.4-.7-1.6-2-2.3-2.5-.6-.3-5.4-1.1-5.8 1.2zm-33.2 5.7c-1.2.6-4.8 4.5-3.4 6.7 1.9 3.2 6.1 2.2 7.3-.4.3-.7.8-2.4.7-3.2-.1-.5-2.3-4.3-4.6-3.1z"/><path fill="#FFD065" d="M52.5 17.7c-9.5-.1-18.6 3.3-24.3 9.1l44.9-2.9c-5.5-4.1-12.5-6.5-20.6-6.2zM77 45.9c0-1.3.1-2.5.3-3.7l-55.1 3.5c0 3 .7 5.8 1.7 8.5L77.1 48c-.1-.7-.1-1.4-.1-2.1zm4.1-12.7c-.4-.6-.7-1.3-1.1-1.9l-57.6 6.5c-.4 2.1-.4 4.3-.1 6.6v.9l55.2-3.5c.6-3.1 1.9-6 3.6-8.6zM52.8 71.9c8.9.4 16.8-2.7 22.6-7.9l-44.9-.5c5.8 5.4 14 8.6 22.3 8.4zM30.1 63l45.8.5c1.4-1.4 2.7-2.8 3.9-4.5-.2-.4-.4-.8-.6-1.3-.2-.3-.3-.7-.4-1.1l-52 2.4c.9 1.4 2 2.8 3.3 4zm43.4-38.7l-45.8 3c-2.7 2.9-4.6 6.3-5.3 10.1l57.3-6.5c-1.7-2.5-3.7-4.7-6.2-6.6zm3.6 24.1l-53 6.1c.6 1.5 1.4 2.9 2.3 4.2l52.1-2.4c-.7-2-1.2-4.6-1.4-7.9z"/><path fill="#181718" d="M73.1 23.9l-44.9 2.9-.4.4 45.8-3c-.2-.1-.4-.2-.5-.3zm4 24.1L24 54.1c.1.1.1.3.2.4l53-6.1c-.1-.1-.1-.3-.1-.4zm.3-6.2l-55.2 3.5v.4l55.1-3.5c.1-.1.1-.3.1-.4zm2.3-10.9l-57.3 6.5c0 .1 0 .3-.1.4L80 31.3c-.1-.1-.2-.2-.3-.4zM30.5 63h44.9c.1.9.3.7.4 1H30.1c.1-.7.3-.6.4-1zm-4.1-4.2c.1.1.2.3.3.4l52-2.4c0-.1-.1-.3-.1-.4l-52.2 2.4z"/><path fill="#B7F2D4" d="M194.2 127.5c-1.1-11.4-4.2-32-30.7-32.5s-64.9-1-64.9-1-54.4.5-56.1.7c-1.7.2-25.3 1.9-30.2 27.2-4.9 25.3 24.2 34.8 37.4 36.9 13.2 2.1 44.5 4.7 56.9 4.2 12.4-.5 40.4-.2 54.2-2.2 18.2-2.8 35.2-14.4 33.4-33.3z"/><path fill="#FF6A36" d="M95.9 152.4l-1.6-52.1c-2.3.3-3.9.9-5.3 1.8l.7 49.4c1.8.5 3.9.7 6.2.9zm2.1 1.3h3.1c.9 0 1.9-.1 2.9-.2V99.6c-.9-.2-1.8-.3-2.8-.4-.8-.1-1.6-.2-2.3-.2l-.9 43.8v10.9zm16.8-5.3l-2.7-45.5c-1.2-.4-2.5-.8-4-1.2l2.5 48.8c1.4-.6 2.8-1.3 4.2-2.1zm3.3-2.2c1.7-1.3 3.2-2.7 4.6-4.3.8-.9 1.5-1.8 2.2-2.8-2.1-3.8-3.4-8-3.8-12.4.6-5 2.4-9.6 5.2-13.5-2.1-4-4.8-5.3-5.3-5.8-.5-.4-2.4-1.7-5.6-3.1l2.7 41.9z"/><path fill="#3B3639" d="M124.9 139.1c2.5-3.7 4.1-8 4.1-12.8 0-5.3-.9-9.2-2.1-12-.2-.5-.4-.9-.6-1.3-2.8 3.9-4.6 8.6-5.2 13.5.4 4.6 1.7 8.8 3.8 12.6z"/><path fill="#FFAC89" d="M110.7 150.5l-2.5-48.8c-1.3-.3-2.7-.6-4.2-.9v51.4c2.2-.2 4.4-.8 6.7-1.7zm-12.7 2V142l.9-41.8c-2-.1-3.7-.1-5.2.1l1.6 52.1c.9 0 1.8 0 2.7.1zm-9-1l-.7-49.4c-1 .6-1.8 1.3-2.6 2l-2.4 44.5c1.8 1.4 3.6 2.3 5.7 2.9zm29.1-5.3l-2.8-42c-1-.4-2.1-.8-3.3-1.3l2.7 45.5c1.3-.7 2.4-1.4 3.4-2.2z"/><path fill="#FF6A36" d="M81.6 123.7c.4 6.5-1 12.5-3.8 17.3 1.9 3.5 3.9 5.9 6 7.6l2.4-44.5c-1 1-1.9 2-3 3-.4.3-.8.8-1.2 1.3-.8 1.1-1.7 2.5-2.5 4.2 1.9 3.6 2.8 7.4 2.1 11.1z"/><path fill="#3B3639" d="M75.9 137c.4 1.2.8 2.3 1.4 3.4.1.3.3.5.4.7 2.8-4.9 4.2-10.8 3.8-17.3.7-3.8-.2-7.6-2.3-11.1-3.1 6.3-5.7 16.1-3.3 24.3z"/><path fill="#006AD9" d="M23.1 134.2c3.6 10.1 16.1 18.5 32.3 19.2 1.3 0 2.5-.1 3.7-.2 5.3-.6 9.8-2.7 13.4-5.8 2.1-1.8 3.8-3.9 5.2-6.3-.1-.2-.3-.5-.4-.7-.6-1.1-1-2.2-1.4-3.4-2.5-8.1.2-18 3.3-24.3-3.1-5.1-8.7-9.5-15.7-11.9-3.1-1.1-6.4-1.7-9.8-1.9-1-.1-2.1-.1-3.2 0-15.6.9-27.9 10.5-28.5 25v2.4c-.2 2.6.2 5.3 1.1 7.9z"/><path fill="#B7F2D4" d="M66 144.4c1.4-.1 6.5-2 6.5-4.6-.1-3.6-4.3-4.5-6.7-2.7-.7.5-1.9 1.8-2.2 2.5-.3.7-.3 5 2.4 4.8zm-1.7-27.8c.7 1 5.1 4.2 7.6 3 3.5-1.7 2.4-5.5-.5-6.5-.8-.3-2.7-.7-3.6-.6-.6 0-4.9 2-3.5 4.1zm-4.7-4.5c1.2-.5 5.2-4.1 4.1-6.4-1.6-3.3-5.9-2.7-7.3-.3-.4.7-1 2.3-1 3.1-.1.6 1.8 4.6 4.2 3.6zm-15.5 10.4c.3 1.2 3.4 5.4 6.2 4.9 4-.7 4.2-4.5 1.8-6.3-.7-.5-2.3-1.4-3.2-1.5-.6-.2-5.4.6-4.8 2.9zm7.7 23c.3 1.2 3.4 5.4 6.2 4.9 4-.7 4.2-4.5 1.8-6.3-.7-.5-2.3-1.4-3.2-1.5-.7-.1-5.5.6-4.8 2.9zm-13.4-33.7c-1.2-.6-6.6-1.7-8.3.4-2.3 3 .6 5.9 3.7 5.6.9-.1 2.8-.5 3.5-.9.6-.3 3.4-3.9 1.1-5.1zm6.8-8.6c-1.1.7-4.6 4.6-3.1 6.8 2 3.1 6.2 2 7.3-.6.3-.7.7-2.4.6-3.2-.1-.5-2.5-4.3-4.8-3zm14.3 28.9c1.2.5 6.8 1 8.2-1.3 1.9-3.2-1.4-5.7-4.5-5.2-.9.2-2.7.8-3.3 1.3-.5.4-2.8 4.2-.4 5.2zm-32.7-9c-.4 1.2-.1 6.2 2.6 7 3.8 1.2 6.2-2.1 5.1-4.7-.3-.7-1.2-2.2-1.9-2.7-.5-.4-5.1-1.9-5.8.4zm3.5 11.9c-.2 1.2 1 6.1 3.8 6.6 4 .7 5.8-2.9 4.3-5.3-.4-.7-1.6-2-2.3-2.5-.7-.3-5.5-1.1-5.8 1.2zm15.7 1.3c-1.2.6-4.8 4.5-3.4 6.7 1.9 3.2 6.1 2.2 7.3-.4.3-.7.8-2.4.7-3.2-.1-.5-2.3-4.4-4.6-3.1z"/><path fill="#FFD065" d="M153.6 154.5c9.5.1 18.6-3.3 24.3-9.1l-44.9 2.9c5.4 4.2 12.5 6.5 20.6 6.2zM129 126.3c0 1.3-.1 2.5-.3 3.7l55.1-3.5c0-3-.7-5.8-1.7-8.5l-53.1 6.1v2.2zm-4.1 12.8c.4.6.7 1.3 1.1 1.9l57.6-6.5c.4-2.1.4-4.3.1-6.6v-.9l-55.2 3.5c-.5 3.1-1.8 6-3.6 8.6zm28.3-39c-8.9-.4-16.8 2.7-22.6 7.9l44.9.5c-5.8-5.4-14-8.6-22.3-8.4zM176 109l-45.8-.5c-1.4 1.4-2.7 2.8-3.9 4.5.2.4.4.8.6 1.3.2.3.3.7.4 1.1l52-2.4c-.9-1.5-2.1-2.8-3.3-4zm-43.5 39l45.8-3c2.7-2.9 4.6-6.3 5.3-10.1l-57.3 6.5c1.7 2.4 3.8 4.7 6.2 6.6zm-3.5-24.2l53-6.1c-.6-1.5-1.4-2.9-2.3-4.2l-52.1 2.4c.6 2 1.2 4.7 1.4 7.9z"/><path fill="#181718" d="M133 148.3l44.9-2.9.4-.4-45.8 3c.2.1.3.2.5.3zm-4-24.1l53.1-6.1c-.1-.1-.1-.3-.2-.4l-53 6.1c.1.1.1.3.1.4zm-.4 6.2l55.2-3.5v-.4l-55.1 3.5c0 .2-.1.3-.1.4zm-2.3 10.9l57.3-6.5c0-.1 0-.3.1-.4l-57.6 6.5c0 .1.1.3.2.4zm49.2-33.3h-44.9c-.1.4-.3.5-.4 1H176c-.2 0-.3-.2-.5-1zm4.1 5.5c-.1-.1-.2-.3-.3-.4l-52 2.4c0 .1.1.3.1.4l52.2-2.4z"/><path fill="#B7F2D4" d="M210 44.7c1.1 11.4 4.2 32 30.7 32.5s64.9 1 64.9 1 54.4-.5 56.1-.7c1.7-.2 25.3-1.9 30.2-27.2 4.9-25.3-24.2-34.8-37.4-36.9-13.2-2.1-44.5-4.7-56.9-4.2-12.4.5-40.4.2-54.2 2.2-18.2 2.8-35.2 14.4-33.4 33.3z"/><path fill="#FF6A36" d="M309.1 19.9l1.6 52.1c2.3-.3 3.9-.9 5.3-1.8l-.7-49.4c-1.8-.6-3.9-.8-6.2-.9zm-3.1-1.4h-3.1c-.9 0-1.9.1-2.9.2v53.9c.9.2 1.8.3 2.8.4.8.1 1.6.2 2.3.2l.9-43.8V18.5zm-16.6 5.3l2.7 45.5c1.2.4 2.5.8 4 1.2l-2.5-48.8c-1.4.6-2.8 1.3-4.2 2.1zm-3.3 2.3c-1.7 1.3-3.2 2.7-4.6 4.3-.8.9-1.5 1.8-2.2 2.8 2.1 3.8 3.4 8 3.8 12.4-.6 5-2.4 9.6-5.2 13.5 2.1 4 4.8 5.3 5.3 5.8.5.4 2.4 1.7 5.6 3.1l-2.7-41.9z"/><path fill="#3B3639" d="M279.3 33.2c-2.5 3.7-4.1 8-4.1 12.8 0 5.3.9 9.2 2.1 12 .2.5.4.9.6 1.3 2.8-3.9 4.6-8.6 5.2-13.5-.4-4.6-1.7-8.9-3.8-12.6z"/><path fill="#FFAC89" d="M293.3 21.7l2.5 48.8c1.3.3 2.7.6 4.2.9V19.9c-2.2.3-4.4.9-6.7 1.8zm12.7-1.9v10.4l-.9 41.8c2 .1 3.7.1 5.2-.1l-1.6-52.1H306zm9 .9l.7 49.4c1-.6 1.8-1.3 2.6-2l2.4-44.5c-1.8-1.4-3.6-2.3-5.7-2.9zm-28.9 5.4l2.8 42c1 .4 2.1.8 3.3 1.3l-2.7-45.5c-1.2.6-2.4 1.4-3.4 2.2z"/><path fill="#FF6A36" d="M322.7 48.5c-.4-6.5 1-12.5 3.8-17.3-1.9-3.5-3.9-5.9-6-7.6l-2.4 44.5c1-1 1.9-2 3-3 .4-.3.8-.8 1.2-1.3.8-1.1 1.7-2.5 2.5-4.2-2-3.5-2.9-7.4-2.1-11.1z"/><path fill="#3B3639" d="M328.3 35.3c-.4-1.2-.8-2.3-1.4-3.4-.1-.3-.3-.5-.4-.7-2.8 4.9-4.2 10.8-3.8 17.3-.7 3.8.2 7.6 2.3 11.1 3.1-6.3 5.8-16.2 3.3-24.3z"/><path fill="#006AD9" d="M381.1 38c-3.6-10.1-16.1-18.5-32.3-19.2-1.3 0-2.5.1-3.7.2-5.3.6-9.8 2.7-13.4 5.8-2.1 1.8-3.8 3.9-5.2 6.3.1.2.3.5.4.7.6 1.1 1 2.2 1.4 3.4 2.5 8.1-.2 18-3.3 24.3 3.1 5.1 8.7 9.5 15.7 11.9 3.1 1.1 6.4 1.7 9.8 1.9 1 .1 2.1.1 3.2 0 15.6-.9 27.9-10.5 28.5-25v-2.4c.2-2.6-.1-5.3-1.1-7.9z"/><path fill="#B7F2D4" d="M334.3 37.1c1.4-.1 6.5-2 6.5-4.6-.1-3.6-4.3-4.5-6.7-2.7-.7.5-1.9 1.8-2.2 2.5-.3.7-.3 5 2.4 4.8zm8.4-10.8c.7 1 5.1 4.2 7.6 3 3.5-1.7 2.4-5.5-.5-6.5-.8-.3-2.7-.7-3.6-.6-.6 0-4.9 2.1-3.5 4.1zm6.5 43.6c1.2-.5 5.2-4.1 4.1-6.4-1.6-3.3-5.9-2.7-7.3-.3-.4.7-1 2.3-1 3.1-.1.6 1.8 4.7 4.2 3.6zm8.3-41.7c.3 1.2 3.4 5.4 6.2 4.9 4-.7 4.2-4.5 1.8-6.3-.7-.5-2.3-1.4-3.2-1.5-.7-.2-5.5.6-4.8 2.9zm9.1 10.2c.3 1.2 3.4 5.4 6.2 4.9 4-.7 4.2-4.5 1.8-6.3-.7-.5-2.3-1.4-3.2-1.5-.7-.2-5.5.6-4.8 2.9zm-10-1.5c-1.2-.6-6.6-1.7-8.3.4-2.3 3 .6 5.9 3.7 5.6.9-.1 2.8-.5 3.5-.9.5-.3 3.4-3.8 1.1-5.1zm-18.9 5.9c-1.1.7-4.6 4.6-3.1 6.8 2 3.1 6.2 2 7.3-.6.3-.7.7-2.4.6-3.2-.2-.6-2.6-4.4-4.8-3zm14.1 12.1c1.2.5 6.8 1 8.2-1.3 1.9-3.2-1.4-5.7-4.5-5.2-.9.2-2.7.8-3.3 1.3-.5.4-2.8 4.2-.4 5.2zm8.7 5.4c-.4 1.2-.1 6.2 2.6 7 3.8 1.2 6.2-2.1 5.1-4.7-.3-.7-1.2-2.2-1.9-2.7-.5-.4-5-1.9-5.8.4zm8.3-10.7c-.2 1.2 1 6.1 3.8 6.6 4 .7 5.8-2.9 4.3-5.3-.4-.7-1.6-2-2.3-2.5-.7-.3-5.4-1.1-5.8 1.2zm-33.3 5.7c-1.2.6-4.8 4.5-3.4 6.7 1.9 3.2 6.1 2.2 7.3-.4.3-.7.8-2.4.7-3.2 0-.5-2.3-4.3-4.6-3.1z"/><path fill="#FFD065" d="M250.6 17.7c-9.5-.1-18.6 3.3-24.3 9.1l44.9-2.9c-5.4-4.1-12.5-6.5-20.6-6.2zm24.6 28.2c0-1.3.1-2.5.3-3.7l-55.1 3.5c0 3 .7 5.8 1.7 8.5l53.1-6.1v-2.2zm4.1-12.7c-.4-.6-.7-1.3-1.1-1.9l-57.6 6.5c-.4 2.1-.4 4.3-.1 6.6v.9l55.2-3.5c.5-3.1 1.8-6 3.6-8.6zM251 71.9c8.9.4 16.8-2.7 22.6-7.9l-44.9-.5c5.8 5.4 14 8.6 22.3 8.4zM228.2 63l45.8.5c1.4-1.4 2.7-2.8 3.9-4.5-.2-.4-.4-.8-.6-1.3-.2-.3-.3-.7-.4-1.1l-52 2.4c.9 1.4 2.1 2.8 3.3 4zm43.5-38.7l-45.8 3c-2.7 2.9-4.6 6.3-5.3 10.1l57.3-6.5c-1.7-2.5-3.8-4.7-6.2-6.6zm3.6 24.1l-53 6.1c.6 1.5 1.4 2.9 2.3 4.2l52.1-2.4c-.7-2-1.3-4.6-1.4-7.9z"/><path fill="#181718" d="M271.2 23.9l-44.9 2.9-.4.4 45.8-3c-.1-.1-.3-.2-.5-.3zm4 24.1l-53.1 6.1c.1.1.1.3.2.4l53-6.1c0-.1-.1-.3-.1-.4zm.4-6.2l-55.2 3.5v.4l55.1-3.5c0-.1.1-.3.1-.4zm2.3-10.9l-57.3 6.5c0 .1 0 .3-.1.4l57.6-6.5c0-.1-.1-.2-.2-.4zM228.7 63h44.9c.1.9.3.7.4 1h-45.8c.2-.7.3-.6.5-1zm-4.1-4.2c.1.1.2.3.3.4l52-2.4c0-.1-.1-.3-.1-.4l-52.2 2.4z"/><path fill="#B7F2D4" d="M392.4 127.5c-1.1-11.4-4.2-32-30.7-32.5s-64.9-1-64.9-1-54.4.5-56.1.7c-1.7.2-25.3 1.9-30.2 27.2-4.9 25.3 24.2 34.8 37.4 36.9 13.2 2.1 44.5 4.7 56.9 4.2 12.4-.5 40.4-.2 54.2-2.2 18.2-2.8 35.1-14.4 33.4-33.3z"/><path fill="#FF6A36" d="M293.9 152.4l-1.6-52.1c-2.3.3-3.9.9-5.3 1.8l.7 49.4c1.8.5 3.9.7 6.2.9zm2.1 1.3h3.1c.9 0 1.9-.1 2.9-.2V99.6c-.9-.2-1.8-.3-2.8-.4-.8-.1-1.6-.2-2.3-.2l-.9 43.8v10.9zm17-5.3l-2.7-45.5c-1.2-.4-2.5-.8-4-1.2l2.5 48.8c1.4-.6 2.8-1.3 4.2-2.1zm3.3-2.2c1.7-1.3 3.2-2.7 4.6-4.3.8-.9 1.5-1.8 2.2-2.8-2.1-3.8-3.4-8-3.8-12.4.6-5 2.4-9.6 5.2-13.5-2.1-4-4.8-5.3-5.3-5.8-.5-.4-2.4-1.7-5.6-3.1l2.7 41.9z"/><path fill="#3B3639" d="M323.1 139.1c2.5-3.7 4.1-8 4.1-12.8 0-5.3-.9-9.2-2.1-12-.2-.5-.4-.9-.6-1.3-2.8 3.9-4.6 8.6-5.2 13.5.4 4.6 1.7 8.8 3.8 12.6z"/><path fill="#FFAC89" d="M308.7 150.5l-2.5-48.8c-1.3-.3-2.7-.6-4.2-.9v51.4c2.2-.2 4.4-.8 6.7-1.7zm-12.7 2V142l.9-41.8c-2-.1-3.7-.1-5.2.1l1.6 52.1c.9 0 1.8 0 2.7.1zm-9-1l-.7-49.4c-1 .6-1.8 1.3-2.6 2l-2.4 44.5c1.8 1.4 3.6 2.3 5.7 2.9zm29.3-5.3l-2.8-42c-1-.4-2.1-.8-3.3-1.3l2.7 45.5c1.2-.7 2.3-1.4 3.4-2.2z"/><path fill="#FF6A36" d="M279.7 123.7c.4 6.5-1 12.5-3.8 17.3 1.9 3.5 3.9 5.9 6 7.6l2.4-44.5c-1 1-1.9 2-3 3-.4.3-.8.8-1.2 1.3-.8 1.1-1.7 2.5-2.5 4.2 1.9 3.6 2.8 7.4 2.1 11.1z"/><path fill="#3B3639" d="M274.1 137c.4 1.2.8 2.3 1.4 3.4.1.3.3.5.4.7 2.8-4.9 4.2-10.8 3.8-17.3.7-3.8-.2-7.6-2.3-11.1-3.1 6.3-5.8 16.1-3.3 24.3z"/><path fill="#006AD9" d="M221.3 134.2c3.6 10.1 16.1 18.5 32.3 19.2 1.3 0 2.5-.1 3.7-.2 5.3-.6 9.8-2.7 13.4-5.8 2.1-1.8 3.8-3.9 5.2-6.3-.1-.2-.3-.5-.4-.7-.6-1.1-1-2.2-1.4-3.4-2.5-8.1.2-18 3.3-24.3-3.1-5.1-8.7-9.5-15.7-11.9-3.1-1.1-6.4-1.7-9.8-1.9-1-.1-2.1-.1-3.2 0-15.6.9-27.9 10.5-28.5 25v2.4c-.2 2.6.1 5.3 1.1 7.9z"/><path fill="#B7F2D4" d="M264.2 144.4c1.4-.1 6.5-2 6.5-4.6-.1-3.6-4.3-4.5-6.7-2.7-.7.5-1.9 1.8-2.2 2.5-.3.7-.3 5 2.4 4.8zm-1.7-27.8c.7 1 5.1 4.2 7.6 3 3.5-1.7 2.4-5.5-.5-6.5-.8-.3-2.7-.7-3.6-.6-.6 0-5 2-3.5 4.1zm-4.8-4.5c1.2-.5 5.2-4.1 4.1-6.4-1.6-3.3-5.9-2.7-7.3-.3-.4.7-1 2.3-1 3.1 0 .6 1.8 4.6 4.2 3.6zm-15.4 10.4c.3 1.2 3.4 5.4 6.2 4.9 4-.7 4.2-4.5 1.8-6.3-.7-.5-2.3-1.4-3.2-1.5-.7-.2-5.5.6-4.8 2.9zm7.6 23c.3 1.2 3.4 5.4 6.2 4.9 4-.7 4.2-4.5 1.8-6.3-.7-.5-2.3-1.4-3.2-1.5-.6-.1-5.4.6-4.8 2.9zm-13.3-33.7c-1.2-.6-6.6-1.7-8.3.4-2.3 3 .6 5.9 3.7 5.6.9-.1 2.8-.5 3.5-.9.6-.3 3.4-3.9 1.1-5.1zm6.8-8.6c-1.1.7-4.6 4.6-3.1 6.8 2 3.1 6.2 2 7.3-.6.3-.7.7-2.4.6-3.2-.1-.5-2.6-4.3-4.8-3zm14.3 28.9c1.2.5 6.8 1 8.2-1.3 1.9-3.2-1.4-5.7-4.5-5.2-.9.2-2.7.8-3.3 1.3-.6.4-2.9 4.2-.4 5.2zm-32.8-9c-.4 1.2-.1 6.2 2.6 7 3.8 1.2 6.2-2.1 5.1-4.7-.3-.7-1.2-2.2-1.9-2.7-.5-.4-5-1.9-5.8.4zm3.5 11.9c-.2 1.2 1 6.1 3.8 6.6 4 .7 5.8-2.9 4.3-5.3-.4-.7-1.6-2-2.3-2.5-.6-.3-5.4-1.1-5.8 1.2zm15.7 1.3c-1.2.6-4.8 4.5-3.4 6.7 1.9 3.2 6.1 2.2 7.3-.4.3-.7.8-2.4.7-3.2 0-.5-2.3-4.4-4.6-3.1z"/><path fill="#FFD065" d="M351.8 154.5c9.5.1 18.6-3.3 24.3-9.1l-44.9 2.9c5.4 4.2 12.4 6.5 20.6 6.2zm-24.6-28.2c0 1.3-.1 2.5-.3 3.7l55.1-3.5c0-3-.7-5.8-1.7-8.5l-53.1 6.1v2.2zm-4.1 12.8c.4.6.7 1.3 1.1 1.9l57.6-6.5c.4-2.1.4-4.3.1-6.6v-.9l-55.2 3.5c-.5 3.1-1.8 6-3.6 8.6zm28.3-39c-8.9-.4-16.8 2.7-22.6 7.9l44.9.5c-5.8-5.4-14-8.6-22.3-8.4zm22.7 8.9l-45.8-.5c-1.4 1.4-2.7 2.8-3.9 4.5.2.4.4.8.6 1.3.2.3.3.7.4 1.1l52-2.4c-.9-1.5-2-2.8-3.3-4zm-43.4 39l45.8-3c2.7-2.9 4.6-6.3 5.3-10.1l-57.3 6.5c1.7 2.4 3.8 4.7 6.2 6.6zm-3.6-24.2l53-6.1c-.6-1.5-1.4-2.9-2.3-4.2l-52.1 2.4c.7 2 1.2 4.7 1.4 7.9z"/><path fill="#181718" d="M331.2 148.3l44.9-2.9.4-.4-45.8 3c.1.1.3.2.5.3zm-4.1-24.1l53.1-6.1c-.1-.1-.1-.3-.2-.4l-53 6.1c.1.1.1.3.1.4zm-.3 6.2L382 127v-.4l-55.1 3.5c-.1.1-.1.2-.1.3zm-2.3 10.9l57.3-6.5c0-.1 0-.3.1-.4l-57.6 6.5c0 .1.1.3.2.4zm49.2-33.3h-44.9c-.1.4-.3.5-.4 1h45.8c-.2 0-.3-.2-.5-1zm4.1 5.5c-.1-.1-.2-.3-.3-.4l-52 2.4c0 .1.1.3.1.4l52.2-2.4z"/></g></svg>