<svg xmlns="http://www.w3.org/2000/svg" viewBox="0 0 398 170"><g fill="none" fill-rule="evenodd"><path fill="#B7F2D4" fill-rule="nonzero" d="M179.3 74.4L70 78.7l.6 36.3 107.8-.3z"/><path fill="#FFAC89" fill-rule="nonzero" d="M282.2 61c0-16.8-12.5-32.6-22.9-39-6.3-3.8-13.8-5.6-21.7-5.6-9.2 0-18.5 1.3-24.9 7.6C202.5 34 193 45.6 193 61h89.2z"/><path fill="#FF6A36" fill-rule="nonzero" d="M251.1 38.9c-.1 8.5-5.6 13.2-13.7 13.5-7.4.5-13.4-5.1-13.6-13.4 1-8.4 6.4-14 14.2-14.4 6.3.1 13.3 7.7 13.1 14.3z"/><path fill="#006AD9" fill-rule="nonzero" d="M282.3 107c0-13.9-5.3-20.2-14.6-31.1-6.5-7.6-19.3-13.5-30-13.5-11.7 0-19.7 1.5-27.6 8.8-8.8 8.1-17 22.8-17 35.8h89.2z"/><path fill="#B7F2D4" fill-rule="nonzero" d="M251.8 85.5c-.1 7.5-6.3 13.6-14.6 12.6-6.7.3-12.3-5-12.1-13.2-1.5-7.7 5.6-13.6 12.7-12.4 8.1-.9 13.2 5.6 14 13z"/><path fill="#FFD065" fill-rule="nonzero" d="M282.2 154c0-3.4.5-6.8-.3-10-1.1-4.7-2-9.1-4.5-13.2-2.1-3.5-5.6-7.5-8.5-10.3-4-3.8-9.6-7.7-14.8-9.7-5.1-2-10.7-1.4-16.5-1.4-7.2 0-13.9 1.7-19.8 4.7-4.8 2.5-10.2 5.8-13.7 9.8-3.3 3.8-5 8.4-7 13.2-.9 2.2-2.5 4.5-3 6.8-.7 3.2-1.1 6.5-1.1 10l89.2.1z"/><path fill="#FF6A36" fill-rule="nonzero" d="M250.4 131.1c.8 7.5-6.1 13.5-13 13.8-7.5 0-13.1-6.1-13.5-13.8-.5-7 6.7-13.4 13.1-13.2 7.9.1 14 5.8 13.4 13.2z"/><path fill="#006AD9" fill-rule="nonzero" d="M77 95l-.2-13.1 6 .6 68.8-2.5 23.4.2.1 8.4-.6 4.7-1 .1-17.9-.4-59.7.7z"/><path fill="#FFAC89" fill-rule="nonzero" d="M132 111.6l-.9-13.1 43.9-.8-.5 13.1z"/><path fill="#FF6A36" fill-rule="nonzero" d="M77.7 111.8l.5-12.8 47.5-.8.9 12.8z"/><path fill="#FFD984" fill-rule="nonzero" d="M30.8 152H57V11h-2.8z"/><path fill="#B7F2D4" fill-rule="nonzero" d="M108 55h40v24h-40z"/><path fill="#FFAC89" fill-rule="nonzero" d="M112.7 64.5c1.4-4.8 3.9-9.1 5.2-9.6 2.7 1.8 3.7 4.9 5.9 8.1 1.7 2.5 8 12.7 10 15.3h-25.4c.1-.3 2.9-8.8 4.3-13.8z"/><path fill="#FFD065" fill-rule="nonzero" d="M147.7 54.6c.1 0 .1-.1.3-.1-.4.3-.8.8-1.1 1.3-.7 1-1.5 2-2.1 3.1-.5.8-.9 1.8-1.4 2.6-1.3 2.3-3 4.3-4.3 6.6-1.4 2.3-2.3 4.9-3.6 7.3-.4.8-1 2.1-1.8 2.7H148v-23"/><path fill="#FFAC89" fill-rule="nonzero" d="M5 152v-6.3L27.8 12l3.2-.1V152zM332.7 145.6c.3 4.1-6.4 16.6-16.7 16.3-9.1-.3-17.5-7.2-17.5-16.3 0-42.2 1.7-73.7 1.7-115.7 0-8.3 6.4-15.5 14.7-15.9 9.6-.5 17.1 5.8 17.1 15.3l.7 116.3z"/><path fill="#FFD984" fill-rule="nonzero" d="M384.9 147.4c0 .8-.1 1.6-.2 2.4-1.2 8.5-8.9 14.8-17.9 13.9-8.5-.8-14.8-8.3-14.8-16.8V30.8c0-8.3 6.7-16 15-16.8 9.7-.9 17.9 6.8 17.9 16.4l.7 32.5 1.4 51.5-2.2 33.7"/><path stroke="#181718" d="M316 43.5h54m.5 22.5v25m0 63.5V170m0-170v25.5m-54.2 87.9l53.8 22.6M316.5 152v-17.5h-78v-124h-108V55M316.5 67v24"/><path fill="#FFD065" fill-rule="nonzero" d="M168.4 143.7v1.5c1-8.5 1.1-18 1-26.5-18.3 1.7-36.7-2.2-55-1.3-9.2.4-18.1 1.8-27.2.9.8 8.2 1.2 16.5 1.1 24.8 26.8 1.8 54-3.7 80.4 1-.3-.5 0 0-.3-.4z"/><path stroke="#181718" d="M31.5 152v8.5h89V142"/></g></svg>