<svg xmlns="http://www.w3.org/2000/svg" viewBox="0 0 398 170"><g fill="none" fill-rule="evenodd"><path fill="#B7F2D4" fill-rule="nonzero" d="M85.9 138.6c-21.7.1-42.1 1.8-63.8 3 2.4-33.1 1.8-66.5 2.4-99.8C43.8 46.3 64.4 45.7 84 46c-.7 10.1-1.3 21.4-1.7 31.5-.2 5.3-.1 10.6-.1 15.9.3 14.5 3.6 30.8 3.7 45.2z"/><path fill="#FFDA85" fill-rule="nonzero" d="M153.6 165.9c-.3-18.3-1.1-35.7-.4-53.9-25.1-.7-49.8-1-74.8 1.9-1.3 18.5-1.3 37.3-1.4 56.1h26.8l.3-24.8h.5c.8 0 2.2-.1 3.9-.2 5.2-.4 13.8-1.1 16.7-1.3v.1c.5 0 1-.1 1.4-.1.4 8.7.7 17.5 1 26.3h26c.1-1.4 0-2.7 0-4.1zM153.7 0h-25.8c.3 8.7.5 17.4.7 26-.3-.1-.7-.1-1-.2h-.8v.2c-.3-.1-.6-.1-1-.2h-.4c-4.5.1-14.3.6-19.2.6h-.2c-1.3 0-2.2-.1-2.5-.2l.3-26.2h-27c-.1 21-.3 42-2.2 62.6 26.9-1.1 54.4-1.8 81.3-2.9-.7-20.6-1.8-40.2-2.2-59.7z"/><path fill="#FFB08E" fill-rule="nonzero" d="M235.1 67.1H234c-10.3.3-20.6.7-31 1-4.1.1-8.2.3-12.3.4-22.3.7-44.1.4-66.3-.2-1.5 7.2 0 14.6 1 21.9 3.1 21.8 2.1 43.9 1 65.9l21.4-1.7c5.6-.4 11.1-.8 16.7-1.4 24.1-2.4 47.9-6.4 71.6-11.4.3-24.5.3-49.9-1-74.5zm-73.4 53.6c-.5 1.8-1 3.7-1.9 5.3-1-1.9-2.5-3-3.5-4.9 2.7-8.1 5.8-16 9-23.9 1.3.5 2.7 1.6 3.6 2.7-2.9 6.5-5.3 14.1-7.2 20.8z"/><path stroke="#241E1F" d="M75 51.5H16.5V142M180 62.5h-47.5V149"/><path fill="#0068DA" fill-rule="nonzero" d="M68.9 125c-1.4 2-3.1 3.8-4.9 5.5-.9.8-1.8 1.6-3 2.1-1 .4-2 .6-3.1.8-3.8.6-7.8 1-11.2-.6-3.7-1.7-5.9-5.3-8-8.7 10.7-.9 19.6-.6 30.2.9z"/><path stroke="#241E1F" d="M224 33.5h146"/><path fill="#FF703D" fill-rule="nonzero" d="M226.2 105.2c-4.4 2.3-10.1 1.9-14.1-1s-6.3-8.1-5.5-13c.3-1.8.9-3.5 1.6-5.2 1.6-3.5 3.7-6.9 6.6-9.3 3-2.5 6.8-4 10.7-3.6-1.1 10.9.7 18.4.7 32.1z"/><path d="M277.5 62.6c3 8.3 6.6 16.9 8.7 25.5 5.1-7.6 10.1-15.3 15.2-22.9 6.8 2.4 17.2 9.5 19.6 9.1 2.6-8.3 2.3-6 4.9-14.2.2-.8-9.2-1.7-9.8-2.3-.3-.3-.8-.4-1.3-.5l-48-8.7c-1.5 6.5-3.2 13.1-4.8 19.7.1 3.3.1 6.7.2 10 5.6-4.8 10.7-10 15.3-15.7z"/><path fill="#FFD164" fill-rule="nonzero" d="M227.9 44.2c2-.6 15.1-1.1 33.2-1.6-.5-9.2-1.1-18.5-1.9-27.7-26.7 1.6-52.3 0-79.2 3.1-.2 38.6 1 73.7 2.2 112.3 15.2-1.1 30.7-1.6 46.1-1.6-2.7-28.2-2.9-56.4-.4-84.5z"/><path fill="#B7F2D4" fill-rule="nonzero" d="M373.5 39.6c-27.9 1.1-78.7 2-112.3 3-18.1.5-31.2 1-33.2 1.6-2.5 28.1-2.3 56.3.4 84.5.9 8.8 2 17.6 3.4 26.3 49.2-1.6 96.7-1.3 145.8 1.2.4-38.6-1.8-78-4.1-116.6zM321 74.3c-2.4.4-12.8-6.7-19.6-9.1-5.1 7.6-10.1 15.3-15.2 22.9-2.1-8.6-5.7-17.2-8.7-25.5-4.6 5.7-9.7 10.9-15.2 15.5-1 .9-2.1 1.7-3.2 2.6.9-4.2 2-8.4 3-12.6 1.6-6.6 3.3-13.2 4.8-19.7l48 8.7c.5.1 1 .2 1.3.5.6.6 10 1.6 9.8 2.3-2.7 8.4-2.3 6.1-5 14.4z"/><path fill="#0068DA" fill-rule="nonzero" d="M272.4 106.7c-3.1 8.8-12.7 14.9-22 14.1-3.2-.3-6.3-1.3-8.8-3.4-1.2-1-2.2-2.3-3.1-3.6-3.3-4.9-5.4-11.3-3.4-16.9 1.4-3.8 4.5-6.7 8-8.7 5.3-3.1 11.6-4.5 17.7-3.8 1.4 3.7 11.3 22.3 11.6 22.3z"/><path fill="#FF703D" fill-rule="nonzero" d="M350.6 56.2c.8 6.2 1.6 13.3 2.9 19.4-5.2 1.3-10.4 1.5-15.6 2.8-1.1-6.4-2.2-12.8-3.4-19.2 5.1-.1 11.2-1.8 16.1-3z"/><path fill="#FFD164" fill-rule="nonzero" d="M250.7 128.3c-2.3-.3-4.8-.6-6.7.7-.5.3-1 .8-1.1 1.4-.3 1 .4 2 1.2 2.5.9.5 1.9.6 2.9.7 11.5 1 23.1 1.3 34.6.9.8 0 1.6-.1 2.1-.6 1.2-1.1 0-3.2-1.5-3.8-4.5-1.8-10.2-.6-14.9-.6-5.6-.1-11.1-.5-16.6-1.2z"/><path fill="#FFDA85" fill-rule="nonzero" d="M260.5 137.6c-2.5 0-5.1 0-7.5.6-1.3.3-2.5.8-3.4 1.7-.9.9-1.2 2.1-.6 3.1 1 1.8 3.9 1.9 6.3 1.8 8.4-.4 16.9-.9 25.3-1.3 1.6-.1 3.6-.3 4.3-1.5 4-6.2-22.1-4.4-24.4-4.4z"/><path fill="#3B3639" fill-rule="nonzero" d="M341.6 85.4c3.7-.3 7.4.2 10.8 1.7 3.4 1.5 6.3 4.1 7.7 7.5 1.1 2.6 1.3 5.4 1.2 8.2-.1 2.8-.6 5.8-2.2 8.1-1.7 2.5-4.5 4-7.5 4.6-3 .6-6 .3-9-.4-5.2-1.2-10.5-3.8-12.6-8.6-.7-1.7-1-3.5-1.1-5.3-.1-4.3 1.4-8.7 4.4-11.7 3.1-3 8.3-4.1 8.3-4.1z"/><path fill="#FFB08E" fill-rule="nonzero" d="M275.3 120.7c12.1-14.6 25.7-27.9 40.4-39.8 3.5 19.1 5 38.4 7.6 57.6-14.1-8.8-31.6-14.7-48-17.8z"/></g></svg>