<svg xmlns="http://www.w3.org/2000/svg" viewBox="0 0 398 170"><g fill="none" fill-rule="evenodd"><path fill="#FFD164" fill-rule="nonzero" d="M398 104.6c-1-.7-2.1-1.3-3.3-1.7-2.4-.9-5-1.1-7.5-.9-9.2.4-18.2 4.8-23.8 12.1-5.6 7.3-7.4 17.5-4.1 26.1 9.5.1 19 1.3 28.6 1.4.6 0 1.4-.2 1.3-.8 3.4-1.6 6.1-3 8.7-4.4l.1-31.8z"/><path fill="#B7F2D4" fill-rule="nonzero" d="M184.5 80.3c-2.8 4.7-3.3 10.9-1.9 16.3.7 2.6 1.8 5.1 3.5 7 1.6 1.8 3.7 2.9 5.9 3.5 5.2 1.3 10.9-.9 14.3-5.4 11.5-15.3-10.3-40.8-21.8-21.4z"/><path stroke="#000" d="M398 83.6s-44.7 3.2-44.7-31.4c0-28.9 16.6-28.7 16.6-28.7h-.1c22.7-.5 21.6 64.4 21.6 64.4 0 40.8-16.7 63-36.7 62.2-28.1-1.1-29.2-53.6-29.2-53.6-1.1-76.2 23.2-73 23.2-73h-.9c22.7-.5 21.6 64.4 21.6 64.4 0 40.8-16.7 63-36.7 62.2-28.1-1.1-29.2-53.6-29.2-53.6-1.1-76.2 23.2-73 23.2-73h-1.4c22.7-.5 21.6 64.4 21.6 64.4 0 40.8-16.7 63-36.7 62.2C282.1 149 281 96.5 281 96.5c-1.1-76.2 23.2-73 23.2-73h-.1c22.7-.5 21.6 64.4 21.6 64.4 0 40.8-16.7 63-36.7 62.2-27.9-1.1-29-53.6-29-53.6-1.1-76.2 23.2-73 23.2-73h-.2c22.7-.5 21.1 63.8 21.1 63.8 0 40.8-16.7 63-36.7 62.2-28.1-1.1-29.2-53.6-29.2-53.6-1.7-75.8 23.2-73 23.2-73s20-2.2 20.5 38.1c.4 34.3-7.5 89-36.1 88.7-31.6-.3-29.9-52.6-30.3-72.1-.4-16.9 2-40.7-10.6-40.7s-11.3 22.2-11.3 41.9c0 21-.3 42.1-10.3 42.1-9.3 0-9.3-16.8-9.3-37.9 0-7.6.3-25.4-8.8-25.4-11.3 0-6.3 26.1-26.8 26-19-.1-25-.1-25-.1H0"/><path fill="#FF703D" fill-rule="nonzero" d="M26.3 51c11.5 5.6 22.3 12.7 31.8 21.2 5.7-6.6 11.4-13.3 17.1-19.9-10.6-8-19.5-17.6-27.8-28-7.7 8.2-13.3 18.6-21.1 26.7z"/><path fill="#FFD164" fill-rule="nonzero" d="M149.2 147.9c-13.9-9.8-28.1-19.2-42.5-28.2 8.7-9.8 17.1-19.4 25.8-29.2-.2 8.3-1.9 17.3-4 25.4 8.5-4.1 16.3-7.1 24.8-11.2-2.4 7.5-5.9 15.8-9.7 22.7 6.4-2.4 14.2-3.8 21-3.8-6.3 8.2-11.4 14.9-15.4 24.3z"/><path fill="#0068DA" fill-rule="nonzero" d="M232.2 104.5c12.4-19.9 21.8-42.7 30.3-64.9-17.6 3.4-35.3 6.7-52.9 10.1 2.2 3.4 3.1 8.4 4.2 12.3 3.9 14.7 11.4 29.4 18.4 42.5z"/><path fill="#FFB08E" fill-rule="nonzero" d="M365 60c-2.7-11.2-5.7-22-9.5-32.9-30.1 16.4-53.9 42.6-83 60.7 32.7-7 60.4-18.8 92.5-27.8z"/><path fill="#B7F2D4" fill-rule="nonzero" d="M267 146.6c1.9-6.6 4-14 5.9-20.6 10.9 2 21.9 3.7 32.9 5.1 2.6.3 6.8 1.2 7.9 1.3 1.8-5.1 4-11.2 5.2-16.5-16.3-4.2-38.8-9.1-55.2-13-4.2 13.2-7 26.1-11.1 38.1 4.6 1.6 9.8 3.7 14.4 5.6z"/><path fill="#3B3639" fill-rule="nonzero" d="M313.2 99.3c3.4.9 8.6-.4 8.3-4.8-.2-3-3.9-5.6-6.6-6.5-8.4-2.6-9.7 9.1-1.7 11.3z"/><path stroke="#000" d="M287.7 141s10.6-8.9 14.4-31.3m.9-47.3s1.3 12.2 1.1 18.8m17.1-37s4.8 16.2 4.6 37.2M338.3 33s8.2 15.3 8.6 48.5m7.2 58.9s9.7-9.3 13.6-31.3M371 145s17.7-12.3 19.8-43.9"/><path fill="#FFD164" fill-rule="nonzero" d="M12.9 128.9c-1.3-5.4-3.3-10.7-6-15.6-1.8-3.2-4-6.4-6.9-8.5v31.5c4.1-2.2 7.8-4.5 12.9-7.4z"/><path stroke="#000" d="M214.1 46.9s1.7 6.4 1.4 24.5M280 93.6s-4.5 40.6-22.7 53"/><path fill="#3B3639" fill-rule="nonzero" d="M140 69.1c-2.7-.6-5.4-1-8.2-1.1-2.3-.1-4.7 0-6.8-.9-.2-.1-.4-.2-.5-.4 0-.1 0-.3.1-.4 1.9-4.4 4.7-8.5 6-13.1 3.7 5.2 6 10.4 9.4 15.9z"/><path fill="#0068DA" fill-rule="nonzero" d="M71.4 105.2c-1.4 1.7-2.5 3.7-3 5.9-.3 1-.4 2.2.1 3.2.6 1.2 2.2 1.7 3.5 1.5 1.3-.2 2.5-.9 3.7-1.7 3.7-2.5 7.1-5.6 9.4-9.4 1-1.8 1.7-4.2.2-5.7-2-2-6.8-1.2-8.3 1 1.2-1.6 4.6-4.3 1.6-6.3-1.9-1.3-5.1.9-6.6 1.9-2.4 1.6-6 4.3-7.1 7.1-2.3 5.3 3.6 4.8 6.5 2.5z"/></g></svg>