<svg xmlns="http://www.w3.org/2000/svg" viewBox="0 0 398 170"><g fill="none" fill-rule="evenodd"><path fill="#3B3639" fill-rule="nonzero" d="M67.7 165.1c9.3 1.3 14-7.1 14-7.1-1-2.5-3-3.8-4.8-4.9-2.8-1.7-6.4-3-9.5-2.1 0 .8.2 12.4.3 14.1z"/><path fill="#FF703D" fill-rule="nonzero" d="M67 121.9l.3 15.1c4.9.1 11-1.1 13.4-6.8-1.2-4.9-8.9-8-13.7-8.3z"/><path fill="#0068DA" fill-rule="nonzero" d="M66.9 88.9c0 .1-.1 11.5 0 14.8 5.1-.1 12-3.4 15.2-8.4-4.6-3.1-9.9-7.8-15.2-6.4z"/><path fill="#FFB08E" fill-rule="nonzero" d="M84.1 39.3C79.3 29.7 73.5 28.9 68 28.4c0 0-.4 15.6-.4 20 5.8-.6 13.8-5 16.5-9.1z"/><path fill="#B7F2D4" fill-rule="nonzero" d="M87.1 9c-2.3-1.1-4.8-3.2-7.3-3.6-3.8-.6-8-.8-11.8-.8l.2 20.2v.4c.2.1.3.1.5.2.5.1 1.1.2 1.6.1.3 0 .6-.1.9-.1.9-.1 1.9-.4 2.7-.7.4-.1.9-.3 1.3-.5 0 0 .1 0 .1-.1l1.2-.6h.1c.6-.3 1.1-.6 1.6-1 .1-.1.2-.2.4-.2 1.1-.7 2-1.5 3-2.4l.3-.3c.5-.4.9-.9 1.3-1.4 1.6-1.8 3.6-6.6 3.9-9.2.1.1 0 0 0 0z"/><path fill="#FF703D" fill-rule="nonzero" d="M144.9 17.8c-3.6.5-6.3 1.4-10.2 1.5-1.3 0-2.4.5-3.8.5 0 3.7-.2 11.1-.2 14.7 6.4 1.2 9.9.8 15.8 3.1 1.5.6 4.5 1.3 5.9 2.1 1.3-.6 3.7-1.8 5-2.4 3.3-1.7 6.7-3.4 8.9-5.9 3.3-3.8 3.3-8.6 1.9-12.9-.7-2.3-1.8-4.5-3.9-6.3-.2-.2-1.7-1.1-1.9-1.3-.6 1.2-3.3 1.9-4.3 2.9-3.6 3.6-7.6 3.3-13.2 4z"/><path fill="#FFD164" fill-rule="nonzero" d="M162.2 47.8c-1.4-3.4-6.3-7.1-10.2-9.3-7.1 3.3-12.9 3.8-21.4 4.5 0-1.7-.8 20.3-.9 23.7 7.7 1.3 14.4 1.5 18.9 6 6.2-2.7 11.8-7.2 13.6-12.2.7-1.9 1-3.9 1.1-5.9 0-2.4-.2-4.7-1.1-6.8zm89.1 110.1c-2.7-2.6-6-4.4-9.5-5.7-2.1.9-4.3-.9-6.5-.2-7.5 2.5-16.9 4.6-23 4.9 0 .4-.1 6.2-.1 13.1h44.7c.2-4.6-2.2-8.9-5.6-12.1z"/><path fill="#FFB08E" fill-rule="nonzero" d="M359.4 139.7c-2.3-.7-4.4-1.9-7.2-1.8-.8 1.6-7.9 1.8-8.2 3.4-.4 1.8-1.1 3.7-2.1 5.3-1.5 2.2-1.7.9-3.4 2.9-.1.1-.9 5-.9 5.1-.1.3 3.2 1.4 3.5 1.7.2.3 1.2.2 1.5.5.4.4 1 1.2 1.3 1.6 1 1.1 2.2 2.2 2.9 3.5 1.5 2.8 3.4 5 3.3 8.2.3 0 2 .4 2.4.3.4-.1.8-.7 1.1-1 1-.9 5.4 1 6.4.1 2.6-2.2 4.5-1.4 7.1-3.6 2.9-2.4 5-2.7 7.8-5.2.7-.7 2.8-3.6 3.5-4.2.4-.4.4-3.3.8-3.7.3-.3-2.2-3.7-2.2-3.7s-1-.9-1.3-1.1c-.3-.3-.4-.9-.8-1.1-.8-.6-1.7-1.2-2.6-1.7-4.2-2.6-8.6-4.1-12.9-5.5z"/><path fill="#FFD164" fill-rule="nonzero" d="M365.4 127.1c-2.3 1.2-5.2 3.5-7.6 4.8-1.3.7-2.5 1.4-3.8 1.8-1.4.5-.2 3.8-1.7 4.2.6.2 1.1.3 1.7.5 1.1.3 4.3 1.2 5.4 1.5 4.3 1.4 8.4 3.1 12.1 5.3 1.8 1.1 3.6 2.3 5.2 3.7.6-.5 1.2-1.1 1.7-1.7 2.7-2.6 5.1-5.5 7.2-8.6.7-1 1.3-2.1 1.5-3.3.3-1.2.2-2.4-.1-3.5-.9-3.6-3.6-6.5-6.7-8.4-.2-.1-.3-.2-.5-.3-.4.5-2.7-.5-3.1-.1l-2.6.3c-1.3 1.3-2.1-1.9-3.7-.9-2.2 1.3-2.8 3.6-5 4.7z"/><path fill="#0068DA" fill-rule="nonzero" d="M375.1 76.6s0 .1 0 0c0 0-3-4.4-5-5.7-2.8-1.8-6-3-8.8-4.8-3.6-2.3-6.7-5.2-10.5-6.7-.7-.3-2.2-.1-2.9-.3-.7-.2-7.9-1-8.6-1.2-.2 1-.6 2.1-1.1 3.3-.2.7-.5 1.3-.9 2-.7 1.2-1.8 2.5-2.8 3.6-.9 1.2-2.3 2.4-3.5 3.4.2-.1 0 0 0 0s1.2.5 2.8 1.4c.1.1.2.1.3.2.1.1.3.2.4.3.9.5 1.8 1.2 2.8 1.9 1 .7 8.1 3.3 9 4.1l.9.9c.9.9 1.7 1.8 2.4 2.8.2.3.4.5.5.8.6.9 1.1 1.8 1.5 2.7l.3.9.3 1.2c.6-.2 7.4.1 10.2-1 5.2-2 12.5-.2 13.5-6.3.1-1.3-.7-3.4-.8-3.5z"/><path fill="#B7F2D4" fill-rule="nonzero" d="M351.1 0v.5h.3c3.1.3 5.1 19.7 17.6 12.5-3.5 2 1.8-.3 1.6-.4.4.3 4.7-1.4 5-1.1l1.6-1.4c2.3-2.3 5.6-5.8 6.7-8.8l.2-.7.3-.6h-33.3z"/><path fill="#FFD164" fill-rule="nonzero" d="M375.4 11.3c-.3-.2-.8-.6-1.1-.7.2.1.4.3.7.5-4.4-3.1-9.6-5.4-14.6-7.5-2.2-.9-4.4-1.8-6.7-2.5-.7-.2-1.8-.8-2.5-.9-.2 0-.7-.2-.8-.1-.2.1-6.8 9.1-7.7 10.7-.4.8 1.2 7.3 1.5 7.7.4.5-1 2.3-.5 2.7 1.2 1.2 1.3 2.5 2.1 4 .3.5 3.8-1.1 4.3-1.2.3-.1.7-.3 1-.4.8-.4 1.7-.7 2.5-1.1 1.6-.7 5 1.3 6.6.6 3.6-1.5 6.6-4.7 10.1-6.6 1.5-.8 1.8-2.4 3.2-3.4.4-.3 1.5-1 1.9-1.4.1-.1.1-.1.2-.1 0-.1-.1-.2-.2-.3z"/><path fill="#B7F2D4" fill-rule="nonzero" d="M384.3 0H363h21.3z"/><path fill="#FF703D" fill-rule="nonzero" d="M369.2 38.6c-5.3-2.9-12.7-6.5-18.6-4.5l-1.4.1-.1.4-3.9 1c-2.6 4-3.9 1.2-4.9 3.3-1.1 1.7-3.1 10-3.1 10 .9-.7 0 0 0 0l.4.4c.8.6 2 1.7 2.8 3.3 0 .1.1.2.1.2.1.1.1.2.1.3.1.2.2.4.2.6.1.3.2.6.2.9 0 1 .1 1.4 0 2.7 0 .5.1 1.2 0 1.8.7-.3 9.9 2 11.8 1.3 3.8-1.6 20.6-4.8 23.3-7.6 1-1.1.3-4-1.1-6.9-2.2-1.8-3.5-6.1-5.8-7.3zm-3.4 64c-.6.3-1.2.6-1.9.9-.6.3-1.3.5-1.9.8-.6.2-1.3.5-1.9.7-4.4 1.6-8.9 9.8-11.4 10.5h-.1c-.3.1-.5.1-.6.2l-.1.1c1.2.1 3.6 7.4 9.6 8.6.6.1 5.9 1.5 6.4 1.6 2.5.5 4.8-.4 6.7 0 1.7.4 2.1-.9 3.8-.3 1.7.6 3.8-3.2 5.3-2.4 1.6-2.1 2.6-4.7 2.9-7.4.6-5.2-1.2-10.4-4.3-14.6-.2.3-5-.7-5.2-.5-2.4 2.4-4.2.3-7.3 1.8z"/><path fill="#FFDA85" fill-rule="nonzero" d="M80.9 72.3c-2.3-5.2-8.4-8.4-13.8-9.7 0 .2-.1 12.2-.2 15.3 4.9.9 12-.9 14-5.6z"/><path fill="#B7F2D4" fill-rule="nonzero" d="M212.5 147c-.2 7.5-.2 11.8-.2 12.4 6.2-.2 15.6-2.4 23-4.9 2.2-.7 4.3-1.5 6.5-2.3-2.8-1.1-5.7-2.9-8.6-3.4-6.7-1.2-13.9-2.5-20.7-1.8z"/><path d="M203.3 0h8.9-47.1zM291.5 0h-79.3 44.7z"/><path fill="#B7F2D4" fill-rule="nonzero" d="M165.2 0h-34.3z"/><path fill="#FFD164" fill-rule="nonzero" d="M256.9 0h-44.7z"/><path d="M0 0h13.3zM67.8 0H33.7zM17.7 0h-3.5z"/><path fill="#0068DA" fill-rule="nonzero" d="M89 0H67.8z"/><path fill="#FFB08E" fill-rule="nonzero" d="M33.7 0h-16z"/><path fill="#000" fill-rule="nonzero" d="M14.2 0h-.9zM292.5 0h-1z"/><path d="M337.2 151.1c-2.7-1.2-5.5-2.2-8.5-2.7-6-1-11.4-1.2-17.1-1.2 5.6 0 11.1.2 17.1 1.2 3 .5 5.8 1.6 8.5 2.7 2.5 1.1 4.8 2.2 6.6 3.6-1.8-1.4-4-2.5-6.6-3.6zm4.5-102.2c-1.7-1.4-3.6-2.6-5.5-3.7-10.7-6.2-22.1-10.2-34.5-12.6 12.4 2.4 23.8 6.4 34.5 12.6 1.9 1.1 3.8 2.3 5.5 3.7zm-1.5 77.9c-10 9.4-22.8 16.1-36.3 16 13.5.1 26.3-6.6 36.3-16 .7-.7 1.5-1.4 2.2-2.1-.7.7-1.5 1.4-2.2 2.1zm11.9 11.1c.4.1.8.2 1.1.3-.3-.1-.7-.2-1.1-.3zM337 72s-.1 0 0 0c-3.3-1.6-6.7-3-10.1-4.1-7.7-2.6-15.6-4.2-23.6-5.6 8 1.4 15.9 3 23.6 5.6 3.4 1.1 6.8 2.5 10.1 4.1-.1 0 0 0 0 0zm7.2-25.2c-.8.6-1.6 1.3-2.5 2.1.9-.8 1.7-1.5 2.5-2.1zm-29.9 72.9c-1.4-.2-2.7-.4-4.1-.5 6.9.9 13.9 1.9 20.6 3-1.6-.3-3.2-.5-4.9-.8-3.8-.7-7.8-1.2-11.6-1.7zm31.3-14.2c-2 1.7-4.7 3.5-7.2 5 1.2-.6 2.3-1.4 3.4-2.1.6-.4 1.3-.9 1.9-1.3.6-.6 1.3-1.1 1.9-1.6zm-2.6 18.4c.6-.7 1.2-1.4 1.8-2.2.2-.2.3-.4.5-.7-.2.2-.3.4-.5.7-.6.8-1.2 1.5-1.8 2.2-.2.2-.4.5-.6.7.2-.2.4-.4.6-.7zm3.7-5.8c-.2.5-.5 1.1-.7 1.6.2-.5.4-1 .7-1.6zm-5-69.2c-2.1 1.8-4.5 3.6-6.7 4.5-10.2 4.1-20.7 7.9-31.6 8.9 11-1 21.5-4.8 31.6-8.9 2.2-.9 4.5-2.7 6.7-4.5zm32.7-38.3l1.2.9c-.3-.3-.7-.5-1.1-.8 0 0 0-.1-.1-.1zm-72.6 51.8c.1 0 1-.1 1.5-.1-.5 0-1.5.1-1.5.1zm30.1-37.7c.2-.1.5-.2.7-.3-.2.1-.4.2-.7.3zM337 72s.2-.1 0 0zm-7.1-46.5c.2-.1.4-.2.7-.3-.2.2-.5.2-.7.3zm21.2-25V.2v.3zm-6.7 17.4c.1 0 .1 0 0 0 0 0 0 .1 0 0 0 .1 0 0 0 0zM334 23.8c.2-.1.5-.2.7-.3-.2.1-.4.2-.7.3zm2.2-1l.6-.3c-.2.2-.4.2-.6.3zM360.3 67c-3.6-2.3-7-4.5-10.8-6-.6-.3-1.3-.5-2-.7.7.2 1.4.5 2 .7 3.8 1.5 7.2 3.7 10.8 6 2.8 1.8 5.7 3.6 8.5 5.4 2.1 1.3 4.2 2.7 6.2 4.3-2-1.6-4.1-3-6.2-4.3-2.8-1.8-5.7-3.6-8.5-5.4zm-8.7 28.6c0 .1-.1.2-.1.3.1-.1.1-.2.1-.3zm-.9 2.6s0-.1 0 0c.1-.3.2-.5.3-.8v-.1l-.3.9zm1.4-4.5c0 .1-.1.2-.1.3 0-.1 0-.1.1-.2v-.1zm-6.3 11.5c.1 0 .1 0 0 0 .1 0 .1 0 0 0z"/><path d="M341.8 108.3c.6-.4 1.3-.9 1.9-1.3-.7.5-1.3.9-1.9 1.3zm10.1-13.6c0 .1-.1.2-.1.3 0 0 0-.1.1-.3 0 .1 0 .1 0 0 0 .1 0 0 0 0zm.5-2.7c0 .2 0 .4-.1.6v-.1c.1-.2.1-.4.1-.5zm.1-2.1v0zM337 72h-.1.1z"/><circle cx="336.95" cy="71.95" r="1"/><path d="M345.9 119.7c0 .1 0 .1 0 0 .3-.5.5-1.1.7-1.6-.2.6-.4 1.1-.7 1.6zm-7.6-47.1c-.2-.1-.5-.2-.6-.3.1.1.4.2.6.3zm-.8-.4l-.4-.2c0 .1.2.1.4.2zm15 16.9v0zm-6.6 16.1c.2-.1.3-.3.5-.4-.2.1-.4.3-.5.4zm1.4-1.4l.1-.1-.1.1z"/><path d="M345.9 105.2c.2-.1.3-.3.5-.4-.2.1-.4.3-.5.4zm1.4-1.4l.3-.3c-.1.1-.2.1-.3.3.1-.1 0-.1 0 0zm.7 11.8h-.1c0 .1 0 .1.1 0zM345.5 19c-.2-.1-.4-.3-.6-.5.3.2.7.6 1.1.9-.1-.1-.3-.3-.5-.4z"/><path fill="#FFDA85" fill-rule="nonzero" d="M301.2 145.6v0z"/><path fill="#FFD164" fill-rule="nonzero" d="M349.5 57.4c-1.7.7-3.1 1.3-3.8 1.6.7-.3 2-.9 3.8-1.6zm-46.2 4.9c-.5 0-1.5.1-1.5.1.5 0 1-.1 1.5-.1z"/><path fill="#FFD164" fill-rule="nonzero" d="M340.6 68.6c1-1.1 2.1-2.4 2.8-3.6.4-.7.7-1.3.9-2 .6-1.2.9-2.3 1.1-3.3.1-.2.1-.5.1-.6.1-.6 0-1.3 0-1.8v-2.7c0-.3-.1-.6-.2-.9-.1-.2-.1-.4-.2-.6 0-.1-.1-.2-.1-.3 0-.1-.1-.2-.1-.2-.8-1.6-2-2.7-2.8-3.3-.1-.1-.3-.2-.4-.4-2.1 1.8-12.6-1.9-14.8-1-10.2 4.1-17.6 6.9-24.3 14.4 3.9 5.7 2.4 9 10.1 11.7 3.4 1.1 18.7-.5 24.3-2h.1c1.2-1.1 2.5-2.3 3.5-3.4z"/><path fill="#FFDA85" fill-rule="nonzero" d="M352.1 137.9c-.1 0-.2-.1-.3-.1 0 0 .1 0 .3.1z"/><path fill="#FF703D" fill-rule="nonzero" d="M348.1 112.5V112.5z"/><circle cx="336.95" cy="71.95" r="1" fill="#FF703D" fill-rule="nonzero"/><path fill="#FF703D" fill-rule="nonzero" d="M303.3 62.3c-.5 0-1.1.1-1.5.1.5 0 1-.1 1.5-.1z"/><path fill="#B7F2D4" fill-rule="nonzero" d="M349.5 57.4c-1.8.8-3.3 1.4-4 1.7 0 .1 0 .4-.1.6.7.2 1.4.3 2 .6.7.2 1.4.5 2 .7 3.9 1.6 7.6 3.9 11.2 6.1 2.8 1.8 5.7 3.6 8.5 5.4 2 1.3 4.3 2.8 6.2 4.3 1.1-.9 1.8-2 2.8-3 4.8-5.1 7.2-13 4.2-19.3-.8-1.7-2-3.2-3.2-4.7-1.2-1.4-2.5-2.7-3.9-3.8l-.3-.3c-3.8 2.7-8.2 4.7-12.6 6.4-3.6 1.4-9 3.7-12.8 5.3z"/><path fill="#B7F2D4" fill-rule="nonzero" d="M374.9 45.7c-.1.1-.2.1-.3.2.1 0 .2-.1.3-.2zm-27.5 14.5c.1 0 .1.1 0 0 .1.1.1 0 0 0-.7-.2-1.4-.4-2-.6.7.2 1.4.4 2 .6zm-1.8-1.2c-.1 0-.1.1-.2.1.1 0 .2-.1.2-.1zm3.9-1.6c-1.7.7-3.1 1.3-3.8 1.6-.1 0-.1.1-.2.1.6-.3 2.1-.9 4-1.7z"/><path fill="#B7F2D4" fill-rule="nonzero" d="M345.4 59.7c.1-.2.1-.5.1-.6 0 .1 0 .4-.1.6z"/><circle cx="336.95" cy="71.95" r="1" fill="#0068DA" fill-rule="nonzero"/><path fill="#0068DA" fill-rule="nonzero" d="M340.1 73.7c.1.1.3.2.4.3-.1-.2-.2-.3-.4-.3zM337 72c.1 0 .2.1.4.2.1 0 .1.1.2.1l.6.3c.4.2.9.5 1.5.8-1.6-.9-2.7-1.4-2.7-1.4zm10.5-11.7c.7.2 1.3.5 2 .7-.7-.3-1.3-.5-2-.7zM349.5 61a15.872 15.872 0 0 1 0 0zm-3.9 44.5c-.6.5-1.2 1-1.9 1.5.6-.5 1.3-1 1.9-1.5.1-.1.2-.2.3-.2-.1 0-.2.1-.3.2zm.2-.3c-.1.1-.2.2-.3.2.2 0 .3-.1.3-.2z"/><path fill="#0068DA" fill-rule="nonzero" d="M341.8 108.3c-1.1.7-2.3 1.5-3.4 2.1 2.6-1.4 5.2-3.2 7.2-5-.6.5-1.2 1-1.9 1.5-.7.6-1.3 1-1.9 1.4zm2.9 13.8c.1-.1.1-.2.2-.3h-.1c-.9 1.2-1.7 2.1-2.1 2.5.4-.4 1.1-1.1 2-2.2zM344.8 121.8h.1z"/><path fill="#0068DA" fill-rule="nonzero" d="M342.4 124.6s.3-.3.6-.7c-.2.3-.4.5-.6.7zm5.7-12.1v0zm-.4 3.2c0-.1.1-.3.1-.5 0 .1 0 .3-.1.5zm-2.9 6.1c.2-.2.3-.4.5-.7-.2.2-.4.4-.5.7z"/><path fill="#0068DA" fill-rule="nonzero" d="M344.8 121.8c.2-.2.3-.4.5-.7-.2.2-.3.5-.5.7zm0 0c-.6.7-1.2 1.5-1.8 2.1-.4.4-.6.7-.6.7l.2-.2.1-.1c.4-.4 1.2-1.3 2.1-2.5z"/><path fill="#B7F2D4" fill-rule="nonzero" d="M345.8 105.2c-.1.1-.2.2-.3.2.2 0 .3-.1.3-.2z"/><path fill="#FFD164" fill-rule="nonzero" d="M350.7 98.1c0-.1.1-.2.1-.2.1-.2.1-.3.2-.5-.1.3-.2.5-.3.7zm.9-2.5c0 .1-.1.2-.1.3-.1.2-.2.5-.2.7.1-.3.2-.6.3-1zm.5-1.7c0-.1 0-.1 0 0z"/><path fill="#FFD164" fill-rule="nonzero" d="M351 97.4c-.1.2-.2.5-.3.7.1-.2.2-.4.3-.7zm1.2-3.7c0-.1 0-.3.1-.4-.1.1-.1.3-.1.4 0 .1 0 .1 0 0-.1.1-.1.1 0 0zm-.1.4V93.8v.3s0 .1-.1.2c0 0 0-.1.1-.2zm-.2.4s-.1.1-.1.2v.1c.1-.1.1-.2.1-.3zm.4-6.7c0 .1.1-.1.1-.1.3 0 1.8 6.9 5.2 8 .2.1 1.8 2.7 2 2.8.2.1 2.6 2.3 2.8 2.3 1.1.4.7-.1 2.1.5.9.4.8-.4 1.6 0 .2.1 1.2.3 1.4.4.2.1 2 .9 2.2 1 .8.4 1.2.6 1.9 1.1 1.9 1.3 1.6-2.5 3.1-.7.3.4 1.4-1.4 1.6-1 0 .1 1.7-.9 1.8-.8 3.4-3.9 5.5-9.2 4.3-14.2-.9-4.2-3.8-7.5-7.3-10.3-4.3 3.4-9.6 5.7-14.8 7.8-2.9 1.1-7.8 2.7-8.4 2.9.3.1.3.2.4.3z"/><path fill="#FFD164" fill-rule="nonzero" d="M352.2 87.5c0 .1 0 .1 0 0 0 .2.1.3.1.5 0-.1 0-.3-.1-.5zm.3 1.7V89 89.2z"/><path fill="#FF703D" fill-rule="nonzero" d="M345.8 105.2c.1.2.2.3.3.5-.1-.3-.2-.4-.3-.5.1 0 .1 0 0 0 .1 0 .1 0 0 0zm.1 0c-.1 0-.1 0 0 0z"/><path fill="#FFB08E" fill-rule="nonzero" d="M337.7 72.3c-.1 0-.1-.1-.2-.1 0 .1.1.1.2.1zm5.6 3.5c1 .7 1.9 1.5 2.8 2.3.9.9 1.8 1.8 2.6 2.7-.5-.6-1.1-1.3-1.7-1.9l-.9-.9c-.8-.7-1.8-1.4-2.8-2.2-1-.7-1.9-1.4-2.8-1.9-.2-.1-.3-.2-.4-.3-.1-.1-.2-.1-.3-.2-.6-.3-1.1-.6-1.5-.8 1.2.7 3.1 1.7 5 3.2zm8.3 9.6c-.2-.6-.5-1.1-.8-1.7.5.8.9 1.7 1.1 2.6l.3 1.2-.3-1.2-.3-.9z"/><path fill="#FFB08E" fill-rule="nonzero" d="M339.8 73.5c.1.1.2.1.3.2-.1-.1-.2-.2-.3-.2zm.8.4c.9.5 1.8 1.2 2.8 1.9-1-.7-2-1.3-2.8-1.9zm11.9 17.4s0 .1 0 0c0 .1 0 0 0 0zm-3-9.4c-.2-.3-.5-.7-.8-1 .3.3.5.6.8 1 .2.3.4.5.5.8-.1-.3-.3-.6-.5-.8z"/><path fill="#FFB08E" fill-rule="nonzero" d="M349.5 81.9c.2.3.4.5.5.8.2.4.5.7.7 1.1.3.5.6 1.1.8 1.7-.4-.9-.9-1.8-1.5-2.7-.1-.4-.3-.7-.5-.9-.7-1-1.6-2-2.4-2.8.6.6 1.2 1.2 1.7 1.9.2.2.4.5.7.9zM337 72s.2-.1 0 0zm14.6 23.9c-.1.2-.2.5-.2.7 0-.2.1-.4.2-.7zm.6-2.7c0-.1 0-.2.1-.3 0 .3-.1.6-.2.9.1-.2.1-.4.1-.6 0 .1 0 0 0 0zm-.2 1.2c0-.1.1-.2.1-.3 0 .2-.1.4-.2.7 0-.2.1-.3.1-.4zm.5-5.4c0 .1 0 .1 0 0zm-6.6 16.2c.2-.1.3-.3.5-.4.3-.3.7-.6 1-1l.1-.1.2-.2c.1-.1.2-.3.3-.4 1.1-1.4 2-3 2.7-4.7 0-.1.1-.2.1-.3-2 4.2-4.7 6.9-4.9 7.1z"/><path fill="#FF703D" fill-rule="nonzero" d="M346.2 105.7c-.1-.2-.2-.3-.3-.5.2.3.3.5.5.8-.1-.1-.2-.2-.2-.3z"/><path fill="#B7F2D4" fill-rule="nonzero" d="M350.7 98.2s0-.1 0 0c0-.1 0 0 0 0zm1.8-8.2v1.1-.1-1zm-.1 2.2c0-.2.1-.5.1-.7 0 .2 0 .3-.1.5 0 .2 0 .4-.1.5.1-.1.1-.2.1-.3z"/><path fill="#B7F2D4" fill-rule="nonzero" d="M352.5 91.5c0-.1 0-.1 0 0s0 .3-.1.5c0-.2.1-.4.1-.5zm-.9 4.1c0-.1 0-.1.1-.2 0 .1 0 .2-.1.2zm-.6 1.7c0 .1 0 .1 0 0 .1-.1.1-.3.2-.5 0 .2-.1.4-.2.5z"/><path fill="#B7F2D4" fill-rule="nonzero" d="M351 97.4c.1-.2.2-.4.2-.6 0 .2-.1.4-.2.6zm1-3c0-.1.1-.2.1-.3-.1.1-.1.2-.1.3zm-.1.1c0 .1 0 .2-.1.3.1-.1.1-.2.1-.3-.1.2-.1.5-.2.7.1-.3.2-.5.2-.8.1 0 .1.1 0 .1z"/><path fill="#B7F2D4" fill-rule="nonzero" d="M351.3 96.7c-.1.2-.2.5-.3.7.1-.2.1-.3.2-.5.1-.1.1-.2.1-.2zm.3-1.1c0-.1 0-.1.1-.2.1-.2.1-.4.2-.6-.1.3-.2.6-.3.8zm.9-4.1c0-.1 0-.1 0 0 0-.1 0-.1 0 0zm-1.2 5.2s0 .1 0 0c0 .1 0 0 0 0z"/><path fill="#B7F2D4" fill-rule="nonzero" d="M351.9 94.8c-.1.2-.1.4-.2.6v-.2c.1-.3.1-.5.2-.8v.4zm-5.6 10l1-1-1 1zm4.4-6.6c0-.1 0-.1 0 0 0-.1 0 0 0 0zm1.7-6c0-.2.1-.5.1-.7 0 .2-.1.4-.1.7zm-1.8 6.3c-.7 1.7-1.6 3.2-2.7 4.7 1.1-1.5 2-3.1 2.7-4.7z"/><circle cx="352.45" cy="89.85" r="1" fill="#B7F2D4" fill-rule="nonzero"/><circle cx="352.35" cy="92.55" r="1" fill="#B7F2D4" fill-rule="nonzero"/><path fill="#B7F2D4" fill-rule="nonzero" d="M348.7 115.4c2.3-.7 7.1-9 11.4-10.5-5 1.8-11.5 10.7-12.1 10.7.1 0 .3-.1.7-.2-.1.1 0 0 0 0zm2.1-17.5c.1-.2.1-.3.2-.5-.1.2-.1.3-.2.5zm.5-1.3s0 .1 0 0c.1-.3.2-.7.3-1-.1.4-.2.7-.3 1z"/><circle cx="351.55" cy="95.55" r="1" fill="#B7F2D4" fill-rule="nonzero"/><path fill="#B7F2D4" fill-rule="nonzero" d="M351 97.4c0-.1 0-.1 0 0zm.9-2.9c0 .1 0 .2-.1.3.1-.1.1-.2.1-.3zm0 .3c-.1.3-.1.6-.2.8 0-.2.1-.5.2-.8zm-.6 1.9s0-.1 0 0c-.1.2-.2.5-.3.7.1-.3.2-.5.3-.7z"/><circle cx="351.35" cy="96.65" r="1" fill="#B7F2D4" fill-rule="nonzero"/><path fill="#B7F2D4" fill-rule="nonzero" d="M352 94.4c0-.1 0-.1.1-.2-.1 0-.1.1-.1.2zm.1-.4c0-.1 0-.2.1-.3-.1.1-.1.2-.1.3zm.1-.7c0 .1 0 .3-.1.4.1-.2.1-.3.1-.4zm-.1.8v-.2.2zm.3-5.7c0 .3 0 .5.1.8 0-.3 0-.5-.1-.8zm.1 1.4v-.6.6zm-6.1 16.2c-.2-.4-.4-.6-.5-.8 0 0 .1.2.3.5 0 .1.1.2.2.3zm6.1-14.7s0-.1 0 0c0-.1 0 0 0 0zm0 .1s0-.1 0 0c0-.1 0 0 0 0zm0-1.6c0 .1 0 .1 0 0zm-.3 3.4s0 .1 0 0c0 .1 0 .1 0 0zm-3.6 22.3c-.3.1-.5.1-.6.1h-.1c.2 0 .4-.1.7-.1zm11.5-10.6c.6-.2 1.3-.5 1.9-.7-.6.3-1.2.5-1.9.7-4.4 1.5-9.1 9.8-11.4 10.5 2.5-.7 7-8.9 11.4-10.5zm-12.2 6.1c.1.5.1 1 .2 1.5 0-.6-.1-1.1-.2-1.5 0-.1 0 0 0 0z"/><path fill="#B7F2D4" fill-rule="nonzero" d="M348.1 112.4c0-.5-.1-1-.2-1.5.1.5.2 1 .2 1.5zm-5.3 6.6c.5-1.2.9-2 1-2.3-.1.3-.5 1.2-1 2.3zm-.9-12.8c.2.3.3.5.5.8-.1-.3-.3-.5-.5-.8z"/><path fill="#B7F2D4" fill-rule="nonzero" d="M378.2 101.1c-.3-.4-.6-.7-.9-1.1-1.5-1.8-3.3-3.3-5.2-4.6-.8-.5-1.6-1-2.4-1.4l-.6-.3c-.2-.1-.5-.2-.7-.3-.8-.4-1.6-.8-2.5-1.1-1.5-.6-2.9-1.2-4.1-1.6-.2-.1-.5-.1-.7-.2-.2-.1-.4-.1-.7-.2-3.4-1.1-12.3-4.2-12.3-4.2v.2c0 .3.1.7.2.9 0 .3.1.4.1.6V90c0 .2 0 .5-.1.7 0 .1 0 .3-.1.4 0 .4-.1.7-.2 1.1 0 .1 0 .2-.1.3v.2c0 .1-.1.2-.1.3-.1.3-.1.6-.2.8v.2c0 .1 0 .1-.1.2-.1.3-.2.7-.3 1v.2c-.1.2-.2.4-.2.6-.1.2-.1.3-.2.5 0 .1-.1.2-.1.2 0 .1-.1.2-.1.3-.7 1.7-5.5 4.2-6.6 5.7-.1.1 4 1.8 3.9 1.9l-.3.3-1 1c-.2.1-.3.3-.5.4.1.2.3.5.5.8-.1-.1-.1-.2-.2-.3 0 .1.1.2.2.3.2.4.5 1 .7 1.6.2.4.3.9.5 1.4l.3 1.2c0 .2.1.5.1.7v.1c.1.5.2 1 .2 1.5V114.2c0 .8-.2 1.6-.3 2.2 0 .2-.1.4-.1.5H344.3c.5 0 14.4-4.7 19.3-6.5.6-.2 1.3-.5 1.9-.7.6-.2 1.3-.5 1.9-.8.6-.3 1.3-.6 1.9-.9 3.1-1.5 6-3.3 8.4-5.8l.7-.7c-.1-.3-.2-.3-.2-.4zm-25.7-10c0-.1 0-.1 0 0zm0-.1v-1.1V91zm0-1.1v-.6.6c0-.1 0-.1 0 0zm0 0c0-.1 0-.1 0 0 0-.1 0-.1 0 0zm0 1.3c0-.1 0-.1 0 0 0 0 0 .1 0 0 0 .1 0 0 0 0zm0 0c0 .1 0 0 0 0zm-.1 1.4c0-.1 0-.1 0 0zm0-.1c0 .1 0 .1 0 0 0 .1 0 .1 0 0 0 .1 0 .1 0 0z"/><path fill="#B7F2D4" fill-rule="nonzero" d="M352.4 92.6c0-.1 0-.3.1-.4v.3c-.1 0-.1.1-.1.1z"/><circle cx="352.35" cy="92.55" r="1" fill="#B7F2D4" fill-rule="nonzero"/><path fill="#B7F2D4" fill-rule="nonzero" d="M352.3 93.2c-.1 0-.1 0 0 0 0 .2-.1.4-.1.5.1-.3.1-.7.2-1.1-.1.2-.1.4-.1.6zm0 0c-.1 0-.1 0 0 0-.1 0-.1 0 0 0-.1 0-.1 0 0 0zm0-.4c0-.1 0 0 0 0z"/><path fill="#B7F2D4" fill-rule="nonzero" d="M352.4 92.6v.2c-.1 0-.1-.1 0-.2zm-.1.2c0 .1 0 .2-.1.3 0-.2.1-.3.1-.5v.2zm0 0s0 .1 0 0c0 .1 0 .1 0 0zm0 .4c0-.1 0-.2.1-.3-.1.1-.1.2-.1.3-.1 0-.1 0 0 0z"/><path fill="#FFDA85" fill-rule="nonzero" d="M344.5 17.9c-.1.1-.1 0 0 0z"/><path fill="#FFB08E" fill-rule="nonzero" d="M300.8 118c3 .3 6.2.7 9.4 1.1-3.2-.4-6.4-.7-9.4-1.1zm13.5 1.7c3.9.5 7.8 1.1 11.6 1.7-3.8-.7-7.8-1.2-11.6-1.7z"/><path fill="#FFB08E" fill-rule="nonzero" d="M330.8 122.1c-6.6-1.1-13.7-2.1-20.6-3 1.3.2 2.7.4 4.1.5 3.9.5 7.8 1.1 11.6 1.7 1.6.3 3.3.6 4.9.8z"/><path fill="#3B3639" fill-rule="nonzero" d="M347.7 115.7h.1z"/><path fill="#FFD164" fill-rule="nonzero" d="M352.3 137.9c.6.2 1.1.3 1.7.5-.5-.1-1.1-.3-1.7-.5z"/><path fill="#3B3639" fill-rule="nonzero" d="M347.7 115.7c-.1.3-.5 1.1-1 2.3.6-1.2 1-2.2 1-2.3z"/><path d="M352.1 137.9c-.1 0-.2-.1-.3-.1 0 0 .1 0 .3.1zm-50.9 7.7v0zm0 0v0z"/><path d="M352.1 137.9c-.1 0-.2-.1-.3-.1 0 0 .1 0 .3.1z"/><path fill="#3B3639" fill-rule="nonzero" d="M346.7 118.1c0-.1 0-.1 0 0 0-.1 0-.1 0 0zm-.8 1.7c.3-.6.5-1.1.8-1.7-.3.6-.5 1.1-.8 1.7zm-1.2 2.3c-.9 1.1-1.6 1.8-2 2.2.4-.4 1.1-1.1 2-2.2.1-.1.1-.2.2-.3-.1.1-.2.2-.2.3zm-2 2.2l-.1.1-.2.2.1-.1.2-.2zm5-8.6c0 .1-.5 1.1-1 2.3v.1c.6-1.3 1-2.3 1-2.4z"/><circle cx="342.35" cy="124.55" r="1" fill="#3B3639" fill-rule="nonzero"/><circle cx="342.35" cy="124.55" r="1" fill="#3B3639" fill-rule="nonzero"/><path fill="#3B3639" fill-rule="nonzero" d="M342.5 124.5l-.1.1.1-.1zm5.4-8.8c1.2.1 7.4 1.1 13.4 2.2-6-1.1-12.2-2.1-13.4-2.2zm15.1 2.6c2.5.5 5 1 6.9 1.5 1.7.4 3.4.8 5.1 1.4-1.7-.6-3.4-1-5.1-1.4-2-.5-4.4-1-6.9-1.5zm0 0c-.6-.1-1.1-.2-1.7-.3.5 0 1.1.1 1.7.3zm16.7 4.9c-1.5-.9-3.1-1.5-4.8-2.1 1.7.6 3.3 1.3 4.8 2.1z"/><path fill="#0068DA" fill-rule="nonzero" d="M301.8 62.4v-2.1 2.1z"/><circle cx="301.75" cy="62.35" r="1" fill="#0068DA" fill-rule="nonzero"/><circle cx="341.65" cy="48.85" r="1" fill="#FF703D" fill-rule="nonzero"/><path fill="#FF703D" fill-rule="nonzero" d="M341.7 48.9c.9-.7 1.7-1.4 2.5-2.1-.8.6-1.6 1.3-2.5 2.1z"/><path fill="#FF703D" fill-rule="nonzero" d="M342.1 49.2c.8.6 2 1.7 2.8 3.3 0 .1.1.2.1.2.1.1.1.2.1.3.1.2.2.4.2.6.1.3.2.6.2.9 0 1 .1 1.4 0 2.7 0 .5.1 1.2 0 1.8.1-.6 0-1.3 0-1.8v-2.7c0-.3-.1-.6-.2-.9-.1-.2-.1-.4-.2-.6 0-.1-.1-.2-.1-.3 0-.1-.1-.2-.1-.2-.8-1.6-2-2.7-2.8-3.3-.1-.1-.3-.2-.4-.4.1.2.3.3.4.4z"/><path fill="#FF703D" fill-rule="nonzero" d="M341.8 48.9c.9-.7 1.7-1.4 2.4-2.1l-2.4 2.1z"/><circle cx="341.65" cy="48.85" r="1" fill="#FF703D" fill-rule="nonzero"/><circle cx="341.65" cy="48.85" r="1" fill="#FF703D" fill-rule="nonzero"/><circle cx="341.65" cy="48.85" r="1" fill="#FF703D" fill-rule="nonzero"/><path fill="#B7F2D4" fill-rule="nonzero" d="M344.3 18c-.1.1-.4.3-.5.4.3-.2.5-.3.5-.4zm-2.6 30.9c0-.1 0 0 0 0z"/><path d="M374.6 12.3c-.1.1-.2.1-.3.2.1-.1.2-.1.3-.2z"/><path d="M374.4 12.4c.1 0 .1-.1.2-.1-.1.1-.2.1-.2.1-.1.1 0 0 0 0z"/><path fill="#0068DA" fill-rule="nonzero" d="M384.9 25.3c-.4-2.2-1.3-4.3-2.4-6.3-1.7-3-4-5.5-6.8-7.6 0 0-.2.1-.4.3-.3.2-.5.4-.8.6-.5.4-1 .7-1.5 1-2.5 1.6-6.4 4-10.7 5.5-3.4 1.2-8.6 3.5-12.4 5.1-2.9 1.3-6.3 1.9-6 3.3.3 1.4 3.1 5.9 3 7.4 0 .4-.1.9-.1 1.3.1-.4.1-.9.1-1.3 0 .4-.1.9-.1 1.3 5.3 2.8 12 4.5 17.3 7.4 2.3 1.3 4.5 2.6 6.6 4.2 1.3-.9 3.3-.7 8.1-5.1 4.3-4.3 7.3-10.8 6.1-17.1z"/><path fill="#0068DA" fill-rule="nonzero" d="M374.2 12.5c-.2.1-.4.3-.6.4.3-.1.5-.2.6-.4zm1-.7c-.2.1-.4.3-.7.5.3-.2.6-.4.7-.5l.3-.3-.3.3z"/><path fill="#0068DA" fill-rule="nonzero" d="M374.6 12.3c-.1 0-.1.1-.2.1s-.1.1-.2.1c-.2.1-.4.3-.6.4l-.1.1c-.2.1-.4.3-.6.4.5-.3 1-.7 1.5-1 .3-.2.5-.4.8-.6-.1.1-.4.3-.6.5zm-23.5 21.8c5.3 2.8 12 4.5 17.2 7.4 2.3 1.3 4.5 2.6 6.6 4.2-2.1-1.6-4.3-3-6.6-4.2-5.2-2.9-11.9-4.6-17.2-7.4zm.1-1.3c0 .4-.1.9-.1 1.3 0-.4.1-.9.1-1.3zm24-21c.3-.2.4-.3.4-.3s-.1 0-.1.1c-.1 0-.2.1-.3.2z"/><path fill="#FFD164" fill-rule="nonzero" d="M345.5 19c.2.1.3.3.5.5-.1-.2-.3-.4-.5-.5-.2-.1-.4-.3-.6-.5.3.2.5.3.6.5z"/><circle cx="344.45" cy="17.85" r="1" fill="#FFD164" fill-rule="nonzero"/><path fill="#FFD164" fill-rule="nonzero" d="M373.5 13l.1-.1c0 .1 0 .1-.1.1zm1.7-1.2l.3-.3s.1 0 .1-.1l-.4.4c-.2.2-.4.3-.7.5.3-.2.6-.4.7-.5z"/><path fill="#FFDA85" fill-rule="nonzero" d="M344.5 17.9l-.1.1.1-.1zm6.3-15.1s-.1 1.2-.3 2c-.3 1.4-.7 2.8-1.1 4.2-.2.4-.3.9-.4 1.4 0 .1-.1.2-.1.3-.5 1.4-1 2.8-2 4.2-.3.4-.5.7-.7 1-.2.2-.3.4-.5.7-.3.4-.5.6-.9 1l-.3.3.3-.3c.4-.4.6-.6.9-1 .2-.2.3-.4.5-.7.2-.3.5-.7.7-1 .9-1.4 1.5-2.8 2-4.2 0-.1.1-.2.1-.3.1-.5.3-.9.4-1.4.4-1.4.8-2.8 1.1-4.2.2-.8.3-2 .3-2l.3-2.3-.3 2.3z"/><circle cx="344.45" cy="17.85" r="1" fill="#FFDA85" fill-rule="nonzero"/><path fill="#FFD164" fill-rule="nonzero" d="M344.4 18s0-.1 0 0c0-.1 0 0 0 0zm0 0s0-.1 0 0c.1-.1.1-.1 0 0 0-.1 0 0 0 0zm-.1 0c.1 0 .1 0 0 0 .1 0 .1 0 0 0 .1 0 .1 0 0 0 .1 0 0 0 0 0z"/><path d="M302.2 31.6h-.1-.4.5zm38.4-11c-.3.2-.5.3-.9.5.4-.2.7-.3.9-.5zm-.8.5c-.3.1-.5.3-.8.4.2-.1.5-.2.8-.4zm-32.8 10c-1.6.2-3.2.3-4.8.5 1.6-.2 3.2-.3 4.8-.5zm35.4-11.7a15.258 15.258 0 0 0 0 0zM340.8 20.5c.6-.3 1-.7 1.6-1.1-.5.4-1.1.8-1.6 1.1zm-32.6 10.4c-.3 0-.6.1-.9.1.4 0 .6 0 .9-.1zm33.4 17.9l-.2-.2c.1.1.1.2.2.2z"/><path fill="#FF703D" fill-rule="nonzero" d="M302.2 31.6c0-.1 0-.1 0 0 0-.1 0-.1 0 0 0-.1 0-.1 0 0 0-.1 0-.1 0 0z"/><path fill="#B7F2D4" fill-rule="nonzero" d="M301.7 31.7v0zm38.1-10.6c.1-.1.3-.1.4-.2.1-.1.2-.2.4-.2-.2.1-.5.2-.8.4-.3.1-.6.3-.8.4.3-.1.5-.2.8-.4zM303 31.6c1.4-.1 2.7-.3 4-.5-1.6.2-3.2.3-4.8.5h-.5s1.3-.1 1.3 0z"/><circle cx="302.15" cy="31.55" r="1" fill="#B7F2D4" fill-rule="nonzero"/><path fill="#B7F2D4" fill-rule="nonzero" d="M307.4 31.1h-.3.3zM343 19l.7-.5h0c-.1.1-.4.3-.7.5-.1.1-.3.2-.4.3-.1 0-.1.1-.1.1l.1-.1c.1-.1.3-.2.4-.3zm-2.2 1.5s-.1.1 0 0l-.1.1.1-.1c-.1.1 0 0 0 0zm-.5.4c.1-.1.3-.2.4-.3h-.1l-.3.3zm.4-.3c-.1 0-.1 0 0 0z"/><path fill="#B7F2D4" fill-rule="nonzero" d="M342.6 19.3c.1-.1.3-.2.4-.3-.1.1-.3.2-.4.3l-.1.1s0-.1.1-.1zm1.2-.8l-.7.5.7-.5c0-.1 0-.1 0 0 0-.1 0-.1 0 0 0-.1 0-.1 0 0z"/><path fill="#B7F2D4" fill-rule="nonzero" d="M340.8 20.5s-.1.1 0 0c.6-.4 1.1-.7 1.8-1.2-.1 0-.1.1-.2.1-.6.5-1 .8-1.6 1.1zm3-2.1c.2-.2.5-.3.5-.4 0 .1-.2.2-.5.4zm-2.2 30.4c.1.1.1.1 0 0 .1.1.1 0 0 0zm4.6-29.2c1.2 1.1 2.7 2.7 3.5 4.3 0 .1.1.1.1.2 0-.1-.1-.1-.1-.2-.8-1.6-2.3-3.2-3.5-4.3l-.1-.1.1.1zM346.2 19.6l-.1-.1.1.1zM349.8 24.1V24z"/><circle cx="344.25" cy="17.95" r="1" fill="#B7F2D4" fill-rule="nonzero"/><circle cx="344.35" cy="17.95" r="1" fill="#B7F2D4" fill-rule="nonzero"/><path fill="#B7F2D4" fill-rule="nonzero" d="M301.7 31.6c0 .1 0 0 0 0zm0 0v0zm0 1v-.9.9z"/><path d="M130.9 164.2c.1 0 .2 0 .3-.1-.1 0-.2 0-.3.1zM245.7 37.9c-1.2-.6-2.4-1.2-3.6-1.7-5.2-2.1-10.4-3.6-15.7-4.7 5.3 1.1 10.5 2.6 15.7 4.7 1.2.5 2.4 1.1 3.6 1.7zM134.6 21.5c3.9-.1 7.9-.3 11.6-.8-3.6.5-7.7.7-11.6.8zm117.3-10.7l.1-.1c0 .1 0 .1-.1.1zm-19.2 104.7c-.9-.2-1.7-.4-2.6-.5-1.3-.2-2.5-.4-3.6-.6l3.6.6c.9.1 1.7.3 2.6.5zm-4.8 15.6c1.3-.5 2.6-1.1 3.8-1.7-1.2.6-2.5 1.1-3.8 1.7zm-14.3 6.3c-.4.2-.8.4-1.1.5 0 0 .1 0 .1-.1.1.1.4-.1 1-.4zm-1.3-25.6V111.8z"/><path fill="#FFB08E" fill-rule="nonzero" d="M249.3 15.7c.9-.7 1.8-4.1 2.7-4.9l.1-.1c-1.3-1.1-2.8-2.9-4.3-3.6-4.3-2-9-2.6-13.7-3.3-7.1-1-14.7-2.2-21.8-3.2V.3v3.3c.4 6.8.6 17.8.7 24.5h1.5c12.5-.5 24.8-4.9 34.8-12.4z"/><path fill="#3B3639" fill-rule="nonzero" d="M130.7 32.6s.1 0 0 0c.1 0 0 0 0 0 0 2.5 0 4.9-.1 7.4 0 2-.1 3.9-.1 5.9 8.5-.7 16-3.3 23-6.6-1.4-.8-2.9-1.5-4.4-2.1-5.7-2.4-12-3.4-18.4-4.6z"/><path fill="#B7F2D4" fill-rule="nonzero" d="M129.4 75.7c.1 0 .1 0 0 0z"/><path fill="#FFDA85" fill-rule="nonzero" d="M129.6 69.9c0 .7 0 1.5-.1 2.1.1-.6.1-1.4.1-2.1z"/><path fill="#B7F2D4" fill-rule="nonzero" d="M159.1 83.8c-.2-1.6-1.2-3.2-2.3-4.6-2.1-2.7-6-6-8.8-8-5.2 3.9-11.6 3.9-18.5 3.5 0-.3-.2 14-.2 20 7.5-1.4 14.5-1.9 20.9 1.1 2.9-2 6.2-4.7 7.5-7 .9-1.6 1.6-3.3 1.4-5z"/><path fill="#FFDA85" fill-rule="nonzero" d="M129.8 64.5c-.1 1.8-.2 3.7-.2 5.4 0 .7-.1 1.4-.1 2.1 0 .9-.1 2.4-.1 3.6v1c6.9.4 14.7-.6 19.9-4.5-4.5-4.3-11.7-6.3-19.5-7.6z"/><path fill="#FFDA85" fill-rule="nonzero" d="M129.4 75.7c0-1.2.1-2.4.1-3.6 0 1.2 0 2.4-.1 3.6z"/><path fill="#FF703D" fill-rule="nonzero" d="M129.2 92.2v0z"/><path fill="#FFB08E" fill-rule="nonzero" d="M129.8 126.5c7.1.4 13.3.4 18.5 3.9 6.9-3.5 12.9-8.8 15.1-14.6.7-1.9 1.2-3.9.9-5.9-.2-1.6-.8-3.1-1.7-4.6-2.3-4-7.8-8.1-12.9-10.6-6 4-13.1 5.6-20.3 5.8 0 0 .4 29.6.4 26z"/><path fill="#0068DA" fill-rule="nonzero" d="M129.2 92.2v.3c.1 3.3.2 6.6.2 9.9 7.2-.1 15.6-3 21.6-7.1-6.4-3-14.3-4.5-21.8-3.1z"/><path fill="#FFD164" fill-rule="nonzero" d="M130.6 154.1c7.4.7 13.4 1.1 19.8 4.2 2.5-1.5 5-3.4 6.4-5.6 1.6-2.4 2.2-5.1 2-7.8-.4-5.3-3.6-10.5-8.8-14.2-.2-.2-1.8-1.2-2.1-1.3-5.6 2.8-11.1 3.7-18 3.6-.1 5.3.5 15.3.7 21.1z"/><path fill="#FF703D" fill-rule="nonzero" d="M129.7 123.6c.1 3.6.1 7.3.1 10.9 7 .1 13.6-1.6 19.2-4.4-5.1-3.5-12.2-6.1-19.3-6.5z"/><path fill="#0068DA" fill-rule="nonzero" d="M242.1 34.9c-5.2-2.1-10.4-3.6-15.7-4.7-1.8-.4-3.5-.6-5.3-.9-2.6-.3-5.3-.6-8.1-.6 0 4.3-.1 9.9-.3 14.2 0 1.8-.2 5.8-.2 7.7 5.8 1.7 12.2 1.7 18-.3 5.8-2 11-5.4 15.8-9.2.2-.1.4-2.4.6-2.5-.4-.2-.8-1.8-1.2-2-1.2-.6-2.4-1.2-3.6-1.7z"/><path fill="#FFB08E" fill-rule="nonzero" d="M212.4 72.2v17.2c7.9 1.8 13.1 2.3 20.3 4.6 2 .6 6.8-3.3 9.7-1.9.3-.3.6-.5.9-.8 3.7-3.8 5.7-8.8 5.4-13.6-.3-4.2-2.2-8.2-5.4-11.4-8.4 6-20.4 6.4-30.9 5.9z"/><path fill="#FF703D" fill-rule="nonzero" d="M232.5 57.4c-6.8-3-12.7-6-20-7.9 0 1.6-.1 3.2-.1 4.8v22.4c10.4.5 22.4-4.4 30.9-10.5-.6-.6-1.1-3.2-1.8-3.7-2.5-2.1-5.8-3.7-9-5.1z"/><path fill="#0068DA" fill-rule="nonzero" d="M212.4 90c0-2.5.1-5 .1-7.5l-.1 7.5zm41 9.6c-1.4-1.7-3.1-3-4.9-4.2-.9-.6-1.9-1.2-2.9-1.7-.6-.3-2.6-1.5-3.4-1.8-.4.2-.6 1.5-.9 1.9-.6.7-1.2 1.4-1.9 2.1-1.5 1.5-3.2 2.9-5 3.9-3.4 2-7.2 3.3-11 4.1-1.8.4-3.7.7-5.5.9-1.1.1-2.1.3-3.2.4-.4.1-2.3-.1-2.4.2 0 .1-.1.1-.1.1v6.1c8.2 2.1 14.9 4.8 23 7.3 2 .6 4.2.8 6.1 1.7.4.2 1.6-.2 2 0 .3.1 1.7-.6 2-.7.2 0 .9-.8 1.1-1 .5-.4.9-.9 1.4-1.3 2.3-2.3 4-4.8 5.4-7.8 1.5-3.1 2.7-7.1.2-10.2z"/><path fill="#3B3639" fill-rule="nonzero" d="M234.7 88.9c-7.3-2.3-14.4-4.7-22.2-6.5 0 2.5 0 5-.1 7.5-.1 5.2-.2 10.4-.2 15.6 9.7-.3 14.5-1 22-4.8 4.2-2.2 7.3-6.8 8.2-8.7-2.9-1.4-5.7-2.5-7.7-3.1z"/><path fill="#FFB08E" fill-rule="nonzero" d="M212.3 115.2v-3.1 3.1z"/><path fill="#FFDA85" fill-rule="nonzero" d="M227.7 131.2s.1 0 .2-.1c-.1 0-.1 0-.2.1zm-1.2.5c.4-.2.8-.3 1.2-.5-.4.1-.8.3-1.2.5z"/><path fill="#B7F2D4" fill-rule="nonzero" d="M249.3 13c-10 7.5-22.3 11.9-34.8 12.5-.4 0-.4.1-1.5 0V30c2.7.1 5.4.3 8.1.6 1.8.2 3.6.5 5.3.9 5.3 1.1 10.5 2.6 15.7 4.7 1.2.5 2.4 1 3.6 1.7.4.2.8.4 1.2.7 3.1-2.5 6-5.2 8-8.6 2.2-3.6 3.2-8 2.1-12-.8-2.8-2.5-5.2-4.7-7-.1-.1-.2-.1-.3-.2l-.1.1c-.8.7-1.7 1.5-2.6 2.1z"/><path fill="#B7F2D4" fill-rule="nonzero" d="M214.5 25.5c12.5-.6 24.8-5 34.8-12.5.9-.7 1.8-1.4 2.7-2.2-.8.8-1.8 1.5-2.7 2.2-10 7.5-22.3 11.9-34.8 12.5H213c1.1.1 1.1 0 1.5 0zM130.9 8.1c1.7 0 3.6 0 5.3.1 3.9.1 7.9.3 11.5.7l2.1.3h.1l2.1.3h.1c.7.1 1.4.3 2 .4h.1c.7.1 1.3.3 2 .5h.1c.7.2 1.3.4 1.9.6h.1c.6.2 1.2.5 1.8.7h.1c.6.3 1.2.6 1.7.9.5.3.9-1.1 1.4-.8.4-.9.7-1.8 1-2.7.7-2.5 1.2-5.9.6-9.1h-34.3c.4 5.8.3 10.8.3 8.1z"/><path fill="#0068DA" fill-rule="nonzero" d="M163.4 11.8c-.5-.4-1-.7-1.5-1-.5-.3-1.1-.6-1.7-.9h-.1c-.6-.3-1.2-.5-1.8-.7h-.1c-.6-.2-1.3-.4-1.9-.6h-.1c-.6-.2-1.3-.3-2-.5h-.1c-.7-.1-1.4-.3-2-.4h-.1l-2.1-.3h-.1l-2.1-.3c-3.6-.4-7.6-.6-11.5-.7-1.8 0-3.7-.1-5.3-.1v15.4h3.8c3.9-.1 8-.3 11.6-.8 5.6-.7 11.5-2 15-5.5.7-1.1 1.5-2.3 2.1-3.6zm-32.5 3.5v-1 1z"/><path fill="#FFD164" fill-rule="nonzero" d="M252 10.7s.1 0 0 0c.1 0 0 0 0 0zm-39.8-9.3c7.1 1 14.7 2.2 21.8 3.2 4.7.6 9.4 1.3 13.7 3.3 1.5.7 3 1.6 4.3 2.7l.2-.2c1.3-1.2 2.4-2.6 3.2-4.1.8-1.6 1.3-4.6 1.4-6.3h-44.7v1.3c.1-.1.1 0 .1.1zM217 1.3v-.1z"/><path fill="#3B3639" fill-rule="nonzero" d="M279.8 11.1c.6.4 1.6-.2 1.6-.9s-.8-1.3-1.5-1l-.2.1c-.6.4-.5 1.5.1 1.8zm.3 17c-.5.5-.4 1.4.2 1.8.6.4 1.5.1 1.7-.6.2-.6-.3-1.4-1-1.4-.6 0-.7.1-.9.2zm-1 31.3v.5c.1.9 1.2 1.5 2 1 .8-.4.8-1.7.1-2.2-.7-.6-1.9-.2-2.1.7zm1 17.2c-.3.5-.3.7-.3 1.5-.1.8.6 1.6 1.4 1.4.2-.1.4-.2.6-.4.6-.7 1-1.7.5-2.5s-1.9-.9-2.2 0zm-.2 19.8c.8-.8.8-2.8-.4-2.9-.5-.1-.8-.1-1.2.1-.3.6-.6 1.3-.5 2 .1.7.6 1.4 1.3 1.3.3-.1.6-.3.8-.5zm-1.3 16.9c-.5.8.7 2 1.6 2.1.9 0 1.6-1.1 1.2-1.9-.8-.6-2-1.6-2.8-.2zm2.1 18.4c.2-.1.3-.3.4-.5.2-.6-.2-1.3-.8-1.5-.6-.2-1.1-.4-1.6 0s-.3 1.4.2 1.9c.4.4 1.3.5 1.8.1zm-1.2 16.8c.6.5 1.7.1 1.8-.7.1-.8-.7-1.5-1.5-1.3-.7.2-1 1.3-.5 1.9l.2.1zm.9 12.5c-.7.2-1.1 1-1 1.8.4.3 1 .3 1.5.3.5-.1 1-.4 1.1-.9 0-.8-.9-1.4-1.6-1.2zM191.1 14.8c1 .2 1.9-1 1.5-1.9-.4-.9-1.7-1.4-2.2-.5-.7.7-.3 2.2.7 2.4zm88.8 30.9c1 .2 1.9-1 1.5-1.9-.4-.9-1.7-1.4-2.2-.5-.7.7-.3 2.2.7 2.4zm-87.8-5c-.6-.2-1.5.4-1.4 1 0 .2.3.8.3.8.4.5 1.4.4 1.7-.1.3-.5.1-1.5-.6-1.7zm-.9 30.1c-.8.3-1 1.4-.5 2 .4.7 1.1 1.1 1.8.9.7-.2 1.2-1 1-1.7-.1-.7-.8-1.3-1.5-1.3-.3 0-.5 0-.8.1zm-.3 37.6c.7.5 1.9.2 2.3-.6.4-.8.1-1.9-.6-2.4-.5-.4-1.2-.6-1.8-.4-.6.3-.8 1.2-.7 1.6.2.9.1 1.3.8 1.8zm2.4 28.5c-.1-.9-1.2-1.7-2.1-1.5-.8.3-.7 1.6-.6 2.5 0 .2 0 .4.1.6.2.3.6.4 1 .4 1 0 1.8-1 1.6-2z"/><path fill="#FFB08E" fill-rule="nonzero" d="M131.2 164.1h-.2.2z"/><circle cx="131.15" cy="164.05" r="1" fill="#FFB08E" fill-rule="nonzero"/><path fill="#FFB08E" fill-rule="nonzero" d="M130.8 164.2c-.1 0-.1 0 0 0-.1 0-.1 0 0 0h.1-.1zm.1 0c.1 0 .1 0 .1-.1l-.1.1c-.1 0-.1 0 0 0z"/><path fill="#FFB08E" fill-rule="nonzero" d="M130.5 151.8c.1 4.2.4 7.2.4 11 0 .2.1 3.3.1 3.5l.2-.1h.2c4.9-1 9.5-2 14-3.7 1.8-.7 5-1.3 5.5-4.4l-.5-.2c-5.9-3-12.5-5.5-19.9-6.1zm.3 12.4s-.1 0 0 0c-.1 0-.1 0 0 0z"/><path fill="#0068DA" fill-rule="nonzero" d="M87.1 9l.1.1c1.6-2.8 1.9-6.4 1.9-7.9C89.1.7 89 .1 89 0H67.8v1.2l.2 4.9c3.7 0 8 .2 11.7.8 2.5.4 5.1 1 7.4 2.1z"/><path d="M80.3 129.8c.1.1.3.2.4.3-3.9 2.8-8.6 4.5-13.5 4.4 4.9.1 9.6-1.6 13.5-4.4-.1-.1-.3-.2-.4-.3zM78 19.6c-.5.3-1.1.7-1.6 1 .5-.3 1-.6 1.6-1zm-7.1 2.8c.9-.1 1.9-.4 2.7-.7-.8.3-1.7.6-2.7.7z"/><path fill="#FF703D" fill-rule="nonzero" d="M34 34.6c2.4-5.2 1.1-11.9-3.3-15.5-3.7-3.1-10.6-3.3-10.6-3.3s.1 19.7 0 27.1c5.6.1 11.4-3.2 13.9-8.3z"/><path fill="#FFDA85" fill-rule="nonzero" d="M30.6 73.8c3-2.6 4.6-6.5 4.8-10.4.1-1.4 0-2.8-.4-4.2-.4-1.2-1-2.3-1.7-3.3-2.4-3.4-10.3-10.9-12-3.3-1.7 7.3-1.1 15.8-1.6 23.3 3.6 1.4 8 .4 10.9-2.1z"/><path fill="#FFD164" fill-rule="nonzero" d="M20.7 81.5c0 8.9-.2 17.8-.6 26.8v.1c3.8.9 4.8 1.3 6.9.6 2.6-.9 4.6-3.2 6-5.6 2.7-4.9 3-11.4-.5-15.8-2.9-3.5-7.5-5.3-11.8-6.1z"/><path fill="#3B3639" fill-rule="nonzero" d="M24.7 143.1c2.8-.7 5.4-2.1 7.1-4.4 2.6-3.6 2.7-9.5.6-13.4-4.7-8.7-12.3-9.5-12.3-9.5s-.7 4.2-.9 6.3c-.2 3-1.3 7.4-1.7 10.3-.5 3.8-.9 7.5-1.3 11.3 2.8.1 5.7.1 8.5-.6z"/><path fill="#FFD164" fill-rule="nonzero" d="M89.9 60.4c.5-1.9.7-3.9.7-5.9.1-2.3 0-4.5-.7-6.7-1-3.4-3-6.4-5.8-8.6-5 3.3-10.4 6-16.4 6.7 0 0-.3 9.8-.6 19 5.4 1.3 10 3.7 13.7 7.4 4.4-2.8 7.8-6.9 9.1-11.9z"/><path fill="#B7F2D4" fill-rule="nonzero" d="M82.1 95.3c2.1-2 3.7-4.2 4.7-6.5.6-1.6 1.1-3.3 1-5-.1-1.6-.8-3.2-1.6-4.6-1.5-2.7-3.2-5-5.2-7-4.1 2.6-9.1 3.9-14 3.4-.1 5.5-.1 10.5-.2 16.5 5.2-1.3 10.7.1 15.3 3.2z"/><path fill="#FFDA85" fill-rule="nonzero" d="M67.1 64.9v0z"/><path fill="#FF703D" fill-rule="nonzero" d="M66.7 92.2v0z"/><path fill="#FFB08E" fill-rule="nonzero" d="M80.7 130.2c4.8-3.5 8.5-8.7 10.1-14.5.5-1.9.8-3.9.6-5.9-.1-1.6-.6-3.1-1.2-4.6-1.6-4-4.6-7.4-8.2-9.9-4.2 4-10.1 6.9-15.2 7.1l.2 21.3c4.6.2 9.9 3 13.7 6.5z"/><path fill="#FFD164" fill-rule="nonzero" d="M76.4 154.2c1.8 1.1 3.7 2.4 5.3 3.8 1.8-1.5 3.3-3.2 4.3-5.3 1.1-2.4 1.5-5.1 1.4-7.8-.3-5.3-2.5-10.4-6.2-14.2l-.5-.5c-4 2.8-8.6 4.5-13.5 4.4.1 5.8.2 11.6.2 17.4 3.1-.9 6.2.5 9 2.2z"/><path fill="#FFB08E" fill-rule="nonzero" d="M17.1 6.6c.2.1 3.4.5 5.2.6 2.4.2 5.1.4 7.2-.8 1.8-1 3-2.9 3.7-4.8 0-.1.3-1.2.4-1.6h-16c-.1 2-.3 4.7-.5 6.6z"/><path fill="#B7F2D4" fill-rule="nonzero" d="M81.3 17zm-13.4 5.2c.2.1.3.1.5.2-.2 0-.4-.1-.5-.2zm6.9-.9s.1 0 .2-.1c-.4.2-.8.3-1.3.5.1 0 .5-.2 1.1-.4zm.6-.2c.5-.2.8-.4.9-.4l-1.2.6c.1-.2.2-.2.3-.2z"/><path fill="#000" fill-rule="nonzero" d="M12.9 7.5h1l.3-7.5h-.9zM12.113 142.044l.646-25.692 1 .026-.646 25.692zM16 82h1v26h-1zM13.6 49.614l1-.023.6 25.193-1 .023zM14 15h1v26h-1z"/><path fill="#B7F2D4" fill-rule="nonzero" d="M311.7 147.2c-3.4 0-6.8.1-10.5.1 3.7 0 7.1-.1 10.5-.1z"/><path fill="#FFB08E" fill-rule="nonzero" d="M33.9 164.3c-.5-2.4-1.5-4.7-3.4-6.2-3.7-3-3.8-2.7-4.9-3.1-2.5-.8-4.2-1-6.7-1.8-.4 5.1-1.1 14.6-1.3 16.8h16c.6-1.9.7-3.8.3-5.7z"/><path fill="#B7F2D4" fill-rule="nonzero" d="M155 160.2c-1.1-.6-2.3-1.2-3.4-1.8-.3-.1-.5-.3-.8-.4-1.6.9-3.3 1.7-5.1 2.4-4.5 1.7-9.4 2.7-14.4 3.7-.1 0-.2 0-.3.1h-.1v.8c0 1.9.1 3.2.1 5h34.3c-.3-1.6-.9-2.4-2.1-3.9-2.1-2.4-5.2-4.2-8.2-5.9zm-24.2 4c-.1 0-.1 0 0 0h.1-.1z"/><path fill="#0068DA" fill-rule="nonzero" d="M81.7 158c-1.1.9-2.2 1.8-3.5 2.5-1.2.7-2.5 1.2-3.8 1.7-2.2.8-4.4 1.5-6.7 2.1 0 1.9.1 3.8.1 5.7H89c-.1-.5-.1-1.1-.2-1.6-.9-4.1-3.8-7.6-7.1-10.4z"/><path fill="#FFD164" fill-rule="nonzero" d="M235.4 154.5c-7.5 2.5-16.9 4.6-23 4.9 6.1-.2 15.5-2.4 23-4.9 2.2-.7 4.3-1.5 6.5-2.3-2.2.8-4.4 1.6-6.5 2.3z"/><path fill="#B7F2D4" fill-rule="nonzero" d="M352.3 170h32c.9-2.7 1.1-5.1.5-8-.4-2.2-1.3-4.3-2.4-6.3-1.5-2.7-3.4-4.8-5.7-6.8-3.1 2.9-6 5.6-9.3 8.3-4.2 3.6-12 10.2-15.1 12.8z"/><path fill="#000" fill-rule="nonzero" d="M13.9 153.8l-.6 16.2h.9l.7-16.2zM124.4 162c-2.3.2-5.9.6-7.2.7.4-2.3 1.5-10.6 5-41.7l.1-.6-6.5.4 6.4-45.3-6.3-.3 7.7-39.1h-6.3L123.6 0h-1l-6.5 37.1h6.3l-7.6 39.1 6.3.3-6.4 45.4 6.5-.4c-1.3 11.4-4.4 38.9-4.9 41.4l-.1.5c.1.5.1.5 7.6-.3l-1.3 7h1l1.5-8.1h-.6zM199.4 156.2l5.9-27.9-6 .3 4.8-32.4-4.7.6 5.9-29.8h-5.9l5.9-28h-5.8l5.8-24h-6l5.2-15h-1L198 16h6.1l-5.9 24h5.9l-5.9 28h5.9l-5.9 30 4.8-.7-4.8 32.3 5.9-.2-5.9 27.7 8.9-.1-3.7 13h1l4-14zM287 20h7.5L287 47.8l7.5.6-5.9 34.6h5.8l-7.4 30h7.4l-7.5 21h7.6l-7.5 30.4 6.1-.3-1.6 5.9h1l1.8-6.9-6.1.2 7.5-30.3h-7.5l7.6-21h-7.5l7.3-30h-5.9l5.9-34.5-7.4-.6 7.5-27.9h-7.5l4.3-19h-1z"/><path fill="#3B3639" fill-rule="nonzero" d="M193.5 166c-.6.2-1.2.3-1.4.9-.3.6-.1 1.6.5 1.8.7.2 1.6.2 2.2-.3.6-.5.9-1.4.4-2-.3-.5-1.1-.7-1.7-.4z"/><path d="M351.9 139.2v-.2c.1.1.1.1 0 .2z"/><circle cx="350.45" cy="146.05" r="1" fill="#FFB08E" fill-rule="nonzero"/><path fill="#FFB08E" fill-rule="nonzero" d="M351 168.4v-.1 1.7c.1-.5.1-1.1 0-1.6zm4.9-29.4c1.1.3 2.1.6 3.1 1-1-.4-2-.7-3.1-1zm0 0c-.6-.2-1.2-.4-1.9-.5-.3-.1-.5-.1-.8-.2 1 .2 1.9.4 2.7.7zm-6 8.3c-1.2 2.1-4.8 6.2-6 7.5 1.2-1.3 4.8-5.4 6-7.5.8-1.4 2.2-9.1 2.3-9.4-.1.4-1.5 8-2.3 9.4z"/><path fill="#FFB08E" fill-rule="nonzero" d="M351.9 139.2v-.2c.1.1.1.1 0 .2zm7.2.7c0 .1 0 .1 0 0 0 .1 0 .1 0 0 0 .1 0 .1 0 0 0 .1 0 .1 0 0zm-3.2-.9c1 .3 2.1.6 3.1 1-1-.4-2-.7-3.1-1zm0 0c-.6-.2-1.2-.4-1.9-.5.7.1 1.3.3 1.9.5zm20.8 9.9s-.1 0 0 0c-.1 0 0 0 0 0zm-25.6 19.7v-.2.2zm0 0v0zm0 0v-.3c-.1.1 0 .2 0 .3z"/><path fill="#FFDA85" fill-rule="nonzero" d="M351 167.8v0zm-49.1.7h-.2.2zm-.2 0h0zm49.4.1c0-.3 0-.6-.1-.8v.4c-.2-3.6-1.6-7.1-3.7-10-.3-.4-.6-.7-.9-1.1-.7-.8-1.5-1.5-2.4-2.2l-.1-.1c-.8.6-3.6-1.8-4.5-1.3-.7.4-5.9-1.6-6.6-1.2-.7.4-8.4 2.4-9.1 2.7-11.1 5.6 1.1-2.3-12.9 6.1 0 0-6.1 4.1-6.1 4.2-.1 0-2.8 3.2-2.8 3.2s-.1.5-.1 1.5h48c.3 0 .8.1 1.1 0 .1 0 .3.1.3 0s-.1-1.2-.1-1.4zM301.9 0c0 1.9-.4 6.5-.3 10.3 7.9 5.2 14.7 6.2 23.3 7.7.6.1 5.9.4 6 .4 2.4 1 4-.5 13.8-.4l.1-.1.3-.3c.4-.4.6-.6.9-1 .2-.2.3-.4.5-.7.2-.3.5-.7.7-1 .9-1.4 1.5-2.8 2-4.2 0-.1.1-.2.1-.3.1-.5.3-.9.4-1.4.4-1.4.8-2.8 1.1-4.2.2-.8.3-2 .3-2l.3-2.3V0h-49.5z"/><path fill="#FF703D" fill-rule="nonzero" d="M334.7 23.5c.5-.2 1-.4 1.5-.7-.5.3-1 .5-1.5.7zm-4.1 1.8c.5-.2.9-.4 1.4-.5-.5.1-1 .3-1.4.5zm6.2-2.7c.7-.3 1.4-.7 2.1-1-.6.3-1.4.6-2.1 1zm-4.2 1.8c.5-.2.9-.4 1.4-.6-.4.2-.9.4-1.4.6z"/><path fill="#3B3639" fill-rule="nonzero" d="M350 129.9c1.2 1.8 1.7 3.6 2 5.1.2 1.4.2 2.5.2 2.8.1 0 .1 0 .2.1-.1 0-.1 0-.2-.1 0-.3.1-1.4-.2-2.8-.3-1.4-.8-3.3-2-5.1-1.4-2.1-3.8-4.2-7.6-5.3 3.8 1.2 6.2 3.2 7.6 5.3z"/><path d="M352.1 137.9c-.1 0-.2-.1-.3-.1 0 0 .1 0 .3.1zm-50.9 7.7v0z"/><path fill="#3B3639" fill-rule="nonzero" d="M369.8 119.7c-6.7-1.6-27.5-5.1-29.4-5.2h-.1c0 .1-.5 1.1-1 2.4-.2.5-.5 1.1-.8 1.7-.4.8-.7 1.5-1 2-.1.1-.1.2-.2.3-.9 1.1-5.5 2.9-5.9 3.3l-.1.1-.1.1c2.6.8 11.9 3.1 13.3 4.4l.6.6c.2.2.4.5.6.7.2.3.4.5.6.8 1.2 1.8 1.7 3.6 2 5.1.2 1.4.2 2.5.2 2.8.1 0 .1 0 .2.1 1.5-.4 6.8-1.8 8.2-2.3 1.3-.5 2.6-1 3.9-1.7 2.3-1.2 4.7-2.4 7-3.6 2.2-1.1 4.4-2.3 6.5-3.5 1.6-.9 3.2-2 4.6-3.3.4-.4.8-.8 1.1-1.3-3.4-1.7-6.8-2.7-10.2-3.5z"/><path fill="#FFDA85" fill-rule="nonzero" d="M352 135.1c-.2-1.5-.8-3.3-2-5.1-.2-.3-.4-.5-.6-.8-.2-.2-.4-.5-.6-.7l-.6-.6c-1.4-1.3-3.3-2.5-5.9-3.2-.7.7-9.5 1.5-10.3 2.2-10 9.4-10.4 1.4-26.6 9.7-.8.4-3.5 6.2-4.4 6.1v1.3s.1 1.2.1 1.6v1.8c2.6 5.6 6.3 7.4 9.7 7.4 5.6 0 10.2-.2 16.2.7 2.9.5 3.9-1.8 6.6-.6 2.5 1.1 5.9 0 7.8 1.5l2.4-1.6c1.2-1.3 4.8-5.4 6-7.5.8-1.4 2.2-9.1 2.3-9.4.4.1.1 0 0 0 .1-.4.1-1.4-.1-2.8z"/><path d="M212.7 137.9c.9-.4 2-.8 3.1-1.3-1.1.4-2.1.9-3.1 1.3-.1 0-.1 0 0 0z"/><path fill="#FFDA85" fill-rule="nonzero" d="M248.3 121.9c-.9-.7-2-1.3-3-1.9-2.9 2.7-5.4.5-8.8 2.6-3 1.8-6.9 3.6-10 4.9-3.7 1.5-7.2 2.7-10.8 4.2-1.1.5-2.2.9-3.1 1.3 0 0-.1 0-.1.1v14c6.5 1.9 13.8 1.7 20.5 2.9 3 .5 6 1.2 8.8 2.3 2.1-.9 4.2-1.9 6.1-3.2 3.8-2.6 7-6.3 7.8-10.8 1.2-6.3-2.3-12.7-7.4-16.4z"/><path d="M80.7 37.1c-.1-.1-.2-.1-.3-.2.7.4 1.6 1 2.4 1.6-.6-.5-1.3-1-2.1-1.4zm3.2 2.1c-.3-.2-.6-.5-1-.7.3.2.6.5 1 .7z"/><path fill="#FF703D" fill-rule="nonzero" d="M83.9 39.2c-.1 0-.1 0 0 0-.1-.1-.1-.1 0 0z"/><path fill="#FF703D" fill-rule="nonzero" d="M94.1 18.6c-.5-2.3-1.3-4.5-2.7-6.3-1.1-1.4-2.6-2.4-4.2-3.2-1.1 2.3-2.6 4.4-4.2 6.2-.4.5-.9.9-1.3 1.4l-.3.3c-.9.9-1.9 1.7-3 2.4-.1.1-.2.2-.4.2-.5.3-1.1.7-1.6 1-.1.1-.4.2-.9.4-.1 0-.2.1-.3.1 0 0-.1 0-.1.1-.1 0-.1.1-.2.1-.5.2-1 .4-1.1.4-.9.3-1.8.6-2.7.7-.3 0-.6.1-.9.1-.6 0-1.1 0-1.6-.1-.2 0-.3-.1-.5-.2 0 2.9-.1 5.8-.1 8.7 5.4.6 11.7 4.4 16 8.3l.1.1c.9-.6 1.8-1.2 2.6-1.8 2.4-1.7 4.7-3.4 6.3-5.9 2.1-3.8 2.1-8.6 1.1-13z"/><path fill="#FFB08E" fill-rule="nonzero" d="M83.9 39.2c.1.1 0 .1 0 0zm0 0c-.1 0-.1 0 0 0-.1 0-.1 0 0 0zm0 0c-.3-.2-.6-.5-1-.7.3.2.6.5 1 .7zm154.5 77.1c-7.7-2.3-17.6-4.2-26.1-4.6-.2 6.1 0 12.2.1 18.3.1 1.4.1 3.5.1 5.2 0 .9 0 1.8.1 2.8 1.1-.5 2.1-.9 3.2-1.4 3.6-1.4 7.1-2.6 10.8-4.2 3.2-1.3 7.1-3.1 10-4.9 3.4-2 5.9-4.8 8.8-7.5-2-2-3.8-2.8-7-3.7z"/><path fill="#B7F2D4" fill-rule="nonzero" d="M339.3 157.6c.7-.4 1.5-.8 2.2-1.3.8-.5 1.6-1 2.4-1.6-1.9-1.5-4.1-2.5-6.6-3.6-2.7-1.2-5.5-2.2-8.5-2.7-6-1-11.4-1.2-17.1-1.2-3.4 0-6.8.1-10.5.1v2.7c.1 5.9.4 12.1.5 18.4 12.4-.8 24.3-4.2 35.3-9.7.8-.3 1.5-.7 2.3-1.1z"/><path stroke="#000" d="M59.5 0v170"/><path fill="#0068DA" fill-rule="nonzero" d="M310 121.7c1.3.2 3.4 1.4 4.8 1.5-1.4-.1 2.4-.2 1.1-.4 6.9.9 6.8 2.5 13.5 3.6-1.6-.3-2.6-2.3-4.3-2.6 1.6.3 3.2 1.5 4.8 1.8 1.3.2 2 1 3.2 1.3.1 0 2.5.7 2.6.8 2.5.5 4-1.2 6.7-3.1.2-.2.4-.5.6-.7.6-.7 1.2-1.4 1.8-2.2.2-.2.3-.4.5-.7-.2.2-.3.5-.5.7h.1c.3-.5.7-1.2 1-2 .3-.5.5-1.1.8-1.7.5-1.2.9-2.1 1-2.4 0-.2.1-.4.1-.5.1-.6.2-1.4.3-2.2v-.5c0-.5-.1-1-.2-1.5 0-.3-.1-.6-.2-.8l-.3-1.2c-.1-.5-.3-1-.5-1.4-.2-.6-.5-1.1-.7-1.6-.1-.3-.3-.5-.5-.8-.1.1-.2.2-.3.2-2 1.7-21.9 2.7-22.2 2.9-1.5.8-7.8.6-9.1 1.1-10.9 3.8-4.1 1.4-11.8 6.2l-1.4 2.4 1.1 2.1 1.2.9c3.2.4 3.6.4 6.8.8z"/><path fill="#FFB08E" fill-rule="nonzero" d="M301 139.5c0 1.1.1 2.2.1 3.2.9.1 1.8.1 2.7.1 13.6.1 26.3-6.7 36.3-16 .7-.7 1.5-1.4 2.2-2.1-2.4-.9-5-1.3-7.5-1.8-.1 0-.2 0-.3-.1-1.2-.2-2.5-.4-3.8-.7-6.6-1.1-13.7-2.1-20.6-3-3.2-.4-6.4-.8-9.4-1.1 0 7.6.2 15.5.3 21.5 0 0 0 .1 0 0zm50.9-53.2c-.3-.9-.7-1.7-1.1-2.6-.2-.4-.4-.7-.7-1.1-.2-.3-.4-.5-.5-.8-.2-.3-.5-.7-.8-1-.8-1-1.7-1.9-2.6-2.7-.9-.8-1.8-1.6-2.8-2.3-1.9-1.5-3.8-2.6-5-3.2-.2-.1-.5-.2-.6-.3-.1 0-.1-.1-.2-.1l-.4-.2-9.5-2c-9.9 8.8-13 17.2-25.8 20.1 0 .1.4 3.4.4 3.5 4.8.7 4.6 8.2 9.4 8.9 5.4.7 12.4-3.2 17.5-1.4 5.2 1.8 6.3-.2 9.6 4.2.1.1 7.1-.3 7.2-.2.2-.2 3-2.9 4.9-7.1.1-.3.2-.5.3-.8.1-.2.2-.5.3-.7.1-.2.2-.5.2-.7 0-.1.1-.2.1-.3.1-.3.2-.5.2-.8 0 .1 0 .2-.1.2 0-.1.1-.2.1-.3.1-.2.1-.4.2-.7 0-.1.1-.2.1-.3.1-.3.1-.6.2-.9v-.2-.1c0-.2 0-.4.1-.6 0-.2 0-.4.1-.6V91v-.1-.1V89.6v-.7c0-.3-.1-.7-.1-1 0-.2-.1-.3-.1-.5v-.1c-.4-.2-.5-.6-.6-1z"/><path fill="#FF703D" fill-rule="nonzero" d="M326.9 67.9c-7.7-2.6-15.6-4.2-23.6-5.6-.5 0-1.1.1-1.5.1v27.8c12.8-2.9 25.4-9.3 35.2-18.2h-.1c-3.2-1.6-6.6-3-10-4.1z"/><path fill="#B7F2D4" fill-rule="nonzero" d="M333 112.9c1.2-.4 2.7-1.1 4.2-1.9.4-.2.8-.4 1.1-.6 2.6-1.4 5.2-3.2 7.2-5 .1-.1.2-.2.3-.2-.1-.1-.1-.2-.2-.3-3.2-4.4-8.2-7.4-13.3-9.2-5.2-1.8-10.6-2.6-16.1-3.3-4.8-.7-9.7-1.3-14.5-2 0 3.4-.1 6.8-.3 10.2-.3 6.8-.7 17.4-.7 17.4h1.1c11 .7 20.3-1.2 31.2-5.1zm18.1-80.1c.3-2.2-.3-4.7-.8-6.8-.5-2-1.4-3.5-2.8-5.1-.7-.7-1.3-1.4-2.1-2-.2-.2-.8-.7-1.1-.9-.2-.2-2.7-.7-2.9-.5-.8.6-2.7.4-3.5.9-1.9 1.2-3.6 1.7-6 2.7-3.2 1.4-5-4.4-8.4-3.4-5.7 1.7-11.4 8.6-17.3 9.3-1.3.2-2.1.9-3.4 1-.2 0-1.1 3.6-1.2 3.7v.9c.2.3 1.1.7 1.3.8 2.9 1.8 5.8 3.5 8.7 5.1 5.4 2.9 10.9 5.6 16.2 8.5 1.2.6 2.5 1.7 3.8 2 1.1.2 2.2 0 3.3-.1 1.3-.2 2.5-.4 3.8-.4.8 0 2-.1 2.7.4l-.2-.2c.4.3.5.1.8-.3.4-.3.7-.6 1.1-.9.8-.6 1.5-1.3 2.2-2 1.2-1.2 2.3-2.6 3.2-4 1.7-2.7 2.5-5.7 2.6-8.7z"/><path fill="#FF703D" fill-rule="nonzero" d="M337.8 14.2c-2.2-1-4.5-1.8-6.8-2.4-.6-.1-1.1-.3-1.7-.4-.6-.1-1.1-.2-1.7-.3-8.6-1.5-17.4-1.1-26-1 .1 7.1-.1 14.3.1 21.4.1 0 1.4 0 1.7-.1 13.1-1.1 23.6-4.1 35-9.7 1.4-.7 2.7-1.4 3.9-2.3.7-.5 1.4-.9 2-1.5-1.9-1.9-4.1-2.7-6.5-3.7z"/><path fill="#0068DA" fill-rule="nonzero" d="M301.8 60.2v2.2c.1 0 1-.1 1.5-.1 11-1 21.5-4.8 31.6-8.9 2.2-.9 4.6-2.7 6.7-4.5-1.7-1.4-3.6-2.6-5.5-3.7-10.6-6.2-22-10.2-34.4-12.6 0 9 0 16.2.1 27.6z"/><path fill="#FFDA85" fill-rule="nonzero" d="M230.5 48.2c-5.7 2-12.2 2-18 .3 0 1 0 2.1-.1 3.1 7.3 2 13.2 4.9 20 7.9 3.2 1.4 6.4 3 9.1 5.1.6.5 1.2 1 1.8 1.6 0 0 .1 0 .1-.1 3.6-2.6 5.6-5.2 8-9 1.6-2.7 1.9-8.3 1.3-11.3-.7-3.2-3-5.5-5.8-7.2-.2.1-.3.3-.5.4-4.9 3.8-10.1 7.2-15.9 9.2z"/></g></svg>