<svg xmlns="http://www.w3.org/2000/svg" viewBox="0 0 398 170"><g fill="none" fill-rule="evenodd"><path fill="#FFD984" fill-rule="nonzero" d="M325.8 0c3 .9 5.9 1.8 8.9 2.8-5.5.1-23.7 2.7-23.4 10.1.1 3.6 18.2 11.4 22.9 13.1-6.7-.5-23.4 8.1-23.1 10.4.4 3 15 10.1 19.2 10.8 4.8.8-17.4 5.9-17.4 10-.1 4 16.9 8.7 33.8 8.8 17.6.1 35.7-4.6 35.7-8.8 0-4.3-18.5-8.1-18.1-9.7 0-.1.2-.2.7-.3 4.2-.7 18.8-7.8 19.2-10.8.3-2.4-16.4-10.9-23.1-10.4 4.7-1.7 22.8-9.5 22.9-13.1.3-7.3-17.9-9.9-23.4-10.1 2.9-.9 5.9-1.9 8.9-2.8h-43.7z"/><path fill="#FFD065" fill-rule="nonzero" d="M146.1 107.3c-4.2-7.2-9.5-13.8-15.6-19.5-7.6 3-15.2 6.1-22.5 9.8-.8-3.6-1.2-6.8-1.7-10.5-.4-3-.7-6-.1-8.9 1-5.3 4.6-9.7 8.9-13 6.6-5.1 15.2-7.9 23.4-6.8 8.2 1.1 16.1 6.6 19.1 14.4 1 2.5 1.5 5.3 1.8 8 .6 5.4.5 11-1.5 16s-6.6 9.2-11.8 10.5z"/><path fill="#B7F2D4" fill-rule="nonzero" d="M91.8 139.8c-28.6.5-50.1 1.1-64.8 4.3-2.1.5-15 3.2-10.7 5.8 4.3 2.5 19.4 3.6 32.6 4.2 93.2 4.5 191.2 5.2 285.7 1.9 11.2-.4 22.8-.9 31.9-2.2 8.2-1.2 13.8-3.8 10.8-5.8-4.1-2.8-24.2-3.8-39.6-4.6-86.9-4.2-151.6-4.5-151.6-4.5-31.5-.2-52.5.2-94.3.9z"/><path stroke="#3B3639" d="M372.3 5.4l-8.1 34.3m-16.7 9.4l-15.4 77.5"/><path fill="#FFAC89" fill-rule="nonzero" d="M287.2 61.1l-8.9 16.7-91.4 2.6 2.4-16.3 56.5-20.7z"/><path stroke="#3B3639" d="M264.7 52.7l5.9-29.7"/><path fill="#006AD9" fill-rule="nonzero" d="M205.6 112c-9.7.7-20.4 2.5-26.3 10.2 24.3 4.5 49.2 5.5 73.7 3 5-.5 16.6-1.5 19.3-6.9 2.5-5.2-7.3-4.7-10.9-5.1-18.6-2-37.2-2.5-55.8-1.2z"/><path stroke="#3B3639" d="M118.9 79.3l-2.7 43.1M137.5 62V24"/><path fill="#FF6A36" fill-rule="nonzero" d="M60.4 64.1c-.1-1-1-6.9-5.3-9.1-5.3-2.6-11.6 2.3-14.1 4.1-3.6 2.7-5.4 5.7-6.6 7.7-3.3 5.4-4.4 10.9-4.7 15-5.3-2.8-12.1-2.5-17.2.7s-8.3 9.2-8.2 15.2c-1.4-.7-2.8-1.4-4.3-2v38.4l2.6 2.1 57.8-72.1zm298.9 39.1l38.7 30.9V95.8c-13-4.9-30.2-3.1-38.7 7.4z"/><path stroke="#241E1F" d="M216 170l1.1-17.9L216 170M59.2 170l-5.8-23.8 5.8 23.8"/><path fill="#FFD984" fill-rule="nonzero" d="M387.2 164H307.9l18 6h43.4c5.9-2 11.9-4 17.9-6z"/><path fill="#3B3639" fill-rule="nonzero" d="M266 99.8c-.6.3-.8 1.2-.5 1.7.4.6 1.2.7 1.7.2.5-.5.5-1.3 0-1.8s-1.4-.4-1.7.2M85.7 116.9c-.9.4-1.3 1.8-.7 2.6.6.9 1.9 1 2.7.3.8-.7.8-2.1 0-2.7-.8-.7-2.1-.6-2.7.3m1.6-75.1c-.4 1.8.8 3.6 2.3 4.7 1.5 1.1 3.6 1.6 5.2.7 1.3-.7 2.1-2.2 2.2-3.6.1-1.5-.5-2.9-1.3-4.1-.5-.7-1.2-1.4-2-1.7-2.6-1.4-5.8 1.5-6.4 4zM26 19c-.7.1-1.2.7-1.2 1.4s.6 1.3 1.2 1.4c.9.1 1.7-.7 1.6-1.6-.1-.9-1.1-1.5-1.9-1.2"/><path fill="#B7F2D4" fill-rule="nonzero" d="M196.1 22.1c-1.1 5.4-2.2 10.7-3.3 16.1-3.8-.9-7.5-1.8-11.3-2.7 3-.4 5.9-1.3 8.7-2.5-1.8-.8-3.4-2.2-4.3-4l10.2-6.9z"/><path stroke="#3B3639" d="M219.8 118.9l2.2-26m11 54.8l12.6-95.5"/><path fill="#3B3639" fill-rule="nonzero" d="M315.5 92.3c-2.7-2.2-5.5-4.4-8.2-6.6-.6-.5-1.3-1-2-.8-1 .2-1.4 1.3-1.6 2.3-1.2 4.9-2.3 9.9-3.5 14.8 4.2-4.6 10.2-6.1 15.3-9.7z"/><path stroke="#3B3639" d="M35.9 111.3l5.1 13.5"/></g></svg>