<svg xmlns="http://www.w3.org/2000/svg" viewBox="0 0 398 170"><g fill="none" fill-rule="evenodd"><path fill="#B7F2D4" fill-rule="nonzero" d="M31.3 3.7l4.3 1s13.2-1.9 13.7-1.9c3.4-.1 17.3-.1 17.3-.1L68.3 0H25.6c2.6 1.9 5.7 3.7 5.7 3.7zm36.1 160.2l-8.2-5.5-6.3-3.9-8.6-4.9s-9.3-1.5-11.9 0c-3.4 1.9-6.8 9.9-9.2 13.9 0 0-1.7 2.3 0 4.3.6.7 1.5 1.4 2.5 2.2h42.7l.7-1c-.1-.1-.9-4.1-1.7-5.1z"/><path fill="#FF6A36" fill-rule="nonzero" d="M100.6.3c.2.2 11 3.8 11 3.8h2.5l9.5-1.5 6.1-.5 4.9-.5s.4-.7.6-1.6h-34.7c-.1.1 0 .2.1.3zm35.1 159.8l-3.7-2.2-4.2-.5-8.5.4-4.3 1.6-4.7 1.2-4.2.9-2.7.6-1.2 1-1.5 1.9v4.1s-.1.6-.1.9h34.7c.4-1.8 1.1-4.9 1.3-6.1 0-1.1-.9-3.8-.9-3.8z"/><path fill="#006AD9" fill-rule="nonzero" d="M200.9 1h4.4l12.1-1h-20.2zM226.7 166.7c1.1-1.7-1.3-6-2.5-7.6-1-1.4-5.6-3.8-5.6-3.8l-6.8-3.2-4.4-.7-11 2-6.9 7.6 1.2 6.5 6.6 2.5h20.1l4.9-.6c0-.2 3.7-1.6 4.4-2.7z"/><path fill="#FFAC89" fill-rule="nonzero" d="M27 76.9c-.1-2.7-11.7-8.7-11.7-8.7L0 66.9v26c9.4-2.4 21.3-6.1 21.3-6.1s5.8-7 5.7-9.9zm362-10.7l-20.7-1.4-26.1 3.3-14.4 8.8 4.5 12s3.9 8.4 6.5 9.7c2.6 1.3 11.8-.8 11.8-.8l15.2-2.1s17.7-.1 23.5-1c2.1-.3 5.2-1 8.7-1.9v-26l-9-.6z"/><path fill="#FF6A36" fill-rule="nonzero" d="M354.1 2.9c2.3 2.1 6.8.5 10.3.2 3.5-.3 3.7-1.3 6.5-3.1h-19.7c1 .9 2.1 2.1 2.9 2.9zm19 163.7c-.1-1.2-2.3-3.8-2.3-3.8s-5.3-3.3-7.5-3.6c-2.6-.3-5.7.2-10.6.3-4.1.1-3.8 4.6-3.8 4.6.2 2.1 1.3 4.6 1.3 4.6s.5.6 1.2 1.3H371c1.4-.8 2.2-2 2.1-3.4z"/><path fill="#FFD065" fill-rule="nonzero" d="M269.6 3.6l21.1 5.1 16.1-1.1 7.4-5.9-.3-1.7h-46.7zM306 160.6l-7-6.2s-8.8-3.3-11.7-4.2c-2.8-.8-11.5-2.8-11.5-2.8s-9.4-1.3-12.2.1c-2.2 1.1-5.4 8-5.4 8l4.4 7.3 4.8 7.2H314l-.8-4.3-7.2-5.1z"/><path fill="#B7F2D4" fill-rule="nonzero" d="M95.7 126.2l4.4 5.3s15.8 1.8 20 1.8c4.3 0 19.4 1.3 19.4 1.3l21.2-1.2s9.3-.5 13.2-.5c3.9 0 15.6-1.4 15.6-1.4l2.5-12.1-.6-7.4-12.5-6.3s-9.5-.2-14.2-.1c-4.7.1-36.4.4-36.4.4l-6.8 1.3-21 10.7-4.8 8.2z"/><path fill="#006AD9" fill-rule="nonzero" d="M38 76.2l7.3-.9h.2l9.6-.4h.2l7.5-.8 3.4-.4c.1 0 .2 0 .3-.1l2.5-.7 2.2-.5c.6-.1 1.2-.5 1.5-1l1.4-1.8c.2-.3.4-.6.5-1l1.5-6.4c0-.2.1-.3.1-.5l.1-1.8c.1-1.2-.6-2.2-1.7-2.6l-2.1-.8c-.1 0-.2-.1-.3-.1L65 54.7h-.3l-5.5-.7h-.4l-5.1.2-7 .1h-.3l-5.3.7h-4.2c-.3 0-.5 0-.8.1L32 56.4c-.9.3-1.5.9-1.8 1.8l-.9 3.2c-.1.5-.1.9 0 1.4l1.6 6.4c.1.3.2.5.3.8l2.2 3.5c.2.4.6.7 1 .9l3.6 1.8z"/><path fill="#FFD065" fill-rule="nonzero" d="M28.9 7.3c.6-.2 3.4-1 4-1.2l15.2-3.7c1-.2 2.1-.2 3.1.2l7.9 2.9c1.3.5 3.5 1.9 3.5 1.9s.7 2.4.8 3.2c.4 1.5-3.2 5.3-4.5 5.8l-6.1 2.5c-1 .4-5.6 1.1-5.6 1.1l-15.1-2.2c-2-.4-6.6-6.1-6.6-6.1v-1.5c0-.1 2.9-2.7 3.4-2.9z"/><path fill="#FFAC89" fill-rule="nonzero" d="M29.2 19.3l10.6-.3s15.3 1.8 16.1 1.6l5.3 1.3 4.6 3.4 1.1 4.8-.2 2-3.8 5.4L48.2 41l-5.4 1.3-22.7.5-4-14.1-.3-4 13.4-5.4z"/><path fill="#B7F2D4" fill-rule="nonzero" d="M38.1 47.6c.8-2.6 6-5.7 6-5.7s3.9-1 3.9-.9c.1-.1.1-.1.2-.1L63.6 44c.5.1 1 .4 1.4.8l1.1 1.2c.4.5.4 1.2-.1 1.6l-6.2 5.1h-.1l-9.1 1.6h-7.3l-4.8-5.1-.4-1.6zM44.3 75h3.1l5.5 7.5 3 8.9-2.2 7.9-3 8.7H44l-4.5-5.5V89.7l2.7-12.2z"/><path fill="#FF6A36" fill-rule="nonzero" d="M29.6 115.9c-.1.7.2 1.4.9 1.8 2 1.2 4.7 3.1 6.6 3.2 3.1.2 11.2-.4 13.3-.6.3 0 .6-.1.9-.3 1.4-.9 6.1-4.1 6.1-5.9 0-.6-.9-1.7-.9-1.7s-5.2-3.4-6.3-3.8c-.2-.1-.5-.1-.7-.1-1.7 0-8.7.2-11.1 1.1-2.6 1-6.4 1.6-8.1 3.9-.2.2-.2.5-.3.8l-.4 1.6z"/><path fill="#FFAC89" fill-rule="nonzero" d="M30.6 130.8l1.6 12s4.3 5.4 6.4 5.7c.9.1 4.9-.9 4.9-.9l5.9-2 2.4-2-2.4-14.1-1.2-1.6-5.4-6.6-1.8-.4-6.9 1.7-3.5 8.2z"/><path stroke="#0B132F" d="M45.5 0v170"/><path fill="#FFAC89" fill-rule="nonzero" d="M102.7 6.1l.6 1.2 4.3 3.7h4.2l2 1h2.2l3.3-1.4 3.2-1.1V8.2l-1.3-1.5-2.2-1.1-1.4-1.5-2.9-.7-6.1.4-3.6.3z"/><path fill="#FFD065" fill-rule="nonzero" d="M100 16.2c-.6.6-1.1 2.2-1.2 3-.2 1.7 1.3 6.9 1.3 6.9l5 2 3.5 1.3 14.2-.9 2.6-1.5s5.3-6.1 5.3-8.7c0-1.2-2.4-4.3-2.4-4.3l-14.6-2h-3.3l-6.1 2.4c.1 0-3.5.9-4.3 1.8z"/><path fill="#B7F2D4" fill-rule="nonzero" d="M99.2 35.9c-.5 1.5.7 6.2.7 6.2s-.5 4.2.1 5.4c.7 1.2 4.1 2.1 4.1 2.1l29.4 1.1s8.9-3.8 10.2-6.4c1.1-2.2-1.6-9.7-1.6-9.7l-4.4-1.6-11.5-4.2s-4-.4-4.3-.4c-1.8 0-16.2.8-16.2.8s-5.8 4.5-6.5 6.7z"/><path fill="#FFD984" fill-rule="nonzero" d="M105.1 57c.3-1.3 4.5-6.9 4.5-6.9l8.3.3s6 2.3 8.1 3.9c1.1.8 3.8 9.1 3.4 12.3-.2 1.5-2.6 5.4-2.6 5.4l-4.2 7.1h-9.8l-5.3-1.8s-3.5-7-3.9-9.5c-.6-2.7.1-4.6 1.5-10.8z"/><path fill="#3B3639" fill-rule="nonzero" d="M104.8 85.3c2.5 2.5 8 3.1 8 3.1l7.8-.3 1.3-3.8-1.5-2.7-4.5-2.5H113l-3.9 1.7-2.7 1.4s-1.7 1.3-1.7 2.3l.1.8z"/><path fill="#006AD9" fill-rule="nonzero" d="M105.5 103.4l3.1.8 7.7 2 10 .5 2.6-.5 3.9-.8.8-2.4.7-2.9.7-3.2-1.8-2-9.6-3.3-6-3.3-3.9.2-4.2 1.4-4.7 4.7c-2.6 4.4-1.9 9 .7 8.8z"/><path fill="#FFD065" fill-rule="nonzero" d="M109.8 131.9l-1.5.8-1.8 1.6-.6 2.7-.4 3.7v3.5l.4 6.8 2.3 3.5 7.6 3 6.7-.1 2.3-.9-.6-6.8-2.3-5.7-1.6-4-1.3-2.3-2.9-3.6-2.4-1.8z"/><path stroke="#0B132F" d="M121.5 0v170"/><path fill="#FFAC89" fill-rule="nonzero" d="M168 24.2c-1.2 4.3.5 14.1.5 14.1s-2.1 8.3-1.7 11.1c.2 1.7 5 7.7 5 7.7l14.9.2s17.3-7.9 22.2-11.8c4.2-3.3 13.9-16.1 13.9-16.1l-2.5-6.2-13.6-5.5-33.4 2s-4.7 1-5.3 4.5z"/><path fill="#FF6A36" fill-rule="nonzero" d="M207.1 17s10.6.5 13.2-1.6c1-.8 1-5.1 1-5.1s-2.2-4.1-3.6-5.1C216 4.1 210 2.4 210 2.4l-5.9-2-8.7 1.5-1.6 3.5.2 5.3s.6 4.3 1.6 5.3c.7.7 3.7 1.4 3.7 1.4l3.7-.4h4.1z"/><path fill="#3B3639" fill-rule="nonzero" d="M176.5 57.4l8.2-.3 7 1.3s7.6-1.6 10.1-1.1c1.3.3 4.7 2.9 4.7 2.9s1.8 2 1.9 2.9c0 1.5-3.1 5.2-3.1 5.2l-2.4.7h-7.3l-8.6-1.6-8.7-2.9-1.8-6.5v-.6z"/><path fill="#006AD9" fill-rule="nonzero" d="M191.1 78.3c0 1.7 3.1 5.7 3.1 5.7h18.5l7.9-.2s3.8-2.4 4.4-3.9c1.1-2.8-1.7-11.7-1.7-11.7s-3.5-3.2-5-3.5c-2.6-.5-10.1 2.5-10.1 2.5s-9.6 1.4-12.2 3.2c-1.8 1.4-4.3 5.4-4.9 7.9z"/><path fill="#FFAC89" fill-rule="nonzero" d="M202.9 91.7s-1.5 7.7-.6 10.1c.7 1.8 5.5 5.5 5.5 5.5l3.5-1.1s2.7-1.6 3.2-2.4c1-1.7 1.3-8 1.3-8s-.8-4.2-1.4-5.4c-.7-1.6-3.9-5.9-3.9-5.9l-3.9.1-2.4 4.1-1.3 3z"/><path fill="#FFD065" fill-rule="nonzero" d="M199.6 117.6s4-7.9 6.3-9.7c.9-.7 4.4-1.5 4.4-1.5l5 1.5 9.6 5.2s1.5 6.4 1.4 8.6c-.1 2-2 7.9-2 7.9L214 133h-6.7l-5.6-1.7c-1.5-1.5-2.9-8-2.9-8l.8-5.7z"/><path fill="#FF6A36" fill-rule="nonzero" d="M183.9 140l3.1-5.8 2.3-1.9 6.4-.7 15.2 1.6 9 2.8 3.4 6.4-2 6.4-9.3 1.2-5 1h-9.9l-8-3.9z"/><path stroke="#0B132F" d="M199.5 0v170"/><path fill="#006AD9" fill-rule="nonzero" d="M335.6 24.4l18.7-1.6 19.5-.4s6.8 2 8 3.8c1.4 2.2 0 10.6 0 10.6L373.6 49h-17.4s-11.1-1.8-14.5-3.3c-2.1-.9-7.3-5.3-7.3-5.3l-4.8-4.2s-3.5-3-3.4-4.4c.5-2.9 9.4-7.4 9.4-7.4z"/><path fill="#3B3639" fill-rule="nonzero" d="M343.7 52l-2.1 5.4 3 8.2 3.7 1.5 7.3-1.5s1.9-5.3 1.7-7.1c-.2-2.6-3.8-9.9-3.8-9.9s-6-.7-7.6.2c-.9.5-2.2 3.2-2.2 3.2zm19.4 44.2s-7 6.2-7 9.1c0 1.8 4.4 5.8 4.4 5.8l10.7.6 4.2-7V100l-6-4.1-6.3.3z"/><path fill="#B7F2D4" fill-rule="nonzero" d="M355.8 6.2s-7.4 9.8-6 13.1c1 2.5 9.9 3.7 9.9 3.7H374l3-9.7s-1.3-6.3-2.8-7.1c-2.9-1.5-12.8-2.6-12.8-2.6l-5.6 2.6zm-28.1 106.9c-.6 1.4-.6 5.4-.6 5.4l2.6 11.2s.1 5.8.8 7.6c.7 1.7 4.6 5.9 4.6 5.9s10.1 2.9 13.2 1.7c3.8-1.4 14.6-3.3 14.6-3.3l7.3-.5 5.8-5.8 1-10s.1-8.4-1-10.9c-.4-.8-2.4-2.7-2.4-2.7l-12.1-.7-22.2-1.9s-4 .9-7.5 1.7c.1.2-3.6 1.2-4.1 2.3z"/><path fill="#006AD9" fill-rule="nonzero" d="M344.7 145.6c-1.2.3-4.5 5.4-1.6 6.5 2.9 1.1 3.5 1.1 6.2 3.6 2.8 2.4 9.2 2.6 16.5 3.4 7.3.8 11.1 1.5 11.8-2.9.7-4.4-1.5-7.6-1.5-7.6s-5.5-3.9-8.4-4.5c-2.9-.6-2.7-1.4-6.2-2-1.7-.3-4.1.7-7.2 1.3-3 .5-8 1.8-9.6 2.2z"/><path stroke="#0B132F" d="M359.5 0v170"/><path fill="#B7F2D4" fill-rule="nonzero" d="M250.1 27.6c5.7 4.8 22.7 2.1 30.9 2 3.6-.1 13.7.5 16.3-.6 2.6-1.1 14.4-4.4 14.3-7.7-.1-3.4 1.5-5.9-4.6-8.5-6.1-2.6-29.6-8.3-39.8-9.8-3.1-.4-10.4-.7-12.7 1-7.4 5.8-7.5 13.6-7.5 13.6s1.1 8.4 3.1 10z"/><path fill="#FF6A36" fill-rule="nonzero" d="M274.5 32.4c-1.7 2.9.3 7.1 1.1 11.8.8 4.7 3 13.5 3.5 14.5s1.6 6.3 7.2 3.7c5.6-2.6 9.1-4.4 9.5-7.4.4-3 .8-6.7-.6-10.9s1.2-7.9-3.6-9.5c-4.8-1.6-9.2-3.5-9.2-3.5s-4.9-3.9-7.9 1.3z"/><path fill="#FFD984" fill-rule="nonzero" d="M253.4 62.5c0 3.7.7 8.3 2.2 11.6 1.5 3.3 1.9 9.2 6.8 9.2s13.2 1.7 18.5 2.7c5.3 1.1 14.6 1.5 16.5 1.2 1.9-.3 7.6-.9 7.9-6.5.3-5.6-3.3-7.6-7.6-9.8-4.3-2.2-23.2-11.5-23.2-11.5s-5.6-5-7.4-4.6c-1.8.4-6.3 1.8-8.4 2.5-1.8.4-5.3 1.5-5.3 5.2z"/><path fill="#006AD9" fill-rule="nonzero" d="M268.3 91.2c-1.4 2 1.3 8.4 1.3 8.4l4.9 11 10.4 1.3 9.7-4.4s7-6.8 6.7-9.7c-.2-1.9-5.7-4.9-5.7-4.9l-7.8-5.8-10.2-1.6s-3.7 1.4-5.1 2.5c.1.1-3.4 2.1-4.2 3.2z"/><path fill="#FFAC89" fill-rule="nonzero" d="M313.3 122.3c-.5 1.2-1.4 3.1-2.5 4.4-1 1.1-4.8 3.2-4.8 3.2l-11.5.4-15 1.3-13.3-.9-4.2-7.7s-1.2-7.3 0-9.4c1-1.7 6.9-4 6.9-4l9.2 1.4 15.3 1.8s10.3.8 13.4 2.1c2.1.9 5.9 4.3 5.9 4.3s.7 2.7.6 3.1z"/><path fill="#3B3639" fill-rule="nonzero" d="M282.4 148.1l-7.6-1.7-1.1-4.9 1.5-7.6 3.2-2.9h3.3l3.2 2.9s.4 6.5 0 8.6c-.3 1.5-2.5 5.6-2.5 5.6z"/><path stroke="#0B132F" d="M279.5 0v170"/></g></svg>