<svg id="Layer_1" data-name="Layer 1" xmlns="http://www.w3.org/2000/svg" viewBox="0 0 398 170"><defs><style>.cls-1{fill:#ffac89;}.cls-2{fill:#b7f2d4;}.cls-3{fill:none;stroke:#000;stroke-miterlimit:10;}.cls-4{fill:#006ad9;}.cls-5{fill:#3b3639;}.cls-6{fill:#ffd065;}.cls-7{fill:#ff6a36;}</style></defs><title>ST__17_Libraries</title><path class="cls-1" d="M208.2,86.84q-.65,10-.39,20.09a46.73,46.73,0,0,1-17.36,1.46c.93.1-1.83-19.16-1.18-20.32C191.07,84.85,204.44,86.82,208.2,86.84Z"/><path class="cls-2" d="M244.2,95.39c.13,2.27,2,4.12,4.17,4.9a17.72,17.72,0,0,0,6.74.64l121.41-4.21a11.09,11.09,0,0,0,5.27-1.06c1.57-.91,2.64-2.94,1.87-4.58-.66-1.41-2.33-2-3.85-2.36C374,87.31,368,87,362,86.81c-32.78-1.22-65.68-.59-98.45.7C258.78,87.69,243.73,87.46,244.2,95.39Z"/><path class="cls-2" d="M393.82,13.21c-2.21,1-2.71,3.19-3,5.12a290.54,290.54,0,0,0-2.65,44c0,1.82.16,3.82,1.82,5.18s4.64,1.7,7.24,1.85l.75,0V12.66A9.5,9.5,0,0,0,393.82,13.21Z"/><path class="cls-2" d="M102.44,74.23c1.36-.93,2.41-39.65,3.54-48.76.15-1.22.26-2.58-.75-3.56s-3-1.31-4.74-1.48Q50.87,15.4,1,12.7l-1,0V69.38C33.12,71.26,101.25,75,102.44,74.23Z"/><path class="cls-1" d="M379.86,123.47c-3.71,3.78,1.3,16.47,1.7,21a1.51,1.51,0,0,0,.65,1.31,5.28,5.28,0,0,0,2.67.4q6.56-.14,13.11-.33V120.19C390.45,120.57,382,121.3,379.86,123.47Z"/><path class="cls-1" d="M86.86,118.63a2.8,2.8,0,0,0-1.19-2c-1.17-.74-3.12-.76-4.84-.71q-35.14.94-70,3.79c-2.35.19-6.42.3-10.79.52v25.63q44.9-1.28,89.5-4.82A128,128,0,0,0,86.86,118.63Z"/><line class="cls-3" x1="157.5" y1="21" x2="156.61" y2="148.31"/><path class="cls-4" d="M136.62,93.16C111.31,96.62,54,99,28,100c0-6,0-11,1.12-16.8C33,84,135.59,93.18,136.62,93.16Z"/><path class="cls-5" d="M211.77,100.89c1.92,2.65,5.44,3.75,8.71,3.61a10.4,10.4,0,0,0,5.74-1.81c5.69-4.18,5.55-15-2.44-15.88C216.53,86,205.92,92.8,211.77,100.89Z"/><path class="cls-4" d="M328,17.56a215.92,215.92,0,0,0,36.52,23.94c-.37,9.85-3.6,19.78-3,29.62-24.78-2-49.9-4.07-74.36.38-4.43.81-9.31.91-13.77,1.58-.26-.28-.38.55,0,.49s.48-.55.49-.94c.43-17.26-5.2-34.41-3.39-51.57C288.8,16.76,309.1,16.74,328,17.56Z"/><path class="cls-6" d="M231.74,52.49c.42-9.27.76-19-3.33-27.37-2.15-4.41-6.45-8.66-11.41-7.94a10,10,0,0,0-6.91,5.21,28.29,28.29,0,0,0-2.66,8.39,29.68,29.68,0,0,0-.51-9.88c-.63-2.79-2-5.82-4.85-6.68s-5.8.87-7.86,2.94a20.81,20.81,0,0,0-5,20.73c-.64-4.75.22-10.25-1.78-14.63s-7.17-7.95-11.76-6.19a9.15,9.15,0,0,0-5.05,5.69,26.22,26.22,0,0,0-1.06,7.67l-.55,14.49c-.36,9.28.6,19.1,1.34,28.36a204.14,204.14,0,0,0,39-2.85c8-1.36,16-3.21,24.1-2.86.75,0,0-1.46.47-2C232.82,61.86,231.56,56.39,231.74,52.49Z"/><path class="cls-7" d="M160.51,101q5.16-7.59,10.59-15l7.08,17.86a75.42,75.42,0,0,1-17.28-1.83c-.53-.12-1.2-.62-.85-1"/><path class="cls-6" d="M186,119c.49,4.23-1.16,8.57-.67,12.8l19.65.14,16.44.12,11.74.09c41.32.3,82.47,1,123.81.07.82,3.79,2,7.93,2,11.85-63-.18-125.39-1.29-188.36-1.48q1.67-13.16,2.45-26.42C177.1,116,182,118.45,186,119Z"/><polygon class="cls-3" points="17.5 21.5 17.5 151.5 372.5 139.5 371.5 27.5 17.5 21.5"/><line class="cls-3" x1="18.5" y1="78.5" x2="375.5" y2="86.5"/><line class="cls-3" x1="21.5" y1="109.5" x2="374.5" y2="102.5"/><line class="cls-3" x1="263.5" y1="18.5" x2="263.5" y2="89.5"/><line class="cls-3" x1="184" y1="79" x2="184" y2="103"/><line class="cls-3" x1="206.5" y1="84" x2="206.5" y2="108"/><line class="cls-3" x1="227.5" y1="79" x2="227.5" y2="103"/></svg>