<svg xmlns="http://www.w3.org/2000/svg" viewBox="0 0 398 170"><defs><style>.cls-1,.cls-8{fill:none;}.cls-2{fill:#ffac89;}.cls-3{fill:#ff6a36;}.cls-4{fill:#ffd984;}.cls-5{fill:#b7f2d4;}.cls-6{fill:#006ad9;}.cls-7{fill:#3b3639;}.cls-8{stroke:#000;stroke-miterlimit:10;}</style></defs><title>Asset 16</title><g id="Layer_2" data-name="Layer 2"><g id="Layer_1-2" data-name="Layer 1"><rect class="cls-1" width="398" height="170"/><polygon class="cls-2" points="213.38 83.72 213.38 27.53 247.63 25.16 244 0 124 0 119.85 26.89 160.99 75.73 213.38 83.72"/><path class="cls-3" d="M170.27,151.4,183.53,105l-41.11-6.17-42.15-53L36,89.35l-5,39.34c7.07,7.75,31.05,4.28,42.05-2.06C61.8,158,88,152,116,138.18c.34,5-2.48,22.41-2.48,22.41Zm-11.61-26.84a5.33,5.33,0,0,1,3-.63,5.16,5.16,0,0,1,3.69,1.84,2.78,2.78,0,0,1-.35,3.79c-.55.4-1,1.44-3,1.44C158.37,131,154.71,126.54,158.66,124.56Z"/><path class="cls-4" d="M54.22,67.48a20.11,20.11,0,0,0,9.3-7.94,20.22,20.22,0,0,0,1.79-4.45c4.66-16.19-8.62-39.21-27.74-31C21.74,30.94,15.26,57,31.23,67,38,71.2,47,70.84,54.22,67.48ZM35.17,39l.32-.13a6.65,6.65,0,0,1,4.83,12.4,6.91,6.91,0,0,1-8.63-3.6A6.9,6.9,0,0,1,35.17,39Z"/><polygon class="cls-2" points="124 170 244 170 242 151 124 170"/><polygon class="cls-5" points="26.85 6 0 6 0 157 18.51 154.1 24.09 70.23 12.67 41.75 26.85 6"/><path class="cls-5" d="M255,9l3.52,42.23L336,45.34,325.48,84.11l.57,4A34.91,34.91,0,0,1,336,105c.69,2.81,2.66,11.41-1.43,20.22-1.15,2.48-3.79,7.91-15.19,14.59-13.74,8.06-24.07,14.5-39.29,13.43a49.89,49.89,0,0,1-13.3-2.81L268,165l130-8V6ZM385.31,140.09a17.95,17.95,0,0,1-11.09,12.39c-7.25,3.36-16.21,3.72-23-.51-16-10-9.49-36,6.34-42.85C376.69,100.88,390,123.9,385.31,140.09Z"/><path class="cls-6" d="M336,105a34.91,34.91,0,0,0-9.95-16.9c-.7-.67-1.28-1.16-1.66-1.48-7.76-6.51-16.47-7.63-29.89-10.2A86.28,86.28,0,0,0,282,75c-18.3-.83-28.18-1.27-37,6-13.5,11.13-12.08,30.12-12,31,1.27,14,10.38,22.64,15,27a54.46,54.46,0,0,0,18.79,11.43,49.89,49.89,0,0,0,13.3,2.81c15.22,1.07,25.55-5.37,39.29-13.43,11.4-6.68,14-12.11,15.19-14.59C338.66,116.41,336.69,107.81,336,105ZM257.69,93.23a4.75,4.75,0,0,1-4,.35,3.79,3.79,0,0,1-2.69-2.5,3.17,3.17,0,0,1,1.79-3.39,4.88,4.88,0,0,1,4,.09A3.4,3.4,0,0,1,259,89.67,3,3,0,0,1,257.69,93.23Z"/><path class="cls-3" d="M40.32,51.23a6.65,6.65,0,0,0-4.83-12.4l-.32.13a6.9,6.9,0,0,0-3.48,8.67A6.91,6.91,0,0,0,40.32,51.23Z"/><path class="cls-3" d="M368.28,122c-4.44,1.91-6.26,9.22-1.77,12a6.91,6.91,0,0,0,6.45.15,5.74,5.74,0,0,0,2.61-2.23,6.16,6.16,0,0,0,.5-1.25C377.38,126.18,373.65,119.72,368.28,122Z"/><path class="cls-5" d="M162,131c2,0,2.42-1,3-1.44a2.78,2.78,0,0,0,.35-3.79,5.16,5.16,0,0,0-3.69-1.84,5.33,5.33,0,0,0-3,.63C154.71,126.54,158.37,131,162,131Z"/><path class="cls-7" d="M256.83,87.78a4.88,4.88,0,0,0-4-.09A3.17,3.17,0,0,0,251,91.08a3.79,3.79,0,0,0,2.69,2.5,4.75,4.75,0,0,0,4-.35A3,3,0,0,0,259,89.67,3.4,3.4,0,0,0,256.83,87.78Z"/><polyline class="cls-8" points="360.5 107.5 346.96 81.49 370.01 72.06 363.5 26.5 223.33 35.53 223.61 99.39 150.18 86.68 101.98 28.06 65.12 38.53"/><line class="cls-8" x1="72.46" y1="13.39" x2="198.18" y2="24.91"/><line class="cls-8" x1="156.28" y1="20.72" x2="165.71" y2="60.54"/><line class="cls-8" x1="267.71" y1="129.92" x2="341.05" y2="143.54"/><line class="cls-8" x1="272.95" y1="107.92" x2="340.5" y2="134.5"/></g></g></svg>