<?xml version="1.0" encoding="utf-8"?>
<!-- Generator: Adobe Illustrator 23.0.1, SVG Export Plug-In . SVG Version: 6.00 Build 0)  -->
<svg version="1.1" id="Layer_1" xmlns="http://www.w3.org/2000/svg" xmlns:xlink="http://www.w3.org/1999/xlink" x="0px" y="0px"
	 viewBox="0 0 398 170" style="enable-background:new 0 0 398 170;" xml:space="preserve">
<style type="text/css">
	.st0{fill:#FFB08E;}
	.st1{fill:#0068DA;}
	.st2{fill:#B7F2D4;}
	.st3{fill:#FF703D;}
	.st4{fill:#FFDA85;}
	.st5{fill:#3B3639;}
</style>
<path class="st0" d="M277.8,15.5l-15.5,15.3l-15.2-1.6l-6.4-11l-2.2,84l2.8,53.9l-0.6,0l-2.4-46.7l-1.3,52.1l95.8,2.6l0.3-1.6l2-31
	l14,11l16,11l-20,10l-2.7,0.8l43.5,1.2l-0.8-122c-0.7,0.1-1.4,0.1-2.2,0.1c-1.7,0.5-3.2,0.1-4.7-0.6c-1.8-0.5-3.5-1.2-5.1-2.1
	c-0.5-0.2-1-0.4-1.4-0.7c-1.8-1-3-2.9-4.5-4.2c-1.3-1.2-2.9-2.1-3.7-3.6c-0.4-0.7-1-1.4-1.1-2.2c-0.2-0.8,0-1.9,0.1-2.7
	c0.2-1.4,0-2.9,0.4-4.3c0.1-0.2,0.1-0.4,0.2-0.5c-0.2-1.1-0.1-2.2,0.4-3.4c0.6-1.2,1.4-2.1,2.3-2.9c0.1-0.3,0.2-0.5,0.4-0.8
	c0.9-1.7,2.2-3.3,3.6-4.7l-96.5-3.7L277.8,15.5z M263.9,83.4l9,13l2.1-25.5l13.4,14.4l-1.8-25.5l17.1,24.7l-47.3,32.7L263.9,83.4z
	 M249,128.5v-8l132-15l2,7L249,128.5z M372.2,60.5l-2.4,9.5c8.4,3,17.4,14.3,14.1,24c-5.1,15.2-29.9,17.7-38.1,5.8
	c-3.6-5.2-8.2-15.8-4.5-20.3c4.6-6.8,10.8-11,18.5-11.3l-97-16.3l2.5-11.5L372.2,60.5z"/>
<path class="st1" d="M63,17c1,0,30-1,30-1s0-0.4,0-0.5c0.1-1.8,0.3-7.2,0.3-7.2s-9-0.9-12.8-0.8c-4.2,0.1-8.4,0.2-12.6,0.1
	c-4.1-0.1-22.3,1-22.3,1l0.5,7.3C46.2,15.9,60.9,17.1,63,17z"/>
<path class="st0" d="M184.4,16.2c3.9-0.4,17.6-0.5,17.6-0.5l0.2-7c0,0-5.5-0.4-7.2-0.3c-1.3,0.1-6.2-0.4-9.9-0.2
	c-5.5,0.2-25.9,0-30.5-0.2c-6.2-0.3-12.4,0-18.6,0C132.8,8,101,8.4,101,8.4l-1,6.6C100,15,179.8,16.7,184.4,16.2z"/>
<path class="st2" d="M34.4,149.8c12.9-0.3,114.1,0.4,114.1,0.4l0.5-7.5c0,0-30.6-1.1-37.4-1.3c-8.1-0.3-56.6,0.3-73,0.2
	c-8.5-0.1-31.6,0.2-31.6,0.2L5,149C5,149,25.7,150,34.4,149.8z"/>
<path class="st3" d="M57,158.1c-2.4-0.2-17.6,0.1-22.7-0.2c-2.3-0.1-11.9,0.8-11.9,0.8l0.2,7.7c0,0,8.5-0.2,10.5-0.3
	c4.4,0,9-0.3,13.5,0.1C50.9,166.6,70,166,70,166l-1.5-8.4C68.5,157.6,59.6,158.3,57,158.1z"/>
<path class="st4" d="M164.9,158.7c-3.7,0.5-31,0.3-35.1,0.1c-3.8-0.1-46.9-1.1-46.9-1.1l-1.8,8.1c0,0,8.5-0.1,12.7-0.2
	c7.3-0.1,58.9,0.6,66.2,0.3c3.7-0.2,19.3-0.5,19.3-0.5L179,159C179,159,166.9,158.5,164.9,158.7z"/>
<path class="st3" d="M6.6,100.7c0,0,1.6,0.2,2.3,0c2.4-0.4,20.5,0,23.2-0.1c2.6-0.1,5.2-0.2,7.7-0.1c2.5,0.1,5,0.4,7.6,0.5
	c2.7,0.1,5.3,0,8,0c5.3-0.1,29.1-0.2,31.8-0.2c2.6-0.1,13.1,0.3,15.7,0.4c2.6,0.1,5.1,0.1,7.7,0c2.6,0,28.4,0,31,0.2
	c1.3,0.1,8.2-0.3,9.5-0.3c0,0-0.4-7.8-1-8c-1.3-0.4-3.8,0.2-5.1,0c-1.2-0.1-12.3-0.2-14.8-0.1c-5.2,0.1-10.4,0.5-15.6,0.2
	c-2.6-0.2-5.3-0.2-7.9-0.3c-2.5-0.1-20.3,0.4-23,0.3C78.3,93,56.9,93,51.4,92.9c-5.3-0.1-37.1,0.8-39.5,0.5C10.4,93.3,9,93,7.1,93.2
	c-0.2,0-1.1,3-0.8,4.6C6.4,98.6,6.6,100.7,6.6,100.7z"/>
<path class="st4" d="M62.1,116.9c2-0.1,8.4-0.3,8.4-0.3s0-2.3-0.1-3.4C70.3,112,70,109,70,109s-15.5,0.6-17.8,0.6
	c-4,0-31.2,0.4-31.2,0.4s0.2,1,0.4,2.2c0.2,1.2,0.6,4.8,0.6,4.8s13.9-0.3,16-0.2c4.1,0,8.1,0.3,12.1,0.4
	C52.1,117.2,60.1,117,62.1,116.9z"/>
<path class="st4" d="M119.5,117.2c3.8-0.1,15.5-0.3,17.4-0.5c1.9-0.2,13,0,16.7,0c3.8,0,7.7,0.2,11.5,0.1c1.9,0,14.3-0.4,14.3-0.4
	L179,109c0,0-14.7,0.2-18.5,0.2c-7.8,0-31-0.1-34.9,0c-3.8,0.1-7.7,0-11.5,0.1c-3.9,0.1-7.8,0.2-11.8,0.1C98.5,109.4,78,109,78,109
	l-1,8C77,117,111.9,117.5,119.5,117.2z"/>
<path class="st1" d="M93,125.5c0,0-6.5,0-8.7-0.1c-2.1,0-26.4-0.2-30.4-0.1c-1.9,0-8.9,0.7-8.9,0.7s-0.2,3.2-0.1,4
	c0,0.6,0.2,2.2,0.2,2.2s33.4,0.6,37.3,0.4c1.9-0.1,3.9-0.2,5.8-0.1c1,0.1,4.8-0.2,4.8-0.2s-0.1-3.1,0-4.6
	C93.1,127,93,125.5,93,125.5z"/>
<path class="st1" d="M128.5,125.6c-3.7,0-7.5,0.1-11.2,0c-3.7-0.1-15.8,0-15.8,0l0.5,7.2c0,0,23,0,26.8,0.1
	c3.8,0.1,7.5,0.2,11.3,0.1c3.9,0,19.1,0.3,22.9,0.1c3.8-0.2,39,0.1,39,0.1l-0.5-7.9C201.5,125.1,132.3,125.6,128.5,125.6z"/>
<path class="st2" d="M58.8,33.1c2.6,0,25.9-0.7,31.1-0.4c1.4,0.1,9.8,0.6,11,0.5c1.1,0,8.3,0.3,10.9,0.2c1.3,0,2.8,0,4.1-0.2
	c1.3-0.2,10-0.3,11.2-0.3c2.6-0.1,5.1,0.3,7.7,0.5c1.3,0.1,2.7,0,4,0C140,33.4,149,33,149,33s0.2-4.1,0.2-4.8c0-0.7-0.2-3.2-0.2-3.2
	s-1.1,0.2-1.5,0.3c-0.5,0.1-7.4,0.4-7.8,0.4c-0.9,0.1-37.9-0.9-40.4-1c-2.5-0.1-50.4,0.8-51,0.6c-2.3-0.6-33.7,0-36.2,0
	C10.4,25.3,7,26,7,26l-0.2,7.1C6.8,33.1,56.3,33,58.8,33.1z"/>
<path class="st3" d="M53.9,48.7c2,0,13.7-0.1,14.7-0.1c0.4,0,1.5-0.3,1.5-0.3l0.1-7.3c0,0-2.7,0.3-4,0.2c-4.5-0.2-9-0.2-13.5-0.1
	c-3.9,0.1-7.9-0.1-11.8-0.2c-1.9,0-9.6,0.1-11.7,0c-1.8-0.1-7,0.1-7,0.1s-0.4,0.8-0.4,2.5c0,1,0.1,2,0.2,3c0,0.5,0.3,1.8,0.3,1.8
	s2.4,0.1,3.2,0.1C27.4,48.3,51.9,48.8,53.9,48.7z"/>
<path class="st4" d="M85.1,48.3c3.8-0.2,53.8,0.7,57.8,0.6c3.9,0,33.6,0.2,34.5,0.1c0.6-0.1,1.6,0,1.8,0l-0.3-7.3
	c-0.1-0.3-2.6-0.2-3.4-0.1c-0.9,0.1-1.7,0.1-2.6,0.2c-1.9,0.1-31.8-0.2-33.7-0.3c-1.9-0.1-30-0.3-33.8-0.2c-1.9,0.1-3.7-0.1-5.6-0.2
	c-1.9-0.2-3.9-0.1-5.9-0.1c-4-0.1-7.9,0.2-11.8,0.4C81,41.4,78,42.1,78,42.1s-0.3,1.3-0.2,1.9c0.1,0.9,0.2,4,0.2,4
	S83.4,48.4,85.1,48.3z"/>
<path class="st1" d="M65,65c4,0,28.4,0,28.4,0L93,58c0,0-2.9-0.1-3.9-0.1c-2.3,0-28.9,0.1-31.1,0.1c-4.1,0.1-14,0-14,0v6
	C44,64,56.7,65.1,65,65z"/>
<path class="st0" d="M202.4,58c0,0-10.8-0.8-14.4-0.5c-3.8,0.3-15.2,0.2-17.1,0.2c-1.8,0-13,0-16.7-0.2c-3.7-0.2-18.3,0.1-22,0
	c-1.9,0-9.3-0.3-11.1-0.3c-3.8,0.1-15.2,0-17.1-0.2c-1.2-0.1-1.8-0.1-3-0.1c-0.8,0-0.8,4-0.8,4v3c0,0,1.9,0.1,2.9,0
	c1.8-0.2,14.4,0.7,16.2,0.4c1.8-0.2,8.9-0.1,10.7-0.1c1.8,0.1,3.7,0,5.5,0c7.6,0,41.5,0.9,45.3,0.9c1.8,0,9.2-0.2,11-0.1
	c1.8,0,7.4,0.1,8.3-0.1c0.8-0.1,2.1,0,2.1,0s0-2.1,0-3C202,60.7,202.4,58,202.4,58z"/>
<path class="st2" d="M116.8,77.6c0-0.4,0.2-0.9-0.1-1.2c-0.3-0.3-0.8-0.1-1.2-0.1c-0.4,0-0.9,0.1-1.3,0c-0.3-0.1-0.5-0.2-0.8-0.2
	c-0.3,0-0.6,0-0.9,0c-0.5-0.1-0.9-0.2-1.5-0.2c-0.5,0-1.7,0-1.7,0s-2.9,0.4-4.3,0.4c-1.2,0-2.4-0.1-3.6,0c-0.5,0-1.1,0.2-1.5,0.3
	c-0.6,0.1-1.2,0.1-1.8,0.3h-5c-0.6-0.3-1.3-0.2-1.9-0.2c-0.3,0-0.6-0.1-0.8-0.2c-0.4-0.1-0.9,0-1.4,0c-0.7,0-1.3-0.4-2.1-0.4
	c-0.6,0-1.9-0.2-1.9-0.2s-1.9,0-2.9,0c-1.8,0-3.6,0-5.4,0c-1.2,0-2.4,0-3.6,0c-0.4,0-0.8,0-1.3,0c-0.2,0-0.4,0-0.6,0
	c-0.2,0-0.3-0.1-0.5-0.2c-0.7-0.2-1.6-0.1-1.9,0.5c-0.3,0.6-0.6,1.3-0.6,2c0,1-0.1,2.1,0,3.1c0.1,0.7,0.2,1.4,0.9,1.5
	c0.7,0.1,1.5,0,2.3,0c1.5,0,4.6,0,4.6,0h9.1h1.3c1.8,0.1,3.6,0.2,5.5,0.1c0.8,0,1.7,0.1,2.5,0.2c0.8,0.2,1.6,0.1,2.4,0.1
	c0.3,0,0.6,0,0.9,0c0.4,0,0.6,0.1,1,0.2c0.8,0.1,2.5-0.7,2.5-0.7s2.7,0,3.7,0c0.7,0,1.5,0,2.2,0c0.7,0,1.3-0.2,2-0.2
	c0.4,0,0.8,0,1.2,0c0.3,0,0.5,0.2,0.8,0.2c0.3,0,0.5-0.1,0.7-0.1c0.6-0.2,1.4,0,2.1,0c0.6,0,1.3,0.1,1.9,0c0.2,0,0.4-0.1,0.5-0.2
	c0.5-0.5,0.3-1.6,0.3-2.2c0-0.5,0-1,0.1-1.5C117.1,78.4,116.9,78.1,116.8,77.6z"/>
<path class="st4" d="M203.5,75.5c-1.8-0.1-13,0.4-16.9,0.5c-7.5,0.3-30.1,0.3-33.9,0.1c-3.7-0.2-14.7-0.3-16.5-0.2
	c-1.9,0.1-12.3,0.6-12.3,0.6l1,6.7c0,0,2.5,0.1,3.6,0.1c1.8-0.1,29.6-0.2,33.4,0c7.5,0.4,42.5-0.1,44.3-0.1c3.8,0,19.8,0.2,19.8,0.2
	l-1.1-7.1C224.9,76.3,205.4,75.6,203.5,75.5z"/>
<polygon class="st2" points="273.4,7.2 269.6,0 242.3,0 235.4,9.2 240.7,18.2 247.1,29.3 262.3,30.8 277.8,15.5 "/>
<polygon class="st2" points="248.3,162 242.3,170 269.6,170 266.9,164.8 "/>
<path class="st3" d="M385.6,5.8c-5-0.7-10.2,0.7-14.2,3.8c-0.5,0.4-1.1,0.9-1.6,1.4c-1.4,1.4-2.6,3-3.6,4.7
	c-0.1,0.3-0.3,0.5-0.4,0.8c-0.9,0.8-1.7,1.7-2.3,2.9c-0.5,1.2-0.6,2.2-0.4,3.4c-0.1,0.2-0.2,0.3-0.2,0.5c-0.4,1.4-0.2,2.9-0.4,4.3
	c-0.1,0.8-0.3,1.9-0.1,2.7c0.2,0.8,0.7,1.5,1.1,2.2c0.9,1.6,2.4,2.5,3.7,3.6c1.5,1.3,2.7,3.3,4.5,4.2c0.5,0.3,1,0.5,1.4,0.7
	c1.6,0.9,3.3,1.7,5.1,2.1c1.5,0.7,3,1.1,4.7,0.6c0.7,0,1.5-0.1,2.2-0.1c4-0.4,7.6-2.1,10.5-4.7c0.8-0.4,1.5-0.8,2-1.4
	c0.2-0.3,0.2-0.5,0.3-0.7V12.9C395.1,9.2,390.7,6.5,385.6,5.8z"/>
<path class="st3" d="M0.8,35.7c0.4-0.6,0.9-1.2,1.3-1.8c0.4-0.7,0.5-1.5,0.9-2.2c0.5-0.9,0.5-1.6,0.7-2.5c0.2-0.6,0.3-0.8,0.3-1.6
	c0-0.7,0-1.5,0-2.2c0-0.6,0-1.2,0-1.8c-0.1-1-0.2-1.9-0.4-2.9c0,0,0-0.1,0-0.1c0,0,0-0.1,0-0.1c-0.3-1.2-0.6-2.3-1.1-3.4
	c0-0.1,0-0.3-0.2-0.6C1.6,15.3,0.9,14,0,12.9v23.8c0,0,0-0.1,0.1-0.1C0.3,36.3,0.6,36.1,0.8,35.7z"/>
<polygon class="st1" points="349.2,142.5 335.2,131.5 333.2,162.5 332.8,164.1 332.2,167.5 342.5,164.3 345.2,163.5 365.2,153.5 "/>
<path class="st1" d="M262.7,52l97,16.3c3-0.1,6.3,0.4,9.8,1.6c0.1,0,0.1,0.1,0.2,0.1l2.4-9.5l-107-20L262.7,52z"/>
<polygon class="st4" points="286.5,59.8 288.3,85.3 275,70.8 272.9,96.3 263.9,83.4 256.3,117.2 303.6,84.5 "/>
<path class="st2" d="M359.7,68.3c-7.8,0.2-14,4.5-18.5,11.3c-3.7,4.5,1,15.1,4.5,20.3c8.2,11.8,33,9.4,38.1-5.8
	c3.3-9.7-5.7-21.1-14.1-24l0,0L359.7,68.3z"/>
<path class="st2" d="M359.7,68.3l10,1.7l0,0c-0.1,0-0.1-0.1-0.2-0.1C366,68.7,362.7,68.2,359.7,68.3z"/>
<polygon class="st5" points="249,120.5 249,128.5 383,112.5 381,105.5 "/>
<polygon points="234.2,19.9 233.7,19.9 238.3,109.4 238.5,102.2 "/>
<polygon points="241.3,156.1 238.5,102.2 238.3,109.4 240.8,156.1 "/>
</svg>
