<svg xmlns="http://www.w3.org/2000/svg" viewBox="0 0 398 170"><g fill="none" fill-rule="evenodd"><path fill="#F2F4F2" fill-rule="nonzero" d="M353.3 17.9c-.1.2-.1.3-.2.5.1-.2.2-.4.2-.5z"/><path fill="#FFD984" fill-rule="nonzero" d="M35.9 27.4l-17.1 72.8 59.5.8 9.8-1.1 1.5-.2 12.6-53.1L85 0H58.5c-11 4.9-19.6 14.7-22.6 27.4z"/><path fill="#FF6A36" fill-rule="nonzero" d="M164.1 20.6l7.5-7.3L158.5 0h-8.9l-2.4 11.4c-2 9.7 9.8 16.1 16.9 9.2z"/><path fill="#B7F2D4" fill-rule="nonzero" d="M3.1 23.9c-1-.4-2-.6-3.1-.7v51.9l9.2-14.8c1.9-5.3 3.3-10.7 3.6-16.4.4-7.9-2.3-17.2-9.7-20z"/><path fill="#FFD984" fill-rule="nonzero" d="M84.1 167.6c-8.9-2.1-17.8-1.1-25.6 2.4H85l-.9-2.4z"/><path fill="#FF6A36" fill-rule="nonzero" d="M151.2 162.5l-1.5 7.5h8.8z"/><path fill="#B7F2D4" fill-rule="nonzero" d="M343.7 162.6c-4.2-.5-8.4 1.5-11.4 4.3-1 .9-1.9 2-2.8 3.1h23.7c-1.9-3.9-5.2-6.9-9.5-7.4z"/><path fill="#CADFD4" fill-rule="nonzero" d="M353.1 18.6c-.1.3-.2.5-.3.8.1-.3.2-.5.3-.8z"/><path fill="#B7F2D4" fill-rule="nonzero" d="M387.4 26.1c-4 2.6-7.1 6.3-10.2 10 3-4.2 5.5-9.6 7-14.5 1.3-4.5 1.7-9.9-1.6-13.2-3.3-3.4-8.7-3.1-13.2-1.7-6.3 2-11.9 6-16 11.1v.1c0 .1-.1.3-.2.5 0 0 0 .1-.1.2-.1.3-.2.6-.3.8-.1.2-.1.3-.2.4-.1.3-.1.3 0 0 0-.1.1-.3.2-.4.1-.2.2-.5.3-.8 0 0 0-.1.1-.2.1-.2.1-.3.2-.5v-.1c1-2.4 1.7-4.9 1.9-7.5.3-3.5-.5-7.2-2.1-10.3h-23.7c-1.7 2.2-3.2 4.7-4.6 7.1-4 6.8-8 13.5-12 20.3-.4.6-.7 1.2-1.1 1.8l-.7 1.3c-6.9 12.2-12.7 27.9-18.4 40.6 17.9 10.3 36.9 16.7 56.5 23.3 10.1 3.4 20.5 6.3 30.1 11.1L398 75V23.2c-3.7-.4-7.5.8-10.6 2.9z"/><path fill="#CADFD4" fill-rule="nonzero" d="M352.8 19.3c-.1.2-.1.3-.2.4l.2-.4zm-.2.5c-.1.2-.1.3 0 0zm.8-2v0z"/><path d="M353.1 18.4c0 .1 0 .1-.1.2.1-.1.1-.2.1-.2zm.3-.6v.1-.1zm-.6 1.5c-.1.2-.1.3-.2.4l.2-.4z"/><path fill="#CADFD4" fill-rule="nonzero" d="M353.3 17.9c-.1.2-.1.3-.2.5.1-.2.2-.4.2-.5zm-.2.7c-.1.3-.2.6-.3.8.1-.3.2-.6.3-.8zm-.5 1.2c-.1.3-.1.2 0 0z"/><path fill="#3A3739" fill-rule="nonzero" d="M148.7 138.9c-6-9-12-17.9-18.1-26.9-9.7 10.9-21.1 20.3-33.7 27.8l15.6 27 36.2-27.9z"/><path fill="#FFD065" fill-rule="nonzero" d="M135.4 29.4L115.8 28l-13.9 63.7-41.4 34.2 1.1 3.7c5.7 18.9 28.7 26 44.1 13.6l27.8-16.4 1.9-97.4z"/><path fill="#FF6A36" fill-rule="nonzero" d="M328.2 126.2c-5.1-9.2-34.9-9.4-35.5-7.3l-8.1 32.2c.9 1 1.9 1.9 3 2.7 3.1 2.1 6.8 3.1 10.5 3.7 6.7 1.1 13.8.7 19.8-2.5s10.6-9.5 10.4-16.2c-.3-4.9 2.3-8.3-.1-12.6z"/><path fill="#006AD9" fill-rule="nonzero" d="M92.3 51.1l16.6 8.7s18 15.7 14.7 21.2c-1.9 3.2-14.6-1.5-14.6-1.5s8.5 8.7 8 11.4c-1.7 7.7-28.5 15.4-28.5 15.4L65.8 72.1c6.7-7.7 17.3-16.5 26.5-21z"/><path fill="#3A3739" fill-rule="nonzero" d="M262.3 46.8l-18.5-33.5 19.9 5.2 14.4-14.7 7.4 18.5z"/><path fill="#FFAC89" fill-rule="nonzero" d="M30.1 79.8l-7.7 56.9 10.9.4 20.3 9.5 45.2-43.7zM246.9 73.2c-1.8-27.1-3-45.7-17.5-57.6-11.1-9.1-29.6-14-41.7-6.6-1.8 1.1-6.4 4.3-13.7 24.4-7.4 20.4-12.8 35.1-11 55.5.6 7.3 2.1 21.6 11.2 36.5 5.7 9.3 15.5 25.2 31 26.2 18.2 1.2 31.4-19 33.8-22.7 10.5-16.4 9.4-33.1 7.9-55.7zM216 114.9c-4.5 6.8-11.4 13.5-19.6 12.8-5-.4-9.4-3.7-12.2-7.9-2.8-4.2-4.1-9.1-5-14-3.3-19.5 1.6-40.1 12.6-56.4 3.6-5.3 9-14.6 15.6-16.2 10.4-2.5 16.4 8.8 18.7 16.9 6.2 21.6 2.4 45.9-10.1 64.8z"/><path fill="#006AD9" fill-rule="nonzero" d="M390.6 142.4c-6.1-.9-12.4-1-18.6-.1-1.8 5.8-3.6 11.6-4.8 17.6-2.5-1.2-4.5-2.5-6.9-3.9-1.9-1.2-3.8-2.4-5.2-4.1-2.6-3-3.5-7.2-3.4-11.2.1-6.2 2.5-12.5 7-16.7 4.5-4.2 11.3-6.2 17.2-4.3 1.9.6 3.7 1.6 5.4 2.7 3.4 2.2 6.6 4.9 8.6 8.4 2.1 3.4 2.4 7.9.7 11.6z"/><path stroke="#3A3739" d="M224 99.2l68.4 32.9m46.8-85.7L226.7 49m2.1 26.5l127.1 6.6M74.6 26.7l116.7 21.6M33.4 101.4L179 80.7"/><path fill="#FFD065" fill-rule="nonzero" d="M349 55.4c-4.7-5.4-8.6-11.4-11.8-17.8.7 9.1 1.4 18.2 2 27.2 12.9-1.4 25.7-2.7 38.6-4.1-7.8-5.5-15.1-12.4-22.9-17.9-3.4 3.4-5.5 7.9-5.9 12.6z"/></g></svg>