<?xml version="1.0" encoding="utf-8"?>
<!-- Generator: Adobe Illustrator 24.2.1, SVG Export Plug-In . SVG Version: 6.00 Build 0)  -->
<svg version="1.1" id="Layer_1" xmlns="http://www.w3.org/2000/svg" xmlns:xlink="http://www.w3.org/1999/xlink" x="0px" y="0px"
	 viewBox="0 0 398 170" style="enable-background:new 0 0 398 170;" xml:space="preserve">
<style type="text/css">
	.st0{fill:none;}
	.st1{fill:#FF703D;}
	.st2{fill:#0068DA;}
	.st3{fill:#FFFFFF;}
	.st4{fill:#FFB08E;}
	.st5{fill:#B7F2D4;}
	.st6{fill:#FFD065;}
	.st7{fill:#3B3639;}
	.st8{fill:#FFDA85;}
</style>
<path class="st0" d="M0,161v9h124.5c0-3-0.1-6-0.1-9H0z"/>
<path class="st1" d="M1,37.1c0.9,0,1.9,0,2.8,0c0.7,0,1.5,0,2.2,0V24.8c-0.8,0-1.5,0-2.3,0c-1,0-2-0.2-3-0.2c-0.2,0-0.5,0-0.7,0V37
	C0.3,37.1,0.6,37.1,1,37.1z"/>
<path class="st2" d="M13.6,31.9c0.1,0.2,0.3,0.3,0.5,0.5c0.2,0.2,0.4,0.5,0.6,0.6c0.1,0,0.1,0.1,0.2,0.1c0.2,0.1,0.5,0.2,0.7,0.3
	c0.2,0.1,0.4,0.2,0.7,0.1c0.7,0,1.3-0.2,1.8-0.7c0.1-0.1,0.2-0.1,0.3-0.2c0,0,0-0.1,0.1-0.1c0,0,0.1-0.1,0.1-0.1
	c0.1-0.1,0.1-0.2,0.2-0.3c0.1-0.1,0.1-0.2,0.1-0.3c0.1-0.1,0.1-0.2,0.1-0.4c0-0.1,0-0.1,0-0.2c0-0.1,0-0.2,0-0.3c0-0.1,0-0.2,0-0.3
	c0-0.1,0-0.3-0.1-0.4c0,0,0,0,0,0c0,0,0,0,0,0c0-0.2-0.1-0.3-0.2-0.5c0,0,0,0,0-0.1c-0.4-0.8-1.1-1.4-2-1.5c-0.7-0.1-1.4,0.1-2,0.5
	c-0.3,0.2-0.5,0.5-0.7,0.8c0,0,0,0.1-0.1,0.1c-0.1,0.1-0.2,0.2-0.3,0.4c-0.1,0.2-0.1,0.3-0.1,0.5c0,0,0,0,0,0.1
	c-0.1,0.2,0,0.4-0.1,0.6c0,0.1,0,0.3,0,0.4C13.5,31.7,13.6,31.8,13.6,31.9z"/>
<path d="M7,24.7V17H6v7.8c0.2,0,0.3,0,0.5,0S6.8,24.7,7,24.7z"/>
<path d="M6,41h1v-4c-0.3,0-0.7,0-1,0V41z"/>
<path d="M7,37V24.7c-0.2,0-0.3,0-0.5,0s-0.3,0-0.5,0v12.3C6.3,37.1,6.7,37,7,37z"/>
<path class="st3" d="M247.9,19.2c1.2-1.4,1.2-2.8,0.3-4.1c-0.4-0.7-2-0.7-2.8-0.5c-2,0.4-3,3.7-1.3,5.2
	C245.1,20.7,247.1,20.2,247.9,19.2z"/>
<g>
	<path class="st1" d="M147.9,25.5l1-1.3c-0.5,0-1,0-1.5,0c-1.2,0-2.5,0-3.7,0v1.5L147.9,25.5z"/>
	<path class="st1" d="M189.9,24.2l1.6,1l-0.1-1c0,0-0.1,0-0.1,0C190.8,24.2,190.4,24.2,189.9,24.2z"/>
	<path class="st1" d="M124.6,24.4c-2.5,0.4-5,0.9-7.5,1.2c-1.8,0.2-3.7,0.4-5.5,0.5c-0.7,0-1.4,0-2.1,0.2c-0.2,0.1-0.4,0.1-0.7,0.1
		c-0.9-0.1-1.8-0.3-2.7-0.4c-0.6,0-1.2,0-1.9,0c-0.4,0-0.6-0.1-1-0.1c-0.4-0.1-0.7,0-1.1,0c-0.3,0-0.5-0.2-0.8-0.2
		c-0.3,0-0.6,0-0.8,0c-0.5,0-1.1,0-1.6,0c-2.3,0-4.5,0.2-6.7,0.2c-2.3,0-4.6,0-6.9,0c-3.6,0-7.3,0.1-11-0.2c-2.6-0.2-5.2,0.1-7.7,0
		c-1.9-0.1-3.8-0.4-5.7-0.4c-0.7,0-1.4-0.2-2.2-0.2c-1.6,0-3.2,0-4.8,0c-1,0-2,0-3,0c-0.3,0-0.5-0.1-0.8-0.2c-0.5-0.1-1.1,0-1.7,0
		c-0.7,0-1.3-0.2-2-0.2c-0.5,0-1,0-1.6-0.1c-1.7-0.3-3.4-0.3-5.1-0.3c-1.8,0-3.7,0-5.5,0c-0.8,0-1.7,0-2.5,0c-0.8,0-1.6,0.1-2.4,0.2
		c-3.7,0.2-7.5,0-11.2,0c-3.7,0-7.4,0.2-11.1,0.2V37c0.4,0,0.9,0,1.3-0.1c1.5-0.1,3-0.2,4.4-0.2c4,0,8.1,0,12.1,0c1.8,0,3.7,0,5.5,0
		c0.7,0,1.4,0,2.1,0c0.7,0,1.4-0.2,2.1-0.2c1.3,0,2.7,0,4,0c1.1,0,2.1,0,3.2,0c0.9,0,1.9,0.2,2.8,0.2c1.6,0,3.2,0,4.9,0
		c0.9,0,1.6-0.1,2.5-0.2c1-0.1,2-0.3,3-0.1c1.8,0.3,3.5,0.4,5.3,0.6c1.2,0.1,2.5,0.2,3.8,0.3c1.2,0.1,2.4,0.1,3.5,0.3
		c4.7,0.6,9.3,1,14,0.9c0.5,0,0.8-0.2,1.3-0.2c0.7,0,1.4,0,2.1,0c3.6,0,7.2,0,10.7-0.2c1.9-0.1,3.8-0.2,5.8-0.4
		c0.9-0.1,1.7-0.2,2.5-0.4c1-0.2,2.2-0.1,3.2,0.1c0.9,0.1,1.8,0,2.7,0c2.3,0,4.5,0.5,6.8,0.6c1,0,2.4,0.6,3.3-0.1
		c0.9-0.8,2.3-0.4,3.4-0.4c0.4,0,0.9,0,1.3-0.1C124.7,33.3,124.7,28.9,124.6,24.4z M19,31.3c0,0.1,0,0.1,0,0.2c0,0.1,0,0.2-0.1,0.4
		c-0.1,0.1-0.1,0.2-0.1,0.3c-0.1,0.1-0.1,0.2-0.2,0.3c0,0-0.1,0.1-0.1,0.1c0,0,0,0.1-0.1,0.1c-0.1,0.1-0.2,0.1-0.3,0.2
		c-0.5,0.4-1.1,0.7-1.8,0.7c-0.2,0.1-0.4,0-0.7-0.1c-0.2-0.1-0.5-0.2-0.7-0.3c-0.1,0-0.1-0.1-0.2-0.1c-0.3-0.1-0.4-0.4-0.6-0.6
		c-0.2-0.2-0.4-0.3-0.5-0.5c-0.1-0.1-0.1-0.2-0.2-0.3c0-0.1,0-0.3,0-0.4c0-0.2,0-0.4,0.1-0.6c0,0,0-0.1,0-0.1c0-0.2,0-0.3,0.1-0.5
		c0.1-0.2,0.2-0.3,0.3-0.4c0,0,0-0.1,0.1-0.1c0.2-0.3,0.4-0.6,0.7-0.8c0.6-0.4,1.3-0.6,2-0.5c0.9,0.1,1.7,0.7,2,1.5c0,0,0,0.1,0,0.1
		c0.1,0.2,0.1,0.3,0.2,0.5c0,0,0,0,0,0c0,0,0,0,0,0c0,0.1,0,0.3,0.1,0.4c0,0.1,0,0.2,0,0.3C19,31,19,31.1,19,31.3z"/>
</g>
<path class="st3" d="M165.9,162c0.3-0.3,0.5-0.7,0.7-1h-5.3c0.1,0.6,0.3,1.1,0.8,1.6C163.1,163.5,165.1,163,165.9,162z"/>
<path class="st0" d="M213.1,135.3c1.6-2.4,4-3.6,7.2-2.5c2.1,0.7,4.5,3.6,3.6,6.1c-1.3,3.9-7.6,4.5-9.7,1.5
	C213.3,139.2,212.2,136.5,213.1,135.3z M202.4,131l1.2,5.6l-3,7.1l-5.4,2.2l-4.6-1.3l-4.5-6l3.7-8.8l6.8-1.2L202.4,131z
	 M182.1,113.3c1.6-2.4,4-3.6,7.2-2.5c2.1,0.7,4.5,3.6,3.6,6.1c-1.3,3.9-7.6,4.5-9.7,1.5C182.3,117.2,181.2,114.5,182.1,113.3z
	 M174.5,131.4h3.1l0.4,1.8l3,3.7v3.8l-2.7,2.3v2.9c0,0-2.3,0-2.6,0l-1.1,0V131.4z M158.8,108.3l6.8-1.2l5.9,2.5l1.2,5.6l-3,7.1
	l-5.4,2.2l-4.6-1.3l-4.5-6L158.8,108.3z M144.5,108.9h3.1l0.4,1.8l3,3.7v3.8l-2.7,2.3v2.9c0,0-2.3,0-2.6,0l-1.1,0V108.9z
	 M143.7,131.4h4.6l3.7,5.1l9.1-0.7l3.6-4.8l4.2-0.1v16.5h-4.6l-3.7-5.1l-9.1,0.7l-3.6,4.8l-4.2,0.1V131.4z M150.9,162.6l-2.7,2.3
	v2.9c0,0-2.3,0-2.6,0l-1.1,0V161v-7.6h3.1l0.4,1.8l3,3.7v2.2V162.6z M169.6,166.7l-5.4,2.2l-4.6-1.3l-4.5-6l0.2-0.5l3.5-8.2l6.8-1.2
	l5.9,2.5l1.2,5.6L172,161L169.6,166.7z M193,161.5c-1.3,3.9-7.6,4.5-9.7,1.5c-0.4-0.5-0.7-1.2-1-2c-0.5-1.2-0.7-2.5-0.1-3.2
	c1.6-2.4,4-3.6,7.2-2.5c2,0.7,4.2,3.3,3.8,5.7C193.1,161.2,193,161.3,193,161.5z M224.8,165.9h-4.6l-3.7-5.1l-9.1,0.7l-3.6,4.8
	l-4.2,0.1V161v-11.1h4.6l3.7,5.1l2.9-0.2l6.1-0.5l3.6-4.8l4.2-0.1V165.9z"/>
<path class="st3" d="M165.9,117.6c1.2-1.4,1.2-2.8,0.3-4.1c-0.4-0.7-2-0.7-2.8-0.5c-2,0.4-3,3.7-1.3,5.2
	C163.1,119,165.1,118.5,165.9,117.6z"/>
<path class="st3" d="M196.9,139c1.2-1.4,1.2-2.8,0.3-4.1c-0.4-0.7-2-0.7-2.8-0.5c-2,0.4-3,3.7-1.3,5.2
	C194.1,140.5,196.1,140,196.9,139z"/>
<path class="st3" d="M166.2,157.9c-0.4-0.7-2-0.7-2.8-0.5c-1.4,0.3-2.3,2.1-2.1,3.6h5.3C167,160,166.8,158.9,166.2,157.9z"/>
<path class="st4" d="M231,88c-2.2,0-4.4,0-6.6,0c-0.6,0-1.3,0-1.9,0c-0.9,0-1.6,0.2-2.5,0.3c-2.2,0.1-4.5,0-6.7,0
	c-0.1,3.8-0.3,7.5-0.4,11.3c0.7,0,1.3,0.1,2,0c0.9-0.1,1.7-0.3,2.6-0.3c1.1,0,2.2,0,3.4,0c1,0,2,0,3,0c1.5,0,3,0.2,4.4,0.3
	c1.2,0,2.4,0.3,3.6,0.3c0-3.9,0-7.8,0-11.8C231.6,88,231.3,88,231,88z"/>
<path class="st4" d="M154.1,95.2l2.7-6.4l2.6-0.5c-1,0.1-2.1,0-3,0c-0.6,0-1.3-0.1-1.8,0c-0.8,0.1-1.4,0.3-2.3,0.3
	c-0.5,0-1.1,0-1.6,0c-0.8,0-1.5,0.1-2.3,0.3c-0.7,0.2-1.7,0-2.4,0c-0.7,0-1.4,0-2.2,0c-1.7,0-3.4,0-5.1,0c-0.5,0-1.1,0.1-1.7,0.1
	v10.8c1.8,0,3.5-0.1,5.3,0.1c0.8,0.1,1.5,0.3,2.3,0.3c1.2,0,2.4,0,3.6,0c1.1,0,2.2-0.3,3.3-0.3c1.6,0,3.3,0,4.9,0c0.5,0,1,0,1.5,0
	l-0.4-0.1L154.1,95.2z M150.9,95.9l-1.8,1.6v1.9c0,0-1.5,0-1.7,0l-0.8,0v-9.7h2.1l0.3,1.2l2,2.5V95.9z"/>
<path class="st4" d="M213.2,88.2c-1.7,0-3.5,0.1-5.2,0c-0.9,0-1.7-0.3-2.5-0.3c-0.7,0-1.4,0-2.1,0c-1.1,0-2.2,0-3.3,0
	c-1.9,0-3.8,0-5.7,0c-3.6,0-7.2,0-10.8,0c-1,0-2,0-3,0c-0.9,0-1.6-0.2-2.5-0.3c-1.6-0.1-3.3,0-4.9,0c-1.7,0-3.5-0.1-5.2,0
	c-0.8,0.1-1.6,0.3-2.4,0.3c-0.6,0-1.3,0-1.9,0c-0.5,0-0.9,0-1.4,0l4,1.7l0.9,4.1l-2.2,5.2l-1.9,0.8c0.3,0,0.5-0.1,0.7-0.1
	c2.1-0.5,4.6-0.2,6.8-0.2c2.7,0,5.5,0,8.2,0c1.4,0,2.7,0.4,4,0.6c2.2,0.2,4.5,0,6.7,0c3.8,0,7.6,0,11.4,0c2.1,0,4.3,0.2,6.4-0.2
	c0.6-0.1,1.2,0,1.9-0.1c0.6,0,1.3-0.2,1.9-0.3c0.7-0.1,1.4,0,2.1,0c0.1-3.8,0.3-7.5,0.4-11.3C213.3,88.2,213.2,88.2,213.2,88.2z
	 M182,95.2c-1,2.8-5.6,3.3-7.1,1.1c-0.7-1-1.5-3-0.8-3.8c1.2-1.8,3-2.6,5.3-1.8C180.9,91.2,182.6,93.3,182,95.2z"/>
<path class="st4" d="M135.3,88.8c-0.5-0.1-0.8-0.2-1.4-0.3c-0.7-0.1-1.3-0.3-2-0.3c-0.3,0-0.7-0.1-1,0c-0.3,0.1-0.5,0.2-0.8,0.3
	c-1,0.2-1.9,0-2.9,0.5c-0.5,0.2-0.4,0.1-0.5,0.6c-0.1,0.2,0,0.6,0,0.8c0,0.9,0.2,1.6,0.3,2.5c0.1,0.7,0.3,1.2,0.3,1.9
	c0,0.7,0.2,1,0.3,1.6c0.1,0.6,0,1.3,0,1.9c0,0.6,0.3,1,0.3,1.6c0.8,0.2,1.4-0.2,2.1-0.2c1.7-0.2,3.5,0,5.3,0c0.2,0,0.4,0,0.6,0V88.9
	C135.8,88.9,135.5,88.8,135.3,88.8z"/>
<path class="st4" d="M160.2,92.2c-1.4,0.3-2.2,2.7-1,3.8c0.8,0.7,2.2,0.3,2.8-0.4c0.9-1,0.9-2.1,0.2-3C162,92,160.9,92,160.2,92.2z"
	/>
<path d="M137,88.9V82h-1v6.9C136.3,88.9,136.7,88.9,137,88.9z"/>
<path d="M136,106h1v-6.3c-0.3,0-0.7,0-1,0V106z"/>
<path d="M136,88.9v10.8c0.3,0,0.7,0,1,0V88.9C136.7,88.9,136.3,88.9,136,88.9z"/>
<path class="st5" d="M179.3,90.7c-2.3-0.8-4.1,0-5.3,1.8c-0.7,0.8,0.2,2.8,0.8,3.8c1.5,2.2,6.2,1.8,7.1-1.1
	C182.6,93.3,180.9,91.2,179.3,90.7z"/>
<path class="st2" d="M161.6,88c0.2,0,0.3,0,0.5,0l-0.3-0.1l-2.4,0.4c0.2,0,0.5,0,0.7-0.1C160.7,88.1,161,88,161.6,88z"/>
<path class="st2" d="M160.5,99.8c-0.9,0-1.7,0-2.6,0l2.9,0.9l2-0.8C162.1,99.9,161.3,99.8,160.5,99.8z"/>
<path class="st2" d="M167,93.8l-0.9-4.1l-4-1.7c-0.2,0-0.3,0-0.5,0c-0.6,0-1,0.1-1.5,0.3c-0.2,0-0.4,0.1-0.7,0.1l-2.6,0.5l-2.7,6.4
	l3.3,4.4l0.4,0.1c0.9,0,1.7,0,2.6,0c0.7,0,1.6,0.1,2.3,0l1.9-0.8L167,93.8z M162.1,95.6c-0.6,0.7-2,1.1-2.8,0.4
	c-1.2-1.1-0.5-3.5,1-3.8c0.6-0.1,1.8-0.1,2.1,0.4C162.9,93.5,163,94.6,162.1,95.6z"/>
<path class="st6" d="M148.6,89.7h-2.1v9.7l0.8,0c0.2,0,1.7,0,1.7,0v-1.9l1.8-1.6v-2.6l-2-2.5L148.6,89.7z"/>
<polygon class="st1" points="151.5,143 160.5,142.3 164.2,147.4 168.8,147.4 168.8,130.9 164.6,131 161.1,135.8 152,136.5 
	148.3,131.4 143.7,131.4 143.7,148 147.9,147.8 "/>
<path class="st5" d="M193,117c0.8-2.5-1.5-5.4-3.6-6.1c-3.2-1.1-5.6,0.1-7.2,2.5c-0.9,1.2,0.2,3.9,1.2,5.2
	C185.3,121.5,191.7,120.9,193,117z"/>
<path class="st5" d="M220.3,132.9c-3.2-1.1-5.6,0.1-7.2,2.5c-0.9,1.2,0.2,3.9,1.2,5.2c2.1,3,8.4,2.4,9.7-1.5
	C224.8,136.5,222.5,133.6,220.3,132.9z"/>
<path class="st2" d="M164.2,124.4l5.4-2.2l3-7.1l-1.2-5.6l-5.9-2.5l-6.8,1.2l-3.7,8.8l4.5,6L164.2,124.4z M163.4,112.9
	c0.9-0.2,2.4-0.2,2.8,0.5c0.9,1.3,0.9,2.8-0.3,4.1c-0.8,0.9-2.8,1.5-3.8,0.5C160.4,116.6,161.4,113.3,163.4,112.9z"/>
<path class="st6" d="M148.2,123.4v-2.9l2.7-2.3v-3.8l-3-3.7l-0.4-1.8h-3.1v14.5l1.1,0C145.9,123.4,148.2,123.4,148.2,123.4z"/>
<path class="st2" d="M208.6,161h-8.9v5.5l4.2-0.1l3.6-4.8l9.1-0.7l3.7,5.1h4.6v-16.5l-4.2,0.1l-3.6,4.8l-6.1,0.5
	c0,1.3-0.1,2.7-0.1,4C210,159.7,209.4,160.2,208.6,161z"/>
<path class="st2" d="M204.3,149.9h-4.6V161h8.9c0.9-0.8,1.4-1.3,2.2-2.2c0-1.4,0.1-2.7,0.1-4L208,155L204.3,149.9z"/>
<path class="st5" d="M183.2,163c2.1,3,8.4,2.4,9.7-1.5c0.1-0.2,0.1-0.3,0.1-0.5h-10.9C182.5,161.8,182.9,162.5,183.2,163z"/>
<path class="st5" d="M189.3,155.3c-3.2-1.1-5.6,0.1-7.2,2.5c-0.6,0.7-0.3,2,0.1,3.2h10.9C193.5,158.6,191.3,156,189.3,155.3z"/>
<path class="st2" d="M165.9,162c-0.8,0.9-2.8,1.5-3.8,0.5c-0.5-0.4-0.7-1-0.8-1.6h-6l-0.2,0.5l4.5,6l4.6,1.3l5.4-2.2l2.4-5.7h-5.4
	C166.4,161.3,166.2,161.7,165.9,162z"/>
<path class="st2" d="M171.4,154l-5.9-2.5l-6.8,1.2l-3.5,8.2h6c-0.2-1.5,0.7-3.3,2.1-3.6c0.9-0.2,2.4-0.2,2.8,0.5
	c0.6,1,0.8,2.1,0.4,3.1h5.4l0.6-1.4L171.4,154z"/>
<path class="st2" d="M186.1,138.5l4.5,6l4.6,1.3l5.4-2.2l3-7.1l-1.2-5.6l-5.9-2.5l-6.8,1.2L186.1,138.5z M194.4,134.4
	c0.9-0.2,2.4-0.2,2.8,0.5c0.9,1.3,0.9,2.8-0.3,4.1c-0.8,0.9-2.8,1.5-3.8,0.5C191.4,138.1,192.4,134.8,194.4,134.4z"/>
<path class="st6" d="M144.5,167.9l1.1,0c0.3,0,2.6,0,2.6,0V165l2.7-2.3V161h-6.5V167.9z"/>
<polygon class="st6" points="147.9,155.1 147.6,153.4 144.5,153.4 144.5,161 150.9,161 150.9,158.8 "/>
<path class="st6" d="M178.2,145.8V143l2.7-2.3v-3.8l-3-3.7l-0.4-1.8h-3.1v14.5l1.1,0C175.9,145.9,178.2,145.8,178.2,145.8z"/>
<polygon class="st7" points="202.9,24.1 212.9,24.1 218.2,23.3 222.7,19.9 221,16 214.8,19.2 218.8,12.1 211.1,14.9 211.1,10.6 
	197.6,10.9 197.7,18.3 "/>
<polygon class="st6" points="181.7,18.7 184.7,20.9 191.5,25.2 190.3,15 188.6,10 174.9,13.9 175.9,19.2 "/>
<polygon class="st4" points="151.5,20.7 160.5,20 164.2,25.1 168.8,25.1 168.8,8.6 164.6,8.7 161.1,13.5 152,14.2 148.3,9.1 
	143.7,9.1 143.7,25.7 147.9,25.5 "/>
<path class="st5" d="M275,18.7c0.8-2.5-1.5-5.4-3.6-6.1c-3.2-1.1-5.6,0.1-7.2,2.5c-0.9,1.2,0.2,3.9,1.2,5.2
	C267.3,23.2,273.7,22.6,275,18.7z"/>
<path class="st2" d="M246.2,26.1l5.4-2.2l3-7.1l-1.2-5.6l-5.9-2.5l-6.8,1.2l-3.7,8.8l4.5,6L246.2,26.1z M245.4,14.6
	c0.9-0.2,2.4-0.2,2.8,0.5c0.9,1.3,0.9,2.8-0.3,4.1c-0.8,0.9-2.8,1.5-3.8,0.5C242.4,18.3,243.4,15,245.4,14.6z"/>
<path class="st6" d="M230.2,25v-2.9l2.7-2.3V16l-3-3.7l-0.4-1.8h-3.1v14.5l1.1,0C227.9,25.1,230.2,25,230.2,25z"/>
<path class="st5" d="M312.3,93.2c1.3,0.8,2.9,1.6,4.3,2.4c-1.2,1.1-2.2,2.8-3.2,4.2c0.4,0.2,0.8,0.4,1.1,0.6c1.2,0,2.4,0,3.6,0
	c1.2,0,2.4,0.3,3.6,0.3c0.5,0,1.1,0,1.6,0c-0.6-0.5-1.1-1-1.5-1.7c-1.7-2.4-3.8-7.1-3-9.9c-1.2,0-2.3-0.1-3.4,0.2
	c-0.3,0.1-0.7,0.1-1,0.1c0.6,0.4,1.3,0.8,2.1,1C315.3,91.2,313.6,92.3,312.3,93.2z"/>
<path class="st5" d="M389,34c-0.4-4.3-0.7-8.5-1.1-12.7c-4.7,1.3-9.7,1.1-14.6,0.9c-48.1-2.4-94.7-2.9-142.8-5.3
	c0.6,18.5,1,37.4,1.2,56.3c0.1,5,0.1,9.9,0.1,14.8c0,3.9,0,7.9,0,11.8c0,0.6,0,1.2,0,1.8c0.2,0.2,2.3,35.3,2.5,35.5H370h21L389,34z
	 M242.4,71.6c1.5-0.5,3-1.8,4.2-2.8c-1.6-0.8-2.9-1.8-4.5-2.6c1.3-0.8,2.7-2.1,4-2.8c-0.8-1.1-1.2-3-2.2-4c10.6,0.9,21.1,1.2,31.7,1
	c-0.7,0.6-1.9,2.2-2.6,2.9c1.1,0.9,2.2,1.7,3.5,2.1c-1.3,0.9-2.9,1.9-4.3,2.8c1.3,0.8,2.9,1.6,4.3,2.4c-0.6,0.6-1.2,1.3-1.7,2
	c-0.5,0.7-1,1.5-1.5,2.1c1.2,0.5,2.1,1.2,3.3,1.8c-11.5,0.9-23.1,1.1-34.2,0.7c1.5-0.6,2.4-1.1,3.7-2.1c-0.8-0.6-1.5-1.4-2.3-2.1
	C243.4,72.4,242.9,72,242.4,71.6z M279.5,63c3.4-5.1,8.5-7.5,15.3-5.2c4.5,1.5,9.5,7.7,7.7,13c-0.2,0.5-0.4,1-0.6,1.4
	c-3.7,6.9-15.8,7.7-19.9,1.7c-0.3-0.4-0.6-0.9-0.9-1.4C279.3,69.5,277.8,65.1,279.5,63z M316.7,101.5c-11.5,0.9-23.1,1.1-34.2,0.7
	c1.3-0.5,2.2-1,3.3-1.8c0.1-0.1,0.3-0.2,0.5-0.3c-1.3-1-2.6-2.5-3.8-3.4c1.5-0.5,3-1.8,4.2-2.8c-1.6-0.8-2.9-1.8-4.5-2.6
	c1.3-0.8,2.7-2.1,4-2.8c-0.1-0.1-0.2-0.3-0.3-0.4c-0.6-1.1-1-2.7-1.9-3.6c10.6,0.9,21.1,1.2,31.7,1c-0.7,0.6-1.9,2.2-2.6,2.9
	c0.5,0.4,0.9,0.8,1.4,1.1c0.3,0,0.7,0,1-0.1c1.1-0.3,2.3-0.2,3.4-0.2c0.1-0.4,0.3-0.8,0.5-1.1c3.4-5.1,8.5-7.5,15.3-5.2
	c2.3,0.8,4.8,2.8,6.4,5.3c0.4,0,0.9,0,1.2,0.1c1.5,0.4,0.5,4.1,0.7,5.3c0.3,1.3,0.2,2.5,0.2,3.8c0,0.6,0,1.1,0,1.7
	c0,0.3,0.1,1.1,0,1.3c-0.2,0.2-1.1,0-1.3,0c0,0-0.1,0-0.1,0c-0.5,0-1,0-1.6,0.1c-0.6,0.2-1.1,0.2-1.7,0.3c-4.5,3-11.2,3-15.1-0.1
	c-0.5,0-1.1,0-1.6,0c-1.2,0-2.4-0.3-3.6-0.3c-1.2,0-2.4,0-3.6,0C315.3,100.7,315.9,101.1,316.7,101.5z M244,100
	c-0.1-0.1-0.2-0.2-0.3-0.3c-1.2-1-2.4-2.3-3.5-3.2c1.5-0.5,3-1.8,4.2-2.8c-1.6-0.8-2.9-1.8-4.5-2.6c1.3-0.8,2.7-2.1,4-2.8
	c0,0,0-0.1-0.1-0.1c-0.8-1.1-1.2-3-2.1-3.9c10.6,0.9,21.1,1.2,31.7,1c-0.5,0.4-1.3,1.4-1.9,2.1c-0.3,0.3-0.5,0.5-0.7,0.7
	c1.1,0.9,2.2,1.7,3.5,2.1c-1.3,0.9-2.9,1.9-4.3,2.8c1.3,0.8,2.9,1.6,4.3,2.4c-1.2,1.1-2.2,2.8-3.2,4.2c0.4,0.2,0.8,0.4,1.1,0.6
	c0.7,0.4,1.3,0.8,2.1,1.2c-11.5,0.9-23.1,1.1-34.2,0.7C241.8,101.6,242.7,101,244,100z M242.5,129.2c1.5-0.6,2.4-1.1,3.7-2.1
	c-1.3-1-2.6-2.5-3.8-3.4c1.5-0.5,3-1.8,4.2-2.8c-1.6-0.8-2.9-1.8-4.5-2.6c1.3-0.8,2.7-2.1,4-2.8c-0.8-1.1-1.2-3-2.2-4
	c10.6,0.9,21.1,1.2,31.7,1c-0.7,0.6-1.9,2.2-2.6,2.9c1.1,0.9,2.2,1.7,3.5,2.1c-1.3,0.9-2.9,1.9-4.3,2.8c1.3,0.8,2.9,1.6,4.3,2.4
	c-1.2,1.1-2.2,2.8-3.2,4.2c1.2,0.5,2.1,1.2,3.3,1.8C265.2,129.4,253.6,129.6,242.5,129.2z M302.4,122.8c-2.8,8.2-16.1,9.5-20.5,3.1
	c-1.9-2.8-4.4-8.5-2.4-10.9c3.4-5.1,8.5-7.5,15.3-5.2C299.3,111.3,304.2,117.5,302.4,122.8z M310.3,129.2c1.5-0.6,2.4-1.1,3.7-2.1
	c-1.3-1-2.6-2.5-3.8-3.4c1.5-0.5,3-1.8,4.2-2.8c-1.6-0.8-2.9-1.8-4.5-2.6c1.3-0.8,2.7-2.1,4-2.8c-0.8-1.1-1.2-3-2.2-4
	c10.6,0.9,21.1,1.2,31.7,1c-0.7,0.6-1.9,2.2-2.6,2.9c1.1,0.9,2.2,1.7,3.5,2.1c-1.3,0.9-2.9,1.9-4.3,2.8c1.3,0.8,2.9,1.6,4.3,2.4
	c-1.2,1.1-2.2,2.8-3.2,4.2c1.2,0.5,2.1,1.2,3.3,1.8C333,129.4,321.4,129.6,310.3,129.2z M375.4,122.8c-0.9,2.7-2.9,4.6-5.4,5.8
	c-5.1,2.4-12.1,1.6-15.1-2.7c-1.9-2.8-4.4-8.5-2.4-10.9c3.4-5.1,8.5-7.5,15.3-5.2c0.8,0.3,1.5,0.7,2.3,1.1
	C373.7,113.4,376.9,118.4,375.4,122.8z M377.5,38.7c0,1.1,0,2.2,0,3.4c0,0.7,0,1.4-0.2,1.9c-0.2,0.5-0.7,0.9-1.7,0.9
	c-1.4,0-2.8,0-4.3,0c-1.3,0-2.6-0.3-3.9-0.3c-2.8-0.1-5.7-0.3-8.5-0.7c-1.1-0.1-1.9-0.3-3-0.3c-1.4,0-2.8,0.3-4.2,0.3
	c-1.6,0-3.2,0-4.8,0c-1.1,0-2.3,0-3.4,0c-0.7,0-1.5-0.1-2.2,0.1c-0.3,0.1-0.5,0.2-0.8,0.2c-0.3,0-0.5,0.1-0.8,0.2
	c-0.4,0.1-0.9,0.3-1.3,0.4c-0.8,0.2-1.6,0.2-2.4,0.2c-1,0-2,0.2-3,0.3c-1.9,0.1-3.8,0-5.6,0c-1.2,0-2.4-0.1-3.6,0
	c-0.8,0-1.5,0.2-2.3,0.3c-1.6,0.1-3.2,0-4.9,0c-1.8,0-3.4-0.2-5.2-0.5c-1.4-0.2-2.9-0.1-4.4-0.1c-1.8,0-3.6,0-5.5,0
	c-1.4,0-2.7-0.2-4-0.3c-3-0.1-6-0.8-9-0.8c-3.1,0-6.1,0-9.2,0c-0.8,0-1.5,0-2.3-0.2c-0.5-0.1-1-0.1-1.5-0.1c-0.6,0-1.1-0.2-1.8-0.3
	c-0.8,0-1.7,0-2.5,0c-1.9,0-4.1-0.3-6,0.1c-1.8,0.4-3.6,0.5-5.4,0.8c-1.7,0.3-3.2,0.4-4.9,0.4c-1.4,0-2.7,0-4.1,0
	c-1.3,0-2.6,0.1-3.9,0V51h-1v-6.5c-0.4-0.1-0.8-0.1-1.2-0.2c-2-0.5-4.2-0.7-6.3-0.5c-0.7,0.1-1.8,0.4-2.4,0.1
	c-1.7-0.6-1.5-3.8-1.3-5.1c0.2-1,0.6-1.9,0.9-2.8c0.3-1.1-0.1-1.3,0.9-1.4c0.3,0,0.4-0.2,0.6-0.2c0.6-0.1,1.2,0,1.9,0
	c1.3-0.1,2.4-0.8,3.7-0.8c1.1,0,2.2,0,3.3,0V27h1v6.5c1,0,2,0,2.9,0c1,0,2-0.3,3-0.3c1.1,0,2.3,0.1,3.4,0c0.9-0.1,1.7-0.2,2.6-0.2
	c1,0,1.9,0,2.9,0c2.6,0,5.3-0.1,7.9,0.4c0.7,0.1,1.4,0.1,2.2,0.1c0.6,0,1.2,0.2,1.8,0.3c1.3,0.1,2.7,0,4.1,0c2.3,0,4.6,0,7,0
	c10.2,0,20.5,0,30.7,0c1.3,0,2.7,0.1,4,0c1.1-0.1,2.2-0.2,3.4-0.2c1.2,0,2.3,0,3.5,0c1.4,0,2.7-0.3,4.1-0.3c1.9,0,3.8-0.3,5.7-0.3
	c1.6,0,3.3,0,4.9,0c1.8,0,3.5-0.5,5.3-0.2c3.5,0.5,7.2,1.4,10.8,0.8c0.7-0.1,1.5,0,2.2,0c0.8,0,1.6-0.2,2.4-0.3
	c2.3-0.1,4.4,0.1,6.6,0.5c1.9,0.3,3.8,0.2,5.7,0.2c0.8,0,1.6,0.1,2.5,0.1c0.8,0,0.9,0.2,0.9,1C377.5,36.4,377.5,37.5,377.5,38.7z"/>
<path class="st5" d="M342.4,95.8c-0.7,2.1-2.1,3.8-3.9,4.9c0.5,0,1.1-0.1,1.7-0.3c0.5-0.1,1-0.1,1.6-0.1c0,0,0.1,0,0.1,0
	c0.3,0,1.1,0.2,1.3,0c0.2-0.2,0-1,0-1.3c0-0.6,0-1.1,0-1.7c0-1.3,0-2.6-0.2-3.8c-0.2-1.1,0.8-4.8-0.7-5.3c-0.3-0.1-0.8-0.1-1.2-0.1
	C342.6,90.5,343.3,93.2,342.4,95.8z"/>
<path class="st2" d="M244.8,44.2c0.4,0.1,0.8,0.2,1.2,0.2V33.5c-1.1,0-2.2,0-3.3,0c-1.3,0-2.4,0.7-3.7,0.8c-0.6,0.1-1.3-0.1-1.9,0
	c-0.2,0-0.3,0.2-0.6,0.2c-1,0.1-0.6,0.3-0.9,1.4c-0.3,1-0.7,1.9-0.9,2.8c-0.3,1.3-0.4,4.5,1.3,5.1c0.7,0.3,1.7-0.1,2.4-0.1
	C240.6,43.6,242.8,43.7,244.8,44.2z"/>
<path class="st2" d="M250.9,44.6c1.4,0,2.7,0,4.1,0c1.7,0,3.2-0.2,4.9-0.4c1.8-0.3,3.6-0.4,5.4-0.8c1.9-0.4,4.1-0.1,6-0.1
	c0.8,0,1.7,0,2.5,0c0.6,0,1.1,0.3,1.8,0.3c0.5,0,1-0.1,1.5,0.1c0.8,0.2,1.5,0.2,2.3,0.2c3.1,0,6.1,0,9.2,0c3,0,6,0.7,9,0.8
	c1.3,0,2.6,0.3,4,0.3c1.8,0,3.6,0,5.5,0c1.4,0,2.9-0.1,4.4,0.1c1.8,0.2,3.4,0.5,5.2,0.5c1.6,0,3.2,0.1,4.9,0c0.8,0,1.5-0.2,2.3-0.3
	c1.2-0.1,2.4,0,3.6,0c1.9,0,3.8,0.1,5.6,0c1,0,2-0.2,3-0.3c0.9,0,1.6,0,2.4-0.2c0.4-0.1,0.9-0.2,1.3-0.4c0.3-0.1,0.4-0.2,0.8-0.2
	c0.4,0,0.6-0.1,0.8-0.2c0.7-0.2,1.5-0.1,2.2-0.1c1.1,0,2.3,0,3.4,0c1.6,0,3.2,0,4.8,0c1.4,0,2.8-0.3,4.2-0.3c1.1,0,1.9,0.2,3,0.3
	c2.8,0.4,5.7,0.6,8.5,0.7c1.3,0,2.6,0.3,3.9,0.3c1.4,0,2.8,0,4.3,0c1,0,1.5-0.3,1.7-0.9c0.2-0.5,0.2-1.2,0.2-1.9c0-1.1,0-2.2,0-3.4
	c0-1.2,0-2.3,0-3.5c0-0.8-0.1-1-0.9-1c-0.8,0-1.6-0.1-2.5-0.1c-1.9,0-3.8,0.1-5.7-0.2c-2.2-0.4-4.4-0.6-6.6-0.5
	c-0.8,0-1.6,0.3-2.4,0.3c-0.7,0-1.5-0.1-2.2,0c-3.6,0.7-7.3-0.3-10.8-0.8c-1.8-0.3-3.5,0.2-5.3,0.2c-1.6,0-3.3,0-4.9,0
	c-1.9,0-3.8,0.3-5.7,0.3c-1.4,0-2.7,0.3-4.1,0.3c-1.2,0-2.3,0-3.5,0c-1.2,0-2.2,0.1-3.4,0.2c-1.3,0.1-2.7,0-4,0
	c-10.2,0-20.5,0-30.7,0c-2.3,0-4.6,0-7,0c-1.4,0-2.7,0.1-4.1,0c-0.6,0-1.2-0.3-1.8-0.3c-0.7,0-1.4,0-2.2-0.1
	c-2.6-0.4-5.2-0.4-7.9-0.4c-1,0-1.9,0-2.9,0c-0.9,0-1.7,0.1-2.6,0.2c-1.1,0.2-2.3,0-3.4,0c-1,0-2,0.3-3,0.3c-1,0-2,0-2.9,0v11
	C248.3,44.6,249.6,44.6,250.9,44.6z M266,36.1c1.4-2,3.4-3,6.1-2.1c1.8,0.6,3.8,3.1,3.1,5.2c-1.1,3.3-6.4,3.8-8.2,1.3
	C266.2,39.4,265.2,37.1,266,36.1z M250.8,35.7c4.2,0.4,8.5,0.5,12.7,0.4c-0.3,0.2-0.8,0.9-1.1,1.1c0.4,0.4,0.9,0.7,1.4,0.8
	c-0.5,0.4-1.2,0.8-1.7,1.1c0.5,0.3,1.2,0.6,1.7,1c-0.5,0.5-0.9,1.1-1.3,1.7c0.5,0.2,0.8,0.5,1.3,0.7c-4.6,0.4-9.3,0.4-13.7,0.3
	c0.6-0.2,1-0.5,1.5-0.9c-0.5-0.4-1-1-1.5-1.4c0.6-0.2,1.2-0.7,1.7-1.1c-0.6-0.3-1.2-0.7-1.8-1c0.5-0.3,1.1-0.8,1.6-1.1
	C251.3,36.8,251.2,36.1,250.8,35.7z"/>
<path d="M246,51h1v-6.4c-0.3,0-0.7-0.1-1-0.1V51z"/>
<path d="M247,33.5V27h-1v6.5C246.3,33.5,246.7,33.5,247,33.5z"/>
<path d="M247,44.6v-11c-0.3,0-0.7,0-1,0v10.9C246.3,44.5,246.7,44.5,247,44.6z"/>
<path class="st1" d="M251.8,39.4c-0.5,0.4-1.1,0.9-1.7,1.1c0.5,0.4,1,1,1.5,1.4c-0.5,0.4-0.9,0.6-1.5,0.9c4.4,0.2,9.1,0.1,13.7-0.3
	c-0.5-0.2-0.8-0.5-1.3-0.7c0.4-0.6,0.8-1.2,1.3-1.7c-0.5-0.3-1.2-0.6-1.7-1c0.5-0.4,1.2-0.8,1.7-1.1c-0.5-0.2-1-0.5-1.4-0.8
	c0.3-0.2,0.8-0.9,1.1-1.1c-4.2,0.1-8.5-0.1-12.7-0.4c0.4,0.4,0.5,1.2,0.9,1.6c-0.5,0.3-1.1,0.8-1.6,1.1
	C250.7,38.7,251.2,39.1,251.8,39.4z"/>
<path class="st7" d="M275.2,39.2c0.7-2.1-1.3-4.6-3.1-5.2c-2.7-0.9-4.7,0.1-6.1,2.1c-0.8,1,0.2,3.3,1,4.4
	C268.7,43.1,274.1,42.5,275.2,39.2z"/>
<path class="st1" d="M291.6,88.5c0.9,0.2,1.7,0,2.6,0c1.4,0.1,2.9,0.5,4.3,0.6c1.8,0.1,3.6,0.3,5.5,0.3c1.9,0,3.9-0.1,5.8,0
	c0.8,0,1.4,0.3,2.2,0.3c0.3,0,0.5,0,0.8,0c0.4,0,0.6-0.1,0.9-0.2c0.3-0.1,0.5-0.1,0.8-0.1c-0.5-0.3-1-0.7-1.4-1.1
	c0.7-0.6,1.9-2.2,2.6-2.9c-10.6,0.2-21.2-0.1-31.7-1c0.8,0.9,1.2,2.4,1.9,3.6c0.9,0.1,1.9,0.1,2.8,0.3
	C289.6,88.3,290.6,88.3,291.6,88.5z"/>
<path class="st1" d="M310.7,100.3c-1.1-0.1-2.1-0.5-3.2-0.6c-1.7-0.2-3.5-0.3-5.2-0.5c-0.6-0.1-1-0.3-1.6-0.3c-0.4,0-0.8,0-1.3,0
	c-0.9,0-1.7,0.1-2.6,0.3c-0.5,0.1-0.9,0-1.4,0.1c-0.5,0.1-0.8,0.2-1.4,0.2c-0.9,0-1.9-0.1-2.8,0c-0.8,0.1-1.4,0.2-2.1,0.2
	c-0.6,0-1.2,0.4-1.8,0.5c-0.5,0.1-1.1,0.1-1.6,0.1c-1.1,0.8-1.9,1.3-3.3,1.8c11.1,0.4,22.7,0.2,34.2-0.7c-0.8-0.3-1.4-0.8-2.1-1.2
	c-0.6,0-1.2,0-1.7,0C312.1,100.3,311.4,100.4,310.7,100.3z"/>
<path class="st1" d="M282.1,91.2c1.6,0.8,2.9,1.8,4.5,2.6c-1.2,1.1-2.7,2.3-4.2,2.8c1.3,1,2.6,2.5,3.8,3.4c-0.2,0.1-0.3,0.2-0.5,0.3
	c0.6,0,1.1,0,1.6-0.1c0.6-0.1,1.2-0.5,1.8-0.5c0.8,0,1.4-0.1,2.1-0.2c0.9-0.1,1.9,0,2.8,0c0.5,0,0.9-0.1,1.4-0.2
	c0.4-0.1,0.9,0,1.4-0.1c0.9-0.1,1.7-0.3,2.6-0.3c0.4,0,0.8,0,1.3,0c0.6,0,1.1,0.2,1.6,0.3c1.7,0.2,3.5,0.3,5.2,0.5
	c1.1,0.1,2.1,0.5,3.2,0.6c0.7,0.1,1.4,0,2.1,0c0.6,0,1.2,0,1.7,0c-0.4-0.2-0.7-0.4-1.1-0.6c0.9-1.4,2-3,3.2-4.2
	c-1.3-0.8-2.9-1.6-4.3-2.4c1.3-0.9,2.9-1.9,4.3-2.8c-0.8-0.2-1.5-0.6-2.1-1c-0.3,0-0.6,0-0.8,0.1c-0.3,0.1-0.5,0.2-0.9,0.2
	c-0.3,0-0.5,0-0.8,0c-0.8,0-1.4-0.2-2.2-0.3c-1.9-0.1-3.9,0-5.8,0c-1.8,0-3.7-0.2-5.5-0.3c-1.5,0-2.9-0.5-4.3-0.6
	c-0.9-0.1-1.7,0.1-2.6,0c-1-0.2-1.9-0.1-3-0.3c-0.9-0.1-1.9-0.2-2.8-0.3c0.1,0.2,0.2,0.3,0.3,0.4C284.8,89.1,283.4,90.4,282.1,91.2z
	"/>
<path class="st6" d="M266.6,100c-1.2-0.1-2.4-0.5-3.6-0.6c-0.8,0-1.6,0-2.3,0c-0.5,0-1.1-0.1-1.6,0c-0.3,0.1-0.5,0.2-0.8,0.3
	c-0.6,0.1-1.4,0-2.1,0c-2.3,0-4.5,0-6.8,0c-1.3,0-2.5,0-3.8,0c-0.6,0-1.2,0-1.8,0c-0.1,0-0.1,0-0.2,0c0.1,0.1,0.2,0.2,0.3,0.3
	c-1.3,1-2.2,1.5-3.7,2.1c11.1,0.4,22.7,0.2,34.2-0.7c-0.8-0.3-1.4-0.8-2.1-1.2c-1,0-2,0-3-0.2C268.5,99.9,267.5,100.1,266.6,100z"/>
<path class="st6" d="M247.5,88.5c0.8,0.1,1.9,0,2.7,0c1.1,0,2.2,0,3.3,0c1.1,0,2.2,0,3.3,0c0.8,0,1.6,0,2.4,0c1,0,1.9-0.2,2.8-0.3
	c0.7,0,1.4-0.3,2.1-0.3c0.8,0,0.5,0,1-0.2c0.3-0.1,0.3-0.3,0.7-0.4c0.2,0,0.4,0,0.6,0c0.6,0,1.3,0,1.9,0c0.6,0,1.2,0,1.9,0
	c0.5,0,0.9,0.1,1.4,0.1c0.7-0.7,1.5-1.7,1.9-2.1c-10.6,0.2-21.2-0.1-31.7-1c0.9,0.9,1.3,2.8,2.1,3.9c0.3,0,0.6,0,0.9,0
	C245.8,88.2,246.6,88.4,247.5,88.5z"/>
<path class="st6" d="M239.9,91.2c1.6,0.8,2.9,1.8,4.5,2.6c-1.2,1.1-2.7,2.3-4.2,2.8c1.2,0.9,2.4,2.2,3.5,3.2c0.1,0,0.1,0,0.2,0
	c0.6,0,1.2,0,1.8,0c1.3,0,2.5,0,3.8,0c2.3,0,4.5,0,6.8,0c0.7,0,1.4,0.1,2.1,0c0.3,0,0.5-0.2,0.8-0.3c0.5-0.1,1.1,0,1.6,0
	c0.8,0,1.6-0.1,2.3,0c1.2,0.1,2.4,0.5,3.6,0.6c0.9,0.1,1.9-0.1,2.8,0c1,0.2,2,0.2,3,0.2c-0.4-0.2-0.7-0.4-1.1-0.6
	c0.9-1.4,2-3,3.2-4.2c-1.3-0.8-2.9-1.6-4.3-2.4c1.3-0.9,2.9-1.9,4.3-2.8c-1.4-0.4-2.4-1.1-3.5-2.1c0.2-0.2,0.4-0.4,0.7-0.7
	c-0.4-0.1-0.9-0.1-1.4-0.1c-0.6,0-1.2,0-1.9,0c-0.6,0-1.3,0-1.9,0c-0.2,0-0.4,0-0.6,0c-0.4,0.1-0.4,0.3-0.7,0.4
	c-0.5,0.2-0.2,0.2-1,0.2c-0.7,0-1.4,0.3-2.1,0.3c-0.9,0-1.8,0.3-2.8,0.3c-0.8,0-1.6,0-2.4,0c-1.1,0-2.2,0-3.3,0c-1.1,0-2.2,0-3.3,0
	c-0.9,0-1.9,0.2-2.7,0c-1-0.2-1.7-0.3-2.7-0.3c-0.3,0-0.6,0-0.9,0c0,0,0,0.1,0.1,0.1C242.6,89.1,241.2,90.4,239.9,91.2z"/>
<path class="st7" d="M323.2,89c1.4-0.4,2.9-0.8,4.4-0.8c1.6,0,3.3-0.9,4.8-0.5c0.6,0.2,1,0.5,1.7,0.5c0.6,0,1.3,0,1.9,0
	c1.2,0,2.3,0,3.5,0c0.4,0,1-0.1,1.6-0.1c-1.6-2.5-4-4.5-6.4-5.3c-6.7-2.3-11.8,0.1-15.3,5.2c-0.2,0.3-0.4,0.7-0.5,1.1
	c0.1,0,0.1,0,0.2,0C320.4,89.1,322,89.3,323.2,89z"/>
<path class="st7" d="M337.1,100.7c-1.2-0.1-2.5,0.1-3.8,0.1c-1.3,0-2.4-0.1-3.6-0.3c-1.1-0.1-2.4,0-3.6,0c-0.9,0-1.8,0-2.7,0
	c3.8,3.1,10.6,3.1,15.1,0.1C338.1,100.8,337.6,100.8,337.1,100.7z"/>
<path class="st7" d="M321.9,98.9c0.4,0.6,1,1.2,1.5,1.7c0.9,0,1.8,0,2.7,0c1.2,0,2.4-0.2,3.6,0c1.2,0.2,2.3,0.3,3.6,0.3
	c1.3,0,2.5-0.2,3.8-0.1c0.5,0,0.9,0,1.4,0c1.8-1.2,3.2-2.8,3.9-4.9c0.9-2.6,0.1-5.3-1.3-7.6c-0.5,0-1.1,0.1-1.6,0.1
	c-1.2,0-2.3,0-3.5,0c-0.6,0-1.3,0-1.9,0c-0.7,0-1.1-0.3-1.7-0.5c-1.5-0.4-3.3,0.5-4.8,0.5c-1.6,0-3,0.4-4.4,0.8
	c-1.2,0.3-2.8,0.1-4.1,0.1c-0.1,0-0.1,0-0.2,0C318.1,91.8,320.2,96.5,321.9,98.9z"/>
<path class="st1" d="M272.3,68.2c1.3-0.9,2.9-1.9,4.3-2.8c-1.4-0.4-2.4-1.1-3.5-2.1c0.7-0.6,1.9-2.2,2.6-2.9
	c-10.6,0.2-21.2-0.1-31.7-1c1,1,1.3,2.9,2.2,4c-1.3,0.8-2.7,2.1-4,2.8c1.6,0.8,2.9,1.8,4.5,2.6c-1.2,1.1-2.7,2.3-4.2,2.8
	c0.5,0.4,1,0.9,1.5,1.3c6.3-0.1,17.6-0.2,31-0.4c0.5-0.7,1.1-1.4,1.7-2C275.2,69.7,273.7,69,272.3,68.2z"/>
<path class="st1" d="M246.2,75c-1.3,1-2.2,1.5-3.7,2.1c11.1,0.4,22.7,0.2,34.2-0.7c-1.2-0.5-2.1-1.2-3.3-1.8
	c0.5-0.7,0.9-1.4,1.5-2.1c-13.4,0.2-24.7,0.3-31,0.4C244.7,73.7,245.4,74.5,246.2,75z"/>
<path class="st7" d="M294.7,57.8c-6.7-2.3-11.8,0.1-15.3,5.2c-1.7,2.1-0.1,6.5,1.5,9.5c6.7-0.1,13.7-0.2,20.8-0.3
	c0.2-0.4,0.4-0.9,0.6-1.4C304.2,65.5,299.3,59.3,294.7,57.8z"/>
<path class="st7" d="M281.9,73.9c4.1,6,16.2,5.2,19.9-1.7c-7.1,0.1-14.1,0.2-20.8,0.3C281.3,73,281.6,73.5,281.9,73.9z"/>
<path class="st1" d="M276.6,122.5c-1.3-0.8-2.9-1.6-4.3-2.4c1.3-0.9,2.9-1.9,4.3-2.8c-1.4-0.4-2.4-1.1-3.5-2.1
	c0.7-0.6,1.9-2.2,2.6-2.9c-10.6,0.2-21.2-0.1-31.7-1c1,1,1.3,2.9,2.2,4c-1.3,0.8-2.7,2.1-4,2.8c1.6,0.8,2.9,1.8,4.5,2.6
	c-1.2,1.1-2.7,2.3-4.2,2.8c1.3,1,2.6,2.5,3.8,3.4c-1.3,1-2.2,1.5-3.7,2.1c11.1,0.4,22.7,0.2,34.2-0.7c-1.2-0.5-2.1-1.2-3.3-1.8
	C274.4,125.3,275.4,123.7,276.6,122.5z"/>
<path class="st1" d="M343.5,112.4c-10.6,0.2-21.2-0.1-31.7-1c1,1,1.3,2.9,2.2,4c-1.3,0.8-2.7,2.1-4,2.8c1.6,0.8,2.9,1.8,4.5,2.6
	c-1.2,1.1-2.7,2.3-4.2,2.8c1.3,1,2.6,2.5,3.8,3.4c-1.3,1-2.2,1.5-3.7,2.1c11.1,0.4,22.7,0.2,34.2-0.7c-1.2-0.5-2.1-1.2-3.3-1.8
	c0.9-1.4,2-3,3.2-4.2c-1.3-0.8-2.9-1.6-4.3-2.4c1.3-0.9,2.9-1.9,4.3-2.8c-1.4-0.4-2.4-1.1-3.5-2.1
	C341.5,114.6,342.8,113,343.5,112.4z"/>
<path class="st7" d="M294.7,109.8c-6.7-2.3-11.8,0.1-15.3,5.2c-2,2.4,0.5,8.1,2.4,10.9c4.4,6.4,17.8,5,20.5-3.1
	C304.2,117.5,299.3,111.3,294.7,109.8z"/>
<path class="st7" d="M375.4,122.8c1.5-4.4-1.7-9.4-5.4-11.8v17.6C372.5,127.4,374.5,125.5,375.4,122.8z"/>
<path class="st7" d="M367.7,109.8c-6.7-2.3-11.8,0.1-15.3,5.2c-2,2.4,0.5,8.1,2.4,10.9c3,4.3,10,5.1,15.1,2.7v-17.6
	C369.3,110.5,368.5,110.1,367.7,109.8z"/>
<path class="st2" d="M46.5,76.1C46.5,76.1,46.5,76.1,46.5,76.1c0-0.1,0-0.1,0-0.1c-0.1-0.6-0.3-1.2-0.6-1.8c0-0.1,0-0.1-0.1-0.3
	c-1.4-3.1-4.4-5.4-8-5.9c-2.7-0.4-5.5,0.4-7.7,2c-1.2,0.9-2.1,2-2.8,3.3c-0.1,0.1-0.1,0.3-0.2,0.4c-0.5,0.4-0.9,0.9-1.2,1.6
	c-0.3,0.6-0.3,1.2-0.2,1.8c0,0.1-0.1,0.2-0.1,0.3c-0.2,0.7-0.1,1.6-0.2,2.3c-0.1,0.4-0.1,1-0.1,1.4c0.1,0.4,0.4,0.8,0.6,1.2
	c0.5,0.9,1.3,1.3,2,2c0.8,0.7,1.5,1.8,2.5,2.3c0.3,0.1,0.5,0.3,0.8,0.4c0.9,0.5,1.8,0.9,2.8,1.2c0.8,0.4,1.6,0.6,2.5,0.3
	c2.6,0,5.1-1,6.9-2.6c0.4-0.2,0.8-0.5,1.1-0.8c0.1-0.2,0.1-0.3,0.2-0.5c0.1-0.2,0.3-0.3,0.4-0.5c0.2-0.3,0.5-0.7,0.7-1
	c0.2-0.4,0.3-0.8,0.5-1.2c0.3-0.5,0.3-0.9,0.4-1.4c0.1-0.3,0.2-0.5,0.2-0.9c0-0.4,0-0.8,0-1.2c0-0.3,0-0.7,0-1
	C46.7,77.2,46.6,76.6,46.5,76.1z"/>
<path class="st4" d="M54.9,84.5c0.8,0.7,1.5,1.8,2.5,2.3c0.3,0.1,0.5,0.3,0.8,0.4c0.9,0.5,1.8,0.9,2.8,1.2c0.8,0.4,1.6,0.6,2.5,0.3
	c2.6,0,5.1-1,6.9-2.6c0.4-0.2,0.8-0.5,1.1-0.8c0.1-0.2,0.1-0.3,0.2-0.5c0.1-0.2,0.3-0.3,0.4-0.5c0.2-0.3,0.5-0.7,0.7-1
	c0.2-0.4,0.3-0.8,0.5-1.2c0.3-0.5,0.3-0.9,0.4-1.4c0.1-0.3,0.2-0.5,0.2-0.9c0-0.4,0-0.8,0-1.2c0-0.3,0-0.7,0-1c0-0.5-0.1-1-0.2-1.6
	c0,0,0-0.1,0-0.1c0,0,0,0,0-0.1c-0.1-0.6-0.3-1.2-0.6-1.8c0-0.1,0-0.1-0.1-0.3c-1.4-3.1-4.4-5.4-8-5.9c-2.7-0.4-5.5,0.4-7.7,2
	c-1.2,0.9-2.1,2-2.8,3.3c-0.1,0.1-0.1,0.3-0.2,0.4c-0.5,0.4-0.9,0.9-1.2,1.6c-0.3,0.6-0.3,1.2-0.2,1.8c0,0.1-0.1,0.2-0.1,0.3
	c-0.2,0.7-0.1,1.6-0.2,2.3c-0.1,0.4-0.1,1-0.1,1.4c0.1,0.4,0.4,0.8,0.6,1.2C53.3,83.3,54.1,83.8,54.9,84.5z"/>
<path class="st2" d="M73.6,105.1C73.6,105,73.6,105,73.6,105.1c0-0.1,0-0.1,0-0.1c-0.1-0.6-0.3-1.2-0.6-1.8c0-0.1,0-0.1-0.1-0.3
	c-1.4-3.1-4.4-5.4-8-5.9c-2.7-0.4-5.5,0.4-7.7,2c-1.2,0.9-2.1,2-2.8,3.3c-0.1,0.1-0.1,0.3-0.2,0.4c-0.5,0.4-0.9,0.9-1.2,1.6
	c-0.3,0.6-0.3,1.2-0.2,1.8c0,0.1-0.1,0.2-0.1,0.3c-0.2,0.7-0.1,1.6-0.2,2.3c-0.1,0.4-0.1,1-0.1,1.4c0.1,0.4,0.4,0.8,0.6,1.2
	c0.5,0.9,1.3,1.3,2,2c0.8,0.7,1.5,1.8,2.5,2.3c0.3,0.1,0.5,0.3,0.8,0.4c0.9,0.5,1.8,0.9,2.8,1.2c0.8,0.4,1.6,0.6,2.5,0.3
	c2.6,0,5.1-1,6.9-2.6c0.4-0.2,0.8-0.5,1.1-0.8c0.1-0.2,0.1-0.3,0.2-0.5c0.1-0.2,0.3-0.3,0.4-0.5c0.2-0.3,0.5-0.7,0.7-1
	c0.2-0.4,0.3-0.8,0.5-1.2c0.3-0.5,0.3-0.9,0.4-1.4c0.1-0.3,0.2-0.5,0.2-0.9c0-0.4,0-0.8,0-1.2c0-0.3,0-0.7,0-1
	C73.8,106.1,73.7,105.6,73.6,105.1z"/>
<path class="st2" d="M73.6,138.6C73.6,138.6,73.6,138.6,73.6,138.6c0-0.1,0-0.1,0-0.1c-0.1-0.6-0.3-1.2-0.6-1.8c0-0.1,0-0.1-0.1-0.3
	c-1.4-3.1-4.4-5.4-8-5.9c-2.7-0.4-5.5,0.4-7.7,2c-1.2,0.9-2.1,2-2.8,3.3c-0.1,0.1-0.1,0.3-0.2,0.4c-0.5,0.4-0.9,0.9-1.2,1.6
	c-0.3,0.6-0.3,1.2-0.2,1.8c0,0.1-0.1,0.2-0.1,0.3c-0.2,0.7-0.1,1.6-0.2,2.3c-0.1,0.4-0.1,1-0.1,1.4c0.1,0.4,0.4,0.8,0.6,1.2
	c0.5,0.9,1.3,1.3,2,2c0.8,0.7,1.5,1.8,2.5,2.3c0.3,0.1,0.5,0.3,0.8,0.4c0.9,0.5,1.8,0.9,2.8,1.2c0.8,0.4,1.6,0.6,2.5,0.3
	c2.6,0,5.1-1,6.9-2.6c0.4-0.2,0.8-0.5,1.1-0.8c0.1-0.2,0.1-0.3,0.2-0.5c0.1-0.2,0.3-0.3,0.4-0.5c0.2-0.3,0.5-0.7,0.7-1
	c0.2-0.4,0.3-0.8,0.5-1.2c0.3-0.5,0.3-0.9,0.4-1.4c0.1-0.3,0.2-0.5,0.2-0.9c0-0.4,0-0.8,0-1.2c0-0.3,0-0.7,0-1
	C73.8,139.6,73.7,139.1,73.6,138.6z"/>
<polygon class="st3" points="27.1,92.8 25.8,112.1 25.2,115.3 33.3,112.8 45.8,106.5 35.8,99.7 "/>
<polygon class="st1" points="99,128.6 95.5,130 88.8,138.7 89.5,150.5 93.4,154.2 100.1,154.6 106,145.7 104.4,132.8 "/>
<path class="st4" d="M43.8,143.3c-3.7-2.2-5.8-6.2-8.6-9.6c-0.3-0.4-0.6-0.7-1.1-1c-0.5-0.2-1-0.3-1.6-0.3
	c-3.3-0.2-6.9-0.8-10.1-0.5c-1.4,4.1-0.7,9.1-1.8,13.4c-0.1,0.4-0.2,0.9,0.1,1.2c0.2,0.3,0.6,0.4,0.9,0.5c6.3,1.5,12.6,2.7,19,3.6
	c0.3,0,0.7,0.1,0.9-0.1c0.3-0.2,0.5-0.5,0.7-0.9c0.7-1.6,1.4-3.3,2.1-4.9c0.1-0.3,0.2-0.5,0.2-0.8C44.5,143.6,44.1,143.4,43.8,143.3
	z"/>
<path class="st4" d="M113.8,106.3c-3.7-2.2-5.8-6.2-8.6-9.6c-0.3-0.4-0.6-0.7-1.1-1c-0.5-0.2-1-0.3-1.6-0.3
	c-3.3-0.2-6.9-0.8-10.1-0.5c-1.4,4.1-0.7,9.1-1.8,13.4c-0.1,0.4-0.2,0.9,0.1,1.2c0.2,0.3,0.6,0.4,0.9,0.5c6.3,1.5,12.6,2.7,19,3.6
	c0.3,0,0.7,0.1,0.9-0.1c0.3-0.2,0.5-0.5,0.7-0.9c0.7-1.6,1.4-3.3,2.1-4.9c0.1-0.3,0.2-0.5,0.2-0.8
	C114.5,106.6,114.1,106.4,113.8,106.3z"/>
<path class="st2" d="M0.8,62.5c0.1,0.1,0.2,0.1,0.3,0.1c0.8,0.4,1.6,0.8,2.5,1c0.8,0.4,1.6,0.6,2.5,0.3c2.6,0,5.1-1,6.9-2.6
	c0.4-0.2,0.8-0.5,1.1-0.8c0.1-0.2,0.1-0.3,0.2-0.5c0.1-0.2,0.3-0.3,0.4-0.5c0.2-0.3,0.5-0.7,0.7-1c0.2-0.4,0.3-0.8,0.5-1.2
	c0.3-0.5,0.3-0.9,0.4-1.4c0.1-0.3,0.2-0.5,0.2-0.9c0-0.4,0-0.8,0-1.2c0-0.3,0-0.7,0-1c0-0.5-0.1-1-0.2-1.6c0,0,0-0.1,0-0.1
	c0,0,0,0,0-0.1c-0.1-0.6-0.3-1.2-0.6-1.8c0-0.1,0-0.1-0.1-0.3c-1.4-3.1-4.4-5.4-8-5.9c-2.2-0.3-4.5,0.1-6.5,1.2
	c-0.4,0.2-0.7,0.4-1.1,0.7v16.9C0.3,62.3,0.5,62.4,0.8,62.5z"/>
<path class="st2" d="M1.1,86.8C1.1,86.8,1.1,86.8,1.1,86.8c0.3,0.2,0.5,0.3,0.8,0.4c0.9,0.5,1.8,0.9,2.8,1.2
	c0.8,0.4,1.6,0.6,2.5,0.3c2.6,0,5.1-1,6.9-2.6c0.4-0.2,0.8-0.5,1.1-0.8c0.1-0.2,0.1-0.3,0.2-0.5c0.1-0.2,0.3-0.3,0.4-0.5
	c0.2-0.3,0.5-0.7,0.7-1c0.2-0.4,0.3-0.8,0.5-1.2c0.3-0.5,0.3-0.9,0.4-1.4c0.1-0.3,0.2-0.5,0.2-0.9c0-0.4,0-0.8,0-1.2
	c0-0.3,0-0.7,0-1c0-0.5-0.1-1-0.2-1.6c0,0,0-0.1,0-0.1c0,0,0,0,0-0.1c-0.1-0.6-0.3-1.2-0.6-1.8c0-0.1,0-0.1-0.1-0.3
	c-1.4-3.1-4.4-5.4-8-5.9c-2.7-0.4-5.4,0.3-7.5,1.9C1,70,0.9,70,0.9,70.1c-0.3,0.2-0.6,0.5-0.9,0.8v15.1C0.3,86.2,0.7,86.5,1.1,86.8z
	"/>
<polygon class="st1" points="1.1,116.4 17.1,105.4 8.9,93.5 9.8,105.7 3.4,98.8 2.4,111 1.1,109.1 0,107.6 0,117.2 "/>
<polygon class="st3" points="1.1,154.3 5.9,154.6 11.8,145.7 10.2,132.8 4.8,128.6 1.3,130 1.1,130.3 0,131.7 0,154.2 "/>
<path class="st8" d="M397.2,154.2l-3.9-3.7l-0.7-11.8l5.4-7v-14.5l-5.5,3.8l3.6-16.2l1.9,2.8V85.9c-0.5-0.5-0.9-1-1.4-1.4
	c-0.7-0.6-1.6-1.1-2-2c-0.2-0.4-0.5-0.8-0.6-1.2c-0.1-0.4,0-1,0.1-1.4c0.1-0.8,0-1.6,0.2-2.3c0-0.1,0.1-0.2,0.1-0.3
	c-0.1-0.6-0.1-1.2,0.2-1.8c0.3-0.6,0.7-1.1,1.2-1.6c0.1-0.1,0.1-0.3,0.2-0.4c0.5-0.9,1.2-1.8,1.9-2.5v-8.7c0,0,0,0,0,0
	c-1-0.5-1.6-1.6-2.5-2.3c-0.7-0.6-1.6-1.1-2-2c-0.2-0.4-0.5-0.8-0.6-1.2c-0.1-0.4,0-1,0.1-1.4c0.1-0.8,0-1.6,0.2-2.3
	c0-0.1,0.1-0.2,0.1-0.3c-0.1-0.6-0.1-1.2,0.2-1.8c0.3-0.6,0.7-1.1,1.2-1.6c0.1-0.1,0.1-0.3,0.2-0.4c0.7-1.3,1.7-2.4,2.8-3.3
	c0.1,0,0.1-0.1,0.2-0.1V37c0,0-0.1,0-0.1,0c-0.7-0.2-1.5-0.1-2.2-0.1c-1,0-1.9-0.1-2.9-0.2c-0.8-0.1-1.6-0.3-2.5-0.4
	c-1-0.1-2-0.2-3.1-0.2c-0.8,0-1.6,0-2.4,0c-0.4,0-0.9,0.1-1.3,0c0.1-0.4,0.2-0.7,0.2-1.1c0-0.5,0-0.6-0.2-0.9c-0.4-0.7,0-1.3,0.3-2
	c0.3-0.7,0.5-1.3,0.7-2.1c0.1-0.5,0.2-1,0.3-1.4c0.2-0.5,0.5-0.8,0.5-1.3c0-0.2,0-0.3,0.1-0.5c0.2-0.4,0.6-0.6,0.8-0.9
	c0.4-0.5,0.6-0.6,1.3-0.6c0.7,0,1.4,0,2.2,0c0.6,0,1.3,0.1,1.9,0c0.7-0.1,1.2-0.3,1.9-0.3c0.3,0,0.6-0.1,0.9-0.1
	c0.5-0.1,1,0,1.6-0.1c0.7-0.1,1.4-0.1,2.2-0.2V10.5c-4.5,0-9.2,0-13.9,0.1c-1.6,1.7-2.6,4.8-4.1,6.4v144h18v-6.8L397.2,154.2z"/>
<path class="st1" d="M394.3,24.8c-0.3,0.1-0.6,0.1-0.9,0.1c-0.7,0-1.3,0.2-1.9,0.3c-0.6,0.1-1.3,0-1.9,0c-0.7,0-1.4,0-2.2,0
	c-0.6,0-0.8,0.1-1.3,0.6c-0.3,0.3-0.6,0.5-0.8,0.9c-0.1,0.2-0.1,0.3-0.1,0.5c-0.1,0.5-0.3,0.8-0.5,1.3c-0.2,0.5-0.2,1-0.3,1.4
	c-0.2,0.8-0.5,1.4-0.7,2.1c-0.3,0.7-0.7,1.2-0.3,2c0.2,0.4,0.2,0.5,0.2,0.9c0,0.4-0.1,0.7-0.2,1.1c0.4,0.1,0.9,0,1.3,0
	c0.8,0,1.6,0,2.4,0c1,0,2,0.1,3.1,0.2c0.9,0.1,1.6,0.3,2.5,0.4c1,0.1,1.9,0.2,2.9,0.2c0.8,0,1.5-0.1,2.2,0.1c0,0,0.1,0,0.1,0V24.6
	c-0.7,0-1.4,0.1-2.2,0.2C395.3,24.8,394.8,24.7,394.3,24.8z"/>
<path class="st2" d="M395,48.7c-0.1,0.1-0.1,0.3-0.2,0.4c-0.5,0.4-0.9,0.9-1.2,1.6c-0.3,0.6-0.3,1.2-0.2,1.8c0,0.1-0.1,0.2-0.1,0.3
	c-0.2,0.7-0.1,1.6-0.2,2.3c-0.1,0.4-0.1,1-0.1,1.4c0.1,0.4,0.4,0.8,0.6,1.2c0.5,0.9,1.3,1.3,2,2c0.8,0.7,1.5,1.8,2.5,2.3
	c0,0,0,0,0,0V45.3c-0.1,0-0.1,0.1-0.2,0.1C396.6,46.3,395.7,47.5,395,48.7z"/>
<path class="st2" d="M395.9,73.8c-0.5,0.4-0.9,0.9-1.2,1.6c-0.3,0.6-0.3,1.2-0.2,1.8c0,0.1-0.1,0.2-0.1,0.3
	c-0.2,0.7-0.1,1.6-0.2,2.3c-0.1,0.4-0.1,1-0.1,1.4c0.1,0.4,0.4,0.8,0.6,1.2c0.5,0.9,1.3,1.3,2,2c0.5,0.4,0.9,1,1.4,1.4V70.8
	c-0.8,0.7-1.4,1.6-1.9,2.5C396,73.5,395.9,73.6,395.9,73.8z"/>
<polygon class="st1" points="392.5,121 398,117.2 398,107.6 396.1,104.8 "/>
<polygon class="st3" points="393.3,150.5 397.2,154.2 398,154.2 398,131.7 392.6,138.7 "/>
<g>
	<path class="st8" d="M215.2,39h-89.8c-0.3-0.2-0.4-0.4-0.7-0.6c0-0.3,0-0.6,0-1c-0.4,0-0.9,0.1-1.3,0.1c-1.1,0-2.5-0.3-3.4,0.4
		c-0.9,0.7-2.3,0.2-3.3,0.1c-2.3-0.1-4.5-0.6-6.8-0.6c-0.9,0-1.8,0.1-2.7,0c-1-0.2-2.2-0.3-3.2-0.1c-0.8,0.1-1.7,0.3-2.5,0.4
		c-1.9,0.2-3.8,0.3-5.8,0.4c-3.6,0.1-7.2,0.2-10.7,0.2c-0.7,0-1.4,0-2.1,0c-0.5,0-0.8,0.2-1.3,0.2c-4.7,0.1-9.3-0.3-14-0.9
		c-1.2-0.1-2.4-0.2-3.5-0.3c-1.3-0.1-2.5-0.2-3.8-0.3c-1.8-0.2-3.5-0.3-5.3-0.6c-1-0.2-2,0.1-3,0.1c-0.9,0.1-1.6,0.2-2.5,0.2
		c-1.6,0-3.2,0-4.9,0c-0.9,0-1.9-0.2-2.8-0.2c-1.1,0-2.1,0-3.2,0c-1.3,0-2.7,0-4,0c-0.7,0-1.4,0.2-2.1,0.2c-0.7,0-1.4,0-2.1,0
		c-1.8,0-3.7,0-5.5,0c-4,0-8.1,0-12.1,0c-1.5,0-3,0.1-4.4,0.2C7.9,37,7.4,37,7,37v4H6v-3.9c-0.7,0-1.5,0-2.2,0c-0.9,0-1.9,0-2.8,0
		c-0.3,0-0.7,0-1-0.1v8.3c0.3-0.2,0.7-0.5,1.1-0.7c2-1.1,4.2-1.5,6.5-1.2c3.6,0.5,6.5,2.8,8,5.9c0.1,0.2,0.1,0.2,0.1,0.3
		c0.3,0.6,0.5,1.2,0.6,1.8c0,0,0,0,0,0.1c0,0,0,0.1,0,0.1c0.1,0.5,0.2,1,0.2,1.6c0,0.3,0,0.7,0,1c0,0.4,0,0.8,0,1.2
		c0,0.4-0.1,0.5-0.2,0.9c-0.1,0.5-0.1,0.9-0.4,1.4c-0.2,0.4-0.3,0.8-0.5,1.2c-0.2,0.4-0.5,0.7-0.7,1c-0.1,0.2-0.3,0.3-0.4,0.5
		c-0.1,0.2-0.1,0.3-0.2,0.5c-0.3,0.3-0.7,0.6-1.1,0.8C11.1,63,8.7,64,6.1,64c-0.9,0.3-1.7,0.1-2.5-0.3c-0.9-0.2-1.7-0.6-2.5-1
		c-0.1,0-0.2-0.1-0.3-0.1c-0.3-0.1-0.5-0.2-0.8-0.4v8.7c0.3-0.3,0.6-0.5,0.9-0.8C0.9,70,1,70,1.1,69.9c2.2-1.6,4.9-2.3,7.5-1.9
		c3.6,0.5,6.5,2.8,8,5.9c0.1,0.2,0.1,0.2,0.1,0.3c0.3,0.6,0.5,1.2,0.6,1.8c0,0,0,0,0,0.1c0,0,0,0.1,0,0.1c0.1,0.5,0.2,1,0.2,1.6
		c0,0.3,0,0.7,0,1c0,0.4,0,0.8,0,1.2c0,0.4-0.1,0.5-0.2,0.9c-0.1,0.5-0.1,0.9-0.4,1.4c-0.2,0.4-0.3,0.8-0.5,1.2
		c-0.2,0.4-0.5,0.7-0.7,1c-0.1,0.2-0.3,0.3-0.4,0.5c-0.1,0.2-0.1,0.3-0.2,0.5c-0.3,0.3-0.7,0.6-1.1,0.8c-1.9,1.7-4.3,2.6-6.9,2.6
		c-0.9,0.3-1.7,0.1-2.5-0.3c-1-0.3-1.9-0.6-2.8-1.2c-0.3-0.1-0.5-0.2-0.8-0.4c0,0,0,0,0,0c-0.4-0.2-0.7-0.5-1.1-0.9v21.7l1.1,1.5
		l1.3,1.9l1-12.2l6.4,6.9L8.9,93.5l8.2,11.8l-16,11.1L0,117.2v14.5l1.1-1.4l0.2-0.3l3.6-1.4l5.4,4.1l1.6,12.9l-5.9,8.9l-4.9-0.3
		L0,154.2v6.8h124.4c-0.3-29.8-1-61.7-1.9-86c68.7-0.8,66.1-1,91.4-1.5C214.3,62.1,214.8,50.7,215.2,39z M44.4,144.8
		c-0.7,1.6-1.4,3.3-2.1,4.9c-0.2,0.3-0.3,0.7-0.7,0.9c-0.3,0.1-0.6,0.1-0.9,0.1c-6.4-0.9-12.7-2.1-19-3.6c-0.4-0.1-0.7-0.2-0.9-0.5
		c-0.2-0.3-0.2-0.8-0.1-1.2c1.1-4.3,0.4-9.3,1.8-13.4c3.3-0.3,6.8,0.3,10.1,0.5c0.5,0,1.1,0.1,1.6,0.3c0.4,0.2,0.8,0.6,1.1,1
		c2.8,3.3,4.9,7.4,8.6,9.6c0.3,0.2,0.6,0.4,0.7,0.7C44.6,144.2,44.5,144.5,44.4,144.8z M33.3,112.8l-8.1,2.5l0.6-3.1l1.2-19.4
		l8.7,6.9l10,6.9L33.3,112.8z M46.8,78.7c0,0.4,0,0.8,0,1.2c0,0.4-0.1,0.5-0.2,0.9c-0.1,0.5-0.1,0.9-0.4,1.4
		c-0.2,0.4-0.3,0.8-0.5,1.2c-0.2,0.4-0.5,0.7-0.7,1c-0.1,0.2-0.3,0.3-0.4,0.5c-0.1,0.2-0.1,0.3-0.2,0.5c-0.3,0.3-0.7,0.6-1.1,0.8
		c-1.9,1.7-4.3,2.6-6.9,2.6c-0.9,0.3-1.7,0.1-2.5-0.3c-1-0.3-1.9-0.6-2.8-1.2c-0.3-0.1-0.5-0.2-0.8-0.4c-1-0.5-1.6-1.6-2.5-2.3
		c-0.7-0.6-1.6-1.1-2-2c-0.2-0.4-0.5-0.8-0.6-1.2c-0.1-0.4,0-1,0.1-1.4c0.1-0.8,0-1.6,0.2-2.3c0-0.1,0.1-0.2,0.1-0.3
		c-0.1-0.6-0.1-1.2,0.2-1.8c0.3-0.6,0.7-1.1,1.2-1.6c0.1-0.1,0.1-0.3,0.2-0.4c0.7-1.3,1.7-2.4,2.8-3.3c2.2-1.7,5-2.4,7.7-2
		c3.6,0.5,6.5,2.8,8,5.9c0.1,0.2,0.1,0.2,0.1,0.3c0.3,0.6,0.5,1.2,0.6,1.8c0,0,0,0,0,0.1c0,0,0,0.1,0,0.1c0.1,0.5,0.2,1,0.2,1.6
		C46.8,78,46.8,78.3,46.8,78.7z M52.3,79.8c0.1-0.8,0-1.6,0.2-2.3c0-0.1,0.1-0.2,0.1-0.3c-0.1-0.6-0.1-1.2,0.2-1.8
		c0.3-0.6,0.7-1.1,1.2-1.6c0.1-0.1,0.1-0.3,0.2-0.4c0.7-1.3,1.7-2.4,2.8-3.3c2.2-1.7,5-2.4,7.7-2c3.6,0.5,6.5,2.8,8,5.9
		c0.1,0.2,0.1,0.2,0.1,0.3c0.3,0.6,0.5,1.2,0.6,1.8c0,0,0,0,0,0.1c0,0,0,0.1,0,0.1c0.1,0.5,0.2,1,0.2,1.6c0,0.3,0,0.7,0,1
		c0,0.4,0,0.8,0,1.2c0,0.4-0.1,0.5-0.2,0.9c-0.1,0.5-0.1,0.9-0.4,1.4c-0.2,0.4-0.3,0.8-0.5,1.2c-0.2,0.4-0.5,0.7-0.7,1
		c-0.1,0.2-0.3,0.3-0.4,0.5c-0.1,0.2-0.1,0.3-0.2,0.5c-0.3,0.3-0.7,0.6-1.1,0.8c-1.9,1.7-4.3,2.6-6.9,2.6c-0.9,0.3-1.7,0.1-2.5-0.3
		c-1-0.3-1.9-0.6-2.8-1.2c-0.3-0.1-0.5-0.2-0.8-0.4c-1-0.5-1.6-1.6-2.5-2.3c-0.7-0.6-1.6-1.1-2-2c-0.2-0.4-0.5-0.8-0.6-1.2
		C52.1,80.9,52.2,80.3,52.3,79.8z M73.8,141.2c0,0.4,0,0.8,0,1.2c0,0.4-0.1,0.5-0.2,0.9c-0.1,0.5-0.1,0.9-0.4,1.4
		c-0.2,0.4-0.3,0.8-0.5,1.2c-0.2,0.3-0.5,0.7-0.7,1c-0.1,0.2-0.3,0.3-0.4,0.5c-0.1,0.2-0.1,0.3-0.2,0.5c-0.3,0.3-0.7,0.6-1.1,0.8
		c-1.9,1.7-4.3,2.6-6.9,2.6c-0.9,0.3-1.7,0.1-2.5-0.3c-1-0.3-1.9-0.6-2.8-1.2c-0.3-0.1-0.5-0.2-0.8-0.4c-1-0.5-1.6-1.6-2.5-2.3
		c-0.7-0.6-1.6-1.1-2-2c-0.2-0.4-0.5-0.8-0.6-1.2c-0.1-0.4,0-1,0.1-1.4c0.1-0.8,0-1.6,0.2-2.3c0-0.1,0.1-0.2,0.1-0.3
		c-0.1-0.6-0.1-1.2,0.2-1.8c0.3-0.6,0.7-1.1,1.2-1.6c0.1-0.1,0.1-0.3,0.2-0.4c0.7-1.3,1.7-2.4,2.8-3.3c2.2-1.7,5-2.4,7.7-2
		c3.6,0.5,6.5,2.8,8,5.9c0.1,0.2,0.1,0.2,0.1,0.3c0.3,0.6,0.5,1.2,0.6,1.8c0,0,0,0,0,0.1c0,0,0,0.1,0,0.1c0.1,0.5,0.2,1,0.2,1.6
		C73.8,140.5,73.8,140.8,73.8,141.2z M73.8,107.6c0,0.4,0,0.8,0,1.2c0,0.4-0.1,0.5-0.2,0.9c-0.1,0.5-0.1,0.9-0.4,1.4
		c-0.2,0.4-0.3,0.8-0.5,1.2c-0.2,0.4-0.5,0.7-0.7,1c-0.1,0.2-0.3,0.3-0.4,0.5c-0.1,0.2-0.1,0.3-0.2,0.5c-0.3,0.3-0.7,0.6-1.1,0.8
		c-1.9,1.7-4.3,2.6-6.9,2.6c-0.9,0.3-1.7,0.1-2.5-0.3c-1-0.2-1.9-0.6-2.8-1.2c-0.3-0.1-0.5-0.2-0.8-0.4c-1-0.5-1.6-1.6-2.5-2.3
		c-0.7-0.6-1.6-1.1-2-2c-0.2-0.4-0.5-0.8-0.6-1.2c-0.1-0.4,0-1,0.1-1.4c0.1-0.8,0-1.6,0.2-2.3c0-0.1,0.1-0.2,0.1-0.3
		c-0.1-0.6-0.1-1.2,0.2-1.8c0.3-0.6,0.7-1.1,1.2-1.6c0.1-0.1,0.1-0.3,0.2-0.4c0.7-1.3,1.7-2.4,2.8-3.3c2.2-1.7,5-2.4,7.7-2
		c3.6,0.5,6.5,2.8,8,5.9C73,103,73,103,73,103.1c0.3,0.6,0.5,1.2,0.6,1.8c0,0,0,0,0,0.1c0,0,0,0.1,0,0.1c0.1,0.5,0.2,1,0.2,1.6
		C73.8,106.9,73.8,107.3,73.8,107.6z M100.1,154.6l-6.7-0.4l-3.9-3.7l-0.7-11.8l6.7-8.7l3.6-1.4l5.4,4.1l1.6,12.9L100.1,154.6z
		 M114.4,107.8c-0.7,1.6-1.4,3.3-2.1,4.9c-0.2,0.3-0.3,0.7-0.7,0.9c-0.3,0.1-0.6,0.1-0.9,0.1c-6.4-0.9-12.7-2.1-19-3.6
		c-0.4-0.1-0.7-0.2-0.9-0.5c-0.2-0.3-0.2-0.8-0.1-1.2c1.1-4.3,0.4-9.3,1.8-13.4c3.3-0.3,6.8,0.3,10.1,0.5c0.5,0,1.1,0.1,1.6,0.3
		c0.4,0.2,0.8,0.6,1.1,1c2.8,3.3,4.9,7.4,8.6,9.6c0.3,0.2,0.6,0.4,0.7,0.7C114.6,107.2,114.5,107.5,114.4,107.8z"/>
	<path class="st8" d="M3.7,24.8c0.8,0,1.5,0,2.3,0V17h1v7.7c3.7,0,7.4-0.2,11.1-0.2c3.7,0,7.5,0.2,11.2,0c0.8,0,1.6-0.2,2.4-0.2
		c0.8,0,1.7,0,2.5,0c1.8,0,3.7,0,5.5,0c1.7,0,3.4,0,5.1,0.3c0.5,0.1,1,0.1,1.6,0.1c0.7,0,1.3,0.2,2,0.2c0.5,0,1.1-0.1,1.7,0
		c0.3,0.1,0.5,0.1,0.8,0.2c1,0,2,0,3,0c1.6,0,3.2,0,4.8,0c0.8,0,1.4,0.2,2.2,0.2c1.9,0,3.8,0.2,5.7,0.4c2.6,0.2,5.2-0.2,7.7,0
		c3.6,0.3,7.3,0.2,11,0.2c2.3,0,4.6,0,6.9,0c2.3,0,4.5-0.2,6.7-0.2c0.5,0,1.1,0,1.6,0c0.3,0,0.6,0,0.8,0c0.3,0,0.5,0.2,0.8,0.2
		c0.3,0.1,0.7-0.1,1.1,0c0.3,0.1,0.6,0.1,1,0.1c0.6,0,1.2,0,1.9,0c0.9,0,1.8,0.3,2.7,0.4c0.3,0,0.5,0,0.7-0.1
		c0.7-0.2,1.4-0.2,2.1-0.2c1.9,0,3.7-0.3,5.5-0.5c2.5-0.3,5-0.8,7.5-1.2c0-4.1,0-8.4-0.1-12.7C87.6,11,49.1,10.4,0,10.5v14.1
		c0.2,0,0.5,0,0.7,0C1.7,24.6,2.7,24.8,3.7,24.8z"/>
</g>
<path class="st0" d="M264.1,15c1.6-2.4,4-3.6,7.2-2.5c2.1,0.7,4.5,3.6,3.6,6.1c-1.3,3.9-7.6,4.5-9.7,1.5
	C264.3,18.9,263.2,16.2,264.1,15z M240.8,10l6.8-1.2l5.9,2.5l1.2,5.6l-3,7.1l-5.4,2.2l-4.6-1.3l-4.5-6L240.8,10z M226.5,10.6h3.1
	l0.4,1.8l3,3.7v3.8l-2.7,2.3V25c0,0-2.3,0-2.6,0l-1.1,0V10.6z M211.1,10.6v4.3l7.7-2.8l-3.9,7.2L221,16l1.7,3.9l-4.5,3.4l-5.3,0.8
	h-10l-5.2-5.8l-0.1-7.4L211.1,10.6z M188.6,10l1.7,5l1.2,10.2l-6.8-4.2l-3-2.2l-5.8,0.5l-1-5.3L188.6,10z M143.7,9.1h4.6l3.7,5.1
	l9.1-0.7l3.6-4.8l4.2-0.1v16.5h-4.6l-3.7-5.1l-9.1,0.7l-3.6,4.8l-4.2,0.1V9.1z"/>
</svg>
