<svg xmlns="http://www.w3.org/2000/svg" viewBox="0 0 398 170"><g fill="none" fill-rule="evenodd"><path fill="#FFAC89" fill-rule="nonzero" d="M394.6 70.9c-2.9-2.4-7.1-2.8-10.6-3.4-7.3 0-11.4 2.5-15.6 8.7-5.3 7.6-.2 15.1 5.9 20 3.2 2.6 5.7 4.4 9.8 5.3 4.2 1 8.6.7 12-2.1.7-.6 1.3-1.2 1.9-2V74.3c-1.2-1.2-2.3-2.4-3.4-3.4z"/><path fill="#FFD984" fill-rule="nonzero" d="M365.2 165H398v-16l-13.9-46.8z"/><path fill="#FFAC89" fill-rule="nonzero" d="M3.3 89.8c.9-3.4 1.4-6.1.6-9.5-.6-2.3-1.5-3.6-3-5.3-.3-.3-.6-.6-.9-1v24c1.6-2.4 2.5-5.6 3.3-8.2z"/><path fill="#FFD984" fill-rule="nonzero" d="M5.3 165L0 147.6V165z"/><path fill="#B7F2D4" fill-rule="nonzero" d="M.5 35.5C.8 28.3 3 14.5 3 4.8c-1-.2-2-.3-3-.5v31.2h.5zm366.6 0c13.3 0 21.4-.6 30.9 0V4.3c-10.6-1.7-20.1-1.8-29.7-1.8-1.1 9.9-1.6 24.1-1.2 33z"/><path fill="#FF6A36" fill-rule="nonzero" d="M52 40h38v90H52z"/><path fill="#FFAC89" fill-rule="nonzero" d="M123.6 38.2c-10.1-.1-14.4 13.1-2.4 15.1 10.9 2 12.6-14.7 2.4-15.1z"/><path fill="#006AD9" fill-rule="nonzero" d="M120.2 54.3c-3.9 1.7-4.9 2.7-6 6.7-1.4 5.1 2.5 8.2 7.1 9 5.4.9 8.9-3.9 8.5-9.1-.3-4.1-5.6-8.1-9.6-6.6z"/><path fill="#FFD984" fill-rule="nonzero" d="M109.8 75.6c-5.2 5.3-6.3 10.2-4.9 17.9 1.6 9.5 10.5 11.3 18.3 10.4 4.1-.5 7.1-1 10.7-3.3 3.6-2.3 6.6-5.8 7.1-10.4.4-3.8-1.6-7.9-3.3-11.1-1.7-3.1-3.1-5.4-6.1-7.2-2-1.2-3.5-1.5-5.7-1.5-1.9 0-4.2-.2-6.1-.1-3.9.3-7.1 3.2-10 5.3z"/><path fill="#FFAC89" fill-rule="nonzero" d="M277.8 157.9c-1 2.4-1.1 3-3 4.8-1.7 1.6-3 1.9-5.3 1.5-5-.8-6.9-5.7-6.7-10.5.3-4.6 5.4-7.3 9.4-6.4 1.8.4 3.5 2 4.5 3.6.9 1.4 2.5 3.6 1.1 7z"/><path fill="#FF6A36" fill-rule="nonzero" d="M28.7 168.5c5.6-2 7.1-2.2 11.5-6.7 4-4 4.9-7.1 4.4-12.8-1-12.5-11.8-18.2-23-18.3-10.5-.2-17.6 12.1-16.2 22.2.6 4.6 4 9 7.5 11.8 2.8 2.3 7.8 6.7 15.8 3.8z"/><path fill="#FFAC89" fill-rule="nonzero" d="M30.6 9.2c.8 2.1 1.1 2.6 1 5-.1 2.2-.7 3.2-2.4 4.5-3.7 2.8-7.9 1-10.7-2.3-2.6-3.1-1-8.2 2.1-10.3 1.4-.9 3.5-1 5.1-.7 1.3.4 3.7.7 4.9 3.8z"/><path fill="#FFD065" fill-rule="nonzero" d="M24.2 20.1L5.1 131h38.1z"/><path fill="#FFAC89" fill-rule="nonzero" d="M122 104.2L103.1 167h38.1z"/><path fill="#B7F2D4" fill-rule="nonzero" d="M52 131h-9.7L37.7 17H52zM91 151h10.2l4.1-111H91z"/><path fill="#FFAC89" fill-rule="nonzero" d="M52.8 84h36.9L67.8 40.1z"/><path fill="#FFD984" fill-rule="nonzero" d="M52.8 84h36.9l-22.2 47.1z"/><path fill="#FFD065" fill-rule="nonzero" d="M53.7 16c5.4-8.3 13.4-12.2 24-8.5 7.1 2.5 14.9 12.6 12.1 21.2-4.4 13.3-25.4 15.5-32.3 5.1-3-4.5-6.9-13.8-3.8-17.8z"/><path fill="#006AD9" fill-rule="nonzero" d="M58.5 132.7c-6.7-.1-7.7 13.2-6.8 18.2 2.1 12.2 13.9 13.4 24.1 12.3 11.1-1.2 16.7-11.9 12.4-22.4-2.4-6-7.6-9.2-13.1-9.8-5.4-.6-13.4.3-16.6 1.7z"/><path fill="#B7F2D4" fill-rule="nonzero" d="M198.2 138h-10.1l-4.6-121h14.3l-1.1 53.1z"/><path fill="#FFD065" fill-rule="nonzero" d="M235.6 84h-36.9l20 44.1z"/><path fill="#B7F2D4" fill-rule="nonzero" d="M235.6 84h-36.9l18.5-44.1z"/><path fill="#FFAC89" fill-rule="nonzero" d="M234.9 154.3c-5.4 8.9-13.4 13.2-24 9.1-7.1-2.7-14.9-13.5-12.1-22.8 4.3-14.4 25.3-16.7 32.2-5.5 3.1 4.9 7 14.9 3.9 19.2z"/><path fill="#FF6A36" fill-rule="nonzero" d="M152.4 72.7c-6.7-.1-7.7 13.2-6.8 18.2 2.1 12.2 13.9 13.4 24.1 12.3 11.1-1.2 16.7-11.9 12.4-22.4-2.4-6-7.6-9.2-13.1-9.8-5.4-.5-13.4.3-16.6 1.7zm-46.7-34.2c-.3-8.9.1-23.1 1.3-33 10.5 0 19.3.4 31.6 1.2 0 9.7-1.1 24.6-1.5 31.8-9.7-.6-17.8 0-31.4 0z"/><path fill="#FFAC89" fill-rule="nonzero" d="M315 40h38v88h-38z"/><path fill="#FF6A36" fill-rule="nonzero" d="M385.8 35.8c-10-.1-14.2 12.9-2.4 15 10.9 1.8 12.5-14.7 2.4-15z"/><path fill="#3B3639" fill-rule="nonzero" d="M382.7 51.4c-3.9 1.7-4.9 2.7-6 6.7-1.4 5.1 2.5 8.2 7.1 9 5.4.9 8.9-3.9 8.5-9.1-.3-4.1-5.6-8.1-9.6-6.6z"/><path fill="#B7F2D4" fill-rule="nonzero" d="M352.5 161h10.1l4.6-121H353z"/><path fill="#006AD9" fill-rule="nonzero" d="M315 84h36.9l-21.8-43.9z"/><path fill="#FF6A36" fill-rule="nonzero" d="M315 84h36.9l-21.8 43.9z"/><path fill="#FFD065" fill-rule="nonzero" d="M315.7 15.8c5.4-8.3 13.4-12.2 24-8.5 7.1 2.5 14.9 12.6 12.1 21.2-4.3 13.3-25.3 15.5-32.2 5.1-3.1-4.5-7-13.8-3.9-17.8z"/><path fill="#006AD9" fill-rule="nonzero" d="M347.9 135.3c.1-7.1-13-8.2-17.9-7.2-12 2.3-13.2 14.8-12.1 25.6 1.2 11.8 11.7 17.7 22 13.2 5.9-2.6 9.1-8 9.7-13.9.5-5.8-.3-14.3-1.7-17.7z"/><path fill="#FFD065" fill-rule="nonzero" d="M148.6 165.7c-.4-11.5.4-22.9 1.3-30.2 10.5 0 20.8.1 32.7 2.3 0 9.7-2.2 20.9-2.5 28.1-9.8-.7-18-.2-31.5-.2z"/><path fill="#FFAC89" fill-rule="nonzero" d="M162.5 135.1c10.1.1 14.4-13.1 2.4-15.1-10.9-2-12.5 14.7-2.4 15.1z"/><path fill="#3B3639" fill-rule="nonzero" d="M165.6 119.4c3.9-1.7 4.9-2.7 6-6.7 1.4-5.1-2.5-8.2-7.1-9-5.4-.9-8.9 3.9-8.5 9.1.4 4.2 5.7 8.2 9.6 6.6z"/><path fill="#FFD065" fill-rule="nonzero" d="M217.2 40c7.3 0 11.4-2.6 15.6-9 5.3-7.9.2-15.7-5.9-20.8-3.2-2.7-5.7-4.5-9.8-5.5-4.2-1-8.6-.7-12 2.1-2.9 2.4-4.3 6.7-5.2 10.3-.9 3.4-1.4 6.1-.6 9.5.6 2.3 1.5 3.6 3 5.3 1.3 1.4 2.8 3.2 4.2 4.5 2.9 2.5 7.1 2.9 10.7 3.6z"/><path fill="#006AD9" fill-rule="nonzero" d="M164.1 71.7L183.9 5h-19l-20 .6z"/><path fill="#FFD984" fill-rule="nonzero" d="M252.1 148.6l-11.8-.4L236 7h14z"/><path fill="#FF6A36" fill-rule="nonzero" d="M270.8 147.4L254.8 38H284z"/><path fill="#FFAC89" fill-rule="nonzero" d="M282.6 24.5c-.6 7.6-5.1 13.7-12.4 13.7-8.7 0-14.1-6.1-15.3-13.7-.6-7.6 8.8-13.7 15-13.7 7.1 0 13.6 6.1 12.7 13.7zm8.2-2.9c-.8-2.1-1.1-2.6-1-5 .1-2.2.7-3.2 2.4-4.5 3.7-2.8 7.9-1 10.7 2.3 2.6 3.1 1 8.2-2.1 10.3-1.4.9-3.5 1-5.1.7-1.2-.3-3.7-.7-4.9-3.8z"/><path fill="#B7F2D4" fill-rule="nonzero" d="M279.6 135l17.3-110.7L314.5 135z"/><path fill="#3B3639" fill-rule="nonzero" d="M283.2 148.6c.6-7.6 5.1-13.7 12.4-13.7 8.7 0 14.1 6.1 15.3 13.7.6 7.6-8.8 13.7-15 13.7-7.1 0-13.6-6.2-12.7-13.7z"/><path stroke="#181718" d="M284 38.5h-32m-72 65h-32m24 16h-16m236-69h-16m-246 3h-16M10 5.5h81"/></g></svg>