<?xml version="1.0" encoding="utf-8"?>
<!-- Generator: Adobe Illustrator 21.1.0, SVG Export Plug-In . SVG Version: 6.00 Build 0)  -->
<svg version="1.1" id="Layer_1" xmlns="http://www.w3.org/2000/svg" xmlns:xlink="http://www.w3.org/1999/xlink" x="0px" y="0px"
	 viewBox="0 0 398 170" style="enable-background:new 0 0 398 170;" xml:space="preserve">
<style type="text/css">
	.st0{fill:#FFD984;}
	.st1{fill:none;}
	.st2{fill:#B7F2D4;}
	.st3{fill:#FFD065;}
	.st4{fill:#FFB08E;}
	.st5{fill:#006AD9;}
	.st6{fill:#FF6A36;}
	.st7{fill:none;stroke:#3B3639;stroke-miterlimit:10;}
	.st8{fill:none;stroke:#000000;stroke-miterlimit:10;}
</style>
<g>
	<path class="st0" d="M280.7,151.5c34,2.4,69.3,1.6,103.3-0.2c-4.3-41.6-9.4-124.6-9.9-124.5c-32.5,0.5-69.1,0.8-101.6,1.3
		C271.1,69.2,272.4,111.1,280.7,151.5z"/>
	<g>
		<rect class="st1" width="398" height="170"/>
	</g>
	<g>
		<path class="st2" d="M130,156.3c-1.1-24.1-1.9-68-2.8-97.1c-0.5-15.6-1-27-1.6-28.7c-26.8-2.2-53.6-2-80.4,0.4
			c-8.4,0.8-16.7,1.7-25.1,2.9c1.5,42.5,1.2,83.6-1.1,126C55.8,160.2,93.2,158.3,130,156.3z"/>
		<path class="st3" d="M33.9,43.4c-2.6,0.9-4.3,3.8-3.9,6.5c0.3,2.4,2.1,4.3,4.1,5.6c1.6,1,3.5,1.7,5.3,1.6c1.9,0,3.8-0.8,5-2.3
			c0.4-0.5,0.7-1.1,1-1.7c0.7-1.5,1.2-3.2,1.1-4.9c-0.1-1.7-0.8-3.4-2-4.4c-1.4-1.1-3.2-1.5-4.9-1.6c-1.9-0.1-3.9,0-5.7,0.8
			c-1.8,0.8-3.2,2.4-3.5,4.3"/>
		<path class="st3" d="M63.9,44.6c1.3-1,3-1.3,4.6-1.1c1.7,0.2,3.3,1,4.4,2.3c0.9,1.2,1.3,2.7,1.1,4.2c-0.2,1.5-0.9,2.9-1.9,4
			c-0.5,0.5-1,0.9-1.6,1.1c-0.4,0.1-0.9,0.1-1.4,0.1c-0.9,0-1.8,0-2.7-0.2c-2.3-0.6-4.1-2.7-4.3-5C61.9,48.4,62.6,45.6,63.9,44.6z"
			/>
		<path class="st3" d="M92.4,52.7c1,0.6,2.1,1,3.2,1.3c2.6,0.6,5.4,0.5,7.8-0.6c2.4-1.1,4.4-3.3,4.8-6c1.1-6.4-7.9-14.1-14.1-11.6
			C87.1,38.7,85.6,48.7,92.4,52.7z"/>
		<path class="st3" d="M39.1,76.1c1.9,0.2,3.8,0.4,5.6,1.2c3.3,1.6,5.1,5.8,4,9.3c-0.6,1.8-1.8,3.4-3.6,4.1c-1,0.4-2.2,0.5-3.3,0.5
			c-2.4-0.1-4.9-0.8-6.8-2.4c-0.4-0.4-0.9-0.9-1.1-1.4c-0.3-0.6-0.3-1.4-0.3-2.1c0-2.2,0.2-4.4,1.3-6.3C36,77.2,38,76,39.1,76.1z"/>
		<path class="st3" d="M65.8,66.7c2.5-1.3,5.6-0.7,9.3,0.2c1.8,0.5,3.7,1.2,5,2.5c1.1,1,1.8,2.4,2.3,3.8c0.8,2.1,1.2,4.3,0.8,6.5
			c-0.3,1.7-1.1,3.2-2,4.7c-0.8,1.3-1.9,2.5-3.2,3.3c-1.7,1-3.8,1.3-5.8,1.2c-4.1-0.3-8.2-2.4-10.5-5.8c-2.3-3.4-2.6-8.2-0.4-11.7
			C63.6,68,64.7,67.3,65.8,66.7z"/>
		<path class="st3" d="M103,83.3c1.6,2.1,3.9,3.4,6.4,4.2c2,0.6,4.1,0.8,6,0c7.7-3.4,3.5-14.4-3-16.5C105.3,68.7,98.3,77.1,103,83.3
			z"/>
		<path class="st3" d="M37.8,103.1c1.5,0.3,2.6,1.6,3.3,3c0.8,1.7,1.1,2.7,0.9,4.6c-0.1,0.6-0.6,2.2-0.9,2.7c-0.3,0.6-0.8,1-1.3,1.4
			c-2.1,1.4-4.8,1.8-7.1,0.8c-2.3-1-3.9-3.4-3.7-5.9c0.1-1,0.4-2,0.9-2.8C31.1,104.6,33.6,102.2,37.8,103.1z"/>
		<path class="st3" d="M68.5,115.2c1.6,1.4,3.8,1.9,5.9,2.1c1.5,0.1,3.1,0.1,4.5-0.5c7-3,3-13.6-3-15.2
			C68.7,99.7,62.8,110.2,68.5,115.2z"/>
		<path class="st3" d="M96.1,115.8c0.7,0.6,1.5,1,2.3,1.4c2.3,0.9,5,0.8,7.1-0.4c6.8-3.8,2.2-13-4.1-14.2
			C94.5,101.2,91.6,111.6,96.1,115.8z"/>
		<path class="st3" d="M47.6,129.7c-2.7-1-5.9-0.4-8.5,1c-1.2,0.7-2.4,1.7-3.1,2.9c-0.8,1.4-1.1,3-1.1,4.5c-0.1,3.4,1.1,7,3.9,9.1
			c2.1,1.6,5,2,7.7,1.9c3.8-0.2,8-2,9.3-5.6c0.8-2.2,0.4-4.6-0.6-6.7C52.9,132,50.1,130.6,47.6,129.7z"/>
		<path class="st3" d="M76.8,135.9c0.2,1.9,1.5,3.8,3.3,4.4c1,0.3,2.1,0.4,3.1,0.3c1.6-0.1,3.4-0.3,4.2-1.7c1.8-2.8-0.7-8.3-3.8-9.3
			C80.1,128.5,76.5,132.6,76.8,135.9z"/>
		<path class="st3" d="M119.3,119.8c3.3-0.8,6.8,1,9.5,3.1c2.6,2.1,4.5,5.2,5.1,8.5c0.2,0.9,0.2,1.8,0,2.7c-0.4,1.3-1.3,2.3-2.4,3.1
			c-2.8,2.2-6.4,3.4-9.9,3.1c-3.5-0.4-6.9-2.5-8.5-5.7c-1.6-3.3-1.1-7.5,1.1-10.5C116.4,121.2,117.7,120.2,119.3,119.8z"/>
	</g>
	<g>
		<path class="st4" d="M254,146.6c0,0-1-121.2-1.6-121.7c-36.3-0.8-73.6-1.9-109.9-2.8c-0.3,40.8-0.1,83.7,3.7,124.4
			C147.5,147.5,254,146.6,254,146.6z"/>
		<path class="st5" d="M171.4,28.1c-0.3,8.7-0.6,17.3-0.9,26c0,0.2-15.9-8.5-19.5-10.3c4-2.7,6.3-4.4,9-6.5
			C163.8,34.2,167.6,31.1,171.4,28.1z"/>
		<path class="st5" d="M227.7,18c3.8,5.8,6.7,12.1,8.5,18.8c-2.7,0.3-44.4,6.3-44.3,6.2C192,43,223,21,227.7,18z"/>
		<path class="st5" d="M231.6,97.8c-0.1,1.2-0.1,2.4-0.2,3.6c5.8-1.1,11.5-2,17.3-3.1c-0.4-0.8-14.6-32.7-14.6-32.7
			S231.9,92.6,231.6,97.8z"/>
		<path class="st5" d="M191.8,51.3c-7.3,22.1-15.4,44-24.2,65.6c-5-3.9-20.4-15.2-20.4-15.2S189.6,53.5,191.8,51.3z"/>
		<path class="st5" d="M181.8,138.4c5.4-4.2,9.5-7.2,15.2-15c-2.1-0.4-14.9-3.3-16.7-2.8C179.9,127.7,181,134,181.8,138.4z"/>
		<path class="st5" d="M240.1,118c-0.3,8.4-1.1,16.7-2.6,25c-3-1.6-16.6-13.4-16.6-13.4S239.5,118.6,240.1,118z"/>
	</g>
	<path class="st6" d="M285,79.5c-1.1,14.8-0.7,29.8,1.3,44.5c0.1,1,0.3,2,0.8,2.9c0.5,0.9,1.6,1.5,2.6,1.2c1.5-0.4,1.8-2.4,1.8-3.9
		c-0.1-14.1-0.2-28.3-0.3-42.4c-0.1-7-0.1-14,0.4-21c0.2-2.1,2.2-26.2-3.8-21.8c-1.8,1.3-0.6,6.3-0.5,8.1c0.3,4.7-0.1,9.4-0.5,14.1
		C286.1,67.3,285.4,73.4,285,79.5z"/>
	<path class="st6" d="M300.5,75.8c0.1,1.4,0.2,2.9,0.9,4.2s2,2.3,3.4,2.1c2.3-0.3,3.2-3.1,3.5-5.3c0.9-6.2,1.2-12.4,1.1-18.7
		c-0.1-5.7,0-12.5-1.9-18c-0.7-2.1-3.6-7.6-5.6-4.6c-1.1,1.7-0.8,6.5-1,8.6c-0.3,3.3-0.5,6.6-0.6,10C300,61.3,300.1,68.5,300.5,75.8
		z"/>
	<path class="st6" d="M298,135.2c0.1,1.6,0.4,3.2,1.4,4.4c1,1.2,3.1,1.6,4.2,0.4c0.6-0.7,0.7-1.7,0.8-2.6c0.3-3.2,1.6-26.4-1.7-25.7
		c-2.4,0.5-3.7,6.5-4,8.4C297.9,125.1,297.6,130.2,298,135.2z"/>
	<path class="st6" d="M311.1,130.5c0,1.2,0,2.5,0.7,3.5c0.7,1,2.1,1.6,3.1,0.9c0.6-0.5,0.8-1.3,1-2.1c3.1-14.4,4.4-29.2,3.9-43.9
		c-0.1-2.1,0.6-6.5-1.6-7.7c-2-1-3.6,0.7-4.3,2.3c-1.2,3.1-0.9,7.8-1.2,11.1c-0.4,3.7-0.7,7.4-0.9,11.2
		C311.2,114,311,122.3,311.1,130.5z"/>
	<path class="st6" d="M315.7,40.4c-0.1,3.7,0,7.5,1.9,10.7c0.5,0.9,1.5,1.9,2.5,1.7c1.2-0.2,1.6-1.6,1.8-2.8
		c1.2-6.4,2-12.9,1.6-19.4c-0.2-2.9-3.3-8.9-6.5-4.7c-1.1,1.4-0.8,4.7-0.9,6.4C315.9,34.9,315.7,37.6,315.7,40.4z"/>
	<path class="st6" d="M326.3,96.1c-0.4,10.2-0.7,20.5-0.1,30.7c0.3,4.1,1.1,8.7,4.6,10.8c0.5,0.3,1.2,0.5,1.8,0.3
		c0.9-0.3,1.2-1.3,1.4-2.1c0.8-3.9,0.6-8,0.3-12c-1-19.4-1.2-38.8-0.6-58.3c0.2-5,0.1-10.1,0.7-15c0.3-2.4,2.2-5.7,0.5-7.9
		c-3.8-4.9-4.8,4-5,6.1c-0.6,4.9-1.1,9.8-1.5,14.7C327.3,74.4,326.8,85.3,326.3,96.1z"/>
	<path class="st6" d="M342.6,84.1c-0.3,5.5-0.5,11,0.7,16.3c0.5,2.2,2.1,4.9,4.3,4.4c1.8-0.4,2.4-2.6,2.7-4.5
		c2.6-18.3,2.6-36.8,2-55.2c-0.1-4.3,0.3-9.1-0.5-13.4c-0.5-2.6-1.3-3-3.2-0.9c-4.8,5.3-3.9,15-4.3,21.6
		C343.6,62.9,343.1,73.5,342.6,84.1z"/>
	<path class="st6" d="M342.8,132.7c0.5,0.5,1.3,0.9,2,0.6c0.8-0.3,1.1-1.3,1.3-2.1c0.4-2,1.7-9.4-2.2-8.3
		C340.6,123.9,341,130.8,342.8,132.7z"/>
	<path class="st6" d="M355.4,129c2.8-9.2-2.2-19.5,0.8-28.6c0.4-1.1,1.2-2.4,2.3-2.4c1.2,0.1,1.8,1.5,2.1,2.7
		c3.1,12.9,2.4,26.5,0.8,39.7c-0.3,2.4-0.7,4.9-2,6.9c-0.9,1.4-2.8,2.5-4.2,1.6c-0.9-0.6-1.2-1.7-1.3-2.7
		C353.4,141.8,355.4,129,355.4,129z"/>
	<path class="st6" d="M366.4,58c-1.6,11.6-2.3,23.4-2.2,35.1c0,1.1,0,2.2,0.6,3.1c0.6,0.9,1.8,1.5,2.7,1c0.8-0.5,1-1.5,1.1-2.4
		c1.2-9.8,1.2-19.6,1.2-29.4c0-5.2,0-10.4,0-15.6c0-1.9-0.7-4.4-2.5-4.3c-1.6,0.1-2.1,2.1-2.2,3.7c-0.3,6-0.2,12.1,0.6,18.1"/>
	<polygon class="st7" points="10.5,7.5 391.5,15.2 374.5,158 11.5,149.8 	"/>
	<path class="st5" d="M214.2,108.2c-7.8-3.6-16-6.3-24.5-7.8c4-3.1,7.5-6.3,11.5-9.4c1.2-0.9,2.4-1.8,3.5-2.8
		c1.8-1.6,3.3-3.4,4.7-5.3c2.7,8.4,4.7,17.3,6.4,26C215.4,108.9,214,108.4,214.2,108.2z"/>
	<path class="st5" d="M217.3,53.8c1.1,1.2,2.4,2.2,3.7,3.1c2.5,1.9,4.9,3.7,7.4,5.6c-8.9,5.1-18.7,8.9-28.8,10.6
		c5-7.1,10.3-14.3,16.4-20.6c0.4,0.4,0.8,0.8,1.1,1.1C217,53.9,217.5,53.9,217.3,53.8z"/>
	<line class="st8" x1="168.5" y1="40.5" x2="204.5" y2="36.5"/>
	<line class="st8" x1="161.5" y1="46.5" x2="162.5" y2="90.5"/>
	<line class="st8" x1="178.5" y1="81.5" x2="203.5" y2="95.5"/>
	<line class="st8" x1="239.5" y1="96.5" x2="231.5" y2="128.5"/>
	<line class="st8" x1="304.5" y1="74.5" x2="302.5" y2="118.5"/>
	<line class="st8" x1="318.5" y1="44.5" x2="316.5" y2="88.5"/>
	<line class="st8" x1="346.5" y1="98.5" x2="344.5" y2="127.5"/>
	<line class="st8" x1="40" y1="50.5" x2="67" y2="50.5"/>
	<line class="st8" x1="75.5" y1="82.5" x2="98.5" y2="107.5"/>
	<line class="st8" x1="36.5" y1="109.5" x2="72.5" y2="110.5"/>
	<line class="st8" x1="119.5" y1="132.5" x2="84.5" y2="135.5"/>
	<line class="st8" x1="109.5" y1="79.5" x2="98.5" y2="44.5"/>
	<line class="st8" x1="128" y1="89.5" x2="143" y2="89.5"/>
	<line class="st8" x1="254" y1="92.5" x2="273" y2="92.5"/>
</g>
</svg>
