<svg xmlns="http://www.w3.org/2000/svg" viewBox="0 0 398 170"><g fill="none" fill-rule="evenodd"><path fill="#B7F2D4" fill-rule="nonzero" d="M215.9 150.4c5.7-9.5 11.5-19.4 12.1-30.4.3-5.8-1.6-12.6-7.1-14.6-3.3-1.2-7-.3-10 1.6-2.9 1.9-5.2 4.6-7.5 7.3 2.2-3 4-7 5.1-10.6.9-3.3 1.2-7.2-1.1-9.7-2.4-2.5-6.4-2.3-9.7-1.3-8.4 2.7-15.2 10.2-16.8 18.9 2-5.3 6-10.6 6.5-16.3.5-5.7-2.8-12.3-8.4-13-3.1-.4-6.1 1.1-8.4 3.2-2.3 2.1-3.9 4.8-5.4 7.4-2.9 4.9-5.9 9.9-8.8 14.8-5.6 9.5-10.2 20.3-14.7 30.4 13.1 7.5 27 13.8 41.3 18.6 8.9 3 18.1 5.5 26.1 10.3.7.4.8-1.5 1.6-1.8.9-4.4 2.8-10.8 5.2-14.8z"/><path fill="#FFAC89" fill-rule="nonzero" d="M12.4 92.3c1.7 25.1 2.8 42.3 16.3 53.4 10.3 8.5 27.4 13 38.6 6.1 1.6-1 5.9-4 12.7-22.6 6.9-18.9 11.9-32.5 10.2-51.4-.6-6.7-1.9-20-10.4-33.8-5.3-8.7-14.3-23.3-28.7-24.3-16.9-1.1-29.1 17.6-31.3 21C10 55.8 11 71.3 12.4 92.3z"/><path fill="#3A3739" fill-rule="nonzero" d="M111.9 39.3c5.5 8.4 10.9 16.8 16.4 25.2 9.1-10 19.8-18.6 31.6-25.3L145.8 14l-33.9 25.3z"/><path fill="#FFD065" fill-rule="nonzero" d="M113.1 155.3l15.3-6.5 9.6-58.9 38.7-31.2-11.6-40.2-56.2 44.2z"/><path fill="#FFAC89" fill-rule="nonzero" d="M328.5 9.4l-43.8 33.2 7.1 7.7 7.3 20.2 60.1 1.1z"/><path fill="#3A3739" fill-rule="nonzero" d="M51.5 107.6c.5 0 .5-.7 0-.7s-.5.7 0 .7z"/><path fill="#FFD984" fill-rule="nonzero" d="M33.1 119.5c1.3 4.5 3 9.1 5.9 12.7 2.9 3.6 7.5 6.3 12.2 6.1 8.3-.5 13.5-9.2 15.9-17.2 5.8-19 4.7-39.4 1.8-59C68 56.4 67 50.6 64 45.6c-2.9-5-8.1-9-13.9-9-13.4 0-17.5 24-19.4 33.6-2.9 16.2-2.2 33.3 2.4 49.3z"/><path fill="#3A3739" fill-rule="nonzero" d="M7.54 102.662l14.292-46.346L64.356 69.43l-14.292 46.346z"/><path fill="#F2F4F2" fill-rule="nonzero" d="M20.3 104.4l27-3.6-8.1-30.5L6 78.9l5.3 7.7L25 92.8l-8.9 5.3z"/><path fill="#006AD9" fill-rule="nonzero" d="M206 34.7l27.3-24.4-2.3 12.2 8.3-4.4 4 23.3-21.5 17c-5.9-6.2-12.5-15.7-15.8-23.7z"/><path stroke="#3A3739" d="M83.5 95.1l75.3 15.3m-28.4-38.7l194.7-7.3m-174-8L80.5 73.7m139.6-37.2l-46 13.3m-98.7 34l42.2-2.7"/><path fill="#FFAC89" fill-rule="nonzero" d="M265.46 101.169l9.46-9.77 9.77 9.46-9.46 9.77z"/><path fill="#FFD065" fill-rule="nonzero" d="M298 68.8c-.5 1.2-1.1 2.6-.6 3.9.5 1.1 1.6 1.7 2.7 2.3 19 9.4 38.5 17.9 58.4 25.4 1 .4 2 .7 3 .5 1.2-.3 2.1-1.4 2.8-2.4 3.5-4.7 7-9.5 10.4-14.2.5-.7 1.1-1.6 1.1-2.5 0-1.1-1-2-1.8-2.7-10.4-9.7-14.3-24.3-20.8-36.9-.7-1.4-1.5-2.8-2.7-3.8-1.4-1.1-3.1-1.7-4.8-2.1-10.5-3-21.5-7.4-32.2-8.9-7.3 11.9-9 28.4-15.5 41.4z"/><path fill="#FF6A36" fill-rule="nonzero" d="M384.3 50.7l-27.6 41.8 38.4-16.1zM249.5 1.5c1.4 3.8 4.8 6.8 8.7 7.9 3.9 1.1 8 .7 12-.2 2-.4 4-1 5.8-1.9 3.1-1.6 5.5-4.2 7.1-7.3h-31.6c-.7.5-1.4 1-2 1.5zm28.7 143.8c-2.8-2.9-6.3-5.2-10.3-5.6-2.2-.2-4.4.3-6.6.8-2.7.7-5 1.2-7.6 2.1 3.3 5.1 6.2 10.5 9 15.8-3.3 4.3-7.1 8.2-11.3 11.6H283c1.3-2.5 2-5.2 2.1-7.9.2-6.3-2.6-12.4-6.9-16.8z"/><path stroke="#3A3739" d="M244.2 153.9l-32.2-8.2"/><path fill="#3A3739" fill-rule="nonzero" d="M334.1 130.5c7.2 5.1 14 11.5 21.2 16.6-11.9 1.3-23.8 2.5-35.7 3.8-.6-8.4-1.3-16.8-1.9-25.2 2.9 5.9 6.6 11.5 10.9 16.5.4-4.4 2.4-8.6 5.5-11.7"/></g></svg>