<?xml version="1.0" encoding="utf-8"?>
<!-- Generator: Adobe Illustrator 23.0.1, SVG Export Plug-In . SVG Version: 6.00 Build 0)  -->
<svg version="1.1" id="Layer_1" xmlns="http://www.w3.org/2000/svg" xmlns:xlink="http://www.w3.org/1999/xlink" x="0px" y="0px"
	 viewBox="0 0 398 170" style="enable-background:new 0 0 398 170;" xml:space="preserve">
<style type="text/css">
	.st0{fill:none;}
	.st1{fill:#B7F2D4;}
	.st2{fill:#FF703D;}
	.st3{fill:#0068DA;}
	.st4{fill:#FFDA85;}
	.st5{fill:#FFFFFF;}
	.st6{fill:#FFB08E;}
	.st7{fill:#3B3639;}
</style>
<g>
	<polygon class="st0" points="267.93,0 243.2,0 258.39,7.17 	"/>
	<path class="st0" d="M392,56.26c0,0,2.96,0.52,4.33,1.06c0.24,0.09,0.83,0.31,1.67,0.63V0H276.92l14.51,9.06l8.31,6.71l-5.55,8.42
		L283.67,59.9l-5.9,12.48l-49.11-19.43l-30.8-11l5.94-20.82l5.91-14.15L212.85,0h-18.37c-1.4,2.83-2.73,5.6-3.3,7.04
		c-1.69,4.26-40.15,74.25-40.15,74.25l-5.39-3.94c0,0,14.34-28.39,15.78-31.15c2.89-5.52,5.48-11.12,8.62-16.52
		c2.32-3.98,11.99-21.93,14.34-26.94c0.42-0.89,0.91-1.83,1.42-2.74h-20.52c0.67,2.71,1.15,4.6,1.21,4.84
		c0.53,2.07,2.48,16.69,2.48,16.69l-6.99,2.05c0,0-4.91-17.57-5.69-21.57c-0.13-0.67-0.28-1.34-0.42-2.01H56.05l-8.23,7.28
		l-16.08,10.6L13.63,0H0v57.95c6.1,2.28,25.82,9.61,27.24,10.64c0.44,0.31,38.95,14.53,40.91,15.34
		c1.96,0.82,31.25,13.14,31.95,13.37c0.31,0.1,5.94,1.99,6.36,2.1c0.34,0.09,1.27,0.23,1.27,0.23s-0.66,2.05-0.87,2.62
		c-0.21,0.55-1.62,3.77-1.62,3.77s-7.3-2.46-8.24-2.82c-1.06-0.41-2.15-0.77-3.18-1.26c-2-0.96-3.91-2.03-6.01-2.78
		c-1.02-0.36-7.99-2.94-9.07-3.22c-1.09-0.28-2.24-0.72-3.3-1.12c-2.08-0.78-7.76-3.27-8.61-3.57c-1.01-0.36-7.6-3.36-8.66-3.85
		c-4.06-1.86-22.88-8.54-24.96-9.38C31.76,77.43,11.71,69.65,0,65.11V170h13.63l-0.58-0.57l-10.45-19.2l13.81-15.56L31,126.82
		v-17.94l20.64-17.34l11.88,11.74l13.46,17.94l7.85,10.09l7.25,7.92l-14.08,11.36L56.05,170h99.82c-0.73-3.44-1.58-6.85-2.36-10.27
		c-0.86-3.75-1.9-12.71-1.9-12.71s5.33-0.89,7.09-1.2c0.1-0.02,0.54-0.09,0.54-0.09s3.98,15.98,6.04,24.28h20.52
		c1.44-2.6,3.01-5.05,3.4-5.96c0.64-1.48,3.58-6.2,3.58-6.2l6.13,3.38c0,0-2.3,4.45-4.44,8.78h18.37l3.61-8l23.03,6.25l3.71,1.75
		h24.73l4.08-3.07l4.91,3.07H398V65.11c-4.9-1.9-8.34-3.23-8.34-3.23L392,56.26z M125.89,82.03l-32.9-8.86L67.8,68.14l-24.63-9.23
		l7-15.96l5.3-24.86l2.92-9.7l23.07,6.32l16.67,4.57L110.57,6l15.17,5.45l17.16,3.41l-3.31,28.09l-8.82,26.45L125.89,82.03z
		 M205.08,130.38l-45.59,4.25l-19.55,5.1l-1.05-5.64l-1.8-25.61l-3.9-23.66l42.74-6.36l6.33-18l34.77-5.17l5.35,24.53l2.13,28.5
		l4.6,18.62L205.08,130.38z M276.07,105.12c-3.71,2.45-7.2,5.43-10.69,8.19c-1.54,1.22-8.12,6.63-8.12,6.63l-4.89-5.91
		c0,0,7.01-6.56,8.93-7.91c4.22-2.96,16.06-12.48,18.06-13.83c2.13-1.44,8.77-7.42,8.77-7.42l6.32,5.68
		C294.44,90.56,279.67,102.74,276.07,105.12z M394.95,140.49c0.41,2.51,0.41,5.09-0.17,7.57c-1.07,4.55-3.64,8.05-9.03,8.9
		c-0.08,0.01-51.49,8.13-51.5,8.13c-0.37,0.06-0.74,0.1-1.1,0.13c-4.49,0.32-8.5-2.79-9.49-7.19l-8.07-36.11
		c-0.14-1.21-0.29-2.41-0.48-3.62c-0.36-2.3-0.82-4.57-1.32-6.83l-11.83-88.29c-0.33-2.47,0.28-5.04,1.9-6.93
		c1.4-1.64,3.45-2.81,6.38-3.27c0.04-0.01,51.5-8.13,51.5-8.13c3.86-0.61,8.79,1.74,9.99,5.07l-0.39-2.01c0,0,0.28,1.32,0.47,2.24
		c0.08,0.28,0.15,0.56,0.18,0.86c0,0-0.08-0.37-0.18-0.86c-0.02-0.08-0.05-0.15-0.08-0.23l6.7,34.48
		c0.91,7.44,2.74,14.81,4.31,22.18l1.43,7.35c0.09,0.55,0.19,1.11,0.27,1.66c1.12,7.23,2.26,14.46,3.42,21.68l-0.01-0.05l0.2,1.19
		c0.12,0.72,0.23,1.44,0.34,2.16c0.04,0.23,0.08,0.45,0.12,0.68L394.95,140.49z"/>
	<path class="st1" d="M388.38,100.56c-0.12-0.72-0.23-1.44-0.34-2.16l-0.2-1.19l0.01,0.05c-1.16-7.22-2.29-14.45-3.42-21.68
		c-0.09-0.55-0.18-1.11-0.27-1.66l-1.43-7.35c-1.57-7.37-3.4-14.74-4.31-22.18l-6.7-34.48c-1.2-3.33-6.13-5.68-9.99-5.07
		c0,0-51.46,8.12-51.5,8.13c-2.93,0.46-4.98,1.63-6.38,3.27c-1.62,1.9-2.23,4.46-1.9,6.93l11.83,88.29c0.5,2.26,0.96,4.53,1.32,6.83
		c0.19,1.21,0.34,2.41,0.48,3.62l8.07,36.11c0.98,4.39,5,7.51,9.49,7.19c0.36-0.03,0.73-0.07,1.1-0.13c0.01,0,51.42-8.12,51.5-8.13
		c5.39-0.85,7.96-4.35,9.03-8.9c0.58-2.48,0.58-5.06,0.17-7.57l-6.45-39.25C388.47,101.01,388.42,100.79,388.38,100.56z
		 M326.97,39.17c3.31-4.93,7.82-7.99,13.46-8.17l7.26,1.22l0-0.01c6.08,2.17,12.61,10.38,10.23,17.45
		c-3.71,11.03-21.74,12.84-27.68,4.24C327.66,50.15,324.32,42.46,326.97,39.17z M315.77,94.88L330.44,71l19.19,11.79l-14.67,23.88
		L315.77,94.88z M351.58,142.13l-13.53,1.42l1.95-4.71l7.94-30.03l11.62,13.49l13.58,13.88L351.58,142.13z M372.83,84.61
		c-1.12,5.36-3.98,11.33-10.58,10.19c-4.08-0.7-7.15-4.51-6.83-8.67c0.44-5.81,0.6-11.99,2.96-17.41c1.65-3.79,5.75-6.98,9.46-6.46
		c1.71,0.24,3.33,1.26,4.59,3.38C375.88,71.45,374.12,78.44,372.83,84.61z"/>
	<path class="st1" d="M371.35,7.9l0.39,2.01c0.03,0.08,0.06,0.15,0.08,0.23C371.62,9.23,371.35,7.9,371.35,7.9z"/>
	<path class="st1" d="M371.82,10.14C371.92,10.63,372,11,372,11C371.97,10.71,371.9,10.42,371.82,10.14z"/>
	<path class="st2" d="M170.04,29.68c-3.14,5.4-5.74,11-8.62,16.52c-1.44,2.76-15.78,31.15-15.78,31.15l5.39,3.94
		c0,0,38.46-69.99,40.15-74.25c0.57-1.44,1.9-4.21,3.3-7.04h-8.67c-0.51,0.92-1,1.85-1.42,2.74
		C182.04,7.75,172.36,25.7,170.04,29.68z"/>
	<path class="st3" d="M58.16,87.39c1.05,0.48,7.65,3.49,8.66,3.85c0.86,0.31,6.53,2.8,8.61,3.57c1.06,0.39,2.21,0.84,3.3,1.12
		c1.08,0.28,8.05,2.86,9.07,3.22c2.1,0.75,4.01,1.81,6.01,2.78c1.03,0.49,2.12,0.85,3.18,1.26c0.94,0.37,8.24,2.82,8.24,2.82
		s1.41-3.22,1.62-3.77c0.21-0.57,0.87-2.62,0.87-2.62s-0.93-0.14-1.27-0.23c-0.41-0.11-6.04-2-6.36-2.1
		c-0.7-0.23-29.99-12.55-31.95-13.37C66.2,83.11,27.68,68.9,27.24,68.59C25.82,67.56,6.1,60.23,0,57.95v7.16
		c11.71,4.54,31.76,12.33,33.2,12.91C35.28,78.85,54.1,85.53,58.16,87.39z"/>
	<path class="st3" d="M396.33,57.32c-1.38-0.54-4.33-1.06-4.33-1.06l-2.33,5.61c0,0,3.44,1.33,8.34,3.23v-7.16
		C397.16,57.64,396.57,57.41,396.33,57.32z"/>
	<path class="st4" d="M142.9,14.86l-17.16-3.41L110.57,6L98.13,19.28l-16.67-4.57L58.39,8.39l-2.92,9.7l-5.3,24.86l-7,15.96
		l24.63,9.23l25.19,5.04l32.9,8.86l4.89-12.64l8.82-26.45L142.9,14.86z M61.37,30.2c-0.63-2,0.38-4.26,2.32-5.09
		c2.72-1.15,5.54-2.51,8.53-2.7c2.09-0.13,4.48,0.97,5.1,2.76c0.29,0.82,0.2,1.79-0.46,2.85c-1.81,2.9-5.37,3.73-8.45,4.58
		C65.74,33.34,62.39,33.43,61.37,30.2z M81.16,54.18c-1.12,2.73-2.17,5.68-4.16,7.92c-1.39,1.56-3.87,2.46-5.57,1.62
		c-0.78-0.38-1.4-1.13-1.68-2.35c-0.75-3.34,1.19-6.43,2.79-9.2c1.38-2.41,3.7-4.83,6.7-3.24C81.08,49.91,81.96,52.23,81.16,54.18z
		 M95.77,44.18c-0.32,0.81-1.02,1.49-2.21,1.86c-3.27,1.01-6.5-0.69-9.39-2.06c-2.51-1.19-5.1-3.31-3.76-6.42
		c0.83-1.92,3.07-2.98,5.08-2.33c2.81,0.91,5.83,1.72,8.22,3.53C95.38,40.02,96.46,42.42,95.77,44.18z M109.69,50.62
		c-1.57,2.29-4.07,4.52-6.94,2.7c-1.77-1.12-2.46-3.51-1.5-5.39c1.34-2.63,2.62-5.49,4.78-7.56c1.51-1.45,4.05-2.14,5.68-1.17
		c0.75,0.45,1.31,1.24,1.48,2.48C113.68,45.07,111.49,47.99,109.69,50.62z M121.89,70.48c-0.85,0.21-1.8,0.04-2.8-0.72
		c-2.73-2.07-3.23-5.69-3.79-8.83c-0.49-2.73-0.28-6.07,3.04-6.8c2.05-0.44,4.21,0.76,4.86,2.77c0.9,2.81,2,5.74,1.92,8.74
		C125.05,67.74,123.73,70.02,121.89,70.48z M125.52,27.67c-1.85,2.88-5.42,3.66-8.5,4.47c-2.68,0.7-6.03,0.76-7.01-2.49
		c-0.6-2.01,0.43-4.26,2.38-5.06c2.73-1.11,5.57-2.44,8.56-2.59c2.09-0.11,4.46,1.03,5.07,2.83
		C126.29,25.65,126.19,26.62,125.52,27.67z"/>
	<path class="st3" d="M118.34,54.14c-3.32,0.72-3.53,4.06-3.04,6.8c0.57,3.14,1.07,6.76,3.79,8.83c0.99,0.75,1.95,0.93,2.8,0.72
		c1.84-0.46,3.16-2.74,3.21-4.83c0.08-3-1.02-5.93-1.92-8.74C122.55,54.9,120.39,53.69,118.34,54.14z M122.12,68.2
		c-2.52,1.41-4.78-1.63-4-3.93c0.4-1.18,2.5-1.35,3.56-1.16c1.65,0.3,1.84,1.37,1.95,2.82C123.7,65.84,123.32,67.52,122.12,68.2z"/>
	<path class="st5" d="M121.68,63.11c-1.07-0.19-3.16-0.02-3.56,1.16c-0.78,2.29,1.48,5.34,4,3.93c1.2-0.67,1.58-2.36,1.51-2.26
		C123.52,64.48,123.33,63.41,121.68,63.11z"/>
	<path class="st2" d="M111.72,39.2c-1.63-0.97-4.17-0.28-5.68,1.17c-2.16,2.07-3.45,4.93-4.78,7.56c-0.96,1.88-0.27,4.26,1.5,5.39
		c2.86,1.82,5.37-0.41,6.94-2.7c1.81-2.63,4-5.55,3.51-8.94C113.02,40.45,112.47,39.65,111.72,39.2z M110.04,46.27
		c-1.11,0.56-2.72-0.8-3.35-1.68c-0.97-1.37-0.35-2.27,0.6-3.38c-0.12,0.02,1.34-0.91,2.66-0.55
		C112.74,41.44,112.2,45.19,110.04,46.27z"/>
	<path class="st5" d="M109.95,40.66c-1.33-0.37-2.78,0.56-2.66,0.55c-0.94,1.11-1.56,2.01-0.6,3.38c0.62,0.89,2.23,2.24,3.35,1.68
		C112.2,45.19,112.74,41.44,109.95,40.66z"/>
	<path class="st6" d="M120.95,22c-2.99,0.15-5.83,1.48-8.56,2.59c-1.95,0.8-2.99,3.05-2.38,5.06c0.98,3.25,4.33,3.2,7.01,2.49
		c3.09-0.81,6.65-1.59,8.5-4.47c0.67-1.05,0.77-2.02,0.5-2.84C125.41,23.03,123.04,21.89,120.95,22z M120.12,29.07
		c-1.21-0.31-1.54-2.38-1.43-3.46c0.17-1.67,1.22-1.95,2.66-2.17c-0.1-0.06,1.61,0.18,2.37,1.33
		C125.32,27.18,122.47,29.67,120.12,29.07z"/>
	<path class="st5" d="M121.35,23.45c-1.44,0.22-2.5,0.5-2.66,2.17c-0.11,1.08,0.23,3.16,1.43,3.46c2.35,0.6,5.21-1.9,3.6-4.3
		C122.96,23.63,121.25,23.38,121.35,23.45z"/>
	<path class="st6" d="M79.23,48.93c-3-1.59-5.32,0.84-6.7,3.24c-1.59,2.77-3.54,5.86-2.79,9.2c0.27,1.22,0.89,1.97,1.68,2.35
		c1.7,0.83,4.18-0.06,5.57-1.62c1.99-2.24,3.04-5.19,4.16-7.92C81.96,52.23,81.08,49.91,79.23,48.93z M75.68,61.37
		c0.11-0.03-1.26,1.02-2.61,0.76c-2.84-0.55-2.61-4.33-0.53-5.58c1.06-0.64,2.78,0.58,3.47,1.41
		C77.08,59.24,76.53,60.19,75.68,61.37z"/>
	<path class="st5" d="M72.54,56.54c-2.07,1.25-2.3,5.04,0.53,5.58c1.35,0.26,2.73-0.78,2.61-0.76c0.85-1.18,1.4-2.12,0.33-3.42
		C75.31,57.12,73.6,55.9,72.54,56.54z"/>
	<path class="st3" d="M76.87,28.02c0.66-1.06,0.75-2.03,0.46-2.85c-0.62-1.79-3.01-2.9-5.1-2.76c-2.99,0.19-5.81,1.55-8.53,2.7
		c-1.94,0.82-2.95,3.09-2.32,5.09c1.02,3.24,4.37,3.14,7.04,2.41C71.5,31.75,75.05,30.93,76.87,28.02z M71.49,29.5
		c-1.21-0.29-1.57-2.36-1.48-3.44c0.15-1.67,1.2-1.96,2.63-2.2c-0.1-0.06,1.61,0.16,2.39,1.3C76.67,27.54,73.84,30.06,71.49,29.5z"
		/>
	<path class="st5" d="M72.64,23.85c-1.43,0.24-2.49,0.53-2.63,2.2c-0.09,1.08,0.27,3.15,1.48,3.44c2.36,0.57,5.18-1.96,3.55-4.34
		C74.26,24.02,72.54,23.79,72.64,23.85z"/>
	<path class="st7" d="M93.71,38.76c-2.39-1.81-5.41-2.62-8.22-3.53c-2.01-0.65-4.25,0.41-5.08,2.33c-1.35,3.12,1.25,5.23,3.76,6.42
		c2.89,1.37,6.12,3.07,9.39,2.06c1.19-0.37,1.89-1.04,2.21-1.86C96.46,42.42,95.38,40.02,93.71,38.76z M94.05,42.67
		c-0.27,2.44-4.33,3.29-5.68,1.24c-1.94-2.95,2.94-5.72,4.92-4C93.87,40.41,94.2,41.29,94.05,42.67z"/>
	<path class="st5" d="M88.36,43.91c1.35,2.06,5.41,1.21,5.68-1.24c0.15-1.38-0.18-2.26-0.76-2.76
		C91.3,38.18,86.43,40.96,88.36,43.91z"/>
	<path class="st1" d="M92.07,139.22l-7.25-7.92l-7.85-10.09l-13.46-17.94L51.64,91.53L31,108.88v17.94l-14.58,7.85L2.61,150.23
		l10.45,19.2l0.58,0.57h21.27l-0.73-0.98l6.88-5.08l4.08,5.53L44.42,170h11.63l21.94-19.42L92.07,139.22z M27.04,135.26l3.29,4.9
		l-4.9,3.28l-3.29-4.9L27.04,135.26z M28.47,162.85l-12.07-2.97l2.97-12.07l12.07,2.97L28.47,162.85z M54.55,105.44l6.67,10.48
		l-10.48,6.67l-6.67-10.48L54.55,105.44z M38.29,143.7l1.08-8.48l6.81,0.87l-1.08,8.48L38.29,143.7z M45.78,159.41l-3.38-5.31
		l5.31-3.38l3.38,5.31L45.78,159.41z M56.54,130.13l5.81,1.01l-1.01,5.81l-5.81-1.01L56.54,130.13z M63.31,156.04l-6.11-1.5
		l1.5-6.11l6.11,1.5L63.31,156.04z M69.84,128.75l12.07,2.97l-2.97,12.07l-12.07-2.97L69.84,128.75z"/>
	
		<rect x="17.71" y="149.12" transform="matrix(0.2389 -0.971 0.971 0.2389 -132.6275 141.4484)" class="st3" width="12.43" height="12.43"/>
	
		<rect x="68.17" y="130.06" transform="matrix(0.2389 -0.971 0.971 0.2389 -75.7103 175.941)" class="st7" width="12.43" height="12.43"/>
	
		<rect x="57.86" y="149.09" transform="matrix(0.2389 -0.971 0.971 0.2389 -101.3924 175.1031)" class="st5" width="6.29" height="6.29"/>
	<polygon class="st2" points="45.14,169.46 41.06,163.94 34.18,169.02 34.91,170 44.42,170 	"/>
	
		<rect x="23.28" y="136.4" transform="matrix(0.8306 -0.5569 0.5569 0.8306 -73.1626 38.2201)" class="st4" width="5.9" height="5.9"/>
	
		<rect x="46.44" y="107.8" transform="matrix(0.8437 -0.5368 0.5368 0.8437 -52.9755 46.0803)" class="st6" width="12.43" height="12.43"/>
	
		<rect x="43.6" y="151.92" transform="matrix(0.8438 -0.5367 0.5367 0.8438 -75.9232 49.3178)" class="st7" width="6.29" height="6.29"/>
	
		<rect x="37.96" y="136.46" transform="matrix(0.1266 -0.992 0.992 0.1266 -101.8823 164.0841)" class="st2" width="8.55" height="6.87"/>
	
		<rect x="55.99" y="130.6" transform="matrix(0.1714 -0.9852 0.9852 0.1714 -82.7338 168.717)" class="st3" width="5.9" height="5.9"/>
	<path class="st1" d="M161.98,23.58l6.99-2.05c0,0-1.95-14.62-2.48-16.69c-0.06-0.25-0.54-2.14-1.21-4.84h-9.42
		c0.14,0.67,0.29,1.34,0.42,2.01C157.07,6.01,161.98,23.58,161.98,23.58z"/>
	<path class="st2" d="M192.78,157.84c0,0-2.95,4.72-3.58,6.2c-0.39,0.91-1.96,3.36-3.4,5.96h8.67c2.14-4.33,4.44-8.78,4.44-8.78
		L192.78,157.84z"/>
	<path class="st1" d="M158.71,145.82c-1.77,0.31-7.09,1.2-7.09,1.2s1.05,8.96,1.9,12.71c0.78,3.43,1.63,6.84,2.36,10.27h9.42
		c-2.07-8.29-6.04-24.28-6.04-24.28S158.81,145.8,158.71,145.82z"/>
	<polygon class="st1" points="47.82,7.28 56.05,0 44.42,0 38.26,4.54 34.91,0 13.63,0 31.74,17.88 	"/>
	<polygon class="st2" points="38.26,4.54 44.42,0 34.91,0 	"/>
	<path class="st2" d="M367.83,62.27c-3.71-0.52-7.8,2.67-9.46,6.46c-2.36,5.42-2.52,11.6-2.96,17.41c-0.31,4.15,2.76,7.97,6.83,8.67
		c6.6,1.14,9.46-4.83,10.58-10.19c1.29-6.17,3.05-13.16-0.41-18.96C371.16,63.53,369.54,62.5,367.83,62.27z M370.15,76.42
		c-1.6,1.86-5.57,0.62-7.38-0.52c-2.8-1.77-2.36-3.88-1.48-6.61c-0.2,0.12,1.74-2.68,4.44-3.02
		C371.39,65.55,373.27,72.8,370.15,76.42z"/>
	<path class="st5" d="M365.73,66.27c-2.7,0.34-4.64,3.14-4.44,3.02c-0.88,2.73-1.32,4.84,1.48,6.61c1.81,1.14,5.78,2.38,7.38,0.52
		C373.27,72.8,371.39,65.55,365.73,66.27z"/>
	<polygon class="st3" points="347.94,108.8 340,138.83 338.05,143.54 351.58,142.13 373.13,136.17 359.55,122.29 	"/>
	<path class="st6" d="M357.93,49.66c2.38-7.07-4.16-15.28-10.23-17.45l0,0.01L340.44,31c-5.65,0.18-10.16,3.24-13.46,8.17
		c-2.65,3.29,0.69,10.98,3.28,14.73C336.19,62.5,354.22,60.69,357.93,49.66z"/>
	<path class="st6" d="M222.36,79.81l-5.35-24.53l-34.77,5.17l-6.33,18l-42.74,6.36l3.9,23.66l1.8,25.61l1.05,5.64l19.55-5.1
		l45.59-4.25l24.02-3.45l-4.6-18.62L222.36,79.81z M196.88,75.91l4.3-4.13l1.88,8.93l0.65,3.1l-11.92-3L196.88,75.91z
		 M148.45,115.38l3.56-9.8l6.91,3.89L148.45,115.38z M165.37,99.33l-7.24-6.79l9.57-3.46L165.37,99.33z M169.39,118.82l9.68-7.58
		l2.12,13.25L169.39,118.82z M178.51,101.33l1-6.57l12.59,7.34L178.51,101.33z M202.72,118.6l-5.36-6.9l15.34-3.06L202.72,118.6z"/>
	<polygon class="st2" points="203.05,80.71 201.18,71.78 196.88,75.91 191.78,80.81 203.71,83.81 	"/>
	<polygon class="st4" points="165.37,99.33 167.7,89.09 158.13,92.55 	"/>
	<polygon class="st3" points="148.45,115.38 158.92,109.47 152.01,105.58 	"/>
	<polygon class="st7" points="169.39,118.82 181.19,124.49 179.07,111.24 	"/>
	<polygon class="st5" points="178.51,101.33 192.09,102.1 179.5,94.76 	"/>
	<polygon class="st4" points="202.72,118.6 212.7,108.64 197.36,111.7 	"/>
	<path class="st5" d="M330.44,71l-14.67,23.88l19.19,11.79l14.67-23.88L330.44,71z M321.06,92.71l-0.32-0.95l19.6-6.73l0.16,0.47
		l0.16,0.47L321.06,92.71z"/>
	<polygon points="340.5,85.5 320.9,92.23 340.5,85.5 340.34,85.03 320.74,91.76 321.06,92.71 340.66,85.97 	"/>
	<path class="st3" d="M203.8,21.13l-5.94,20.82l30.8,11l49.11,19.43l5.9-12.48l10.52-35.71l5.55-8.42l-8.31-6.71L276.92,0h-9
		l-9.54,7.17L243.2,0h-30.35l-3.14,6.98L203.8,21.13z M230.39,0.21l50.53,22.62l7.58-6.15l0.3,0.37v0v0l0.3,0.37l-7.21,5.85
		l3.63,1.62l-3.23,6.48l-6.74-2.96l-1.09,0.88l-0.6-0.73l0.71-0.58L225.7,6.55L230.39,0.21z M213.57,19.66c0,0,2.04,0.31,4.99,0.78
		l0.04-2.17l0.94,0.02l-0.05,2.3c6.66,1.05,16.93,2.72,20.01,3.45c4.82,1.14,9.7,2.01,14.55,2.99c4.44,0.9,14.58,4.13,14.58,4.13
		s-1.63,6.16-2.16,8.21c-0.03,0.12-0.16,0.63-0.16,0.63s-3.5-0.64-8.28-1.52l-3.29,6.27c1.45,0.17,2.9,0.34,4.36,0.51
		c0.7,0.08,1.39,0.22,2.08,0.13c0.57-0.07,1.25-0.14,1.84-0.12c1.38,0.04,2.81,0.34,4.18,0.5c1.7,0.2,3.36,0.17,5.07,0.37
		c0.67,0.08,1.34,0.16,2.02,0.23c0.65,0.08,1.19,0.23,1.82,0.41c0.36,0.11,0.75,0.09,1.13,0.14c0.42,0.06,0.61,0.23,0.99,0.35
		c0.48,0.15,1.11,0.12,1.61,0.18c0.42,0.05,1.16-0.03,1.44,0.32c0.3,0.38-0.03,1.02-0.03,1.47c0,0.58,0.2,1.03-0.01,1.62
		c-0.22,0.59-0.3,1.16-0.38,1.81c-0.09,0.78-0.05,2.19-0.75,2.73c-0.16,0.13-0.37,0.2-0.62,0.22c-0.76,0.04-1.59-0.16-2.35-0.25
		c-0.79-0.09-1.8-0.37-2.6-0.24c-0.33,0.05-0.53,0.14-0.92,0.07c-0.38-0.07-0.66-0.26-1.04-0.35c-0.48-0.11-1.03-0.11-1.52-0.17
		c-0.88-0.1-1.73,0.03-2.6-0.08c-0.92-0.12-1.85-0.22-2.77-0.33c-1.3-0.15-2.6-0.3-3.9-0.45c-0.93-0.11-2.01-0.08-2.91-0.33
		c-0.42-0.11-0.7-0.31-1.15-0.37c-0.33-0.04-0.67-0.07-1-0.11c-0.98-0.11-1.9-0.2-2.83-0.5c-0.93-0.3-1.92-0.49-2.9-0.6
		c-2.13-0.24-4.26-0.5-6.4-0.74c-0.5-0.06-1-0.12-1.49-0.17c-3.55-0.41-7.11-0.83-10.66-1.24c-1.78-0.21-3.55-0.41-5.33-0.62
		c-0.88-0.1-1.8-0.13-2.66-0.31c-0.87-0.18-0.89-1.06-0.88-1.86c0.02-1.21,0.26-2.42,0.38-3.62c0.08-0.82,0.43-1.64,0.92-2.28
		c0.49-0.65,1.54-0.64,2.3-0.37c0.19,0.07,0.29,0.21,0.53,0.26c0.2,0.05,0.44,0.05,0.65,0.07c0.49,0.06,0.99,0.11,1.48,0.17
		c1.4,0.16,2.8,0.33,4.2,0.49c2.11,0.24,4.21,0.49,6.32,0.73c1.17,0.14,2.34,0.27,3.51,0.41c0.74,0.09,1.48,0.18,2.22,0.26
		c0.86,0.09,1.51,0.57,2.36,0.72c0.53,0.1,1.09,0.04,1.6,0.19c0.34,0.1,0.61,0.26,0.97,0.32c0.74,0.13,1.5,0.17,2.25,0.25
		c0.17,0.02,0.33,0.04,0.49,0.06l3.32-6.33c-10.05-1.84-24.78-4.54-25.56-4.67c-1.4-0.25-7.31-1.95-12.2-3.39l-0.06,3.13l-0.47-0.01
		v0v0l-0.47-0.01l0.07-3.39c-3.35-0.99-6-1.79-6-1.79L213.57,19.66z"/>
	<path class="st5" d="M218.57,20.44c-2.95-0.46-4.99-0.78-4.99-0.78l-1.2,8.51c0,0,2.66,0.8,6,1.79L218.57,20.44z"/>
	<path class="st5" d="M231.51,33.63c0.79,0.14,15.52,2.83,25.56,4.67l1.5-2.86l0.84,0.44l-1.37,2.6c4.78,0.87,8.28,1.52,8.28,1.52
		s0.13-0.51,0.16-0.63c0.53-2.05,2.16-8.21,2.16-8.21s-10.14-3.23-14.58-4.13c-4.85-0.98-9.73-1.85-14.55-2.99
		c-3.08-0.73-13.36-2.39-20.01-3.45l-0.19,9.65C224.2,31.68,230.11,33.38,231.51,33.63z"/>
	<path d="M219.08,18.28l-0.05,2.24c0.16,0.02,0.31,0.05,0.47,0.07l0.05-2.3l-0.94-0.02l-0.04,2.17c0.15,0.02,0.31,0.05,0.47,0.07
		L219.08,18.28z"/>
	<path d="M218.78,33.36l0.47,0.01l0.06-3.13c-0.16-0.05-0.31-0.09-0.47-0.14L218.78,33.36z"/>
	<path d="M218.37,29.96l-0.07,3.39l0.47,0.01l0.07-3.26C218.69,30.05,218.53,30.01,218.37,29.96z"/>
	<path d="M218.84,30.1c0.16,0.05,0.31,0.09,0.47,0.14l0.19-9.65c-0.16-0.03-0.32-0.05-0.47-0.07L218.84,30.1z"/>
	<path d="M218.84,30.1l0.19-9.58c-0.16-0.02-0.32-0.05-0.47-0.07l-0.19,9.52C218.53,30.01,218.69,30.05,218.84,30.1z"/>
	<polygon class="st5" points="282.29,31.37 285.52,24.89 281.89,23.26 275.55,28.41 	"/>
	<polygon class="st5" points="280.92,22.83 230.39,0.21 225.7,6.55 274.58,27.99 	"/>
	<polygon points="274.16,28.93 275.06,28.2 274.58,27.99 273.86,28.57 274.46,29.3 275.55,28.41 275.06,28.2 	"/>
	<polygon points="281.89,23.26 289.1,17.41 288.8,17.04 281.41,23.05 	"/>
	<polygon points="288.8,17.04 288.5,16.68 280.92,22.83 281.41,23.05 	"/>
	<polygon points="275.06,28.2 275.55,28.41 281.89,23.26 281.41,23.05 	"/>
	<polygon points="275.06,28.2 281.41,23.05 280.92,22.83 274.58,27.99 	"/>
	<path class="st5" d="M251.99,49.01L251.99,49.01L251.99,49.01l-0.42-0.22l2.19-4.17c-0.16-0.02-0.33-0.04-0.49-0.06
		c-0.75-0.09-1.51-0.13-2.25-0.25c-0.35-0.06-0.63-0.21-0.97-0.32c-0.51-0.16-1.07-0.1-1.6-0.19c-0.84-0.15-1.5-0.62-2.36-0.72
		c-0.74-0.08-1.48-0.17-2.22-0.26c-1.17-0.14-2.34-0.27-3.51-0.41c-2.11-0.24-4.21-0.49-6.32-0.73c-1.4-0.16-2.8-0.33-4.2-0.49
		c-0.49-0.06-0.99-0.12-1.48-0.17c-0.21-0.02-0.44-0.02-0.65-0.07c-0.24-0.06-0.33-0.2-0.53-0.26c-0.76-0.27-1.81-0.28-2.3,0.37
		c-0.49,0.64-0.83,1.46-0.92,2.28c-0.12,1.2-0.36,2.41-0.38,3.62c-0.01,0.8,0,1.69,0.88,1.86c0.86,0.18,1.79,0.21,2.66,0.31
		c1.78,0.21,3.55,0.41,5.33,0.62c3.55,0.41,7.11,0.83,10.66,1.24c0.5,0.06,1,0.12,1.49,0.17c2.13,0.25,4.26,0.5,6.4,0.74
		c0.98,0.11,1.97,0.3,2.9,0.6c0.92,0.3,1.85,0.38,2.83,0.5c0.33,0.04,0.67,0.07,1,0.11c0.45,0.06,0.73,0.25,1.15,0.37
		c0.9,0.24,1.98,0.22,2.91,0.33c1.3,0.15,2.6,0.3,3.9,0.45c0.92,0.11,1.85,0.21,2.77,0.33c0.86,0.11,1.71-0.02,2.6,0.08
		c0.49,0.06,1.04,0.06,1.52,0.17c0.37,0.08,0.66,0.28,1.04,0.35c0.4,0.07,0.6-0.01,0.92-0.07c0.79-0.13,1.81,0.15,2.6,0.24
		c0.76,0.09,1.58,0.29,2.35,0.25c0.25-0.01,0.46-0.09,0.62-0.22c0.7-0.54,0.66-1.95,0.75-2.73c0.08-0.65,0.16-1.21,0.38-1.81
		c0.22-0.59,0.01-1.04,0.01-1.62c0-0.45,0.33-1.09,0.03-1.47c-0.28-0.35-1.01-0.27-1.44-0.32c-0.5-0.06-1.13-0.03-1.61-0.18
		c-0.37-0.11-0.57-0.29-0.99-0.35c-0.37-0.05-0.76-0.04-1.13-0.14c-0.62-0.18-1.16-0.33-1.82-0.41c-0.67-0.08-1.34-0.16-2.02-0.23
		c-1.71-0.2-3.37-0.17-5.07-0.37c-1.37-0.16-2.8-0.46-4.18-0.5c-0.59-0.02-1.27,0.05-1.84,0.12c-0.68,0.08-1.38-0.05-2.08-0.13
		c-1.45-0.17-2.9-0.34-4.36-0.51l-2.36,4.49L251.99,49.01z"/>
	<path d="M257.56,38.39c-0.16-0.03-0.32-0.06-0.49-0.09l-3.32,6.33c0.17,0.02,0.33,0.04,0.5,0.06L257.56,38.39z"/>
	<path d="M254.26,44.68c0.17,0.02,0.33,0.04,0.5,0.06l3.29-6.27c-0.16-0.03-0.32-0.06-0.49-0.09L254.26,44.68z"/>
	<path d="M258.58,35.43l-1.5,2.86c0.17,0.03,0.32,0.06,0.49,0.09l1.43-2.73l-1.43,2.73c0.16,0.03,0.33,0.06,0.49,0.09l1.37-2.6
		L258.58,35.43z"/>
	<path d="M251.99,49.01l0.42,0.22l2.36-4.49c-0.17-0.02-0.33-0.04-0.5-0.06L251.99,49.01z"/>
	<path d="M251.99,49.01l2.27-4.33c-0.17-0.02-0.33-0.04-0.5-0.06l-2.19,4.17L251.99,49.01z"/>
	<polygon class="st3" points="267.93,170 276.92,170 272.01,166.93 	"/>
	<polygon class="st3" points="239.48,168.25 216.46,162 212.85,170 243.2,170 	"/>
	<path class="st7" d="M279.35,92.29c-2,1.35-13.84,10.86-18.06,13.83c-1.92,1.35-8.93,7.91-8.93,7.91l4.89,5.91
		c0,0,6.58-5.41,8.12-6.63c3.49-2.76,6.98-5.74,10.69-8.19c3.6-2.38,18.37-14.56,18.37-14.56l-6.32-5.68
		C288.12,84.87,281.48,90.85,279.35,92.29z"/>
</g>
</svg>
