<?xml version="1.0" encoding="utf-8"?>
<!-- Generator: Adobe Illustrator 24.0.1, SVG Export Plug-In . SVG Version: 6.00 Build 0)  -->
<svg version="1.1" xmlns="http://www.w3.org/2000/svg" xmlns:xlink="http://www.w3.org/1999/xlink" x="0px" y="0px"
	 viewBox="0 0 398 170" style="enable-background:new 0 0 398 170;" xml:space="preserve">
<style type="text/css">
	.st0{display:none;}
	.st1{display:inline;fill:#F2F4F2;}
	.st2{fill:none;}
	.st3{fill:#B7F2D4;}
	.st4{fill:#FFD065;}
	.st5{fill:#FFFFFF;}
	.st6{fill:#0068DA;}
	.st7{fill:#FFB08E;}
	.st8{fill:#FF703D;}
</style>
<g id="BK" class="st0">
	<rect class="st1" width="398" height="170"/>
</g>
<g id="Layer_1">
	<path class="st2" d="M377.3,133.7c-0.1-5-0.1-10-0.2-14.9c0-3.1-0.1-6.1-0.1-9.2c0-0.5,0-0.9,0-1.4c0-0.2-0.1-0.7,0-0.8
		c0.2-0.3,1.2,0,1.6,0c1.5,0.2,2.9-0.2,4.3-0.1c1.6,0.1,3.1,0.7,4.7,0.9c1,0.1,2.1,0,3.2,0c2.2,0,4.5,0.1,6.7,0c0.2,0,0.3,0,0.5,0
		V72.5l-67-2.1l-0.8-52.8L398,17V0H223.7c0.1,0.6,0.2,1.3,0.4,1.9c0,0.1,0,0.1,0,0.2c0.3,1.2,0.8,2.3,0.5,3.7
		c-0.2,0.9-0.6,2-1.1,2.8c-0.8,1.2-2,2.3-3.1,3.1c-1,0.8-2.3,0.9-3.6,0.9c-2.5-0.1-5.2-1-7-2.9c-0.7-0.8-1-2.4-1.3-3.5
		c-0.3-1.1-0.6-1.9-0.4-3.1c0.2-0.9,0.3-1.8,0.6-2.7c0.1-0.2,0.2-0.4,0.3-0.5H0v17l2.8,0l1,55.6L0,72.5V108c1.9-0.1,3.8-0.1,5.7-0.1
		c0.5,0,1.1,0,1.6,0c0.3,0,0.5-0.1,0.8-0.1c0.7-0.1,1.4-0.1,2.1-0.1c0.5,0,0.7,0.1,0.8,0.6c0.1,0.6,0,1.2,0,1.7c0,1.2,0,2.4,0,3.7
		c0,3.2,0,6.5,0,9.7c0,3.4,0,6.8,0,10.2c0,2.6,0,5.1,0,7.7c0,0.7,0,1.5,0,2.2v18.9v7.6h198.1c0.1-0.2,0.3-0.4,0.5-0.7
		c0.4-0.4,0.5-0.8,0.8-1.3c0.5-0.7,1.5-1,2.2-1.3c0.5-0.3,1.1-0.4,1.7-0.7c0.3-0.2,0.5-0.5,0.9-0.7c0.9-0.4,2.3-0.7,3.3-0.4
		c1,0.2,1.8,1.3,2.7,1.7c1,0.5,1.7,0.9,2.2,2c0.2,0.4,0.3,0.9,0.4,1.4h154l-0.1-8.6L377.3,133.7z M100,33.4l70-0.3
		c0.6,0.6,0.3,12.6,0.3,12.6l0.6,14.2l-73-0.7L100,33.4z M92,95.2C92,95.1,92,95.1,92,95.2c0-1.1,0-1.6,0.5-2.4c0,0,0,0,0-0.1
		c0.6-1.5,1.7-2.8,3.1-3.6c0.6-0.3,1.2-0.6,1.9-0.8c0.2,0,0.3,0,0.5,0c0.5-0.1,0.9-0.1,1.3-0.2c0.6-0.3,0.9-0.7,1.7-0.7
		c0.7,0,1.3,0.3,1.9,0.5c0.3,0.1,0.5,0.1,0.7,0.2c0.1,0.1,0.1,0.3,0.2,0.3c0.4,0.3,0.9,0.4,1.2,0.6c0.9,0.6,1.6,1.7,1.9,2.7
		c0.3,0.8,0.5,1.2,0.5,2c0,0.9-0.2,1.8-0.3,2.6c-0.1,0.6-0.4,1.2-0.7,1.7c-1,2.6-3.3,4.4-6.1,4.8c-0.1,0.1-0.3,0.1-0.4,0.2
		c-0.9,0.2-1.5,0.3-2.4,0.1c-0.8-0.2-1.6-0.6-2.4-0.6c-0.9-0.1-1.3-0.4-1.8-1.1c-0.9-1.3-1.3-2.5-1.3-4c0-0.5,0-0.9,0-1.4
		c0-0.2,0-0.3,0-0.5C92,95.4,92,95.3,92,95.2z M50.7,3.3C56.9,2.5,64,1.3,69.6,5.2c2,1.4,2.9,3.1,3,4.8c0.2,3.7-3.2,7.6-7.2,8.9
		c-5.6,1.9-11.8,1.6-17.6,1.6c-1.5,0-3-0.5-4.2-1.2l-0.8-0.6c-1.7-1.4-2.9-3.4-3.1-5.7C39.1,6.4,45.3,4,50.7,3.3z M34,126.6
		c0.7-2.2,2.3-3.9,4.2-4.9l0.9-0.4c1.4-0.5,2.9-0.6,4.4-0.3c5.7,1.2,11.8,2.2,16.8,5.3c3.5,2.2,6.1,6.7,5.1,10.3
		c-0.5,1.7-1.7,3.1-4,4.1c-6.2,2.6-12.9-0.1-18.8-2.2C37.5,136.7,32,133,34,126.6z M66.9,159.8l-0.6,0.8c-1,1.1-2.3,1.9-3.7,2.3
		c-5.6,1.6-11.5,3.5-17.4,3.2c-4.1-0.3-8.5-3-9.3-6.7c-0.4-1.7,0-3.6,1.6-5.5c4.3-5.2,11.4-6,17.7-6.9c5.4-0.8,12-0.1,13.2,6.5
		C68.7,155.7,68.1,158,66.9,159.8z M63.6,49.4c0.8,0.2,1.6,0,2.4,0.2c0.7,0.2,1.4,0.2,2.1,0.2c0.9,0,2-0.2,2.8,0.1
		c0.8,0.2,1.9,1.2,2.5,1.7c0.1,0,0.1,0.1,0.2,0.2c0.8,0.4,1.6,1.1,2.2,1.8c0.7,1,1.6,2.6,1.3,3.8c0,0.2-0.1,0.3-0.2,0.5
		c0.3,2.5-1.6,4.7-3.9,5.6c-1,0.6-2.1,1-3.3,1.3c-0.7,0.2-1.3,0.3-1.9,0.5c0.3,0.1,0.6,0.1,0.9,0.1c1,0.1,1.9,0.4,2.9,0.7
		c1.1,0.4,1.9,1.1,2.7,1.8c1.8,1.2,3,3.2,3,5.4c0,3.6-2.9,6.5-6.5,6.5c0,0-0.3,0-1,0c-1.1,0.3-2.2,0.4-3.4,0.6c-1,0.1-2,0.4-3,0.6
		c-0.2,0-0.3,0-0.5,0c0.3,0,0.6,0.1,1,0.2c0.8,0.2,1.6,0,2.4,0.2c0.7,0.2,1.4,0.2,2.1,0.2c0.9,0,2-0.2,2.8,0.1
		c0.8,0.2,1.9,1.2,2.5,1.7c0.1,0,0.1,0.1,0.2,0.2c0.8,0.4,1.6,1.1,2.2,1.8c0.7,1,1.6,2.6,1.3,3.8c0,0.2-0.1,0.3-0.2,0.5
		c0.3,2.5-1.6,4.7-3.9,5.6c-1,0.6-2.1,1-3.3,1.3c-1.4,0.4-2.6,0.7-4,0.7c-1.5,0-3.2,0.2-4.6-0.1c-2.1-0.4-4.3-0.2-6.4-0.2
		c-1.4,0-2.7,0.3-4,0.3c-1.4,0-2.9,0-4.3,0c-1.3,0-2.4,0.3-3.7,0.3c-1.7,0-3.5,0-5.2,0c-1.5,0-2.9,0.3-4.5,0.3c-1.3,0-2.5,0.1-3.8,0
		c-1.1,0-2.2-0.5-3.3-0.6c-1-0.1-1.9-0.4-2.9-0.7c-1.1-0.4-1.9-1.1-2.7-1.8c-1.8-1.2-3-3.2-3-5.4c0-3.6,2.9-6.5,6.5-6.5
		c0,0,0.3,0,1,0c1.1-0.3,2.2-0.4,3.4-0.6c1-0.1,2-0.4,3-0.6c0.2,0,0.3,0,0.5,0c-0.3,0-0.6-0.1-1-0.2c-0.8-0.2-1.6,0-2.4-0.2
		c-0.7-0.2-1.4-0.2-2.1-0.2c-0.9,0-2,0.2-2.8-0.1c-0.8-0.2-1.9-1.2-2.5-1.7c-0.1,0-0.1-0.1-0.2-0.2c-0.8-0.4-1.6-1.1-2.2-1.8
		c-0.7-1-1.6-2.6-1.3-3.8c0-0.2,0.1-0.3,0.2-0.5c-0.3-2.5,1.6-4.7,3.9-5.6c1-0.6,2.1-1,3.3-1.3c0.7-0.2,1.3-0.3,1.9-0.5
		c-0.3-0.1-0.6-0.1-0.9-0.1c-1-0.1-1.9-0.4-2.9-0.7c-1.1-0.4-1.9-1.1-2.7-1.8c-1.8-1.2-3-3.2-3-5.4c0-3.6,2.9-6.5,6.5-6.5
		c0,0,0.3,0,1,0c1.1-0.3,2.2-0.4,3.4-0.6c1-0.1,2-0.4,3-0.6c0.2,0,0.3,0,0.5,0c-0.3,0-0.6-0.1-1-0.2c-0.8-0.2-1.6,0-2.4-0.2
		c-0.7-0.2-1.4-0.2-2.1-0.2c-0.9,0-2,0.2-2.8-0.1c-0.8-0.2-1.9-1.2-2.5-1.7c-0.1,0-0.1-0.1-0.2-0.2c-0.8-0.4-1.6-1.1-2.2-1.8
		c-0.7-1-1.6-2.6-1.3-3.8c0-0.2,0.1-0.3,0.2-0.5c-0.3-2.5,1.6-4.7,3.9-5.6c1-0.6,2.1-1,3.3-1.3c1.4-0.4,2.6-0.7,4-0.7
		c1.5,0,3.2-0.2,4.6,0.1c2.1,0.4,4.3,0.2,6.4,0.2c1.4,0,2.7-0.3,4-0.3c1.4,0,2.9,0,4.3,0c1.3,0,2.4-0.3,3.7-0.3c1.7,0,3.5,0,5.2,0
		c1.5,0,2.9-0.3,4.5-0.3c1.3,0,2.5-0.1,3.8,0c1.1,0,2.2,0.5,3.3,0.6c1,0.1,1.9,0.4,2.9,0.7c1.1,0.4,1.9,1.1,2.7,1.8
		c1.8,1.2,3,3.2,3,5.4c0,3.6-2.9,6.5-6.5,6.5c0,0-0.3,0-1,0c-1.1,0.3-2.2,0.4-3.4,0.6c-1,0.1-2,0.4-3,0.6c-0.2,0-0.3,0-0.5,0
		C62.9,49.3,63.2,49.4,63.6,49.4z M91.6,118.2c0-0.2,0-0.4,0-0.6c0-0.4,0-0.9,0-1.3c0-0.9,0.1-1.5,0.5-2.2c0.8-1.7,2.4-2.7,4-3.3
		c1.1-0.5,2.3-0.8,3.5-0.7c0,0,0,0,0,0c2.8-0.4,5.2,1.6,6.5,4.1c0.2,0.2,0.4,0.4,0.5,0.6c0.5,0.6,0.8,1,1.1,1.6
		c0.3,0.7,0.1,1.2-0.1,1.9c-0.4,1.6-1.2,3.3-2.4,4.4c-1.2,1.2-3.2,2.9-5,2.6c-0.6-0.1-1.2-0.3-1.8-0.5c-0.8-0.1-1.6-0.4-2.3-0.7
		c-0.5-0.1-1-0.2-1.4-0.4c-2.3-0.9-2.4-2.8-2.9-4.9C91.8,118.6,91.7,118.5,91.6,118.2z M108.6,141.8c-0.2,0.9-0.6,2-1.1,2.8
		c-0.8,1.2-2,2.3-3.1,3.1c-1,0.8-2.3,0.9-3.6,0.9c-2.5-0.1-5.2-1-7-2.9c-0.7-0.8-1-2.4-1.3-3.5c-0.3-1.1-0.6-1.9-0.4-3.1
		c0.2-0.9,0.3-1.8,0.6-2.7c0.2-0.5,0.4-0.8,0.8-1.2c0.4-0.4,0.5-0.8,0.8-1.3c0.5-0.7,1.5-1,2.2-1.3c0.5-0.3,1.1-0.4,1.7-0.7
		c0.3-0.2,0.5-0.5,0.9-0.7c0.9-0.4,2.3-0.7,3.3-0.4c1,0.2,1.8,1.3,2.7,1.7c1,0.5,1.7,0.9,2.2,2c0.4,1,0.5,2.2,0.8,3.3
		c0,0.1,0,0.1,0,0.2C108.5,139.3,109,140.5,108.6,141.8z M120,148.3l-0.8-52.8l70.6-0.6l1,55.6L120,148.3z M223.7,152.4
		c-0.4,1.6-1.2,3.3-2.4,4.4c-1.2,1.2-3.2,2.9-5,2.6c-0.6-0.1-1.2-0.3-1.8-0.5c-0.8-0.1-1.6-0.4-2.3-0.7c-0.5-0.1-1-0.2-1.4-0.4
		c-2.3-0.9-2.4-2.8-2.9-4.9c0-0.2-0.2-0.3-0.2-0.6c0-0.2,0-0.4,0-0.6c0-0.4,0-0.9,0-1.3c0-0.9,0.1-1.5,0.5-2.2
		c0.8-1.7,2.4-2.7,4-3.3c1.1-0.5,2.3-0.8,3.5-0.7c0,0,0,0,0,0c2.8-0.4,5.2,1.6,6.5,4.1c0.2,0.2,0.4,0.4,0.5,0.6
		c0.5,0.6,0.8,1,1.1,1.6C224.1,151.2,223.9,151.6,223.7,152.4z M224.1,131.5c-0.1,0.6-0.4,1.2-0.7,1.7c-1,2.6-3.3,4.4-6.1,4.8
		c-0.1,0.1-0.3,0.1-0.4,0.2c-0.9,0.2-1.5,0.3-2.4,0.1c-0.8-0.2-1.6-0.6-2.4-0.6c-0.9-0.1-1.3-0.4-1.8-1.1c-0.9-1.3-1.3-2.5-1.3-4
		c0-0.5,0-0.9,0-1.4c0-0.2,0-0.3,0-0.5c0-0.1,0-0.2,0-0.3c0,0,0,0,0-0.1c0-1,0-1.5,0.5-2.4c0,0,0,0,0-0.1c0.6-1.5,1.7-2.8,3.1-3.6
		c0.6-0.3,1.2-0.6,1.9-0.8c0.2,0,0.3,0,0.5,0c0.5-0.1,0.9-0.1,1.3-0.2c0.6-0.3,0.9-0.7,1.7-0.7c0.7,0,1.3,0.3,1.9,0.5
		c0.3,0.1,0.5,0.1,0.7,0.2c0.1,0.1,0.1,0.3,0.2,0.3c0.4,0.3,0.9,0.4,1.2,0.6c0.9,0.6,1.6,1.7,1.9,2.7c0.3,0.8,0.5,1.2,0.5,2
		C224.5,129.7,224.3,130.6,224.1,131.5z M232,30c0,1.2,0,2.4,0,3.7c0,3.2,0,6.5,0,9.7c0,3.4,0,6.8,0,10.2c0,2.6,0,5.1,0,7.7
		c0,0.7,0,1.5,0,2.2v18.9v10.2V112h-31l-0.2-14.2l-0.2-16.3l-0.3-27.8c-0.1-5-0.1-10-0.2-14.9c0-3.1-0.1-6.1-0.1-9.2
		c0-0.5,0-0.9,0-1.4c0-0.2-0.1-0.7,0-0.8c0.2-0.3,1.2,0,1.6,0c1.5,0.2,2.9-0.2,4.3-0.1c1.6,0.1,3.1,0.7,4.7,0.9c1,0.1,2.1,0,3.2,0
		c2.2,0,4.5,0.1,6.7,0c2.1-0.1,4.1-0.2,6.1-0.2c0.5,0,1.1,0,1.6,0c0.3,0,0.5-0.1,0.8-0.1c0.7-0.1,1.4-0.1,2.1-0.1
		c0.5,0,0.7,0.1,0.8,0.6C232.1,28.8,232,29.4,232,30z M265.5,143.9c-0.3,0.6-0.6,0.3-1.2,0.4c-0.7,0-1.2,0.4-2,0.4
		c-1.3,0.1-2.5,0.1-3.7,0.3c-2.7,0.4-5.5,0.9-8.2,0.9c-2.1,0-4.3-0.2-6.3,0c0.3-0.2,0.6-1.7,0.6-2.1c-0.2-0.4-0.3-0.8-0.3-1.2
		c-0.1-0.7-0.1-1.4-0.2-2.1c-0.1-1.2-0.3-2.3-0.3-3.5c-0.1-3.2,0.4-6.5-0.1-9.7c-0.1-1-0.3-3.8-1-4.4c1,0.1,2,0,3.1,0
		c1.7,0,3.3,0.3,5,0.4c2.9,0.2,5.8-0.3,8.7-0.4c1.7-0.1,3.1-0.6,4.7-0.8c0.4,2.5,0.4,4.5,0.4,6.6c0,1.6,0.4,2.9,0.4,4.5
		c0,1.6-0.1,3.2,0,4.7c0.1,1.3,0.4,2.6,0.4,3.9C265.5,142.5,265.7,143.6,265.5,143.9z M259.4,117.6c-1.6,0-2.9,0.4-4.5,0.4
		c-1.6,0-3.2-0.1-4.7,0c-1.3,0.1-2.6,0.4-3.9,0.4c-0.4,0-1.5,0.2-1.8,0c-0.6-0.3-0.3-0.6-0.4-1.2c0-0.7-0.4-1.2-0.4-2
		c-0.1-1.3-0.1-2.5-0.3-3.7c-0.4-2.7-0.9-5.5-0.9-8.2c0-2.1,0.2-4.3,0-6.3c0.2,0.3,1.7,0.6,2.1,0.6c0.4-0.2,0.8-0.3,1.2-0.3
		c0.7-0.1,1.4-0.1,2.1-0.2c1.2-0.1,2.3-0.3,3.5-0.3c3.2-0.1,6.5,0.4,9.7-0.1c1-0.1,3.8-0.3,4.4-1c-0.1,1,0,2,0,3.1
		c0,1.7-0.3,3.3-0.4,5c-0.2,2.9,0.3,5.8,0.4,8.7c0.1,1.7,0.6,3.1,0.8,4.7C263.5,117.6,261.5,117.6,259.4,117.6z M263.9,90.7
		c-0.4,0.2-0.8,0.3-1.2,0.3c-0.7,0.1-1.4,0.1-2.1,0.2c-1.2,0.1-2.3,0.3-3.5,0.3c-3.2,0.1-6.5-0.4-9.7,0.1c-1,0.1-3.8,0.3-4.4,1
		c0.1-1,0-2,0-3.1c0-1.7,0.3-3.3,0.4-5c0.2-2.9-0.3-5.8-0.4-8.7c-0.1-1.7-0.6-3.1-0.8-4.7c2.5-0.4,4.5-0.4,6.6-0.4
		c1.6,0,2.9-0.4,4.5-0.4c1.6,0,3.2,0.1,4.7,0c1.3-0.1,2.6-0.4,3.9-0.4c0.4,0,1.5-0.2,1.8,0c0.6,0.3,0.3,0.6,0.4,1.2
		c0,0.7,0.4,1.2,0.4,2c0.1,1.3,0.1,2.5,0.3,3.7c0.4,2.7,0.9,5.5,0.9,8.2c0,2.1-0.2,4.3,0,6.3C265.8,91,264.3,90.7,263.9,90.7z
		 M271,25.6c0.7-2.2,2.3-3.9,4.2-4.9l0.9-0.4c1.4-0.5,2.9-0.6,4.4-0.3c5.7,1.2,11.8,2.2,16.8,5.3c3.5,2.2,6.1,6.7,5.1,10.3
		c-0.5,1.7-1.7,3.1-4,4.1c-6.2,2.6-12.9-0.1-18.8-2.2C274.5,35.7,269,32,271,25.6z M272.8,58.4c-0.4-1.7,0-3.6,1.6-5.5
		c4.3-5.2,11.4-6,17.7-6.9c5.4-0.8,12-0.1,13.2,6.5c0.4,2.2-0.2,4.5-1.5,6.3l-0.6,0.8c-1,1.1-2.3,1.9-3.7,2.3
		c-5.6,1.6-11.5,3.5-17.4,3.2C278,64.8,273.6,62,272.8,58.4z M284.9,89.6c-1.5,0-3-0.5-4.2-1.2l-0.8-0.6c-1.7-1.4-2.9-3.4-3.1-5.7
		c-0.6-6.7,5.5-9.1,11-9.8c6.2-0.8,13.4-2.1,18.9,1.8c2,1.4,2.9,3.1,3,4.8c0.2,3.7-3.2,7.6-7.2,8.9
		C296.9,89.9,290.7,89.6,284.9,89.6z M296.1,140l2-25.7l70-0.3c0.6,0.6,0.3,12.6,0.3,12.6l0.6,14.2L296.1,140z"/>
	<path class="st3" d="M264.8,103.8c0.1-1.7,0.4-3.3,0.4-5c0-1,0-2,0-3.1c-0.5,0.7-3.4,0.8-4.4,1c-3.1,0.4-6.5,0-9.7,0.1
		c-1.2,0-2.3,0.2-3.5,0.3c-0.7,0-1.4,0.1-2.1,0.2c-0.4,0-0.8,0.1-1.2,0.3c-0.4,0-1.8-0.3-2.1-0.6c0.3,2.1,0,4.3,0,6.3
		c0,2.7,0.5,5.5,0.9,8.2c0.2,1.3,0.2,2.5,0.3,3.7c0.1,0.7,0.4,1.3,0.4,2c0,0.6-0.2,0.9,0.4,1.2c0.4,0.2,1.4,0,1.8,0
		c1.3,0,2.6-0.4,3.9-0.4c1.6-0.1,3.2,0,4.7,0c1.6,0,3-0.4,4.5-0.4c2.1,0,4.1,0,6.6-0.4c-0.2-1.6-0.7-3-0.8-4.7
		C265.1,109.6,264.6,106.7,264.8,103.8z M262.2,116.8l-0.4,0.4l-8.3-8.3l-8.3,8.3l-0.4-0.4l8.3-8.3l-8.3-8.3l0.4-0.4l8.3,8.3
		l8.3-8.3l0.4,0.4l-8.3,8.3L262.2,116.8z"/>
	<path class="st3" d="M266,84.9c0-2.7-0.5-5.5-0.9-8.2c-0.2-1.3-0.2-2.5-0.3-3.7c-0.1-0.7-0.4-1.3-0.4-2c0-0.6,0.2-0.9-0.4-1.2
		c-0.4-0.2-1.4,0-1.8,0c-1.3,0-2.6,0.4-3.9,0.4c-1.6,0.1-3.2,0-4.7,0c-1.6,0-3,0.4-4.5,0.4c-2.1,0-4.1,0-6.6,0.4
		c0.2,1.6,0.7,3,0.8,4.7c0.1,2.9,0.6,5.8,0.4,8.7c-0.1,1.7-0.4,3.3-0.4,5c0,1,0,2,0,3.1c0.5-0.7,3.4-0.8,4.4-1
		c3.1-0.4,6.5,0,9.7-0.1c1.2,0,2.3-0.2,3.5-0.3c0.7,0,1.4-0.1,2.1-0.2c0.4,0,0.8-0.1,1.2-0.3c0.4,0,1.8,0.3,2.1,0.6
		C265.7,89.2,266,87,266,84.9z M262.2,89.8l-0.4,0.4l-8.3-8.3l-8.3,8.3l-0.4-0.4l8.3-8.3l-8.3-8.3l0.4-0.4l8.3,8.3l8.3-8.3l0.4,0.4
		l-8.3,8.3L262.2,89.8z"/>
	<rect x="243.3" y="85.6" transform="matrix(0.7071 -0.7071 0.7071 0.7071 12.2677 201.3199)" width="11.7" height="0.6"/>
	<rect x="252" y="76.9" transform="matrix(0.7071 -0.7071 0.7071 0.7071 20.9708 204.9248)" width="11.7" height="0.6"/>
	<rect x="257.6" y="80" transform="matrix(0.7071 -0.7071 0.7071 0.7071 14.8168 207.4739)" width="0.6" height="11.7"/>
	<rect x="248.9" y="71.3" transform="matrix(0.7071 -0.7071 0.7071 0.7071 18.4217 198.7708)" width="0.6" height="11.7"/>
	<rect x="253.2" y="81.2" transform="matrix(0.7071 -0.7071 0.7071 0.7071 16.6192 203.1224)" width="0.6" height="0.6"/>
	<rect x="243.3" y="112.6" transform="matrix(0.7071 -0.7071 0.7071 0.7071 -6.8242 209.228)" width="11.7" height="0.6"/>
	<rect x="252" y="103.9" transform="matrix(0.7071 -0.7071 0.7071 0.7071 1.8789 212.833)" width="11.7" height="0.6"/>
	<rect x="248.9" y="98.3" transform="matrix(0.7071 -0.7071 0.7071 0.7071 -0.6702 206.6789)" width="0.6" height="11.7"/>
	<rect x="257.6" y="107" transform="matrix(0.7071 -0.7071 0.7071 0.7071 -4.2751 215.382)" width="0.6" height="11.7"/>
	<rect x="253.2" y="108.2" transform="matrix(0.7071 -0.7071 0.7071 0.7071 -2.4727 211.0305)" width="0.6" height="0.6"/>
	<path class="st3" d="M265,138.2c-0.1-1.6,0-3.2,0-4.7c0-1.6-0.4-3-0.4-4.5c0-2.1,0-4.1-0.4-6.6c-1.6,0.2-3,0.7-4.7,0.8
		c-2.9,0.1-5.8,0.6-8.7,0.4c-1.7-0.1-3.3-0.4-5-0.4c-1,0-2,0-3.1,0c0.7,0.5,0.8,3.4,1,4.4c0.4,3.1,0,6.5,0.1,9.7
		c0,1.2,0.2,2.3,0.3,3.5c0,0.7,0.1,1.4,0.2,2.1c0,0.4,0.1,0.8,0.3,1.2c0,0.4-0.3,1.8-0.6,2.1c2.1-0.3,4.3,0,6.3,0
		c2.7,0,5.5-0.5,8.2-0.9c1.3-0.2,2.5-0.2,3.7-0.3c0.7-0.1,1.3-0.4,2-0.4c0.6,0,0.9,0.2,1.2-0.4c0.2-0.4,0-1.4,0-1.8
		C265.4,140.8,265.1,139.5,265,138.2z M262.2,142.8l-0.4,0.4l-8.3-8.3l-8.3,8.3l-0.4-0.4l8.3-8.3l-8.3-8.3l0.4-0.4l8.3,8.3l8.3-8.3
		l0.4,0.4l-8.3,8.3L262.2,142.8z"/>
	<path class="st4" d="M299.5,61.9c1.5-0.4,2.7-1.2,3.7-2.3l0.6-0.8c1.3-1.8,1.9-4,1.5-6.3c-1.2-6.6-7.8-7.2-13.2-6.5
		c-6.2,0.9-13.4,1.6-17.7,6.9c-1.6,1.9-2,3.8-1.6,5.5c0.8,3.7,5.2,6.4,9.3,6.7C288,65.4,293.9,63.4,299.5,61.9z M297.4,50.5
		c2.1-0.5,4.3,0.8,4.8,3c0.5,2.1-0.8,4.3-3,4.8s-4.3-0.8-4.8-3C293.9,53.1,295.2,51,297.4,50.5z"/>
	<path class="st5" d="M299.2,58.2c2.1-0.5,3.5-2.7,3-4.8c-0.5-2.1-2.7-3.5-4.8-3c-2.1,0.5-3.5,2.7-3,4.8
		C294.9,57.4,297.1,58.8,299.2,58.2z"/>
	<path class="st6" d="M298.5,39.7c2.3-0.9,3.5-2.4,4-4.1c1-3.6-1.6-8.1-5.1-10.3c-5-3.1-11.1-4.1-16.8-5.3c-1.5-0.3-3-0.2-4.4,0.3
		l-0.9,0.4c-2,1-3.5,2.7-4.2,4.9c-2,6.4,3.5,10,8.6,11.9C285.6,39.6,292.2,42.3,298.5,39.7z M277.1,31.1c-2.1-0.6-3.4-2.7-2.9-4.9
		s2.7-3.4,4.9-2.9s3.4,2.7,2.9,4.9S279.2,31.7,277.1,31.1z"/>
	<path class="st5" d="M281.9,28.3c0.6-2.1-0.7-4.3-2.9-4.9s-4.3,0.7-4.9,2.9s0.7,4.3,2.9,4.9C279.2,31.7,281.4,30.4,281.9,28.3z"/>
	<path class="st7" d="M309.6,79c-0.1-1.7-1-3.4-3-4.8c-5.5-3.9-12.6-2.7-18.9-1.8c-5.4,0.7-11.6,3.1-11,9.8c0.2,2.3,1.4,4.3,3.1,5.7
		l0.8,0.6c1.2,0.8,2.7,1.2,4.2,1.2c5.8,0,12,0.3,17.6-1.6C306.4,86.6,309.8,82.7,309.6,79z M284.2,86c-2.2,0.1-4.1-1.6-4.2-3.8
		c-0.1-2.2,1.6-4.1,3.8-4.2c2.2-0.1,4.1,1.6,4.2,3.8C288.1,84,286.4,85.9,284.2,86z"/>
	<path class="st5" d="M283.8,78c-2.2,0.1-3.9,2-3.8,4.2c0.1,2.2,2,3.9,4.2,3.8c2.2-0.1,3.9-2,3.8-4.2C287.9,79.6,286,77.9,283.8,78z
		"/>
	<path class="st4" d="M55.1,147c-6.2,0.9-13.4,1.6-17.7,6.9c-1.6,1.9-2,3.8-1.6,5.5c0.8,3.7,5.2,6.4,9.3,6.7
		c5.9,0.4,11.8-1.6,17.4-3.2c1.5-0.4,2.7-1.2,3.7-2.3l0.6-0.8c1.3-1.8,1.9-4,1.5-6.3C67.2,146.9,60.6,146.3,55.1,147z M62.2,159.2
		c-2.1,0.5-4.3-0.8-4.8-3c-0.5-2.1,0.8-4.3,3-4.8c2.1-0.5,4.3,0.8,4.8,3C65.7,156.6,64.4,158.7,62.2,159.2z"/>
	<path class="st5" d="M60.4,151.5c-2.1,0.5-3.5,2.7-3,4.8c0.5,2.1,2.7,3.5,4.8,3s3.5-2.7,3-4.8C64.7,152.3,62.5,151,60.4,151.5z"/>
	<path class="st6" d="M61.5,140.7c2.3-0.9,3.5-2.4,4-4.1c1-3.6-1.6-8.1-5.1-10.3c-5-3.1-11.1-4.1-16.8-5.3c-1.5-0.3-3-0.2-4.4,0.3
		l-0.9,0.4c-2,1-3.5,2.7-4.2,4.9c-2,6.4,3.5,10,8.6,11.9C48.6,140.6,55.2,143.3,61.5,140.7z M40.1,132.1c-2.1-0.6-3.4-2.7-2.9-4.9
		s2.7-3.4,4.9-2.9s3.4,2.7,2.9,4.9S42.2,132.7,40.1,132.1z"/>
	<path class="st5" d="M44.9,129.3c0.6-2.1-0.7-4.3-2.9-4.9s-4.3,0.7-4.9,2.9s0.7,4.3,2.9,4.9C42.2,132.7,44.4,131.4,44.9,129.3z"/>
	<path class="st7" d="M42.8,18.8l0.8,0.6c1.2,0.8,2.7,1.2,4.2,1.2c5.8,0,12,0.3,17.6-1.6c3.9-1.4,7.4-5.2,7.2-8.9
		c-0.1-1.7-1-3.4-3-4.8C64,1.3,56.9,2.5,50.7,3.3c-5.4,0.7-11.6,3.1-11,9.8C39.9,15.4,41.1,17.4,42.8,18.8z M46.8,9
		c2.2-0.1,4.1,1.6,4.2,3.8c0.1,2.2-1.6,4.1-3.8,4.2c-2.2,0.1-4.1-1.6-4.2-3.8C42.9,11,44.6,9.1,46.8,9z"/>
	<path class="st5" d="M47.2,17c2.2-0.1,3.9-2,3.8-4.2c-0.1-2.2-2-3.9-4.2-3.8c-2.2,0.1-3.9,2-3.8,4.2C43.1,15.4,45,17.1,47.2,17z"/>
	<path class="st6" d="M231.2,27.6c-0.7,0.1-1.4,0-2.1,0.1c-0.3,0.1-0.5,0.1-0.8,0.1c-0.5,0-1.1,0-1.6,0c-2.1,0-4.1,0.1-6.1,0.2
		c-2.2,0.1-4.5,0-6.7,0c-1,0-2.1,0.1-3.2,0c-1.6-0.2-3.1-0.7-4.7-0.9c-1.5-0.1-2.9,0.3-4.3,0.1c-0.3,0-1.4-0.3-1.6,0
		c-0.1,0.2,0,0.6,0,0.8c0,0.5,0,0.9,0,1.4c0,3.1,0.1,6.1,0.1,9.2c0.1,5,0.1,10,0.2,14.9l0.3,27.8l0.2,16.3L201,112h31V92.5V82.4
		V63.5c0-0.7,0-1.5,0-2.2c0-2.6,0-5.1,0-7.7c0-3.4,0-6.8,0-10.2c0-3.2,0-6.5,0-9.7c0-1.2,0-2.4,0-3.7c0-0.6,0.1-1.2,0-1.7
		C231.9,27.8,231.7,27.6,231.2,27.6z M223,89.5c0,4.1-3.4,7.5-7.5,7.5s-7.5-3.4-7.5-7.5s3.4-7.5,7.5-7.5c3,0,5.5,1.7,6.8,4.2
		l4.5-4.5l0.5,0.5l-4.7,4.7C222.8,87.8,223,88.6,223,89.5z M208,69.5c0-4.1,3.4-7.5,7.5-7.5s7.5,3.4,7.5,7.5s-3.4,7.5-7.5,7.5
		S208,73.6,208,69.5z M222.5,47c0.3,0.8,0.5,1.7,0.5,2.5c0,4.1-3.4,7.5-7.5,7.5s-7.5-3.4-7.5-7.5s3.4-7.5,7.5-7.5
		c3,0,5.5,1.7,6.8,4.2l4.5-4.5l0.5,0.5L222.5,47z"/>
	<path class="st3" d="M210.7,47.2l0.6-0.4l3.8,6.6l7.2-7.2c-1.2-2.5-3.8-4.2-6.8-4.2c-4.1,0-7.5,3.4-7.5,7.5s3.4,7.5,7.5,7.5
		s7.5-3.4,7.5-7.5c0-0.9-0.2-1.7-0.5-2.5l-7.6,7.6L210.7,47.2z"/>
	<path d="M222.3,46.2c0.1,0.2,0.2,0.5,0.3,0.7l4.7-4.7l-0.5-0.5L222.3,46.2z"/>
	<path d="M215.1,53.4l-3.8-6.6l-0.6,0.4l4.2,7.4l7.6-7.6c-0.1-0.2-0.2-0.5-0.3-0.7L215.1,53.4z"/>
	<circle class="st3" cx="215.5" cy="69.5" r="7.5"/>
	<path class="st7" d="M108.1,137.9c-0.3-1.1-0.4-2.2-0.8-3.3c-0.4-1-1.2-1.5-2.2-2c-0.9-0.5-1.7-1.5-2.7-1.7c-1-0.2-2.4,0-3.3,0.4
		c-0.3,0.2-0.6,0.5-0.9,0.7c-0.5,0.3-1.1,0.4-1.7,0.7c-0.8,0.4-1.7,0.6-2.2,1.3c-0.3,0.5-0.5,0.9-0.8,1.3c-0.4,0.4-0.6,0.7-0.8,1.2
		c-0.3,0.9-0.4,1.8-0.6,2.7c-0.2,1.2,0.1,1.9,0.4,3.1c0.3,1,0.5,2.6,1.3,3.5c1.7,1.9,4.4,2.9,7,2.9c1.3,0,2.6-0.1,3.6-0.9
		c1.1-0.9,2.3-2,3.1-3.1c0.5-0.8,0.9-1.9,1.1-2.8c0.3-1.3-0.1-2.4-0.5-3.7C108.1,138,108.1,138,108.1,137.9z M97.3,145.1l-2.9-5
		l0.5-0.3l2.5,4.3l7.7-7.7l0.4,0.4L97.3,145.1z"/>
	<path class="st7" d="M92,97.4c0,1.5,0.4,2.7,1.3,4c0.5,0.7,0.9,1.1,1.8,1.1c0.8,0.1,1.6,0.4,2.4,0.6c0.9,0.2,1.5,0.1,2.4-0.1
		c0.2,0,0.3-0.1,0.4-0.2c2.8-0.3,5.1-2.2,6.1-4.8c0.3-0.5,0.5-1.1,0.7-1.7c0.2-0.9,0.3-1.7,0.3-2.6c0-0.8-0.3-1.2-0.5-2
		c-0.3-1-1-2.1-1.9-2.7c-0.4-0.3-0.9-0.3-1.2-0.6c-0.1-0.1-0.1-0.3-0.2-0.3c-0.2-0.2-0.4-0.1-0.7-0.2c-0.6-0.2-1.2-0.5-1.9-0.5
		c-0.7,0-1.1,0.5-1.7,0.7c-0.4,0-0.9,0.1-1.3,0.2c-0.2,0-0.3,0-0.5,0c-0.6,0.1-1.3,0.4-1.9,0.8c-1.4,0.8-2.5,2.1-3.1,3.6
		c0,0,0,0,0,0.1C92,93.6,92,94.1,92,95.1c0,0,0,0,0,0.1c0,0.1,0,0.2,0,0.3c0,0.2,0,0.3,0,0.5C92,96.4,92,96.9,92,97.4z M95.8,92.2
		l0.4-0.4l3.3,3.3l3.3-3.3l0.4,0.4l-3.3,3.3l3.3,3.3l-0.4,0.4l-3.3-3.3l-3.3,3.3l-0.4-0.4l3.3-3.3L95.8,92.2z"/>
	<path class="st3" d="M94.7,123.8c0.5,0.2,1,0.3,1.4,0.4c0.7,0.4,1.5,0.6,2.3,0.7c0.6,0.2,1.2,0.4,1.8,0.5c1.9,0.3,3.8-1.4,5-2.6
		c1.2-1.2,2-2.9,2.4-4.4c0.2-0.8,0.4-1.2,0.1-1.9c-0.3-0.7-0.5-1.1-1.1-1.6c-0.2-0.2-0.4-0.4-0.5-0.6c-1.2-2.5-3.7-4.5-6.5-4.1
		c0,0,0,0,0,0c-1.2-0.1-2.4,0.2-3.5,0.7c-1.7,0.6-3.3,1.7-4,3.3c-0.4,0.8-0.5,1.3-0.5,2.2c0,0.4,0,0.9,0,1.3c0,0.2,0,0.4,0,0.6
		c0,0.3,0.2,0.4,0.2,0.6C92.3,121,92.4,122.8,94.7,123.8z M94.9,116.8l2.5,4.3l7.7-7.7l0.4,0.4l-8.3,8.3l-2.9-5L94.9,116.8z"/>
	<rect x="99" y="93.4" transform="matrix(0.708 -0.7063 0.7063 0.708 -36.5408 98.9294)" width="4.7" height="0.6"/>
	<rect x="95.3" y="97.1" transform="matrix(0.7071 -0.7071 0.7071 0.7071 -40.2373 97.5615)" width="4.7" height="0.6"/>
	<rect x="101.1" y="95" transform="matrix(0.7063 -0.708 0.708 0.7063 -39.1492 100.3489)" width="0.6" height="4.7"/>
	<rect x="97.4" y="91.3" transform="matrix(0.7063 -0.708 0.708 0.7063 -37.6154 96.6398)" width="0.6" height="4.7"/>
	<rect x="99.2" y="95.2" transform="matrix(0.7071 -0.7071 0.7071 0.7071 -38.3858 98.3284)" width="0.6" height="0.6"/>
	<polygon points="97.4,144.2 94.9,139.8 94.4,140.1 97.3,145.1 105.5,136.8 105.1,136.4 	"/>
	<polygon points="105.5,113.8 105.1,113.4 97.4,121.2 94.9,116.8 94.4,117.1 97.3,122.1 	"/>
	<path class="st4" d="M222.1,124c-0.4-0.3-0.9-0.3-1.2-0.6c-0.1-0.1-0.1-0.3-0.2-0.3c-0.2-0.2-0.4-0.1-0.7-0.2
		c-0.6-0.2-1.2-0.5-1.9-0.5c-0.7,0-1.1,0.5-1.7,0.7c-0.4,0-0.9,0.1-1.3,0.2c-0.2,0-0.3,0-0.5,0c-0.6,0.1-1.3,0.4-1.9,0.8
		c-1.4,0.8-2.5,2.1-3.1,3.6c0,0,0,0,0,0.1c-0.5,0.8-0.5,1.3-0.5,2.4c0,0,0,0,0,0.1c0,0.1,0,0.2,0,0.3c0,0.2,0,0.3,0,0.5
		c0,0.5,0,0.9,0,1.4c0,1.5,0.4,2.7,1.3,4c0.5,0.7,0.9,1.1,1.8,1.1c0.8,0.1,1.6,0.4,2.4,0.6c0.9,0.2,1.5,0.1,2.4-0.1
		c0.2,0,0.3-0.1,0.4-0.2c2.8-0.3,5.1-2.2,6.1-4.8c0.3-0.5,0.5-1.1,0.7-1.7c0.2-0.9,0.3-1.7,0.3-2.6c0-0.8-0.3-1.2-0.5-2
		C223.6,125.8,222.9,124.6,222.1,124z M214.3,135.5l-2.9-5l0.5-0.3l2.5,4.3l7.7-7.7l0.4,0.4L214.3,135.5z"/>
	<path class="st3" d="M222.7,148.8c-0.2-0.2-0.4-0.4-0.5-0.6c-1.2-2.5-3.7-4.5-6.5-4.1c0,0,0,0,0,0c-1.2-0.1-2.4,0.2-3.5,0.7
		c-1.7,0.6-3.3,1.7-4,3.3c-0.4,0.8-0.5,1.3-0.5,2.2c0,0.4,0,0.9,0,1.3c0,0.2,0,0.4,0,0.6c0,0.3,0.2,0.4,0.2,0.6
		c0.5,2.1,0.5,4,2.9,4.9c0.5,0.2,1,0.3,1.4,0.4c0.7,0.4,1.5,0.6,2.3,0.7c0.6,0.2,1.2,0.4,1.8,0.5c1.9,0.3,3.8-1.4,5-2.6
		c1.2-1.2,2-2.9,2.4-4.4c0.2-0.8,0.4-1.2,0.1-1.9C223.5,149.7,223.2,149.4,222.7,148.8z M219.2,154.8l-0.4,0.4l-3.3-3.3l-3.3,3.3
		l-0.4-0.4l3.3-3.3l-3.3-3.3l0.4-0.4l3.3,3.3l3.3-3.3l0.4,0.4l-3.3,3.3L219.2,154.8z"/>
	<rect x="215" y="149.4" transform="matrix(0.7071 -0.7071 0.7071 0.7071 -42.1566 197.5218)" width="4.7" height="0.6"/>
	<rect x="211.3" y="153.1" transform="matrix(0.7071 -0.7071 0.7071 0.7071 -45.8598 195.9879)" width="4.7" height="0.6"/>
	<rect x="217.1" y="151" transform="matrix(0.7071 -0.7071 0.7071 0.7071 -44.7751 198.6064)" width="0.6" height="4.7"/>
	<rect x="213.4" y="147.3" transform="matrix(0.7071 -0.7071 0.7071 0.7071 -43.2412 194.9033)" width="0.6" height="4.7"/>
	<rect x="215.2" y="151.2" transform="matrix(0.7071 -0.7071 0.7071 0.7071 -44.0082 196.7548)" width="0.6" height="0.6"/>
	<polygon points="214.4,134.5 211.9,130.2 211.4,130.5 214.3,135.5 222.5,127.2 222.1,126.8 	"/>
	<path class="st4" d="M221.1,166.7c-0.9-0.5-1.7-1.5-2.7-1.7c-1-0.2-2.4,0-3.3,0.4c-0.3,0.2-0.6,0.5-0.9,0.7
		c-0.5,0.3-1.1,0.4-1.7,0.7c-0.8,0.4-1.7,0.6-2.2,1.3c-0.3,0.5-0.5,0.9-0.8,1.3c-0.2,0.2-0.4,0.4-0.5,0.7h14.7
		c-0.1-0.5-0.2-0.9-0.4-1.4C222.9,167.6,222.1,167.1,221.1,166.7z"/>
	<path class="st4" d="M208.2,3.2c-0.2,1.2,0.1,1.9,0.4,3.1c0.3,1,0.5,2.6,1.3,3.5c1.7,1.9,4.4,2.9,7,2.9c1.3,0,2.6-0.1,3.6-0.9
		c1.1-0.9,2.3-2,3.1-3.1c0.5-0.8,0.9-1.9,1.1-2.8c0.3-1.3-0.1-2.4-0.5-3.7c0-0.1,0-0.1,0-0.2c-0.1-0.6-0.2-1.3-0.4-1.9h-14.7
		c-0.1,0.2-0.2,0.3-0.3,0.5C208.5,1.4,208.4,2.3,208.2,3.2z"/>
	<path class="st3" d="M210.7,87.2l0.6-0.4l3.8,6.6l7.2-7.2c-1.2-2.5-3.8-4.2-6.8-4.2c-4.1,0-7.5,3.4-7.5,7.5s3.4,7.5,7.5,7.5
		s7.5-3.4,7.5-7.5c0-0.9-0.2-1.7-0.5-2.5l-7.6,7.6L210.7,87.2z"/>
	<path d="M226.7,81.7l-4.5,4.5c0.1,0.2,0.2,0.5,0.3,0.7l4.7-4.7L226.7,81.7z"/>
	<path d="M215.1,93.4l-3.8-6.6l-0.6,0.4l4.2,7.4l7.6-7.6c-0.1-0.2-0.2-0.5-0.3-0.7L215.1,93.4z"/>
	<path class="st6" d="M385,169.5c0-4.1,3.4-7.5,7.5-7.5c2.2,0,4.1,0.9,5.5,2.4v-9.8c-1.4,1.5-3.3,2.4-5.5,2.4
		c-4.1,0-7.5-3.4-7.5-7.5s3.4-7.5,7.5-7.5c2.2,0,4.1,0.9,5.5,2.4v-9.8c-1.4,1.5-3.3,2.4-5.5,2.4c-4.1,0-7.5-3.4-7.5-7.5
		s3.4-7.5,7.5-7.5c2.2,0,4.1,0.9,5.5,2.4V108c-0.2,0-0.3,0-0.5,0c-2.2,0.1-4.5,0-6.7,0c-1,0-2.1,0.1-3.2,0c-1.6-0.2-3.1-0.7-4.7-0.9
		c-1.5-0.1-2.9,0.3-4.3,0.1c-0.3,0-1.4-0.3-1.6,0c-0.1,0.2,0,0.6,0,0.8c0,0.5,0,0.9,0,1.4c0,3.1,0.1,6.1,0.1,9.2
		c0.1,5,0.1,10,0.2,14.9l0.3,27.8l0.1,8.6h7.3C385,169.8,385,169.7,385,169.5z"/>
	<path class="st3" d="M385,129.5c0,4.1,3.4,7.5,7.5,7.5c2.2,0,4.1-0.9,5.5-2.4v-6.1l-6.1,6.1l-4.2-7.4l0.6-0.4l3.8,6.6l5.9-5.9v-3.1
		c-1.4-1.5-3.3-2.4-5.5-2.4C388.4,122,385,125.4,385,129.5z"/>
	<polygon points="392.1,133.4 388.3,126.8 387.7,127.2 391.9,134.6 398,128.5 398,127.5 	"/>
	<path class="st3" d="M385,149.5c0,4.1,3.4,7.5,7.5,7.5c2.2,0,4.1-0.9,5.5-2.4v-10.2c-1.4-1.5-3.3-2.4-5.5-2.4
		C388.4,142,385,145.4,385,149.5z"/>
	<path class="st3" d="M385,169.5c0,0.2,0,0.3,0,0.5h4.3l-1.6-2.8l0.6-0.4l1.8,3.2h5.4l2.5-2.5v-3.1c-1.4-1.5-3.3-2.4-5.5-2.4
		C388.4,162,385,165.4,385,169.5z"/>
	<polygon class="st3" points="398,170 398,168.5 396.5,170 	"/>
	<polygon points="398,168.5 398,167.5 395.5,170 396.5,170 	"/>
	<polygon points="388.3,166.8 387.7,167.2 389.3,170 390.1,170 	"/>
	<path class="st6" d="M11,143.5c0-0.7,0-1.5,0-2.2c0-2.6,0-5.1,0-7.7c0-3.4,0-6.8,0-10.2c0-3.2,0-6.5,0-9.7c0-1.2,0-2.4,0-3.7
		c0-0.6,0.1-1.2,0-1.7c-0.1-0.5-0.3-0.7-0.8-0.6c-0.7,0.1-1.4,0-2.1,0.1c-0.3,0.1-0.5,0.1-0.8,0.1c-0.5,0-1.1,0-1.6,0
		c-1.9,0-3.8,0.1-5.7,0.1v16.4c0.5,0.5,0.9,1.2,1.3,1.8l4.5-4.5l0.5,0.5L1.5,127c0.3,0.8,0.5,1.7,0.5,2.5c0,2-0.8,3.7-2,5.1v9.8
		c1.2,1.3,2,3.1,2,5.1s-0.8,3.7-2,5.1v9.8c0.5,0.5,0.9,1.2,1.3,1.8l4.5-4.5l0.5,0.5L1.5,167c0.3,0.8,0.5,1.7,0.5,2.5
		c0,0.2,0,0.3,0,0.5h9v-7.6V143.5z"/>
	<path class="st3" d="M1.3,126.2c-0.3-0.7-0.8-1.3-1.3-1.8v3.1L1.3,126.2z"/>
	<path class="st3" d="M0,134.6c1.2-1.3,2-3.1,2-5.1c0-0.9-0.2-1.8-0.5-2.5L0,128.5V134.6z"/>
	<path d="M6.3,122.3l-0.5-0.5l-4.5,4.5c0.1,0.2,0.2,0.5,0.3,0.7L6.3,122.3z"/>
	<path d="M0,128.5l1.5-1.5c-0.1-0.2-0.2-0.5-0.3-0.7L0,127.5V128.5z"/>
	<path class="st3" d="M2,149.5c0-2-0.8-3.7-2-5.1v10.2C1.2,153.2,2,151.5,2,149.5z"/>
	<path class="st3" d="M1.3,166.2c-0.3-0.7-0.8-1.3-1.3-1.8v3.1L1.3,166.2z"/>
	<path class="st3" d="M0,170h2c0-0.2,0-0.3,0-0.5c0-0.9-0.2-1.8-0.5-2.5L0,168.5V170z"/>
	<path d="M6.3,162.3l-0.5-0.5l-4.5,4.5c0.1,0.2,0.2,0.5,0.3,0.7L6.3,162.3z"/>
	<path d="M0,168.5l1.5-1.5c-0.1-0.2-0.2-0.5-0.3-0.7L0,167.5V168.5z"/>
	<path class="st7" d="M119.1,95.6l0.8,52.8l70.8,2.2l-1-55.6L119.1,95.6z M122.6,104.8c0.1-0.3,0.1-0.7,0.2-1
		c0.1-0.4,0.4-0.6,0.7-0.9c0.3-0.3,0.6-0.7,1-0.9c0.9-0.5,1.9-0.1,2.8,0.1c1.5,0.5,3.2,2.6,2.6,4.4c-0.1,0.2-0.2,0.4-0.3,0.6
		c-0.7,1.2-2.1,1.8-3.5,1.9c0,0-0.1,0-0.1,0l-0.3,0c-0.1,0-0.1,0-0.2,0l-0.2,0c0,0,0,0-0.1,0c-0.3,0-0.6-0.1-0.9-0.4
		c-0.5-0.4-1.3-0.8-1.5-1.5C122.6,106.4,122.4,105.6,122.6,104.8z M122.7,115.2c0.3-0.7,0.7-1.4,1.4-1.8c0.3-0.2,0.6-0.4,0.9-0.6
		c0.4-0.2,0.8-0.2,1.2-0.2c0.4,0,0.9-0.1,1.3,0.1c0.9,0.3,1.4,1.3,1.9,2c0.7,1.5,0.4,4.1-1.3,5c-0.2,0.1-0.4,0.2-0.6,0.2
		c-1.4,0.4-2.8-0.2-3.8-1.1c0,0-0.1-0.1-0.1-0.1l-0.2-0.2c0,0-0.1-0.1-0.1-0.1l-0.1-0.1c0,0,0,0,0,0c-0.2-0.3-0.4-0.6-0.4-0.9
		C122.6,116.7,122.3,115.8,122.7,115.2z M129.9,139.5c-0.1,0.2-0.2,0.4-0.3,0.6c-0.7,1.2-2.1,1.8-3.5,1.9c0,0-0.1,0-0.1,0l-0.3,0
		c-0.1,0-0.1,0-0.2,0l-0.2,0c0,0,0,0-0.1,0c-0.3,0-0.6-0.1-0.9-0.4c-0.5-0.4-1.3-0.8-1.5-1.5c-0.3-0.7-0.4-1.5-0.2-2.3
		c0.1-0.3,0.1-0.7,0.2-1c0.1-0.4,0.4-0.6,0.7-0.9c0.3-0.3,0.6-0.7,1-0.9c0.9-0.5,1.9-0.1,2.8,0.1
		C128.8,135.7,130.5,137.8,129.9,139.5z M130.7,129.8c-0.4,0.8-1.2,1.3-1.9,1.6c-0.8,0.3-1.6,0.7-2.5,0.5c-0.7-0.2-1.3-0.2-1.9-0.6
		c-0.3-0.2-0.6-0.5-0.8-0.9c-0.4-0.7-0.5-1.6-0.5-2.4c0-0.4,0-0.8,0.1-1.2c0.2-0.3,0.3-0.7,0.5-1c0.2-0.3,0.4-0.7,0.6-1
		c0.3-0.3,0.7-0.5,1.1-0.6c0.6-0.3,1.1-0.5,1.7-0.5c0.2,0,0.4,0,0.6,0c0.2,0,0.3,0.1,0.5,0.1c-0.2,0.1,0.1,0.1,0.5,0.3
		c0.3,0.2,0.4,0.2,0.6,0.5c0.2,0.3,0.5,0.6,0.6,1c0.1,0.2,0.2,0.3,0.3,0.5c0.1,0.2,0.1,0.4,0.2,0.7
		C130.5,127.9,131.2,128.8,130.7,129.8z M132,141v-5l51,1l1,5L132,141z M133,130v-5h50v4L133,130z M132,119v-5l51,1l1,6L132,119z
		 M132,108v-5l51,1l1,5L132,108z"/>
	<path class="st4" d="M124.3,108.6c0.3,0.2,0.6,0.3,0.9,0.4c0,0,0,0,0.1,0l0.2,0c0.1,0,0.1,0,0.2,0l0.3,0c0,0,0.1,0,0.1,0
		c1.4-0.1,2.8-0.7,3.5-1.9c0.1-0.2,0.2-0.4,0.3-0.6c0.6-1.8-1.1-3.9-2.6-4.4c-0.9-0.1-1.9-0.5-2.8-0.1c-0.4,0.2-0.7,0.6-1,0.9
		c-0.3,0.3-0.6,0.5-0.7,0.9c-0.1,0.3-0.1,0.7-0.2,1c-0.2,0.8,0,1.5,0.2,2.3C123.1,107.8,123.8,108.2,124.3,108.6z"/>
	<path class="st5" d="M123,118.2C123.1,118.2,123.1,118.2,123,118.2l0.1,0.2c0,0,0.1,0.1,0.1,0.1l0.2,0.2c0,0,0.1,0.1,0.1,0.1
		c1,0.9,2.4,1.5,3.8,1.1c0.2-0.1,0.4-0.1,0.6-0.2c1.7-0.8,2-3.5,1.3-5c-0.5-0.7-1-1.8-1.9-2c-0.4-0.1-0.9-0.1-1.3-0.1
		c-0.4,0-0.8,0-1.2,0.2c-0.3,0.2-0.5,0.4-0.9,0.6c-0.7,0.4-1.1,1.1-1.4,1.8c-0.3,0.6-0.1,1.5,0,2.1C122.7,117.7,122.8,118,123,118.2
		z"/>
	<polygon class="st8" points="132,103 132,108 184,109 183,104 	"/>
	<polygon class="st8" points="132,114 132,119 184,121 183,115 	"/>
	<path class="st4" d="M130.1,126.3c-0.1-0.2-0.2-0.3-0.3-0.5c-0.2-0.4-0.4-0.7-0.6-1c-0.2-0.3-0.2-0.4-0.6-0.5
		c-0.3-0.2-0.6-0.2-0.5-0.3c-0.2,0-0.3-0.1-0.5-0.1c-0.2,0-0.4,0-0.6,0c-0.6,0-1.1,0.2-1.7,0.5c-0.4,0.2-0.8,0.3-1.1,0.6
		c-0.3,0.3-0.4,0.6-0.6,1c-0.2,0.3-0.3,0.7-0.5,1c-0.2,0.4-0.1,0.8-0.1,1.2c0,0.8,0.1,1.7,0.5,2.4c0.2,0.3,0.4,0.7,0.8,0.9
		c0.6,0.4,1.3,0.4,1.9,0.6c0.9,0.2,1.7-0.2,2.5-0.5c0.8-0.3,1.5-0.9,1.9-1.6c0.6-1-0.1-1.9-0.4-2.9
		C130.2,126.7,130.3,126.5,130.1,126.3z"/>
	<polygon class="st8" points="183,125 133,125 133,130 183,129 	"/>
	<path class="st5" d="M127.3,135.1c-0.9-0.1-1.9-0.5-2.8-0.1c-0.4,0.2-0.7,0.6-1,0.9c-0.3,0.3-0.6,0.5-0.7,0.9
		c-0.1,0.3-0.1,0.7-0.2,1c-0.2,0.8,0,1.5,0.2,2.3c0.2,0.7,1,1.1,1.5,1.5c0.3,0.2,0.6,0.3,0.9,0.4c0,0,0,0,0.1,0l0.2,0
		c0.1,0,0.1,0,0.2,0l0.3,0c0,0,0.1,0,0.1,0c1.4-0.1,2.8-0.7,3.5-1.9c0.1-0.2,0.2-0.4,0.3-0.6C130.5,137.8,128.8,135.7,127.3,135.1z"
		/>
	<polygon class="st8" points="132,136 132,141 184,142 183,137 	"/>
	<path class="st7" d="M331,70.3l67,2.1V17l-67.9,0.6L331,70.3z M340.9,61.5c-0.1,0.2-0.2,0.4-0.3,0.6c-0.7,1.2-2.1,1.8-3.5,1.9
		c0,0-0.1,0-0.1,0l-0.3,0c-0.1,0-0.1,0-0.2,0l-0.2,0c0,0,0,0-0.1,0c-0.3,0-0.6-0.1-0.9-0.4c-0.5-0.4-1.3-0.8-1.5-1.5
		c-0.3-0.7-0.4-1.5-0.2-2.3c0.1-0.3,0.1-0.7,0.2-1c0.1-0.4,0.4-0.6,0.7-0.9c0.3-0.3,0.6-0.7,1-0.9c0.9-0.5,1.9-0.1,2.8,0.1
		C339.8,57.7,341.5,59.8,340.9,61.5z M343,25l51,1l1,5l-52-1V25z M343,36l51,1l1,6l-52-2V36z M394,47v4l-50,1v-5H394z M343,58l51,1
		l1,5l-52-1V58z M341.3,48.9c0.2,0.9,0.9,1.9,0.4,2.9c-0.4,0.8-1.2,1.3-1.9,1.6c-0.8,0.3-1.6,0.7-2.5,0.5c-0.7-0.2-1.3-0.2-1.9-0.6
		c-0.3-0.2-0.6-0.5-0.8-0.9c-0.4-0.7-0.5-1.6-0.5-2.4c0-0.4,0-0.8,0.1-1.2c0.2-0.3,0.3-0.7,0.5-1c0.2-0.3,0.4-0.7,0.6-1
		c0.3-0.3,0.7-0.5,1.1-0.6c0.6-0.3,1.1-0.5,1.7-0.5c0.2,0,0.4,0,0.6,0c0.2,0,0.3,0.1,0.5,0.1c-0.2,0.1,0.1,0.1,0.5,0.3
		c0.3,0.2,0.4,0.2,0.6,0.5c0.2,0.3,0.5,0.6,0.6,1c0.1,0.2,0.2,0.3,0.3,0.5C341.3,48.5,341.2,48.7,341.3,48.9z M333.6,26.8
		c0.1-0.3,0.1-0.7,0.2-1c0.1-0.4,0.4-0.6,0.7-0.9c0.3-0.3,0.6-0.7,1-0.9c0.9-0.5,1.9-0.1,2.8,0.1c1.5,0.5,3.2,2.6,2.6,4.4
		c-0.1,0.2-0.2,0.4-0.3,0.6c-0.7,1.2-2.1,1.8-3.5,1.9c0,0-0.1,0-0.1,0l-0.3,0c-0.1,0-0.1,0-0.2,0l-0.2,0c0,0,0,0-0.1,0
		c-0.3,0-0.6-0.1-0.9-0.4c-0.5-0.4-1.3-0.8-1.5-1.5C333.6,28.4,333.4,27.6,333.6,26.8z M333.7,37.2c0.3-0.7,0.7-1.4,1.4-1.8
		c0.3-0.2,0.6-0.4,0.9-0.6c0.4-0.2,0.8-0.2,1.2-0.2c0.4,0,0.9-0.1,1.3,0.1c0.9,0.3,1.4,1.3,1.9,2c0.7,1.5,0.4,4.1-1.3,5
		c-0.2,0.1-0.4,0.2-0.6,0.2c-1.4,0.4-2.8-0.2-3.8-1.1c0,0-0.1-0.1-0.1-0.1l-0.2-0.2c0,0-0.1-0.1-0.1-0.1l-0.1-0.1c0,0,0,0,0,0
		c-0.2-0.3-0.4-0.6-0.4-0.9C333.6,38.7,333.3,37.8,333.7,37.2z"/>
	<path class="st4" d="M335.3,30.6c0.3,0.2,0.6,0.3,0.9,0.4c0,0,0,0,0.1,0l0.2,0c0.1,0,0.1,0,0.2,0l0.3,0c0,0,0.1,0,0.1,0
		c1.4-0.1,2.8-0.7,3.5-1.9c0.1-0.2,0.2-0.4,0.3-0.6c0.6-1.8-1.1-3.9-2.6-4.4c-0.9-0.1-1.9-0.5-2.8-0.1c-0.4,0.2-0.7,0.6-1,0.9
		c-0.3,0.3-0.6,0.5-0.7,0.9c-0.1,0.3-0.1,0.7-0.2,1c-0.2,0.8,0,1.5,0.2,2.3C334.1,29.8,334.8,30.2,335.3,30.6z"/>
	<path class="st5" d="M334,40.2C334.1,40.2,334.1,40.2,334,40.2l0.1,0.2c0,0,0.1,0.1,0.1,0.1l0.2,0.2c0,0,0.1,0.1,0.1,0.1
		c1,0.9,2.4,1.5,3.8,1.1c0.2-0.1,0.4-0.1,0.6-0.2c1.7-0.8,2-3.5,1.3-5c-0.5-0.7-1-1.8-1.9-2c-0.4-0.1-0.9-0.1-1.3-0.1
		c-0.4,0-0.8,0-1.2,0.2c-0.3,0.2-0.5,0.4-0.9,0.6c-0.7,0.4-1.1,1.1-1.4,1.8c-0.3,0.6-0.1,1.5,0,2.1C333.7,39.7,333.8,40,334,40.2z"
		/>
	<polygon class="st8" points="394,26 343,25 343,30 395,31 	"/>
	<polygon class="st8" points="394,37 343,36 343,41 395,43 	"/>
	<path class="st4" d="M340.2,46.8c-0.2-0.3-0.2-0.4-0.6-0.5c-0.3-0.2-0.6-0.2-0.5-0.3c-0.2,0-0.3-0.1-0.5-0.1c-0.2,0-0.4,0-0.6,0
		c-0.6,0-1.1,0.2-1.7,0.5c-0.4,0.2-0.8,0.3-1.1,0.6c-0.3,0.3-0.4,0.6-0.6,1c-0.2,0.3-0.3,0.7-0.5,1c-0.2,0.4-0.1,0.8-0.1,1.2
		c0,0.8,0.1,1.7,0.5,2.4c0.2,0.3,0.4,0.7,0.8,0.9c0.6,0.4,1.3,0.4,1.9,0.6c0.9,0.2,1.7-0.2,2.5-0.5c0.8-0.3,1.5-0.9,1.9-1.6
		c0.6-1-0.1-1.9-0.4-2.9c-0.1-0.2,0-0.5-0.2-0.7c-0.1-0.2-0.2-0.3-0.3-0.5C340.7,47.4,340.4,47.1,340.2,46.8z"/>
	<polygon class="st8" points="394,51 394,47 344,47 344,52 	"/>
	<path class="st5" d="M338.3,57.1c-0.9-0.1-1.9-0.5-2.8-0.1c-0.4,0.2-0.7,0.6-1,0.9c-0.3,0.3-0.6,0.5-0.7,0.9
		c-0.1,0.3-0.1,0.7-0.2,1c-0.2,0.8,0,1.5,0.2,2.3c0.2,0.7,1,1.1,1.5,1.5c0.3,0.2,0.6,0.3,0.9,0.4c0,0,0,0,0.1,0l0.2,0
		c0.1,0,0.1,0,0.2,0l0.3,0c0,0,0.1,0,0.1,0c1.4-0.1,2.8-0.7,3.5-1.9c0.1-0.2,0.2-0.4,0.3-0.6C341.5,59.8,339.8,57.7,338.3,57.1z"/>
	<polygon class="st8" points="394,59 343,58 343,63 395,64 	"/>
	<polygon class="st7" points="2.8,17 0,17 0,72.5 3.8,72.6 	"/>
	<rect x="252" y="129.9" transform="matrix(0.7071 -0.7071 0.7071 0.7071 -16.5059 220.4482)" width="11.7" height="0.6"/>
	<rect x="243.3" y="138.6" transform="matrix(0.7071 -0.7071 0.7071 0.7071 -25.209 216.8432)" width="11.7" height="0.6"/>
	<rect x="248.9" y="124.3" transform="matrix(0.7071 -0.7071 0.7071 0.7071 -19.055 214.2941)" width="0.6" height="11.7"/>
	<rect x="257.6" y="133" transform="matrix(0.7071 -0.7071 0.7071 0.7071 -22.6599 222.9973)" width="0.6" height="11.7"/>
	<rect x="253.2" y="134.2" transform="matrix(0.7071 -0.7071 0.7071 0.7071 -20.8574 218.6457)" width="0.6" height="0.6"/>
	<path class="st7" d="M368.1,114l-70,0.3l-2,25.7l73,0.7l-0.6-14.2C368.4,126.6,368.7,114.6,368.1,114z M357.7,137.3
		c-0.9,0.6-1.8,0.9-2.9,1.2c-1.1,0.3-2.3,0.2-3.4,0.2c-0.4,0-0.8,0-1.2,0c-0.3,0-0.7-0.2-1-0.2c-0.2,0-0.5,0.1-0.7,0
		c-0.4-0.1-0.9-0.6-1.3-0.8c-0.5-0.3-1.1-0.7-1.5-1.1c-0.9-0.7-1.4-1.4-1.9-2.4c-0.5-0.9-0.8-1.9-1-2.9c-0.1-0.4-0.1-0.8-0.2-1.2
		c-0.9,4.6-4.7,8.1-9.4,8.4c-0.3,0.1-0.6,0.2-0.9,0.2c-0.6,0.1-1.1,0.3-1.7,0.4c-0.4,0.1-1,0-1.4,0c-0.8,0-1.6,0-2.4-0.4
		c-0.9-0.4-1.8-1-2.5-1.8c-0.8-1-1.2-2.1-1.7-3.2c-0.5-1.1-0.8-2-0.9-3.1c0-0.5-0.1-0.9-0.2-1.4c-0.1,0.5-0.2,0.9-0.3,1.4
		c-0.1,0.5-0.2,0.9-0.4,1.3c-0.2,0.5-0.6,0.9-1,1.3c-0.9,1-1.8,2.2-3,2.8c-0.5,0.3-1,0.7-1.5,1c-0.5,0.4-1.2,0.5-1.8,0.7
		c-1.4,0.4-2.8,0.6-4.2,0.4c-0.9-0.1-1.9-0.3-2.5-0.9c-1-0.8-1.8-1.8-2.7-2.7c-0.5-0.5-0.8-0.9-1.2-1.5c-0.3-0.4-0.7-0.7-0.9-1.1
		c-0.5-0.9-0.8-2.3-0.8-3.4c0-1.5-0.3-3.4,0.7-4.7c0.3-0.4,0.7-0.8,1-1.2c0.3-0.3,0.5-0.6,0.8-0.9c0.6-0.6,1.4-1,2.1-1.5
		c0.8-0.5,1.4-1.1,2.2-1.5c0.3-0.2,0.7-0.3,1.1-0.5c0.4-0.3,0.9-0.4,1.3-0.6c0.7-0.3,1.3-0.3,2-0.3c1.4,0,2.8,0.6,4,1.4
		c0.2,0.2,0.6,0.2,0.8,0.3c0.2,0.1,0.4,0.4,0.5,0.5c0.5,0.5,1.1,0.8,1.6,1.4c0.4,0.5,0.6,1.1,0.8,1.6c0.3,0.6,0.3,1.2,0.5,1.8
		c0.2,0.6,0.4,0.9,0.5,1.5c0,0.5,0.2,1,0.4,1.5c0.1-1.2,0.6-2.3,1-3.4c0.3-0.8,0.7-1.6,1.2-2.2c0.5-0.5,1-0.8,1.6-1.1
		c0.3-0.1,0.5-0.3,0.7-0.4c0.9-0.7,2-1.3,3.1-1.7c0.6-0.2,1.1-0.2,1.6-0.2c0.4-0.1,0.8-0.2,1.2-0.3c0.6-0.1,1.3-0.1,2,0
		c0.5-0.1,1-0.1,1.6,0c0.5,0.1,0.9,0.4,1.3,0.7c1,0.7,2.2,1.3,3.2,2c0.5,0.4,0.8,1,1.2,1.4c0.3,0.3,0.6,0.5,0.8,1
		c0.1,0.2,0.1,0.4,0.2,0.6c0.3,1,0.6,1.8,0.6,2.8c0-0.2,0.1-0.3,0.1-0.5c0.2-0.7,0.6-1.4,1.1-2c0.1-0.1,0.2-0.2,0.2-0.3
		c0.6-1.4,1.5-2.6,2.6-3.6c1.5-1.3,3.7-2.6,5.7-2.5c0.2,0,0.4,0,0.6,0.1c1.3-0.3,2.7-0.1,4,0.3c0.3,0.1,0.6,0.2,0.9,0.4
		c0.4,0.2,0.8,0.4,1.1,0.6c3,1.9,4.9,5.2,4.9,8.8C364,132,361.4,135.7,357.7,137.3z"/>
	<path class="st8" d="M321.5,127.3c0,0,0-0.1,0-0.1c-0.2-0.5-0.4-1-0.4-1.5c0-0.6-0.3-0.9-0.5-1.5c-0.2-0.6-0.2-1.2-0.5-1.8
		c-0.2-0.5-0.4-1.1-0.8-1.6c-0.5-0.6-1.1-0.9-1.6-1.4c-0.2-0.1-0.4-0.4-0.5-0.5c-0.2-0.1-0.5-0.2-0.8-0.3c-1.2-0.7-2.6-1.4-4-1.4
		c-0.8,0-1.3,0-2,0.3c-0.4,0.2-0.9,0.4-1.3,0.6c-0.3,0.2-0.7,0.3-1.1,0.5c-0.8,0.4-1.5,1.1-2.2,1.5c-0.7,0.4-1.5,0.9-2.1,1.5
		c-0.3,0.3-0.5,0.6-0.8,0.9c-0.3,0.4-0.7,0.8-1,1.2c-1,1.3-0.7,3.2-0.7,4.7c0,1.1,0.2,2.4,0.8,3.4c0.2,0.4,0.6,0.8,0.9,1.1
		c0.4,0.5,0.7,1,1.2,1.5c0.9,0.9,1.8,1.9,2.7,2.7c0.7,0.6,1.7,0.7,2.5,0.9c1.4,0.2,2.8,0,4.2-0.4c0.6-0.2,1.3-0.3,1.8-0.7
		c0.5-0.3,1-0.7,1.5-1c1.2-0.7,2.1-1.8,3-2.8c0.3-0.4,0.7-0.8,1-1.3c0.2-0.4,0.3-0.9,0.4-1.3c0.1-0.5,0.2-0.9,0.3-1.4
		c0-0.1,0-0.2,0-0.3C321.5,128.2,321.5,127.8,321.5,127.3z"/>
	<path class="st8" d="M342.5,128.5c0.1-0.3,0.2-0.5,0.2-0.8c0-0.2-0.1-0.5,0-0.7c0-0.1,0.1-0.3,0.1-0.4c0-1-0.3-1.9-0.6-2.8
		c-0.1-0.2-0.1-0.4-0.2-0.6c-0.2-0.4-0.5-0.7-0.8-1c-0.4-0.5-0.7-1-1.2-1.4c-1-0.7-2.2-1.3-3.2-2c-0.4-0.3-0.8-0.6-1.3-0.7
		c-0.5-0.1-1-0.1-1.6,0c-0.7-0.1-1.4-0.2-2,0c-0.4,0.1-0.8,0.2-1.2,0.3c-0.5,0-1,0-1.6,0.2c-1.1,0.4-2.2,1-3.1,1.7
		c-0.2,0.1-0.5,0.3-0.7,0.4c-0.6,0.3-1.1,0.6-1.6,1.1c-0.6,0.6-1,1.4-1.2,2.2c-0.4,1.1-0.9,2.2-1,3.4c0.1,0.3,0.2,0.6,0.2,1
		c0,0.1,0,0.2,0,0.2c0,0.2-0.1,0.5-0.2,0.7c0,0.5,0.1,0.9,0.2,1.4c0.1,1.2,0.4,2.1,0.9,3.1c0.5,1.1,0.9,2.3,1.7,3.2
		c0.6,0.8,1.6,1.4,2.5,1.8c0.8,0.3,1.5,0.4,2.4,0.4c0.4,0,1,0.1,1.4,0c0.6-0.1,1.1-0.3,1.7-0.4c0.3,0,0.6-0.1,0.9-0.2
		c4.7-0.3,8.6-3.8,9.4-8.4C342.4,129.5,342.4,129,342.5,128.5z"/>
	<path class="st8" d="M321.7,128.1c0-0.3-0.1-0.6-0.2-1c0,0,0,0.1,0,0.1c0,0.5,0,0.9,0,1.4c0,0.1,0,0.2,0,0.3
		c0.1-0.2,0.1-0.5,0.2-0.7C321.7,128.3,321.7,128.2,321.7,128.1z"/>
	<path class="st6" d="M359.1,119c-0.4-0.2-0.7-0.4-1.1-0.6c-0.3-0.2-0.6-0.3-0.9-0.4c-1.3-0.5-2.7-0.7-4-0.3c-0.2,0-0.4,0-0.6-0.1
		c-2-0.1-4.2,1.2-5.7,2.5c-1.1,1-2,2.2-2.6,3.6c-0.1,0.1-0.2,0.2-0.2,0.3c-0.4,0.6-0.9,1.3-1.1,2c0,0.1-0.1,0.3-0.1,0.5c0,0,0,0,0,0
		c0,0.7,0,1.4-0.1,2.2c0,0.5-0.1,0.9-0.2,1.3c0.1,0.4,0.1,0.8,0.2,1.2c0.2,1,0.5,2,1,2.9c0.6,1,1,1.7,1.9,2.4c0.5,0.4,1,0.7,1.5,1.1
		c0.4,0.2,0.9,0.7,1.3,0.8c0.2,0,0.5,0,0.7,0c0.3,0,0.7,0.2,1,0.2c0.4,0,0.8,0,1.2,0c1.1,0,2.3,0.1,3.4-0.2c1.1-0.3,2-0.6,2.9-1.2
		c3.7-1.6,6.3-5.2,6.3-9.5C364,124.2,362.1,120.8,359.1,119z"/>
	<path class="st6" d="M342.8,126.5C342.8,126.5,342.8,126.5,342.8,126.5c0,0.1-0.1,0.3-0.1,0.4c0,0.2,0,0.5,0,0.7
		c0,0.3-0.1,0.5-0.2,0.8c-0.1,0.5-0.1,1,0,1.5c0.1-0.4,0.1-0.9,0.2-1.3C342.8,128,342.8,127.3,342.8,126.5z"/>
	<path class="st4" d="M170.4,45.7c0,0,0.3-11.9-0.3-12.6l-70,0.3l-2,25.7l73,0.7L170.4,45.7z M159.7,56.4c-0.9,0.6-1.8,0.9-2.9,1.2
		c-1.1,0.3-2.3,0.2-3.4,0.2c-0.4,0-0.8,0-1.2,0c-0.3,0-0.7-0.2-1-0.2c-0.2,0-0.5,0.1-0.7,0c-0.4-0.1-0.9-0.6-1.3-0.8
		c-0.5-0.3-1.1-0.7-1.5-1.1c-0.9-0.7-1.4-1.4-1.9-2.4c-0.5-0.9-0.8-1.9-1-2.9c-0.1-0.6-0.2-1.2-0.2-1.9c-1,4.4-4.7,7.8-9.4,8.1
		c-0.3,0.1-0.6,0.2-0.9,0.2c-0.6,0.1-1.1,0.3-1.7,0.4c-0.4,0.1-1,0-1.4,0c-0.8,0-1.6,0-2.4-0.4c-0.9-0.4-1.8-1-2.5-1.8
		c-0.8-1-1.2-2.1-1.7-3.2c-0.5-1.1-0.8-2-0.9-3.1c0-0.5-0.1-0.9-0.2-1.4c-0.1,0.5-0.2,0.9-0.3,1.4c-0.1,0.5-0.2,0.9-0.4,1.3
		c-0.2,0.5-0.6,0.9-1,1.3c-0.9,1-1.8,2.2-3,2.8c-0.5,0.3-1,0.7-1.5,1c-0.5,0.4-1.2,0.5-1.8,0.7c-1.4,0.4-2.8,0.6-4.2,0.4
		c-0.9-0.1-1.9-0.3-2.5-0.9c-1-0.8-1.8-1.8-2.7-2.7c-0.5-0.5-0.8-0.9-1.2-1.5c-0.3-0.4-0.7-0.7-0.9-1.1c-0.5-0.9-0.8-2.3-0.8-3.4
		c0-1.5-0.3-3.4,0.7-4.7c0.3-0.4,0.7-0.8,1-1.2c0.3-0.3,0.5-0.6,0.8-0.9c0.6-0.6,1.4-1,2.1-1.5c0.8-0.5,1.4-1.1,2.2-1.5
		c0.3-0.2,0.7-0.3,1.1-0.5c0.4-0.3,0.9-0.4,1.3-0.6c0.7-0.3,1.3-0.3,2-0.3c1.4,0,2.8,0.6,4,1.4c0.2,0.2,0.6,0.2,0.8,0.3
		c0.2,0.1,0.4,0.4,0.5,0.5c0.5,0.5,1.1,0.8,1.6,1.4c0.4,0.5,0.6,1.1,0.8,1.6c0.3,0.6,0.3,1.2,0.5,1.8c0.2,0.6,0.4,0.9,0.5,1.5
		c0,0.5,0.2,1,0.4,1.5c0.1-1.2,0.6-2.3,1-3.4c0.3-0.8,0.7-1.6,1.2-2.2c0.5-0.5,1-0.8,1.6-1.1c0.3-0.1,0.5-0.3,0.7-0.4
		c0.9-0.7,2-1.3,3.1-1.7c0.6-0.2,1.1-0.2,1.6-0.2c0.4-0.1,0.8-0.2,1.2-0.3c0.6-0.1,1.3-0.1,2,0c0.5-0.1,1-0.1,1.6,0
		c0.5,0.1,0.9,0.4,1.3,0.7c1,0.7,2.2,1.3,3.2,2c0.5,0.4,0.8,1,1.2,1.4c0.3,0.3,0.6,0.5,0.8,1c0.1,0.2,0.1,0.4,0.2,0.6
		c0.3,1,0.6,1.8,0.6,2.9c0,0.4,0,0.7,0,1c0-0.2,0.1-0.4,0.1-0.5c0.2-0.7,0.6-1.4,1.1-2c0.1-0.1,0.2-0.2,0.2-0.3
		c0.6-1.4,1.5-2.6,2.6-3.6c1.5-1.3,3.7-2.6,5.7-2.5c0.2,0,0.4,0,0.6,0.1c1.3-0.3,2.7-0.1,4,0.3c0.3,0.1,0.6,0.2,0.9,0.4
		c0.4,0.2,0.8,0.4,1.1,0.6c3,1.9,4.9,5.2,4.9,8.8C166,51.1,163.4,54.8,159.7,56.4z"/>
	<path class="st4" d="M144.7,46.8C144.7,46.8,144.7,46.8,144.7,46.8c0-0.1,0-0.1,0-0.2C144.7,46.7,144.7,46.7,144.7,46.8
		C144.7,46.8,144.7,46.8,144.7,46.8z"/>
	<path class="st6" d="M123.5,45.4c0,0,0-0.1,0-0.1c-0.2-0.5-0.4-1-0.4-1.5c0-0.6-0.3-0.9-0.5-1.5c-0.2-0.6-0.2-1.2-0.5-1.8
		c-0.2-0.5-0.4-1.1-0.8-1.6c-0.5-0.6-1.1-0.9-1.6-1.4c-0.2-0.1-0.4-0.4-0.5-0.5c-0.2-0.1-0.5-0.2-0.8-0.3c-1.2-0.7-2.6-1.4-4-1.4
		c-0.8,0-1.3,0-2,0.3c-0.4,0.2-0.9,0.4-1.3,0.6c-0.3,0.2-0.7,0.3-1.1,0.5c-0.8,0.4-1.5,1.1-2.2,1.5c-0.7,0.4-1.5,0.9-2.1,1.5
		c-0.3,0.3-0.5,0.6-0.8,0.9c-0.3,0.4-0.7,0.8-1,1.2c-1,1.3-0.7,3.2-0.7,4.7c0,1.1,0.2,2.4,0.8,3.4c0.2,0.4,0.6,0.8,0.9,1.1
		c0.4,0.5,0.7,1,1.2,1.5c0.9,0.9,1.8,1.9,2.7,2.7c0.7,0.6,1.7,0.7,2.5,0.9c1.4,0.2,2.8,0,4.2-0.4c0.6-0.2,1.3-0.3,1.8-0.7
		c0.5-0.3,1-0.7,1.5-1c1.2-0.7,2.1-1.8,3-2.8c0.3-0.4,0.7-0.8,1-1.3c0.2-0.4,0.3-0.9,0.4-1.3c0.1-0.5,0.2-0.9,0.3-1.4
		c0-0.1,0-0.2,0-0.3C123.5,46.3,123.5,45.8,123.5,45.4z"/>
	<path class="st6" d="M144.5,47.6c0.1-0.3,0.1-0.5,0.2-0.7c0,0,0,0,0-0.1c0,0,0-0.1,0-0.1c0-0.2,0-0.4,0-0.6c0-0.1,0.1-0.3,0.1-0.4
		c0-0.3,0-0.7,0-1c0-1-0.3-1.9-0.6-2.9c-0.1-0.2-0.1-0.4-0.2-0.6c-0.2-0.4-0.5-0.7-0.8-1c-0.4-0.5-0.7-1-1.2-1.4
		c-1-0.7-2.2-1.3-3.2-2c-0.4-0.3-0.8-0.6-1.3-0.7c-0.5-0.1-1-0.1-1.6,0c-0.7-0.1-1.4-0.2-2,0c-0.4,0.1-0.8,0.2-1.2,0.3
		c-0.5,0-1,0-1.6,0.2c-1.1,0.4-2.2,1-3.1,1.7c-0.2,0.1-0.5,0.3-0.7,0.4c-0.6,0.3-1.1,0.6-1.6,1.1c-0.6,0.6-1,1.4-1.2,2.2
		c-0.4,1.1-0.9,2.2-1,3.4c0.1,0.3,0.2,0.6,0.2,1c0,0.1,0,0.2,0,0.2c0,0.2-0.1,0.5-0.2,0.7c0,0.5,0.1,0.9,0.2,1.4
		c0.1,1.2,0.4,2.1,0.9,3.1c0.5,1.1,0.9,2.3,1.7,3.2c0.6,0.8,1.6,1.4,2.5,1.8c0.8,0.3,1.5,0.4,2.4,0.4c0.4,0,1,0.1,1.4,0
		c0.6-0.1,1.1-0.3,1.7-0.4c0.3,0,0.6-0.1,0.9-0.2c4.6-0.3,8.4-3.7,9.4-8.1C144.4,48.1,144.4,47.8,144.5,47.6z"/>
	<path class="st6" d="M123.7,46.2c0-0.3-0.1-0.6-0.2-1c0,0,0,0.1,0,0.1c0,0.5,0,0.9,0,1.4c0,0.1,0,0.2,0,0.3
		c0.1-0.2,0.1-0.5,0.2-0.7C123.7,46.4,123.7,46.3,123.7,46.2z"/>
	<path class="st5" d="M161.1,38c-0.4-0.2-0.7-0.4-1.1-0.6c-0.3-0.2-0.6-0.3-0.9-0.4c-1.3-0.5-2.7-0.7-4-0.3c-0.2,0-0.4,0-0.6-0.1
		c-2-0.1-4.2,1.2-5.7,2.5c-1.1,1-2,2.2-2.6,3.6c-0.1,0.1-0.2,0.2-0.2,0.3c-0.4,0.6-0.9,1.3-1.1,2c0,0.2-0.1,0.4-0.1,0.5
		c0,0.3,0,0.7-0.1,1c0,0,0,0.1,0,0.1c0,0,0,0.1,0,0.1c0,0.5-0.1,1.1-0.2,1.6c0,0.6,0.1,1.3,0.2,1.9c0.2,1,0.5,2,1,2.9
		c0.6,1,1,1.7,1.9,2.4c0.5,0.4,1,0.7,1.5,1.1c0.4,0.2,0.9,0.7,1.3,0.8c0.2,0,0.5,0,0.7,0c0.3,0,0.7,0.2,1,0.2c0.4,0,0.8,0,1.2,0
		c1.1,0,2.3,0.1,3.4-0.2c1.1-0.3,2-0.6,2.9-1.2c3.7-1.6,6.3-5.2,6.3-9.5C166,43.3,164.1,39.9,161.1,38z"/>
	<path class="st5" d="M144.5,47.6c0,0.3-0.1,0.6,0,0.8c0.1-0.5,0.2-1,0.2-1.6C144.6,47.1,144.5,47.3,144.5,47.6z"/>
	<path class="st5" d="M144.7,46.7c0-0.3,0.1-0.7,0.1-1c0,0.1-0.1,0.3-0.1,0.4C144.6,46.2,144.7,46.5,144.7,46.7z"/>
	<path class="st8" d="M66.1,48.6c1.2-0.2,2.3-0.3,3.4-0.6c0.6,0,1,0,1,0c3.6,0,6.5-2.9,6.5-6.5c0-2.3-1.2-4.3-3-5.4
		c-0.8-0.8-1.7-1.4-2.7-1.8c-0.9-0.4-1.9-0.7-2.9-0.7c-1.1-0.1-2.2-0.6-3.3-0.6c-1.3,0-2.5,0-3.8,0c-1.5,0-3,0.3-4.5,0.3
		c-1.7,0-3.5,0-5.2,0c-1.3,0-2.4,0.3-3.7,0.3c-1.4,0-2.9,0-4.3,0c-1.4,0-2.7,0.3-4,0.3c-2.1,0-4.3,0.2-6.4-0.2
		c-1.5-0.3-3.1-0.1-4.6-0.1c-1.5,0-2.6,0.3-4,0.7c-1.2,0.3-2.3,0.7-3.3,1.3c-2.3,0.9-4.3,3.1-3.9,5.6c-0.1,0.2-0.2,0.3-0.2,0.5
		c-0.3,1.3,0.6,2.9,1.3,3.8c0.6,0.8,1.3,1.4,2.2,1.8c0.1,0.1,0.1,0.1,0.2,0.2c0.6,0.6,1.7,1.5,2.5,1.7c0.8,0.2,1.9,0.1,2.8,0.1
		c0.8,0,1.4,0,2.1,0.2c0.8,0.2,1.6,0,2.4,0.2c0.3,0.1,0.6,0.1,1,0.2c0.9-0.1,2,0.1,2.9,0.1c1.2,0,2.3,0,3.5,0c1.3,0,2.5-0.3,3.9-0.3
		c1.9,0,3.6-0.6,5.5-0.2c2,0.4,4,0.1,6-0.3c1.9-0.3,3.6,0.3,5.5,0.2c1.3,0,2.6,0,3.9,0.1c0.2,0,0.3,0,0.5,0
		C64.1,49.1,65.1,48.8,66.1,48.6z M28,46c-2.2,0-4-1.8-4-4c0-2.2,1.8-4,4-4s4,1.8,4,4C32,44.2,30.2,46,28,46z"/>
	<circle class="st4" cx="28" cy="42" r="4"/>
	<path class="st3" d="M59.7,49.2c-1.2,0-2.3,0-3.5,0c-1.3,0-2.5,0.3-3.9,0.3c-1.9,0-3.6,0.6-5.5,0.2c-2-0.4-4-0.1-6,0.3
		c-1.9,0.3-3.6-0.3-5.5-0.2c-1.3,0-2.6,0-3.9-0.1c-0.2,0-0.3,0-0.5,0c-1,0.2-2,0.5-3,0.6c-1.2,0.2-2.3,0.3-3.4,0.6c-0.6,0-1,0-1,0
		c-3.6,0-6.5,2.9-6.5,6.5c0,2.3,1.2,4.3,3,5.4c0.8,0.8,1.7,1.4,2.7,1.8c0.9,0.4,1.9,0.7,2.9,0.7c0.3,0,0.6,0.1,0.9,0.1
		c0.7-0.1,1.3-0.2,2.1-0.2c1.5,0,3.2-0.2,4.6,0.1c2.1,0.4,4.3,0.2,6.4,0.2c1.4,0,2.7-0.3,4-0.3c1.4,0,2.9,0,4.3,0
		c1.3,0,2.4-0.3,3.7-0.3c1.7,0,3.5,0,5.2,0c1.5,0,2.9-0.3,4.5-0.3c1.3,0,2.5-0.1,3.8,0c0.8,0,1.6,0.3,2.4,0.5
		c0.6-0.1,1.2-0.3,1.9-0.5c1.2-0.3,2.3-0.7,3.3-1.3c2.3-0.9,4.3-3.1,3.9-5.6c0.1-0.2,0.2-0.3,0.2-0.5c0.3-1.3-0.6-2.9-1.3-3.8
		c-0.6-0.8-1.3-1.4-2.2-1.8c-0.1-0.1-0.1-0.1-0.2-0.2c-0.6-0.6-1.7-1.5-2.5-1.7c-0.8-0.2-1.9-0.1-2.8-0.1c-0.8,0-1.4,0-2.1-0.2
		c-0.8-0.2-1.6,0-2.4-0.2c-0.3-0.1-0.6-0.1-1-0.2C61.6,49.3,60.6,49.2,59.7,49.2z M66,53c2.2,0,4,1.8,4,4c0,2.2-1.8,4-4,4
		c-2.2,0-4-1.8-4-4C62,54.8,63.8,53,66,53z"/>
	<path class="st3" d="M58.7,49.2c-1.8,0-3.6-0.6-5.5-0.2c-2,0.4-4,0.7-6,0.3c-1.9-0.3-3.7,0.3-5.5,0.2c-1.3,0-2.5,0.3-3.9,0.3
		c-1.2,0-2.3,0-3.5,0c-0.9,0-2-0.1-2.9-0.1c1.3,0.2,2.6,0.1,3.9,0.1c1.8,0,3.6,0.6,5.5,0.2c2-0.4,4-0.7,6-0.3
		c1.9,0.3,3.7-0.3,5.5-0.2c1.3,0,2.5-0.3,3.9-0.3c1.2,0,2.3,0,3.5,0c0.9,0,2,0.1,2.9,0.1C61.3,49.1,60,49.1,58.7,49.2z"/>
	<circle class="st7" cx="66" cy="57" r="4"/>
	<path class="st8" d="M60.8,65.5c-2.1-0.4-4.3-0.2-6.4-0.2c-1.4,0-2.7,0.3-4,0.3c-1.4,0-2.9,0-4.3,0c-1.3,0-2.4,0.3-3.7,0.3
		c-1.7,0-3.5,0-5.2,0c-1.5,0-2.9,0.3-4.5,0.3c-1.3,0-2.5,0.1-3.8,0c-0.8,0-1.6-0.3-2.4-0.5c-0.6,0.1-1.2,0.3-1.9,0.5
		c-1.2,0.3-2.3,0.7-3.3,1.3c-2.3,0.9-4.3,3.1-3.9,5.6c-0.1,0.2-0.2,0.3-0.2,0.5c-0.3,1.3,0.6,2.9,1.3,3.8c0.6,0.8,1.3,1.4,2.2,1.8
		c0.1,0.1,0.1,0.1,0.2,0.2c0.6,0.6,1.7,1.5,2.5,1.7c0.8,0.2,1.9,0.1,2.8,0.1c0.8,0,1.4,0,2.1,0.2c0.8,0.2,1.6,0,2.4,0.2
		c0.3,0.1,0.6,0.1,1,0.2c0.9-0.1,2,0.1,2.9,0.1c1.2,0,2.3,0,3.5,0c1.3,0,2.5-0.3,3.9-0.3c1.9,0,3.6-0.6,5.5-0.2c2,0.4,4,0.1,6-0.3
		c1.9-0.3,3.6,0.3,5.5,0.2c1.3,0,2.6,0,3.9,0.1c0.2,0,0.3,0,0.5,0c1-0.2,2-0.5,3-0.6c1.2-0.2,2.3-0.3,3.4-0.6c0.6,0,1,0,1,0
		c3.6,0,6.5-2.9,6.5-6.5c0-2.3-1.2-4.3-3-5.4c-0.8-0.8-1.7-1.4-2.7-1.8c-0.9-0.4-1.9-0.7-2.9-0.7c-0.3,0-0.6-0.1-0.9-0.1
		c-0.7,0.1-1.3,0.2-2.1,0.2C64,65.5,62.3,65.8,60.8,65.5z M28,78c-2.2,0-4-1.8-4-4c0-2.2,1.8-4,4-4s4,1.8,4,4C32,76.2,30.2,78,28,78
		z"/>
	<path class="st8" d="M61.4,64.8c-1.5,0-3,0.3-4.5,0.3c-1.7,0-3.5,0-5.2,0c-1.3,0-2.4,0.3-3.7,0.3c-1.4,0-2.9,0-4.3,0
		c-1.4,0-2.7,0.3-4,0.3c-2.1,0-4.3,0.2-6.4-0.2c-1.5-0.3-3.1-0.1-4.6-0.1c-0.8,0-1.4,0.1-2.1,0.2c0.8,0.2,1.6,0.4,2.4,0.5
		c1.3,0,2.5,0,3.8,0c1.5,0,3-0.3,4.5-0.3c1.7,0,3.5,0,5.2,0c1.3,0,2.4-0.3,3.7-0.3c1.4,0,2.9,0,4.3,0c1.4,0,2.7-0.3,4-0.3
		c2.1,0,4.3-0.2,6.4,0.2c1.5,0.3,3.1,0.1,4.6,0.1c0.8,0,1.4-0.1,2.1-0.2c-0.8-0.2-1.6-0.4-2.4-0.5C63.9,64.8,62.6,64.8,61.4,64.8z"
		/>
	<circle class="st4" cx="28" cy="74" r="4"/>
	<path class="st3" d="M59.7,81.2c-1.2,0-2.3,0-3.5,0c-1.3,0-2.5,0.3-3.9,0.3c-1.9,0-3.6,0.6-5.5,0.2c-2-0.4-4-0.1-6,0.3
		c-1.9,0.3-3.6-0.3-5.5-0.2c-1.3,0-2.6,0-3.9-0.1c-0.2,0-0.3,0-0.5,0c-1,0.2-2,0.5-3,0.6c-1.2,0.2-2.3,0.3-3.4,0.6c-0.6,0-1,0-1,0
		c-3.6,0-6.5,2.9-6.5,6.5c0,2.3,1.2,4.3,3,5.4c0.8,0.8,1.7,1.4,2.7,1.8c0.9,0.4,1.9,0.7,2.9,0.7c1.1,0.1,2.2,0.6,3.3,0.6
		c1.3,0,2.5,0,3.8,0c1.5,0,3-0.3,4.5-0.3c1.7,0,3.5,0,5.2,0c1.3,0,2.4-0.3,3.7-0.3c1.4,0,2.9,0,4.3,0c1.4,0,2.7-0.3,4-0.3
		c2.1,0,4.3-0.2,6.4,0.2c1.5,0.3,3.1,0.1,4.6,0.1c1.5,0,2.6-0.3,4-0.7c1.2-0.3,2.3-0.7,3.3-1.3c2.3-0.9,4.3-3.1,3.9-5.6
		c0.1-0.2,0.2-0.3,0.2-0.5c0.3-1.3-0.6-2.9-1.3-3.8c-0.6-0.8-1.3-1.4-2.2-1.8c-0.1-0.1-0.1-0.1-0.2-0.2c-0.6-0.6-1.7-1.5-2.5-1.7
		c-0.8-0.2-1.9-0.1-2.8-0.1c-0.8,0-1.4,0-2.1-0.2c-0.8-0.2-1.6,0-2.4-0.2c-0.3-0.1-0.6-0.1-1-0.2C61.6,81.3,60.6,81.2,59.7,81.2z
		 M66,85c2.2,0,4,1.8,4,4c0,2.2-1.8,4-4,4c-2.2,0-4-1.8-4-4C62,86.8,63.8,85,66,85z"/>
	<path class="st3" d="M58.7,81.2c-1.8,0-3.6-0.6-5.5-0.2c-2,0.4-4,0.7-6,0.3c-1.9-0.3-3.7,0.3-5.5,0.2c-1.3,0-2.5,0.3-3.9,0.3
		c-1.2,0-2.3,0-3.5,0c-0.9,0-2-0.1-2.9-0.1c1.3,0.2,2.6,0.1,3.9,0.1c1.8,0,3.6,0.6,5.5,0.2c2-0.4,4-0.7,6-0.3
		c1.9,0.3,3.7-0.3,5.5-0.2c1.3,0,2.5-0.3,3.9-0.3c1.2,0,2.3,0,3.5,0c0.9,0,2,0.1,2.9,0.1C61.3,81.1,60,81.1,58.7,81.2z"/>
	<circle class="st7" cx="66" cy="89" r="4"/>
</g>
</svg>
