<?xml version="1.0" encoding="utf-8"?>
<!-- Generator: Adobe Illustrator 24.0.1, SVG Export Plug-In . SVG Version: 6.00 Build 0)  -->
<svg version="1.1" id="Layer_1" xmlns="http://www.w3.org/2000/svg" xmlns:xlink="http://www.w3.org/1999/xlink" x="0px" y="0px"
	 viewBox="0 0 398 170" style="enable-background:new 0 0 398 170;" xml:space="preserve">
<style type="text/css">
	.st0{fill:none;}
	.st1{fill:#0068DA;}
	.st2{fill:#FF703D;}
	.st3{fill:#FFD065;}
	.st4{fill:#B7F2D4;}
	.st5{fill:#FFB08E;}
	.st6{fill:#FFD984;}
</style>
<g>
	<path class="st0" d="M73,149.1l-8.4-4l-2.3-12.4l-17-6.6l-10.6,5.7l-7.8-3.4l14.3-29.9l8.4,4l2.3,12.4l17,6.6l10.6-5.7l7.8,3.4
		L73,149.1z M110.3,76.8l-0.6-1.9l-36.1,12l0.6,1.9l-3.8,1.3l-1.3-3.8l1.9-0.6l-12-36.1l-1.9,0.6l-1.3-3.8l3.8-1.3l0.6,1.9l36.1-12
		l-0.6-1.9l3.8-1.3l1.3,3.8l-1.9,0.6l12,36.1l1.9-0.6l1.3,3.8L110.3,76.8z M123.5,47.5l1.4-6.9l126.6,25l-1.4,6.9L123.5,47.5z
		 M223.5,147l-15-43l24,19l5-34l15,33l30-15l8,40H223.5z M293,68l-23-1l-2-27l-29,4l-4-10l20-13l35,2l-6,15l16,12L293,68z
		 M337.4,120.4l-0.9-1.5l-29.7,15.4c0.3,0.9-0.1,1.8-0.9,2.3c-1,0.6-2.2,0.2-2.7-0.7c-0.6-1-0.2-2.2,0.7-2.7c0.9-0.5,2-0.3,2.6,0.5
		l29.7-15.3l-0.8-1.4l1.2-0.7L317.5,87c-0.8,0.4-1.8,0.2-2.4-0.6c-0.7-0.9-0.5-2.1,0.3-2.8s2.1-0.5,2.8,0.3c0.6,0.8,0.5,1.9-0.2,2.6
		l19.1,29.2l1.6-0.9l2,3.5L337.4,120.4z M334.4,78.6c-5-8.7-11.6,5-2.6-28.5s48.4-0.3,32.8,8.8c-15.6,9,15.8,23.2-1.6,33.3
		S339.4,87.3,334.4,78.6z"/>
	<polygon class="st0" points="398,170 398,159.1 372.8,170 	"/>
	<path class="st1" d="M170,131c-18.2,0-33,14.8-33,33c0,2.1,0.2,4.1,0.6,6h64.9c0.4-1.9,0.6-3.9,0.6-6C203,145.8,188.2,131,170,131z
		"/>
	<path class="st1" d="M170,27c16.2,0,29.6-11.6,32.4-27h-64.9C140.4,15.4,153.8,27,170,27z"/>
	<path d="M228.3,79.1c-0.5,0.5-1,0.9-1.5,1.3l1.2,1.2l2.8-2.8l-2.8-2.8l-2.8,2.8l1.1,1.1c0.5-0.4,1-0.9,1.5-1.3L228.3,79.1z"/>
	<path d="M118.1,111.7l1.1,1.1l2.8-2.8l-1.1-1.1c-0.5,0.4-1,0.9-1.5,1.4C119,110.7,118.5,111.2,118.1,111.7z"/>
	<path d="M120.4,108.4l-1.2-1.2l-2.8,2.8l1.2,1.2c0.4-0.5,0.9-1,1.4-1.5C119.4,109.3,119.9,108.8,120.4,108.4z"/>
	<path d="M119.5,110.3c0.5-0.5,1-0.9,1.5-1.4l-0.5-0.5c-0.5,0.4-1,0.9-1.5,1.4c-0.5,0.5-0.9,1-1.4,1.5l0.5,0.5
		C118.5,111.2,119,110.7,119.5,110.3z"/>
	<polygon class="st2" points="68.9,121.4 52,114.9 49.7,102.5 41.3,98.5 27.1,128.4 34.9,131.8 45.4,126.2 62.4,132.7 64.7,145.1 
		73,149.1 87.3,119.2 79.5,115.8 	"/>
	<polygon class="st3" points="387.7,128.5 385.4,129.5 384.9,128.2 369.1,135 369.6,136.3 367.1,137.3 367,137.1 357.2,155.9 
		358.2,158.1 355.7,159.2 355.3,158.2 349.9,162.1 350.6,163.6 349.3,164.1 351.9,170 372.8,170 398,159.1 398,133.6 	"/>
	<polygon class="st3" points="355.9,5.9 356.4,7.1 372.8,0 351.9,0 354.6,6.4 	"/>
	<path class="st3" d="M24.6,147.1l1.2-0.5l-1.9-4.2c-0.3-1.1-3.6-8.4-4.8-11.2l-1.3,0.5l-0.5-1.1l-11.1,4.8l0.5,1.2l-2.5,1l-1-2.4
		L0,133.6v25.5l25.1-10.8L24.6,147.1z"/>
	<path d="M118.2,21.5c0-0.1-0.3-0.7-0.8-1.9l-1.8,1.8l2.8,2.8l2.8-2.8l-2.8-2.8L118,19c0.5,1.3,0.8,2.1,0.9,2.2L118.2,21.5z"/>
	<path d="M118.2,21.5l0.7-0.3c0-0.1-0.3-0.8-0.9-2.2l-0.5,0.5C117.9,20.7,118.1,21.4,118.2,21.5z"/>
	<polygon class="st4" points="110.9,72.4 98.9,36.3 97,37 96.4,35.1 60.3,47.1 61,49 59.1,49.6 71.1,85.7 73,85 73.6,86.9 
		109.7,74.9 109,73 	"/>
	<g>
		<path d="M258.5,165.2l-3.7-1.5l-0.6,1.5l-20.7-8.9c0.2-0.9-0.3-1.9-1.2-2.3c-1-0.4-2.2,0-2.6,1c-0.4,1,0,2.2,1,2.6
			c0.9,0.4,1.9,0.1,2.5-0.7l20.7,8.9l-0.6,1.5l3.7,1.5l0.6-1.5l6,2.6h1.8l-7.5-3.2L258.5,165.2z"/>
		<path d="M117.6,111.2c-13.4,15.1-10.6,40.6-6.2,58.8h0.7c-4.4-18-7.2-43.3,6-58.3L117.6,111.2z"/>
		<path d="M226.4,80c-11.2,9.8-30.3,11.4-50.5,13.2c-20.9,1.8-42.5,3.7-55.4,15.2l0.5,0.5c12.8-11.3,34.2-13.2,55-15
			c20.3-1.8,39.6-3.5,51-13.4c0.5-0.4,1-0.9,1.5-1.3l-0.5-0.5C227.4,79.1,226.9,79.5,226.4,80z"/>
		<path d="M337.2,115.9l-19.1-29.2c0.7-0.7,0.8-1.8,0.2-2.6c-0.7-0.9-1.9-1-2.8-0.3s-1,1.9-0.3,2.8c0.6,0.7,1.6,1,2.4,0.6l19.1,29.2
			l-1.2,0.7l0.8,1.4l-29.7,15.3c-0.6-0.8-1.7-1-2.6-0.5c-1,0.6-1.3,1.8-0.7,2.7c0.6,1,1.8,1.3,2.7,0.7c0.8-0.5,1.2-1.4,0.9-2.3
			l29.7-15.4l0.9,1.5l3.5-2l-2-3.5L337.2,115.9z"/>
		<polygon points="50.8,31.5 0,70.2 0,71.1 51.1,32.1 54.7,32.5 55.1,28.5 51.2,28.1 		"/>
		<polygon points="391.9,74.9 388.3,74.5 387.9,78.5 391.8,78.9 392.2,75.5 398,71.1 398,70.2 		"/>
		<polygon points="384.3,127 384.9,128.2 385.4,129.5 387.7,128.5 387.8,128.4 386.8,126 		"/>
		<polygon points="368.5,133.8 366.1,134.9 367,137.1 367.1,137.3 369.6,136.3 369.1,135 		"/>
		<polygon points="349.5,161.1 347.1,162.2 348.1,164.6 349.3,164.1 350.6,163.6 349.9,162.1 		"/>
		<polygon points="357.1,155.7 354.7,156.7 355.3,158.2 355.7,159.2 358.2,158.1 357.2,155.9 		"/>
		<polygon points="356.4,7.1 355.9,5.9 354.6,6.4 353.4,6.9 354.5,9.4 356.9,8.3 		"/>
		<polygon points="5.8,134.1 3.3,135.2 3.3,135.3 4.3,137.6 6.8,136.6 6.3,135.4 		"/>
		<polygon points="16.8,129.3 17.3,130.6 17.8,131.7 19.1,131.2 20.3,130.7 19.2,128.2 		"/>
		<polygon points="25.8,146.6 24.6,147.1 25.1,148.3 25.6,149.5 28.1,148.5 27,146 		"/>
		<path d="M281.9,5.3C281,4.9,280,5.3,279.5,6l-14.1-6h-1.8l15.6,6.7c-0.2,0.9,0.3,1.9,1.2,2.3c1,0.4,2.2,0,2.6-1
			C283.4,6.9,282.9,5.7,281.9,5.3z"/>
		<path d="M118,19c-1.3-3.4-3.8-10.3-5.9-19h-0.7c2.2,9.1,4.8,16.3,6.1,19.6L118,19z"/>
		<polygon points="59.7,45.2 55.9,46.4 57.2,50.2 59.1,49.6 61,49 60.3,47.1 		"/>
		<polygon points="95.8,33.2 96.4,35.1 97,37 98.9,36.3 100.8,35.7 99.6,31.9 		"/>
		<polygon points="73,85 71.1,85.7 69.2,86.3 70.4,90.1 74.2,88.8 73.6,86.9 		"/>
		<polygon points="110.3,76.8 114.1,75.6 112.8,71.8 110.9,72.4 109,73 109.7,74.9 		"/>
	</g>
	<polygon class="st5" points="252.5,122 237.5,89 232.5,123 208.5,104 223.5,147 290.5,147 282.5,107 	"/>
	<rect x="184" y="-8" transform="matrix(0.1934 -0.9811 0.9811 0.1934 95.7975 229.5294)" class="st6" width="7" height="129"/>
	<polygon class="st2" points="290,23 255,21 235,34 239,44 268,40 270,67 293,68 300,50 284,38 	"/>
	<path class="st4" d="M363,92.1c17.3-10-14-24.2,1.6-33.3c15.6-9-23.9-42.2-32.8-8.8s-2.4,19.9,2.6,28.5
		C339.4,87.3,345.7,102.1,363,92.1z"/>
</g>
</svg>
