<?xml version="1.0" encoding="utf-8"?>
<!-- Generator: Adobe Illustrator 24.0.1, SVG Export Plug-In . SVG Version: 6.00 Build 0)  -->
<svg version="1.1" id="Layer_1" xmlns="http://www.w3.org/2000/svg" xmlns:xlink="http://www.w3.org/1999/xlink" x="0px" y="0px"
	 viewBox="0 0 398 170" style="enable-background:new 0 0 398 170;" xml:space="preserve">
<style type="text/css">
	.st0{fill:#FF703D;}
	.st1{fill:none;}
	.st2{fill:#FFD984;}
	.st3{fill:#0068DA;}
	.st4{fill:#B7F2D4;}
	.st5{fill:#FFB08E;}
	.st6{fill:#FFFFFF;}
	.st7{fill:#0B132F;}
</style>
<path class="st1" d="M384,149.9c-0.2-0.9-0.3-1.8-0.4-2.7l0.4-2.2v-13h11.4c0.9-0.1,1.8-0.2,2.6-0.1v-10.3c-2.2,0-4.3,0-6.5,0
	c-3.1,0-6.1-0.4-9.2-0.4c-2.9-0.1-5.9,0-8.8,0c-4.5,0-8.9-0.3-13.3-0.7c-3.2-0.3-6.6-0.3-9.9-0.5c-2.5-0.1-5.1,0-7.6,0
	c-5.9,0-11.9,0-17.8,0c-5.4,0-10.8,0-16.2,0c-2.6,0-5.2,0-7.8,0c-2.8,0-5.6,0.4-8.4,0.5c-4.7,0.1-9.3-0.2-14,0.2
	c-2.1,0.2-4.3,0.2-6.4,0.2c-1.2,0-2.8,0.3-4,0c-0.6-0.1-0.6,0.1-0.8-0.6c-0.3-1.4,0-3.4,0-4.9c0-2.4-0.1-4.9,0-7.3
	c0.1-1.8,0.5-3.5,0.4-5.4c0-1.6-0.1-3.3,0-4.9c-0.1,0-0.3,0-0.4,0l0.4-0.2c0,0.1,0,0.1,0,0.2c7.1,0,14.3,0,21.4,0
	c3.4,0,6.7-0.4,10.1-0.4c3.5,0,6.9,0,10.4,0c6.4,0,12.9,0.2,19.3,0c3.1-0.1,6.1-0.6,9.3-0.4c1.8,0.2,3.6,0.1,5.4,0
	c3-0.2,6.1,0.1,9.1-0.1c2.1-0.1,4.1-0.4,6.2-0.4c2.8,0,5.4-0.1,8.1-0.4c1.7-0.2,3.3-0.6,5.1-0.8c1.5-0.2,3.2-0.3,4.8-0.4
	c2.3-0.2,6.2-0.4,8.5-0.5c2.4-0.1,4.9-0.4,7.3-0.4c1.8,0,3.5,0,5.3,0V0h-41.8l0.2,7.9L191.8,2.6L191.7,0H0v94c0.3,0,0.5,0,0.8,0
	c2.9,0,5.9,0,8.8,0c2.3,0,4.7,0,7,0c1.4,0,2.6-0.4,4-0.4c1.2,0,2.3,0,3.5,0c0.4,0,1.6-0.2,2,0c0.5,0.2,0.4,0.5,0.4,1.1
	c0,0.7-0.1,1.4,0.1,2.1c0.2,1.1,0.2,2.1,0.4,3.1c0.2,1,0.2,2,0.3,3c0,0.9,0.2,2.4,0.4,3.2c0.4,1.4,1,2.9,1.2,4.5
	c0.3,2.6,0.1,5.2-0.6,7.7c-0.2,0.7,0.1,2.5-0.3,3.3c-0.1,0.2-0.4,0.4-0.7,0.4c0,0-5.8,0-7,0c-1.6,0-3.3,0-4.9,0
	c-1.9,0-3.7-0.4-5.6-0.4c-3.3,0-6.5,0-9.8,0v10.3c0.1,0,0.3,0,0.4,0.1h49.9c0.8,0,1.6,0,2.4,0H64v9.8c0.3,2.4,0.4,4.4,0,6.2v12H0v10
	h191.7l-0.4-11.8l2.9-36.2l160.9,3.5l1,44.5H398v-10h-14V149.9z M60,89l-48-3L11.5,4.5C12.5,3.5,31,4,31,4l30-1L60,89z M73.5,16.4
	c109.8,0,209.3-0.4,218.7-0.4c3.9,0,1.1,4.4,1.5,15.6c-1.4,0.3-3.2,0.2-4.7,0.4c-74.7,0.2-157.7,3-218-1.4
	C74.3,16.4,66.5,16.4,73.5,16.4z M164,157h-46v-28H91v-28H66V73h46v28h25v27.9l0.1,0.1H164V157z M256.4,48c-0.6,2.2-0.7,4.3-0.7,6.5
	c-0.4,10.9-0.8,21.9-1.1,32.8c-0.3,8.6-0.6,17.2-0.8,25.9c-0.3,0.3-0.5,0.5-0.8,0.8H150c0-21.2,0-42.4,0-63.5c0-0.7-0.1-1.4,0-2.1
	c0-0.1,0-0.3,0.1-0.4c0.1-0.5,0.4-0.9,0.4-1.4c0-0.5,0-0.9,0.1-1.4c0-0.1,0.2-0.2,0.3-0.4c0-0.2-0.1-0.5,0-0.7
	c0.2-0.6,0.8-0.5,1.4-0.6c0.7-0.2,1.1-0.4,2-0.3c0.8,0,1.6,0,2.4,0c0.8,0,1.5,0,2.3,0c1.1,0,2,0.3,3.1,0.4c3.9,0.2,7.8,0.6,11.8,0.1
	c1.1-0.2,2.1,0,3.1-0.1c1.4-0.1,2.7-0.3,4.1-0.3c1.7,0,3.3-0.6,5-0.7c4.6-0.3,9.3,0,13.9,0c2.2,0,4.4,0,6.6-0.3
	c2-0.2,5.4-0.4,7.5-0.4c2.5,0,5,0,7.5,0c3.4,0,6.6,0.6,10,0.2c1.9-0.2,3.8-0.2,5.7,0c1.8,0.2,3.3-0.2,5-0.3c1.1-0.1,2.3,0,3.4,0
	c2.7,0,5.4,0,8.1,0c1.4,0,3.4,0.6,3.7,2.2C257.5,45.2,256.7,46.8,256.4,48z M266.2,66.5c-0.1-0.9,0.1-1.9,0.1-2.8
	c0.1-2.5-0.1-5,0.3-7.4c0.5-2.9,0.9-5.8,1.1-8.7c0.1-1.4,0.2-2.8,0.2-4.3c0-0.5-0.2-2.1,0.1-2.6c0.1-0.2,0.4-0.1,0.5-0.2
	c0.4-0.3,1.2-0.6,1.7-0.7c0.9-0.2,2.1,0,3,0c4.4,0,8.8-0.2,13.2-0.4c1.9-0.1,3.8-0.4,5.6-0.4c3-0.1,6,0,9,0c3.9,0,7.8,0,11.8,0
	c7.6,0,15.2,0,22.9,0c4.5,0,9,0.1,13.5,0c3.4-0.1,6.8-0.4,10.2-0.4c5.8,0,11.6,0,17.5,0c0.4,0,1.2-0.2,1.5,0
	c0.5,0.2,0.3,0.3,0.4,0.9c0.2,1.3-0.2,2.4-0.4,3.6c-0.5,3.1-0.6,6.2-0.9,9.4c-0.1,0.9-0.4,1.7-0.4,2.7c0,1,0,2.1,0,3.1
	c0,1.4-0.2,2.8,0.1,4.1c0.2,0.9,1,2,0.4,2.9c-0.1,0.2-0.3,0.3-0.4,0.4c-1.5,1.1-4.5,0.1-6.1,0.4c-0.7,0.1-1,0.4-1.7,0.5
	c-0.9,0.1-1.9-0.1-2.8,0.1c-2,0.4-4,0.1-5.9,0.4c-2.4,0.4-4.8,0.3-7.3,0.7c-1.7,0.3-3.4,0-5.1,0.4c-1.2,0.3-2.5,0-3.8,0.1
	c-1.7,0.2-3.2,0.5-5,0.3c-1.7-0.2-3.4-0.3-5.1,0c-5.3,0.9-10.9,0.5-16.3,0.5c-4.7,0-9.4,0-14,0c-3,0-5.9,0-8.9,0
	c-3.8,0-7.6-0.4-11.4-0.4c-4.4,0-8.8,0-13.2,0.3c-1.2,0.1-2.7,0.1-3.6-0.7C266.4,67.7,266.2,67.1,266.2,66.5z"/>
<path class="st2" d="M385.4,94.4c-2.4,0.1-6.2,0.3-8.5,0.5c-1.6,0.1-3.3,0.2-4.8,0.4c-1.7,0.3-3.3,0.7-5.1,0.8
	c-2.7,0.2-5.3,0.4-8.1,0.4c-2.1,0-4.1,0.3-6.2,0.4c-3,0.2-6.1-0.1-9.1,0.1c-1.8,0.1-3.6,0.1-5.4,0c-3.2-0.3-6.2,0.3-9.3,0.4
	c-6.4,0.2-12.9,0-19.3,0c-3.5,0-6.9,0-10.4,0c-3.4,0-6.7,0.4-10.1,0.4c-7.1,0-14.3,0-21.4,0c0,1.6,0,3.3,0,4.9
	c0,1.8-0.4,3.6-0.4,5.4c-0.1,2.4,0,4.9,0,7.3c0,1.5-0.4,3.5,0,4.9c0.2,0.7,0.2,0.5,0.8,0.6c1.2,0.3,2.8,0,4,0c2.1,0,4.3,0,6.4-0.2
	c4.7-0.4,9.3-0.1,14-0.2c2.8-0.1,5.6-0.5,8.4-0.5c2.6,0,5.2,0,7.8,0c5.4,0,10.8,0,16.2,0c5.9,0,11.9,0,17.8,0c2.5,0,5.1-0.1,7.6,0
	c3.3,0.2,6.7,0.1,9.9,0.5c4.4,0.5,8.8,0.7,13.3,0.7c2.9,0,5.9-0.1,8.8,0c3.1,0.1,6.1,0.4,9.2,0.4c2.2,0,4.3,0,6.5,0V110h-83.4l0.4,6
	h-19v-2c0,0,0,0,0-0.1c0-1.3,0-2.6,0-3.9h-6.8c0.2,3.3,0.4,6.2,0.4,6.2s-11.1,0.6-13.7,0.7c-0.9,0-3.3,0.3-3.3,0.3s0-15.5-0.1-15.8
	c2.1-0.2,5.8-0.3,7.1-0.2c0.8,0,8,0,9,0c0,0.4,0.3,4.1,0.5,7.8h6.9c0-1.8,0-3.6,0.1-5.5c0-0.1,0-0.1,0-0.2V100h18l0.6,9H398V94
	c-1.8,0-3.5,0-5.3,0C390.3,94,387.8,94.3,385.4,94.4z"/>
<path class="st2" d="M267.3,97.8c0.1,0,0.3,0,0.4,0c0-0.1,0-0.1,0-0.2L267.3,97.8z"/>
<path class="st3" d="M296,113.9C296,114,296,114,296,113.9l0,2.1h19l-0.4-6h-18.7C295.9,111.3,295.9,112.6,296,113.9z"/>
<path class="st3" d="M314,100h-18v3.3c0,0.1,0,0.1,0,0.2c-0.1,1.8-0.1,3.6-0.1,5.5h18.7L314,100z"/>
<path class="st0" d="M270.5,68.8c4.4-0.3,8.8-0.2,13.2-0.3c3.8,0,7.6,0.4,11.4,0.4c3,0,5.9,0,8.9,0c4.7,0,9.4,0,14,0
	c5.4,0,11,0.4,16.3-0.5c1.7-0.3,3.4-0.2,5.1,0c1.8,0.2,3.3-0.2,5-0.3c1.2-0.1,2.5,0.2,3.8-0.1c1.7-0.4,3.4-0.2,5.1-0.4
	c2.4-0.4,4.8-0.2,7.3-0.7c2-0.4,3.9-0.1,5.9-0.4c1-0.2,1.9,0,2.8-0.1c0.7,0,1.1-0.3,1.7-0.5c1.5-0.4,4.6,0.7,6.1-0.4
	c0.2-0.1,0.3-0.3,0.4-0.4c0.6-0.9-0.2-2-0.4-2.9c-0.3-1.3-0.1-2.7-0.1-4.1c0-1,0-2.1,0-3.1c0-0.9,0.3-1.8,0.4-2.7
	c0.4-3.1,0.4-6.3,0.9-9.4c0.2-1.2,0.6-2.3,0.4-3.6c-0.1-0.5,0.1-0.6-0.4-0.9c-0.3-0.1-1.2,0-1.5,0c-5.8,0-11.6,0-17.5,0
	c-3.4,0-6.8,0.4-10.2,0.4c-4.5,0.1-9,0-13.5,0c-7.6,0-15.2,0-22.9,0c-3.9,0-7.8,0-11.8,0c-3,0-6-0.1-9,0c-1.9,0.1-3.8,0.3-5.6,0.4
	c-4.4,0.2-8.7,0.4-13.2,0.4c-0.9,0-2.1-0.2-3,0c-0.5,0.1-1.3,0.4-1.7,0.7c-0.1,0.1-0.4,0.1-0.5,0.2c-0.3,0.4,0,2-0.1,2.6
	c0,1.4-0.1,2.9-0.2,4.3c-0.2,2.9-0.6,5.8-1.1,8.7c-0.4,2.5-0.2,5-0.3,7.4c0,0.9-0.3,1.8-0.1,2.8c0.1,0.6,0.3,1.2,0.7,1.6
	C267.8,69,269.4,68.9,270.5,68.8z M280,53h21v-5h21v-3h42v9h-21v3h-21v5h-42V53z"/>
<path class="st2" d="M118.7,109.5c0.2-0.1,0.5-0.2,0.8-0.3C119.2,109.3,119,109.4,118.7,109.5z"/>
<path class="st2" d="M118.7,109.5c-0.2,0.1-0.5,0.3-0.7,0.5l0,0C118.3,109.8,118.5,109.6,118.7,109.5z"/>
<path class="st2" d="M125.6,111.4c-1.1-1.3-2.5-2-2.4-1.9c-0.9-0.2-1.7-0.3-2.4-0.3c0.7,0,1.6,0.2,2.4,0.3
	C123.1,109.3,124.5,110,125.6,111.4z"/>
<path class="st2" d="M127.3,120.6c-5.3,3.4-12,2.6-18,2c-5.5-0.5-11.7-2.6-11.3-9.3c0.2-4.1,3.7-7.6,7.8-7.8c2-0.1,4.1-0.2,6.2-0.2
	l-4.3-4.3H91v28h27h17.7L127.3,120.6z"/>
<path class="st2" d="M116.5,118.4c0.2,0.2,0.4,0.5,0.6,0.6c1,0.7,2.2,1,3.4,1c-1.2,0-2.4-0.4-3.4-1
	C116.9,118.9,116.7,118.7,116.5,118.4z"/>
<path class="st2" d="M113.4,105.3c3.4,0,6.8,0.2,10.1,1.2c4,1.2,7.6,4.9,7.5,8.7c0,1.7-0.9,3.4-2.8,4.9l8.9,8.9V101h-25h-2.9
	L113.4,105.3z"/>
<path class="st2" d="M116,117.1c-0.1-0.3-0.1-0.7-0.1-1C115.9,116.5,115.9,116.8,116,117.1z"/>
<path class="st2" d="M117.4,110.7L117.4,110.7c-0.2,0.3-0.4,0.6-0.6,1c-0.3,0.6-0.6,1.4-0.7,2.3c0.2-0.9,0.5-1.7,0.7-2.3
	C117,111.3,117.2,111,117.4,110.7z"/>
<path class="st2" d="M116.3,118c-0.1-0.3-0.2-0.6-0.3-0.9C116.1,117.5,116.2,117.8,116.3,118z"/>
<path class="st2" d="M101.2,94.5c-1.2,0.8-2.6,1.3-4.2,1.4c-5.8,0.2-12,0.8-17.6-0.9c-4-1.2-7.6-4.9-7.5-8.7c0-1.7,0.9-3.5,2.8-4.9
	c5.4-4.1,12.5-3.2,18.8-2.6c5.5,0.5,11.7,2.6,11.3,9.3c-0.1,2.3-1.2,4.3-2.9,5.8l7.1,7.1h2.9V73H66v28h25h16.7L101.2,94.5z"/>
<path class="st2" d="M142.8,137.5c-0.2,0.3-0.4,0.6-0.6,1c-0.3,0.6-0.6,1.4-0.7,2.3c0.2-0.9,0.5-1.7,0.7-2.3
	C142.4,138.1,142.6,137.8,142.8,137.5z"/>
<path class="st2" d="M151,138.1c-1.1-1.3-2.5-2-2.4-1.9c-0.9-0.2-1.7-0.3-2.4-0.3c0.7,0,1.6,0.2,2.4,0.3
	C148.5,136.1,149.9,136.8,151,138.1z"/>
<path class="st2" d="M140.1,132.1c3,0,5.9,0.3,8.7,1.2c4,1.2,7.6,4.9,7.5,8.7c0,1.7-0.9,3.5-2.8,4.9c-5.4,4.1-12.5,3.2-18.8,2.6
	c-5.5-0.5-11.7-2.6-11.3-9.3c0.2-4.1,3.7-7.6,7.8-7.8c2.5-0.1,5-0.2,7.5-0.3l-3.1-3.1H118v28h46v-28h-26.9L140.1,132.1z"/>
<path class="st2" d="M144.9,136c-0.2,0.1-0.4,0.1-0.6,0.2l0,0C144.5,136.1,144.7,136.1,144.9,136z"/>
<path class="st4" d="M11.5,4.5L12,86l48,3l1-86L31,4C31,4,12.5,3.5,11.5,4.5z M41.4,10.9c5.2,1.8,10.7,8.8,8.7,14.9
	c-0.2,0.7-0.5,1.3-0.9,1.9c-2.4,4.1-7.2,6.1-11.7,6.3c-0.2,0-0.3,0-0.5,0v0.2l4,0.7v0c5.2,1.8,10.7,8.8,8.7,14.9
	C48,55,42.4,57.8,37,58v0.3l4,0.7v0c5.2,1.8,10.7,8.8,8.7,14.9c-3.2,9.4-18.5,10.9-23.6,3.6c-2.2-3.2-5.1-9.7-2.8-12.6
	c2.8-4.1,6.5-6.7,11.2-6.9c-3.4-0.4-6.6-1.9-8.4-4.5c-2.2-3.2-5.1-9.7-2.8-12.6c2.8-4.1,6.6-6.7,11.3-6.9c-1.1-0.2-2.2-0.5-3.1-1.2
	c-1.8-1.4-4.3-2.8-5-5c-0.8-2.5-1.5-4.9-0.8-7.6c0.3-1.2,0.4-2.2,0.7-3.4c0.4-1.4,1.4-2.2,2.4-3.1c1-1,1.9-2.2,3.2-2.9
	C34.8,9.1,38.4,10.4,41.4,10.9z"/>
<path class="st4" d="M36,34c-0.2,0-0.4,0-0.6,0L36,34L36,34z"/>
<path class="st4" d="M36,58.1L36,58.1C35.8,58,35.6,58,35.3,58L36,58.1z"/>
<path class="st5" d="M28.8,13.5c-1,1-1.9,1.8-2.4,3.1c-0.3,1.1-0.4,2.2-0.7,3.4c-0.7,2.7,0,5.1,0.8,7.6c0.8,2.2,3.2,3.7,5,5
	c0.9,0.7,2,1,3.1,1.2c0.1,0,0.1,0,0.2,0l0.6,0.1c0.2,0,0.4,0,0.6,0V22h1v12c0.2,0,0.3,0,0.5,0c4.6-0.2,9.4-2.2,11.7-6.3
	c0.4-0.6,0.6-1.2,0.9-1.9c2-6-3.5-13-8.7-14.9c-2.9-0.5-6.5-1.8-9.4-0.3C30.7,11.3,29.8,12.5,28.8,13.5z"/>
<path class="st5" d="M36,72V58.1L35.3,58c-0.3,0-0.5,0-0.8-0.1c-4.7,0.2-8.4,2.8-11.2,6.9c-2.3,2.8,0.6,9.4,2.8,12.6
	c5.1,7.3,20.4,5.8,23.6-3.6c2-6-3.5-13-8.7-14.9v0l-4-0.7V72H36z"/>
<path class="st5" d="M35.3,58c0.2,0,0.4,0,0.7,0V34.1L35.4,34c-0.3,0-0.5,0-0.8-0.1c-4.7,0.2-8.5,2.8-11.3,6.9
	c-2.3,2.8,0.6,9.4,2.8,12.6c1.8,2.6,5,4.1,8.4,4.5c0.1,0,0.2,0,0.3,0L35.3,58z"/>
<path class="st5" d="M49.7,49.8c2-6-3.5-13-8.7-14.9v0l-4-0.7V58C42.4,57.8,48,55,49.7,49.8z"/>
<path class="st5" d="M34.8,33.9c-0.1,0-0.1,0-0.2,0c0.2,0,0.5,0.1,0.8,0.1L34.8,33.9z"/>
<path class="st5" d="M34.8,57.9c-0.1,0-0.2,0-0.3,0c0.3,0,0.5,0.1,0.8,0.1L34.8,57.9z"/>
<path class="st3" d="M71.1,30.6c60.2,4.4,143.3,1.6,218,1.4c1.5-0.1,3.2-0.1,4.7-0.4c-0.5-11.1,2.4-15.6-1.5-15.6
	c-9.4,0-109,0.4-218.7,0.4C66.5,16.4,74.3,16.4,71.1,30.6z M82,17c3.9,0,7,3.1,7,7h79.1c0.5-3.4,3.4-6,6.9-6s6.4,2.6,6.9,6H276
	c0-3.9,3.1-7,7-7s7,3.1,7,7c0,3.9-3.1,7-7,7c-3.5,0-6.4-2.6-6.9-6H182c0,3.9-3.1,7-7,7s-7-3.1-7-7H88.9c-0.5,3.4-3.4,6-6.9,6
	c-3.9,0-7-3.1-7-7C75,20.1,78.1,17,82,17z"/>
<path class="st5" d="M63.8,140.7c0.1,0.4,0.1,0.7,0.2,1V132H52.8C57.9,132.3,62.8,134.5,63.8,140.7z"/>
<path class="st5" d="M64,148c-0.5,2.7-1.9,5-4.3,7.5c-2.4,1.8-5.1,4.1-8.2,4.4c-1.6,0.1-3.4,0-5-0.1c-1.9,0-3.1-0.3-4.8-1.2
	c-2.5-1.5-3.7-3.4-5.1-5.9c-1.2-2.2-2.5-5-2.8-7.7h-0.3c-0.1,0.5-0.2,1-0.3,1.6c-1.7,5.9-3.1,7.5-8.9,10c-5.9,2.3-13.8-3.7-14.3-9.9
	c0-0.6-0.1-1.1,0-1.7H9.7c0.2,4.3-1.3,8.6-4.6,10.9c-1.3,0.9-3.2,1.9-5.1,2.6v1.5h64V148z"/>
<path class="st5" d="M9.7,144h0.4c0.6-6.6,5.5-12,12.7-10.9c6.1,1,11.3,4.7,11,10.9h0.1c0-0.2,0-0.4,0-0.5c0.4-3.8,2.8-6.6,5.8-8.6
	c3-1.9,5.5-2.3,8.9-2.7c0.6-0.1,1.1-0.1,1.7-0.1H0.4c0.4,0.1,0.7,0.2,1.1,0.3C6.4,133.9,9.2,138.9,9.7,144z"/>
<path class="st5" d="M253.5,41.7c-2.7,0-5.4,0-8.1,0c-1.1,0-2.3-0.1-3.4,0c-1.7,0.1-3.3,0.5-5,0.3c-1.9-0.3-3.8-0.2-5.7,0
	c-3.4,0.3-6.7-0.2-10-0.2c-2.5,0-5,0-7.5,0c-2.1,0-5.4,0.2-7.5,0.4c-2.2,0.3-4.4,0.3-6.6,0.3c-4.6,0-9.3-0.3-13.9,0
	c-1.7,0.1-3.3,0.6-5,0.7c-1.4,0-2.7,0.2-4.1,0.3c-1,0.1-2.1,0-3.1,0.1c-3.9,0.6-7.9,0.1-11.8-0.1c-1.1-0.1-2-0.4-3.1-0.4
	c-0.8,0-1.5,0-2.3,0c-0.8,0-1.6,0-2.4,0c-0.9,0-1.2,0.2-2,0.3c-0.5,0.1-1.2,0-1.4,0.6c-0.1,0.2,0.1,0.5,0,0.7c0,0.2-0.3,0.3-0.3,0.4
	c-0.1,0.5-0.1,0.9-0.1,1.4c0,0.5-0.2,1-0.4,1.4c0,0.1-0.1,0.3-0.1,0.4c-0.1,0.7,0,1.4,0,2.1c0,21.2,0,42.4,0,63.5h102.9
	c0.3-0.3,0.5-0.5,0.8-0.8c0.3-8.6,0.5-17.2,0.8-25.9c0.4-10.9,0.8-21.9,1.1-32.8c0.1-2.2,0.1-4.4,0.7-6.5c0.4-1.3,1.1-2.8,0.9-4.1
	C256.9,42.3,255,41.7,253.5,41.7z M226.9,108.4c0,0-9.6,0.3-11.9,0.1c-5.1-0.6-20.3-1.2-22.7-1.5c-2.6-0.3-11.5-0.2-11.5-0.2l-1-8.4
	c0,0,18.6,0.6,23.2,1.1V84.7c-4.2-0.5-8.6-0.6-12.8-0.8c-2-0.1-10.5-0.4-10.5-0.4l0.2-7.7c0,0,9.6-0.3,11.9-0.1
	c2.3,0.3,6.8,0.5,11.1,0.8V62c-4.2-0.5-8.6-0.6-12.8-0.8c-2-0.1-10.5-0.4-10.5-0.4l0.2-7.7c0,0,9.6-0.3,11.9-0.1
	c5.1,0.6,20.3,1.2,22.7,1.5c2.6,0.3,11.5,0.2,11.5,0.2l1,8.4c0,0-18.2-0.6-23-1.1v14.5c4.8,0.3,9.4,0.5,10.6,0.7
	c2.6,0.3,11.5,0.2,11.5,0.2l1,8.4c0,0-18.2-0.6-23-1.1v14.8c4.2,0.5,8.5,0.6,12.6,0.8c2,0.1,10.5,0.4,10.5,0.4L226.9,108.4z"/>
<path class="st3" d="M144.9,136c0.4-0.1,0.8-0.1,1.3-0.1c0.7,0,1.6,0.2,2.4,0.3c-0.1-0.1,1.3,0.6,2.4,1.9c0.5,0.6,0.9,1.3,1.1,2.2
	c1.4,5.5-5.6,8.2-9.6,5.6c-1.4-0.9-1.5-3.2-1.1-5.1c0.2-0.9,0.5-1.7,0.7-2.3c0.2-0.4,0.4-0.7,0.6-1c0.2-0.3,0.4-0.5,0.6-0.7
	l-4.7-4.7c-2.5,0-5,0.2-7.5,0.3c-4.2,0.2-7.6,3.7-7.8,7.8c-0.4,6.7,5.9,8.8,11.3,9.3c6.3,0.6,13.4,1.5,18.8-2.6
	c2-1.5,2.8-3.2,2.8-4.9c0.1-3.7-3.6-7.4-7.5-8.7c-2.8-0.9-5.8-1.1-8.7-1.2l4.2,4.2C144.5,136.1,144.7,136.1,144.9,136z"/>
<path class="st6" d="M142.8,137.5c-0.2,0.3-0.4,0.6-0.6,1c-0.3,0.6-0.6,1.4-0.7,2.3c-0.4,1.9-0.3,4.2,1.1,5.1c4,2.7,10.9,0,9.6-5.6
	c-0.2-0.8-0.6-1.6-1.1-2.2c-1.1-1.3-2.5-2-2.4-1.9c-0.9-0.2-1.7-0.3-2.4-0.3c-0.4,0-0.9,0-1.3,0.1c-0.2,0.1-0.4,0.1-0.6,0.2l3.4,3.4
	l-0.7,0.7l-3.6-3.6C143.2,137,143,137.2,142.8,137.5z"/>
<path class="st3" d="M118.7,109.5c0.2-0.1,0.5-0.2,0.8-0.3c0.4-0.1,0.8-0.1,1.3-0.1c0.7,0,1.6,0.2,2.4,0.3c-0.1-0.1,1.3,0.6,2.4,1.9
	c0.5,0.6,0.9,1.3,1.1,2.2c0.4,1.7,0,3.2-0.8,4.3l2.2,2.2c2-1.5,2.8-3.2,2.8-4.9c0.1-3.7-3.6-7.4-7.5-8.7c-3.2-1-6.7-1.2-10.1-1.2
	l4.7,4.7C118.3,109.8,118.5,109.6,118.7,109.5z"/>
<path class="st3" d="M120.5,120.1c-1.2,0-2.4-0.4-3.4-1c-0.3-0.2-0.5-0.4-0.6-0.6c-0.1-0.1-0.2-0.3-0.2-0.4
	c-0.1-0.3-0.2-0.6-0.3-0.9c-0.1-0.3-0.1-0.7-0.1-1c0-0.7,0.1-1.4,0.2-2.1c0.2-0.9,0.5-1.7,0.7-2.3c0.2-0.4,0.4-0.7,0.6-1l-5.4-5.4
	c-2.1,0-4.1,0.2-6.2,0.2c-4.2,0.2-7.6,3.7-7.8,7.8c-0.4,6.7,5.9,8.8,11.3,9.3c6,0.5,12.7,1.4,18-2l-2.1-2.1
	C124,119.6,122.2,120.2,120.5,120.1z"/>
<path class="st6" d="M116.8,111.7c-0.3,0.6-0.6,1.4-0.7,2.3c-0.1,0.7-0.2,1.4-0.2,2.1c0,0.4,0,0.7,0.1,1c0.1,0.3,0.2,0.6,0.3,0.9
	c0.1,0.1,0.1,0.3,0.2,0.4c0.2,0.2,0.4,0.5,0.6,0.6c1,0.7,2.2,1,3.4,1c1.7,0.1,3.4-0.5,4.7-1.6l-7.8-7.8
	C117.2,111,117,111.3,116.8,111.7z"/>
<path class="st6" d="M126.7,113.5c-0.2-0.8-0.6-1.6-1.1-2.2c-1.1-1.3-2.5-2-2.4-1.9c-0.9-0.2-1.7-0.3-2.4-0.3c-0.4,0-0.9,0-1.3,0.1
	c-0.3,0.1-0.5,0.2-0.8,0.3c-0.2,0.1-0.5,0.3-0.7,0.5l7.8,7.8C126.8,116.7,127.2,115.3,126.7,113.5z"/>
<path class="st3" d="M92.6,92c0.1,0.2-2.9-1.4-3.5-4.1c-1.4-5.5,5.6-8.2,9.6-5.6c2,1.4,1.3,5.5,0.3,7.4c-0.1,0.3-0.3,0.5-0.4,0.7
	l3.4,3.4c1.7-1.4,2.7-3.5,2.9-5.8c0.4-6.7-5.9-8.8-11.3-9.3c-6.3-0.6-13.4-1.5-18.8,2.6c-2,1.5-2.8,3.2-2.8,4.9
	c-0.1,3.7,3.6,7.4,7.5,8.7c5.7,1.7,11.8,1.2,17.6,0.9c1.5-0.1,2.9-0.6,4.2-1.4l-3.2-3.2C96.6,92.7,94.8,92.4,92.6,92z"/>
<path class="st6" d="M98.7,82.4c-4-2.7-10.9,0-9.6,5.6c0.6,2.6,3.7,4.2,3.5,4.1c2.2,0.4,4,0.6,5.4-0.7L94,87.4l0.7-0.7l3.9,3.9
	c0.1-0.2,0.3-0.5,0.4-0.7C99.9,87.8,100.7,83.8,98.7,82.4z"/>
<path class="st0" d="M204,59v3.1c4.9,0.6,23,1.1,23,1.1l-1-8.4c0,0-8.9,0.1-11.5-0.2c-2.4-0.3-17.6-1-22.7-1.5
	c-2.3-0.3-11.9,0.1-11.9,0.1l-0.2,7.7c0,0,8.5,0.3,10.5,0.4c4.2,0.2,8.6,0.3,12.8,0.8v-3H204z"/>
<path class="st0" d="M227,85.9l-1-8.4c0,0-8.9,0.1-11.5-0.2c-1.2-0.2-5.7-0.4-10.6-0.7v8.2C208.9,85.4,227,85.9,227,85.9z"/>
<path class="st0" d="M191.9,75.7c-2.3-0.3-11.9,0.1-11.9,0.1l-0.2,7.7c0,0,8.5,0.3,10.5,0.4c4.2,0.2,8.6,0.3,12.8,0.8v-8.1
	C198.6,76.3,194.2,76,191.9,75.7z"/>
<path class="st0" d="M204,99.6v4.4h-1v-4.5c-4.6-0.6-23.2-1.1-23.2-1.1l1,8.4c0,0,8.9-0.1,11.5,0.2c2.4,0.3,17.6,1,22.7,1.5
	c2.3,0.3,11.9-0.1,11.9-0.1l0.2-7.7c0,0-8.5-0.3-10.5-0.4C212.5,100.2,208.2,100.1,204,99.6z"/>
<path class="st0" d="M0.4,132c-0.1,0-0.3,0-0.4-0.1v0.1H0.4z"/>
<path class="st0" d="M0,158.5c2-0.7,3.8-1.7,5.1-2.6c3.3-2.2,4.8-6.5,4.6-10.9H0V158.5z"/>
<path class="st0" d="M0,144h9.7c-0.5-5.1-3.2-10.1-8.1-11.7c-0.4-0.1-0.7-0.2-1.1-0.3H0V144z"/>
<path class="st0" d="M10.1,146.7c0.5,6.1,8.4,12.2,14.3,9.9c5.8-2.5,7.3-4,8.9-10c0.1-0.5,0.3-1.1,0.3-1.6H10.1
	C10,145.6,10,146.1,10.1,146.7z"/>
<path class="st0" d="M22.8,133.1c-7.1-1.2-12,4.3-12.7,10.9h23.7C34.1,137.9,28.9,134.1,22.8,133.1z"/>
<path class="st0" d="M50.4,132h2.4C52,132,51.2,132,50.4,132z"/>
<path class="st0" d="M64,141.8v6.2C64.4,146.1,64.3,144.1,64,141.8z"/>
<path class="st0" d="M39.8,134.9c-3,1.9-5.4,4.8-5.8,8.6c0,0.2,0,0.4,0,0.5H49v1H33.9c0.2,2.7,1.5,5.4,2.8,7.7
	c1.4,2.5,2.6,4.4,5.1,5.9c1.6,1,2.9,1.2,4.8,1.2c1.6,0,3.5,0.2,5,0.1c3.1-0.3,5.8-2.6,8.2-4.4c2.4-2.5,3.7-4.8,4.3-7.5v-6.2
	c0-0.3-0.1-0.7-0.2-1c-1.1-6.2-5.9-8.4-11.1-8.7h-2.4c-0.6,0-1.1,0.1-1.7,0.1C45.3,132.5,42.7,133,39.8,134.9z"/>
<path class="st2" d="M175,32c3.9,0,7-3.1,7-7h-14C168,28.9,171.1,32,175,32z"/>
<path class="st2" d="M175,18c-3.5,0-6.4,2.6-6.9,6h13.8C181.4,20.6,178.5,18,175,18z"/>
<path class="st2" d="M283,25h-6.9c0.5,3.4,3.4,6,6.9,6c3.9,0,7-3.1,7-7c0-3.9-3.1-7-7-7s-7,3.1-7,7h7V25z"/>
<path class="st2" d="M82,31c3.5,0,6.4-2.6,6.9-6H82v-1h7c0-3.9-3.1-7-7-7s-7,3.1-7,7C75,27.9,78.1,31,82,31z"/>
<path class="st7" d="M36,58L36,58l1,0.2V58C36.7,58,36.3,58,36,58z"/>
<path class="st7" d="M36,34L36,34l1,0.2V34C36.7,34,36.3,34,36,34z"/>
<path class="st7" d="M36,22v12c0.3,0,0.7,0,1,0V22H36z"/>
<polygon class="st7" points="36,72 37,72 37,58.2 36,58.1 "/>
<path class="st7" d="M36,58c0.3,0,0.7,0,1,0V34.2l-1-0.2V58z"/>
<path class="st7" d="M9.7,144c0,0.3,0.1,0.7,0.1,1h0.3c0-0.3,0-0.7,0.1-1H9.7z"/>
<path class="st7" d="M33.9,144h-0.1c0,0.3,0,0.7-0.1,1h0.3C33.9,144.7,33.9,144.3,33.9,144z"/>
<path class="st7" d="M0,144v1h9.7c0-0.3,0-0.7-0.1-1H0z"/>
<path class="st7" d="M10.1,144c0,0.3-0.1,0.7-0.1,1h23.6c0-0.3,0.1-0.7,0.1-1H10.1z"/>
<path class="st7" d="M49,144H33.9c0,0.3,0,0.7,0,1H49V144z"/>
<path class="st5" d="M384.7,141c1.4-4,5.9-8.2,10.7-9H384v13L384.7,141L384.7,141z"/>
<path class="st5" d="M390.6,158.7c-3.4-2.3-5.7-5.2-6.6-8.8V160h14v-1.5C395.2,159.5,392.2,160,390.6,158.7z"/>
<path class="st0" d="M383.6,147.2c0,0.9,0.2,1.8,0.4,2.7V145L383.6,147.2z"/>
<path class="st0" d="M395.4,132h2.6v-0.1C397.1,131.8,396.2,131.9,395.4,132z"/>
<path class="st0" d="M394,145v-1h4v-12h-2.6c-4.8,0.8-9.3,5-10.7,9h0l-0.7,4v4.9c0.9,3.6,3.2,6.5,6.6,8.8c1.7,1.3,4.6,0.9,7.4-0.2
	V145H394z"/>
<rect x="394" y="144" class="st7" width="4" height="1"/>
<path class="st7" d="M168,25c0-0.3,0-0.7,0.1-1H89c0,0.3,0,0.7-0.1,1H168z"/>
<path class="st7" d="M276.1,25c0-0.3-0.1-0.7-0.1-1h-94.1c0,0.3,0.1,0.7,0.1,1H276.1z"/>
<path class="st7" d="M182,25c0-0.3,0-0.7-0.1-1h-13.8c0,0.3-0.1,0.7-0.1,1H182z"/>
<path class="st7" d="M283,25v-1h-7c0,0.3,0,0.7,0.1,1H283z"/>
<path class="st7" d="M82,25h6.9c0-0.3,0.1-0.7,0.1-1h-7V25z"/>
<path class="st7" d="M204,99.6V84.8c-0.1,0-0.3,0-0.4,0c-0.2,0-0.4,0-0.6-0.1v14.8c0.1,0,0.1,0,0.2,0
	C203.5,99.5,203.7,99.5,204,99.6z"/>
<path class="st7" d="M204,62.1c-0.1,0-0.3,0-0.4,0c-0.2,0-0.4,0-0.6-0.1v14.5c0.3,0,0.7,0,1,0.1V62.1z"/>
<path class="st7" d="M204,62.1V59h-1v3c0.2,0,0.4,0,0.6,0.1C203.7,62.1,203.9,62.1,204,62.1z"/>
<path class="st7" d="M204,84.8v-8.2c-0.3,0-0.7,0-1-0.1v8.1c0.2,0,0.4,0,0.6,0.1C203.7,84.8,203.9,84.8,204,84.8z"/>
<path class="st7" d="M204,104v-4.4c-0.3,0-0.5-0.1-0.8-0.1c-0.1,0-0.1,0-0.2,0v4.5H204z"/>
<polygon class="st7" points="137.1,129 137,128.9 137,129 "/>
<path class="st7" d="M128.1,120.1c-0.3,0.2-0.5,0.4-0.8,0.6l8.4,8.4h1.3v-0.1L128.1,120.1C128.1,120.1,128.1,120.1,128.1,120.1z"/>
<path class="st7" d="M117.4,110.7C117.4,110.7,117.4,110.7,117.4,110.7L117.4,110.7C117.4,110.7,117.4,110.7,117.4,110.7z"/>
<path class="st7" d="M118,110C118,110,118,110,118,110C118,110,118,110,118,110L118,110z"/>
<path class="st7" d="M109.1,101h-1.4l4.3,4.3c0.5,0,0.9,0,1.4,0L109.1,101z"/>
<path class="st7" d="M102,93.9c-0.3,0.2-0.5,0.4-0.8,0.6l6.5,6.5h1.4L102,93.9z"/>
<path class="st7" d="M135.7,129l3.1,3.1c0.5,0,0.9,0,1.4,0l-3.1-3.1H137H135.7z"/>
<path class="st7" d="M143.4,136.8c0.2-0.2,0.5-0.4,0.7-0.5C143.9,136.4,143.7,136.6,143.4,136.8z"/>
<path class="st7" d="M144.3,136.2c0,0-0.1,0-0.1,0.1C144.2,136.3,144.2,136.2,144.3,136.2L144.3,136.2z"/>
<path class="st7" d="M138.7,132.1l4.7,4.7c0,0,0,0,0,0c0.2-0.2,0.5-0.4,0.7-0.5c0,0,0.1,0,0.1-0.1l-4.2-4.2
	C139.7,132,139.2,132.1,138.7,132.1z"/>
<path class="st7" d="M147.7,139.6l-3.4-3.4c0,0-0.1,0-0.1,0.1c-0.2,0.1-0.5,0.3-0.7,0.5c0,0,0,0,0,0l3.6,3.6L147.7,139.6z"/>
<path class="st7" d="M128.1,120.1l-2.2-2.2c-0.2,0.3-0.4,0.5-0.7,0.7l2.1,2.1C127.6,120.5,127.8,120.3,128.1,120.1
	C128.1,120.1,128.1,120.1,128.1,120.1z"/>
<path class="st7" d="M117.4,110.7c0.2-0.3,0.4-0.5,0.6-0.7c0,0,0,0,0,0l-4.7-4.7c-0.5,0-0.9,0-1.4,0L117.4,110.7
	C117.4,110.7,117.4,110.7,117.4,110.7z"/>
<path class="st7" d="M118,110c-0.2,0.2-0.4,0.4-0.6,0.7c0,0,0,0,0,0l7.8,7.8c0.3-0.2,0.5-0.5,0.7-0.7L118,110
	C118,110,118,110,118,110z"/>
<path class="st7" d="M98.6,90.5c-0.2,0.3-0.4,0.6-0.6,0.8l3.2,3.2c0.3-0.2,0.5-0.4,0.8-0.6L98.6,90.5z"/>
<path class="st7" d="M94,87.4l3.9,3.9c0.2-0.2,0.4-0.5,0.6-0.8l-3.9-3.9L94,87.4z"/>
<path class="st4" d="M194.2,122l-2.9,36.2l0.4,11.8h164.4l-1-44.5L194.2,122z M324.3,164l-0.1-13h-35.3l0.1,12.8l-22.7,0.2l-0.1-13
	h-40.3l0.1,12.8l-22.7,0.2l-0.3-27.8l22.7-0.2l0.1,14h40.3l-0.1-13.8l22.7-0.2l0.1,14h35.3l-0.1-13.8l22.7-0.2l0.3,27.8L324.3,164z"
	/>
<path class="st3" d="M214,150c0,0,11.9,0,11.9,0c0,0,0,0,0,0c0-2.5,0-5-0.1-7.5c0-1.5,0-3.1,0-4.6c0-0.4,0.1-1,0-1.4
	c-0.3-0.9-1.6-0.9-2.5-1c-0.7-0.1-1.5,0-2.2,0c-2,0-4-0.1-5.9,0.3c-2.2,0.5-4.3,0.4-6.6,0.4c-1.4,0-2.8,0.2-4.2,0
	c-1.8-0.2-1.3,2-1.3,3.3c0.1,8.2,0.2,16.4,0.2,24.5l22.7-0.2l-0.1-12.8H214V150z"/>
<polygon class="st3" points="288.7,136 266,136.2 266.1,150 288.9,150 "/>
<polygon class="st3" points="266.3,164 289,163.8 288.9,151 266.1,151 "/>
<polygon class="st3" points="324,136.2 324.1,150 335,150 335,151 324.1,151 324.3,164 347,163.8 346.7,136 "/>
<polygon class="st7" points="288.9,150 288.9,151 324.1,151 324.1,150 "/>
<polygon class="st7" points="225.9,150 225.9,151 266.1,151 266.1,150 "/>
<polygon class="st7" points="214,150 214,151 225.9,151 225.9,150 "/>
<polygon class="st7" points="266.1,150 266.1,151 288.9,151 288.9,150 "/>
<polygon class="st7" points="335,150 324.1,150 324.1,151 335,151 "/>
<polygon class="st4" points="356.3,7.9 356.2,0 191.7,0 191.8,2.6 "/>
<polygon class="st6" points="343.3,47.5 343.5,48.5 343,48.6 343,54 364,54 364,45 322,45 322,48 341,48 "/>
<rect x="322" y="54" class="st6" width="21" height="3"/>
<polygon class="st6" points="322,52 322,48 301,48 301,53 317.5,53 "/>
<polygon class="st6" points="322,53.1 322,54 343,54 343,48.6 "/>
<polygon class="st6" points="341,48 322,48 322,52 "/>
<polygon class="st6" points="322,57 303.5,57 296.5,58.5 296.3,57.5 301,56.5 301,53 280,53 280,62 322,62 "/>
<polygon class="st6" points="322,53.1 303.5,57 322,57 322,54 "/>
<polygon class="st6" points="317.5,53 301,53 301,56.5 "/>
<polygon class="st7" points="343,48.6 343.5,48.5 343.3,47.5 341,48 343,48 "/>
<polygon class="st7" points="322,52 317.5,53 322,53 "/>
<polygon class="st7" points="322,53.1 343,48.6 343,48 341,48 322,52 322,53 "/>
<polygon class="st7" points="301,56.5 296.3,57.5 296.5,58.5 303.5,57 301,57 "/>
<polygon class="st7" points="322,53 317.5,53 301,56.5 301,57 303.5,57 322,53.1 "/>
<path class="st3" d="M280,109h9c-0.2-3.7-0.5-7.4-0.5-7.8c-1,0-8.2,0-9,0c-1.3-0.1-5,0-7.1,0.2c0.1,0.2,0.1,15.8,0.1,15.8
	s2.4-0.3,3.3-0.3c2.6,0,13.7-0.7,13.7-0.7s-0.2-2.9-0.4-6.2H280V109z"/>
<path class="st7" d="M289,109c0,0.3,0,0.7,0.1,1h6.8c0-0.3,0-0.7,0-1H289z"/>
<polygon class="st7" points="314.6,109 314.6,110 398,110 398,109 "/>
<path class="st7" d="M295.9,109c0,0.3,0,0.7,0,1h18.7l-0.1-1H295.9z"/>
<path class="st7" d="M280,109v1h9.1c0-0.3,0-0.7-0.1-1H280z"/>
<path class="st2" d="M15.4,122c1.6,0,3.3,0,4.9,0c1.2,0,7,0,7,0c0.3,0,0.5-0.1,0.7-0.4c0.4-0.8,0.1-2.6,0.3-3.3
	c0.7-2.5,0.9-5.1,0.6-7.7c-0.2-1.6-0.8-3.1-1.2-4.5c-0.2-0.8-0.4-2.3-0.4-3.2c-0.1-1-0.1-2-0.3-3c-0.2-1.1-0.2-2.1-0.4-3.1
	c-0.2-0.7-0.1-1.4-0.1-2.1c0-0.6,0.1-0.8-0.4-1.1c-0.4-0.2-1.5,0-2,0c-1.2,0-2.3-0.1-3.5,0c-1.4,0.1-2.6,0.5-4,0.4c-2.3,0-4.7,0-7,0
	c-2.9,0-5.9,0-8.8,0c-0.3,0-0.5,0-0.8,0v15h6.9c0-0.4,0-0.9,0-1.3c0-1.4,0-2.8,0.1-4.2c0-0.1,0-0.1,0-0.2V100h18l1,18l-19-1v-0.9
	c-0.2-0.6,0-1.4,0-2.2c0-1.3,0-2.6,0-3.9H0v11.6c3.3,0,6.5,0,9.8,0C11.7,121.6,13.5,122,15.4,122z"/>
<path class="st7" d="M6.9,110c0-0.3,0-0.7,0-1H0v1H6.9z"/>
<path class="st3" d="M13,110H6.9c0,1.3,0,2.6,0,3.9c0,0.8-0.2,1.6,0,2.2v0.9l19,1l-1-18H7v3.3c0,0.1,0,0.1,0,0.2
	c-0.1,1.4-0.1,2.8-0.1,4.2c0,0.4,0,0.9,0,1.3H13V110z"/>
<path class="st3" d="M13,110v-1H6.9c0,0.3,0,0.7,0,1H13z"/>
</svg>
