<svg xmlns="http://www.w3.org/2000/svg" viewBox="0 0 398 170"><g fill="none" fill-rule="evenodd"><path fill="#FFB08E" fill-rule="nonzero" d="M117.7 144.2c.4-10.5-4.3-20.9-11.6-28.5-4.7-4.9-10.8-8.9-17.5-9.5-3.8-.3-7.5.5-11.2 1.4-4.6 1.1-8.5 2-12.9 3.6 5.6 8.6 10.6 17.8 15.3 26.9-6.4 8.4-14 15.9-22.5 22.2 1.4 3.9 4.1 7.2 7.4 9.7h37.7c9.2-4.9 15-15.3 15.3-25.8zM72 3.7c6.6 1.8 13.6 1.2 20.3-.3 3.4-.7 6.7-1.7 9.8-3.3.1 0 .1-.1.2-.1H64.7c2.2 1.7 4.7 3 7.3 3.7z"/><path fill="#FF703D" fill-rule="nonzero" d="M193.4 9c-.6 1.8-1.1 3.8-.2 5.4 1.2 2.4 4.8 2.7 7.1 1.2 2.3-1.4 3.6-3.9 4.8-6.3 1.5-3 3.1-6 4.6-9.1l-.1-.2H197c-1.4 2.9-2.6 5.9-3.6 9zm23.1 147.6c1.3-2.5 2.7-5.1 2.5-7.8-.2-2.8-2.7-5.6-5.4-5-1.8.4-3 2.2-4 3.8-4.5 7.3-9.1 14.6-12.6 22.4h12.6l-.1-.2c3.7-6.3 3.4-6.3 7-13.2z"/><path fill="#FFB08E" fill-rule="nonzero" d="M5.2 42c2.5-1.7 3.6-5.3 1.4-7.3-1.3-1.2-3.4-1.6-5.3-1.8-.4 0-.9-.1-1.3-.1v11.1c1.9-.3 3.7-.9 5.2-1.9zm376.9-8.3s-21.4 2.4-37.7 3.3c-3.5.2-7.1.4-10.4 1.4-1.9.6-3.7 1.5-4.8 2.9-1.1 1.4-1.4 3.4-.2 4.8 1.4 1.7 4.3 1.8 6.7 1.8 19.5-.3 39-1.4 58.4-3.4 1.3-.1 2.6-.3 3.9-.5V32.8c-5.3-.4-10.7-.1-15.9.9z"/><path fill="#B7F2D4" fill-rule="nonzero" d="M6 61.3c2.1-1.2 3.4-3.8 2-5.6-2.6-.5-5.3-.9-8-1.2v8.2c2.1-.1 4.3-.4 6-1.4zm363-5.9s-19-.4-32.5 1.2c-2.1.2-4.2.5-6 1.5-1.8 1-3 2.8-2.6 4.5.8 2.9 5.4 3.4 9 3.2 19.9-1 39.9-2 59.8-3 .4 0 .8 0 1.3-.1v-8.2c-9.6-1-19.4-.7-29 .9z"/><path fill="#FFDA85" fill-rule="nonzero" d="M5.7 80.8c2.5-1.3 4.3-4.1 3.1-6.4-1.3-2.5-5.2-3.1-8.4-3.3H0v11.2c2-.3 4-.6 5.7-1.5zm366.8-8.2s-18.8 1.1-32.3 1.7c-3.1.1-6.3.3-9 1.7-2.6 1.4-4.2 4.6-2.6 6.8 1.7 2.4 5.6 2.5 8.8 2.4 19.3-.9 38.5-1.8 57.8-2.8.9 0 1.9-.1 2.8-.2V71c-8.5-.3-17.1.2-25.5 1.6z"/><path fill="#FFD164" fill-rule="nonzero" d="M5.5 90.7c-1.8-.2-3.7-.3-5.5-.4v7.5c3.1.2 6.1.2 8.3-1.5.7-.6.9-3 .7-3.9-.2-1.2-2-1.6-3.5-1.7zm358.2-.8l.1-.1c-10.9-.2-16.1 1.1-27 1.8-2.4.2-4.9.4-7 1.5-2 1.2-3.1 3.3-1.9 5.1 10.8 1.7 21.7.3 32.7-.5 10.3-.8 20.7-1.1 31.1-.7 2 .1 4.2.4 6.3.6v-7.5c-11.5-.6-22.9-.7-34.3-.2z"/><path fill="#FF703D" fill-rule="nonzero" d="M58.6 31.9c-.5 16.1-1 32.3-1.4 48.4-.5.1-1-.5-.7-1-7.9-.1-15.4-1.3-22.5-4.7 2.8-1.7 5.6-3.4 8.3-5.1-3.2 0-6.4-1.2-8.8-3.2 2.9-1.2 5.8-2.4 8.7-3.5-3.3.4-6.8-.7-9.4-2.8 3.6-2 7.3-4.1 10.9-6.1-3.8 0-7.7-.9-11-2.8 3.8-1.4 7.7-2.8 11.5-4.2-4.1-.6-8.1-1.7-12-3.1l12.3-3.9c.7-.2 1.5-.5 2-1.1.5-.7.5-1.6.5-2.4-.2-6.2-.5-12.3-.7-18.5 0-.6 0-1.4.5-1.8.4-.4 1.1-.3 1.6-.3 3.4.4 6.8.9 10.1 1.6.2 4.7.2 9.8.1 14.5z"/><path fill="#B7F2D4" fill-rule="nonzero" d="M103.6 65.1c-.3.7-.7 1.6-.4 2.3.3.7 1 1 1.6 1.4 11.6 5.7 23.4 10.9 35.5 15.4.6.2 1.2.5 1.9.3s1.3-.8 1.7-1.4c2.1-2.9 4.2-5.7 6.3-8.6.3-.4.7-.9.7-1.5 0-.7-.6-1.2-1.1-1.7-6.3-5.9-8.7-14.8-12.6-22.4-.4-.9-.9-1.7-1.7-2.3-.8-.7-1.9-1-2.9-1.3-6.4-1.8-13-4.5-19.6-5.4-4.4 7.3-5.4 17.3-9.4 25.2zm-69.3 61.3c-3.3.2-6.8-.1-9.8-1.7-3-1.6-5.3-4.6-5.3-8-.1-3.1 1.8-6 4.2-7.9 2.4-1.9 5.4-3.1 8.3-4.1.3 7 1.3 14.7 2.6 21.7z"/><path fill="#0068DA" fill-rule="nonzero" d="M32.8 104.5c3.3-.2 6.8.1 9.8 1.7 3 1.6 5.3 4.6 5.3 8 .1 3.1-1.8 6-4.2 7.9-2.4 1.9-5.4 3.1-8.3 4.1-.3-7-1.3-14.8-2.6-21.7z"/><path fill="#B7F2D4" fill-rule="nonzero" d="M218.2 136.4c19.2-20.8 32.8-46 51.6-67.2 1.4 12.4 2.5 25.3 3.3 37.7 2.4-.3 5.5.3 8 .4 3.2-15.4 1-30.8.7-46.6-.1-2.8.2-6 2.4-7.8.4-.3.9-.6 1.4-.6.8 0 1.5.6 2 1.2 3.1 3.9 3.4 9.3 3.4 14.3.2 18.9-.8 37.7-2.9 56.5-6.3-.5-12.6 2.1-19 2.4-6.9.4-13.9-.8-20.8-1-2.9-.1-5.8 0-8.7.3 3.3 4.6 7.8 9 11.1 13.6-9.6-.1-21.4-.6-30.7-3.1-1.2-.2-1-.7-1.8-.1z"/><path fill="#0068DA" fill-rule="nonzero" d="M231.9 24.2c1 5.7 1.5 11.6 1.6 17.4-2.5-2.3-5-4.6-7.5-6.8.5 2.6.9 5.3 1.4 7.9-7.3 2.6-15.2 3.3-22.9 4-14.9 1.2-29.7 2.5-44.6 3.7-.1-3.9-.1-7.7.2-11.6.3-5.2 1.1-4.7 6.2-5.1 7.4-.6 14.7-1.3 22-2.2 3.6-.6 43.8-6.5 43.6-7.3z"/><path fill="#3B3639" fill-rule="nonzero" d="M317 27l-13.2 5.7c-.4-5.3-.8-10.7-1.1-16-4.7 1.4-9.4 2.7-14.1 4.1-.3-4.7-.7-9.5-1-14.2-5.2 1.6-17.5 3.5-21.1 4.7-.3.1 12.8 11.3 17.4 15.2 8.7 7.3 28 21.4 28 21.4s5.4-15.6 5.1-20.9z"/><path fill="#FF703D" fill-rule="nonzero" d="M217.9 87.5c-3.7.2-7.5.4-11.2.6.8-6.1 1.6-12.3 2.4-18.4 3.3-.2 6.8 0 10.1.4-.9 4.5-.9 16.1-1.3 17.4z"/><path fill="#FFD164" fill-rule="nonzero" d="M152.9 124.1c1.7-1.7 3.3-3.4 5-5.2 1.9-2 3.8-3.9 5.5-6.1 1.8-2.4 3.2-4.9 4.8-7.5 3.2-5.2 6.7-10.2 10.5-15 4.5 12.7 5.8 26.9 9.5 39.9-11.4-2.7-23.9-4-35.3-6.1z"/><path fill="#0068DA" fill-rule="nonzero" d="M368.9 116.9c-5.7-.3-11.7-.5-16.9 2-2.7 1.3-5.3 3.9-4.9 6.8.3 1.8 1.6 3.3 3.2 4.1 1.6.8 3.4 1.2 5.2 1.6-1.9-.2-4.2-.1-6.1.3-1.7.4-3.6 1.2-4.1 2.9-.5 1.7.5 3.5 1.8 4.7 3.3 3.2 8.4 4.4 12.8 3-2.9.4-6.3-.1-9 1.1-2.7 1.2-4.9 4.3-3.8 7.1.6 1.5 2 2.5 3.5 3s3.1.6 4.7.6c3 .1 6 .2 8.9.3 5.7.2 11.8-.4 17.5-.8.2-7.8-.4-15.7-1.8-23.4-.8-4.8-2-9.6-1.8-14.5 0-.4-.9 0-1.2-.3-2.2.8-5.6 1.6-8 1.5z"/><path fill="#FF703D" fill-rule="nonzero" d="M357.4 17.7c2.3-3.3 4.7-6.6 7-9.9.6 5.5 1.2 10.9 1.7 16.4-3.9.3-7.7.6-11.6.9 2.7-1.3 5.3-3 7.6-5-2-.2-3.9-1.1-5.3-2.5"/><path fill="#FFD164" fill-rule="nonzero" d="M142.8 146.3c2.3-1.5 3.8-4.3 3.7-7 0-.9-.2-1.9-.7-2.7-.4-.8-1-1.4-1.7-1.9-4.5-3.4-11.2-.7-12.3 4.9-1.2 6.1 6.2 9.8 11 6.7z"/><path stroke="#000" d="M299.4 68.9l8-8m-5.3 12.3l8-8m-5.7 12l8-8M73.5 77l-.1-11m5.1 12l-.1-11m5.1 12l-.1-11M10 119l47.5-6.9M213 151.5h25m49.1 5l13.4-13.4m6.4 12.8l6-22.8M151.5 15v24M193 78.5h15"/><path fill="#3B3639" fill-rule="nonzero" d="M85.4 35c1.6-2.3 3-5.2 4.6-7.4-3.6-2-7-4.4-10.6-6.4-.8 2.3-2.1 4.3-3.9 5.9-.1 3.7-.7 8.5-.9 12.1 3.1-1.7 8.7-1.3 10.8-4.2z"/></g></svg>