<svg xmlns="http://www.w3.org/2000/svg" viewBox="0 0 398 170"><g fill="none" fill-rule="evenodd"><path fill="#FFD164" fill-rule="nonzero" d="M241.8 99.6c-31.4-1.3-60.7 2-94-.5 8.8 21.1 13.4 48.1 17.7 70.9h77.4c-1.4-22.2-1.8-48.4-1.1-70.4z"/><path fill="#FFB08E" fill-rule="nonzero" d="M23 103.9V170h102.7l1-1c.7-23.3 1.7-47.2 2.3-70.5-34.7-.2-69.5.9-104.2 3.3-.6.8-1.1 1.3-1.8 2.1z"/><path fill="#0068DA" fill-rule="nonzero" d="M28.1 36.1c-1 8.2-2.7 24.9-2.9 24.5 6.4 2.2 14.1 2.5 20.9 2.9 21.7 1.4 42.7 1.9 73-1.1.8-7.8 1-15.8 1.8-23.6-30.8-.4-62.2.2-92.8-2.7z"/><path fill="#FFDA85" fill-rule="nonzero" d="M100.2 66.3c.3 10.2.6 20.5 1 30.7 3.2 2.1 8 1.6 11.8.7-1.5-11-2.3-23.1-3.1-34.1-3.5 1.6-6.1 2.5-9.7 2.7z"/><path fill="#0068DA" fill-rule="nonzero" d="M165.9 66.7c-.1 10.9-.6 21.8-1.4 32.7 2.3 1.3 5.9 1.2 8.6 1.2h11.7c.6 0 1.4-.4 1.1-.9.1-10.5.5-21.4.6-31.9-7.1-1.6-13.3-1.4-20.6-1.1z"/><path fill="#FF703D" fill-rule="nonzero" d="M224.4 68.3c1.5 9.9 2.5 19.8 4 29.7-12.2-.1-25.7.4-37.9 1.1l-.9-30.7c11.6.4 23.1.6 34.8-.1z"/><path fill="#FFB08E" fill-rule="nonzero" d="M236.5 39.9c.9 9.3 2.3 19 2.2 28.3-30.3-1.7-60.5-3.2-90.8-3.9-.7-8.8-1.5-17.6-2.2-26.4 29.5.3 59.6 0 89.2.3 0 .7 1.5 1 1.6 1.7z"/><path fill="#B7F2D4" fill-rule="nonzero" d="M398 114.1l-.9-10.5c-3.9 1.1-8 .9-12 .7-39.6-1.9-77.9-2.4-117.6-4.4.8 22.9 1.1 46.8 1.1 69.7l.4.4h129v-55.9z"/><path fill="#FFD164" fill-rule="nonzero" d="M338.5 100.8c-.6-9.7-1.4-19.4-2.3-29.1-22.7-1.4-46.3-1.7-68.9-3.1.7 9.8 1.4 19.7 2.1 29.5 0 .5.5 1.1.8.7 22.9 1.5 45.4 2.1 68.3 2z"/><path fill="#0068DA" fill-rule="nonzero" d="M353.5 50.6c1.1.2 1.4 1.6 1.5 2.7 1.2 16.2 1.2 32.6 2.4 48.8-4.7-.7-10.8-.5-15.5-1.3-2.4-16.8-4.9-33.7-7.3-50.5-.1-.5-.9-.9-.8-.4 6 .6 12.8-.1 18.8 0 0 0 1 .7.9.7z"/><path fill="#FF703D" fill-rule="nonzero" d="M333 36.4c.2 11.3.8 22.1.9 33.4-14.5.9-29-.5-43.5-1.9-8-.8-16.1-.4-24.1-1.1-.6-9.9-1.6-19.3-1.7-32.3 23.5 1.2 44.9.9 68.4 1.9z"/><path fill="#FFD164" fill-rule="nonzero" d="M390.2 31.9c-1.5 23.5-.6 47.3 2.6 70.6-11 0-22.5-.4-33.6-1 1.7-23.6 2.5-47.3 2.6-70.9 9.5 2.8 19-1.5 28.4 1.3z"/><path stroke="#000" d="M263.8 63.8l75.6 4.7m-71.6 27.8l72.4 2.3M328 48.5l44-.3m-15-13.7l36 .4m-131-4.4l52-.7M15.2 99.2l117.2 4.4m13.6-1.1l98 .4"/><path fill="#FF703D" fill-rule="nonzero" d="M39.1 64.1C58.7 65.7 78.3 66.4 98 66c-1.3 1.2-3.6 4.2-4.9 5.3 2 1.8 4 3.2 6.6 3.9-2.4 1.6-5.5 3.6-7.9 5.2 2.5 1.6 5.4 2.9 7.9 4.4-2.2 2.1-4.1 5.1-5.9 7.7 2.2 1 3.9 2.3 6.1 3.3-21.4 1.6-43 2-63.6 1.3 2.8-1.1 4.5-2.1 6.9-4-2.3-1.8-4.8-4.6-7.2-6.4 2.8-.9 5.5-3.3 7.8-5.3-2.9-1.5-5.4-3.3-8.3-4.8 2.4-1.4 5.1-3.9 7.5-5.3-1.4-1.8-2.2-5.4-3.9-7.2z"/></g></svg>