<svg xmlns="http://www.w3.org/2000/svg" viewBox="0 0 398 170"><g fill="none" fill-rule="evenodd"><path fill="#FFAC89" fill-rule="nonzero" d="M67.4 95l-.1-6.1-22.8-16.8L75 74.3V49l-20.6 1.1L30.1 49H8l1.1 12L8 77.7v17.4l19.1-1.2L49.9 95z"/><path fill="#006AD9" fill-rule="nonzero" d="M154.5 69.1l4.1 23 25.2-2.2 13 9.5 29.2 18.3-5.1-44-7.6-21.4z"/><path fill="#FF6A36" fill-rule="nonzero" d="M93.4 101.9l-6.2 18.7 34.1 11.4-9.2-11.2 15.5-7.5z"/><path fill="#3B3639" fill-rule="nonzero" d="M132 135v30H74.5l25.5-23.5v15.8l16.2-19.8L119 157z"/><path fill="#FFAC89" fill-rule="nonzero" d="M220.4 143.9l-13.1 14.9-15.8 2.6-28.8-19.7-8.1-31.5 3.2-10.8 19.4-5.1 33.1 19.7z"/><path fill="#B7F2D4" fill-rule="nonzero" d="M85 67.1c6.3-9.4 15.8-13.9 28.3-9.7 8.4 2.9 17.6 14.3 14.3 24.1-5.1 15.2-29.9 17.7-38.1 5.8-3.5-5.1-8.2-15.7-4.5-20.2zm254.5 32.7c2.9-4.3 7.2-6.3 12.9-4.4 3.8 1.3 8 6.5 6.5 10.9-2.3 6.9-13.6 8-17.3 2.6-1.7-2.2-3.8-7-2.1-9.1z"/><path fill="#006AD9" fill-rule="nonzero" d="M362.7 101.2c1.8-11.3 24-4 17.7 6.6-2.5 4.2-7.5 5.7-12 3.8-2.6-1-4.1-2.6-5.2-4.9-.3-.8-1.7-5.3-.5-5.5z"/><path fill="#3B3639" fill-rule="nonzero" d="M339.5 143.9c2.9-4.3 7.2-6.3 12.9-4.4 3.8 1.3 8 6.5 6.5 10.9-2.3 6.9-13.6 8-17.3 2.6-1.7-2.3-3.8-7.1-2.1-9.1z"/><path fill="#FFAC89" fill-rule="nonzero" d="M362.7 145.2c1.8-11.3 24-4 17.7 6.6-2.5 4.2-7.5 5.7-12 3.8-2.6-1-4.1-2.6-5.2-4.9-.3-.8-1.7-5.3-.5-5.5z"/><path fill="#B7F2D4" fill-rule="nonzero" d="M6 7h249v34H6z"/><path stroke="#181718" d="M22.5 7v13m18-13v13m18-13v13m18-13v13m18-13v13m18-13v13m18-13v13m18-13v13m19-13v13m18-13v13m18-13v13m18-13v13m18-13v13"/><path fill="#FFD065" fill-rule="nonzero" d="M63.3 112.6l-19.9-8.5-23 4.2-12.6 29.9 15.5 20.5 15.6 4.6 18.2-7.4 10.2-24.1-4-19.2zM44.6 140c-2.8 3.1-9.4 5-13.1 1.8-5.6-5-2.2-16.2 4.5-17.6 2.9-.6 8.3-.6 9.6 1.8 3 4.4 3.2 9.3-1 14z"/><path fill="#3B3639" fill-rule="nonzero" d="M355 43l.8 38 20.7-.2L393 66.1V37.9l-2.3-14.8-9.5-12.6-10.9 4.8 9 17.2-20.2-11 8 21.5z"/><path fill="#B7F2D4" fill-rule="nonzero" d="M298 68.4V82h48.7l-.4-12.5-14.2-10.4-2.1-26.7 15-10.8V8h-48.7l.4 12.5 14.2 10.4 2.1 26.7z"/><path fill="#FFD984" fill-rule="nonzero" d="M236.3 55h9.7v107.6l-16.8 1.7z"/><path fill="#FF6A36" fill-rule="nonzero" d="M270.8 81.9c1.4.2 13.2 0 13.2 0V67.2l14-11.9V35.8L282.7 17l-2-9H265v74l5.8-.1z"/><path stroke="#181718" d="M147.5 48v117M265 88.5h128"/><path fill="#006AD9" fill-rule="nonzero" d="M290.7 126.4l-26.1 2.4 13.5 34.4z"/><path fill="#FFAC89" fill-rule="nonzero" d="M264.6 128.8l26.1-2.4-12.6-32z"/><path fill="#FFD984" fill-rule="nonzero" d="M296.3 131.2l26.1-2.4-13.5-34.4z"/><path fill="#FFAC89" fill-rule="nonzero" d="M322.4 128.8l-26.1 2.4 12.6 32z"/><path fill="#FF6A36" fill-rule="nonzero" d="M347 116.3c-4.8 2-6 3.2-7.4 7.9-1.8 6.1 3 9.8 8.7 10.7 6.7 1 11-4.6 10.5-10.8-.4-4.8-7-9.6-11.8-7.8z"/><path fill="#FFD984" fill-rule="nonzero" d="M371.8 133.7c11.9.1 17-14.9 2.8-17.2-13-2.2-14.9 16.8-2.8 17.2z"/></g></svg>