<svg xmlns="http://www.w3.org/2000/svg" viewBox="0 0 398 170"><g fill="none" fill-rule="evenodd"><path fill="#FFDA85" fill-rule="nonzero" d="M145.4 140.4c8.5-15.1 17-30.2 26.6-41.8 4.4-5.4 9.5-11.1 10.9-21.8C169.7 58.9 157 39.9 144.5 20c-1.5 18.7.9 37.2 1.2 56.2.3 18.4-1.2 36.8-1.2 55.2 0 3.8-.5 6.7.9 9z"/><path fill="#FFB08E" fill-rule="nonzero" d="M128.3 156.6c-7.9-.2-16.5 1.3-24.4 1.1-11.5-.2-21.3.7-32.8.4-6.7-.1-15-.7-21.7-.4-12.9.6-25 .4-37.7 2.5 1-49.9.6-99.8-1.2-149.7 8.4-.4 13.9-.4 20.4-.4 36.9 0 61.7-3.3 92.9-.3.9 22.5 1.1 45.3 3.2 68 1.2 13 1.6 26.1 2.1 39.1.4 14.4-.3 39.7-.8 39.7z"/><path fill="#FFDA85" fill-rule="nonzero" d="M83.8 30.1c1 1.3 2.4 2.3 3.6 3.5 1.2 1.1 2.2 2.5 3.5 3.4 3.3 2.4 8.1 1.7 11.1-1 3-2.8 4.4-7.2 4.1-11.5-.1-1.3-.3-2.7-1.1-3.7-5.3-6.7-27.9 4-21.2 9.3z"/><path fill="#FF703D" fill-rule="nonzero" d="M29.6 48.4c3 2.9 7.2 4.6 11.3 4.5 2.5-.1 5-.8 6.9-2.4 4.3-3.8 6.8-13.6 3.8-18.8-2.3-4.2-9.5-7.4-14-7.9-13.3-1.6-16.6 16.3-8 24.6z"/><path fill="#B7F2D4" fill-rule="nonzero" d="M68.9 61.9c-5 7.6-10 15.3-16 22.1-.7.8-1.5 1.7-1.2 2.8.2.7.8 1.2 1.4 1.6 5.7 4.2 7.8 4.5 13.5 8.7 2.1 1.6 9 7.5 14.1 7.4-1.6-5.6-1.2-9.6-2.6-14.2-1.7-5.7-2.7-11.7-3.2-17.7-.4-4.5.9-13.4-1.4-17-1.9 1.6-3.2 4.1-4.6 6.3z"/><path fill="#0068DA" fill-rule="nonzero" d="M113.7 82.6c-1-2.8-2.2-5.6-4.3-7.6-2.1-2-5.2-3-7.8-1.8-3.4 1.6-4.4 6.2-4.9 10.1-2 15.7-3 31.6-3 47.5 0 .8 0 1.8.6 2.3.5.5 1.2.5 1.9.4 5.3-.2 12.2.9 17.2-.7 5.1-1.6 4.6-6.1 4.8-11.1.8-12.7.5-27.3-4.5-39.1z"/><path fill="#FFDA85" fill-rule="nonzero" d="M45.7 148.4c2.4-6.8 5.9-13.2 10.2-18.8.5-.7 1.1-1.4 2-1.7 1.7-.5 3.2 1.1 4.3 2.5 4.9 6.5 9.5 13.3 13.7 20.4-8.1.5-17.5-.3-25.5-1.6-1.4-.4-3.2-.5-4.7-.8z"/><path fill="#3B3639" fill-rule="nonzero" d="M23.4 97.5c-.9-.9-2.3.4-3 1.5-.6 1.1-1.2 2.2-1.5 3.5-.2 1.1-.2 2.2 0 3.3 1.2 6.4 7.6 10.5 13.7 10.8 1.8.1 3.5-.1 5.2-.6 4.2-1.4 7.3-5.6 7.7-10.2.4-4.6-2-9.3-5.8-11.6-1.4-.8-2.9-1.3-4.5-1.8-3.8-1.1-8.3-1.6-11.4.9-3.5 2.9-3.9 8.3-3.9 13"/><path stroke="#000" d="M196 63.7L152.4 13M196 80.5h-60m60 16.6l-45.5 53.2"/><path fill="#FFDA85" fill-rule="nonzero" d="M385 23c-8.5 15.1-17 30.2-26.6 41.8-4.4 5.4-9.5 11.1-10.9 21.8 13.1 17.9 25.8 36.8 38.3 56.7 1.5-18.7-.9-37.2-1.2-56.2-.3-18.4 1.2-36.8 1.2-55.2 0-3.8.6-6.7-.8-8.9z"/><path stroke="#000" d="M334.3 99.7l43.6 50.6M334 82.5h61m-60.7-16.3L379.9 13"/><path fill="#B7F2D4" fill-rule="nonzero" d="M316.8 13.3c1.2 1.1 1.9 2.5 2.1 4.3 3.3 45.4 4.6 91.3 3.1 136.8-22.2-1.3-44.6-.9-66.7 1.2-16.9 1.6-34.7 2.3-51.6.8 3.7-47.9 4.7-96.1 3.1-144.2 15.2-1.5 29.9-1.2 45.1-1.3 10.4-.1 20.9.2 31.3.4 6.6.1 27-4 33.6 2z"/><path fill="#3B3639" fill-rule="nonzero" d="M284.3 55.2c1.6 2.1 1.6 5.5 1.6 8.2.1 12.7-.5 25.4-1 38.1v.9c-15.1.8-28.8-.8-43.9-2.2l-1.2-42.6c14.7-.5 29-1.9 43.7-2.4h.8s0-.2 0 0z"/></g></svg>