<?xml version="1.0" standalone="no"?>
<!DOCTYPE svg PUBLIC "-//W3C//DTD SVG 1.1//EN" "http://www.w3.org/Graphics/SVG/1.1/DTD/svg11.dtd" >
<svg xmlns="http://www.w3.org/2000/svg">
<metadata></metadata>
<defs>
<font id="akkurat_ttitalic" horiz-adv-x="1167" >
<font-face units-per-em="2048" ascent="1604" descent="-444" />
<missing-glyph horiz-adv-x="454" />
<glyph unicode="&#xd;" horiz-adv-x="454" />
<glyph unicode=" "  horiz-adv-x="454" />
<glyph unicode="&#x09;" horiz-adv-x="454" />
<glyph unicode="&#xa0;" horiz-adv-x="454" />
<glyph unicode="!" horiz-adv-x="669" d="M133 0l41 223h219l-41 -223h-219zM258 440l47 553l82 459h217l-82 -459l-145 -553h-119z" />
<glyph unicode="&#x22;" horiz-adv-x="901" d="M252 887l10 313l45 252h199l-45 -252l-101 -313h-108zM598 887l10 313l45 252h199l-45 -252l-100 -313h-109z" />
<glyph unicode="#" horiz-adv-x="1503" d="M74 391l28 150h283l107 342h-265l29 151h283l123 389h153l-121 -389h324l121 389h153l-121 -389h256l-26 -151h-279l-106 -342h258l-29 -150h-276l-123 -391h-154l123 391h-323l-123 -391h-154l121 391h-262zM539 541h323l107 342h-324z" />
<glyph unicode="$" d="M29 449v22q0 12 2 25h178q-2 -12 -2 -25v-25q0 -117 64.5 -185t172.5 -93l88 498q-10 2 -23 6t-24 8q-14 4 -26 8q-131 41 -211 125t-80 213q0 98 44 177t114.5 134.5t161 85t184.5 29.5l30 186h119l-35 -198q76 -16 140.5 -52t111.5 -88.5t74 -121t27 -148.5h-183 q0 98 -50 164t-146 88l-82 -471l59 -14q63 -16 120.5 -48t102 -78t70 -103.5t25.5 -125.5q0 -104 -41 -187t-113 -140q-74 -59 -170 -87t-196 -30l-33 -188h-121l37 198q-86 14 -157 52t-123 94.5t-80.5 131t-28.5 163.5zM348 1036q0 -63 41 -107t117 -69l57 -18l78 452 q-59 -2 -111.5 -19.5t-93.5 -50t-64.5 -79.5t-23.5 -109zM563 158q55 0 110.5 17.5t99.5 51t71.5 82t27.5 109.5q0 84 -55 134t-131 73l-39 12z" />
<glyph unicode="%" horiz-adv-x="1888" d="M186 1010q0 43 7.5 91t21.5 95t35.5 90t52.5 76q47 51 111.5 85t148.5 34q70 0 127.5 -23.5t96 -65.5t60 -99.5t21.5 -125.5q0 -45 -7 -93t-21.5 -94t-36 -88t-51.5 -75q-47 -51 -112 -86t-148 -35q-72 0 -128.5 23.5t-95.5 65.5t-60.5 99.5t-21.5 125.5zM250 41 l1306 1450l93 -88l-1307 -1452zM342 1014q0 -78 37 -129t123 -51q35 0 58.5 11t45.5 27q27 23 47.5 58t32.5 74.5t18.5 81.5t6.5 77q0 78 -37 129t-121 51q-35 0 -59.5 -11t-47.5 -27q-29 -23 -48 -58t-31.5 -74.5t-18.5 -81.5t-6 -77zM1026 287q0 43 7 91t21.5 95t36 90 t52.5 76q47 51 110.5 85t147.5 34q70 0 127 -23.5t96 -65.5t60.5 -99.5t21.5 -125.5q0 -45 -7 -93t-21.5 -94t-36 -88t-52.5 -75q-47 -51 -110.5 -86t-147.5 -35q-72 0 -128 23.5t-95 65.5t-60.5 99.5t-21.5 125.5zM1182 291q0 -78 35.5 -129t121.5 -51q35 0 59.5 11 t47.5 28q27 23 46 57.5t31.5 74.5t18.5 81.5t6 76.5q0 78 -35.5 129.5t-119.5 51.5q-35 0 -60.5 -11.5t-48.5 -27.5q-29 -23 -48 -58t-31.5 -74.5t-17.5 -81.5t-5 -77z" />
<glyph unicode="&#x26;" horiz-adv-x="1501" d="M100 344q0 86 30 154.5t79 123t113.5 98.5t134.5 81q-8 10 -17 22l-16 25q-8 14 -21 29q-31 47 -51 101t-20 114q0 84 29.5 154.5t84 122.5t129 81t166.5 29q80 0 142.5 -27t104.5 -69t64.5 -95t22.5 -108q0 -66 -19.5 -122.5t-53 -102.5t-78.5 -81.5t-97 -62.5 q-25 -12 -47 -23q-20 -10 -39.5 -21t-35.5 -19l247 -342q27 39 49.5 89t38 104t26.5 108.5t17 101.5h310l-23 -150h-149q-16 -98 -63.5 -202.5t-113.5 -180.5l199 -276h-211l-100 141q-31 -31 -76 -60.5t-100.5 -53t-120 -39t-133.5 -15.5q-76 0 -147.5 25t-128 73 t-91.5 116.5t-35 156.5zM274 360q0 -104 70 -164.5t170 -60.5q115 0 189.5 33t138.5 98l-299 416q-23 -14 -47.5 -25.5t-46.5 -25.5q-74 -45 -124.5 -112.5t-50.5 -158.5zM510 1104q0 -47 15.5 -86t39.5 -74l21 -29q10 -12 18 -25t17 -24l94 47q78 39 133 102.5t55 153.5 q0 27 -11 55.5t-32.5 52t-54.5 39t-78 15.5q-98 0 -157.5 -64.5t-59.5 -162.5z" />
<glyph unicode="'" horiz-adv-x="534" d="M240 887l12 313l45 252h197l-45 -252l-99 -313h-110z" />
<glyph unicode="(" horiz-adv-x="612" d="M100 440q0 127 23 258q20 123 65 246t109.5 236.5t147.5 215t182 179.5l92 -94q-180 -166 -293 -361.5t-156 -447.5q-12 -66 -17 -129.5t-5 -124.5q0 -174 42 -337t126 -323l-121 -55q-98 160 -146.5 351.5t-48.5 385.5z" />
<glyph unicode=")" horiz-adv-x="610" d="M-129 -225q180 180 294 382.5t159 454.5q12 68 17 132.5t5 127.5q0 172 -42 328t-124 309l115 68q100 -154 149.5 -342t49.5 -385q0 -63 -5.5 -125.5t-15.5 -124.5q-23 -123 -67 -250t-108.5 -245.5t-148 -227t-182.5 -194.5z" />
<glyph unicode="*" horiz-adv-x="1083" d="M186 1055l74 155l291 -123l29 338h180l-74 -338l322 123l34 -163l-337 -82l167 -265l-149 -94l-133 281l-234 -281l-125 103l258 260z" />
<glyph unicode="+" horiz-adv-x="1386" d="M109 549v141h491v506h143v-506h494v-141h-494v-539h-143v539h-491z" />
<glyph unicode="," horiz-adv-x="593" d="M2 -225q43 18 72.5 38.5t49 47t31 61.5t19.5 78h-131l43 240h254l-43 -240q-20 -115 -78.5 -194.5t-179.5 -127.5z" />
<glyph unicode="-" horiz-adv-x="886" d="M106 537l29 161h608l-28 -161h-609z" />
<glyph unicode="." horiz-adv-x="593" d="M47 0l43 244h244l-43 -244h-244z" />
<glyph unicode="/" horiz-adv-x="808" d="M-102 -27l890 1506h146l-891 -1506h-145z" />
<glyph unicode="0" d="M80 442q0 78 10 156t25 156q14 82 32.5 166t49 163.5t75.5 149.5t115 125q59 47 129 69.5t148 22.5q100 0 175.5 -32t129.5 -87q59 -63 88.5 -151t29.5 -197q0 -78 -9 -155.5t-23 -155.5q-14 -82 -32.5 -166t-49.5 -164t-77 -149.5t-116 -124.5q-121 -94 -276 -95 q-92 0 -162 29t-123 76q-72 63 -105.5 155.5t-33.5 208.5zM258 438q0 -61 13.5 -116.5t43 -97.5t77.5 -66.5t118 -24.5q104 0 168.5 57.5t103.5 141.5t58.5 181t33.5 175q12 74 24.5 148.5t12.5 150.5q0 61 -13 116.5t-43 97.5t-78 66.5t-118 24.5q-104 0 -168.5 -57 t-103.5 -142t-58.5 -181.5t-33.5 -174.5q-12 -74 -24.5 -148.5t-12.5 -150.5z" />
<glyph unicode="1" d="M279 981l34 201l394 241h167l-251 -1423h-177l213 1219z" />
<glyph unicode="2" d="M-4 0l27 156l729 690q55 53 88.5 114.5t33.5 139.5q0 39 -14 71.5t-37 57.5q-35 35 -83 50t-95 15q-86 0 -160.5 -59t-97.5 -178h-180q12 86 51 158.5t98.5 125t137 81t165.5 28.5q90 0 166 -24.5t133 -82.5q95 -98 95 -233q0 -115 -51.5 -204t-133.5 -167l-602 -575h617 l-27 -164h-860z" />
<glyph unicode="3" d="M59 367q0 16 1 32.5t3 32.5h181q-2 -14 -3 -26.5t-1 -26.5q0 -117 68.5 -182.5t185.5 -65.5q63 0 116.5 23.5t91 63.5t59 94.5t21.5 117.5q0 113 -70.5 170t-176.5 57h-86l28 162h84q61 0 117.5 15.5t97.5 47t65.5 82t24.5 117.5q0 49 -18.5 89t-51 68t-74.5 42t-89 14 q-111 0 -180.5 -65.5t-90.5 -169.5h-176q0 31 10.5 66.5t28 70.5t38 65.5t42.5 53.5q68 70 157 102.5t185 32.5q78 0 150.5 -23.5t128 -67.5t89.5 -109.5t34 -149.5q0 -61 -19.5 -120.5t-55.5 -110t-86 -88.5t-110 -56q90 -41 135 -125t45 -180q0 -98 -37.5 -180 t-102 -141.5t-150.5 -92.5t-181 -33q-90 0 -167.5 26t-136 76t-91.5 122.5t-33 169.5z" />
<glyph unicode="4" d="M-2 303l31 182l708 938h195l-729 -962h475l74 424h178l-74 -424h191l-27 -158h-193l-53 -303h-176l53 303h-653z" />
<glyph unicode="5" d="M90 377v31q0 14 2 30h174q-2 -14 -2 -28v-27q0 -117 71 -183.5t183 -66.5q78 0 137.5 35t100.5 90t61.5 125t20.5 139q0 119 -64.5 190.5t-187.5 71.5q-66 0 -125.5 -25.5t-102.5 -78.5l-188 39l166 704h778l-31 -157h-622l-105 -432q51 55 127 79.5t154 24.5 q90 0 160.5 -29.5t119 -82t74 -125t25.5 -158.5q0 -115 -35 -217.5t-101.5 -181t-161.5 -125t-216 -46.5q-86 0 -161 29t-131 81t-88 127t-32 167z" />
<glyph unicode="6" d="M104 449q0 68 8.5 140.5t20.5 143.5q27 154 70 298.5t135 254.5q59 70 147 117t205 47q92 0 176 -34t142 -109q33 -43 52 -100.5t19 -121.5h-178q0 43 -14.5 77t-36.5 61q-35 39 -80 54t-94 15q-57 0 -101.5 -19.5t-78.5 -49.5q-41 -35 -69 -85.5t-48.5 -107.5 t-34.5 -118.5t-25 -116.5q41 66 127 103.5t179 37.5q92 0 166.5 -31t127 -85t80 -129t27.5 -165q0 -127 -49 -242.5t-148 -199.5q-59 -51 -137 -81t-172 -30q-84 0 -156.5 28t-130.5 83q-76 72 -102.5 167t-26.5 198zM279 403q0 -117 67.5 -194.5t190.5 -77.5q55 0 99 18.5 t79 47.5q66 55 99.5 141t33.5 172q0 121 -65.5 196.5t-192.5 75.5q-57 0 -103.5 -19.5t-80.5 -49.5q-66 -57 -96.5 -140.5t-30.5 -169.5z" />
<glyph unicode="7" d="M102 0l826 1266h-731l28 157h924l-29 -157l-821 -1266h-197z" />
<glyph unicode="8" d="M61 360q0 68 20.5 130.5t58.5 115.5t92.5 93t119.5 63q-66 45 -104.5 116.5t-38.5 157.5q0 82 32.5 157t92.5 132q66 63 149.5 94t182.5 31q86 0 166.5 -27.5t142.5 -89.5q47 -47 73.5 -108t26.5 -129q0 -61 -18.5 -118.5t-52 -107t-80.5 -88.5t-105 -61q72 -37 119 -121 t47 -180q0 -92 -39 -176t-106 -146q-66 -61 -154 -93t-186 -32q-92 0 -180.5 31t-147.5 92q-51 53 -81 115.5t-30 148.5zM240 369q0 -57 21.5 -102.5t58 -76t85 -47t101.5 -16.5q66 0 122 22.5t96 62.5t62.5 94t22.5 120q0 57 -21.5 102t-57.5 76t-84 47.5t-101 16.5 q-66 0 -122 -22.5t-97 -62.5t-63.5 -95.5t-22.5 -118.5zM385 1036q0 -53 19.5 -95t52 -69.5t78 -42t94.5 -14.5q57 0 106 20.5t86 56.5t57.5 85t20.5 106q0 51 -20.5 92.5t-54 68t-78 40.5t-91.5 14q-57 0 -106 -19t-86 -54t-57.5 -83t-20.5 -106z" />
<glyph unicode="9" d="M84 334v22q0 6 2 13h174v-27q0 -43 17.5 -82t46.5 -67q35 -33 75.5 -46.5t87.5 -13.5q57 0 100.5 20.5t78.5 51.5q39 35 68.5 85t50 106.5t35 116.5t24.5 116q-41 -66 -127 -103t-178 -37q-88 0 -171 36t-139 108q-43 53 -66.5 119.5t-23.5 146.5q0 127 50.5 242.5 t148.5 199.5q59 51 138 80t173 29q117 0 211 -50t148 -157q29 -59 41 -125.5t12 -140.5q0 -70 -8.5 -141.5t-20.5 -143.5q-12 -76 -28.5 -150.5t-40 -146t-56.5 -136t-78 -120.5q-59 -70 -148 -117t-206 -47q-92 0 -178 35t-143 113q-33 43 -51.5 95t-18.5 116zM317 915 q0 -100 48 -172q35 -53 91 -76.5t117 -23.5q55 0 101.5 19.5t81.5 48.5q66 55 97.5 140t31.5 171q0 98 -47 170q-35 53 -89.5 77.5t-115.5 24.5q-55 0 -102.5 -20.5t-81.5 -48.5q-66 -55 -99 -139.5t-33 -170.5z" />
<glyph unicode=":" horiz-adv-x="614" d="M76 -2l41 225h227l-41 -225h-227zM219 809l41 227h227l-41 -227h-227z" />
<glyph unicode=";" horiz-adv-x="614" d="M31 -213q41 16 68.5 36.5t46 46.5t28.5 57.5t16 72.5h-116l39 225h227l-39 -225q-20 -113 -72.5 -185.5t-167.5 -117.5zM217 805l39 229h227l-39 -229h-227z" />
<glyph unicode="&#x3c;" horiz-adv-x="958" d="M72 625l651 649l100 -98l-551 -551l551 -551l-98 -101z" />
<glyph unicode="=" horiz-adv-x="1409" d="M178 274v158h987v-158h-987zM178 705v157h987v-157h-987z" />
<glyph unicode="&#x3e;" horiz-adv-x="958" d="M152 74l550 551l-550 551l100 98l651 -649l-653 -652z" />
<glyph unicode="?" horiz-adv-x="1013" d="M94 1051q16 86 48 157.5t94 132.5q63 63 156 100.5t202 37.5q100 0 174 -30t127 -81q98 -97 98 -238q0 -96 -35.5 -169.5t-93.5 -133.5q-35 -37 -71.5 -63.5t-72.5 -49t-70 -46t-62 -54.5q-66 -70 -84 -176l-8 -51h-160l8 72q10 86 34.5 144.5t65.5 101.5q29 31 63 55 t66 47l68 47q35 25 66 53q41 39 73.5 84t32.5 131q0 39 -12.5 70t-32.5 55q-31 37 -79 55.5t-105 18.5q-66 0 -118 -20.5t-90 -57.5t-61.5 -86t-33.5 -106h-187zM244 0l39 225h219l-39 -225h-219z" />
<glyph unicode="@" horiz-adv-x="1849" d="M125 580q0 190 66.5 355t186.5 285.5t285.5 189.5t362.5 69q145 0 273 -45t224.5 -130t153 -206t56.5 -273q0 -129 -42 -257t-135 -216q-57 -55 -119.5 -89t-158.5 -34q-74 0 -121 36t-59 79q-53 -59 -118 -87t-142 -28q-59 0 -110.5 23.5t-86.5 58.5q-47 45 -70.5 106.5 t-23.5 133.5q0 92 26.5 180t79 156.5t128 111.5t175.5 43q59 0 118 -26.5t89 -81.5l51 86h138l-127 -508q-4 -14 -6 -28.5t-2 -28.5q0 -41 22.5 -60.5t56.5 -19.5q47 0 81 19.5t65 49.5q35 35 59.5 81t38.5 97.5t20.5 103.5t6.5 99q0 119 -43 212t-119 156.5t-176.5 97.5 t-212.5 34q-164 0 -296 -60.5t-226.5 -164t-145.5 -238.5t-51 -282q0 -139 46 -251t129 -191t198.5 -121t253.5 -42q106 0 223 27t205 70l-29 -160q-88 -43 -200.5 -65.5t-211.5 -22.5q-160 0 -302 51t-249.5 148.5t-171 237.5t-63.5 319zM719 565q0 -78 38 -133t124 -55 q63 0 107 34.5t70.5 87t39 113t12.5 113.5q0 80 -40 128t-124 48q-41 0 -74.5 -20.5t-60.5 -49.5q-47 -53 -69.5 -126.5t-22.5 -139.5z" />
<glyph unicode="A" horiz-adv-x="1259" d="M-115 0l768 1452h213l260 -1452h-182l-57 344h-633l-176 -344h-193zM342 516h514l-127 754z" />
<glyph unicode="B" horiz-adv-x="1368" d="M76 0l256 1452h573q86 0 157 -25.5t122 -71.5t79.5 -111.5t28.5 -145.5q0 -57 -20.5 -114.5t-57 -107t-85 -85t-103.5 -48.5q39 -16 74 -46.5t60.5 -71.5t39.5 -88.5t14 -92.5q0 -115 -44 -198.5t-116.5 -138t-166.5 -81t-195 -26.5h-616zM285 168h426q63 0 121.5 18.5 t101.5 53t68.5 88t25.5 125.5q0 102 -69.5 161.5t-174.5 59.5h-409zM403 834h406q57 0 110.5 16t93.5 48t63.5 79t23.5 110q0 94 -64.5 148.5t-158.5 54.5h-394z" />
<glyph unicode="C" horiz-adv-x="1265" d="M82 518q0 98 15.5 209t48 218.5t85 203.5t125.5 168q78 74 177.5 118t222.5 44q115 0 204 -38t158 -110q66 -68 99.5 -157t33.5 -181h-188q0 72 -24.5 130.5t-67.5 99.5q-45 43 -99.5 62.5t-126.5 19.5q-80 0 -146.5 -33t-115.5 -82q-55 -55 -96 -137t-66.5 -173.5 t-39 -183.5t-13.5 -168q0 -80 20.5 -148.5t61.5 -120.5t103.5 -82t148.5 -30q72 0 137.5 26t108.5 69q43 41 70.5 85t42.5 99h190q-20 -94 -73.5 -182t-131.5 -150q-70 -55 -160 -88t-194 -33q-121 0 -215 42t-159.5 116t-100.5 173t-35 214z" />
<glyph unicode="D" horiz-adv-x="1378" d="M76 0l256 1452h465q117 0 208 -40t155.5 -110.5t98 -165.5t33.5 -208q0 -96 -14 -203t-47 -211t-83 -197.5t-122 -162.5q-78 -74 -178 -114t-244 -40h-528zM289 168h338q78 0 152.5 29.5t121.5 76.5q53 53 93 133t65.5 169.5t38 178.5t12.5 163q0 76 -21.5 143 t-63.5 116.5t-104.5 78t-144.5 28.5h-291z" />
<glyph unicode="E" horiz-adv-x="1265" d="M76 0l254 1452h958l-28 -168h-775l-79 -442h686l-31 -170h-682l-90 -504h782l-27 -168h-968z" />
<glyph unicode="F" horiz-adv-x="1191" d="M76 0l256 1452h932l-29 -168h-748l-84 -475h672l-31 -168h-671l-113 -641h-184z" />
<glyph unicode="G" horiz-adv-x="1353" d="M82 518q0 100 14.5 211t46 216.5t84 201.5t127.5 168q78 74 180.5 119t225.5 45q129 0 220 -45t142 -95q72 -68 107 -158.5t35 -174.5h-185q0 78 -36.5 145.5t-102.5 108.5q-41 25 -87 35t-108 10q-80 0 -147.5 -34t-116.5 -83q-55 -55 -96 -137t-66.5 -173.5t-38 -182.5 t-12.5 -167q0 -90 23.5 -165.5t79.5 -129.5q41 -41 100 -63.5t133 -22.5q100 0 176 38t129.5 101.5t85 145.5t47.5 170h-385l31 168h551l-137 -770h-133v141q-68 -86 -170.5 -127t-206.5 -41q-115 0 -202 36t-150 95q-78 74 -118 181.5t-40 232.5z" />
<glyph unicode="H" horiz-adv-x="1466" d="M76 0l256 1452h184l-106 -604h690l106 604h185l-256 -1452h-185l119 670h-690l-119 -670h-184z" />
<glyph unicode="I" horiz-adv-x="595" d="M76 0l256 1452h188l-256 -1452h-188z" />
<glyph unicode="J" horiz-adv-x="1038" d="M-41 340q0 23 3 50.5t7 49.5h181q-4 -20 -6.5 -40.5t-2.5 -41.5q0 -98 50.5 -154.5t154.5 -56.5q51 0 95 19.5t77 52.5t54.5 76t29.5 92l189 1065h184l-191 -1081q-16 -88 -53 -161t-95 -125t-135 -82t-169 -30q-74 0 -146.5 26t-126.5 79q-47 47 -73.5 111.5 t-26.5 150.5z" />
<glyph unicode="K" horiz-adv-x="1355" d="M76 0l256 1452h184l-135 -766l788 766h238l-571 -553l364 -899h-201l-305 762l-360 -350l-74 -412h-184z" />
<glyph unicode="L" horiz-adv-x="1097" d="M76 0l256 1452h184l-225 -1282h698l-31 -170h-882z" />
<glyph unicode="M" horiz-adv-x="1800" d="M76 0l256 1452h256l225 -1182l641 1182h270l-256 -1452h-178l221 1225l-663 -1205h-143l-240 1215l-211 -1235h-178z" />
<glyph unicode="N" horiz-adv-x="1503" d="M76 0l256 1452h209l497 -1192l205 1192h184l-256 -1452h-208l-498 1188l-205 -1188h-184z" />
<glyph unicode="O" horiz-adv-x="1341" d="M82 518q0 98 15.5 209t49 218.5t86 203.5t125.5 168q78 74 173.5 118t218.5 44t217 -43t158.5 -117t97 -173t32.5 -212q0 -98 -14 -209t-47 -218.5t-84 -203.5t-125 -168q-78 -74 -174 -118t-219 -44q-121 0 -215 42t-159.5 116t-100.5 173t-35 214zM268 528 q0 -80 20.5 -148.5t61.5 -120.5t103.5 -82t148.5 -30q80 0 143.5 32t112.5 81q55 55 95 137t64.5 174.5t37 184.5t12.5 168q0 80 -19.5 148.5t-59.5 120.5t-101.5 82t-147.5 30q-80 0 -142 -33t-112 -82q-55 -55 -96 -137t-67.5 -173.5t-40 -183.5t-13.5 -168z" />
<glyph unicode="P" horiz-adv-x="1275" d="M76 0l256 1452h526q86 0 163 -23.5t135 -70.5t92 -118t34 -163q0 -123 -41 -218t-114.5 -160.5t-173 -99.5t-216.5 -34h-379l-98 -565h-184zM389 729h354q156 0 252.5 87t96.5 247q0 59 -21.5 102t-58.5 70t-86 39t-103 12h-336z" />
<glyph unicode="Q" horiz-adv-x="1341" d="M82 518q0 98 15.5 209t49 218.5t86 203.5t125.5 168q78 74 173.5 118t218.5 44t217 -43t158.5 -117t97 -173t32.5 -212q0 -98 -15 -208t-48 -217.5t-84 -204.5t-123 -169l-8 -8l113 -170l-134 -92l-110 170q-55 -29 -118.5 -45.5t-135.5 -16.5q-121 0 -215 42t-159.5 116 t-100.5 173t-35 214zM268 528q0 -80 20.5 -148.5t61.5 -120.5t103.5 -82t148.5 -30q84 0 150 35l-142 217l129 93l138 -211q51 57 86.5 138t58 169t34 176t11.5 160q0 80 -19.5 148.5t-59.5 120.5t-101.5 82t-147.5 30q-80 0 -142 -33t-112 -82q-55 -55 -96 -137 t-67.5 -173.5t-40 -183.5t-13.5 -168z" />
<glyph unicode="R" horiz-adv-x="1355" d="M76 0l256 1452h547q94 0 171.5 -28.5t133 -81t86 -123t30.5 -152.5q0 -104 -38.5 -187t-94.5 -135q-84 -78 -213 -112l199 -633h-192l-189 608h-405l-107 -608h-184zM397 772h377q158 0 246 76t88 219q0 100 -66.5 159.5t-189.5 59.5h-365z" />
<glyph unicode="S" horiz-adv-x="1288" d="M43 483h190q0 -61 16.5 -117.5t57.5 -105.5q31 -35 68 -58.5t77 -36.5t81.5 -18.5t82.5 -5.5q72 0 140.5 22.5t117.5 69.5q33 31 52.5 73t19.5 95q0 72 -48 131.5t-157 88.5l-221 55q-68 16 -127 46t-102 75t-67.5 104.5t-24.5 134.5q0 104 46 189.5t132 146.5 q68 49 149.5 77t198.5 28q113 0 222.5 -42t182.5 -141q43 -57 66 -130.5t23 -147.5h-191q0 88 -43 158q-84 135 -278 135q-66 0 -127.5 -19.5t-108.5 -62.5q-39 -35 -60.5 -78t-21.5 -96q0 -86 52.5 -133.5t129.5 -65.5l232 -57q154 -39 245 -135.5t91 -237.5 q0 -94 -32 -169t-87 -128q-78 -78 -190.5 -116t-235.5 -38q-129 0 -246 43t-196 142q-57 72 -83 150.5t-26 174.5z" />
<glyph unicode="T" horiz-adv-x="1097" d="M121 1282l31 170h1048l-31 -170h-432l-223 -1282h-186l225 1282h-432z" />
<glyph unicode="U" horiz-adv-x="1417" d="M139 432q0 70 13 137l155 883h185l-160 -903q-4 -29 -7 -55.5t-3 -55.5q0 -147 87 -219t234 -72q78 0 141.5 26t111.5 72t79 109.5t43 137.5l170 960h184l-170 -965q-20 -113 -66 -207t-119 -162.5t-169 -106.5t-215 -38q-111 0 -202 33t-155.5 92.5t-100.5 144.5 t-36 189z" />
<glyph unicode="V" horiz-adv-x="1163" d="M117 1452h180l182 -1223l608 1223h199l-749 -1452h-187z" />
<glyph unicode="W" horiz-adv-x="1748" d="M178 1452h172l23 -1178l534 1158h164l139 -1151l430 1171h175l-545 -1452h-187l-135 1171l-530 -1171h-203z" />
<glyph unicode="X" horiz-adv-x="1187" d="M-109 0l588 733l-323 719h194l260 -588l463 588h207l-580 -719l330 -733h-194l-265 596l-469 -596h-211z" />
<glyph unicode="Y" horiz-adv-x="1136" d="M113 1452h186l260 -690l500 690h207l-641 -864l-103 -588h-186l106 588z" />
<glyph unicode="Z" horiz-adv-x="1253" d="M-39 0l33 182l1010 1100h-809l30 170h1030l-32 -184l-1014 -1100h840l-31 -168h-1057z" />
<glyph unicode="[" horiz-adv-x="628" d="M43 -233l315 1783h385l-22 -127h-244l-270 -1529h244l-23 -127h-385z" />
<glyph unicode="\" horiz-adv-x="811" d="M143 1479h136l358 -1506h-135z" />
<glyph unicode="]" horiz-adv-x="628" d="M-139 -233l22 127h242l270 1529h-241l22 127h385l-315 -1783h-385z" />
<glyph unicode="^" horiz-adv-x="1101" d="M145 829l344 650h156l344 -650h-182l-240 461l-241 -461h-181z" />
<glyph unicode="_" horiz-adv-x="1107" d="M-80 0h1014v-123h-1014v123z" />
<glyph unicode="`" horiz-adv-x="483" d="M129 1335l111 142l305 -252l-72 -92z" />
<glyph unicode="a" horiz-adv-x="1161" d="M53 416q0 141 48.5 279.5t148.5 236.5q59 59 139 95t176 36q41 0 82 -9.5t80 -29.5t70.5 -51t50.5 -70l51 133h143l-182 -1036h-133v154q-23 -39 -56.5 -72t-74.5 -57.5t-87 -38t-89 -13.5q-156 0 -252 103q-61 66 -88 150.5t-27 189.5zM231 416q0 -59 12.5 -117.5 t53.5 -105.5q27 -31 63.5 -50.5t85.5 -19.5q80 0 144.5 49t108.5 126t68 168t24 177q0 49 -8.5 91t-30.5 79q-25 41 -68 70.5t-109 29.5q-57 0 -107 -24.5t-89 -63.5t-66.5 -90t-46 -105.5t-27 -109.5t-8.5 -104z" />
<glyph unicode="b" horiz-adv-x="1193" d="M57 0l260 1479h175l-95 -543q111 127 293 127q84 0 160 -35t123 -98q51 -68 71.5 -147.5t20.5 -161.5q0 -72 -13.5 -148t-40 -146.5t-66.5 -133t-91 -109.5q-57 -53 -130 -82t-163 -29q-88 0 -175 43t-132 129l-51 -145h-146zM311 422q0 -57 13.5 -111.5t43 -95.5 t75.5 -66.5t114 -25.5q53 0 99 20.5t83 55.5q39 37 68 88t46 107.5t25.5 115t8.5 111.5q0 55 -13.5 107t-42 94t-73.5 66.5t-109 24.5q-47 0 -83 -13t-68 -38q-59 -45 -101.5 -113.5t-60.5 -146.5q-10 -45 -17.5 -89t-7.5 -91z" />
<glyph unicode="c" horiz-adv-x="1067" d="M53 399q0 117 31 236t95.5 214t161.5 154.5t232 59.5q82 0 155 -24.5t126 -72.5t84 -117t31 -155q0 -8 -1 -16t-1 -16h-179q0 6 1.5 11t1.5 11q0 104 -60.5 166.5t-165.5 62.5q-63 0 -111 -24.5t-85 -63.5t-63.5 -90t-43 -107.5t-24 -113.5t-7.5 -108q0 -68 18.5 -124.5 t59.5 -95.5q31 -29 72 -46t96 -17q98 0 165 57.5t95 145.5h174q-12 -78 -52 -142.5t-100.5 -111.5t-135 -73t-154.5 -26q-92 0 -169 31t-131 87t-85 134t-31 174z" />
<glyph unicode="d" horiz-adv-x="1193" d="M61 416q0 135 47.5 270t139.5 234q61 66 144 104.5t188 38.5q43 0 87 -10.5t84 -32t71.5 -53t49.5 -74.5l103 586h176l-260 -1479h-146v131q-53 -82 -139 -120t-172 -38q-78 0 -151.5 36t-122.5 97q-53 66 -76 147t-23 163zM242 416q0 -55 12 -107.5t40 -94.5t73 -66.5 t108 -24.5q47 0 85 15.5t71 39.5q59 45 99 111.5t58 144.5q10 45 17.5 89t7.5 91q0 57 -11 111.5t-39 95.5t-73 66.5t-112 25.5q-53 0 -98.5 -21.5t-82.5 -55.5q-41 -37 -69.5 -87.5t-48 -106.5t-28.5 -114.5t-9 -111.5z" />
<glyph unicode="e" horiz-adv-x="1103" d="M53 432q0 137 49.5 269.5t143.5 224.5q66 66 149.5 101.5t188.5 35.5q86 0 160.5 -28.5t132.5 -90.5q59 -63 85.5 -145t26.5 -168q0 -45 -5 -88t-15 -80h-736q-2 -14 -2 -29v-26q0 -129 69 -207t194 -78q82 0 145 45t98 123h181q-25 -74 -68 -133.5t-100.5 -100.5 t-128 -62.5t-146.5 -21.5q-111 0 -201 45t-149 140q-72 119 -72 274zM256 612h555q2 10 2 19v20q0 53 -15.5 101.5t-45 84t-74.5 57t-105 21.5q-63 0 -116.5 -27.5t-91.5 -68.5q-41 -41 -67 -94t-42 -113z" />
<glyph unicode="f" horiz-adv-x="741" d="M78 889l26 147h187l35 197q8 51 34.5 97t68.5 80t97.5 54.5t122.5 20.5q70 0 116 -11.5t95 -27.5l-26 -148q-47 16 -84 26.5t-93 10.5q-61 0 -106 -34.5t-55 -94.5l-31 -170h301l-27 -147h-301l-155 -889h-174l157 889h-188z" />
<glyph unicode="g" horiz-adv-x="1077" d="M-41 -176q0 82 52 151.5t132 100.5q-35 23 -57.5 57.5t-22.5 77.5q0 53 17.5 90t56.5 74q23 20 47.5 34.5t51.5 26.5q-45 47 -70 105.5t-25 126.5q0 90 39 168.5t109 134.5q53 43 125.5 67.5t156.5 24.5q59 0 114.5 -13.5t105.5 -41.5q35 66 92 98.5t123 32.5q41 0 73 -9 l-24 -141q-10 4 -26.5 5t-27.5 1q-39 0 -70.5 -17t-47.5 -48q35 -43 52 -96.5t17 -108.5q0 -88 -37.5 -168t-103.5 -137q-53 -45 -129 -70.5t-162 -25.5q-102 0 -178 34q-25 -6 -52.5 -20t-45.5 -35q-25 -25 -25 -59q0 -31 24.5 -52.5t65.5 -25.5l297 -31q129 -14 214 -82.5 t85 -181.5q0 -72 -25.5 -126t-66.5 -95q-74 -72 -185.5 -101.5t-242.5 -29.5q-47 0 -95 6t-95.5 20.5t-89.5 38t-74 58.5q-31 33 -51.5 80t-20.5 102zM117 -158q0 -55 43 -102q20 -23 49 -36t60.5 -22.5t64.5 -12.5t61 -3q92 0 167 17.5t122 64.5q23 23 35 47.5t12 63.5 q0 59 -46 91t-132 42l-262 28q-74 -12 -124 -56t-50 -122zM313 668q0 -98 61.5 -151.5t155.5 -53.5q55 0 100.5 20.5t78 55t51 82t18.5 100.5q0 98 -63.5 149.5t-155.5 51.5q-55 0 -101 -20.5t-78 -56.5t-49.5 -82t-17.5 -95z" />
<glyph unicode="h" horiz-adv-x="1177" d="M57 0l260 1479h175l-101 -572q57 72 145.5 114t180.5 42q145 0 227 -82q41 -41 56.5 -92.5t15.5 -106.5q0 -31 -6 -74.5t-11 -72.5l-112 -635h-174l110 623q2 8 4 24l9 66q2 16 2 24q0 41 -8.5 72t-30.5 53q-23 23 -54.5 35t-80.5 12q-76 0 -142.5 -48t-107.5 -107 q-37 -55 -59.5 -119t-32.5 -129l-91 -506h-174z" />
<glyph unicode="i" horiz-adv-x="548" d="M57 0l185 1036h178l-184 -1036h-179zM270 1274l37 205h203l-37 -205h-203z" />
<glyph unicode="j" horiz-adv-x="571" d="M-242 -387l25 135q27 -16 65.5 -26.5t67.5 -10.5q47 0 83 26.5t46 84.5l215 1214h176l-217 -1229q-20 -117 -89 -181t-179 -64q-53 0 -99.5 13t-93.5 38zM285 1274l37 205h202l-37 -205h-202z" />
<glyph unicode="k" horiz-adv-x="1101" d="M57 0l262 1479h175l-168 -953l546 510h220q-57 -51 -127 -116q-59 -55 -140.5 -131t-179.5 -166l303 -623h-186l-246 504l-233 -219l-52 -285h-174z" />
<glyph unicode="l" horiz-adv-x="587" d="M92 176q0 12 2 33.5t10 64.5l213 1205h175l-222 -1246q-2 -8 -2 -22q0 -72 78 -72q14 0 38 3t44 10l-25 -142q-53 -22 -116 -22h-6q-94 0 -144 55q-23 27 -34 57.5t-11 75.5z" />
<glyph unicode="m" horiz-adv-x="1765" d="M57 0l183 1036h141v-135q57 88 140 125t171 37q111 0 183.5 -53.5t91.5 -139.5q51 80 142 136.5t208 56.5q74 0 135 -27.5t100 -79.5q51 -66 52 -168q0 -23 -2.5 -46t-6.5 -48l-122 -694h-175l117 659q4 25 6 47.5t2 43.5q0 29 -7 56.5t-25.5 50t-51 36.5t-84.5 14 q-49 0 -90 -20.5t-78 -52.5q-53 -47 -86.5 -119t-50.5 -164l-98 -551h-174l117 659q4 25 6 47.5t2 43.5q0 29 -7.5 56.5t-25.5 50t-51 36.5t-84 14q-49 0 -90 -20.5t-78 -52.5q-53 -47 -87 -119t-50 -164l-99 -551h-174z" />
<glyph unicode="n" horiz-adv-x="1177" d="M57 0l183 1036h141v-143q55 78 148.5 124t187.5 46q145 0 227 -82q41 -41 56.5 -92.5t15.5 -106.5q0 -31 -6 -74.5t-11 -72.5l-112 -635h-174l110 623q2 8 4 24l9 66q2 16 2 24q0 41 -8.5 72t-30.5 53q-23 23 -54.5 35t-80.5 12q-76 0 -142.5 -48t-107.5 -107 q-37 -55 -59.5 -119t-32.5 -129l-91 -506h-174z" />
<glyph unicode="o" horiz-adv-x="1110" d="M53 406q0 117 31 234.5t95.5 210.5t162.5 152.5t233 59.5q92 0 172 -36t136 -101q47 -57 73.5 -133t26.5 -162q0 -117 -30.5 -234.5t-95 -211t-163 -153t-233.5 -59.5q-92 0 -172 36t-135 102q-47 57 -74 132.5t-27 162.5zM231 410q0 -57 14.5 -108.5t44 -91.5t76 -63.5 t109.5 -23.5q92 0 155.5 51t101.5 127t55.5 164t17.5 162q0 57 -14.5 108t-44 91t-75.5 63.5t-110 23.5q-92 0 -155.5 -51t-101.5 -127t-55.5 -164t-17.5 -161z" />
<glyph unicode="p" horiz-adv-x="1187" d="M-18 -444l260 1480h143v-123q51 76 134 113t169 37q82 0 158 -37t123 -100q51 -68 71.5 -145.5t20.5 -159.5q0 -113 -31 -227.5t-92 -208t-154.5 -153t-220.5 -59.5q-88 0 -175 41t-132 131l-102 -589h-172zM315 422q0 -57 13.5 -111.5t42 -95.5t75 -66.5t113.5 -25.5 q53 0 98 21.5t82 56.5q39 37 67 87t45 106.5t24.5 115t7.5 111.5q0 55 -12.5 108t-40 94t-71.5 66.5t-108 25.5q-90 0 -157 -51q-41 -31 -71 -72.5t-50.5 -90t-32.5 -98.5t-18 -99q-6 -41 -7 -82z" />
<glyph unicode="q" horiz-adv-x="1171" d="M53 416q0 113 33 227.5t97.5 207.5t160.5 152.5t223 59.5q88 0 171 -43t116 -129l51 145h148l-260 -1478h-177l97 542q-51 -66 -131 -96.5t-160 -30.5q-78 0 -151.5 36t-123.5 97q-53 66 -73.5 147t-20.5 163zM231 416q0 -55 12.5 -108.5t40 -94.5t71.5 -66.5t108 -25.5 q47 0 86 15.5t72 39.5q59 45 97 112.5t56 145.5q10 45 17.5 89t7.5 91q0 57 -11.5 111.5t-39 95.5t-71.5 66.5t-112 25.5q-53 0 -98 -22.5t-82 -56.5q-41 -37 -69.5 -87.5t-47 -105.5t-28 -113.5t-9.5 -111.5z" />
<glyph unicode="r" horiz-adv-x="784" d="M57 0l183 1036h141v-149q51 84 133 123t172 39q29 0 58.5 -3.5t58.5 -11.5l-29 -170q-25 10 -49.5 14.5t-58.5 4.5q-53 0 -98.5 -17.5t-82.5 -46.5q-72 -53 -109.5 -138t-56.5 -185l-88 -496h-174z" />
<glyph unicode="s" horiz-adv-x="1046" d="M33 311v18.5v18.5h174q-2 -10 -1 -15t1 -14q0 -41 19.5 -76.5t47.5 -60.5q43 -39 91.5 -51t109.5 -12q49 0 96 15.5t82 45.5q23 20 38.5 47t15.5 66q0 102 -132 133l-196 47q-45 10 -86 29.5t-74 50.5t-53.5 74t-22.5 94q0 80 32 142.5t89 109.5q53 41 126 65.5t159 24.5 q47 0 97 -9.5t95 -29.5t84 -52t64 -75t37 -83t12 -89h-176q0 31 -9.5 59.5t-31.5 57.5q-35 43 -85 60.5t-104 17.5q-51 0 -96 -14.5t-80 -53.5q-41 -45 -41 -102q0 -55 37 -83t74 -38q41 -10 101.5 -23.5t140.5 -36.5q94 -25 154.5 -90t60.5 -164q0 -74 -31 -137t-88 -110 q-59 -47 -137 -71t-162 -24q-113 0 -208 35t-159 115q-31 39 -48 87t-17 101z" />
<glyph unicode="t" horiz-adv-x="784" d="M59 887l27 149h205l47 264l184 54l-57 -318h305l-29 -149h-303l-96 -549q-6 -37 -8 -60.5t-2 -33.5q0 -59 35.5 -83t93.5 -24q18 0 43.5 4t50.5 10.5t47.5 12.5t34.5 12l-27 -145q-51 -25 -104 -35t-107 -10q-119 0 -186 73q-35 37 -46 77t-11 85q0 49 10 107l98 559 h-205z" />
<glyph unicode="u" horiz-adv-x="1175" d="M100 287q0 25 2 49t7 53l114 647h174l-112 -637q-6 -41 -6 -77q0 -49 13 -84t36 -60q47 -51 137 -51q57 0 101 25.5t79 62.5q59 66 88 147.5t45 167.5l90 506h174l-182 -1036h-143v133q-51 -78 -136 -119t-169 -41q-131 0 -215 74q-47 41 -72 100.5t-25 139.5z" />
<glyph unicode="v" horiz-adv-x="972" d="M53 1036h172l154 -831l432 831h190l-557 -1036h-188z" />
<glyph unicode="w" horiz-adv-x="1556" d="M129 1036h170l55 -786l396 774h141l131 -778l342 790h180l-463 -1036h-163l-134 788l-403 -788h-170z" />
<glyph unicode="x" horiz-adv-x="1015" d="M-92 0l450 535l-260 501h187l200 -391l328 391h215l-455 -518l283 -518h-188l-213 412l-338 -412h-209z" />
<glyph unicode="y" horiz-adv-x="1017" d="M-131 -375l25 135q29 -16 66.5 -32.5t84.5 -16.5q49 0 81 22.5t52 59.5l121 219l-227 1024h182l168 -811l432 811h193l-711 -1296q-45 -82 -109.5 -130t-156.5 -48q-61 0 -112.5 19.5t-88.5 43.5z" />
<glyph unicode="z" horiz-adv-x="1007" d="M-29 0l29 154l717 731h-588l27 151h807l-29 -153l-717 -731h602l-28 -152h-820z" />
<glyph unicode="{" horiz-adv-x="706" d="M70 586l26 147q33 -2 71 8.5t71.5 30t59.5 49t32 66.5l65 354q33 170 123 240.5t250 70.5h53l-22 -129h-54q-55 0 -93 -13t-61.5 -40t-37.5 -65.5t-23 -90.5l-59 -329q-16 -86 -76.5 -148.5t-154.5 -77.5v-4q82 -20 122.5 -81.5t26.5 -147.5l-53 -313q-4 -20 -6 -39 t-2 -39q0 -53 15 -83t42 -45.5t63.5 -18.5t79.5 -3l-22 -129h-55q-125 0 -196 61.5t-71 190.5q0 25 2 49.5t7 46.5l51 291q4 29 3 65t-30 64q-27 29 -65.5 45.5t-81.5 16.5z" />
<glyph unicode="|" horiz-adv-x="542" d="M201 -244v1796h141v-1796h-141z" />
<glyph unicode="}" horiz-adv-x="706" d="M-129 -244l23 129h53q55 0 92 15.5t61.5 43t39 66.5t22.5 84l59 330q16 86 81 150.5t159 78.5v4q-94 23 -132 89.5t-22 166.5l49 283q12 63 9 107.5t-25.5 71t-65.5 37.5t-110 11l22 129h56q172 0 231 -85t33 -232l-57 -322q-4 -29 -5.5 -67.5t27.5 -67.5q27 -29 68 -42 t84 -13l-27 -148q-92 4 -158.5 -48t-81.5 -132l-53 -301q-16 -90 -41.5 -153.5t-68.5 -104.5t-109 -60.5t-160 -19.5h-53z" />
<glyph unicode="~" horiz-adv-x="1300" d="M117 614q47 49 86 81t74.5 49.5t69.5 23.5t71 6q43 0 83 -9t81 -26q41 -16 78.5 -34.5t76.5 -32.5q43 -16 80 -17q20 0 42 2t45.5 12.5t50 30t61.5 54.5l102 -117q-49 -49 -88 -81t-73.5 -49.5t-68.5 -23.5t-71 -6q-57 0 -118.5 20.5t-120.5 49.5q-39 18 -79 35.5 t-83 17.5q-20 0 -42 -3t-45.5 -13.5t-51 -29.5t-60.5 -54z" />
<glyph unicode="&#xa1;" horiz-adv-x="669" d="M66 -422l81 459l146 553h119l-47 -553l-82 -459h-217zM276 807l41 223h220l-41 -223h-220z" />
<glyph unicode="&#xa2;" d="M125 600q0 115 28.5 229.5t89 209t152.5 155.5t219 70l33 188h125l-35 -197q133 -25 218 -117.5t85 -242.5q0 -8 -1 -16.5t-1 -16.5h-178q0 6 1 11.5t1 11.5q0 84 -40 141t-111 78l-140 -780q88 8 148.5 63t89.5 139h174q-12 -78 -52 -141t-99.5 -110.5t-133 -74 t-153.5 -26.5l-31 -174h-125l33 188q-135 35 -216 143.5t-81 268.5zM303 606q0 -68 18.5 -124t59.5 -95q16 -14 32.5 -25.5t37.5 -19.5l135 768q-45 -10 -81 -31.5t-65 -52.5q-37 -39 -63.5 -90t-43 -107.5t-23.5 -114t-7 -108.5z" />
<glyph unicode="&#xa3;" d="M8 0l29 162q158 2 186 164l62 352h-164l26 149h164l43 248q29 172 141.5 275.5t282.5 103.5q76 0 139.5 -23.5t108.5 -65.5t69.5 -100t24.5 -128q0 -31 -6 -58h-174q2 10 4 22.5t2 22.5q0 86 -49 131t-137 45q-51 0 -90 -20t-68 -53t-47 -73t-25 -79l-43 -248h330 l-26 -149h-328l-66 -367q-10 -47 -34.5 -92t-77.5 -59v-4h422q82 0 127 48t59 118h172q-18 -158 -121.5 -240t-269.5 -82h-666z" />
<glyph unicode="&#xa4;" d="M25 106l161 140q-41 57 -63.5 128.5t-22.5 145.5t22.5 145.5t63.5 129.5l-161 133l135 135l137 -158q119 82 266 82t264 -82l142 160l133 -137l-160 -133q41 -57 63.5 -129t22.5 -146t-22.5 -145.5t-63.5 -128.5l160 -140l-131 -131l-144 160q-57 -41 -122.5 -62.5 t-141.5 -21.5t-140.5 21.5t-123.5 62.5l-141 -160zM266 520q0 -59 19.5 -115.5t57.5 -99.5t93.5 -68.5t126.5 -25.5q72 0 127 24.5t93 65.5t57.5 97t19.5 122q0 63 -20.5 119.5t-59.5 97.5t-93 65.5t-124 24.5q-76 0 -131 -23.5t-92 -64.5t-55.5 -97t-18.5 -122z" />
<glyph unicode="&#xa5;" d="M29 346l20 125h338l33 186h-338l22 125h248l-252 641h183l245 -632l455 632h203l-479 -641h270l-23 -125h-360l-33 -186h361l-21 -125h-360l-62 -346h-176l62 346h-336z" />
<glyph unicode="&#xa6;" horiz-adv-x="557" d="M217 -102v630h156v-630h-156zM217 922v632h156v-632h-156z" />
<glyph unicode="&#xa7;" horiz-adv-x="1142" d="M53 -207q0 41 6 78h170q-4 -14 -4 -29v-28q0 -78 52.5 -121t128.5 -43q43 0 82.5 14t69.5 42t47.5 64.5t17.5 84.5q0 84 -60 143l-352 350q-45 43 -68.5 102.5t-23.5 120.5q0 117 66.5 197t164.5 133q-27 37 -38 82t-11 90q0 88 32 160t86 121t128 75.5t160 26.5 q63 0 123.5 -20.5t107.5 -58.5t75.5 -91t28.5 -121q0 -18 -2 -38.5t-6 -39.5h-170q6 27 6 58q0 76 -52 120t-128 44q-92 0 -154.5 -53.5t-62.5 -151.5q0 -84 59 -143l353 -351q45 -43 68.5 -102t23.5 -121q0 -117 -66.5 -196.5t-165.5 -133.5q27 -37 38.5 -82t11.5 -90 q0 -90 -32 -160.5t-87 -119.5t-129 -76t-160 -27q-68 0 -128 21.5t-106.5 60.5t-73 92.5t-26.5 116.5zM293 606q0 -35 12 -70.5t37 -60.5l320 -323q59 29 100 80.5t41 121.5q0 35 -12.5 70t-36.5 59l-320 324q-59 -29 -100 -80t-41 -121z" />
<glyph unicode="&#xa8;" horiz-adv-x="585" d="M106 1227l33 188h189l-33 -188h-189zM467 1227l33 188h188l-33 -188h-188z" />
<glyph unicode="&#xa9;" horiz-adv-x="1757" d="M139 725q0 158 56.5 295t155 239.5t233.5 161t295 58.5t295 -58.5t233 -160t154.5 -238.5t56.5 -295t-56.5 -295t-154.5 -239.5t-233.5 -161t-294.5 -58.5q-160 0 -295 58.5t-233.5 160t-155 238.5t-56.5 295zM276 725q0 -135 43 -249t122 -196.5t190.5 -129t247.5 -46.5 q135 0 246.5 47.5t190.5 130.5t122 196.5t43 248.5t-43 249t-122 196.5t-190.5 129t-246.5 46.5t-247 -47.5t-191 -130.5t-122 -196.5t-43 -248.5zM524 725q0 82 24.5 155.5t72 129t115 88t155.5 32.5q70 0 130 -21.5t105 -61t72 -94t33 -117.5h-156q-10 84 -62 122.5 t-122 38.5q-47 0 -86 -19.5t-66 -51.5q-33 -41 -47 -93.5t-14 -107.5t13.5 -107.5t45.5 -93.5q27 -33 67 -52t87 -19q70 0 122 38.5t62 122.5h156q-6 -66 -35 -120t-74 -93t-104.5 -60.5t-126.5 -21.5q-96 0 -169 41t-120 107q-43 61 -60.5 120.5t-17.5 137.5z" />
<glyph unicode="&#xaa;" horiz-adv-x="983" d="M141 862q0 39 14.5 81t47.5 78t87 60.5t136 30.5l231 14v54q0 29 -5 62.5t-31 55.5q-18 16 -49 27.5t-78 11.5q-53 0 -86 -12t-54 -33q-37 -37 -37 -98h-137q2 68 27.5 117t68.5 79.5t99.5 46t118.5 15.5q117 0 184 -44t96 -110q12 -29 16.5 -58.5t4.5 -63.5v-381 q0 -31 11 -40.5t30 -9.5q14 0 22 3q8 0 14 2v-105q-23 -12 -44 -16t-46 -4q-53 0 -83.5 33.5t-34.5 80.5q-35 -57 -100.5 -90t-147.5 -33q-68 0 -120 20.5t-86 55.5t-51.5 79t-17.5 91zM285 866q0 -51 33.5 -91t117.5 -40q45 0 85 14.5t71 47.5q35 35 50 82t15 94v43 l-204 -12q-31 -2 -61 -10.5t-53.5 -25t-38.5 -41t-15 -61.5z" />
<glyph unicode="&#xab;" horiz-adv-x="1118" d="M68 614l419 467l103 -88l-311 -387l172 -399l-127 -70zM547 614l418 467l102 -88l-309 -387l170 -399l-125 -70z" />
<glyph unicode="&#xac;" horiz-adv-x="1271" d="M109 541v157h993v-495h-160v338h-833z" />
<glyph unicode="&#xad;" horiz-adv-x="886" d="M106 537l29 161h608l-28 -161h-609z" />
<glyph unicode="&#xae;" horiz-adv-x="1757" d="M139 725q0 158 56.5 295t155 239.5t233.5 161t295 58.5t295 -58.5t233 -160t154.5 -238.5t56.5 -295t-56.5 -295t-154.5 -239.5t-233.5 -161t-294.5 -58.5q-160 0 -295 58.5t-233.5 160t-155 238.5t-56.5 295zM276 725q0 -135 43 -249t122 -196.5t190.5 -129t247.5 -46.5 q135 0 246.5 47.5t190.5 130.5t122 196.5t43 248.5t-43 249t-122 196.5t-190.5 129t-246.5 46.5t-247 -47.5t-191 -130.5t-122 -196.5t-43 -248.5zM623 346v784h288q55 0 106.5 -16t89.5 -47t60.5 -77t22.5 -105q0 -78 -35 -136.5t-106 -91.5l145 -311h-150l-131 289h-153 v-289h-137zM758 762h153q61 0 98.5 28.5t37.5 94.5q0 59 -40 89t-96 30h-153v-242z" />
<glyph unicode="&#xaf;" horiz-adv-x="598" d="M106 1204l25 139h569l-24 -139h-570z" />
<glyph unicode="&#xb0;" horiz-adv-x="935" d="M203 1143q0 74 25.5 135t70.5 106.5t107.5 70t134.5 24.5t134 -24.5t108 -70t72 -106.5t26 -135t-26 -135.5t-72 -106.5t-108.5 -69.5t-133.5 -24.5q-72 0 -134.5 24.5t-107.5 69.5t-70.5 106.5t-25.5 135.5zM356 1143q0 -86 52.5 -138.5t132.5 -52.5t133 52.5t53 138.5 t-53 138t-133 52t-132.5 -52t-52.5 -138z" />
<glyph unicode="&#xb1;" horiz-adv-x="1157" d="M129 0v141h899v-141h-899zM129 680v143h379v379h143v-379h377v-143h-377v-383h-143v383h-379z" />
<glyph unicode="&#xb2;" horiz-adv-x="935" d="M176 702l23 129l360 267q37 29 71 62.5t34 84.5q0 47 -33 69.5t-74 22.5q-68 0 -111 -38.5t-55 -104.5h-145q25 125 112.5 198.5t216.5 73.5q49 0 91.5 -14t75 -42t51 -65.5t18.5 -84.5q0 -51 -17.5 -92.5t-47 -76t-66.5 -63.5t-74 -55l-186 -135h340l-23 -136h-561z" />
<glyph unicode="&#xb3;" horiz-adv-x="872" d="M193 913q0 20 2 31h137q-2 -6 -2 -14v-12q0 -53 41 -84q20 -16 44.5 -22.5t49.5 -6.5q29 0 57.5 7t51 22.5t37 38t14.5 55.5q0 35 -17.5 55.5t-44 30.5t-56.5 12t-56 2l20 117q31 0 65.5 2t63.5 12t48.5 32.5t19.5 65.5q0 45 -34 71t-83 26q-66 0 -107 -33t-53 -96h-145 q23 119 100 178q43 35 94.5 50t122.5 15q59 0 116.5 -20.5t92.5 -63.5q18 -23 30.5 -51t12.5 -63q0 -66 -41 -117t-106 -68q45 -12 73.5 -57t28.5 -84q0 -68 -27.5 -116t-71.5 -78.5t-101.5 -46t-116.5 -15.5q-49 0 -96.5 15.5t-84 44t-58 70.5t-21.5 95z" />
<glyph unicode="&#xb4;" horiz-adv-x="491" d="M106 1231l394 250l71 -150l-413 -203z" />
<glyph unicode="&#xb5;" horiz-adv-x="1200" d="M170 -410v1446h174v-655q0 -117 49 -182.5t172 -65.5q53 0 95 21.5t77 56.5q49 51 67.5 129t18.5 158v538h174v-1036h-151l-15 158q-41 -90 -128 -136.5t-179 -46.5q-53 0 -102 15.5t-78 38.5v-439h-174z" />
<glyph unicode="&#xb6;" horiz-adv-x="1337" d="M172 1014q0 96 35 177t98.5 139.5t148.5 90t187 31.5h664l-25 -141h-141l-275 -1567h-149l274 1567h-229l-275 -1567h-153l164 936q-68 0 -126.5 26.5t-102.5 71.5t-69.5 105.5t-25.5 130.5z" />
<glyph unicode="&#xb7;" horiz-adv-x="602" d="M141 506l43 244h242l-43 -244h-242z" />
<glyph unicode="&#xb8;" horiz-adv-x="348" d="M-137 -397l211 276h159l-204 -360z" />
<glyph unicode="&#xb9;" horiz-adv-x="688" d="M186 1155l29 160l223 137h133l-133 -745h-143l102 577z" />
<glyph unicode="&#xba;" horiz-adv-x="983" d="M190 1034q0 94 24 176t89 148q43 43 102.5 68.5t135.5 25.5t136 -25.5t103 -68.5q66 -66 88.5 -148t22.5 -176t-22.5 -177t-88.5 -148q-43 -43 -103.5 -69t-135.5 -26q-76 0 -135.5 26t-102.5 69q-66 66 -89.5 148.5t-23.5 176.5zM336 1034q0 -70 14.5 -135t55.5 -108 q23 -25 55.5 -39.5t79.5 -14.5q88 0 137 54q41 43 55.5 108t14.5 135t-14.5 134.5t-55.5 107.5q-49 53 -137 53q-47 0 -80 -14.5t-55 -38.5q-41 -43 -55.5 -107.5t-14.5 -134.5z" />
<glyph unicode="&#xbb;" horiz-adv-x="1118" d="M18 227l312 387l-176 398l127 67l260 -473l-420 -467zM498 227l309 387l-174 398l127 67l258 -473l-418 -467z" />
<glyph unicode="&#xbc;" horiz-adv-x="1763" d="M162 43l1308 1442l101 -82l-1313 -1446zM244 1155l28 160l224 137h133l-133 -745h-144l103 577zM897 154l25 141l376 461h166l-389 -482h211l27 160h139l-27 -160h121l-22 -120h-121l-27 -154h-139l27 154h-367z" />
<glyph unicode="&#xbd;" horiz-adv-x="1828" d="M162 43l1308 1442l101 -82l-1313 -1446zM244 1155l28 160l224 137h133l-133 -745h-144l103 577zM967 0l22 129l361 266q37 29 70.5 63t33.5 85q0 47 -32.5 69.5t-73.5 22.5q-68 0 -111 -39t-55 -104h-146q25 125 113 198.5t217 73.5q49 0 91 -14.5t75 -42t51.5 -65.5 t18.5 -85q0 -51 -17.5 -92t-47.5 -76t-66.5 -63.5t-73.5 -55.5l-187 -135h340l-22 -135h-561z" />
<glyph unicode="&#xbe;" horiz-adv-x="1867" d="M193 913q0 20 2 31h137q-2 -6 -2 -14v-12q0 -53 41 -84q20 -16 44.5 -22.5t49.5 -6.5q29 0 57.5 7t51 22.5t37 38t14.5 55.5q0 35 -17.5 55.5t-44 30.5t-56.5 12t-56 2l20 117q31 0 65.5 2t63.5 12t48.5 32.5t19.5 65.5q0 45 -34 71t-83 26q-66 0 -107 -33t-53 -96h-145 q23 119 100 178q43 35 94.5 50t122.5 15q59 0 116.5 -20.5t92.5 -63.5q18 -23 30.5 -51t12.5 -63q0 -66 -41 -117t-106 -68q45 -12 73.5 -57t28.5 -84q0 -68 -27.5 -116t-71.5 -78.5t-101.5 -46t-116.5 -15.5q-49 0 -96.5 15.5t-84 44t-58 70.5t-21.5 95zM266 43l1309 1442 l100 -82l-1313 -1446zM1001 154l25 141l377 461h166l-389 -482h211l26 160h139l-26 -160h121l-23 -120h-121l-26 -154h-140l27 154h-367z" />
<glyph unicode="&#xbf;" horiz-adv-x="1013" d="M20 -94q0 96 36 170t94 133q35 37 71.5 63.5t72.5 49t69.5 46t62.5 54.5q66 70 84 176l8 51h160l-8 -71q-10 -86 -35 -144.5t-66 -101.5q-29 -31 -62.5 -55.5t-68.5 -49.5l-67 -47q-33 -23 -64 -51q-41 -39 -73.5 -84t-32.5 -131q0 -39 12 -69.5t33 -55.5 q31 -37 79 -55.5t105 -18.5q66 0 118 20.5t90 57.5t61.5 86t33.5 107h187q-16 -86 -48 -158t-94 -133q-63 -63 -156.5 -100t-201.5 -37q-100 0 -174 29.5t-127 80.5q-98 94 -99 238zM512 811l39 225h219l-39 -225h-219z" />
<glyph unicode="&#xc0;" horiz-adv-x="1259" d="M-115 0l768 1452h213l260 -1452h-182l-57 344h-633l-176 -344h-193zM342 516h514l-127 754zM580 1753l110 141l305 -252l-71 -92z" />
<glyph unicode="&#xc1;" horiz-adv-x="1259" d="M-115 0l768 1452h213l260 -1452h-182l-57 344h-633l-176 -344h-193zM342 516h514l-127 754zM549 1647l393 249l72 -149l-414 -203z" />
<glyph unicode="&#xc2;" horiz-adv-x="1259" d="M-115 0l768 1452h213l260 -1452h-182l-57 344h-633l-176 -344h-193zM342 516h514l-127 754zM461 1649l303 231h117l217 -235l-109 -101l-182 201l-260 -199z" />
<glyph unicode="&#xc3;" horiz-adv-x="1259" d="M-115 0l768 1452h213l260 -1452h-182l-57 344h-633l-176 -344h-193zM342 516h514l-127 754zM440 1712q49 47 103.5 79t124.5 32q43 0 74.5 -14.5t59 -31t56.5 -30.5t64 -14q41 0 75.5 17t63.5 44l61 -86q-47 -47 -103 -79t-124 -32q-47 0 -80 13.5t-60.5 30t-54 29.5 t-59.5 13q-41 0 -72.5 -15t-62.5 -42z" />
<glyph unicode="&#xc4;" horiz-adv-x="1259" d="M-115 0l768 1452h213l260 -1452h-182l-57 344h-633l-176 -344h-193zM342 516h514l-127 754zM506 1616l33 188h188l-33 -188h-188zM866 1616l33 188h188l-32 -188h-189z" />
<glyph unicode="&#xc5;" horiz-adv-x="1259" d="M-115 0l733 1384q-45 35 -69.5 85.5t-24.5 107.5q0 47 16.5 90t49.5 77t78 54.5t104 20.5q57 0 104.5 -20.5t79 -54.5t49 -77t17.5 -90q0 -70 -37 -129t-102 -90l243 -1358h-182l-57 344h-633l-176 -344h-193zM342 516h514l-127 754zM649 1577q0 -45 25.5 -81t73.5 -44 h49q47 8 72.5 44t25.5 81q0 51 -33 89t-90 38t-90 -38t-33 -89z" />
<glyph unicode="&#xc6;" horiz-adv-x="1863" d="M-129 0l913 1452h1102l-31 -170h-681l-74 -420h586l-31 -172h-586l-92 -518h692l-31 -172h-876l69 387h-516l-237 -387h-207zM422 559h440l127 729h-119z" />
<glyph unicode="&#xc7;" horiz-adv-x="1265" d="M82 518q0 98 15.5 209t48 218.5t85 203.5t125.5 168q78 74 177.5 118t222.5 44q115 0 204 -38t158 -110q66 -68 99.5 -157t33.5 -181h-188q0 72 -24.5 130.5t-67.5 99.5q-45 43 -99.5 62.5t-126.5 19.5q-80 0 -146.5 -33t-115.5 -82q-55 -55 -96 -137t-66.5 -173.5 t-39 -183.5t-13.5 -168q0 -80 20.5 -148.5t61.5 -120.5t103.5 -82t148.5 -30q72 0 137.5 26t108.5 69q43 41 70.5 85t42.5 99h190q-20 -94 -73.5 -182t-131.5 -150q-70 -55 -160 -88t-194 -33q-121 0 -215 42t-159.5 116t-100.5 173t-35 214zM264 -391l211 276h160 l-205 -360z" />
<glyph unicode="&#xc8;" horiz-adv-x="1265" d="M76 0l254 1452h958l-28 -168h-775l-79 -442h686l-31 -170h-682l-90 -504h782l-27 -168h-968zM631 1761l110 142l306 -252l-72 -92z" />
<glyph unicode="&#xc9;" horiz-adv-x="1265" d="M76 0l254 1452h958l-28 -168h-775l-79 -442h686l-31 -170h-682l-90 -504h782l-27 -168h-968zM637 1647l393 249l72 -149l-414 -203z" />
<glyph unicode="&#xca;" horiz-adv-x="1265" d="M76 0l254 1452h958l-28 -168h-775l-79 -442h686l-31 -170h-682l-90 -504h782l-27 -168h-968zM496 1649l303 231h117l217 -235l-109 -101l-182 201l-260 -199z" />
<glyph unicode="&#xcb;" horiz-adv-x="1265" d="M76 0l254 1452h958l-28 -168h-775l-79 -442h686l-31 -170h-682l-90 -504h782l-27 -168h-968zM561 1616l33 188h188l-32 -188h-189zM922 1616l32 188h189l-33 -188h-188z" />
<glyph unicode="&#xcc;" horiz-adv-x="595" d="M76 0l256 1452h188l-256 -1452h-188zM238 1753l110 141l305 -252l-71 -92z" />
<glyph unicode="&#xcd;" horiz-adv-x="595" d="M70 0l256 1452h188l-256 -1452h-188zM199 1647l393 249l72 -149l-414 -203z" />
<glyph unicode="&#xce;" horiz-adv-x="595" d="M76 0l256 1452h188l-256 -1452h-188zM135 1649l303 231h117l217 -235l-109 -101l-182 201l-260 -199z" />
<glyph unicode="&#xcf;" horiz-adv-x="595" d="M70 0l256 1452h188l-256 -1452h-188zM170 1616l33 188h188l-33 -188h-188zM530 1616l33 188h189l-33 -188h-189z" />
<glyph unicode="&#xd0;" horiz-adv-x="1378" d="M76 0l121 686h-105l25 135h104l111 631h465q117 0 208 -40t155.5 -110.5t98 -165.5t33.5 -208q0 -96 -14 -203t-47 -211t-83 -197.5t-122 -162.5q-78 -74 -178 -114t-244 -40h-528zM289 168h338q78 0 152.5 29.5t121.5 76.5q53 53 93 133t65.5 169.5t38 178.5t12.5 163 q0 76 -21.5 143t-63.5 116.5t-104.5 78t-144.5 28.5h-291l-82 -463h345l-25 -135h-342z" />
<glyph unicode="&#xd1;" horiz-adv-x="1503" d="M70 0l256 1452h209l497 -1192l205 1192h184l-256 -1452h-209l-497 1188l-205 -1188h-184zM547 1700q49 47 103.5 78.5t123.5 31.5q43 0 75 -14t59.5 -30.5t56 -31t63.5 -14.5q41 0 76 17.5t63 44.5l62 -86q-47 -47 -103.5 -79t-124.5 -32q-47 0 -79.5 13.5t-60 30 t-54.5 29.5t-59 13q-41 0 -73 -15.5t-63 -41.5z" />
<glyph unicode="&#xd2;" horiz-adv-x="1341" d="M82 518q0 98 15.5 209t49 218.5t86 203.5t125.5 168q78 74 173.5 118t218.5 44t217 -43t158.5 -117t97 -173t32.5 -212q0 -98 -14 -209t-47 -218.5t-84 -203.5t-125 -168q-78 -74 -174 -118t-219 -44q-121 0 -215 42t-159.5 116t-100.5 173t-35 214zM268 528 q0 -80 20.5 -148.5t61.5 -120.5t103.5 -82t148.5 -30q80 0 143.5 32t112.5 81q55 55 95 137t64.5 174.5t37 184.5t12.5 168q0 80 -19.5 148.5t-59.5 120.5t-101.5 82t-147.5 30q-80 0 -142 -33t-112 -82q-55 -55 -96 -137t-67.5 -173.5t-40 -183.5t-13.5 -168zM635 1769 l110 142l306 -252l-72 -92z" />
<glyph unicode="&#xd3;" horiz-adv-x="1341" d="M82 518q0 98 15.5 209t49 218.5t86 203.5t125.5 168q78 74 173.5 118t218.5 44t217 -43t158.5 -117t97 -173t32.5 -212q0 -98 -14 -209t-47 -218.5t-84 -203.5t-125 -168q-78 -74 -174 -118t-219 -44q-121 0 -215 42t-159.5 116t-100.5 173t-35 214zM268 528 q0 -80 20.5 -148.5t61.5 -120.5t103.5 -82t148.5 -30q80 0 143.5 32t112.5 81q55 55 95 137t64.5 174.5t37 184.5t12.5 168q0 80 -19.5 148.5t-59.5 120.5t-101.5 82t-147.5 30q-80 0 -142 -33t-112 -82q-55 -55 -96 -137t-67.5 -173.5t-40 -183.5t-13.5 -168zM580 1657 l393 250l71 -150l-413 -203z" />
<glyph unicode="&#xd4;" horiz-adv-x="1341" d="M82 518q0 98 15.5 209t49 218.5t86 203.5t125.5 168q78 74 173.5 118t218.5 44t217 -43t158.5 -117t97 -173t32.5 -212q0 -98 -14 -209t-47 -218.5t-84 -203.5t-125 -168q-78 -74 -174 -118t-219 -44q-121 0 -215 42t-159.5 116t-100.5 173t-35 214zM268 528 q0 -80 20.5 -148.5t61.5 -120.5t103.5 -82t148.5 -30q80 0 143.5 32t112.5 81q55 55 95 137t64.5 174.5t37 184.5t12.5 168q0 80 -19.5 148.5t-59.5 120.5t-101.5 82t-147.5 30q-80 0 -142 -33t-112 -82q-55 -55 -96 -137t-67.5 -173.5t-40 -183.5t-13.5 -168zM496 1649 l303 231h117l217 -235l-109 -101l-182 201l-260 -199z" />
<glyph unicode="&#xd5;" horiz-adv-x="1341" d="M82 518q0 98 15.5 209t49 218.5t86 203.5t125.5 168q78 74 173.5 118t218.5 44t217 -43t158.5 -117t97 -173t32.5 -212q0 -98 -14 -209t-47 -218.5t-84 -203.5t-125 -168q-78 -74 -174 -118t-219 -44q-121 0 -215 42t-159.5 116t-100.5 173t-35 214zM268 528 q0 -80 20.5 -148.5t61.5 -120.5t103.5 -82t148.5 -30q80 0 143.5 32t112.5 81q55 55 95 137t64.5 174.5t37 184.5t12.5 168q0 80 -19.5 148.5t-59.5 120.5t-101.5 82t-147.5 30q-80 0 -142 -33t-112 -82q-55 -55 -96 -137t-67.5 -173.5t-40 -183.5t-13.5 -168zM494 1712 q49 47 103 79t124 32q43 0 74.5 -14.5t59.5 -31t56.5 -30.5t63.5 -14q41 0 75.5 17t63.5 44l62 -86q-47 -47 -103.5 -79t-124.5 -32q-47 0 -79.5 13.5t-60.5 30t-54.5 29.5t-59.5 13q-41 0 -72.5 -15t-62.5 -42z" />
<glyph unicode="&#xd6;" horiz-adv-x="1341" d="M82 518q0 98 15.5 209t49 218.5t86 203.5t125.5 168q78 74 173.5 118t218.5 44t217 -43t158.5 -117t97 -173t32.5 -212q0 -98 -14 -209t-47 -218.5t-84 -203.5t-125 -168q-78 -74 -174 -118t-219 -44q-121 0 -215 42t-159.5 116t-100.5 173t-35 214zM268 528 q0 -80 20.5 -148.5t61.5 -120.5t103.5 -82t148.5 -30q80 0 143.5 32t112.5 81q55 55 95 137t64.5 174.5t37 184.5t12.5 168q0 80 -19.5 148.5t-59.5 120.5t-101.5 82t-147.5 30q-80 0 -142 -33t-112 -82q-55 -55 -96 -137t-67.5 -173.5t-40 -183.5t-13.5 -168zM545 1620 l33 188h188l-33 -188h-188zM905 1620l33 188h188l-32 -188h-189z" />
<glyph unicode="&#xd7;" horiz-adv-x="1388" d="M129 156l455 454l-455 455l111 111l452 -455l457 455l111 -111l-457 -455l457 -454l-111 -111l-455 455l-454 -455z" />
<glyph unicode="&#xd8;" horiz-adv-x="1341" d="M82 518q0 98 15.5 209t49 218.5t86 203.5t125.5 168q78 74 173.5 118t218.5 44q86 0 155.5 -20.5t126.5 -57.5l109 172l102 -51l-123 -197q68 -74 101.5 -174t33.5 -217q0 -98 -14 -209t-47 -218.5t-84 -203.5t-125 -168q-78 -74 -174 -118t-219 -44q-82 0 -151.5 20.5 t-127.5 55.5l-118 -190l-105 53l133 211q-70 74 -105.5 175t-35.5 220zM268 528q0 -68 14.5 -129t45.5 -110l606 958q-76 57 -195 58q-80 0 -142 -33t-112 -82q-55 -55 -96 -137t-67.5 -173.5t-40 -183.5t-13.5 -168zM412 203q78 -55 190 -56q80 0 143.5 32t112.5 81 q55 55 95 137t64.5 174.5t37 184.5t12.5 168q0 66 -12.5 126t-40.5 107z" />
<glyph unicode="&#xd9;" horiz-adv-x="1417" d="M141 428q0 35 2 71t9 70l155 883h185l-160 -903q-4 -29 -6 -57.5t-2 -57.5q0 -59 14 -113.5t61 -99.5q45 -43 102.5 -60.5t139.5 -17.5q80 0 143.5 29t111.5 76t79 110.5t43 133.5l170 960h184l-170 -965q-25 -143 -92.5 -252.5t-177.5 -179.5q-59 -39 -138 -60.5 t-165 -21.5q-244 0 -379 146q-59 66 -84 144.5t-25 164.5zM639 1753l111 141l305 -252l-72 -92z" />
<glyph unicode="&#xda;" horiz-adv-x="1417" d="M141 428q0 35 2 71t9 70l155 883h185l-160 -903q-4 -29 -6 -57.5t-2 -57.5q0 -59 14 -113.5t61 -99.5q45 -43 102.5 -60.5t139.5 -17.5q80 0 143.5 29t111.5 76t79 110.5t43 133.5l170 960h184l-170 -965q-25 -143 -92.5 -252.5t-177.5 -179.5q-59 -39 -138 -60.5 t-165 -21.5q-244 0 -379 146q-59 66 -84 144.5t-25 164.5zM637 1647l393 249l72 -149l-414 -203z" />
<glyph unicode="&#xdb;" horiz-adv-x="1417" d="M139 432q0 70 13 137l155 883h185l-160 -903q-4 -29 -7 -55.5t-3 -55.5q0 -147 87 -219t234 -72q78 0 141.5 26t111.5 72t79 109.5t43 137.5l170 960h184l-170 -965q-20 -113 -66 -207t-119 -162.5t-169 -106.5t-215 -38q-111 0 -202 33t-155.5 92.5t-100.5 144.5 t-36 189zM547 1649l303 231h117l217 -235l-109 -101l-182 201l-260 -199z" />
<glyph unicode="&#xdc;" horiz-adv-x="1417" d="M141 428q0 35 2 71t9 70l155 883h185l-160 -903q-4 -29 -6 -57.5t-2 -57.5q0 -59 14 -113.5t61 -99.5q45 -43 102.5 -60.5t139.5 -17.5q80 0 143.5 29t111.5 76t79 110.5t43 133.5l170 960h184l-170 -965q-25 -143 -92.5 -252.5t-177.5 -179.5q-59 -39 -138 -60.5 t-165 -21.5q-244 0 -379 146q-59 66 -84 144.5t-25 164.5zM582 1618l32 188h189l-33 -188h-188zM942 1618l33 188h188l-33 -188h-188z" />
<glyph unicode="&#xdd;" horiz-adv-x="1136" d="M113 1452h186l260 -690l500 690h207l-641 -864l-103 -588h-186l106 588zM496 1632l393 250l72 -149l-414 -203z" />
<glyph unicode="&#xde;" horiz-adv-x="1234" d="M72 0l256 1454h184l-47 -272h297q86 0 162.5 -23.5t135 -71t92.5 -118t34 -162.5q0 -123 -41 -218t-115 -161t-173 -100.5t-216 -34.5h-334l-51 -293h-184zM336 459h311q156 0 252 87t96 247q0 59 -21.5 102t-58 69.5t-86 39t-102.5 12.5h-293z" />
<glyph unicode="&#xdf;" horiz-adv-x="1224" d="M70 874l26 156h176l7 35q16 94 55 173t97 135.5t136 88t172 31.5q84 0 153 -25.5t118 -70.5t76.5 -107.5t27.5 -134.5q0 -63 -18.5 -123.5t-54 -110t-87 -84t-116.5 -44.5q61 -12 108 -45t80 -79t50.5 -101.5t17.5 -116.5q0 -102 -36 -188.5t-99.5 -150t-151.5 -99.5 t-193 -36q-111 0 -219 35l25 144q41 -12 87 -18.5t89 -6.5q152 0 235.5 88t83.5 238q0 63 -22.5 112t-60 83t-89 50.5t-106.5 16.5h-55l26 151q10 -2 22.5 -1t24.5 1h29q55 0 102.5 24t80 62.5t51 89t18.5 103.5q0 98 -57.5 147.5t-149.5 49.5q-59 0 -105 -23t-80 -61.5 t-56.5 -91t-32.5 -109.5l-185 -1061h-176l152 874h-176z" />
<glyph unicode="&#xe0;" horiz-adv-x="1161" d="M53 416q0 141 48.5 279.5t148.5 236.5q59 59 139 95t176 36q41 0 82 -9.5t80 -29.5t70.5 -51t50.5 -70l51 133h143l-182 -1036h-133v154q-23 -39 -56.5 -72t-74.5 -57.5t-87 -38t-89 -13.5q-156 0 -252 103q-61 66 -88 150.5t-27 189.5zM231 416q0 -59 12.5 -117.5 t53.5 -105.5q27 -31 63.5 -50.5t85.5 -19.5q80 0 144.5 49t108.5 126t68 168t24 177q0 49 -7.5 92t-29.5 78q-27 43 -69 71.5t-110 28.5q-57 0 -107 -24.5t-89 -63.5t-66.5 -90t-46 -105.5t-27 -109.5t-8.5 -104zM436 1335l111 142l305 -252l-72 -92z" />
<glyph unicode="&#xe1;" horiz-adv-x="1161" d="M53 416q0 141 48.5 279.5t148.5 236.5q59 59 139 95t176 36q41 0 82 -9.5t80 -29.5t70.5 -51t50.5 -70l51 133h143l-182 -1036h-133v154q-23 -39 -56.5 -72t-74.5 -57.5t-87 -38t-89 -13.5q-156 0 -252 103q-61 66 -88 150.5t-27 189.5zM231 416q0 -59 12.5 -117.5 t53.5 -105.5q27 -31 63.5 -50.5t85.5 -19.5q80 0 144.5 49t108.5 126t68 168t24 177q0 49 -7.5 92t-29.5 78q-27 43 -69 71.5t-110 28.5q-57 0 -107 -24.5t-89 -63.5t-66.5 -90t-46 -105.5t-27 -109.5t-8.5 -104zM412 1239l393 250l72 -150l-414 -202z" />
<glyph unicode="&#xe2;" horiz-adv-x="1161" d="M53 416q0 141 48.5 279.5t148.5 236.5q59 59 139 95t176 36q41 0 82 -9.5t80 -29.5t70.5 -51t50.5 -70l51 133h143l-182 -1036h-133v154q-23 -39 -56.5 -72t-74.5 -57.5t-87 -38t-89 -13.5q-156 0 -252 103q-61 66 -88 150.5t-27 189.5zM231 416q0 -59 12.5 -117.5 t53.5 -105.5q27 -31 63.5 -50.5t85.5 -19.5q80 0 144.5 49t108.5 126t68 168t24 177q0 49 -8.5 91t-30.5 79q-25 41 -68 70.5t-109 29.5q-57 0 -107 -24.5t-89 -63.5t-66.5 -90t-46 -105.5t-27 -109.5t-8.5 -104zM336 1239l266 236h113l186 -244l-106 -82l-150 188 l-223 -192z" />
<glyph unicode="&#xe3;" horiz-adv-x="1161" d="M53 416q0 141 48.5 279.5t148.5 236.5q59 59 139 95t176 36q41 0 82 -9.5t80 -29.5t70.5 -51t50.5 -70l51 133h143l-182 -1036h-133v154q-23 -39 -56.5 -72t-74.5 -57.5t-87 -38t-89 -13.5q-156 0 -252 103q-61 66 -88 150.5t-27 189.5zM231 416q0 -59 12.5 -117.5 t53.5 -105.5q27 -31 63.5 -50.5t85.5 -19.5q80 0 144.5 49t108.5 126t68 168t24 177q0 49 -7.5 92t-29.5 78q-27 43 -69 71.5t-110 28.5q-57 0 -107 -24.5t-89 -63.5t-66.5 -90t-46 -105.5t-27 -109.5t-8.5 -104zM328 1329q49 47 103 79t124 32q43 0 75 -14.5t59.5 -31 t56 -30.5t63.5 -14q41 0 76 17t63 44l62 -86q-47 -47 -103.5 -79t-124.5 -32q-47 0 -79.5 13.5t-60.5 30t-54.5 29.5t-59.5 13q-41 0 -72.5 -15t-62.5 -42z" />
<glyph unicode="&#xe4;" horiz-adv-x="1161" d="M53 416q0 141 48.5 279.5t148.5 236.5q59 59 139 95t176 36q41 0 82 -9.5t80 -29.5t70.5 -51t50.5 -70l51 133h143l-182 -1036h-133v154q-23 -39 -56.5 -72t-74.5 -57.5t-87 -38t-89 -13.5q-156 0 -252 103q-61 66 -88 150.5t-27 189.5zM231 416q0 -59 12.5 -117.5 t53.5 -105.5q27 -31 63.5 -50.5t85.5 -19.5q80 0 144.5 49t108.5 126t68 168t24 177q0 49 -7.5 92t-29.5 78q-27 43 -69 71.5t-110 28.5q-57 0 -107 -24.5t-89 -63.5t-66.5 -90t-46 -105.5t-27 -109.5t-8.5 -104zM381 1233l33 188h188l-33 -188h-188zM741 1233l33 188h189 l-33 -188h-189z" />
<glyph unicode="&#xe5;" horiz-adv-x="1161" d="M53 416q0 141 48.5 279.5t148.5 236.5q59 59 139 95t176 36q41 0 82 -9.5t80 -29.5t70.5 -51t50.5 -70l51 133h143l-182 -1036h-133v154q-23 -39 -56.5 -72t-74.5 -57.5t-87 -38t-89 -13.5q-156 0 -252 103q-61 66 -88 150.5t-27 189.5zM231 416q0 -59 12.5 -117.5 t53.5 -105.5q27 -31 63.5 -50.5t85.5 -19.5q80 0 144.5 49t108.5 126t68 168t24 177q0 49 -7.5 92t-29.5 78q-27 43 -69 71.5t-110 28.5q-57 0 -107 -24.5t-89 -63.5t-66.5 -90t-46 -105.5t-27 -109.5t-8.5 -104zM453 1374q0 43 15 82t44 69.5t71 49t95 18.5t95 -18.5 t70.5 -49t44 -69.5t15.5 -82t-15.5 -82t-44 -69.5t-70.5 -49t-95 -18.5t-95 18.5t-71 49t-44 69.5t-15 82zM565 1374q0 -47 31 -79.5t82 -32.5t80.5 32.5t29.5 79.5t-29.5 81t-80.5 34t-82 -34t-31 -81z" />
<glyph unicode="&#xe6;" horiz-adv-x="1730" d="M16 248q0 84 32 151.5t86 114.5t126 71.5t152 24.5h325q8 37 11.5 63.5t3.5 63.5t-8.5 67t-34.5 58q-23 25 -58 40.5t-82 15.5q-94 0 -155 -35q-41 -25 -71 -65t-40 -87h-170q18 84 61.5 146.5t103.5 103.5t134 61.5t156 20.5q43 0 87 -10.5t84 -29.5t71.5 -49t48.5 -69 q20 23 45.5 46.5t52.5 39.5q53 33 112.5 52.5t131.5 19.5q178 0 284 -119q57 -63 83 -145t26 -168q0 -45 -5 -88t-16 -80h-712q-2 -14 -2 -29v-26q0 -129 65.5 -207t188.5 -78q78 0 140 45t97 123h174q-47 -150 -162.5 -234t-265.5 -84q-111 0 -208 55.5t-144 159.5 q-49 -70 -117.5 -120t-150.5 -74q-70 -20 -156 -21q-74 0 -142.5 28t-109.5 75q-33 37 -52.5 78t-19.5 94zM195 270q0 -72 52 -109.5t118 -37.5q61 0 111 17.5t97 58.5q66 53 99 127.5t45 146.5h-287q-100 0 -167.5 -54t-67.5 -149zM903 612h539q2 10 2 19v20 q0 53 -15.5 101.5t-45 84t-72.5 57t-101 21.5q-61 0 -113.5 -25.5t-88.5 -66.5q-39 -41 -63.5 -96t-41.5 -115z" />
<glyph unicode="&#xe7;" horiz-adv-x="1067" d="M53 399q0 117 31 236t95.5 214t161.5 154.5t232 59.5q82 0 155 -24.5t126 -72.5t84 -117t31 -155q0 -8 -1 -16t-1 -16h-179q0 6 1.5 11t1.5 11q0 104 -60.5 166.5t-165.5 62.5q-63 0 -111 -24.5t-85 -63.5t-63.5 -90t-43 -107.5t-24 -113.5t-7.5 -108q0 -68 18.5 -124.5 t59.5 -95.5q31 -29 72 -46t96 -17q98 0 165 57.5t95 145.5h174q-12 -78 -52 -142.5t-100.5 -111.5t-135 -73t-154.5 -26q-92 0 -169 31t-131 87t-85 134t-31 174zM147 -397l211 276h160l-205 -360z" />
<glyph unicode="&#xe8;" horiz-adv-x="1103" d="M53 432q0 137 49.5 269.5t143.5 224.5q66 66 149.5 101.5t188.5 35.5q86 0 160.5 -28.5t132.5 -90.5q59 -63 85.5 -145t26.5 -168q0 -45 -5 -88t-15 -80h-736q-2 -14 -2 -29v-26q0 -129 69 -207t194 -78q82 0 145 45t98 123h181q-25 -74 -68 -133.5t-100.5 -100.5 t-128 -62.5t-146.5 -21.5q-111 0 -201 45t-149 140q-72 119 -72 274zM256 612h555q2 10 2 19v20q0 53 -15.5 101.5t-45 84t-74.5 57t-105 21.5q-63 0 -116.5 -27.5t-91.5 -68.5q-41 -41 -67 -94t-42 -113zM457 1335l110 142l305 -252l-71 -92z" />
<glyph unicode="&#xe9;" horiz-adv-x="1103" d="M53 432q0 137 49.5 269.5t143.5 224.5q66 66 149.5 101.5t188.5 35.5q86 0 160.5 -28.5t132.5 -90.5q59 -63 85.5 -145t26.5 -168q0 -45 -5 -88t-15 -80h-736q-2 -14 -2 -29v-26q0 -129 69 -207t194 -78q82 0 145 45t98 123h181q-25 -74 -68 -133.5t-100.5 -100.5 t-128 -62.5t-146.5 -21.5q-111 0 -201 45t-149 140q-72 119 -72 274zM256 612h555q2 10 2 19v20q0 53 -15.5 101.5t-45 84t-74.5 57t-105 21.5q-63 0 -116.5 -27.5t-91.5 -68.5q-41 -41 -67 -94t-42 -113zM442 1235l394 250l71 -150l-413 -202z" />
<glyph unicode="&#xea;" horiz-adv-x="1103" d="M53 432q0 137 49.5 269.5t143.5 224.5q66 66 149.5 101.5t188.5 35.5q86 0 160.5 -28.5t132.5 -90.5q59 -63 85.5 -145t26.5 -168q0 -45 -5 -88t-15 -80h-736q-2 -14 -2 -29v-26q0 -129 69 -207t194 -78q82 0 145 45t98 123h181q-25 -74 -68 -133.5t-100.5 -100.5 t-128 -62.5t-146.5 -21.5q-111 0 -201 45t-149 140q-72 119 -72 274zM256 612h555q2 10 2 19v20q0 53 -15.5 101.5t-45 84t-74.5 57t-105 21.5q-63 0 -116.5 -27.5t-91.5 -68.5q-41 -41 -67 -94t-42 -113zM330 1239l266 236h113l186 -244l-106 -82l-150 188l-223 -192z" />
<glyph unicode="&#xeb;" horiz-adv-x="1103" d="M53 432q0 137 49.5 269.5t143.5 224.5q66 66 149.5 101.5t188.5 35.5q86 0 160.5 -28.5t132.5 -90.5q59 -63 85.5 -145t26.5 -168q0 -45 -5 -88t-15 -80h-736q-2 -14 -2 -29v-26q0 -129 69 -207t194 -78q82 0 145 45t98 123h181q-25 -74 -68 -133.5t-100.5 -100.5 t-128 -62.5t-146.5 -21.5q-111 0 -201 45t-149 140q-72 119 -72 274zM256 612h555q2 10 2 19v20q0 53 -15.5 101.5t-45 84t-74.5 57t-105 21.5q-63 0 -116.5 -27.5t-91.5 -68.5q-41 -41 -67 -94t-42 -113zM367 1227l32 188h189l-33 -188h-188zM727 1227l33 188h188l-33 -188 h-188z" />
<glyph unicode="&#xec;" horiz-adv-x="548" d="M57 0l185 1036h178l-184 -1036h-179zM145 1335l111 142l305 -252l-72 -92z" />
<glyph unicode="&#xed;" horiz-adv-x="548" d="M57 0l185 1036h180l-184 -1036h-181zM152 1231l393 250l71 -150l-413 -203z" />
<glyph unicode="&#xee;" horiz-adv-x="548" d="M57 0l185 1036h180l-184 -1036h-181zM82 1239l266 236h113l186 -244l-106 -82l-150 188l-223 -192z" />
<glyph unicode="&#xef;" horiz-adv-x="548" d="M57 0l185 1036h178l-184 -1036h-179zM86 1227l33 188h188l-33 -188h-188zM446 1227l33 188h189l-33 -188h-189z" />
<glyph unicode="&#xf0;" horiz-adv-x="1120" d="M61 406q0 117 31 234.5t95.5 210.5t163 152.5t233.5 59.5q55 0 114 -16l-55 157h-246l23 121h174l-55 154h168l59 -154h209l-23 -121h-137l148 -405q14 -37 21 -83t7 -85q0 -117 -30.5 -234.5t-95 -211t-163 -153t-233.5 -59.5q-92 0 -173 37t-136 103q-47 57 -73 131.5 t-26 161.5zM240 410q0 -55 14 -107.5t45 -92.5t77 -63.5t107 -23.5q92 0 155.5 51t101.5 127t55.5 164t17.5 162q0 55 -14.5 107t-45 92t-76.5 63.5t-108 23.5q-92 0 -155.5 -51t-101.5 -127t-55 -164t-17 -161z" />
<glyph unicode="&#xf1;" horiz-adv-x="1177" d="M57 0l183 1036h141v-143q55 78 148.5 124t187.5 46q145 0 227 -82q41 -41 56.5 -92.5t15.5 -106.5q0 -31 -6 -74.5t-11 -72.5l-112 -635h-174l110 623q2 8 4 24l9 66q2 16 2 24q0 41 -8.5 72t-30.5 53q-23 23 -54.5 35t-80.5 12q-76 0 -142.5 -48t-107.5 -107 q-37 -55 -59.5 -119t-32.5 -129l-91 -506h-174zM367 1329q49 47 103 79t124 32q43 0 74.5 -14.5t59.5 -31t56.5 -30.5t63.5 -14q41 0 75.5 17t63.5 44l62 -86q-47 -47 -103.5 -79t-124.5 -32q-47 0 -79.5 13.5t-60.5 30t-54.5 29.5t-59.5 13q-41 0 -72.5 -15t-62.5 -42z" />
<glyph unicode="&#xf2;" horiz-adv-x="1110" d="M53 406q0 117 31 234.5t95.5 210.5t162.5 152.5t233 59.5q92 0 172 -36t136 -101q47 -57 73.5 -133t26.5 -162q0 -117 -30.5 -234.5t-95 -211t-163 -153t-233.5 -59.5q-92 0 -172 36t-135 102q-47 57 -74 132.5t-27 162.5zM231 410q0 -57 14.5 -108.5t44 -91.5t76 -63.5 t109.5 -23.5q92 0 155.5 51t101.5 127t55.5 164t17.5 162q0 57 -14.5 108t-44 91t-75.5 63.5t-110 23.5q-92 0 -155.5 -51t-101.5 -127t-55.5 -164t-17.5 -161zM444 1335l111 142l305 -252l-72 -92z" />
<glyph unicode="&#xf3;" horiz-adv-x="1110" d="M53 406q0 117 31 234.5t95.5 210.5t162.5 152.5t233 59.5q92 0 172 -36t136 -101q47 -57 73.5 -133t26.5 -162q0 -117 -30.5 -234.5t-95 -211t-163 -153t-233.5 -59.5q-92 0 -172 36t-135 102q-47 57 -74 132.5t-27 162.5zM231 410q0 -57 14.5 -108.5t44 -91.5t76 -63.5 t109.5 -23.5q92 0 155.5 51t101.5 127t55.5 164t17.5 162q0 57 -14.5 108t-44 91t-75.5 63.5t-110 23.5q-92 0 -155.5 -51t-101.5 -127t-55.5 -164t-17.5 -161zM432 1237l393 250l72 -150l-414 -202z" />
<glyph unicode="&#xf4;" horiz-adv-x="1110" d="M53 406q0 117 31 234.5t95.5 210.5t162.5 152.5t233 59.5q92 0 172 -36t136 -101q47 -57 73.5 -133t26.5 -162q0 -117 -30.5 -234.5t-95 -211t-163 -153t-233.5 -59.5q-92 0 -172 36t-135 102q-47 57 -74 132.5t-27 162.5zM231 410q0 -57 14.5 -108.5t44 -91.5t76 -63.5 t109.5 -23.5q92 0 155.5 51t101.5 127t55.5 164t17.5 162q0 57 -14.5 108t-44 91t-75.5 63.5t-110 23.5q-92 0 -155.5 -51t-101.5 -127t-55.5 -164t-17.5 -161zM336 1239l266 236h113l186 -244l-106 -82l-150 188l-223 -192z" />
<glyph unicode="&#xf5;" horiz-adv-x="1110" d="M53 406q0 117 31 234.5t95.5 210.5t162.5 152.5t233 59.5q92 0 172 -36t136 -101q47 -57 73.5 -133t26.5 -162q0 -117 -30.5 -234.5t-95 -211t-163 -153t-233.5 -59.5q-92 0 -172 36t-135 102q-47 57 -74 132.5t-27 162.5zM231 410q0 -57 14.5 -108.5t44 -91.5t76 -63.5 t109.5 -23.5q92 0 155.5 51t101.5 127t55.5 164t17.5 162q0 57 -14.5 108t-44 91t-75.5 63.5t-110 23.5q-92 0 -155.5 -51t-101.5 -127t-55.5 -164t-17.5 -161zM336 1341q49 47 103.5 79t123.5 32q43 0 75 -14.5t59.5 -30.5t56 -30.5t63.5 -14.5q41 0 76 17.5t63 43.5 l62 -86q-47 -47 -103.5 -78.5t-123.5 -31.5q-47 0 -80 13t-60.5 29.5t-54.5 30t-59 13.5q-41 0 -73 -15.5t-63 -42.5z" />
<glyph unicode="&#xf6;" horiz-adv-x="1110" d="M53 406q0 117 31 234.5t95.5 210.5t162.5 152.5t233 59.5q92 0 172 -36t136 -101q47 -57 73.5 -133t26.5 -162q0 -117 -30.5 -234.5t-95 -211t-163 -153t-233.5 -59.5q-92 0 -172 36t-135 102q-47 57 -74 132.5t-27 162.5zM231 410q0 -57 14.5 -108.5t44 -91.5t76 -63.5 t109.5 -23.5q92 0 155.5 51t101.5 127t55.5 164t17.5 162q0 57 -14.5 108t-44 91t-75.5 63.5t-110 23.5q-92 0 -155.5 -51t-101.5 -127t-55.5 -164t-17.5 -161zM358 1227l33 188h189l-33 -188h-189zM719 1227l33 188h188l-33 -188h-188z" />
<glyph unicode="&#xf7;" horiz-adv-x="1327" d="M133 535v159h1028v-159h-1028zM526 98v242h234v-242h-234zM526 905v242h234v-242h-234z" />
<glyph unicode="&#xf8;" horiz-adv-x="1118" d="M53 406q0 117 31 234.5t95.5 210.5t162.5 152.5t233 59.5q113 0 207 -53l121 188l88 -57l-125 -197q59 -61 88 -144t29 -169q0 -117 -30.5 -234.5t-95 -211t-163 -153t-233.5 -59.5q-98 0 -185 41l-110 -172l-90 60l110 174q-10 8 -17 16t-15 19q-47 57 -74 132.5 t-27 162.5zM231 410q0 -53 12.5 -101.5t37.5 -87.5l415 653q-55 39 -135 39q-92 0 -155.5 -51t-101.5 -127t-55.5 -164t-17.5 -161zM360 150q25 -12 52.5 -19.5t62.5 -7.5q92 0 155.5 51t101.5 127t55.5 164t17.5 162q0 45 -8.5 87t-26.5 77z" />
<glyph unicode="&#xf9;" horiz-adv-x="1175" d="M100 287q0 25 2 49t7 53l114 647h174l-112 -637q-6 -41 -6 -77q0 -49 13 -84t36 -60q47 -51 137 -51q78 0 132 45t93 102q37 53 57.5 125t30.5 131l90 506h174l-182 -1036h-143v133q-51 -78 -136 -119t-169 -41q-131 0 -215 74q-47 41 -72 100.5t-25 139.5zM436 1335 l111 142l305 -252l-72 -92z" />
<glyph unicode="&#xfa;" horiz-adv-x="1175" d="M100 287q0 25 2 49t7 53l114 647h174l-112 -637q-6 -41 -6 -77q0 -49 13 -84t36 -60q47 -51 137 -51q78 0 132 45t93 102q37 53 57.5 125t30.5 131l90 506h174l-182 -1036h-143v133q-51 -78 -136 -119t-169 -41q-131 0 -215 74q-47 41 -72 100.5t-25 139.5zM459 1235 l393 250l72 -150l-414 -202z" />
<glyph unicode="&#xfb;" horiz-adv-x="1175" d="M100 287q0 25 2 49t7 53l114 647h174l-112 -637q-6 -41 -6 -77q0 -49 13 -84t36 -60q47 -51 137 -51q78 0 132 45t93 102q37 53 57.5 125t30.5 131l90 506h174l-182 -1036h-143v133q-51 -78 -136 -119t-169 -41q-131 0 -215 74q-47 41 -72 100.5t-25 139.5zM358 1239 l304 268h112l209 -268l-102 -92l-181 235l-260 -235z" />
<glyph unicode="&#xfc;" horiz-adv-x="1175" d="M100 287q0 25 2 49t7 53l114 647h174l-112 -637q-6 -41 -6 -77q0 -49 13 -84t36 -60q47 -51 137 -51q78 0 132 45t93 102q37 53 57.5 125t30.5 131l90 506h174l-182 -1036h-143v133q-51 -78 -136 -119t-169 -41q-131 0 -215 74q-47 41 -72 100.5t-25 139.5zM401 1227 l33 188h189l-33 -188h-189zM762 1227l33 188h188l-33 -188h-188z" />
<glyph unicode="&#xfd;" horiz-adv-x="1017" d="M-131 -377l29 148q29 -16 66.5 -33t86.5 -17q41 0 75 18.5t58 63.5l115 209l-227 1024h182l168 -811l432 811h193l-711 -1296q-45 -82 -104.5 -130t-151.5 -48q-66 0 -118 17.5t-93 43.5zM406 1235l393 250l71 -150l-413 -202z" />
<glyph unicode="&#xfe;" horiz-adv-x="1191" d="M-20 -444l337 1923h175l-95 -545q53 66 131 97.5t158 31.5q82 0 158 -37t123 -100q51 -68 71.5 -145.5t20.5 -159.5q0 -113 -31 -227.5t-92.5 -208t-154.5 -153t-220 -59.5q-88 0 -175 41t-132 131l-102 -589h-172zM313 422q0 -57 13.5 -110.5t42 -95.5t74.5 -66.5 t114 -24.5q53 0 98 21.5t82 56.5q39 37 66.5 87t45 105.5t25 114t7.5 111.5q0 55 -12.5 108t-40 96t-71.5 69t-108 26q-47 0 -86 -15.5t-71 -40.5q-41 -31 -71 -72.5t-50.5 -90t-32.5 -98.5t-19 -99q-6 -41 -6 -82z" />
<glyph unicode="&#xff;" horiz-adv-x="1017" d="M-131 -375l25 135q29 -16 66.5 -32.5t84.5 -16.5q49 0 81 22.5t52 59.5l121 219l-227 1024h182l168 -811l432 811h193l-711 -1296q-45 -82 -109.5 -130t-156.5 -48q-61 0 -112.5 19.5t-88.5 43.5zM307 1227l33 188h188l-32 -188h-189zM668 1227l32 188h189l-33 -188h-188 z" />
<glyph unicode="&#x131;" horiz-adv-x="550" d="M57 0l185 1036h180l-184 -1036h-181z" />
<glyph unicode="&#x141;" horiz-adv-x="1089" d="M-14 631l219 123l123 698h184l-102 -584l288 162l50 -108l-365 -203l-96 -549h698l-31 -170h-882l106 604l-143 -80z" />
<glyph unicode="&#x142;" horiz-adv-x="690" d="M51 737l203 115l111 627h174l-90 -518l182 102l49 -109l-258 -143l-100 -575q-8 -41 10 -68t63 -27q14 0 38 3t44 10l-24 -144q-55 -23 -123 -22q-57 0 -96 20.5t-61.5 54t-29 76.5t1.5 90l84 473l-129 -71z" />
<glyph unicode="&#x152;" horiz-adv-x="2076" d="M82 518q0 100 15.5 211t49 217.5t87 202.5t128 170t171 117t219.5 43q117 0 221 -49.5t162 -149.5l30 172h934l-28 -168h-750l-80 -442h641l-31 -172h-637l-90 -502h758l-27 -168h-944l19 106q-66 -68 -157 -100.5t-183 -32.5q-121 0 -215 42t-159.5 115t-99.5 172 t-34 216zM268 528q0 -80 19.5 -148.5t60.5 -120.5t103.5 -82t148.5 -30q90 0 158.5 38t120 101.5t87 144.5t57 167t31 171t9.5 155q0 78 -18.5 146.5t-56.5 120.5t-99.5 83t-147.5 31q-88 0 -156.5 -38t-121.5 -101.5t-90 -145.5t-60.5 -168t-34 -170t-10.5 -154z" />
<glyph unicode="&#x153;" horiz-adv-x="1806" d="M53 406q0 147 47 289.5t148 240.5q61 59 139 93t182 34q47 0 92.5 -12.5t86.5 -34.5q109 -61 155 -170q51 82 133 137q51 35 111.5 57.5t146.5 22.5t158 -28.5t129 -90.5q59 -63 85 -145t26 -168q0 -94 -19 -168h-723q-2 -14 -2 -29v-26q0 -129 65.5 -207t190.5 -78 q82 0 142.5 45t95.5 123h180q-47 -150 -165 -234t-271 -84q-57 0 -111.5 15.5t-100.5 44t-83 71.5t-57 97q-35 -57 -74 -99.5t-92 -72.5q-59 -33 -106.5 -44.5t-115.5 -11.5q-92 0 -165.5 37t-128.5 103q-47 57 -73 131.5t-26 161.5zM231 410q0 -55 13.5 -107.5t43 -92.5 t75 -63.5t106.5 -23.5q49 0 89 17.5t73 43.5q45 37 75.5 90.5t50 114t28 122t8.5 116.5t-13.5 107t-43 92t-75 63.5t-106.5 23.5q-92 0 -154.5 -51t-99.5 -127t-53.5 -164t-16.5 -161zM971 612h545q2 10 2 19v20q0 53 -14.5 101.5t-43 84t-73 57t-103.5 21.5 q-63 0 -116.5 -26.5t-92.5 -67.5q-41 -41 -65.5 -95t-38.5 -114z" />
<glyph unicode="&#x160;" horiz-adv-x="1288" d="M43 483h190q0 -61 16.5 -117.5t57.5 -105.5q31 -35 68 -58.5t77 -36.5t81.5 -18.5t82.5 -5.5q72 0 140.5 22.5t117.5 69.5q33 31 52.5 73t19.5 95q0 72 -48 131.5t-157 88.5l-221 55q-68 16 -127 46t-102 75t-67.5 104.5t-24.5 134.5q0 104 46 189.5t132 146.5 q68 49 149.5 77t198.5 28q113 0 222.5 -42t182.5 -141q43 -57 66 -130.5t23 -147.5h-191q0 88 -43 158q-84 135 -278 135q-66 0 -127.5 -19.5t-108.5 -62.5q-39 -35 -60.5 -78t-21.5 -96q0 -86 52.5 -133.5t129.5 -65.5l232 -57q154 -39 245 -135.5t91 -237.5 q0 -94 -32 -169t-87 -128q-78 -78 -190.5 -116t-235.5 -38q-129 0 -246 43t-196 142q-57 72 -83 150.5t-26 174.5zM506 1780l108 100l183 -201l260 199l86 -102l-303 -232h-117z" />
<glyph unicode="&#x161;" horiz-adv-x="1046" d="M33 311v18.5v18.5h174q-2 -10 -1 -15t1 -14q0 -41 19.5 -76.5t47.5 -60.5q43 -39 91.5 -51t109.5 -12q49 0 96 15.5t82 45.5q23 20 38.5 47t15.5 66q0 102 -132 133l-196 47q-45 10 -86 29.5t-74 50.5t-53.5 74t-22.5 94q0 80 32 142.5t89 109.5q53 41 126 65.5t159 24.5 q47 0 97 -9.5t95 -29.5t84 -52t64 -75t37 -83t12 -89h-176q0 31 -9.5 59.5t-31.5 57.5q-35 43 -85 60.5t-104 17.5q-51 0 -96 -14.5t-80 -53.5q-41 -45 -41 -102q0 -55 37 -83t74 -38q41 -10 101.5 -23.5t140.5 -36.5q94 -25 154.5 -90t60.5 -164q0 -74 -31 -137t-88 -110 q-59 -47 -137 -71t-162 -24q-113 0 -208 35t-159 115q-31 39 -48 87t-17 101zM328 1384l112 82l142 -188l223 192l86 -94l-266 -235h-113z" />
<glyph unicode="&#x178;" horiz-adv-x="1136" d="M109 1452h186l260 -690l500 690h207l-641 -864l-103 -588h-186l106 588zM410 1593l32 189h189l-33 -189h-188zM770 1593l33 189h188l-33 -189h-188z" />
<glyph unicode="&#x17d;" horiz-adv-x="1253" d="M-39 0l33 182l1010 1100h-809l30 170h1030l-32 -184l-1014 -1100h840l-31 -168h-1057zM473 1780l108 100l183 -201l260 199l86 -102l-303 -232h-117z" />
<glyph unicode="&#x17e;" horiz-adv-x="1007" d="M-29 0l29 154l717 731h-588l27 151h807l-29 -153l-717 -731h602l-28 -152h-820zM332 1384l112 82l142 -188l223 192l86 -94l-266 -235h-113z" />
<glyph unicode="&#x192;" d="M68 -66q10 -2 38.5 -7t79.5 -5q25 0 51.5 8.5t50 29t43 55t29.5 89.5l127 637h-208v154h239l57 293q27 133 112 207.5t192 74.5q59 0 92 -5t61 -11v-154q-10 2 -38.5 7.5t-80.5 5.5q-25 0 -51 -8.5t-50 -29t-43 -55t-30 -90.5l-47 -235h289v-154h-319l-138 -694 q-27 -133 -111.5 -208t-191.5 -75q-59 0 -92 5.5t-61 11.5v153z" />
<glyph unicode="&#x2c6;" horiz-adv-x="718" d="M164 1239l266 236h113l186 -244l-106 -82l-150 188l-223 -192z" />
<glyph unicode="&#x2c7;" horiz-adv-x="745" d="M242 1384l112 82l142 -188l223 192l86 -94l-266 -235h-113z" />
<glyph unicode="&#x2c9;" horiz-adv-x="598" d="M106 1204l25 139h569l-24 -139h-570z" />
<glyph unicode="&#x2d8;" horiz-adv-x="712" d="M141 1411v21q0 12 2 22h136v-22q0 -74 46 -120t119 -46q92 0 147.5 52t80.5 136h145q-37 -143 -136 -231t-253 -88q-61 0 -113.5 19.5t-90.5 56t-60.5 88t-22.5 112.5z" />
<glyph unicode="&#x2d9;" horiz-adv-x="555" d="M270 1227l33 188h189l-33 -188h-189z" />
<glyph unicode="&#x2da;" horiz-adv-x="442" d="M100 1311q0 51 20.5 98t57.5 83t85 57.5t104 21.5q94 0 142 -54t48 -128q0 -49 -21.5 -96.5t-57.5 -82t-84 -56t-103 -21.5q-94 0 -142.5 53t-48.5 125zM215 1329q0 -39 24.5 -64.5t69.5 -25.5q49 0 91 38t42 95q0 39 -24.5 66.5t-69.5 27.5q-51 0 -92 -38.5t-41 -98.5z " />
<glyph unicode="&#x2db;" horiz-adv-x="348" d="M90 -242q0 31 15.5 67t40 69.5t56 61.5t66.5 44q31 16 56.5 28.5t40.5 41.5l71 -70q-29 -10 -61.5 -30.5t-60 -47t-46 -57.5t-18.5 -64q0 -68 78 -67h43q8 0 18 2l-18 -119q-12 -4 -32 -8t-56 -6h-21q-84 0 -128 43.5t-44 111.5z" />
<glyph unicode="&#x2dc;" horiz-adv-x="729" d="M129 1329q49 47 103.5 79t123.5 32q43 0 75 -14.5t59.5 -31t56 -30.5t63.5 -14q41 0 76 17t64 44l61 -86q-47 -47 -103.5 -79t-123.5 -32q-47 0 -80 13.5t-60.5 30t-54.5 29.5t-59 13q-41 0 -73 -15t-62 -42z" />
<glyph unicode="&#x2dd;" horiz-adv-x="931" d="M178 1229l395 264l76 -147l-422 -213zM553 1229l395 264l76 -147l-422 -213z" />
<glyph unicode="&#x394;" horiz-adv-x="1259" d="M-115 0l768 1452h213l260 -1452h-1241zM166 172h749l-186 1098z" />
<glyph unicode="&#x3a9;" horiz-adv-x="1204" d="M100 252v508q0 84 53.5 138t137.5 54q61 0 112 -34v145q0 84 53.5 138t137.5 54t137 -54t53 -138v-127h129q84 0 137.5 -54.5t53.5 -136.5q0 -84 -53.5 -138t-137.5 -54h-147q35 -47 35 -111q0 -84 -53.5 -137t-137.5 -53h-510zM438 588h475q70 0 113 43.5t43 113.5 t-43 113t-113 43h-161v162q0 70 -44 114t-114 44t-113 -44t-43 -114v-475z" />
<glyph unicode="&#x3bc;" horiz-adv-x="1200" d="M170 -410v1446h174v-655q0 -117 49 -182.5t172 -65.5q53 0 95 21.5t77 56.5q49 51 67.5 129t18.5 158v538h174v-1036h-151l-15 158q-41 -90 -128 -136.5t-179 -46.5q-53 0 -102 15.5t-78 38.5v-439h-174z" />
<glyph unicode="&#x3c0;" horiz-adv-x="1302" d="M113 897v139h1005v-139h-157v-635q0 -55 18 -91t76 -36q43 0 63.5 3t28.5 7v-137q-8 -4 -41 -13t-96 -9q-61 0 -104.5 21.5t-70 57t-38 82t-11.5 95.5v655h-342v-899h-172v899h-159z" />
<glyph unicode="&#x2000;" horiz-adv-x="955" />
<glyph unicode="&#x2001;" horiz-adv-x="1911" />
<glyph unicode="&#x2002;" horiz-adv-x="955" />
<glyph unicode="&#x2003;" horiz-adv-x="1911" />
<glyph unicode="&#x2004;" horiz-adv-x="637" />
<glyph unicode="&#x2005;" horiz-adv-x="477" />
<glyph unicode="&#x2006;" horiz-adv-x="318" />
<glyph unicode="&#x2007;" />
<glyph unicode="&#x2008;" horiz-adv-x="593" />
<glyph unicode="&#x2009;" horiz-adv-x="382" />
<glyph unicode="&#x200a;" horiz-adv-x="106" />
<glyph unicode="&#x200b;" horiz-adv-x="0" />
<glyph unicode="&#x2010;" horiz-adv-x="886" d="M106 537l29 161h608l-28 -161h-609z" />
<glyph unicode="&#x2011;" horiz-adv-x="886" d="M106 537l29 161h608l-28 -161h-609z" />
<glyph unicode="&#x2012;" horiz-adv-x="886" d="M106 537l29 161h608l-28 -161h-609z" />
<glyph unicode="&#x2013;" horiz-adv-x="1333" d="M106 537l29 161h1055l-29 -161h-1055z" />
<glyph unicode="&#x2014;" horiz-adv-x="2295" d="M106 537l29 161h2017l-28 -161h-2018z" />
<glyph unicode="&#x2018;" horiz-adv-x="555" d="M164 911l43 240q20 115 83.5 197t174.5 125l37 -97q-78 -31 -118 -88t-54 -137h129l-43 -240h-252z" />
<glyph unicode="&#x2019;" horiz-adv-x="534" d="M188 987q43 18 73 39t49.5 47.5t30.5 61t19 77.5h-129l43 240h252l-43 -240q-20 -115 -78.5 -194.5t-179.5 -126.5z" />
<glyph unicode="&#x201a;" horiz-adv-x="563" d="M-6 -225q43 18 72.5 38.5t49 47t31 61.5t19.5 78h-129l43 240h252l-43 -240q-20 -115 -78.5 -194.5t-179.5 -127.5z" />
<glyph unicode="&#x201c;" horiz-adv-x="958" d="M168 911l43 240q20 115 83.5 197t174.5 125l37 -97q-78 -31 -118 -88t-54 -137h129l-43 -240h-252zM571 911l43 240q20 115 84 197t174 125l37 -97q-78 -31 -117.5 -88t-54.5 -137h129l-43 -240h-252z" />
<glyph unicode="&#x201d;" horiz-adv-x="937" d="M186 987q43 18 73 39t49.5 47.5t30.5 61t19 77.5h-129l43 240h252l-43 -240q-20 -115 -78.5 -194.5t-179.5 -126.5zM590 987q43 18 72.5 39t49 47.5t31 61t19.5 77.5h-129l43 240h252l-43 -240q-20 -115 -78.5 -194.5t-179.5 -126.5z" />
<glyph unicode="&#x201e;" horiz-adv-x="999" d="M2 -225q43 18 72.5 38.5t49 47t31 61.5t19.5 78h-129l43 240h252l-43 -240q-20 -115 -78.5 -194.5t-179.5 -127.5zM408 -225q43 18 72.5 38.5t49 47t30.5 61.5t20 78h-129l43 240h251l-43 -240q-20 -115 -78.5 -194.5t-179.5 -127.5z" />
<glyph unicode="&#x2020;" horiz-adv-x="1150" d="M137 887l27 149h383l74 416h170l-74 -416h381l-27 -149h-381l-203 -1143h-170l203 1143h-383z" />
<glyph unicode="&#x2021;" horiz-adv-x="1150" d="M0 160l27 149h383l102 578h-383l25 149h383l73 416h168l-73 -416h382l-24 -149h-383l-102 -578h383l-27 -149h-383l-74 -416h-168l74 416h-383z" />
<glyph unicode="&#x2022;" horiz-adv-x="903" d="M166 598q0 55 20.5 104.5t56.5 85t83 57t102 21.5t102.5 -21.5t82 -57t55 -85t20.5 -104.5t-20.5 -104.5t-55 -85t-82 -57t-102.5 -21.5t-102 21.5t-83 57t-56.5 85t-20.5 104.5z" />
<glyph unicode="&#x2026;" horiz-adv-x="1640" d="M25 0l43 236h235l-43 -236h-235zM573 0l43 236h236l-43 -236h-236zM1122 0l43 236h238l-43 -236h-238z" />
<glyph unicode="&#x202f;" horiz-adv-x="382" />
<glyph unicode="&#x2030;" horiz-adv-x="2398" d="M152 41l1316 1450l91 -88l-1317 -1452zM182 1036q0 41 6.5 87t20.5 90t33.5 84t48.5 71q45 47 106.5 80t139.5 33q66 0 119 -22.5t89.5 -62.5t56 -93.5t19.5 -116.5q0 -41 -6 -86t-19.5 -89t-34 -84t-48.5 -71q-45 -47 -105.5 -80t-138.5 -33q-133 0 -210 83t-77 210z M328 1042q0 -72 35.5 -121t113.5 -49q33 0 56.5 10.5t44.5 26.5q27 20 45 54t29.5 71t16.5 76t5 72q0 72 -35 121t-113 49q-33 0 -56.5 -10.5t-43.5 -26.5q-25 -23 -43 -55.5t-30.5 -69.5t-18.5 -76t-6 -72zM866 268q0 41 7.5 87t20.5 90t33.5 84t49.5 71q45 47 105.5 79 t138.5 32q66 0 119 -22.5t89.5 -62.5t57 -93.5t20.5 -116.5q0 -84 -26.5 -176.5t-83.5 -153.5q-45 -47 -105.5 -80t-138.5 -33q-66 0 -119 22.5t-90 62.5t-57.5 93.5t-20.5 116.5zM1014 272q0 -72 35.5 -121t113.5 -49q33 0 55.5 10.5t43.5 26.5q27 20 45 54t29.5 71 t16.5 76t5 72q0 72 -35 121t-113 49q-33 0 -56.5 -10.5t-43.5 -26.5q-25 -23 -43 -55.5t-30.5 -69.5t-17.5 -76t-5 -72zM1587 268q0 41 6 87t20.5 90t34 84t48.5 71q45 47 106.5 79t139.5 32q66 0 119 -22.5t89.5 -62.5t56 -93.5t19.5 -116.5q0 -41 -6 -86t-19.5 -89 t-34 -84t-48.5 -71q-45 -47 -105.5 -80t-138.5 -33q-66 0 -119 22.5t-90 62.5t-57.5 93.5t-20.5 116.5zM1733 272q0 -72 35.5 -121t113.5 -49q33 0 56.5 10.5t43.5 26.5q27 20 45.5 54t29.5 71t16.5 76t5.5 72q0 72 -35 121t-113 49q-33 0 -56.5 -10.5t-43.5 -26.5 q-25 -23 -43.5 -55.5t-30.5 -69.5t-18 -76t-6 -72z" />
<glyph unicode="&#x2039;" horiz-adv-x="641" d="M68 614l419 467l103 -88l-311 -387l174 -399l-125 -70z" />
<glyph unicode="&#x203a;" horiz-adv-x="641" d="M18 227l312 387l-174 398l127 67l258 -473l-420 -467z" />
<glyph unicode="&#x2044;" horiz-adv-x="1196" d="M14 41l1055 1442l113 -80l-1057 -1446z" />
<glyph unicode="&#x205f;" horiz-adv-x="477" />
<glyph unicode="&#x20ac;" d="M0 506l23 125h151q0 33 8 83t15 79h-146l23 125h151q29 102 79 195t126 167q80 78 184.5 124t229.5 46q115 0 218 -36t185 -118l-92 -141q-63 66 -146 98.5t-175 32.5q-90 0 -164 -34.5t-131 -94.5q-47 -53 -77 -112.5t-52 -126.5h583l-78 -125h-538q-8 -33 -15 -80 l-8 -82h471l-77 -125h-400q0 -170 101.5 -270.5t271.5 -100.5q145 0 270 78l41 -152q-150 -90 -321 -90q-123 0 -221.5 39t-169 109.5t-110.5 169t-42 217.5h-168z" />
<glyph unicode="&#x2117;" horiz-adv-x="1757" d="M139 725q0 158 56.5 295t155 239.5t233.5 161t295 58.5t295 -58.5t233 -160t154.5 -238.5t56.5 -295t-56.5 -295t-154.5 -239.5t-233.5 -161t-294.5 -58.5q-160 0 -295 58.5t-233.5 160t-155 238.5t-56.5 295zM276 725q0 -135 43 -249t122 -196.5t190.5 -129t247.5 -46.5 q135 0 246.5 47.5t190.5 130.5t122 196.5t43 248.5t-43 249t-122 196.5t-190.5 129t-246.5 46.5t-247 -47.5t-191 -130.5t-122 -196.5t-43 -248.5zM647 330v784h289q55 0 106.5 -17.5t89 -49t60 -79t22.5 -106.5t-22.5 -107t-60 -81t-89 -50.5t-106.5 -17.5h-152v-276h-137z M782 733h154q61 0 98 31.5t37 97.5q0 59 -40 92t-95 33h-154v-254z" />
<glyph unicode="&#x2122;" horiz-adv-x="1705" d="M143 1325l23 127h594l-23 -127h-225l-119 -674h-141l119 674h-228zM731 651l141 801h215l87 -573l290 573h222l-142 -801h-141l115 656l-328 -635h-100l-103 633l-115 -654h-141z" />
<glyph unicode="&#x2126;" horiz-adv-x="1204" d="M100 252v508q0 84 53.5 138t137.5 54q61 0 112 -34v145q0 84 53.5 138t137.5 54t137 -54t53 -138v-127h129q84 0 137.5 -54.5t53.5 -136.5q0 -84 -53.5 -138t-137.5 -54h-147q35 -47 35 -111q0 -84 -53.5 -137t-137.5 -53h-510zM438 588h475q70 0 113 43.5t43 113.5 t-43 113t-113 43h-161v162q0 70 -44 114t-114 44t-113 -44t-43 -114v-475z" />
<glyph unicode="&#x2190;" horiz-adv-x="1746" d="M92 625l656 651l98 -102l-481 -476h1237v-147h-1237l481 -475l-98 -103z" />
<glyph unicode="&#x2191;" horiz-adv-x="1755" d="M225 823l652 656l651 -656l-103 -98l-475 481v-1206h-147v1206l-475 -481z" />
<glyph unicode="&#x2192;" horiz-adv-x="1746" d="M113 551v147h1237l-480 476l99 102l653 -651l-653 -652l-99 103l480 475h-1237z" />
<glyph unicode="&#x2193;" horiz-adv-x="1755" d="M225 627l103 98l475 -481v1206h147v-1206l475 481l103 -98l-651 -656z" />
<glyph unicode="&#x2196;" horiz-adv-x="1349" d="M162 532v920h923v-137h-675l874 -875l-104 -104l-875 874v-678h-143z" />
<glyph unicode="&#x2197;" horiz-adv-x="1349" d="M82 440l874 875h-677v137h925v-920h-143v678l-875 -874z" />
<glyph unicode="&#x2198;" horiz-adv-x="1357" d="M102 1012l105 104l874 -874v678h144v-920h-924v137h676z" />
<glyph unicode="&#x2199;" horiz-adv-x="1357" d="M133 0v920h143v-678l875 874l104 -104l-874 -875h678v-137h-926z" />
<glyph unicode="&#x2202;" horiz-adv-x="1120" d="M61 406q0 117 31 234.5t95.5 210.5t163 152.5t233.5 59.5q55 0 114 -16l-159 432h168l256 -680q14 -37 21 -83t7 -85q0 -117 -30.5 -234.5t-95 -211t-163 -153t-233.5 -59.5q-92 0 -173 37t-136 103q-47 57 -73 131.5t-26 161.5zM240 410q0 -55 14 -107.5t45 -92.5 t77 -63.5t107 -23.5q92 0 155.5 51t101.5 127t55.5 164t17.5 162q0 55 -14.5 107t-45 92t-76.5 63.5t-108 23.5q-92 0 -155.5 -51t-101.5 -127t-55 -164t-17 -161z" />
<glyph unicode="&#x2206;" horiz-adv-x="1259" d="M-115 0l768 1452h213l260 -1452h-1241zM166 172h749l-186 1098z" />
<glyph unicode="&#x220f;" horiz-adv-x="1466" d="M76 0l256 1452h1059l-256 -1452h-185l224 1274h-691l-223 -1274h-184z" />
<glyph unicode="&#x2211;" horiz-adv-x="1204" d="M100 252v508q0 84 53.5 138t137.5 54q61 0 112 -34v145q0 84 53.5 138t137.5 54t137 -54t53 -138v-127h129q84 0 137.5 -54.5t53.5 -136.5q0 -84 -53.5 -138t-137.5 -54h-147q35 -47 35 -111q0 -84 -53.5 -137t-137.5 -53h-510zM438 588h475q70 0 113 43.5t43 113.5 t-43 113t-113 43h-161v162q0 70 -44 114t-114 44t-113 -44t-43 -114v-475z" />
<glyph unicode="&#x2212;" horiz-adv-x="1312" d="M90 537v161h1055v-161h-1055z" />
<glyph unicode="&#x2215;" horiz-adv-x="1196" d="M14 41l1055 1442l113 -80l-1057 -1446z" />
<glyph unicode="&#x2219;" horiz-adv-x="602" d="M141 506l43 244h242l-43 -244h-242z" />
<glyph unicode="&#x221a;" horiz-adv-x="1314" d="M145 1032h187l260 -788l471 1460h362v-135h-225l-530 -1585h-158z" />
<glyph unicode="&#x221e;" horiz-adv-x="1204" d="M100 252v508q0 84 53.5 138t137.5 54q61 0 112 -34v145q0 84 53.5 138t137.5 54t137 -54t53 -138v-127h129q84 0 137.5 -54.5t53.5 -136.5q0 -84 -53.5 -138t-137.5 -54h-147q35 -47 35 -111q0 -84 -53.5 -137t-137.5 -53h-510zM438 588h475q70 0 113 43.5t43 113.5 t-43 113t-113 43h-161v162q0 70 -44 114t-114 44t-113 -44t-43 -114v-475z" />
<glyph unicode="&#x222b;" horiz-adv-x="669" d="M102 -297q70 2 108 41t38 100v1377q0 57 21.5 108t61.5 89t95 59.5t123 21.5h18v-147q-70 -2 -107.5 -41t-37.5 -101v-1376q0 -59 -21.5 -109.5t-61.5 -88t-95.5 -59t-122.5 -21.5h-19v147z" />
<glyph unicode="&#x2248;" horiz-adv-x="1333" d="M133 348q49 49 90 80t78 49.5t72 24.5t73 6q45 0 86 -9.5t82 -25.5t80 -32.5t80 -30.5q43 -16 80 -17q20 0 42 2t45.5 11.5t52 29t63.5 53.5l110 -112q-49 -49 -90 -80t-77.5 -49.5t-71.5 -24.5t-74 -6q-59 0 -116.5 19.5t-119.5 48.5q-39 16 -84 33.5t-90 17.5 q-20 0 -41.5 -2t-45 -12.5t-52.5 -30t-63 -53.5zM133 739q49 49 90 80t78 49.5t72 24.5t73 6q45 0 86 -10t82 -27q41 -16 80 -32.5t80 -30.5q37 -14 80 -15q20 0 42 2t45.5 11.5t52 29t63.5 54.5l110 -115q-49 -49 -90 -80t-77.5 -49.5t-71.5 -24.5t-74 -6 q-59 0 -116.5 20.5t-119.5 49.5q-39 16 -84 32.5t-90 16.5q-20 0 -41.5 -2t-45 -12.5t-52.5 -29.5t-63 -54z" />
<glyph unicode="&#x2260;" horiz-adv-x="1409" d="M211 274v158h291l190 273h-481v157h592l162 232l102 -72l-113 -160h244v-157h-352l-193 -273h545v-158h-653l-170 -241l-103 71l119 170h-180z" />
<glyph unicode="&#x2264;" horiz-adv-x="1204" d="M100 252v508q0 84 53.5 138t137.5 54q61 0 112 -34v145q0 84 53.5 138t137.5 54t137 -54t53 -138v-127h129q84 0 137.5 -54.5t53.5 -136.5q0 -84 -53.5 -138t-137.5 -54h-147q35 -47 35 -111q0 -84 -53.5 -137t-137.5 -53h-510zM438 588h475q70 0 113 43.5t43 113.5 t-43 113t-113 43h-161v162q0 70 -44 114t-114 44t-113 -44t-43 -114v-475z" />
<glyph unicode="&#x2265;" horiz-adv-x="1204" d="M100 252v508q0 84 53.5 138t137.5 54q61 0 112 -34v145q0 84 53.5 138t137.5 54t137 -54t53 -138v-127h129q84 0 137.5 -54.5t53.5 -136.5q0 -84 -53.5 -138t-137.5 -54h-147q35 -47 35 -111q0 -84 -53.5 -137t-137.5 -53h-510zM438 588h475q70 0 113 43.5t43 113.5 t-43 113t-113 43h-161v162q0 70 -44 114t-114 44t-113 -44t-43 -114v-475z" />
<glyph unicode="&#x2423;" horiz-adv-x="1892" d="M35 -150v453h96v-358h1399v358h94v-453h-1589z" />
<glyph unicode="&#x25ca;" horiz-adv-x="884" d="M102 729l244 723h191l245 -729l-243 -723h-191zM281 739l168 -514l155 488l-168 514z" />
<glyph unicode="&#x25fc;" horiz-adv-x="1034" d="M0 0v1034h1034v-1034h-1034z" />
<glyph unicode="&#xfb01;" horiz-adv-x="1280" />
<glyph unicode="&#xfb02;" horiz-adv-x="1316" />
<glyph unicode="&#xfeff;" horiz-adv-x="0" />
<glyph horiz-adv-x="481" d="M35 1761l110 142l306 -252l-72 -92z" />
<glyph horiz-adv-x="454" d="M-70 1585l25 139h569l-24 -139h-570z" />
<glyph horiz-adv-x="454" d="M-4 1647l393 249l72 -149l-414 -203z" />
<glyph horiz-adv-x="718" d="M127 1649l303 231h117l217 -235l-109 -101l-182 201l-260 -199z" />
<glyph horiz-adv-x="454" d="M-96 1780l108 100l183 -201l260 199l86 -102l-303 -232h-117z" />
<glyph horiz-adv-x="454" d="M-109 1821v20q0 12 3 23h135v-23q0 -74 46 -120t120 -46q92 0 147 52.5t80 136.5h145q-37 -143 -136 -231.5t-253 -88.5q-61 0 -113.5 19.5t-90 56.5t-60.5 88t-23 113z" />
<glyph horiz-adv-x="454" d="M115 1616l32 188h189l-33 -188h-188z" />
<glyph horiz-adv-x="454" d="M-2 1620q0 49 21.5 96t58.5 82t85 56.5t101 21.5q94 0 142.5 -54t48.5 -128q0 -49 -21.5 -96.5t-57.5 -82t-84 -56t-104 -21.5q-94 0 -142 54t-48 128zM113 1634q0 -39 24.5 -64.5t69.5 -25.5q49 0 91 38t42 95q0 39 -24.5 67t-69.5 28q-51 0 -92 -39t-41 -99z" />
<glyph horiz-adv-x="454" d="M-164 1640l395 265l76 -148l-422 -213zM211 1640l395 265l76 -148l-422 -213z" />
<glyph d="M80 442q0 78 10 156t25 156q14 82 32.5 166t49 163.5t75.5 149.5t115 125q59 47 129 69.5t148 22.5q100 0 175.5 -32t129.5 -87q59 -63 88.5 -151t29.5 -197q0 -78 -9 -155.5t-23 -155.5q-14 -82 -32.5 -166t-49.5 -164t-77 -149.5t-116 -124.5q-121 -94 -276 -95 q-92 0 -162 29t-123 76q-72 63 -105.5 155.5t-33.5 208.5zM260 500l647 561q-6 45 -23.5 87t-48 74.5t-74.5 51t-102 18.5q-104 0 -168.5 -57t-103.5 -142t-58.5 -181.5t-33.5 -174.5l-21 -119q-10 -59 -14 -118zM270 322q12 -80 74 -134.5t166 -54.5t168.5 57.5 t103.5 141.5t58.5 181t33.5 175q8 47 15.5 92t13.5 92z" />
<glyph horiz-adv-x="454" d="M133 -377l29 158q10 66 50 108.5t120 65.5l20 -61q-43 -14 -64.5 -35t-29.5 -68h80l-31 -168h-174z" />
<glyph horiz-adv-x="1468" d="M131 354q0 72 24.5 135.5t67.5 115.5t100.5 92t122.5 65q-78 35 -126 110.5t-48 169.5q0 72 30 143.5t81 123.5q78 78 182.5 110.5t212.5 32.5q45 0 89 -8t87 -19l-28 -157q-41 10 -82 16t-82 6q-59 0 -113.5 -15t-95.5 -48t-65.5 -81t-24.5 -112q0 -51 20.5 -90 t54 -65.5t79 -40t94.5 -13.5h239l41 236h176l-41 -236h228l-27 -153h-227l-92 -516h225l-27 -156h-651q-82 0 -157.5 21.5t-135 65.5t-95.5 110.5t-36 156.5zM313 369q0 -57 22.5 -98.5t60.5 -67t86 -36.5t100 -11h252l90 516h-275q-70 0 -130 -23.5t-106 -64.5t-73 -96.5 t-27 -118.5z" />
<glyph horiz-adv-x="1138" d="M111 0l28 160h305l187 1059l-379 -238l33 201l393 241h170l-223 -1263h297l-29 -160h-782z" />
<glyph horiz-adv-x="454" d="M86 1163q53 25 69.5 52.5t22.5 64.5l2 12h-67l32 187h158l-31 -174q-4 -29 -13 -56.5t-27.5 -55.5t-49 -52.5t-78.5 -44.5z" />
<glyph horiz-adv-x="454" d="M133 -389q43 14 64.5 34.5t29.5 67.5h-80l31 168h174l-28 -157q-10 -66 -50.5 -109t-119.5 -66z" />
<glyph horiz-adv-x="612" d="M100 526q0 127 23 258q20 123 65 246t109.5 236.5t147.5 215t182 179.5l92 -94q-180 -166 -293 -361.5t-156 -447.5q-12 -66 -17 -129.5t-5 -124.5q0 -174 42 -337t126 -323l-121 -55q-98 160 -146.5 351.5t-48.5 385.5z" />
<glyph horiz-adv-x="610" d="M-129 -139q180 180 294 382.5t159 454.5q12 68 17 132.5t5 127.5q0 172 -42 328t-124 309l115 68q100 -154 149.5 -342t49.5 -385q0 -63 -5.5 -125.5t-15.5 -124.5q-23 -123 -67 -250t-108.5 -245.5t-148 -227t-182.5 -194.5z" />
<glyph horiz-adv-x="628" d="M43 -167l315 1783h385l-22 -127h-244l-270 -1529h244l-23 -127h-385z" />
<glyph horiz-adv-x="628" d="M-139 -167l22 127h242l270 1529h-241l22 127h385l-315 -1783h-385z" />
<glyph horiz-adv-x="706" d="M70 656l26 147q33 -2 71 8.5t71.5 30t59.5 49t32 66.5l65 354q33 170 123 240.5t250 70.5h53l-22 -129h-54q-55 0 -93 -13t-61.5 -40t-37.5 -65.5t-23 -90.5l-59 -329q-16 -86 -76.5 -148.5t-154.5 -77.5v-4q82 -20 122.5 -81.5t26.5 -147.5l-53 -313q-4 -20 -6 -39 t-2 -39q0 -53 15 -83t42 -45.5t63.5 -18.5t79.5 -3l-22 -129h-55q-125 0 -196 61.5t-71 190.5q0 25 2 49.5t7 46.5l51 291q4 29 3 65t-30 64q-27 29 -65.5 45.5t-81.5 16.5z" />
<glyph horiz-adv-x="706" d="M-129 -174l23 129h53q55 0 92 15.5t61.5 43t39 66.5t22.5 84l59 330q16 86 81 150.5t159 78.5v4q-94 23 -132 89.5t-22 166.5l49 283q12 63 9 107.5t-25.5 71t-65.5 37.5t-110 11l22 129h56q172 0 231 -85t33 -232l-57 -322q-4 -29 -5.5 -67.5t27.5 -67.5q27 -29 68 -42 t84 -13l-27 -148q-92 4 -158.5 -48t-81.5 -132l-53 -301q-16 -90 -41.5 -153.5t-68.5 -104.5t-109 -60.5t-160 -19.5h-53z" />
<glyph horiz-adv-x="641" d="M68 729l419 467l103 -88l-311 -387l174 -399l-125 -70z" />
<glyph horiz-adv-x="641" d="M18 342l312 387l-174 398l127 67l258 -473l-420 -467z" />
<glyph horiz-adv-x="1118" d="M68 729l419 467l103 -88l-311 -387l172 -399l-127 -70zM547 729l418 467l102 -88l-309 -387l170 -399l-125 -70z" />
<glyph horiz-adv-x="1118" d="M18 342l312 387l-176 398l127 67l260 -473l-420 -467zM498 342l309 387l-174 398l127 67l258 -473l-418 -467z" />
<glyph horiz-adv-x="886" d="M106 643l29 161h608l-28 -161h-609z" />
<glyph horiz-adv-x="1333" d="M106 643l29 161h1055l-29 -161h-1055z" />
<glyph horiz-adv-x="2295" d="M106 643l29 161h2017l-28 -161h-2018z" />
<glyph horiz-adv-x="886" d="M106 643l29 161h608l-28 -161h-609z" />
</font>
</defs>
</svg>
