<?xml version="1.0" standalone="no"?>
<!DOCTYPE svg PUBLIC "-//W3C//DTD SVG 1.1//EN" "http://www.w3.org/Graphics/SVG/1.1/DTD/svg11.dtd" >
<svg xmlns="http://www.w3.org/2000/svg">
<metadata></metadata>
<defs>
<font id="akkurat_ttbold" horiz-adv-x="1167" >
<font-face units-per-em="2048" ascent="1604" descent="-444" />
<missing-glyph horiz-adv-x="428" />
<glyph unicode="&#xd;" horiz-adv-x="428" />
<glyph unicode=" "  horiz-adv-x="428" />
<glyph unicode="&#x09;" horiz-adv-x="428" />
<glyph unicode="&#xa0;" horiz-adv-x="428" />
<glyph unicode="!" horiz-adv-x="679" d="M242 0v272h270v-272h-270zM242 997v455h268v-455l-57 -563h-154z" />
<glyph unicode="&#x22;" horiz-adv-x="1075" d="M168 1153v301h272v-301l-51 -350h-170zM635 1153v301h272v-301l-51 -350h-170z" />
<glyph unicode="#" horiz-adv-x="1552" d="M129 377v201h279l36 268h-249v203h278l55 374h213l-53 -374h283l55 374h213l-53 -374h248v-203h-279l-35 -268h248v-201h-278l-54 -377h-215l53 377h-282l-53 -377h-215l53 377h-248zM623 578h282l37 268h-283z" />
<glyph unicode="$" d="M37 467h252q2 -53 22.5 -97t53.5 -75q35 -35 76.5 -51.5t88.5 -20.5v406q-25 4 -50 7t-50 7q-166 27 -261 127t-95 258q0 82 34.5 149.5t90.5 120.5q59 59 143 98.5t188 49.5v190h150v-194q86 -10 160.5 -42t132.5 -85q61 -57 99 -132t42 -161h-252q-2 37 -20.5 75 t-42.5 64q-23 23 -53.5 38t-65.5 26v-375l70 -10q78 -12 147.5 -43t121.5 -80t81.5 -118t29.5 -155q0 -98 -32.5 -165.5t-83.5 -120.5q-63 -66 -148.5 -103t-185.5 -47v-186h-150v184q-98 8 -185 42t-163 104q-61 55 -102 136t-43 179zM324 1034q0 -72 39.5 -107.5 t105.5 -45.5q16 -4 30.5 -6.5t30.5 -4.5v361q-41 -6 -80.5 -22.5t-70.5 -45.5q-25 -23 -40 -55.5t-15 -73.5zM680 225q94 16 145 68q25 25 41.5 57.5t16.5 83.5q0 78 -51.5 116t-116.5 50l-35 6v-381z" />
<glyph unicode="%" horiz-adv-x="1851" d="M92 1079q0 68 13.5 130.5t50.5 115.5q47 70 117.5 109t170.5 39t171 -39t118 -109q37 -53 50.5 -115.5t13.5 -130.5t-13.5 -130t-50.5 -115q-47 -70 -117.5 -109t-171.5 -39q-100 0 -170.5 39t-117.5 109q-37 53 -50.5 115.5t-13.5 129.5zM295 1079q0 -41 5 -79.5 t21.5 -69.5t46 -49.5t76.5 -18.5t77 18.5t46.5 49.5t21.5 69.5t5 79.5t-5 80t-21.5 70t-46 49t-77.5 18q-47 0 -76.5 -18t-46 -49t-21.5 -70t-5 -80zM332 74l1034 1407l156 -109l-1039 -1413zM1044 373q0 68 13.5 130t50.5 115q47 70 117.5 109t171.5 39q100 0 170.5 -39 t118.5 -109q37 -53 50 -115t13 -130t-13.5 -130.5t-49.5 -115.5q-47 -70 -118 -108.5t-171 -38.5t-171 38.5t-118 108.5q-37 53 -50.5 115.5t-13.5 130.5zM1247 373q0 -41 5 -80t21.5 -69.5t46.5 -49t77 -18.5t76.5 18.5t46 49t21.5 69.5t5 80t-5 80t-21.5 69.5t-46 49 t-76.5 18.5t-77 -18.5t-46.5 -49t-21.5 -69.5t-5 -80z" />
<glyph unicode="&#x26;" horiz-adv-x="1519" d="M135 401q0 135 70.5 231.5t187.5 168.5q-35 37 -63.5 72.5t-49 72.5t-31.5 78t-11 92q0 86 31.5 153.5t85 116t126 73t154.5 24.5q80 0 152.5 -23.5t128 -70t88 -113t32.5 -152.5q0 -72 -20.5 -128t-57 -102t-87 -85t-109.5 -74l252 -274q18 35 25.5 81t11.5 97 q4 49 4 96v82h375v-203h-168q-4 -86 -22.5 -170t-65.5 -155q70 -74 135 -146.5t133 -144.5h-312l-102 115q-88 -78 -193.5 -115t-218.5 -37q-96 0 -184 31t-153.5 87t-104.5 138t-39 184zM371 412q0 -55 21.5 -98.5t57 -72t83 -43t98.5 -14.5q66 0 131 18.5t112 71.5 q-86 92 -165.5 183.5t-165.5 183.5q-37 -23 -68 -43t-54.5 -47t-36.5 -60.5t-13 -78.5zM473 1120q0 -35 13.5 -65.5t33 -58t43.5 -52.5l47 -47q33 18 67 37.5t60.5 44.5t43 57.5t16.5 77.5q0 76 -46 117t-116 41q-63 0 -112.5 -38t-49.5 -114z" />
<glyph unicode="'" horiz-adv-x="567" d="M147 1153v301h273v-301l-51 -350h-170z" />
<glyph unicode="(" horiz-adv-x="671" d="M133 649q0 295 93 538t280 455l145 -108q-78 -104 -135 -203.5t-95 -204t-56.5 -220t-18.5 -257.5q0 -141 18.5 -257t56.5 -220t95 -203.5t135 -204.5l-145 -108q-186 213 -279.5 455.5t-93.5 537.5z" />
<glyph unicode=")" horiz-adv-x="671" d="M20 -236q78 104 135.5 204t95.5 204t56.5 220t18.5 257t-18.5 257t-56.5 220.5t-95.5 204t-135.5 203.5l146 108q186 -213 279.5 -455.5t93.5 -537.5t-93.5 -537.5t-279.5 -455.5z" />
<glyph unicode="*" horiz-adv-x="1075" d="M82 1036l68 217l296 -123l-20 330l221 -2l-22 -330l299 125l69 -217l-309 -82l205 -256l-178 -133l-172 285l-174 -287l-179 133l205 258z" />
<glyph unicode="+" horiz-adv-x="1390" d="M113 522v219h467v480h231v-480h467v-219h-467v-512h-231v512h-467z" />
<glyph unicode="," horiz-adv-x="598" d="M143 0v319h312v-294q0 -133 -46.5 -224.5t-181.5 -148.5l-71 119q45 20 72.5 42.5t43 50t20.5 61.5t5 75h-154z" />
<glyph unicode="-" horiz-adv-x="948" d="M123 516v229h702v-229h-702z" />
<glyph unicode="." horiz-adv-x="600" d="M143 0v319h312v-319h-312z" />
<glyph unicode="/" horiz-adv-x="796" d="M0 -27l629 1506h188l-629 -1506h-188z" />
<glyph unicode="0" d="M82 713q0 88 6 174t23.5 166t51.5 149.5t89 122.5t135 89t197 36t196.5 -36t134.5 -89t89 -122.5t51.5 -149.5t23.5 -166t6 -174t-6 -174t-23.5 -166t-51 -149.5t-89.5 -123.5q-55 -53 -135 -90t-196 -37q-117 0 -197 37t-135 90t-89 123t-51.5 150t-23.5 166t-6 174z M342 713q0 -70 1 -157t21.5 -164t70.5 -129t149 -52q98 0 148 52t70.5 129t21.5 164t1 157t-1 156.5t-21.5 163.5t-70.5 129t-148 52t-148.5 -52t-71 -129t-21.5 -164t-1 -156z" />
<glyph unicode="1" d="M238 893v278l350 252h219v-1423h-256v1120z" />
<glyph unicode="2" d="M123 1022q0 94 30.5 172t88 135t141.5 89t195 32q92 0 171.5 -27.5t139 -79t93.5 -125t34 -167.5q0 -47 -13.5 -94.5t-35 -91.5t-49 -85t-58.5 -78l-393 -471h569v-231h-909v205l555 661q37 43 55.5 91.5t18.5 91.5q0 76 -46 127t-135 51q-92 0 -141 -59.5t-49 -145.5 h-262z" />
<glyph unicode="3" d="M88 412h256q8 -104 71.5 -158.5t157.5 -54.5q96 0 161 55t65 158q0 55 -20.5 96t-54.5 66.5t-80 39t-95 13.5h-107v223h107q104 0 161.5 45t57.5 145q0 78 -54.5 132.5t-140.5 54.5q-96 0 -156.5 -47t-62.5 -146h-258q2 100 40 178t102.5 130.5t150.5 80t184 27.5 q96 0 179.5 -28.5t144.5 -81t96 -127t35 -166.5q0 -98 -53 -184.5t-152 -121.5q55 -16 98.5 -49t74 -78t46 -98t15.5 -108q0 -106 -38 -187.5t-104.5 -136.5t-154.5 -83t-189 -28q-98 0 -185 31t-151.5 88.5t-104.5 138t-42 181.5z" />
<glyph unicode="4" d="M55 287v241l523 895h278l-530 -905h364v334h256v-334h180v-231h-180v-287h-256v287h-635z" />
<glyph unicode="5" d="M102 416h256q4 -106 71 -161.5t169 -55.5q63 0 108.5 21.5t73 59t39.5 89t12 108.5q0 113 -55 185.5t-178 72.5q-63 0 -120.5 -30.5t-92.5 -83.5h-252l31 802h864v-229h-643l-16 -326q49 47 117.5 70t164.5 23q106 0 189.5 -37t138.5 -100.5t84 -152t29 -188.5 q0 -113 -33 -207t-96.5 -161.5t-155.5 -105.5t-211 -38q-106 0 -194.5 32t-153 90.5t-102 140t-44.5 182.5z" />
<glyph unicode="6" d="M102 688q0 78 4.5 163t20.5 167t47 156.5t86 134.5q59 61 139 101t209 40q111 0 191 -30.5t135 -84.5q59 -57 90 -127.5t31 -134.5h-258q-6 66 -49 109q-49 51 -152 51q-51 0 -83 -16.5t-58 -40.5q-29 -27 -48.5 -64t-30.5 -80t-15.5 -89t-4.5 -93q25 29 57.5 48.5 t69.5 31.5t74 18t70 6q115 0 203 -34.5t147 -99t89 -153.5t30 -198q0 -104 -31 -194.5t-92.5 -158t-153.5 -105.5t-213 -38q-102 0 -183 34t-142.5 94.5t-100.5 142.5t-55 178q-12 70 -17.5 134.5t-5.5 131.5zM381 479q0 -117 55.5 -196.5t169.5 -79.5q117 0 173.5 75.5 t56.5 200.5q0 111 -57.5 188.5t-176.5 77.5q-104 0 -162.5 -76.5t-58.5 -189.5z" />
<glyph unicode="7" d="M96 1194v229h981v-204l-555 -1219h-276l557 1194h-707z" />
<glyph unicode="8" d="M92 399q0 106 52.5 199.5t154.5 140.5q-39 20 -71.5 54t-56.5 75t-37 87t-13 92q0 100 38 175.5t101.5 126t147.5 76t176 25.5t176 -25.5t147.5 -76t101.5 -126t38 -175.5q0 -45 -13.5 -91.5t-37 -87.5t-56.5 -74.5t-72 -54.5q102 -47 154.5 -140.5t52.5 -199.5 q0 -104 -41 -184t-108.5 -134t-156.5 -82t-185 -28t-185.5 28t-157 82t-108.5 134t-41 184zM350 416q0 -98 64.5 -157.5t169.5 -59.5q104 0 168.5 59.5t64.5 157.5q0 88 -59.5 149.5t-173.5 61.5q-115 0 -174.5 -61.5t-59.5 -149.5zM379 1042q0 -78 51 -134t154 -56 q102 0 153 56t51 134t-51 131.5t-153 53.5q-104 0 -154.5 -53.5t-50.5 -131.5z" />
<glyph unicode="9" d="M76 956q0 104 30.5 194.5t92 157t153.5 104.5t213 38q100 0 182 -34t143.5 -93t100.5 -141t56 -178q12 -70 17 -134.5t5 -132.5q0 -78 -4 -163t-20.5 -166.5t-47 -157.5t-86.5 -133q-59 -61 -139 -102.5t-209 -41.5q-111 0 -190.5 32t-134.5 85q-59 57 -90 128t-31 134 h258q6 -66 49 -108q49 -51 151 -51q51 0 83 16t59 41q57 53 77.5 142t20.5 183q-25 -29 -57.5 -48t-69.5 -31.5t-73.5 -18.5t-69.5 -6q-115 0 -203 35t-147.5 99.5t-89 153.5t-29.5 197zM336 946q0 -111 57.5 -188.5t175.5 -77.5q104 0 163 76.5t59 189.5q0 117 -55.5 197 t-170.5 80q-117 0 -173 -76t-56 -201z" />
<glyph unicode=":" horiz-adv-x="657" d="M193 0v309h309v-309h-309zM193 756v309h309v-309h-309z" />
<glyph unicode=";" horiz-adv-x="657" d="M193 0v309h309v-284q0 -68 -10.5 -123.5t-35 -101.5t-68.5 -81.5t-112 -64.5l-71 119q86 41 113.5 93t27.5 134h-153zM193 756v309h309v-309h-309z" />
<glyph unicode="&#x3c;" horiz-adv-x="954" d="M61 662l658 659l143 -143l-520 -519l520 -520l-141 -139z" />
<glyph unicode="=" horiz-adv-x="1413" d="M184 264v203h1045v-203h-1045zM184 672v200h1045v-200h-1045z" />
<glyph unicode="&#x3e;" horiz-adv-x="954" d="M92 139l520 520l-520 519l144 143l657 -659l-660 -662z" />
<glyph unicode="?" horiz-adv-x="1069" d="M66 1049q0 106 38.5 188t105 137.5t156 83t191.5 27.5q100 0 184 -31t143.5 -85t93.5 -128t34 -158q0 -109 -45 -187.5t-117 -137.5q-41 -35 -76 -61.5t-61.5 -57.5t-42 -71t-15.5 -97v-57h-254v98q0 55 11 100q14 68 41.5 114t63.5 82t74 64.5t75 61.5q29 27 54 62.5 t25 84.5q0 68 -50 120t-148 52t-157.5 -52t-59.5 -152h-264zM385 0v287h285v-287h-285z" />
<glyph unicode="@" horiz-adv-x="1898" d="M143 662q0 184 63.5 334.5t178.5 258t273.5 166t351.5 58.5q160 0 302 -44t248.5 -130t168 -216.5t61.5 -302.5q0 -90 -24.5 -187t-78 -178t-136.5 -134.5t-199 -53.5q-68 0 -122 29t-85 113q-41 -72 -104.5 -104.5t-137.5 -32.5q-86 0 -149.5 33.5t-103.5 89t-59.5 127 t-19.5 149.5q0 84 22.5 162t67 136t111 93t154.5 35q63 0 124.5 -33t82.5 -98l28 108h189l-37 -520q-4 -45 10 -70.5t45 -25.5t57.5 16.5t50 41t41 56t27.5 62.5q14 43 20.5 89t6.5 93q0 123 -41 217.5t-115 157t-177 94t-226 31.5q-150 0 -269.5 -46t-202.5 -130t-127 -202 t-44 -259q0 -127 41 -237.5t117.5 -191.5t185 -127t241.5 -46q119 0 242 14.5t264 63.5v-197q-121 -45 -243.5 -63.5t-264.5 -18.5q-186 0 -335.5 62.5t-255 172t-162 259t-56.5 326.5zM797 637q0 -41 8 -79t25.5 -66.5t45 -46t66.5 -17.5q49 0 83 20.5t54.5 55.5t29.5 80 t9 94q0 86 -33.5 144.5t-119.5 58.5q-45 0 -77 -21.5t-52.5 -56.5t-29.5 -78t-9 -88z" />
<glyph unicode="A" horiz-adv-x="1308" d="M0 0l510 1452h289l510 -1452h-277l-94 279h-578l-94 -279h-266zM442 516h414l-207 612z" />
<glyph unicode="B" horiz-adv-x="1359" d="M170 -2v1454h578q88 0 175 -16.5t160 -63.5q80 -53 124 -137t44 -178q0 -45 -10 -90t-32.5 -87t-56.5 -76t-79 -54q104 -47 156.5 -136.5t52.5 -191.5q0 -98 -35 -182t-112 -144q-86 -66 -184.5 -82t-202.5 -16h-578zM432 236h326q45 0 91 9t83 31.5t59.5 59.5t22.5 92 q0 117 -72 164t-176 47h-334v-403zM432 860h332q45 0 85 9.5t69.5 30t47 55t17.5 85.5t-18.5 87t-49 57.5t-71.5 31t-86 9.5h-326v-365z" />
<glyph unicode="C" horiz-adv-x="1286" d="M82 725q0 88 6 170t24.5 155.5t54.5 139t95 125.5q84 84 189.5 124t222.5 40t225.5 -42t190.5 -126q63 -66 96 -148t43 -168h-271q-4 47 -20 83t-45 71q-35 45 -93.5 67.5t-125.5 22.5q-63 0 -121.5 -24.5t-101.5 -71.5q-37 -39 -57.5 -90.5t-30 -107.5t-11.5 -113.5 t-2 -106.5t2 -106.5t11.5 -113.5t30 -107.5t57.5 -90.5q43 -47 101 -71.5t122 -24.5q68 0 126 23.5t93 68.5q57 70 65 160h271q-10 -86 -43 -169t-96 -149q-82 -84 -190.5 -128t-225.5 -44t-222.5 39t-189.5 123q-59 59 -95 125t-54.5 139.5t-24.5 154.5t-6 171z" />
<glyph unicode="D" horiz-adv-x="1400" d="M170 0v1452h565q125 0 230.5 -40t177.5 -116q55 -57 89 -124.5t52.5 -141.5t23.5 -150.5t5 -152.5t-5 -152.5t-23.5 -150.5t-52.5 -142.5t-89 -125.5q-72 -76 -177.5 -116t-230.5 -40h-565zM434 238h301q63 0 115.5 22.5t89.5 58.5q39 39 59.5 88.5t30.5 103.5t12 110.5 t2 105.5t-2 104.5t-12 109.5t-30.5 103.5t-59.5 88.5q-37 37 -89 59t-116 22h-301v-976z" />
<glyph unicode="E" horiz-adv-x="1286" d="M170 0v1452h1034v-240h-770v-338h678v-237h-678v-397h770v-240h-1034z" />
<glyph unicode="F" horiz-adv-x="1204" d="M170 0v1452h1004v-240h-740v-389h660v-239h-660v-584h-264z" />
<glyph unicode="G" horiz-adv-x="1400" d="M86 725q0 88 7 169t27.5 152.5t57.5 137t96 125.5q84 84 200 127t233 43q135 0 245.5 -45t184.5 -121q53 -55 90 -126t43 -167h-271q-4 43 -22.5 73.5t-40.5 59.5q-76 88 -231 88q-63 0 -129 -25.5t-109 -72.5q-37 -39 -59.5 -90.5t-35 -107.5t-15.5 -113.5t-3 -106.5 t4 -107.5t16.5 -116t35 -109.5t59.5 -91q43 -47 107.5 -69.5t128.5 -22.5q72 0 126 22.5t91 61.5q59 61 76.5 130t17.5 152h-346v220h602v-795h-170l-31 160q-16 -31 -49 -64t-81 -60.5t-107.5 -45t-126.5 -17.5q-127 0 -237 35t-196 127q-57 59 -93 125t-57.5 139.5 t-29.5 154.5t-8 171z" />
<glyph unicode="H" horiz-adv-x="1464" d="M170 0v1452h264v-567h596v567h264v-1452h-264v633h-596v-633h-264z" />
<glyph unicode="I" horiz-adv-x="608" d="M170 0v1452h268v-1452h-268z" />
<glyph unicode="J" horiz-adv-x="1005" d="M0 455h256q0 -53 9 -105.5t44 -89.5q23 -23 54.5 -38t72.5 -15q90 0 133 53t43 143v1049h265v-1028q0 -207 -115 -330t-326 -123q-104 0 -180 32t-129 87q-127 129 -127 365z" />
<glyph unicode="K" horiz-adv-x="1388" d="M170 0v1452h264v-670l580 670h321l-467 -549l521 -903h-312l-393 686l-250 -293v-393h-264z" />
<glyph unicode="L" horiz-adv-x="1126" d="M170 0v1452h264v-1202h674v-250h-938z" />
<glyph unicode="M" horiz-adv-x="1798" d="M170 0v1452h356l381 -1034l383 1034h338v-1452h-256v1036l-377 -1016h-194l-375 1029v-1049h-256z" />
<glyph unicode="N" horiz-adv-x="1501" d="M170 0v1452h281l620 -983v983h260v-1452h-272l-629 997v-997h-260z" />
<glyph unicode="O" horiz-adv-x="1376" d="M86 725q0 88 6 170t26.5 155.5t56.5 139t95 125.5q84 84 192.5 124t225.5 40t225.5 -40t192.5 -124q59 -59 95 -125t56.5 -139.5t26.5 -155.5t6 -170q0 -90 -6 -170t-26.5 -153.5t-56.5 -139t-95 -125.5q-84 -84 -192.5 -124t-225.5 -40t-225.5 40t-192.5 124 q-59 59 -95 125t-56.5 139.5t-26.5 153.5t-6 170zM354 725q0 -49 2 -106.5t12.5 -112.5t32 -106.5t58.5 -90.5q43 -47 104.5 -71.5t124.5 -24.5t124.5 24.5t105.5 71.5q37 39 58 90.5t31.5 106.5t12.5 112.5t2 106.5t-2 106.5t-12.5 113.5t-32 107.5t-57.5 90.5 q-43 47 -104.5 71.5t-125.5 24.5q-63 0 -124.5 -24.5t-104.5 -71.5q-37 -39 -58.5 -90.5t-32 -107.5t-12.5 -113.5t-2 -106.5z" />
<glyph unicode="P" horiz-adv-x="1277" d="M170 0v1452h569q125 0 221.5 -34t161 -94t97 -146.5t32.5 -190.5t-32.5 -190t-97 -147.5t-161 -95.5t-221.5 -34h-307v-520h-262zM432 752h297q133 0 194.5 64.5t61.5 168.5t-61.5 170t-194.5 66h-297v-469z" />
<glyph unicode="Q" horiz-adv-x="1376" d="M86 725q0 88 6 170t26.5 155.5t56.5 139t95 125.5q84 84 192.5 124t225.5 40t225.5 -40t192.5 -124q59 -59 95 -125t56.5 -139.5t26.5 -155.5t6 -170q0 -90 -6 -170t-26.5 -152.5t-56.5 -138t-93 -125.5l127 -159l-158 -123l-135 168q-117 -51 -254 -52q-117 0 -225.5 40 t-192.5 124q-59 59 -95 125t-56.5 139.5t-26.5 153.5t-6 170zM354 725q0 -49 2 -106.5t12.5 -112.5t32 -106.5t58.5 -90.5q43 -47 104.5 -71.5t124.5 -24.5q51 0 94 14l-155 195l159 125l160 -203q27 39 42.5 87t22.5 98.5t9 100.5t2 95q0 49 -2 106.5t-12.5 113.5 t-32 107.5t-57.5 90.5q-43 47 -104.5 71.5t-125.5 24.5q-63 0 -124.5 -24.5t-104.5 -71.5q-37 -39 -58.5 -90.5t-32 -107.5t-12.5 -113.5t-2 -106.5z" />
<glyph unicode="R" horiz-adv-x="1349" d="M170 0v1452h612q129 0 224.5 -38t158 -100.5t92 -143t29.5 -169.5q0 -147 -72.5 -254.5t-193.5 -152.5l266 -594h-287l-241 549h-322v-549h-266zM434 786h352q113 0 174.5 55.5t61.5 159.5q0 43 -16.5 83t-47 71t-75.5 48.5t-101 17.5h-348v-435z" />
<glyph unicode="S" horiz-adv-x="1294" d="M61 461h271q0 -53 21.5 -99.5t54.5 -78.5q47 -47 113.5 -62.5t129.5 -15.5q76 0 143.5 17.5t108.5 60.5q25 27 41.5 56.5t16.5 82.5q0 80 -52.5 120t-120.5 52q-74 14 -161.5 20.5t-159.5 18.5q-76 12 -142.5 43t-116.5 81t-80 120.5t-30 160.5q0 86 35 158t92 129 q72 72 184.5 113t241.5 41q117 0 224.5 -36t181.5 -106q66 -61 105.5 -139t41.5 -170h-270q-2 39 -19.5 77t-44.5 66q-35 37 -98 57.5t-123 20.5q-61 0 -125.5 -16t-109.5 -64q-23 -25 -36 -53.5t-13 -68.5q0 -72 40.5 -110t106.5 -48q70 -10 157 -18.5t158 -18.5 q82 -12 155 -44t127 -84t86 -126t32 -166q0 -102 -34 -176t-87 -127q-84 -84 -204 -120t-255 -36q-117 0 -230.5 34t-203.5 116q-66 59 -109 146t-43 192z" />
<glyph unicode="T" horiz-adv-x="1148" d="M12 1206v246h1125v-246h-430v-1206h-265v1206h-430z" />
<glyph unicode="U" horiz-adv-x="1396" d="M129 557v895h264v-891q0 -156 74 -252t231 -96q158 0 232 96.5t74 251.5v891h264v-895q0 -129 -36 -236.5t-107.5 -184.5t-178 -120t-248.5 -43q-141 0 -247.5 43t-178 120t-107.5 184.5t-36 236.5z" />
<glyph unicode="V" horiz-adv-x="1249" d="M0 1452h281l352 -1108l350 1108h266l-477 -1452h-291z" />
<glyph unicode="W" horiz-adv-x="1785" d="M35 1452h252l202 -1010l299 988h222l293 -988l206 1010h242l-289 -1452h-264l-303 1001l-303 -1001h-264z" />
<glyph unicode="X" horiz-adv-x="1234" d="M4 0l457 739l-453 713h289l326 -508l315 508h287l-447 -715l453 -737h-291l-326 528l-325 -528h-285z" />
<glyph unicode="Y" horiz-adv-x="1277" d="M0 1452h287l358 -627l359 627h274l-508 -895v-557h-266v557z" />
<glyph unicode="Z" horiz-adv-x="1259" d="M59 0v260l801 952h-788v240h1114v-260l-795 -952h805v-240h-1137z" />
<glyph unicode="[" horiz-adv-x="743" d="M213 -303v1900h479v-174h-286v-1552h286v-174h-479z" />
<glyph unicode="\" horiz-adv-x="796" d="M-20 1479h188l629 -1506h-189z" />
<glyph unicode="]" horiz-adv-x="743" d="M51 -129h287v1552h-287v174h479v-1900h-479v174z" />
<glyph unicode="^" horiz-adv-x="1101" d="M102 827l349 652h202l346 -652h-282l-170 334l-172 -334h-273z" />
<glyph unicode="_" horiz-adv-x="1202" d="M49 -4h1104v-180h-1104v180z" />
<glyph unicode="`" horiz-adv-x="522" d="M6 1389l115 186l377 -283l-82 -133z" />
<glyph unicode="a" horiz-adv-x="1150" d="M72 307q0 76 27.5 135.5t76.5 102.5t114.5 66.5t141.5 29.5l313 23v65q0 76 -35.5 122t-144.5 46q-90 0 -140 -39t-54 -113h-248q6 90 42 156t95 108t137 62.5t168 20.5q137 0 245 -48.5t155 -169.5q20 -51 25 -106t5 -109v-395q0 -37 13.5 -52t46.5 -15q16 0 22 2 q6 0 10 2v-189q-33 -14 -56 -21t-70 -7q-84 0 -129.5 45t-51.5 104q-37 -66 -123 -113t-200 -47q-96 0 -168 28t-120 74t-72.5 106.5t-24.5 125.5zM322 313q0 -61 46 -97t105 -36q121 0 196.5 62.5t75.5 181.5v49l-270 -20q-59 -4 -106 -39t-47 -101z" />
<glyph unicode="b" horiz-adv-x="1230" d="M160 0v1479h256v-492q37 45 109.5 75t168.5 30q82 0 146.5 -22.5t113.5 -63.5q191 -159 191 -476q0 -152 -47 -269.5t-144 -194.5q-49 -41 -113.5 -66t-144.5 -25q-88 0 -170 34t-129 108l-16 -117h-221zM403 535q0 -78 18.5 -159t74.5 -132q27 -25 63.5 -39.5 t85.5 -14.5q59 0 101 25t71 59q41 53 54.5 122t13.5 139t-13.5 137t-54.5 121q-29 35 -70.5 59.5t-101.5 24.5q-76 0 -123 -32t-73.5 -82t-36 -110.5t-9.5 -117.5z" />
<glyph unicode="c" horiz-adv-x="1087" d="M86 535q0 117 28.5 215t88.5 174q55 68 151.5 118t218.5 50q123 0 216.5 -49.5t148.5 -118.5q37 -47 57.5 -107.5t24.5 -124.5h-252q-2 29 -10 53.5t-21 45.5q-23 35 -63.5 57t-100.5 22q-53 0 -91 -18t-64 -47q-47 -51 -59.5 -123t-12.5 -147q0 -76 12.5 -147t59.5 -122 q27 -29 64.5 -48t90.5 -19q59 0 100.5 22.5t63.5 57.5q12 20 20.5 44.5t10.5 53.5h252q-4 -63 -24.5 -123.5t-57.5 -108.5q-55 -70 -148.5 -119t-216.5 -49t-219 50.5t-151 117.5q-59 76 -88 174.5t-29 215.5z" />
<glyph unicode="d" horiz-adv-x="1230" d="M86 530q0 317 190 476q49 41 114 63.5t147 22.5q102 0 172.5 -30t105.5 -71v488h256v-1479h-221l-16 117q-47 -74 -129 -108t-170 -34q-80 0 -145.5 25t-115.5 66q-96 78 -142 195.5t-46 268.5zM346 535q0 -70 13.5 -138.5t54.5 -122.5q29 -35 70.5 -59.5t101.5 -24.5 q76 0 123 32t73.5 82t35.5 112t9 119t-9 117.5t-35.5 110.5t-73.5 82t-123 32q-59 0 -101.5 -25t-70.5 -59q-41 -53 -54.5 -121t-13.5 -137z" />
<glyph unicode="e" horiz-adv-x="1140" d="M86 530q0 129 38 239t116 187q59 61 144 98.5t196 37.5q119 0 221 -48.5t168 -148.5q59 -88 75.5 -175t16.5 -196q-2 -14 -2 -26v-45h-713v-11q0 -56 18 -106q20 -56 60 -92q29 -27 66.5 -46.5t91.5 -19.5q55 0 91 11.5t64 39.5q37 37 51 90h246q-4 -47 -31.5 -103 t-58.5 -93q-68 -80 -162 -115t-196 -35q-111 0 -192 36t-144 95q-80 78 -122 186.5t-42 239.5zM344 639h461q-2 117 -66 186q-27 29 -66.5 45.5t-94.5 16.5q-59 0 -104.5 -22.5t-74.5 -59.5q-29 -35 -41 -74t-14 -92z" />
<glyph unicode="f" horiz-adv-x="776" d="M33 854v211h180v102q0 147 95 241.5t267 94.5q55 0 98.5 -5t102.5 -17v-205q-41 8 -79 12t-89 4q-70 0 -104.5 -35.5t-34.5 -93.5v-98h285v-211h-285v-854h-256v854h-180z" />
<glyph unicode="g" horiz-adv-x="1128" d="M78 -176q0 70 32.5 128t94.5 89q-51 29 -79 79t-28 103q0 137 127 215q-49 49 -77.5 114.5t-28.5 147.5q0 94 34.5 168t94 123t138.5 75t169 26q66 0 127 -17.5t115 -48.5q35 70 92 101.5t125 31.5h35q23 0 34 -4v-199q-4 0 -10 1t-10 1q-45 0 -81 -14t-48 -53 q55 -90 55 -193q0 -92 -35.5 -163.5t-95 -120.5t-138.5 -76t-165 -27q-90 0 -172 29q-18 -10 -35.5 -29.5t-17.5 -46.5q0 -47 38 -62.5t78 -15.5h177q39 0 84 -1t91 -8t90 -21.5t81 -40.5q70 -47 99.5 -112.5t29.5 -143.5q0 -104 -47 -174t-121 -110t-166 -56.5t-180 -16.5 q-98 0 -195.5 14.5t-181.5 73.5q-61 43 -95 100.5t-34 133.5zM305 -147q0 -51 27.5 -80t68.5 -44.5t88.5 -19.5t83.5 -4q39 0 88.5 3t92.5 17.5t72.5 44.5t29.5 83q0 49 -26.5 75.5t-64.5 39t-82 14.5t-81 2h-201q-41 -12 -68.5 -46t-27.5 -85zM367 700q0 -86 50 -141 t138 -55t138 55t50 141t-50 142.5t-138 56.5t-138 -56.5t-50 -142.5z" />
<glyph unicode="h" horiz-adv-x="1210" d="M160 0v1479h256v-527q47 68 127 104t164 36q86 0 152.5 -29t112.5 -80t70.5 -120.5t24.5 -151.5v-711h-256v657q0 92 -37 145.5t-139 53.5q-57 0 -99 -27.5t-69 -70.5t-39 -95.5t-12 -101.5v-561h-256z" />
<glyph unicode="i" horiz-adv-x="585" d="M156 1212v265h274v-265h-274zM164 0v1065h260v-1065h-260z" />
<glyph unicode="j" horiz-adv-x="606" d="M-61 -201q29 -4 46 -6t29.5 -3t23.5 -2t25 -1q59 0 91 30.5t32 84.5v1163h258v-1212q0 -137 -77.5 -217t-221.5 -80h-45q-20 0 -45 4t-53.5 8t-62.5 14v217zM176 1217v264h275v-264h-275z" />
<glyph unicode="k" horiz-adv-x="1181" d="M160 0v1479h256v-846l403 432h322l-381 -412l422 -653h-297l-299 465l-170 -184v-281h-256z" />
<glyph unicode="l" horiz-adv-x="618" d="M154 274v1207h258v-1164q0 -47 18.5 -74.5t83.5 -27.5q16 0 24.5 1t18.5 1v-215q-39 -8 -56.5 -11t-56.5 -3q-131 0 -210.5 67.5t-79.5 218.5z" />
<glyph unicode="m" horiz-adv-x="1812" d="M160 0v1065h213l20 -141q45 74 121 121t182 47q113 0 189 -46.5t116 -127.5q47 84 130 129t192 45q172 0 259 -103.5t87 -269.5v-719h-254v662q0 98 -33.5 152t-130.5 54q-55 0 -94 -25.5t-64.5 -67.5t-38 -93t-12.5 -100v-582h-254v662q0 98 -33.5 152t-129.5 54 q-55 0 -94 -25.5t-66 -67.5t-39 -93t-12 -100v-582h-254z" />
<glyph unicode="n" horiz-adv-x="1210" d="M160 0v1065h215l18 -137q47 84 134 124t180 40q86 0 152.5 -29t112.5 -79t70.5 -120.5t24.5 -152.5v-711h-256v653q0 94 -37 147.5t-139 53.5q-68 0 -113 -38t-71 -97q-29 -63 -32 -140t-3 -145v-434h-256z" />
<glyph unicode="o" d="M86 532q0 135 33 226.5t92 167.5q55 68 152.5 117t220.5 49t220 -49.5t152 -116.5q59 -76 92 -167.5t33 -226.5t-32.5 -226t-92.5 -167q-55 -68 -152 -117t-220 -49t-220.5 49.5t-152.5 116.5q-59 76 -92 167t-33 226zM346 532q0 -76 14.5 -146.5t61.5 -121.5 q27 -29 67.5 -48t94.5 -19q53 0 94 19.5t67 47.5q47 51 61.5 121.5t14.5 146.5t-14 147t-62 122q-27 29 -67.5 48t-93.5 19t-94 -19.5t-68 -47.5q-47 -51 -61.5 -122t-14.5 -147z" />
<glyph unicode="p" horiz-adv-x="1230" d="M160 -408v1473h221l16 -117q47 74 129 108t170 34q80 0 144.5 -25t113.5 -66q96 -78 143.5 -195t47.5 -269q0 -158 -47 -278t-144 -198q-49 -41 -113.5 -63.5t-146.5 -22.5q-96 0 -168.5 30t-109.5 75v-486h-256zM403 530q0 -57 9.5 -117.5t36 -110.5t73.5 -82t123 -32 q59 0 101 25t71 59q41 53 54.5 120.5t13.5 137.5t-13.5 138.5t-54.5 122.5q-29 35 -70.5 59t-101.5 24q-76 0 -123 -31.5t-73.5 -81.5t-36 -111.5t-9.5 -119.5z" />
<glyph unicode="q" horiz-adv-x="1230" d="M86 535q0 152 47 269.5t143 194.5q49 41 114 66t145 25q88 0 169.5 -34t129.5 -108l16 117h221v-1473h-256v484q-37 -45 -109.5 -74t-168.5 -29q-82 0 -146.5 22.5t-114.5 63.5q-96 78 -143 198t-47 278zM346 530q0 -70 13.5 -137t54.5 -121q29 -35 70.5 -59.5 t101.5 -24.5q76 0 123 32t73.5 82t35.5 110.5t9 117.5t-9 119t-35.5 112t-73.5 81.5t-123 31.5q-59 0 -101.5 -24.5t-70.5 -58.5q-41 -53 -54.5 -122t-13.5 -139z" />
<glyph unicode="r" horiz-adv-x="808" d="M160 0v1065h217l22 -160q37 92 122 133t179 41q39 0 80 -6v-246q-47 10 -88 11q-135 0 -204.5 -86t-69.5 -215v-537h-258z" />
<glyph unicode="s" horiz-adv-x="1067" d="M74 344h239q0 -35 16.5 -69.5t41.5 -55.5q31 -25 68.5 -36t92.5 -11q33 0 71 5t71 19.5t54.5 41t21.5 69.5q0 47 -29 76t-78 37q-72 10 -147.5 17t-147.5 24q-55 12 -99 38.5t-77 64.5t-50.5 84t-17.5 97q0 82 31 140.5t78 99.5q59 51 141 79t183 28q96 0 185 -31 t148 -94q43 -47 69 -103.5t26 -115.5h-244q0 31 -12.5 55t-30.5 45q-23 23 -60.5 36t-78.5 13q-29 0 -55.5 -2t-55.5 -14q-35 -14 -58.5 -43t-23.5 -70q0 -57 40 -78.5t83 -27.5q37 -4 61 -9l50 -6q25 -2 51 -6l65 -10q127 -20 209 -97t82 -204q0 -78 -25.5 -135.5 t-66.5 -98.5q-66 -66 -160 -94.5t-205 -28.5q-102 0 -190 30t-154 93q-47 45 -79.5 108.5t-32.5 139.5z" />
<glyph unicode="t" horiz-adv-x="819" d="M27 854v211h194v270l256 64v-334h268v-211h-268v-518q0 -61 29 -89t90 -28q41 0 77 2t89 8v-215q-107 -28 -212 -28h-7q-162 0 -242 87t-80 240v541h-194z" />
<glyph unicode="u" horiz-adv-x="1208" d="M143 354v711h256v-653q0 -94 41 -148.5t144 -54.5q45 0 76.5 15.5t54.5 37.5q47 43 62.5 108.5t15.5 131.5v563h256v-1065h-213l-19 139q-39 -78 -121 -122t-184 -44q-86 0 -153.5 28t-115.5 78t-74 119.5t-26 155.5z" />
<glyph unicode="v" horiz-adv-x="1052" d="M0 1065h270l267 -750l251 750h265l-385 -1065h-273z" />
<glyph unicode="w" horiz-adv-x="1579" d="M47 1065h248l170 -698l223 688h211l225 -686l164 696h244l-260 -1065h-238l-241 719l-238 -719h-238z" />
<glyph unicode="x" horiz-adv-x="1056" d="M6 1065h295l238 -344l231 344h281l-367 -524l365 -541h-289l-238 356l-233 -356h-281l373 543z" />
<glyph unicode="y" horiz-adv-x="1085" d="M0 1065h281l278 -770l266 770h260l-469 -1247q-20 -53 -47.5 -101.5t-66.5 -85.5t-91.5 -58.5t-121.5 -21.5q-63 0 -109.5 8.5t-87.5 18.5v213q25 -4 42.5 -8t32.5 -6t30.5 -3t38.5 -1q35 0 68.5 16t53.5 64l62 149z" />
<glyph unicode="z" horiz-adv-x="1038" d="M90 0v225l563 629h-559v211h860v-231l-557 -623h561v-211h-868z" />
<glyph unicode="{" horiz-adv-x="776" d="M92 553v190q57 6 102.5 19.5t76 42.5t47 75t16.5 117v56q0 35 -1 71.5t-1 69.5v57q0 68 19.5 131.5t60.5 110.5t104.5 75.5t151.5 28.5h108v-174h-69q-102 0 -141.5 -49t-39.5 -137v-315q0 -45 -14 -88t-42 -79t-69 -62.5t-96 -39.5v-6q55 -12 96 -39.5t69 -64.5t42 -81 t14 -89v-316q0 -88 39 -137t142 -49h69v-174h-108q-88 0 -151.5 28.5t-104.5 75.5t-60.5 110.5t-19.5 131.5v55q0 35 1 72t1 70v57q0 135 -60.5 190.5t-181.5 65.5z" />
<glyph unicode="|" horiz-adv-x="548" d="M174 -303v1900h201v-1900h-201z" />
<glyph unicode="}" horiz-adv-x="776" d="M0 -129h70q102 0 141 49t39 137v316q0 45 14.5 89t42 81t68.5 64.5t96 39.5v6q-55 12 -96 39t-68.5 63t-42 79t-14.5 88v315q0 88 -39 137t-141 49h-70v174h109q88 0 151.5 -28.5t104.5 -75.5t60 -110.5t19 -131.5v-57q0 -33 -1 -70t-1 -71v-56q0 -72 15.5 -117.5 t46.5 -74.5t76 -42t104 -20v-190q-121 -10 -181.5 -65.5t-60.5 -190.5v-57q0 -33 1 -70t1 -72v-55q0 -68 -19 -131.5t-60 -110.5t-104.5 -75.5t-151.5 -28.5h-109v174z" />
<glyph unicode="~" horiz-adv-x="1398" d="M123 621q39 41 80 78.5t86 66.5t97 46t112 17q57 0 111.5 -19t103.5 -42t95 -42t89 -19q63 0 118.5 35.5t96.5 78.5l164 -194q-78 -82 -169 -143.5t-210 -61.5q-59 0 -114.5 19.5t-104.5 44t-95 44t-87 19.5q-63 0 -116.5 -40t-94.5 -83z" />
<glyph unicode="&#xa1;" horiz-adv-x="679" d="M170 37l57 563h154l57 -563v-455h-268v455zM170 758v276h270v-276h-270z" />
<glyph unicode="&#xa2;" d="M123 725q0 117 25.5 216t84.5 173q47 57 124 103.5t175 60.5v180h127v-178q102 -10 179 -57t125 -109q76 -98 81 -229h-247q-2 29 -10.5 52.5t-20.5 43.5q-35 57 -107 76v-664q72 18 107 76q12 20 20.5 44t10.5 52h247q-6 -131 -81 -229q-47 -61 -124 -108.5t-180 -57.5 v-174h-127v178q-98 14 -174.5 59.5t-124.5 102.5q-59 74 -84.5 173t-25.5 216zM377 725q0 -76 11 -147.5t58 -122.5q37 -39 86 -58v656q-49 -18 -86 -58q-47 -51 -58 -122.5t-11 -147.5z" />
<glyph unicode="&#xa3;" d="M59 0v225q156 0 156 152v266h-154v211h154v186q0 195 113.5 304.5t306.5 109.5q86 0 160.5 -26.5t130 -78t87 -123t31.5 -161.5h-256q0 72 -38.5 120t-114.5 48q-84 0 -123 -51.5t-39 -128.5v-199h293v-211h-293v-268q0 -20 -3 -43t-11 -42.5t-23.5 -34.5t-38.5 -22v-4 h310q86 0 120.5 40t34.5 124h244q0 -193 -101.5 -293t-293.5 -100h-652z" />
<glyph unicode="&#xa4;" d="M14 131l162 137q-74 129 -74 252t74 252l-162 129l181 178l137 -153q63 35 125.5 50t128.5 15t125 -15t123 -50l141 153l178 -178l-160 -129q74 -129 74 -252q0 -127 -74 -252l160 -137l-176 -172l-143 156q-61 -35 -122 -51.5t-126 -16.5q-66 0 -127.5 16.5t-124.5 51.5 l-141 -156zM330 520q0 -51 17.5 -98t50 -83t79.5 -57.5t109 -21.5q123 0 187.5 73.5t64.5 186.5q0 55 -17.5 102.5t-50.5 82t-80 54t-104 19.5q-129 0 -192.5 -71.5t-63.5 -186.5z" />
<glyph unicode="&#xa5;" d="M0 1423h285l305 -555l295 555h280l-338 -608h234v-149h-348v-185h348v-149h-348v-332h-262v332h-326v149h326v185h-326v149h213z" />
<glyph unicode="&#xa6;" horiz-adv-x="591" d="M170 -102v653h252v-653h-252zM170 901v653h252v-653h-252z" />
<glyph unicode="&#xa7;" horiz-adv-x="1124" d="M102 600q0 94 52.5 161.5t126.5 119.5q-41 47 -62.5 102t-21.5 125q0 74 26.5 131t69.5 100q53 53 129 84t162 31q80 0 150.5 -25.5t123.5 -72.5t84 -116t31 -157h-225q0 72 -42 121t-120 49q-72 0 -115 -37.5t-43 -103.5q0 -43 19.5 -74.5t50.5 -60.5l399 -342 q63 -53 99 -125t36 -156q0 -94 -51 -162.5t-125 -119.5q41 -47 61.5 -101.5t20.5 -124.5q0 -74 -25.5 -132t-68.5 -101q-53 -53 -129 -83t-162 -30q-80 0 -150.5 24.5t-124 72t-84 116t-30.5 156.5h223q0 -72 43 -120t121 -48q72 0 115 38t43 103q0 43 -20.5 75t-51.5 60 l-399 342q-63 53 -99.5 125t-36.5 156zM330 616q0 -35 13 -69.5t42 -59.5l330 -284q35 25 63.5 59.5t28.5 75.5q0 35 -14.5 69.5t-42.5 59.5l-328 285q-35 -25 -63.5 -60t-28.5 -76z" />
<glyph unicode="&#xa8;" horiz-adv-x="661" d="M0 1231v248h240v-248h-240zM422 1231v248h240v-248h-240z" />
<glyph unicode="&#xa9;" horiz-adv-x="1716" d="M100 725q0 164 57.5 302t159 238.5t239.5 157t302 56.5q162 0 301 -56.5t240.5 -158t159 -239.5t57.5 -300q0 -166 -56.5 -304t-158 -237.5t-240.5 -156t-303 -56.5q-166 0 -304 56.5t-239.5 156t-158 237.5t-56.5 304zM293 725q0 -125 41 -231.5t114.5 -183.5t178 -120 t231.5 -43q125 0 229.5 44.5t179 121t116.5 183t42 229.5q0 125 -41 230.5t-116.5 182t-180 121t-229.5 44.5q-127 0 -230.5 -44.5t-178 -121t-115.5 -182t-41 -230.5zM483 721q0 82 26 155.5t75 129t120.5 88t163.5 32.5q74 0 135.5 -22.5t107.5 -63.5t74.5 -96t37.5 -121 h-209q-8 47 -46 82t-100 35q-45 0 -77.5 -18.5t-54 -49t-32 -70.5t-10.5 -81q0 -96 44 -158.5t130 -62.5q61 0 99.5 34.5t46.5 81.5h209q-8 -66 -37 -121t-75 -96t-107.5 -63.5t-135.5 -22.5q-92 0 -163.5 33t-120.5 88t-75 129t-26 158z" />
<glyph unicode="&#xaa;" horiz-adv-x="972" d="M102 860q0 57 20.5 102.5t57.5 76t86 49t107 22.5l237 18v50q0 57 -25.5 92t-109.5 35q-139 0 -145 -115h-189q4 68 32 118t72 82.5t103.5 48t126.5 15.5q104 0 185 -37t116 -129q16 -39 19.5 -81t3.5 -83v-303q0 -29 11 -39t36 -10q12 0 16 2q4 0 8 2v-143 q-25 -10 -43 -16.5t-53 -6.5q-63 0 -98 34t-39 81q-29 -49 -94.5 -85t-151.5 -36q-72 0 -126 21.5t-90 56.5t-54.5 82t-18.5 96zM293 862q0 -47 32.5 -74.5t80.5 -27.5q92 0 148 48t56 138v37l-202 -16q-45 -4 -80 -30t-35 -75z" />
<glyph unicode="&#xab;" horiz-adv-x="1202" d="M92 610l354 506l150 -106l-234 -398l234 -397l-150 -104zM586 610l354 506l150 -106l-234 -398l234 -397l-150 -104z" />
<glyph unicode="&#xac;" horiz-adv-x="1361" d="M113 514v231h1083l2 -573h-250v342h-835z" />
<glyph unicode="&#xad;" horiz-adv-x="948" d="M123 516v229h702v-229h-702z" />
<glyph unicode="&#xae;" horiz-adv-x="1716" d="M100 725q0 164 57.5 302t159 238.5t239.5 157t302 56.5q162 0 301 -56.5t240.5 -158t159 -239.5t57.5 -300q0 -166 -56.5 -304t-158 -237.5t-240.5 -156t-303 -56.5q-166 0 -304 56.5t-239.5 156t-158 237.5t-56.5 304zM293 725q0 -125 41 -231.5t114.5 -183.5t178 -120 t231.5 -43q125 0 229.5 44.5t179 121t115.5 183t41 229.5q0 125 -41 230.5t-115.5 182t-179 121t-229.5 44.5q-127 0 -230.5 -44.5t-178 -121t-115.5 -182t-41 -230.5zM584 365v747h297q59 0 110 -16.5t90 -48t60.5 -78.5t21.5 -111q0 -66 -27.5 -123t-88.5 -88l122 -282 h-198l-101 245h-96v-245h-190zM772 780h109q41 0 65.5 21.5t24.5 62.5t-26.5 59.5t-63.5 18.5h-109v-162z" />
<glyph unicode="&#xaf;" horiz-adv-x="624" d="M-10 1251v205h655v-205h-655z" />
<glyph unicode="&#xb0;" horiz-adv-x="913" d="M102 1137q0 70 24 132t69 109t110.5 74t147.5 27q80 0 145.5 -26t112.5 -72t73.5 -108t26.5 -136q0 -78 -28.5 -142.5t-78 -109.5t-114 -69.5t-137.5 -24.5q-74 0 -137.5 26.5t-110.5 72.5t-75 109.5t-28 137.5zM299 1137q0 -68 44 -114t110 -46t111.5 46t45.5 114 q0 66 -46 110.5t-111 44.5q-66 0 -110 -45t-44 -110z" />
<glyph unicode="&#xb1;" horiz-adv-x="1245" d="M102 0v217h1041v-217h-1041zM102 659v215h404v328h231v-328h406v-215h-406v-327h-231v327h-404z" />
<glyph unicode="&#xb2;" horiz-adv-x="829" d="M113 1188q10 137 88 207.5t215 70.5q57 0 108 -16t90 -49t62.5 -79t23.5 -108q0 -78 -43 -131t-96 -98l-131 -108h287v-179h-590v150l313 268q25 23 43.5 42.5t18.5 58.5q0 37 -24.5 60t-63.5 23q-57 0 -80 -32.5t-27 -79.5h-194z" />
<glyph unicode="&#xb3;" horiz-adv-x="843" d="M113 942h180q4 -53 42 -75.5t85 -22.5q20 0 41.5 4t40 13t30 26.5t11.5 42.5q0 43 -29 61.5t-80 18.5h-55v149h55q39 0 65.5 15.5t26.5 58.5t-33.5 61.5t-70.5 18.5q-53 0 -86 -24.5t-39 -78.5h-178q4 59 24.5 104.5t55.5 76.5q86 76 223 75q76 0 144.5 -26.5 t109.5 -79.5q18 -25 29.5 -50.5t11.5 -66.5q0 -51 -30 -94t-77 -59q53 -16 87 -64.5t34 -103.5q0 -41 -12 -74t-31 -57q-43 -59 -116.5 -82t-155.5 -23q-70 0 -131.5 23.5t-102.5 66.5q-61 61 -69 166z" />
<glyph unicode="&#xb4;" horiz-adv-x="522" d="M14 1292l377 283l115 -186l-410 -230z" />
<glyph unicode="&#xb5;" horiz-adv-x="1224" d="M160 -414v1479h254v-657q0 -94 42 -148.5t144 -54.5q45 0 77 15.5t54 37.5q47 43 62.5 108.5t15.5 131.5v567h256v-1065h-213l-21 143q-39 -78 -119.5 -124t-183.5 -46q-31 0 -59.5 4.5t-54.5 18.5v-410h-254z" />
<glyph unicode="&#xb6;" horiz-adv-x="1378" d="M102 1044q0 84 32 159t87 130.5t130 87t159 31.5h745v-199h-139v-1509h-205v1509h-198v-1509h-203v893q-84 0 -159 31.5t-130 87t-87 130.5t-32 158z" />
<glyph unicode="&#xb7;" horiz-adv-x="645" d="M147 440v320h312v-320h-312z" />
<glyph unicode="&#xb8;" horiz-adv-x="405" d="M18 -397l170 307h199l-156 -408z" />
<glyph unicode="&#xb9;" horiz-adv-x="638" d="M80 1092v211l215 149h170v-747h-191v524z" />
<glyph unicode="&#xba;" horiz-adv-x="972" d="M115 1026q0 90 21.5 167t68.5 134q41 51 115.5 88t166.5 37t166 -37t115 -88q47 -57 68.5 -134t21.5 -167t-20.5 -164t-67.5 -131q-41 -51 -115.5 -90t-167.5 -39q-92 0 -167.5 39t-116.5 90q-47 57 -67.5 131t-20.5 164zM313 1026q0 -57 8.5 -111.5t43.5 -93.5 q20 -23 50.5 -37t71.5 -14t71 14.5t50 36.5q35 39 44.5 93.5t9.5 111.5t-9.5 112.5t-44.5 94.5q-20 23 -50 37t-71 14t-71.5 -14.5t-50.5 -36.5q-35 -39 -43.5 -94.5t-8.5 -112.5z" />
<glyph unicode="&#xbb;" horiz-adv-x="1202" d="M113 215l233 397l-233 398l149 106l354 -506l-354 -499zM606 215l234 397l-234 398l150 106l354 -506l-354 -499z" />
<glyph unicode="&#xbc;" horiz-adv-x="1808" d="M152 1092v211l215 149h170v-747h-191v524zM281 74l1034 1407l155 -109l-1038 -1413zM1047 145v195l237 426h197l-252 -455h184v168h184v-168h99v-166h-99v-145h-184v145h-366z" />
<glyph unicode="&#xbd;" horiz-adv-x="1875" d="M141 1092v211l215 149h170v-747h-190v524zM250 74l1034 1407l156 -109l-1039 -1413zM1063 489q10 137 88 208t215 71q57 0 108.5 -16.5t90.5 -49t62.5 -78.5t23.5 -108q0 -78 -43 -131t-97 -98l-131 -109h287v-178h-590v150l314 268q25 23 43 42t18 58q0 37 -24.5 60.5 t-63.5 23.5q-57 0 -79.5 -32.5t-27.5 -80.5h-194z" />
<glyph unicode="&#xbe;" horiz-adv-x="1884" d="M125 942h180q4 -53 42 -75.5t85 -22.5q20 0 42 4t40 13t29.5 26.5t11.5 42.5q0 43 -28.5 61.5t-80.5 18.5h-55v149h55q39 0 66 15.5t27 58.5t-34 61.5t-71 18.5q-53 0 -86 -24.5t-39 -78.5h-178q4 59 24.5 104.5t55.5 76.5q86 76 223 75q76 0 144.5 -26.5t109.5 -79.5 q18 -25 29.5 -50.5t11.5 -66.5q0 -51 -29.5 -94t-76.5 -59q53 -16 86.5 -64.5t33.5 -103.5q0 -41 -12 -74t-31 -57q-43 -59 -116.5 -82t-155.5 -23q-70 0 -131 23.5t-102 66.5q-61 61 -70 166zM385 74l1034 1407l156 -109l-1038 -1413zM1122 145v195l238 426h196l-251 -455 h184v168h184v-168h99v-166h-99v-145h-184v145h-367z" />
<glyph unicode="&#xbf;" horiz-adv-x="1069" d="M57 -51q0 109 45 187.5t117 137.5q39 33 75 60.5t62.5 58.5t42 71t15.5 97v57h254v-100q0 -53 -11 -98q-14 -68 -41.5 -114t-63.5 -82t-74 -64.5t-75 -61.5q-29 -27 -54 -62.5t-25 -84.5q0 -68 50 -120t148 -52t157.5 52t59.5 153h265q0 -109 -39 -190t-105.5 -136 t-156 -83t-191.5 -28q-100 0 -184 31t-143.5 85t-93.5 128t-34 158zM399 745v287h285v-287h-285z" />
<glyph unicode="&#xc0;" horiz-adv-x="1308" d="M0 0l510 1452h289l510 -1452h-277l-94 279h-578l-94 -279h-266zM381 1794l115 186l376 -282l-81 -133zM442 516h414l-207 612z" />
<glyph unicode="&#xc1;" horiz-adv-x="1308" d="M0 0l510 1452h289l510 -1452h-277l-94 279h-578l-94 -279h-266zM385 1698l377 282l115 -186l-410 -229zM442 516h414l-207 612z" />
<glyph unicode="&#xc2;" horiz-adv-x="1308" d="M0 0l510 1452h289l510 -1452h-277l-94 279h-578l-94 -279h-266zM313 1706l250 238h157l246 -238l-121 -119l-202 197l-207 -203zM442 516h414l-207 612z" />
<glyph unicode="&#xc3;" horiz-adv-x="1308" d="M0 0l510 1452h289l510 -1452h-277l-94 279h-578l-94 -279h-266zM285 1720q47 45 103 80t126 35q39 0 71.5 -13.5t61.5 -28.5t54.5 -27.5t54.5 -12.5q33 0 67.5 22.5t57.5 45.5l102 -125q-47 -45 -104.5 -80t-124.5 -35q-41 0 -74 12.5t-62.5 26.5t-55 26.5t-50.5 12.5 q-37 0 -69.5 -18.5t-57.5 -45.5zM442 516h414l-207 612z" />
<glyph unicode="&#xc4;" horiz-adv-x="1308" d="M0 0l510 1452h289l510 -1452h-277l-94 279h-578l-94 -279h-266zM319 1620v248h240v-248h-240zM442 516h414l-207 612zM741 1620v248h240v-248h-240z" />
<glyph unicode="&#xc5;" horiz-adv-x="1308" d="M0 0l481 1370q-41 35 -65.5 86t-24.5 111q0 55 20.5 102t56.5 82t83 55.5t102 20.5t102.5 -20.5t83 -55.5t56 -82t20.5 -102q0 -59 -23.5 -110.5t-64.5 -86.5l482 -1370h-277l-94 279h-578l-94 -279h-266zM442 516h414l-207 612zM543 1567q0 -47 31.5 -81t78.5 -34t81 34 t34 81t-34 79.5t-81 32.5t-78.5 -32.5t-31.5 -79.5z" />
<glyph unicode="&#xc6;" horiz-adv-x="1959" d="M0 0l662 1452h1216v-246h-682v-327h584v-246h-584v-387h682v-246h-946v367h-486l-157 -367h-289zM557 610h375v596h-113z" />
<glyph unicode="&#xc7;" horiz-adv-x="1286" d="M82 725q0 88 6 170t24.5 155.5t54.5 139t95 125.5q84 84 189.5 124t222.5 40t225.5 -42t190.5 -126q63 -66 96 -148t43 -168h-271q-4 47 -20 83t-45 71q-35 45 -93.5 67.5t-125.5 22.5q-63 0 -121.5 -24.5t-101.5 -71.5q-37 -39 -57.5 -90.5t-30 -107.5t-11.5 -113.5 t-2 -106.5t2 -106.5t11.5 -113.5t30 -107.5t57.5 -90.5q43 -47 101 -71.5t122 -24.5q68 0 126 23.5t93 68.5q57 70 65 160h271q-10 -86 -43 -169t-96 -149q-82 -84 -190.5 -128t-225.5 -44t-222.5 39t-189.5 123q-59 59 -95 125t-54.5 139.5t-24.5 154.5t-6 171zM446 -393 l170 307h199l-156 -408z" />
<glyph unicode="&#xc8;" horiz-adv-x="1286" d="M170 0v1452h1034v-240h-770v-338h678v-237h-678v-397h770v-240h-1034zM420 1796l115 186l376 -282l-82 -133z" />
<glyph unicode="&#xc9;" horiz-adv-x="1286" d="M170 0v1452h1034v-240h-770v-338h678v-237h-678v-397h770v-240h-1034zM432 1698l377 282l115 -186l-410 -229z" />
<glyph unicode="&#xca;" horiz-adv-x="1286" d="M170 0v1452h1034v-240h-770v-338h678v-237h-678v-397h770v-240h-1034zM354 1706l250 238h157l246 -238l-121 -119l-202 197l-207 -203z" />
<glyph unicode="&#xcb;" horiz-adv-x="1286" d="M170 0v1452h1034v-240h-770v-338h678v-237h-678v-397h770v-240h-1034zM381 1620v248h240v-248h-240zM803 1620v248h239v-248h-239z" />
<glyph unicode="&#xcc;" horiz-adv-x="608" d="M51 1796l115 186l377 -282l-82 -133zM170 0v1452h268v-1452h-268z" />
<glyph unicode="&#xcd;" horiz-adv-x="608" d="M59 1700l377 282l115 -186l-410 -229zM170 0v1452h268v-1452h-268z" />
<glyph unicode="&#xce;" horiz-adv-x="608" d="M-14 1706l250 238h157l246 -238l-121 -119l-202 197l-207 -203zM170 0v1452h268v-1452h-268z" />
<glyph unicode="&#xcf;" horiz-adv-x="608" d="M-25 1620v248h240v-248h-240zM170 0v1452h268v-1452h-268zM397 1620v248h240v-248h-240z" />
<glyph unicode="&#xd0;" horiz-adv-x="1400" d="M41 668v172h129v612h565q125 0 230.5 -40t177.5 -116q55 -57 89 -124.5t52.5 -141.5t23.5 -150.5t5 -152.5t-5 -152.5t-23.5 -150.5t-52.5 -142.5t-89 -125.5q-72 -76 -177.5 -116t-230.5 -40h-565v668h-129zM434 238h301q63 0 115.5 22.5t89.5 58.5q39 39 59.5 88.5 t30.5 103.5t12 110.5t2 105.5t-2 104.5t-12 109.5t-30.5 103.5t-59.5 88.5q-37 37 -89 59t-116 22h-301v-374h268v-172h-268v-430z" />
<glyph unicode="&#xd1;" horiz-adv-x="1501" d="M170 0v1452h281l620 -983v983h260v-1452h-272l-629 997v-997h-260zM383 1769q47 47 105.5 85t129.5 38q41 0 75 -13t62.5 -29.5t55.5 -30t55 -13.5q35 0 71 23.5t58 46.5l105 -131q-47 -47 -106.5 -85t-129.5 -38q-41 0 -75.5 13.5t-63.5 28.5t-55.5 28.5t-53.5 13.5 q-37 0 -71.5 -20.5t-57.5 -47.5z" />
<glyph unicode="&#xd2;" horiz-adv-x="1376" d="M86 725q0 88 6 170t26.5 155.5t56.5 139t95 125.5q84 84 192.5 124t225.5 40t225.5 -40t192.5 -124q59 -59 95 -125t56.5 -139.5t26.5 -155.5t6 -170q0 -90 -6 -170t-26.5 -153.5t-56.5 -139t-95 -125.5q-84 -84 -192.5 -124t-225.5 -40t-225.5 40t-192.5 124 q-59 59 -95 125t-56.5 139.5t-26.5 153.5t-6 170zM354 725q0 -49 2 -106.5t12.5 -112.5t32 -106.5t58.5 -90.5q43 -47 104.5 -71.5t124.5 -24.5t124.5 24.5t105.5 71.5q37 39 58 90.5t31.5 106.5t12.5 112.5t2 106.5t-2 106.5t-12.5 113.5t-32 107.5t-57.5 90.5 q-43 47 -104.5 71.5t-125.5 24.5q-63 0 -124.5 -24.5t-104.5 -71.5q-37 -39 -58.5 -90.5t-32 -107.5t-12.5 -113.5t-2 -106.5zM432 1796l115 186l377 -282l-82 -133z" />
<glyph unicode="&#xd3;" horiz-adv-x="1376" d="M86 725q0 88 6 170t26.5 155.5t56.5 139t95 125.5q84 84 192.5 124t225.5 40t225.5 -40t192.5 -124q59 -59 95 -125t56.5 -139.5t26.5 -155.5t6 -170q0 -90 -6 -170t-26.5 -153.5t-56.5 -139t-95 -125.5q-84 -84 -192.5 -124t-225.5 -40t-225.5 40t-192.5 124 q-59 59 -95 125t-56.5 139.5t-26.5 153.5t-6 170zM354 725q0 -49 2 -106.5t12.5 -112.5t32 -106.5t58.5 -90.5q43 -47 104.5 -71.5t124.5 -24.5t124.5 24.5t105.5 71.5q37 39 58 90.5t31.5 106.5t12.5 112.5t2 106.5t-2 106.5t-12.5 113.5t-32 107.5t-57.5 90.5 q-43 47 -104.5 71.5t-125.5 24.5q-63 0 -124.5 -24.5t-104.5 -71.5q-37 -39 -58.5 -90.5t-32 -107.5t-12.5 -113.5t-2 -106.5zM420 1698l377 282l114 -186l-409 -229z" />
<glyph unicode="&#xd4;" horiz-adv-x="1376" d="M86 725q0 88 6 170t26.5 155.5t56.5 139t95 125.5q84 84 192.5 124t225.5 40t225.5 -40t192.5 -124q59 -59 95 -125t56.5 -139.5t26.5 -155.5t6 -170q0 -90 -6 -170t-26.5 -153.5t-56.5 -139t-95 -125.5q-84 -84 -192.5 -124t-225.5 -40t-225.5 40t-192.5 124 q-59 59 -95 125t-56.5 139.5t-26.5 153.5t-6 170zM354 725q0 -49 2 -106.5t12.5 -112.5t32 -106.5t58.5 -90.5q43 -47 104.5 -71.5t124.5 -24.5t124.5 24.5t105.5 71.5q37 39 58 90.5t31.5 106.5t12.5 112.5t2 106.5t-2 106.5t-12.5 113.5t-32 107.5t-57.5 90.5 q-43 47 -104.5 71.5t-125.5 24.5q-63 0 -124.5 -24.5t-104.5 -71.5q-37 -39 -58.5 -90.5t-32 -107.5t-12.5 -113.5t-2 -106.5zM371 1706l250 238h157l246 -238l-121 -119l-202 197l-207 -203z" />
<glyph unicode="&#xd5;" horiz-adv-x="1376" d="M86 725q0 88 6 170t26.5 155.5t56.5 139t95 125.5q84 84 192.5 124t225.5 40t225.5 -40t192.5 -124q59 -59 95 -125t56.5 -139.5t26.5 -155.5t6 -170q0 -90 -6 -170t-26.5 -153.5t-56.5 -139t-95 -125.5q-84 -84 -192.5 -124t-225.5 -40t-225.5 40t-192.5 124 q-59 59 -95 125t-56.5 139.5t-26.5 153.5t-6 170zM340 1733q47 45 103.5 79.5t125.5 34.5q39 0 72 -12t61.5 -27.5t54 -28t54.5 -12.5q33 0 68.5 21.5t58.5 44.5l100 -125q-45 -45 -103 -80t-126 -35q-41 0 -74 12.5t-62.5 27t-55 26.5t-50.5 12q-35 0 -68.5 -19.5 t-56.5 -43.5zM354 725q0 -49 2 -106.5t12.5 -112.5t32 -106.5t58.5 -90.5q43 -47 104.5 -71.5t124.5 -24.5t124.5 24.5t105.5 71.5q37 39 58 90.5t31.5 106.5t12.5 112.5t2 106.5t-2 106.5t-12.5 113.5t-32 107.5t-57.5 90.5q-43 47 -104.5 71.5t-125.5 24.5 q-63 0 -124.5 -24.5t-104.5 -71.5q-37 -39 -58.5 -90.5t-32 -107.5t-12.5 -113.5t-2 -106.5z" />
<glyph unicode="&#xd6;" horiz-adv-x="1376" d="M86 725q0 88 6 170t26.5 155.5t56.5 139t95 125.5q84 84 192.5 124t225.5 40t225.5 -40t192.5 -124q59 -59 95 -125t56.5 -139.5t26.5 -155.5t6 -170q0 -90 -6 -170t-26.5 -153.5t-56.5 -139t-95 -125.5q-84 -84 -192.5 -124t-225.5 -40t-225.5 40t-192.5 124 q-59 59 -95 125t-56.5 139.5t-26.5 153.5t-6 170zM354 725q0 -49 2 -106.5t12.5 -112.5t32 -106.5t58.5 -90.5q43 -47 104.5 -71.5t124.5 -24.5t124.5 24.5t105.5 71.5q37 39 58 90.5t31.5 106.5t12.5 112.5t2 106.5t-2 106.5t-12.5 113.5t-32 107.5t-57.5 90.5 q-43 47 -104.5 71.5t-125.5 24.5q-63 0 -124.5 -24.5t-104.5 -71.5q-37 -39 -58.5 -90.5t-32 -107.5t-12.5 -113.5t-2 -106.5zM358 1624v248h240v-248h-240zM780 1624v248h240v-248h-240z" />
<glyph unicode="&#xd7;" horiz-adv-x="1406" d="M129 182l426 426l-426 426l147 148l426 -424l426 424l150 -148l-426 -426l426 -426l-150 -147l-426 426l-426 -426z" />
<glyph unicode="&#xd8;" horiz-adv-x="1376" d="M86 725q0 88 6 170t26.5 155.5t56.5 139t95 125.5q84 84 192.5 124t225.5 40q127 0 236 -45l67 143l137 -61l-71 -156l49 -45q59 -59 95 -125t56.5 -139.5t26.5 -155.5t6 -170q0 -90 -6 -170t-26.5 -153.5t-56.5 -139t-95 -125.5q-84 -84 -192.5 -124t-225.5 -40 q-137 0 -254 52l-82 -172l-137 61l88 192l-33 31q-59 59 -95 125t-56.5 139.5t-26.5 153.5t-6 170zM354 725q0 -86 10.5 -186.5t57.5 -180.5l397 852q-63 29 -131 29q-63 0 -124.5 -24.5t-104.5 -71.5q-37 -39 -58.5 -90.5t-32 -107.5t-12.5 -113.5t-2 -106.5zM539 250 q70 -37 149 -37q63 0 124.5 24.5t105.5 71.5q37 39 58 90.5t31.5 106.5t12.5 112.5t2 106.5q0 45 -2 96t-9 103.5t-23.5 100.5t-45.5 89z" />
<glyph unicode="&#xd9;" horiz-adv-x="1396" d="M129 557v895h264v-891q0 -156 74 -252t231 -96q158 0 232 96.5t74 251.5v891h264v-895q0 -129 -36 -236.5t-107.5 -184.5t-178 -120t-248.5 -43q-141 0 -247.5 43t-178 120t-107.5 184.5t-36 236.5zM426 1796l115 186l377 -282l-82 -133z" />
<glyph unicode="&#xda;" horiz-adv-x="1396" d="M129 557v895h264v-891q0 -156 74 -252t231 -96q158 0 232 96.5t74 251.5v891h264v-895q0 -129 -36 -236.5t-107.5 -184.5t-178 -120t-248.5 -43q-141 0 -247.5 43t-178 120t-107.5 184.5t-36 236.5zM473 1700l377 282l115 -186l-410 -229z" />
<glyph unicode="&#xdb;" horiz-adv-x="1396" d="M129 557v895h264v-891q0 -156 74 -252t231 -96q158 0 232 96.5t74 251.5v891h264v-895q0 -129 -36 -236.5t-107.5 -184.5t-178 -120t-248.5 -43q-141 0 -247.5 43t-178 120t-107.5 184.5t-36 236.5zM377 1706l250 238h157l246 -238l-121 -119l-202 197l-207 -203z" />
<glyph unicode="&#xdc;" horiz-adv-x="1396" d="M129 557v895h264v-891q0 -156 74 -252t231 -96q158 0 232 96.5t74 251.5v891h264v-895q0 -129 -36 -236.5t-107.5 -184.5t-178 -120t-248.5 -43q-141 0 -247.5 43t-178 120t-107.5 184.5t-36 236.5zM367 1622v248h239v-248h-239zM788 1622v248h240v-248h-240z" />
<glyph unicode="&#xdd;" horiz-adv-x="1277" d="M0 1452h287l358 -627l359 627h274l-508 -895v-557h-266v557zM395 1698l377 282l115 -186l-410 -229z" />
<glyph unicode="&#xde;" horiz-adv-x="1216" d="M170 0v1452h262v-244h256q250 0 376 -127t126 -336q0 -221 -126 -348t-376 -127h-256v-270h-262zM432 500h246q135 0 190.5 63t55.5 180q0 104 -56.5 169t-189.5 65h-246v-477z" />
<glyph unicode="&#xdf;" horiz-adv-x="1247" d="M31 854v211h174q2 102 36.5 183t95 136.5t142.5 85t180 29.5q92 0 172 -26.5t138.5 -76.5t92.5 -121t34 -157q0 -47 -13.5 -92t-38 -85t-61.5 -69.5t-82 -44.5q72 -16 127 -53t92 -89t56.5 -117.5t19.5 -135.5q0 -98 -31.5 -181t-89 -143.5t-139.5 -94t-182 -33.5 q-47 0 -97.5 5t-95.5 15v223q33 -6 69 -9t68 -3q115 0 177.5 68.5t62.5 179.5q0 135 -78 193.5t-201 58.5h-43v213h43q84 0 131.5 46t47.5 126q0 84 -49.5 133t-133.5 49q-57 0 -96 -18.5t-62.5 -51t-33.5 -78t-10 -98.5v-1032h-252v854h-170z" />
<glyph unicode="&#xe0;" horiz-adv-x="1150" d="M72 307q0 76 27.5 135.5t76.5 102.5t114.5 66.5t141.5 29.5l313 23v65q0 76 -35.5 122t-144.5 46q-90 0 -140 -39t-54 -113h-248q6 90 42 156t95 108t137 62.5t168 20.5q137 0 245 -48.5t155 -169.5q20 -51 25 -106t5 -109v-395q0 -37 13.5 -52t46.5 -15q16 0 22 2 q6 0 10 2v-189q-33 -14 -56 -21t-70 -7q-84 0 -129.5 45t-51.5 104q-37 -66 -123 -113t-200 -47q-96 0 -168 28t-120 74t-72.5 106.5t-24.5 125.5zM322 313q0 -61 46 -97t105 -36q121 0 196.5 62.5t75.5 181.5v49l-270 -20q-59 -4 -106 -39t-47 -101zM322 1389l114 186 l377 -283l-82 -133z" />
<glyph unicode="&#xe1;" horiz-adv-x="1150" d="M72 307q0 76 27.5 135.5t76.5 102.5t114.5 66.5t141.5 29.5l313 23v65q0 76 -35.5 122t-144.5 46q-90 0 -140 -39t-54 -113h-248q6 90 42 156t95 108t137 62.5t168 20.5q137 0 245 -48.5t155 -169.5q20 -51 25 -106t5 -109v-395q0 -37 13.5 -52t46.5 -15q16 0 22 2 q6 0 10 2v-189q-33 -14 -56 -21t-70 -7q-84 0 -129.5 45t-51.5 104q-37 -66 -123 -113t-200 -47q-96 0 -168 28t-120 74t-72.5 106.5t-24.5 125.5zM291 1292l377 283l114 -186l-409 -230zM322 313q0 -61 46 -97t105 -36q121 0 196.5 62.5t75.5 181.5v49l-270 -20 q-59 -4 -106 -39t-47 -101z" />
<glyph unicode="&#xe2;" horiz-adv-x="1150" d="M72 307q0 76 27.5 135.5t76.5 102.5t114.5 66.5t141.5 29.5l313 23v65q0 76 -35.5 122t-144.5 46q-90 0 -140 -39t-54 -113h-248q6 90 42 156t95 108t137 62.5t168 20.5q137 0 245 -48.5t155 -169.5q20 -51 25 -106t5 -109v-395q0 -37 13.5 -52t46.5 -15q16 0 22 2 q6 0 10 2v-189q-33 -14 -56 -21t-70 -7q-84 0 -129.5 45t-51.5 104q-37 -66 -123 -113t-200 -47q-96 0 -168 28t-120 74t-72.5 106.5t-24.5 125.5zM250 1296l250 238h158l245 -238l-120 -118l-203 196l-207 -203zM322 313q0 -61 46 -97t105 -36q121 0 196.5 62.5t75.5 181.5 v49l-270 -20q-59 -4 -106 -39t-47 -101z" />
<glyph unicode="&#xe3;" horiz-adv-x="1150" d="M72 307q0 76 27.5 135.5t76.5 102.5t114.5 66.5t141.5 29.5l313 23v65q0 76 -35.5 122t-144.5 46q-90 0 -140 -39t-54 -113h-248q6 90 42 156t95 108t137 62.5t168 20.5q137 0 245 -48.5t155 -169.5q20 -51 25 -106t5 -109v-395q0 -37 13.5 -52t46.5 -15q16 0 22 2 q6 0 10 2v-189q-33 -14 -56 -21t-70 -7q-84 0 -129.5 45t-51.5 104q-37 -66 -123 -113t-200 -47q-96 0 -168 28t-120 74t-72.5 106.5t-24.5 125.5zM205 1401q47 47 104.5 84t126.5 37q39 0 72 -13.5t61.5 -29t54 -28.5t54.5 -13q35 0 69.5 22.5t57.5 44.5l102 -129 q-47 -47 -104.5 -84t-126.5 -37q-41 0 -74 12.5t-62.5 28t-55 28.5t-50.5 13q-37 0 -70.5 -19.5t-56.5 -45.5zM322 313q0 -61 46 -97t105 -36q121 0 196.5 62.5t75.5 181.5v49l-270 -20q-59 -4 -106 -39t-47 -101z" />
<glyph unicode="&#xe4;" horiz-adv-x="1150" d="M72 307q0 76 27.5 135.5t76.5 102.5t114.5 66.5t141.5 29.5l313 23v65q0 76 -35.5 122t-144.5 46q-90 0 -140 -39t-54 -113h-248q6 90 42 156t95 108t137 62.5t168 20.5q137 0 245 -48.5t155 -169.5q20 -51 25 -106t5 -109v-395q0 -37 13.5 -52t46.5 -15q16 0 22 2 q6 0 10 2v-189q-33 -14 -56 -21t-70 -7q-84 0 -129.5 45t-51.5 104q-37 -66 -123 -113t-200 -47q-96 0 -168 28t-120 74t-72.5 106.5t-24.5 125.5zM244 1231v248h239v-248h-239zM322 313q0 -61 46 -97t105 -36q121 0 196.5 62.5t75.5 181.5v49l-270 -20q-59 -4 -106 -39 t-47 -101zM666 1231v248h239v-248h-239z" />
<glyph unicode="&#xe5;" horiz-adv-x="1150" d="M72 307q0 76 27.5 135.5t76.5 102.5t114.5 66.5t141.5 29.5l313 23v65q0 76 -35.5 122t-144.5 46q-90 0 -140 -39t-54 -113h-248q6 90 42 156t95 108t137 62.5t168 20.5q137 0 245 -48.5t155 -169.5q20 -51 25 -106t5 -109v-395q0 -37 13.5 -52t46.5 -15q16 0 22 2 q6 0 10 2v-189q-33 -14 -56 -21t-70 -7q-84 0 -129.5 45t-51.5 104q-37 -66 -123 -113t-200 -47q-96 0 -168 28t-120 74t-72.5 106.5t-24.5 125.5zM311 1454q0 51 19.5 97t53.5 79t79 52.5t98 19.5q51 0 97.5 -19.5t80 -52.5t53 -79t19.5 -97q0 -53 -19.5 -98t-53 -79 t-80 -53.5t-97.5 -19.5q-53 0 -98 19.5t-79 53.5t-53.5 79t-19.5 98zM322 313q0 -61 46 -97t105 -36q121 0 196.5 62.5t75.5 181.5v49l-270 -20q-59 -4 -106 -39t-47 -101zM455 1454q0 -45 30.5 -76.5t75.5 -31.5t77 31.5t32 76.5t-32 76t-77 31t-75.5 -31t-30.5 -76z" />
<glyph unicode="&#xe6;" horiz-adv-x="1761" d="M72 305q0 80 28.5 138.5t77.5 98.5t114.5 62.5t139.5 28.5q35 4 84 4h203v92q0 86 -40 124t-126 38t-134 -36t-54 -110h-248q6 90 41 156t93 108t135 62.5t167 20.5q207 0 324 -125q51 57 130.5 91t196.5 34q119 0 218.5 -47.5t166.5 -147.5q59 -86 75.5 -188.5 t16.5 -202.5v-57h-704q2 -55 15.5 -105.5t41 -88.5t70.5 -60.5t104 -22.5q156 0 207 143h248q-6 -49 -31.5 -101t-56.5 -89q-66 -80 -161 -116t-197 -36q-145 0 -248 59.5t-144 147.5q-23 -41 -54.5 -77.5t-76.5 -65.5t-105.5 -46.5t-135.5 -17.5q-72 0 -139.5 20.5 t-122 61.5t-87 103.5t-32.5 146.5zM322 313q0 -63 45 -96t104 -33q63 0 109.5 20.5t77 56.5t46 84t15.5 104h-125q-61 0 -123 -5q-63 -4 -106 -34.5t-43 -96.5zM975 637h448q0 53 -13 99t-38.5 80t-67.5 53.5t-102 19.5q-115 0 -170 -74t-57 -178z" />
<glyph unicode="&#xe7;" horiz-adv-x="1087" d="M86 535q0 117 28.5 215t88.5 174q55 68 151.5 118t218.5 50q123 0 216.5 -49.5t148.5 -118.5q37 -47 57.5 -107.5t24.5 -124.5h-252q-2 29 -10 53.5t-21 45.5q-23 35 -63.5 57t-100.5 22q-53 0 -91 -18t-64 -47q-47 -51 -59.5 -123t-12.5 -147q0 -76 12.5 -147t59.5 -122 q27 -29 64.5 -48t90.5 -19q59 0 100.5 22.5t63.5 57.5q12 20 20.5 44.5t10.5 53.5h252q-4 -63 -24.5 -123.5t-57.5 -108.5q-55 -70 -148.5 -119t-216.5 -49t-219 50.5t-151 117.5q-59 76 -88 174.5t-29 215.5zM348 -397l170 307h199l-156 -408z" />
<glyph unicode="&#xe8;" horiz-adv-x="1140" d="M86 530q0 129 38 239t116 187q59 61 144 98.5t196 37.5q119 0 221 -48.5t168 -148.5q59 -88 75.5 -177.5t16.5 -193.5q-2 -14 -2 -26v-45h-713q-2 -61 18.5 -116.5t59.5 -92.5q29 -27 66.5 -46.5t91.5 -19.5q55 0 91 11.5t64 39.5q37 37 51 90h246q-4 -47 -31.5 -103 t-58.5 -93q-68 -80 -162 -115t-196 -35q-111 0 -192 36t-144 95q-80 78 -122 186.5t-42 239.5zM336 1391l115 186l376 -283l-82 -133zM344 639h461q-2 117 -66 186q-27 29 -66.5 45.5t-94.5 16.5q-59 0 -104.5 -22.5t-74.5 -59.5q-29 -35 -41 -74t-14 -92z" />
<glyph unicode="&#xe9;" horiz-adv-x="1140" d="M86 530q0 129 38 239t116 187q59 61 144 98.5t196 37.5q119 0 221 -48.5t168 -148.5q59 -88 75.5 -177.5t16.5 -193.5q-2 -14 -2 -26v-45h-713q-2 -61 18.5 -116.5t59.5 -92.5q29 -27 66.5 -46.5t91.5 -19.5q55 0 91 11.5t64 39.5q37 37 51 90h246q-4 -47 -31.5 -103 t-58.5 -93q-68 -80 -162 -115t-196 -35q-111 0 -192 36t-144 95q-80 78 -122 186.5t-42 239.5zM344 639h461q-2 117 -66 186q-27 29 -66.5 45.5t-94.5 16.5q-59 0 -104.5 -22.5t-74.5 -59.5q-29 -35 -41 -74t-14 -92zM346 1292l377 283l115 -186l-410 -230z" />
<glyph unicode="&#xea;" horiz-adv-x="1140" d="M86 530q0 129 38 239t116 187q59 61 144 98.5t196 37.5q119 0 221 -48.5t168 -148.5q59 -88 75.5 -175t16.5 -196q-2 -14 -2 -26v-45h-713q-2 -61 18.5 -116.5t59.5 -92.5q29 -27 66.5 -46.5t91.5 -19.5q55 0 91 11.5t64 39.5q37 37 51 90h246q-4 -47 -31.5 -103 t-58.5 -93q-68 -80 -162 -115t-196 -35q-111 0 -192 36t-144 95q-80 78 -122 186.5t-42 239.5zM239 1296l250 238h158l245 -238l-120 -118l-203 196l-207 -203zM344 639h461q-2 117 -66 186q-27 29 -66.5 45.5t-94.5 16.5q-59 0 -104.5 -22.5t-74.5 -59.5q-29 -35 -41 -74 t-14 -92z" />
<glyph unicode="&#xeb;" horiz-adv-x="1140" d="M86 530q0 129 38 239t116 187q59 61 144 98.5t196 37.5q119 0 221 -48.5t168 -148.5q59 -88 75.5 -177.5t16.5 -193.5q-2 -14 -2 -26v-45h-713q-2 -61 18.5 -116.5t59.5 -92.5q29 -27 66.5 -46.5t91.5 -19.5q55 0 91 11.5t64 39.5q37 37 51 90h246q-4 -47 -31.5 -103 t-58.5 -93q-68 -80 -162 -115t-196 -35q-111 0 -192 36t-144 95q-80 78 -122 186.5t-42 239.5zM266 1231v248h240v-248h-240zM344 639h461q-2 117 -66 186q-27 29 -66.5 45.5t-94.5 16.5q-59 0 -104.5 -22.5t-74.5 -59.5q-29 -35 -41 -74t-14 -92zM688 1231v248h240v-248 h-240z" />
<glyph unicode="&#xec;" horiz-adv-x="585" d="M66 1372l102 172l336 -260l-74 -123zM164 0v1065h260v-1065h-260z" />
<glyph unicode="&#xed;" horiz-adv-x="585" d="M49 1286l336 260l102 -172l-364 -211zM164 0v1065h260v-1065h-260z" />
<glyph unicode="&#xee;" horiz-adv-x="585" d="M-31 1296l250 238h158l246 -238l-121 -118l-203 196l-207 -203zM164 0v1065h260v-1065h-260z" />
<glyph unicode="&#xef;" horiz-adv-x="585" d="M-2 1245v219h213v-219h-213zM164 0v1065h260v-1065h-260zM375 1245v219h213v-219h-213z" />
<glyph unicode="&#xf0;" horiz-adv-x="1150" d="M86 530q0 117 29.5 218.5t89.5 177.5q55 68 151.5 117t218.5 49h13l-62 102h-225v137h145l-84 148h256l87 -148h196v-137h-115l187 -305q47 -78 69.5 -169.5t22.5 -189.5q0 -117 -28.5 -215t-88.5 -174q-55 -68 -152.5 -118t-220.5 -50t-220 50.5t-152 117.5 q-59 76 -88 174.5t-29 214.5zM346 530q0 -76 11.5 -147.5t58.5 -122.5q27 -29 66.5 -48t92.5 -19t93.5 19t66.5 48q47 51 58.5 122.5t11.5 147.5t-11.5 149t-58.5 124q-27 29 -66.5 48t-93.5 19q-53 0 -93 -19.5t-66 -47.5q-47 -51 -58.5 -124t-11.5 -149z" />
<glyph unicode="&#xf1;" horiz-adv-x="1210" d="M160 0v1065h215l18 -137q47 84 134 124t180 40q86 0 152.5 -29t112.5 -79t70.5 -120.5t24.5 -152.5v-711h-256v653q0 94 -37 147.5t-139 53.5q-68 0 -113 -38t-71 -97q-29 -63 -32 -140t-3 -145v-434h-256zM272 1401q47 47 104.5 84t127.5 37q41 0 73.5 -13.5t60.5 -29 t54.5 -28.5t55.5 -13q33 0 67.5 22.5t56.5 44.5l103 -129q-47 -47 -104.5 -84t-125.5 -37q-41 0 -74.5 12.5t-62 28t-55.5 28.5t-51 13q-35 0 -69 -19.5t-58 -45.5z" />
<glyph unicode="&#xf2;" d="M86 532q0 135 33 226.5t92 167.5q55 68 152.5 117t220.5 49t220 -49.5t152 -116.5q59 -76 92 -167.5t33 -226.5t-32.5 -226t-92.5 -167q-55 -68 -152 -117t-220 -49t-220.5 49.5t-152.5 116.5q-59 76 -92 167t-33 226zM342 1391l115 186l377 -283l-82 -133zM346 532 q0 -76 14.5 -146.5t61.5 -121.5q27 -29 67.5 -48t94.5 -19q53 0 94 19.5t67 47.5q47 51 61.5 121.5t14.5 146.5t-14 147t-62 122q-27 29 -67.5 48t-93.5 19t-94 -19.5t-68 -47.5q-47 -51 -61.5 -122t-14.5 -147z" />
<glyph unicode="&#xf3;" d="M86 532q0 135 33 226.5t92 167.5q55 68 152.5 117t220.5 49t220 -49.5t152 -116.5q59 -76 92 -167.5t33 -226.5t-32.5 -226t-92.5 -167q-55 -68 -152 -117t-220 -49t-220.5 49.5t-152.5 116.5q-59 76 -92 167t-33 226zM346 532q0 -76 14.5 -146.5t61.5 -121.5 q27 -29 67.5 -48t94.5 -19q53 0 94 19.5t67 47.5q47 51 61.5 121.5t14.5 146.5t-14 147t-62 122q-27 29 -67.5 48t-93.5 19t-94 -19.5t-68 -47.5q-47 -51 -61.5 -122t-14.5 -147zM348 1292l377 283l115 -186l-410 -230z" />
<glyph unicode="&#xf4;" d="M86 532q0 135 33 226.5t92 167.5q55 68 152.5 117t220.5 49t220 -49.5t152 -116.5q59 -76 92 -167.5t33 -226.5t-32.5 -226t-92.5 -167q-55 -68 -152 -117t-220 -49t-220.5 49.5t-152.5 116.5q-59 76 -92 167t-33 226zM248 1296l250 238h158l245 -238l-120 -118l-203 196 l-207 -203zM346 532q0 -76 14.5 -146.5t61.5 -121.5q27 -29 67.5 -48t94.5 -19q53 0 94 19.5t67 47.5q47 51 61.5 121.5t14.5 146.5t-14 147t-62 122q-27 29 -67.5 48t-93.5 19t-94 -19.5t-68 -47.5q-47 -51 -61.5 -122t-14.5 -147z" />
<glyph unicode="&#xf5;" d="M86 532q0 135 33 226.5t92 167.5q55 68 152.5 117t220.5 49t220 -49.5t152 -116.5q59 -76 92 -167.5t33 -226.5t-32.5 -226t-92.5 -167q-55 -68 -152 -117t-220 -49t-220.5 49.5t-152.5 116.5q-59 76 -92 167t-33 226zM207 1413q47 47 104.5 84t126.5 37q41 0 74 -13.5 t60.5 -28.5t54 -28.5t55.5 -13.5q33 0 67.5 22.5t57.5 45.5l102 -129q-45 -47 -103 -83t-126 -36q-41 0 -75 12t-62.5 27.5t-55 29t-51.5 13.5q-35 0 -68.5 -20.5t-58.5 -47.5zM346 532q0 -76 14.5 -146.5t61.5 -121.5q27 -29 67.5 -48t94.5 -19q53 0 94 19.5t67 47.5 q47 51 61.5 121.5t14.5 146.5t-14 147t-62 122q-27 29 -67.5 48t-93.5 19t-94 -19.5t-68 -47.5q-47 -51 -61.5 -122t-14.5 -147z" />
<glyph unicode="&#xf6;" d="M86 532q0 135 33 226.5t92 167.5q55 68 152.5 117t220.5 49t220 -49.5t152 -116.5q59 -76 92 -167.5t33 -226.5t-32.5 -226t-92.5 -167q-55 -68 -152 -117t-220 -49t-220.5 49.5t-152.5 116.5q-59 76 -92 167t-33 226zM262 1231v248h240v-248h-240zM346 532 q0 -76 14.5 -146.5t61.5 -121.5q27 -29 67.5 -48t94.5 -19q53 0 94 19.5t67 47.5q47 51 61.5 121.5t14.5 146.5t-14 147t-62 122q-27 29 -67.5 48t-93.5 19t-94 -19.5t-68 -47.5q-47 -51 -61.5 -122t-14.5 -147zM684 1231v248h240v-248h-240z" />
<glyph unicode="&#xf7;" horiz-adv-x="1327" d="M123 498v233h1081v-233h-1081zM526 61v285h281v-285h-281zM526 893v285h281v-285h-281z" />
<glyph unicode="&#xf8;" d="M86 532q0 135 33 226.5t92 167.5q55 68 152.5 117t220.5 49q78 0 151 -23l60 127l129 -57l-60 -131q57 -39 92 -82q59 -76 92 -167.5t33 -226.5t-32.5 -226t-92.5 -167q-55 -68 -152 -117t-220 -49q-98 0 -178 31l-72 -158l-129 58l76 168q-20 16 -38 32.5t-32 34.5 q-59 76 -92 167t-33 226zM346 532q0 -59 8 -117.5t35 -105.5l252 553q-29 6 -57 6q-53 0 -94 -19.5t-68 -47.5q-47 -51 -61.5 -122t-14.5 -147zM502 211q35 -14 82 -14q53 0 94 19.5t67 47.5q47 51 61.5 121.5t14.5 146.5q0 70 -12 135.5t-47 114.5z" />
<glyph unicode="&#xf9;" horiz-adv-x="1208" d="M143 354v711h256v-653q0 -94 41 -148.5t144 -54.5q45 0 76.5 15.5t54.5 37.5q47 43 62.5 108.5t15.5 131.5v563h256v-1065h-213l-19 139q-39 -78 -121 -122t-184 -44q-86 0 -153.5 28t-115.5 78t-74 119.5t-26 155.5zM330 1389l114 186l377 -283l-82 -133z" />
<glyph unicode="&#xfa;" horiz-adv-x="1208" d="M143 354v711h256v-653q0 -94 41 -148.5t144 -54.5q45 0 76.5 15.5t54.5 37.5q47 43 62.5 108.5t15.5 131.5v563h256v-1065h-213l-19 139q-39 -78 -121 -122t-184 -44q-86 0 -153.5 28t-115.5 78t-74 119.5t-26 155.5zM373 1292l377 283l114 -186l-409 -230z" />
<glyph unicode="&#xfb;" horiz-adv-x="1208" d="M143 354v711h256v-653q0 -94 41 -148.5t144 -54.5q45 0 76.5 15.5t54.5 37.5q47 43 62.5 108.5t15.5 131.5v563h256v-1065h-213l-19 139q-39 -78 -121 -122t-184 -44q-86 0 -153.5 28t-115.5 78t-74 119.5t-26 155.5zM262 1296l250 238h158l245 -238l-120 -118l-203 196 l-207 -203z" />
<glyph unicode="&#xfc;" horiz-adv-x="1208" d="M143 354v711h256v-653q0 -94 41 -148.5t144 -54.5q45 0 76.5 15.5t54.5 37.5q47 43 62.5 108.5t15.5 131.5v563h256v-1065h-213l-19 139q-39 -78 -121 -122t-184 -44q-86 0 -153.5 28t-115.5 78t-74 119.5t-26 155.5zM274 1231v248h240v-248h-240zM696 1231v248h240v-248 h-240z" />
<glyph unicode="&#xfd;" horiz-adv-x="1085" d="M0 1065h281l278 -770l266 770h260l-469 -1247q-20 -53 -47.5 -101.5t-66.5 -85.5t-91.5 -58.5t-121.5 -21.5q-63 0 -109.5 8.5t-87.5 18.5v213q25 -4 42.5 -8t32.5 -6t30.5 -3t38.5 -1q35 0 68.5 16t53.5 64l62 149zM354 1286l377 283l115 -187l-410 -229z" />
<glyph unicode="&#xfe;" horiz-adv-x="1212" d="M160 -408v1887h254v-510q41 63 120.5 93t159.5 30q92 0 161 -32t120 -85q78 -82 114.5 -199t36.5 -244t-36.5 -242.5t-114.5 -197.5q-51 -53 -120 -85t-161 -32q-80 0 -159.5 30t-120.5 93v-506h-254zM401 532q0 -59 9.5 -120.5t35 -111.5t71.5 -82t120 -32q57 0 95 20.5 t65 53.5q41 53 56 125.5t15 146.5t-15 148t-56 127q-27 33 -65 53.5t-95 20.5q-74 0 -120 -32t-71.5 -82t-35 -112.5t-9.5 -122.5z" />
<glyph unicode="&#xff;" horiz-adv-x="1085" d="M0 1065h281l278 -770l266 770h260l-469 -1247q-20 -53 -47.5 -101.5t-66.5 -85.5t-91.5 -58.5t-121.5 -21.5q-63 0 -109.5 8.5t-87.5 18.5v213q25 -4 42.5 -8t32.5 -6t30.5 -3t38.5 -1q35 0 68.5 16t53.5 64l62 149zM227 1231v248h240v-248h-240zM649 1231v248h240v-248 h-240z" />
<glyph unicode="&#x131;" horiz-adv-x="585" d="M164 0v1065h260v-1065h-260z" />
<glyph unicode="&#x141;" horiz-adv-x="1159" d="M6 635l197 123v694h264v-528l223 141l90 -143l-313 -195v-477h674v-250h-938v561l-109 -67z" />
<glyph unicode="&#x142;" horiz-adv-x="796" d="M102 729l181 115v637h258v-473l133 84l90 -142l-223 -141v-492q0 -47 18.5 -74.5t83.5 -27.5q16 0 24.5 1t18.5 1v-215q-39 -8 -56.5 -11t-56.5 -3q-131 0 -210.5 67.5t-79.5 218.5v371l-93 -57z" />
<glyph unicode="&#x152;" horiz-adv-x="2109" d="M86 727q0 78 4 158t21.5 155.5t50.5 145t90 129.5q76 78 183.5 121t236.5 43q92 0 181 -30t140 -71v74h1035v-240h-771v-338h678v-237h-678v-397h771v-240h-1035v74q-57 -43 -143 -72t-178 -29q-129 0 -236.5 43t-183.5 121q-57 59 -90 129t-50.5 146.5t-21.5 156.5 t-4 158zM354 614q0 -57 9.5 -114.5t30 -110.5t61.5 -92q39 -39 94 -61.5t123 -22.5t123 22.5t94 61.5q41 39 61.5 92t29.5 110.5t9 114.5v224q0 59 -9 115.5t-29.5 108.5t-61.5 93q-39 39 -94.5 61.5t-122.5 22.5q-68 0 -123 -22.5t-94 -61.5q-41 -41 -61.5 -93t-30 -108.5 t-9.5 -115.5v-224z" />
<glyph unicode="&#x153;" horiz-adv-x="1851" d="M86 530q0 117 29.5 218.5t89.5 177.5q55 68 151.5 117t218.5 49q119 0 213.5 -45.5t149.5 -110.5l18 18q59 61 143.5 99.5t194.5 38.5q119 0 220.5 -49.5t166.5 -149.5q59 -88 75 -176.5t16 -192.5q-2 -14 -3 -26v-45h-704q-2 -61 18.5 -121t59.5 -96q29 -27 62.5 -45.5 t86.5 -18.5q55 0 92 13.5t66 41.5q37 37 51 92h246q-4 -47 -31.5 -103t-58.5 -93q-68 -80 -161 -115t-196 -35q-111 0 -190.5 36t-142.5 95q-6 6 -13.5 12.5t-13.5 14.5q-55 -66 -150.5 -112t-214.5 -46q-123 0 -220 50.5t-152 117.5q-59 76 -88 174.5t-29 214.5zM346 530 q0 -76 11.5 -147.5t58.5 -122.5q27 -29 66.5 -48t92.5 -19t93.5 19t66.5 48q47 51 58.5 122.5t11.5 147.5t-11.5 149t-58.5 124q-27 29 -66.5 48t-93.5 19q-53 0 -93 -19.5t-66 -47.5q-47 -51 -58.5 -124t-11.5 -149zM1063 639h453q-4 123 -64 188q-27 29 -65.5 45.5 t-94.5 16.5q-59 0 -103 -22.5t-73 -59.5q-29 -35 -40 -75t-13 -93z" />
<glyph unicode="&#x160;" horiz-adv-x="1294" d="M61 461h271q0 -53 21.5 -99.5t54.5 -78.5q47 -47 113.5 -62.5t129.5 -15.5q76 0 143.5 17.5t108.5 60.5q25 27 41.5 56.5t16.5 82.5q0 80 -52.5 120t-120.5 52q-74 14 -161.5 20.5t-159.5 18.5q-76 12 -142.5 43t-116.5 81t-80 120.5t-30 160.5q0 86 35 158t92 129 q72 72 184.5 113t241.5 41q117 0 224.5 -36t181.5 -106q66 -61 105.5 -139t41.5 -170h-270q-2 39 -19.5 77t-44.5 66q-35 37 -98 57.5t-123 20.5q-61 0 -125.5 -16t-109.5 -64q-23 -25 -36 -53.5t-13 -68.5q0 -72 40.5 -110t106.5 -48q70 -10 157 -18.5t158 -18.5 q82 -12 155 -44t127 -84t86 -126t32 -166q0 -102 -34 -176t-87 -127q-84 -84 -204 -120t-255 -36q-117 0 -230.5 34t-203.5 116q-66 59 -109 146t-43 192zM315 1788l109 129l219 -178l215 176l110 -127l-245 -207h-158z" />
<glyph unicode="&#x161;" horiz-adv-x="1067" d="M74 344h239q0 -35 16.5 -69.5t41.5 -55.5q31 -25 68.5 -36t92.5 -11q33 0 71 5t71 19.5t54.5 41t21.5 69.5q0 47 -29 76t-78 37q-72 10 -147.5 17t-147.5 24q-55 12 -99 38.5t-77 64.5t-50.5 84t-17.5 97q0 82 31 140.5t78 99.5q59 51 141 79t183 28q96 0 185 -31 t148 -94q43 -47 69 -103.5t26 -115.5h-244q0 31 -12.5 55t-30.5 45q-23 23 -60.5 36t-78.5 13q-29 0 -55.5 -2t-55.5 -14q-35 -14 -58.5 -43t-23.5 -70q0 -57 40 -78.5t83 -27.5q37 -4 61 -9l50 -6q25 -2 51 -6l65 -10q127 -20 209 -97t82 -204q0 -78 -25.5 -135.5 t-66.5 -98.5q-66 -66 -160 -94.5t-205 -28.5q-102 0 -190 30t-154 93q-47 45 -79.5 108.5t-32.5 139.5zM217 1409l123 125l207 -203l202 197l121 -119l-246 -238h-157z" />
<glyph unicode="&#x178;" horiz-adv-x="1277" d="M0 1452h287l358 -627l359 627h274l-508 -895v-557h-266v557zM315 1595v248h240v-248h-240zM737 1595v248h240v-248h-240z" />
<glyph unicode="&#x17d;" horiz-adv-x="1259" d="M59 0v260l801 952h-788v240h1114v-260l-795 -952h805v-240h-1137zM305 1788l109 129l219 -178l215 176l110 -127l-245 -207h-158z" />
<glyph unicode="&#x17e;" horiz-adv-x="1038" d="M90 0v225l563 629h-559v211h860v-231l-557 -623h561v-211h-868zM209 1409l123 125l207 -203l202 197l121 -119l-246 -238h-157z" />
<glyph unicode="&#x192;" d="M72 -8q55 -12 112 -12q86 0 121 38.5t51 116.5l113 559h-193v230h240l49 243q29 141 125 229.5t244 88.5q41 0 80 -5t80 -12v-223q-23 4 -44.5 8t-43.5 4q-86 0 -129 -31.5t-64 -115.5q-10 -47 -18.5 -93t-16.5 -93h266v-230h-317l-127 -635q-29 -143 -119 -226t-239 -83 q-88 0 -170 25v217z" />
<glyph unicode="&#x2c6;" horiz-adv-x="747" d="M49 1296l250 238h158l245 -238l-120 -118l-203 196l-207 -203z" />
<glyph unicode="&#x2c7;" horiz-adv-x="733" d="M37 1409l123 125l207 -203l202 197l121 -119l-246 -238h-157z" />
<glyph unicode="&#x2c9;" horiz-adv-x="624" d="M-10 1251v205h655v-205h-655z" />
<glyph unicode="&#x2d8;" horiz-adv-x="716" d="M18 1530h193q10 -92 46 -132t105 -40q70 0 107 40t47 132h193q-6 -80 -30 -145.5t-67 -112.5t-105.5 -74t-144.5 -27t-143 27t-104 74t-66.5 112.5t-30.5 145.5z" />
<glyph unicode="&#x2d9;" horiz-adv-x="542" d="M156 1231v248h239v-248h-239z" />
<glyph unicode="&#x2da;" horiz-adv-x="507" d="M8 1454q0 51 19.5 97t53.5 79t79 52.5t98 19.5q51 0 97 -19.5t80 -52.5t53.5 -79t19.5 -97q0 -53 -19.5 -98t-53.5 -79t-80 -53.5t-97 -19.5q-53 0 -98 19.5t-79 53.5t-53.5 79t-19.5 98zM152 1454q0 -45 30.5 -76.5t75.5 -31.5t77 31.5t32 76.5t-32 76t-77 31t-75.5 -31 t-30.5 -76z" />
<glyph unicode="&#x2db;" horiz-adv-x="405" d="M68 -186q0 63 26.5 107t60 71.5t63.5 41t36 15.5l2 2q25 8 39 25.5t24 62.5q35 -39 45.5 -59.5t13.5 -32.5t9 -21.5t33 -25.5q-29 -10 -57.5 -27.5t-50 -38t-35 -44t-13.5 -44.5q0 -31 18.5 -50t53.5 -19h20q27 0 47 4q8 2 17 2v-168q-16 -4 -35 -8q-31 -6 -72 -6h-16 q-49 0 -91 17t-73 46t-48 68t-17 82z" />
<glyph unicode="&#x2dc;" horiz-adv-x="782" d="M39 1401q47 47 105.5 85t129.5 38q41 0 75 -13.5t62.5 -30t55.5 -29.5t55 -13q35 0 71 23.5t58 45.5l105 -131q-47 -47 -106.5 -85t-129.5 -38q-41 0 -75.5 13.5t-63.5 29t-55.5 28.5t-53.5 13q-37 0 -71.5 -20.5t-57.5 -46.5z" />
<glyph unicode="&#x2dd;" horiz-adv-x="1044" d="M92 1292l379 295l121 -188l-414 -240zM532 1292l379 295l121 -188l-414 -240z" />
<glyph unicode="&#x394;" horiz-adv-x="1308" d="M0 0l510 1452h289l510 -1452h-1309zM348 238h604l-303 890z" />
<glyph unicode="&#x3a9;" horiz-adv-x="1204" d="M100 252v508q0 84 53.5 138t137.5 54q61 0 112 -34v145q0 84 53.5 138t137.5 54t137 -54t53 -138v-127h129q84 0 137.5 -54.5t53.5 -136.5q0 -84 -53.5 -138t-137.5 -54h-147q35 -47 35 -111q0 -84 -53.5 -137t-137.5 -53h-510zM438 588h475q70 0 113 43.5t43 113.5 t-43 113t-113 43h-161v162q0 70 -44 114t-114 44t-113 -44t-43 -114v-475z" />
<glyph unicode="&#x3bc;" horiz-adv-x="1224" d="M160 -414v1479h254v-657q0 -94 42 -148.5t144 -54.5q45 0 77 15.5t54 37.5q47 43 62.5 108.5t15.5 131.5v567h256v-1065h-213l-21 143q-39 -78 -119.5 -124t-183.5 -46q-31 0 -59.5 4.5t-54.5 18.5v-410h-254z" />
<glyph unicode="&#x3c0;" horiz-adv-x="1302" d="M102 827v207h1065v-207h-153v-508q0 -53 21.5 -77.5t74.5 -24.5q16 0 43 2t37 2v-219l-68 -10q-31 -6 -69 -6q-147 0 -220 75.5t-73 221.5v544h-248v-831h-254v831h-156z" />
<glyph unicode="&#x2000;" horiz-adv-x="991" />
<glyph unicode="&#x2001;" horiz-adv-x="1982" />
<glyph unicode="&#x2002;" horiz-adv-x="991" />
<glyph unicode="&#x2003;" horiz-adv-x="1982" />
<glyph unicode="&#x2004;" horiz-adv-x="660" />
<glyph unicode="&#x2005;" horiz-adv-x="495" />
<glyph unicode="&#x2006;" horiz-adv-x="330" />
<glyph unicode="&#x2007;" />
<glyph unicode="&#x2008;" horiz-adv-x="600" />
<glyph unicode="&#x2009;" horiz-adv-x="396" />
<glyph unicode="&#x200a;" horiz-adv-x="110" />
<glyph unicode="&#x200b;" horiz-adv-x="0" />
<glyph unicode="&#x2010;" horiz-adv-x="948" d="M123 516v229h702v-229h-702z" />
<glyph unicode="&#x2011;" horiz-adv-x="948" d="M123 516v229h702v-229h-702z" />
<glyph unicode="&#x2012;" horiz-adv-x="948" d="M123 516v229h702v-229h-702z" />
<glyph unicode="&#x2013;" horiz-adv-x="1349" d="M123 516v229h1104v-229h-1104z" />
<glyph unicode="&#x2014;" horiz-adv-x="2353" d="M123 516v227h2107v-227h-2107z" />
<glyph unicode="&#x2018;" horiz-adv-x="546" d="M125 848v276q0 125 44 211t171 140l66 -119q-80 -39 -106 -85t-26 -124h146v-299h-295z" />
<glyph unicode="&#x2019;" horiz-adv-x="505" d="M104 1151v301h297v-278q0 -125 -44 -211t-171 -140l-67 119q80 39 106.5 85t26.5 124h-148z" />
<glyph unicode="&#x201a;" horiz-adv-x="587" d="M143 0v307h301v-284q0 -63 -10 -116.5t-34.5 -99t-66.5 -80t-108 -61.5l-67 121q82 39 108.5 87t26.5 126h-150z" />
<glyph unicode="&#x201c;" horiz-adv-x="989" d="M131 846v276q0 125 43 211t170 140l66 -119q-80 -39 -107 -85t-27 -124h148v-299h-293zM563 846v276q0 125 45 211t172 140l66 -119q-80 -39 -106.5 -85t-26.5 -124h145v-299h-295z" />
<glyph unicode="&#x201d;" horiz-adv-x="948" d="M111 1153v299h295v-276q0 -125 -45.5 -211t-172.5 -140l-65 119q80 39 106.5 85t26.5 124h-145zM545 1153v299h293v-276q0 -125 -43 -211t-170 -140l-66 119q80 39 106.5 85t26.5 124h-147z" />
<glyph unicode="&#x201e;" horiz-adv-x="1032" d="M143 0v307h301v-284q0 -63 -10 -116.5t-34.5 -99t-66.5 -80t-108 -61.5l-67 121q82 39 108.5 87t26.5 126h-150zM588 0v307h301v-284q0 -63 -10.5 -116.5t-35 -99t-66.5 -80t-107 -61.5l-68 121q82 39 108.5 87t26.5 126h-149z" />
<glyph unicode="&#x2020;" horiz-adv-x="1150" d="M82 850v215h377v387h233v-387h377v-215h-377v-1106h-233v1106h-377z" />
<glyph unicode="&#x2021;" horiz-adv-x="1150" d="M82 131v215h377v504h-377v215h377v387h233v-387h377v-215h-377v-504h377v-215h-377v-387h-233v387h-377z" />
<glyph unicode="&#x2022;" horiz-adv-x="884" d="M154 598q0 59 22.5 112.5t61 92.5t92 61.5t112.5 22.5t112.5 -22.5t92.5 -61.5t61.5 -92.5t22.5 -112.5t-22.5 -112.5t-61.5 -92.5t-92 -61.5t-113 -22.5q-59 0 -112.5 22.5t-92 61.5t-61 92.5t-22.5 112.5z" />
<glyph unicode="&#x2026;" horiz-adv-x="2045" d="M188 0v299h297v-299h-297zM874 0v299h297v-299h-297zM1561 0v299h297v-299h-297z" />
<glyph unicode="&#x202f;" horiz-adv-x="396" />
<glyph unicode="&#x2030;" horiz-adv-x="2385" d="M92 1100q0 63 12.5 122.5t47.5 110.5q47 66 113.5 103t160.5 37q96 0 162.5 -37t111.5 -103q35 -51 48.5 -110.5t13.5 -122.5t-13.5 -122.5t-48.5 -111.5q-45 -66 -111.5 -103.5t-162.5 -37.5q-94 0 -160.5 38t-113.5 103q-35 51 -47.5 110.5t-12.5 123.5zM248 74 l1034 1407l156 -109l-1039 -1413zM285 1100q0 -41 5 -78t20.5 -65.5t43 -46t72.5 -17.5t73.5 17.5t44 46t20.5 65.5t5 78q0 39 -5 75.5t-20.5 66.5t-44 47.5t-73.5 17.5t-72.5 -17.5t-43 -47.5t-20.5 -66.5t-5 -75.5zM932 352q0 63 12 123t47 111q47 66 113.5 102.5 t161.5 36.5q96 0 162.5 -37t111.5 -102q35 -51 48.5 -111t13.5 -123q0 -66 -13.5 -124t-48.5 -109q-45 -66 -111.5 -104t-162.5 -38q-94 0 -161 38t-114 104q-35 51 -47 109.5t-12 123.5zM1124 352q0 -41 5.5 -77.5t20.5 -65.5t43 -46.5t73 -17.5t73.5 17.5t44 46.5 t20.5 65.5t5 77.5q0 39 -5 76t-20.5 65.5t-44 46t-73.5 17.5t-73 -17.5t-43 -46t-20.5 -65.5t-5.5 -76zM1679 352q0 63 12.5 123t47.5 111q47 66 113.5 102.5t160.5 36.5q96 0 163 -37t112 -102q35 -51 48 -111t13 -123q0 -66 -13.5 -124t-47.5 -109q-45 -66 -112 -104 t-163 -38q-94 0 -160.5 38t-113.5 104q-35 51 -47.5 109.5t-12.5 123.5zM1872 352q0 -41 5 -77.5t20.5 -65.5t43 -46.5t72.5 -17.5t74 17.5t44 46.5t20.5 65.5t5.5 77.5q0 39 -5.5 76t-20.5 65.5t-44 46t-74 17.5t-72.5 -17.5t-43 -46t-20.5 -65.5t-5 -76z" />
<glyph unicode="&#x2039;" horiz-adv-x="688" d="M82 610l354 506l150 -106l-234 -398l234 -397l-150 -104z" />
<glyph unicode="&#x203a;" horiz-adv-x="688" d="M102 215l234 397l-234 398l150 106l354 -506l-354 -499z" />
<glyph unicode="&#x2044;" horiz-adv-x="1202" d="M6 74l1034 1407l156 -109l-1038 -1413z" />
<glyph unicode="&#x205f;" horiz-adv-x="495" />
<glyph unicode="&#x20ac;" d="M0 487v150h143q-2 18 -2 37v39q0 16 1 34.5t1 34.5h-143v150h158q16 96 57 185t119 167q82 82 189.5 125t236.5 43q133 0 228 -36t181 -101l-96 -207q-78 59 -149.5 86t-163.5 27q-74 0 -137.5 -25t-114.5 -78q-37 -41 -58.5 -87t-31.5 -99h575l-71 -150h-521v-145h480 l-72 -150h-391q23 -106 90 -180q51 -53 114.5 -77.5t137.5 -24.5q92 0 175 33.5t138 78.5l96 -206q-86 -66 -181 -102t-228 -36q-129 0 -236.5 43t-189.5 125q-78 78 -118 165t-56 181h-160z" />
<glyph unicode="&#x2117;" horiz-adv-x="1716" d="M102 725q0 164 57.5 302t158 238.5t238.5 157t302 56.5q162 0 301 -56.5t239.5 -158t158 -239.5t57.5 -300q0 -166 -56.5 -303t-157 -237.5t-239.5 -156t-303 -55.5q-166 0 -304 55.5t-238.5 156t-157 237.5t-56.5 303zM295 725q0 -125 41 -230.5t114.5 -182t177 -119.5 t230.5 -43q125 0 229.5 44t179 120.5t115.5 182t41 228.5q0 125 -41 230.5t-115.5 182t-179 121t-229.5 44.5q-127 0 -230.5 -44.5t-177 -121t-114.5 -182t-41 -230.5zM590 332v790h309q66 0 122 -19.5t98 -56t65.5 -89.5t23.5 -121q0 -147 -84 -219t-225 -72h-104v-213 h-205zM793 725h106q111 0 111 111q0 53 -30 79.5t-81 26.5h-106v-217z" />
<glyph unicode="&#x2122;" horiz-adv-x="1755" d="M20 1278v174h648v-174h-226v-606h-196v606h-226zM774 672v780h277l157 -494l156 494h268v-780h-194v524l-160 -504h-150l-159 502v-522h-195z" />
<glyph unicode="&#x2126;" horiz-adv-x="1204" d="M100 252v508q0 84 53.5 138t137.5 54q61 0 112 -34v145q0 84 53.5 138t137.5 54t137 -54t53 -138v-127h129q84 0 137.5 -54.5t53.5 -136.5q0 -84 -53.5 -138t-137.5 -54h-147q35 -47 35 -111q0 -84 -53.5 -137t-137.5 -53h-510zM438 588h475q70 0 113 43.5t43 113.5 t-43 113t-113 43h-161v162q0 70 -44 114t-114 44t-113 -44t-43 -114v-475z" />
<glyph unicode="&#x2190;" horiz-adv-x="1632" d="M51 664l658 661l143 -141l-418 -420h1106v-201h-1106l418 -418l-143 -143z" />
<glyph unicode="&#x2191;" horiz-adv-x="1632" d="M154 821l661 658l662 -658l-142 -143l-420 418v-1096h-200v1096l-418 -418z" />
<glyph unicode="&#x2192;" horiz-adv-x="1632" d="M92 561v201h1106l-418 420l144 141l657 -661l-657 -662l-144 143l418 418h-1106z" />
<glyph unicode="&#x2193;" horiz-adv-x="1632" d="M154 631l141 143l420 -418v1096h200v-1096l418 418l144 -143l-662 -658z" />
<glyph unicode="&#x2196;" horiz-adv-x="1290" d="M82 524v928h936v-197h-592l782 -780l-141 -143l-782 782v-590h-203z" />
<glyph unicode="&#x2197;" horiz-adv-x="1290" d="M82 475l782 780h-592v197h936v-928h-202v590l-783 -782z" />
<glyph unicode="&#x2198;" horiz-adv-x="1290" d="M82 977l141 143l783 -782v590h202v-928h-936v197h592z" />
<glyph unicode="&#x2199;" horiz-adv-x="1290" d="M82 0v928h203v-590l782 782l141 -143l-782 -780h592v-197h-936z" />
<glyph unicode="&#x2202;" horiz-adv-x="1150" d="M86 530q0 117 29.5 218.5t89.5 177.5q55 68 151.5 117t218.5 49h13l-226 387h256l355 -590q47 -78 69.5 -169.5t22.5 -189.5q0 -117 -28.5 -215t-88.5 -174q-55 -68 -152.5 -118t-220.5 -50t-220 50.5t-152 117.5q-59 76 -88 174.5t-29 214.5zM346 530q0 -76 11.5 -147.5 t58.5 -122.5q27 -29 66.5 -48t92.5 -19t93.5 19t66.5 48q47 51 58.5 122.5t11.5 147.5t-11.5 149t-58.5 124q-27 29 -66.5 48t-93.5 19q-53 0 -93 -19.5t-66 -47.5q-47 -51 -58.5 -124t-11.5 -149z" />
<glyph unicode="&#x2206;" horiz-adv-x="1308" d="M0 0l510 1452h289l510 -1452h-1309zM348 238h604l-303 890z" />
<glyph unicode="&#x220f;" horiz-adv-x="1464" d="M170 0v1452h1124v-1452h-264v1200h-596v-1200h-264z" />
<glyph unicode="&#x2211;" horiz-adv-x="1204" d="M100 252v508q0 84 53.5 138t137.5 54q61 0 112 -34v145q0 84 53.5 138t137.5 54t137 -54t53 -138v-127h129q84 0 137.5 -54.5t53.5 -136.5q0 -84 -53.5 -138t-137.5 -54h-147q35 -47 35 -111q0 -84 -53.5 -137t-137.5 -53h-510zM438 588h475q70 0 113 43.5t43 113.5 t-43 113t-113 43h-161v162q0 70 -44 114t-114 44t-113 -44t-43 -114v-475z" />
<glyph unicode="&#x2212;" horiz-adv-x="1349" d="M123 516v229h1104v-229h-1104z" />
<glyph unicode="&#x2215;" horiz-adv-x="1202" d="M6 74l1034 1407l156 -109l-1038 -1413z" />
<glyph unicode="&#x2219;" horiz-adv-x="645" d="M147 440v320h312v-320h-312z" />
<glyph unicode="&#x221a;" horiz-adv-x="1427" d="M92 1065h273l223 -657l432 1296h428v-213h-231l-521 -1507h-217z" />
<glyph unicode="&#x221e;" horiz-adv-x="1204" d="M100 252v508q0 84 53.5 138t137.5 54q61 0 112 -34v145q0 84 53.5 138t137.5 54t137 -54t53 -138v-127h129q84 0 137.5 -54.5t53.5 -136.5q0 -84 -53.5 -138t-137.5 -54h-147q35 -47 35 -111q0 -84 -53.5 -137t-137.5 -53h-510zM438 588h475q70 0 113 43.5t43 113.5 t-43 113t-113 43h-161v162q0 70 -44 114t-114 44t-113 -44t-43 -114v-475z" />
<glyph unicode="&#x222b;" horiz-adv-x="739" d="M102 -197q70 0 105 36t35 93v1235q0 147 95 241.5t267 94.5h33v-211q-70 0 -104.5 -35.5t-34.5 -93.5v-1235q0 -147 -95.5 -241.5t-267.5 -94.5h-33v211z" />
<glyph unicode="&#x2248;" horiz-adv-x="1310" d="M123 303q37 39 73.5 74t77.5 62.5t87.5 44t101.5 16.5q57 0 109.5 -17.5t99.5 -40.5q25 -10 47 -21t45 -20q23 -8 43 -13t41 -5q59 0 104 36t86 77l150 -174q-37 -39 -74 -74t-78 -62.5t-87 -44t-101 -16.5q-59 0 -112.5 18.5t-100.5 40.5l-92 43q-43 18 -82 19 q-59 0 -106.5 -37t-86.5 -78zM123 752q37 39 73.5 74.5t77.5 63.5t87.5 44t101.5 16q57 0 109.5 -18.5t99.5 -40.5q25 -10 47 -20.5t45 -18.5t43 -13t41 -5q59 0 104 35.5t86 76.5l150 -174q-37 -39 -74 -74.5t-78 -63.5t-87 -44.5t-101 -16.5q-59 0 -112.5 19.5 t-100.5 42.5l-92 41q-47 20 -82 20q-59 0 -106.5 -37.5t-86.5 -78.5z" />
<glyph unicode="&#x2260;" horiz-adv-x="1413" d="M184 264v203h318l157 205h-475v200h631l199 258l116 -92l-126 -166h225v-200h-381l-158 -205h539v-203h-694l-207 -268l-119 90l137 178h-162z" />
<glyph unicode="&#x2264;" horiz-adv-x="1204" d="M100 252v508q0 84 53.5 138t137.5 54q61 0 112 -34v145q0 84 53.5 138t137.5 54t137 -54t53 -138v-127h129q84 0 137.5 -54.5t53.5 -136.5q0 -84 -53.5 -138t-137.5 -54h-147q35 -47 35 -111q0 -84 -53.5 -137t-137.5 -53h-510zM438 588h475q70 0 113 43.5t43 113.5 t-43 113t-113 43h-161v162q0 70 -44 114t-114 44t-113 -44t-43 -114v-475z" />
<glyph unicode="&#x2265;" horiz-adv-x="1204" d="M100 252v508q0 84 53.5 138t137.5 54q61 0 112 -34v145q0 84 53.5 138t137.5 54t137 -54t53 -138v-127h129q84 0 137.5 -54.5t53.5 -136.5q0 -84 -53.5 -138t-137.5 -54h-147q35 -47 35 -111q0 -84 -53.5 -137t-137.5 -53h-510zM438 588h475q70 0 113 43.5t43 113.5 t-43 113t-113 43h-161v162q0 70 -44 114t-114 44t-113 -44t-43 -114v-475z" />
<glyph unicode="&#x2423;" horiz-adv-x="1951" d="M119 -203v508h172v-332h1372v332h170v-508h-1714z" />
<glyph unicode="&#x25ca;" horiz-adv-x="974" d="M102 729l238 723h291l241 -731l-237 -721h-291zM367 750l129 -406l112 356l-129 408z" />
<glyph unicode="&#x25fc;" horiz-adv-x="1064" d="M0 0v1065h1065v-1065h-1065z" />
<glyph unicode="&#xfb01;" horiz-adv-x="1349" />
<glyph unicode="&#xfb02;" horiz-adv-x="1378" />
<glyph unicode="&#xfeff;" horiz-adv-x="0" />
<glyph horiz-adv-x="522" d="M10 1796l115 186l377 -282l-82 -133z" />
<glyph horiz-adv-x="428" d="M-92 1565v204h614v-204h-614z" />
<glyph horiz-adv-x="428" d="M-31 1698l377 282l115 -186l-410 -229z" />
<glyph horiz-adv-x="747" d="M37 1706l250 238h157l246 -238l-121 -119l-202 197l-207 -203z" />
<glyph horiz-adv-x="428" d="M-125 1788l109 129l219 -178l215 176l110 -127l-245 -207h-158z" />
<glyph horiz-adv-x="428" d="M-131 1923h192q10 -92 46 -132t106 -40t106.5 40t47.5 132h192q-6 -80 -29.5 -145.5t-66.5 -112.5t-105.5 -73.5t-144.5 -26.5t-143.5 26.5t-104.5 73.5t-66.5 112.5t-29.5 145.5z" />
<glyph horiz-adv-x="428" d="M96 1620v248h240v-248h-240z" />
<glyph horiz-adv-x="428" d="M-35 1673q0 51 19.5 97.5t53.5 79t79 52t98 19.5q51 0 97 -19.5t80 -52t53.5 -79t19.5 -97.5q0 -53 -19.5 -98t-53.5 -79t-80 -53.5t-97 -19.5q-53 0 -98 19.5t-79 53.5t-53.5 79t-19.5 98zM109 1673q0 -45 30.5 -76.5t75.5 -31.5t77 31.5t32 76.5t-32 76t-77 31 t-75.5 -31t-30.5 -76z" />
<glyph horiz-adv-x="428" d="M-215 1688l379 294l121 -188l-414 -240zM225 1688l379 294l121 -188l-414 -240z" />
<glyph d="M82 713q0 88 6 174t23.5 166t51.5 149.5t89 122.5t135 89t197 36t196.5 -36t134.5 -89t89 -122.5t51.5 -149.5t23.5 -166t6 -174t-6 -174t-23.5 -166t-51 -149.5t-89.5 -123.5q-55 -53 -135 -90t-196 -37q-117 0 -197 37t-135 90t-89 123t-51.5 150t-23.5 166t-6 174z M335 647q-1 -35 1 -74l452 525q-27 55 -74.5 92t-129.5 37q-68 0 -113 -25.5t-71.5 -67.5t-41 -95.5t-18.5 -111t-4 -114.5v-100q0 -31 -1 -66zM377 332q27 -59 74 -96t133 -37q100 0 152 54t72.5 134t21.5 169t1 157q0 35 1.5 72.5t-1.5 78.5z" />
<glyph horiz-adv-x="428" d="M106 -272q0 47 18.5 81.5t43.5 59.5t52.5 38t45.5 19l43 -73q-12 -4 -27.5 -10.5t-29.5 -18.5t-24.5 -31.5t-10.5 -48.5h107v-182h-218v166z" />
<glyph horiz-adv-x="1472" d="M170 408q0 49 15.5 101t44 98t66.5 83t85 55q-86 51 -135 133.5t-49 182.5t37.5 174t102 123t147.5 72.5t175 23.5q51 0 102.5 -4t100.5 -16v-222q-47 10 -93 15.5t-93 5.5q-43 0 -84 -10.5t-72 -33t-50 -57t-19 -83.5q0 -100 63.5 -146.5t155.5 -46.5h237v213h240v-213 h211v-217h-211v-422h211v-217h-717q-96 0 -181 24.5t-149.5 75t-102.5 127t-38 181.5zM422 422q0 -104 64.5 -154.5t162.5 -50.5h258v422h-248q-104 0 -170.5 -56.5t-66.5 -160.5z" />
<glyph d="M176 893v278l350 252h219v-1200h285v-223h-825v223h284v897z" />
<glyph horiz-adv-x="428" d="M78 1255v224h215v-205q0 -100 -32 -159.5t-124 -102.5l-49 96q29 14 47.5 28.5t28.5 30t13 37t3 51.5h-102z" />
<glyph horiz-adv-x="428" d="M106 -86h218v-166q0 -47 -18.5 -82t-43 -59.5t-52.5 -37.5t-46 -20l-43 74q12 4 27.5 10.5t30 18.5t24.5 31.5t10 48.5h-107v182z" />
<glyph horiz-adv-x="671" d="M133 725q0 295 93 538t280 455l145 -108q-78 -104 -135 -203.5t-95 -204t-56.5 -220t-18.5 -257.5q0 -141 18.5 -257t56.5 -220t95 -203.5t135 -204.5l-145 -108q-186 213 -279.5 455.5t-93.5 537.5z" />
<glyph horiz-adv-x="671" d="M20 -160q78 104 135.5 204t95.5 204t56.5 220t18.5 257t-18.5 257t-56.5 220.5t-95.5 204t-135.5 203.5l146 108q186 -213 279.5 -455.5t93.5 -537.5t-93.5 -537.5t-279.5 -455.5z" />
<glyph horiz-adv-x="743" d="M213 -225v1900h479v-174h-286v-1552h286v-174h-479z" />
<glyph horiz-adv-x="743" d="M51 -51h287v1552h-287v174h479v-1900h-479v174z" />
<glyph horiz-adv-x="776" d="M92 631v190q57 6 102.5 19.5t76 42.5t47 75t16.5 117v56q0 35 -1 71.5t-1 69.5v57q0 68 19.5 131.5t60.5 110.5t104.5 75.5t151.5 28.5h108v-174h-69q-102 0 -141.5 -49t-39.5 -137v-315q0 -45 -14 -88t-42 -79t-69 -62.5t-96 -39.5v-6q55 -12 96 -39.5t69 -64.5t42 -81 t14 -89v-316q0 -88 39 -137t142 -49h69v-174h-108q-88 0 -151.5 28.5t-104.5 75.5t-60.5 110.5t-19.5 131.5v55q0 35 1 72t1 70v57q0 135 -60.5 190.5t-181.5 65.5z" />
<glyph horiz-adv-x="776" d="M0 -51h70q102 0 141 49t39 137v316q0 45 14.5 89t42 81t68.5 64.5t96 39.5v6q-55 12 -96 39t-68.5 63t-42 79t-14.5 88v315q0 88 -39 137t-141 49h-70v174h109q88 0 151.5 -28.5t104.5 -75.5t60 -110.5t19 -131.5v-57q0 -33 -1 -70t-1 -71v-56q0 -72 15.5 -117.5 t46.5 -74.5t76 -42t104 -20v-190q-121 -10 -181.5 -65.5t-60.5 -190.5v-57q0 -33 1 -70t1 -72v-55q0 -68 -19 -131.5t-60 -110.5t-104.5 -75.5t-151.5 -28.5h-109v174z" />
<glyph horiz-adv-x="688" d="M82 721l354 506l150 -106l-234 -398l234 -397l-150 -104z" />
<glyph horiz-adv-x="688" d="M102 326l234 397l-234 398l150 106l354 -506l-354 -499z" />
<glyph horiz-adv-x="1202" d="M92 721l354 506l150 -106l-234 -398l234 -397l-150 -104zM586 721l354 506l150 -106l-234 -398l234 -397l-150 -104z" />
<glyph horiz-adv-x="1202" d="M113 326l233 397l-233 398l149 106l354 -506l-354 -499zM606 326l234 397l-234 398l150 106l354 -506l-354 -499z" />
<glyph horiz-adv-x="948" d="M123 610v229h702v-229h-702z" />
<glyph horiz-adv-x="1349" d="M123 610v229h1104v-229h-1104z" />
<glyph horiz-adv-x="2353" d="M123 610v227h2107v-227h-2107z" />
<glyph horiz-adv-x="948" d="M123 610v229h702v-229h-702z" />
</font>
</defs>
</svg>
