<svg xmlns="http://www.w3.org/2000/svg" width="26" height="26" viewBox="0 0 26 26" preserveAspectRatio="xMinYMax meet"><path fill="#7F7F7F" d="M22.276.434a5.532 5.532 0 0 1 3.29 3.29C26 5.014 26 5.854 26 8.851v8.298c0 2.996 0 3.837-.434 5.127a5.531 5.531 0 0 1-3.29 3.29c-1.29.434-2.13.434-5.127.434H8.85c-2.996 0-3.837 0-5.127-.434a5.531 5.531 0 0 1-3.29-3.29C0 20.986 0 20.146 0 17.149V8.85c0-2.996 0-3.837.434-5.127a5.532 5.532 0 0 1 3.29-3.29C5.014 0 5.854 0 8.851 0h8.298c2.996 0 3.837 0 5.127.434zM8.66 19.994c3.201 1.384 6.383 1.246 8.697-.103 1.126-.48 3.34-1.202 4.537 1.16.276.557.882-2.392-1.323-5.175a2.02 2.02 0 0 0-.039-.048 7.13 7.13 0 0 0 .094-.342c1.103-4.286-1.544-9.406-6.01-12.133 1.93 2.671 2.812 5.9 2.04 8.738a7.37 7.37 0 0 1-.253.773 5.184 5.184 0 0 0-.354-.216s-4.466-2.783-9.264-7.681c-.11-.111 2.592 3.896 5.625 7.124-1.434-.835-5.46-3.785-7.996-6.122.33.5.662 1.057 1.103 1.503 2.095 2.726 4.908 6.066 8.22 8.63-2.326 1.453-5.631 1.56-8.937-.004-.827-.39-1.599-.835-2.26-1.391 1.378 2.226 3.528 4.174 6.12 5.287z"/></svg>
