<?xml version="1.0" encoding="utf-8"?>
<!-- Generator: Adobe Illustrator 16.0.0, SVG Export Plug-In . SVG Version: 6.00 Build 0)  -->
<!DOCTYPE svg PUBLIC "-//W3C//DTD SVG 1.1//EN" "http://www.w3.org/Graphics/SVG/1.1/DTD/svg11.dtd">
<svg version="1.1" xmlns="http://www.w3.org/2000/svg" xmlns:xlink="http://www.w3.org/1999/xlink" x="0px" y="0px" width="240px"
	 height="120px" viewBox="0 0 240 120" style="enable-background:new 0 0 240 120;" xml:space="preserve">
<style type="text/css">
<![CDATA[
	.st0{clip-path:url(#SVGID_9_);fill:url(#SVGID_10_);}
	.st1{clip-path:url(#SVGID_12_);fill:url(#SVGID_13_);}
	.st2{clip-path:url(#SVGID_15_);fill:url(#SVGID_16_);}
	.st3{fill:#1A1F71;}
	.st4{clip-path:url(#SVGID_6_);fill:url(#SVGID_7_);}
	.st5{fill:#231F20;}
	.st6{fill:#F2F2F2;}
	.st7{fill:url(#SVGID_1_);}
	.st8{fill:#FF9900;}
	.st9{fill:#FFFFFF;}
	.st10{fill:#CC0000;}
	.st11{fill:#CC0001;}
	.st12{fill:#0066CB;}
	.st13{fill:#0079BE;}
	.st14{fill:#077DC1;}
	.st15{fill:#3D3D3D;}
	.st16{clip-path:url(#SVGID_3_);fill:url(#SVGID_4_);}
]]>
</style>
<g id="VISA">
	<g>
		<path class="st6" d="M55,0H5C2.2,0,0,2.3,0,5v30c0,2.8,2.2,5,5,5h50c2.8,0,5-2.2,5-5V5C60,2.3,57.8,0,55,0L55,0z"/>
		<g>
			<polygon class="st3" points="23.3,26.6 27,26.6 29.3,13.2 25.6,13.2 			"/>
			<path class="st3" d="M36.7,18.7c-1.3-0.6-2.1-1-2.1-1.7c0-0.6,0.7-1.2,2.1-1.2c1.2,0,2.1,0.2,2.7,0.5l0.3,0.2l0.5-2.9
				c-0.7-0.3-1.9-0.6-3.3-0.6c-3.6,0-6.2,1.8-6.2,4.4c0,1.9,1.8,3,3.2,3.7c1.4,0.7,1.9,1.1,1.9,1.7c0,0.9-1.1,1.3-2.2,1.3
				c-1.5,0-2.2-0.2-3.4-0.7l-0.5-0.2l-0.5,3c0.9,0.4,2.4,0.7,4.1,0.7c3.9,0,6.4-1.8,6.4-4.6C39.8,20.8,38.8,19.7,36.7,18.7z"/>
			<path class="st3" d="M49.7,13.3h-2.8c-0.9,0-1.5,0.2-1.9,1.1l-5.4,12.3h3.8c0,0,0.6-1.7,0.8-2c0.4,0,4.2,0,4.7,0
				c0.1,0.5,0.4,2,0.4,2h3.4L49.7,13.3z M45.2,22c0.3-0.8,1.5-3.8,1.5-3.8c0,0,0.3-0.8,0.5-1.3l0.2,1.2c0,0,0.7,3.2,0.8,3.9L45.2,22
				z"/>
			<path class="st3" d="M20.2,13.3l-3.6,9.2l-0.4-1.9L15,14.4c-0.2-0.9-0.9-1.1-1.7-1.1H7.4l0,0.3c1.4,0.4,2.7,0.9,3.9,1.5l3.3,11.6
				l3.9,0l5.8-13.4H20.2z"/>
		</g>
	</g>
</g>
<g id="VISA_Electron">
	<g>
		<path class="st6" d="M115,0H65c-2.7,0-5,2.2-5,5v30c0,2.8,2.3,5,5,5h50c2.8,0,5-2.2,5-5V5C120,2.2,117.7,0,115,0L115,0z"/>
		<g>
			<g>
				<polygon class="st3" points="84.8,18.8 87.6,18.8 89.4,8.3 86.6,8.3 				"/>
				<path class="st3" d="M95.2,12.6c-1-0.5-1.6-0.8-1.6-1.3c0-0.4,0.5-0.9,1.6-0.9c0.9,0,1.6,0.2,2.1,0.4l0.3,0.1L98,8.6
					c-0.6-0.2-1.5-0.4-2.6-0.4c-2.8,0-4.8,1.4-4.8,3.5c0,1.5,1.4,2.3,2.5,2.9c1.1,0.5,1.5,0.8,1.5,1.3c0,0.7-0.9,1-1.7,1
					c-1.1,0-1.8-0.2-2.7-0.6l-0.4-0.2l-0.4,2.3c0.7,0.3,1.9,0.5,3.2,0.6c3,0,5-1.4,5-3.6C97.6,14.2,96.8,13.3,95.2,12.6z"/>
				<path class="st3" d="M105.3,8.4h-2.2c-0.7,0-1.2,0.2-1.5,0.9l-4.2,9.6h3c0,0,0.5-1.3,0.6-1.6c0.3,0,3.2,0,3.7,0
					c0.1,0.4,0.3,1.6,0.3,1.6h2.7L105.3,8.4z M101.8,15.1c0.2-0.6,1.1-2.9,1.1-2.9c0,0,0.2-0.6,0.4-1l0.2,0.9c0,0,0.5,2.5,0.7,3
					L101.8,15.1z"/>
				<path class="st3" d="M82.4,8.4l-2.8,7.2l-0.3-1.5l-1-4.8c-0.2-0.7-0.7-0.9-1.3-0.9h-4.6l0,0.2c1.1,0.3,2.1,0.7,3,1.2l2.5,9.1
					l3,0l4.5-10.5H82.4z"/>
			</g>
			<g>
				<path id="path4169" class="st3" d="M74.1,22.4h1.2v9.3h-1.2V22.4z"/>
				<path id="path4173" class="st3" d="M81.5,27.9c0-0.7-0.3-1.9-1.6-1.9c-1.2,0-1.7,1.1-1.8,1.9H81.5z M78.1,28.7
					c0,1.6,1,2.2,2.2,2.2c0.8,0,1.3-0.1,1.8-0.3l0.2,0.8c-0.4,0.2-1.1,0.4-2.1,0.4c-1.9,0-3.1-1.3-3.1-3.2c0-1.9,1.1-3.4,3-3.4
					c2.1,0,2.6,1.8,2.6,3c0,0.2,0,0.4,0,0.5H78.1z"/>
				<path id="path4177" class="st3" d="M88.9,31.5c-0.3,0.1-1,0.4-1.8,0.4c-1.9,0-3.1-1.3-3.1-3.2c0-1.9,1.3-3.4,3.4-3.4
					c0.7,0,1.3,0.2,1.6,0.3l-0.3,0.9c-0.3-0.1-0.7-0.3-1.3-0.3c-1.4,0-2.2,1.1-2.2,2.4c0,1.5,0.9,2.4,2.2,2.4c0.7,0,1.1-0.2,1.4-0.3
					L88.9,31.5z"/>
				<path id="path4181" class="st3" d="M92.1,23.9v1.5h1.6v0.9h-1.6v3.4c0,0.8,0.2,1.2,0.9,1.2c0.3,0,0.5,0,0.7-0.1l0.1,0.9
					c-0.2,0.1-0.6,0.2-1,0.2c-0.5,0-1-0.2-1.2-0.5C91.1,31,91,30.4,91,29.7v-3.4h-1v-0.9h1v-1.2L92.1,23.9z"/>
				<path id="path4185" class="st3" d="M95.3,27.3c0-0.7,0-1.4-0.1-2h1l0.1,1.3h0c0.3-0.8,1-1.4,1.8-1.4c0.1,0,0.2,0,0.3,0v1.1
					c-0.1,0-0.2,0-0.4,0c-0.8,0-1.4,0.6-1.5,1.5c0,0.2,0,0.4,0,0.5v3.4h-1.1V27.3z"/>
				<path id="path4189" class="st3" d="M100.5,28.5c0,1.4,0.8,2.4,1.9,2.4c1.1,0,1.9-1,1.9-2.5c0-1.1-0.5-2.4-1.9-2.4
					C101.1,26.1,100.5,27.4,100.5,28.5 M105.5,28.5c0,2.3-1.6,3.4-3.1,3.4c-1.7,0-3-1.3-3-3.3c0-2.1,1.4-3.3,3.1-3.3
					C104.3,25.2,105.5,26.6,105.5,28.5"/>
				<path id="path4193" class="st3" d="M107.3,27.1c0-0.7,0-1.2-0.1-1.7h1l0.1,1h0c0.3-0.6,1-1.2,2.1-1.2c0.9,0,2.2,0.5,2.2,2.7v3.8
					h-1.1V28c0-1-0.4-1.9-1.5-1.9c-0.7,0-1.3,0.5-1.5,1.2c-0.1,0.1-0.1,0.3-0.1,0.5v3.8h-1.1V27.1z"/>
				<path id="path4167" class="st3" d="M71.9,27.6h-3.4v3.2h3.8v1h-5v-8.8h4.8v1h-3.6v2.8h3.4V27.6z"/>
			</g>
		</g>
	</g>
</g>
<g id="MasterCard">
	<g>
		<path class="st6" d="M175,0h-50c-2.8,0-5,2.2-5,5v30c0,2.8,2.3,5,5,5h50c2.7,0,5-2.2,5-5V5C180,2.2,177.8,0,175,0L175,0z"/>
		<g>
			<path id="path2268" class="st8" d="M172.5,20c0,7.4-6,13.5-13.5,13.5c-7.4,0-13.5-6-13.5-13.5c0,0,0,0,0,0
				c0-7.4,6-13.5,13.5-13.5C166.5,6.5,172.5,12.5,172.5,20C172.5,20,172.5,20,172.5,20z"/>
			<path id="path1350" class="st10" d="M140.9,6.5c-7.4,0-13.4,6.1-13.4,13.5c0,7.4,6,13.5,13.5,13.5c3.5,0,6.7-1.3,9.1-3.5
				c0,0,0,0,0,0h0c0.5-0.4,0.9-0.9,1.4-1.4h-2.8c-0.4-0.4-0.7-0.9-1-1.4h4.8c0.3-0.5,0.6-0.9,0.8-1.4h-6.3c-0.2-0.5-0.4-0.9-0.6-1.4
				h7.5c0.4-1.3,0.7-2.8,0.7-4.3c0-1-0.1-2-0.3-2.9h-8.2c0.1-0.5,0.2-1,0.4-1.4h7.5c-0.2-0.5-0.4-1-0.6-1.4h-6.3
				c0.2-0.5,0.5-1,0.8-1.4h4.8c-0.3-0.5-0.7-1-1-1.4h-2.7c0.4-0.5,0.9-0.9,1.4-1.4C147.6,7.8,144.4,6.5,140.9,6.5
				C140.9,6.5,140.9,6.5,140.9,6.5z"/>
			<g>
				<g id="g13802" transform="translate(-13.74405,15.9939)">
					<path id="path13804" d="M159.2,7.9l0.2-1.2c-0.1,0-0.2,0-0.4,0c-0.5,0-0.6-0.3-0.5-0.5l0.5-2.5h0.8l0.2-1.4h-0.7l0.1-0.8h-1.5
						c0,0-0.8,4.7-0.8,5.3c0,0.8,0.5,1.2,1.1,1.2C158.6,8.1,159,7.9,159.2,7.9z"/>
					<path id="path13806" d="M159.6,5.5c0,2,1.3,2.5,2.5,2.5c1.1,0,1.6-0.2,1.6-0.2l0.3-1.4c0,0-0.9,0.4-1.6,0.4
						c-1.5,0-1.3-1.1-1.3-1.1l3,0c0,0,0.2-0.9,0.2-1.3c0-0.9-0.5-2.1-2.1-2.1C160.7,2.2,159.6,3.8,159.6,5.5z M162.1,3.5
						c0.8,0,0.7,0.9,0.7,1h-1.6C161.2,4.4,161.4,3.5,162.1,3.5z"/>
					<path id="path13808" d="M171.2,7.9l0.3-1.6c0,0-0.7,0.4-1.2,0.4c-1,0-1.4-0.8-1.4-1.6c0-1.7,0.9-2.6,1.9-2.6
						c0.7,0,1.3,0.4,1.3,0.4l0.2-1.5c0,0-0.7-0.5-1.4-0.5c-2.2,0-3.5,1.6-3.5,4.3c0,1.8,1,3,2.7,3C170.5,8.1,171.2,7.9,171.2,7.9z"
						/>
					<path id="path13810" d="M151.3,2.3c-1,0-1.7,0.3-1.7,0.3l-0.2,1.2c0,0,0.6-0.3,1.6-0.3c0.5,0,0.9,0.1,0.9,0.5
						c0,0.3,0,0.4,0,0.4s-0.4,0-0.6,0c-1.4,0-2.5,0.5-2.5,2.1c0,1.3,0.9,1.5,1.4,1.5c1,0,1.4-0.6,1.4-0.6l0,0.5h1.3l0.6-4
						C153.2,2.3,151.8,2.3,151.3,2.3z M151.5,5.5c0,0.2-0.1,1.4-0.9,1.4c-0.4,0-0.6-0.3-0.6-0.5c0-0.4,0.2-0.9,1.3-0.9
						C151.5,5.4,151.5,5.5,151.5,5.5z"/>
					<path id="path13812" d="M154.6,8c0.3,0,2.2,0.1,2.2-1.8c0-1.8-1.7-1.4-1.7-2.1c0-0.4,0.3-0.5,0.8-0.5c0.2,0,1,0.1,1,0.1
						l0.2-1.3c0,0-0.5-0.1-1.3-0.1c-1.1,0-2.1,0.4-2.1,1.9c0,1.6,1.8,1.5,1.8,2.2c0,0.5-0.5,0.5-0.9,0.5c-0.7,0-1.3-0.2-1.3-0.2
						L153,7.8C153,7.9,153.4,8,154.6,8z"/>
					<path id="path13814" d="M183.1,1.1L182.8,3c0,0-0.5-0.7-1.4-0.7c-1.6,0-2.4,1.6-2.4,3.4c0,1.2,0.6,2.3,1.8,2.3
						c0.9,0,1.3-0.6,1.3-0.6l-0.1,0.5h1.4l1.1-6.8L183.1,1.1z M182.5,4.9c0,0.8-0.4,1.8-1.2,1.8c-0.5,0-0.8-0.4-0.8-1.1
						c0-1.1,0.5-1.8,1.1-1.8C182.2,3.7,182.5,4,182.5,4.9z"/>
					<path id="path13816" d="M143.5,8l0.9-5.2l0.1,5.2h1l1.8-5.2L146.5,8h1.5l1.1-6.8l-2.3,0l-1.4,4.2l0-4.2h-2.1L142.1,8H143.5
						L143.5,8z"/>
					<path id="path13818" d="M165.6,8c0.4-2.4,0.6-4.3,1.8-3.9c0.2-0.9,0.6-1.7,0.8-2.1c0,0-0.1-0.1-0.4-0.1c-0.6,0-1.5,1.3-1.5,1.3
						l0.1-0.8H165L164.2,8H165.6L165.6,8z"/>
					<g id="use14699" transform="translate(845.3001,0)">
						<path id="path13810_1_" d="M-671.1,2.3c-1,0-1.7,0.3-1.7,0.3l-0.2,1.2c0,0,0.6-0.3,1.6-0.3c0.5,0,0.9,0.1,0.9,0.5
							c0,0.3,0,0.4,0,0.4s-0.4,0-0.6,0c-1.4,0-2.5,0.5-2.5,2.1c0,1.3,0.9,1.5,1.4,1.5c1,0,1.4-0.6,1.4-0.6l0,0.5h1.3l0.6-4
							C-669.1,2.3-670.5,2.3-671.1,2.3z M-670.8,5.5c0,0.2-0.1,1.4-0.9,1.4c-0.4,0-0.6-0.3-0.6-0.5c0-0.4,0.2-0.9,1.3-0.9
							C-670.8,5.4-670.9,5.5-670.8,5.5z"/>
					</g>
					<path id="use14701" d="M177.7,8c0.2-1.7,0.7-4.2,1.8-3.9c0.2-0.9,0-0.9-0.4-0.9c-0.6,0-0.8,0-0.8,0l0.1-0.8h-1.3L176.2,8H177.7
						L177.7,8z"/>
				</g>
				<path id="path4157" class="st9" d="M145.8,23.4l0.2-1.2c-0.1,0-0.2,0-0.4,0c-0.5,0-0.6-0.3-0.5-0.5l0.4-2.5h0.8l0.2-1.4h-0.7
					l0.1-0.8h-1.4c0,0-0.8,4.7-0.8,5.3c0,0.8,0.5,1.2,1.1,1.2C145.3,23.6,145.7,23.5,145.8,23.4z"/>
				<path id="path4155" class="st9" d="M146.3,21.1c0,2,1.3,2.5,2.5,2.5c1.1,0,1.5-0.2,1.5-0.2l0.3-1.4c0,0-0.8,0.4-1.5,0.4
					c-1.5,0-1.3-1.1-1.3-1.1h2.9c0,0,0.2-0.9,0.2-1.3c0-0.9-0.5-2.1-2-2.1C147.3,17.8,146.3,19.3,146.3,21.1z M148.8,19.1
					c0.8,0,0.7,0.9,0.7,1h-1.6C147.8,20,148,19.1,148.8,19.1z"/>
				<path id="path4151" class="st9" d="M157.9,23.4l0.3-1.6c0,0-0.7,0.4-1.2,0.4c-1,0-1.4-0.8-1.4-1.6c0-1.7,0.9-2.6,1.9-2.6
					c0.7,0,1.3,0.4,1.3,0.4l0.2-1.5c0,0-0.9-0.4-1.6-0.4c-1.7,0-3.3,1.4-3.3,4.1c0,1.8,0.9,3,2.6,3
					C157.1,23.6,157.9,23.4,157.9,23.4z"/>
				<path id="path4149" class="st9" d="M137.9,17.8c-1,0-1.7,0.3-1.7,0.3l-0.2,1.2c0,0,0.6-0.3,1.6-0.3c0.5,0,0.9,0.1,0.9,0.5
					c0,0.3,0,0.4,0,0.4s-0.4,0-0.6,0c-1.2,0-2.5,0.5-2.5,2.1c0,1.3,0.9,1.5,1.4,1.5c1,0,1.4-0.7,1.5-0.7l0,0.5h1.3l0.6-4
					C139.9,17.9,138.4,17.8,137.9,17.8z M138.2,21c0,0.2-0.2,1.4-1,1.4c-0.4,0-0.6-0.3-0.6-0.5c0-0.4,0.2-0.9,1.3-0.9
					C138.1,21,138.2,21,138.2,21z"/>
				<path id="path4145" class="st9" d="M141.2,23.6c0.3,0,2.2,0.1,2.2-1.8c0-1.8-1.7-1.4-1.7-2.1c0-0.4,0.3-0.5,0.8-0.5
					c0.2,0,1,0.1,1,0.1l0.2-1.3c0,0-0.5-0.1-1.3-0.1c-1.1,0-2.1,0.4-2.1,1.9c0,1.6,1.8,1.5,1.8,2.2c0,0.5-0.5,0.5-0.9,0.5
					c-0.7,0-1.3-0.2-1.3-0.2l-0.2,1.3C139.6,23.4,140,23.6,141.2,23.6z"/>
				<path id="path4139" class="st9" d="M169.8,16.7l-0.3,1.9c0,0-0.5-0.7-1.4-0.7c-1.3,0-2.4,1.6-2.4,3.4c0,1.2,0.6,2.3,1.8,2.3
					c0.9,0,1.3-0.6,1.3-0.6l-0.1,0.5h1.4l1.1-6.8L169.8,16.7z M169.1,20.4c0,0.8-0.4,1.8-1.2,1.8c-0.5,0-0.8-0.4-0.8-1.1
					c0-1.1,0.5-1.8,1.1-1.8C168.8,19.2,169.1,19.6,169.1,20.4z"/>
				<path id="path4133" class="st9" d="M130.1,23.5l0.9-5.2l0.1,5.2h1l1.8-5.2l-0.8,5.2h1.5l1.1-6.8h-2.3l-1.4,4.2l-0.1-4.2h-2.1
					l-1.1,6.8H130.1z"/>
				<path id="path4149_1_" class="st9" d="M161.2,17.8c-1,0-1.7,0.3-1.7,0.3l-0.2,1.2c0,0,0.6-0.3,1.6-0.3c0.5,0,0.9,0.1,0.9,0.5
					c0,0.3,0,0.4,0,0.4s-0.4,0-0.6,0c-1.2,0-2.5,0.5-2.5,2.1c0,1.3,0.9,1.5,1.4,1.5c1,0,1.4-0.7,1.5-0.7l0,0.5h1.3l0.6-4
					C163.2,17.9,161.7,17.8,161.2,17.8z M161.5,21c0,0.2-0.2,1.4-1,1.4c-0.4,0-0.6-0.3-0.6-0.5c0-0.4,0.2-0.9,1.3-0.9
					C161.4,21,161.4,21,161.5,21z"/>
				<path id="path4131_1_" class="st9" d="M164.3,23.5c0.4-2.4,0.5-4.3,1.5-4c0.2-0.9,0.3-1.3,0.5-1.7c0,0-0.1,0-0.3,0
					c-0.6,0-1.1,0.9-1.1,0.9l0.1-0.8h-1.3l-0.9,5.6H164.3z"/>
				<path id="path4131" class="st9" d="M152.3,23.5c0.4-2.4,0.5-4.3,1.5-4c0.2-0.9,0.3-1.3,0.5-1.7c0,0-0.1,0-0.3,0
					c-0.6,0-1.1,0.9-1.1,0.9L153,18h-1.3l-0.9,5.6H152.3z"/>
			</g>
		</g>
	</g>
</g>
<g id="Maestro">
	<g>
		<path class="st6" d="M235,0h-50c-2.8,0-5,2.2-5,5v30c0,2.8,2.3,5,5,5h50c2.7,0,5-2.2,5-5V5C240,2.2,237.7,0,235,0L235,0z"/>
		<g>
			<path id="path618" class="st12" d="M210,30c2.7-2.5,4.4-6,4.4-10s-1.7-7.5-4.4-10c-2.4-2.2-5.6-3.5-9-3.5
				c-7.5,0-13.5,6-13.5,13.5c0,7.4,6,13.5,13.5,13.5C204.4,33.5,207.6,32.2,210,30"/>
			<path id="path624" class="st11" d="M219.1,6.5c-3.5,0-6.7,1.3-9.1,3.5c-0.5,0.4-0.9,0.9-1.4,1.4h2.7c0.4,0.5,0.7,0.9,1,1.4h-4.8
				c-0.3,0.5-0.5,0.9-0.8,1.4h6.3c0.2,0.5,0.4,0.9,0.6,1.4h-7.5c-0.2,0.5-0.3,0.9-0.4,1.4h8.3c0.2,0.9,0.3,1.9,0.3,2.9
				c0,1.5-0.2,2.9-0.7,4.3h-7.5c0.2,0.5,0.3,1,0.6,1.4h6.3c-0.2,0.5-0.5,1-0.8,1.4h-4.8c0.3,0.5,0.7,1,1,1.4h2.7
				c-0.4,0.5-0.9,1-1.4,1.4c2.4,2.2,5.6,3.5,9.1,3.5c7.4,0,13.5-6,13.5-13.5C232.5,12.6,226.5,6.5,219.1,6.5"/>
			<g>
				<path id="path628" d="M198.9,23.7h-1.7l1-5.3l-2.3,5.3h-1.4l-0.3-5.2l-1.1,5.2h-1.5l1.3-6.8h2.7l0,4.2l1.8-4.2h2.8L198.9,23.7"
					/>
				<path id="path634" d="M203.1,21.3c-0.2,0-0.3,0-0.4,0c-0.9,0-1.4,0.3-1.4,0.8c0,0.3,0.2,0.6,0.6,0.6
					C202.6,22.7,203.1,22.1,203.1,21.3L203.1,21.3z M204.3,23.7h-1.4l0-0.6c-0.4,0.5-1,0.7-1.8,0.7c-0.9,0-1.5-0.6-1.5-1.5
					c0-1.4,1.1-2.1,2.9-2.1c0.2,0,0.4,0,0.7,0c0.1-0.2,0.1-0.3,0.1-0.4c0-0.4-0.3-0.5-1.1-0.5c-0.5,0-1,0.1-1.4,0.2l-0.2,0.1l-0.2,0
					l0.2-1.2c0.8-0.2,1.4-0.3,2-0.3c1.4,0,2.2,0.6,2.2,1.6c0,0.3,0,0.5-0.1,1.1l-0.3,2l-0.1,0.4l0,0.3l0,0.2L204.3,23.7"/>
				<path id="path636" d="M209,20.3c0-0.1,0-0.2,0-0.3c0-0.5-0.3-0.7-0.8-0.7c-0.5,0-0.9,0.4-1.1,1L209,20.3L209,20.3z M209.8,23.6
					c-0.6,0.2-1.1,0.2-1.7,0.2c-1.9,0-2.8-0.9-2.8-2.5c0-1.9,1.2-3.3,2.9-3.3c1.4,0,2.3,0.8,2.3,2c0,0.4-0.1,0.8-0.2,1.4h-3.3
					c0,0.1,0,0.1,0,0.2c0,0.6,0.5,1,1.5,1c0.6,0,1.1-0.1,1.7-0.4L209.8,23.6"/>
				<path id="path632" d="M210.9,19.9c0,0.7,0.4,1.2,1.3,1.5c0.7,0.3,0.8,0.4,0.8,0.6c0,0.3-0.3,0.5-1,0.5c-0.5,0-1-0.1-1.5-0.2
					l-0.2,1.3l0.1,0l0.3,0.1c0.1,0,0.2,0,0.4,0c0.4,0,0.7,0,0.9,0c1.8,0,2.6-0.6,2.6-1.9c0-0.8-0.3-1.2-1.2-1.5
					c-0.7-0.3-0.8-0.3-0.8-0.6c0-0.3,0.3-0.5,0.8-0.5c0.3,0,0.8,0,1.2,0.1l0.2-1.3c-0.4-0.1-1.1-0.1-1.5-0.1
					C211.6,18.1,210.9,18.9,210.9,19.9"/>
				<path id="path630" d="M217.6,23.7c-0.5,0.1-0.8,0.2-1.2,0.2c-0.9,0-1.3-0.4-1.3-1.2c0-0.2,0-0.3,0-0.5l0.1-0.5l0.1-0.4l0.8-4.2
					h1.7l-0.2,1.3h0.9l-0.2,1.4h-0.9l-0.4,2.3c0,0.1,0,0.2,0,0.2c0,0.3,0.2,0.4,0.6,0.4c0.2,0,0.3,0,0.5-0.1L217.6,23.7"/>
				<path id="path646" d="M222.3,19.4l0-0.2l0.3-0.9c-0.1,0-0.1,0-0.1,0c-0.1,0-0.1,0-0.2,0c0,0-0.1,0-0.2,0c-0.6,0-0.9,0.2-1.5,0.9
					l0.2-1h-1.7l-1,5.5h1.7c0.2-1.3,0.3-2,0.5-2.6c0.2-1,1-1.5,1.5-1.4c0.1,0,0.1,0,0.2,0l0.1,0L222.3,19.4"/>
				<path id="path638" d="M226,20.6c0-0.6-0.2-1.1-0.9-1.1c-0.9,0-1.4,1-1.4,1.9c0,0.8,0.4,1.3,1,1.2c0.4,0,1.1-0.5,1.3-1.4
					C226,21,226,20.8,226,20.6z M227.7,21.2c-0.2,1.8-1.5,2.7-3.3,2.7c-1.9,0-2.6-1.1-2.6-2.6c0-2,1.3-3.3,3.3-3.3
					c1.7,0,2.7,1.1,2.7,2.5C227.7,20.9,227.7,20.9,227.7,21.2"/>
				<path id="path642" class="st9" d="M199.3,23.4h-1.7l1-5.3l-2.3,5.3h-1.5l-0.3-5.2l-1,5.2H192l1.3-6.8h2.6l0.1,4.2l1.9-4.2h2.7
					L199.3,23.4"/>
				<path id="path644" class="st9" d="M218,23.3c-0.5,0.1-0.8,0.2-1.2,0.2c-0.9,0-1.3-0.4-1.3-1.2c0-0.2,0-0.3,0-0.5l0.1-0.5
					l0.1-0.4l0.8-4.2h1.7l-0.2,1.3h0.9l-0.2,1.4h-0.9l-0.4,2.3c0,0.1,0,0.2,0,0.2c0,0.3,0.2,0.4,0.6,0.4c0.2,0,0.3,0,0.4-0.1
					L218,23.3"/>
				<path id="path648" class="st9" d="M222.9,17.8c-0.1-0.1-0.2-0.1-0.2-0.1c-0.1,0-0.1,0-0.1,0c-0.1,0-0.1,0-0.2,0
					c-0.5,0-0.9,0.2-1.5,0.9l0.2-0.8h-1.5l-1,5.6h1.7c0.6-3.4,0.9-4,1.7-4c0.1,0,0.1,0,0.2,0l0.2,0L222.9,17.8"/>
				<path id="path650" class="st9" d="M211.4,19.6c0,0.7,0.4,1.2,1.3,1.5c0.7,0.3,0.8,0.4,0.8,0.6c0,0.3-0.3,0.5-1,0.5
					c-0.5,0-1-0.1-1.5-0.2l-0.2,1.3l0.1,0l0.3,0.1c0.1,0,0.3,0,0.5,0c0.4,0,0.7,0,0.9,0c1.8,0,2.6-0.6,2.6-1.9
					c0-0.8-0.3-1.2-1.2-1.5c-0.7-0.3-0.8-0.3-0.8-0.6c0-0.3,0.3-0.5,0.8-0.5c0.3,0,0.8,0,1.2,0.1l0.2-1.3c-0.4-0.1-1.1-0.1-1.5-0.1
					C212,17.7,211.4,18.5,211.4,19.6"/>
				<path id="path652" class="st9" d="M203.5,20.9c-0.2,0-0.3,0-0.4,0c-0.9,0-1.4,0.3-1.4,0.8c0,0.3,0.2,0.6,0.6,0.6
					C203,22.3,203.5,21.7,203.5,20.9L203.5,20.9z M204.7,23.4h-1.4l0-0.6c-0.4,0.5-1,0.7-1.8,0.7c-0.9,0-1.5-0.6-1.5-1.5
					c0-1.4,1.1-2.1,2.9-2.1c0.2,0,0.4,0,0.7,0c0-0.2,0.1-0.3,0.1-0.4c0-0.4-0.3-0.5-1.1-0.5c-0.5,0-1,0.1-1.4,0.2l-0.2,0.1l-0.1,0
					l0.2-1.3c0.8-0.2,1.4-0.3,2-0.3c1.4,0,2.2,0.6,2.2,1.6c0,0.3,0,0.5-0.1,1.1l-0.4,2l-0.1,0.4l0,0.3l0,0.2L204.7,23.4"/>
				<path id="path654" class="st9" d="M209.3,19.9c0-0.1,0-0.2,0-0.3c0-0.5-0.3-0.7-0.8-0.7c-0.5,0-0.9,0.4-1.1,1L209.3,19.9
					L209.3,19.9z M210.2,23.2c-0.6,0.2-1.1,0.2-1.7,0.2c-1.9,0-2.9-0.9-2.9-2.5c0-1.9,1.2-3.3,2.9-3.3c1.4,0,2.3,0.8,2.3,2
					c0,0.4-0.1,0.8-0.2,1.4h-3.3c0,0.1,0,0.1,0,0.2c0,0.6,0.5,1,1.5,1c0.6,0,1.1-0.1,1.7-0.4L210.2,23.2"/>
				<path id="path656" class="st9" d="M226.4,20.1c0-0.6-0.2-1.1-0.9-1.1c-0.9,0-1.4,1-1.4,1.9c0,0.8,0.4,1.3,1,1.3
					c0.4,0,1.1-0.5,1.3-1.4C226.4,20.6,226.4,20.4,226.4,20.1z M228.1,20.8c-0.3,1.8-1.5,2.7-3.3,2.7c-1.9,0-2.7-1.2-2.7-2.6
					c0-2,1.3-3.3,3.3-3.3c1.7,0,2.7,1.1,2.7,2.5C228.2,20.5,228.2,20.5,228.1,20.8"/>
			</g>
		</g>
	</g>
</g>
<g id="American_Express">
	<g>
		<path class="st6" d="M54.9,40H5c-2.7,0-5,2.2-5,5v29.9c0,2.7,2.2,5,5,5h49.9c2.7,0,5-2.2,5-5V45C59.9,42.2,57.6,40,54.9,40
			L54.9,40z"/>
		<g>
			<path class="st14" d="M29.2,54.7l-3,7.1l-3.3-7.1h-4.1v9.9l-4.3-9.9h-3.7L6.3,65.2H9l1-2.3h5.2l1,2.3h5.1V57l3.6,8.2h2.2l3.6-8.2
				l0,8.2h2.6V54.7H29.2z M10.9,60.7l1.7-4.2l1.7,4.2H10.9z"/>
			<path class="st14" d="M50.3,54.7l-3.2,3.4l-3.1-3.4H34v10.5h9.9l3.2-3.5l3.1,3.5h3.4L48.8,60l4.8-5.2H50.3z M42.6,63h-6.2v-2.1
				H42v-2.1h-5.5v-1.9h6.3l2.7,3.1L42.6,63z"/>
		</g>
	</g>
</g>
<g id="Diners_Club">
	<g>
		<path class="st6" d="M115,40H65c-2.8,0-5,2.2-5,5v30c0,2.8,2.3,5,5,5h50c2.8,0,5-2.2,5-5V45C120,42.2,117.8,40,115,40L115,40z"/>
		<g>
			<path class="st13" d="M92.9,73.5c7.4,0,14.1-6,14.1-13.4c0-8-6.7-13.6-14.1-13.6h-6.3c-7.5,0-13.6,5.6-13.6,13.6
				c0,7.4,6.1,13.4,13.6,13.4H92.9z"/>
			<path class="st9" d="M86.6,47.6c-6.8,0-12.3,5.5-12.3,12.3c0,6.8,5.5,12.3,12.3,12.3C93.4,72.3,99,66.8,99,60
				C99,53.2,93.4,47.6,86.6,47.6z M78.8,60L78.8,60c0-3.3,2.1-6.2,5-7.3v14.6C80.9,66.1,78.8,63.3,78.8,60z M89.4,67.3L89.4,67.3
				V52.7c2.9,1.1,5,4,5,7.3C94.4,63.3,92.3,66.2,89.4,67.3z"/>
		</g>
	</g>
</g>
<g id="Discover">
	<g>
		<path class="st6" d="M175,40h-50c-2.8,0-5,2.2-5,5v30c0,2.8,2.2,5,5,5h50c2.8,0,5-2.3,5-5V45C180,42.2,177.7,40,175,40L175,40z"/>
		<g>
			<path class="st5" d="M125.5,55.6H123v8.6h2.5c1.3,0,2.3-0.3,3.1-1c1-0.8,1.6-2,1.6-3.3C130.2,57.4,128.2,55.6,125.5,55.6z
				 M127.5,62.1c-0.5,0.5-1.2,0.7-2.3,0.7h-0.5v-5.7h0.5c1.1,0,1.8,0.2,2.3,0.7c0.6,0.5,0.9,1.3,0.9,2.2
				C128.4,60.8,128.1,61.6,127.5,62.1z"/>
			<rect x="130.9" y="55.6" class="st5" width="1.7" height="8.6"/>
			<path class="st5" d="M136.7,59c-1-0.4-1.3-0.6-1.3-1.1c0-0.5,0.5-1,1.3-1c0.5,0,0.9,0.2,1.4,0.7l0.9-1.2c-0.7-0.6-1.6-1-2.5-1
				c-1.5,0-2.7,1.1-2.7,2.5c0,1.2,0.5,1.8,2.1,2.4c0.7,0.2,1,0.4,1.2,0.5c0.3,0.2,0.5,0.5,0.5,0.9c0,0.7-0.6,1.2-1.3,1.2
				c-0.8,0-1.5-0.4-1.8-1.2l-1.1,1c0.8,1.1,1.7,1.6,3,1.6c1.8,0,3-1.2,3-2.8C139.2,60.3,138.7,59.7,136.7,59z"/>
			<path class="st5" d="M139.8,60c0,2.5,2,4.5,4.6,4.5c0.7,0,1.3-0.1,2.1-0.5v-2c-0.7,0.7-1.3,0.9-2,0.9c-1.7,0-2.9-1.2-2.9-3
				c0-1.7,1.2-3,2.8-3c0.8,0,1.4,0.3,2.1,1v-2c-0.7-0.4-1.3-0.5-2.1-0.5C141.8,55.4,139.8,57.5,139.8,60z"/>
			<polygon class="st5" points="159.8,61.5 157.5,55.6 155.7,55.6 159.3,64.5 160.2,64.5 164,55.6 162.2,55.6 			"/>
			<polygon class="st5" points="164.7,64.3 169.5,64.3 169.5,62.8 166.4,62.8 166.4,60.5 169.4,60.5 169.4,59 166.4,59 166.4,57.1 
				169.5,57.1 169.5,55.6 164.7,55.6 			"/>
			<path class="st5" d="M176.2,58.2c0-1.6-1.1-2.6-3.1-2.6h-2.5v8.6h1.7v-3.5h0.2l2.3,3.5h2.1l-2.7-3.6
				C175.5,60.4,176.2,59.5,176.2,58.2z M172.8,59.6h-0.5V57h0.5c1.1,0,1.6,0.4,1.6,1.3C174.5,59.2,173.9,59.6,172.8,59.6z"/>
			<g>
				<linearGradient id="SVGID_1_" gradientUnits="userSpaceOnUse" x1="153.9512" y1="63.6875" x2="150.7648" y2="58.6986">
					<stop  offset="0" style="stop-color:#F89F20"/>
					<stop  offset="0.2502" style="stop-color:#F79A20"/>
					<stop  offset="0.5331" style="stop-color:#F68D20"/>
					<stop  offset="0.6196" style="stop-color:#F58720"/>
					<stop  offset="0.8332" style="stop-color:#F47121"/>
					<stop  offset="1" style="stop-color:#F36521"/>
				</linearGradient>
				<circle class="st7" cx="151.6" cy="60" r="4.6"/>
			</g>
		</g>
	</g>
</g>
<g id="JCB">
	<g>
		<path class="st6" d="M235,40h-50c-2.8,0-5,2.2-5,5v30c0,2.8,2.2,5,5,5h50c2.8,0,5-2.2,5-5V45C240,42.2,237.8,40,235,40L235,40z"/>
		<g>
			<g>
				<g>
					<defs>
						<path id="SVGID_2_" d="M219.8,60.6v2.6h2.8c0.1,0,0.3,0,0.3,0c0.5-0.1,1-0.6,1-1.2c0-0.6-0.4-1.1-1-1.2c-0.1,0-0.2,0-0.3,0
							H219.8z"/>
					</defs>
					<clipPath id="SVGID_3_">
						<use xlink:href="#SVGID_2_"  style="overflow:visible;"/>
					</clipPath>
					
						<linearGradient id="SVGID_4_" gradientUnits="userSpaceOnUse" x1="117.4283" y1="572.9258" x2="117.8864" y2="572.9258" gradientTransform="matrix(26.1054 0 0 -26.1054 -2848.0007 15018.3438)">
						<stop  offset="0" style="stop-color:#007F49"/>
						<stop  offset="0.2817" style="stop-color:#1F9248"/>
						<stop  offset="0.7614" style="stop-color:#4FAF47"/>
						<stop  offset="1" style="stop-color:#62BA46"/>
					</linearGradient>
					<rect x="219.8" y="60.6" class="st16" width="4.1" height="2.6"/>
				</g>
				<g>
					<defs>
						<path id="SVGID_5_" d="M222.3,45.5c-2.7,0-4.8,2.2-4.8,4.8v5h6.9c0.2,0,0.4,0,0.5,0c1.6,0.1,2.7,0.9,2.7,2.3
							c0,1.1-0.8,2-2.2,2.2v0.1c1.6,0.1,2.8,1,2.8,2.3c0,1.5-1.3,2.4-3.1,2.4h-7.5v9.9h7.1c2.7,0,4.8-2.2,4.8-4.8V45.5H222.3z"/>
					</defs>
					<clipPath id="SVGID_6_">
						<use xlink:href="#SVGID_5_"  style="overflow:visible;"/>
					</clipPath>
					
						<linearGradient id="SVGID_7_" gradientUnits="userSpaceOnUse" x1="117.4361" y1="572.8457" x2="117.8943" y2="572.8457" gradientTransform="matrix(26.1095 0 0 -26.1095 -2848.657 15016.7031)">
						<stop  offset="0" style="stop-color:#027A40"/>
						<stop  offset="1" style="stop-color:#5AB431"/>
					</linearGradient>
					<rect x="217.4" y="45.5" class="st4" width="11.9" height="29.1"/>
				</g>
				<g>
					<defs>
						<path id="SVGID_8_" d="M219.8,56.8v2.4h2.5c0.1,0,0.2,0,0.3,0c0.5-0.1,1-0.5,1-1.2c0-0.6-0.4-1.1-1-1.2c0,0-0.2,0-0.3,0H219.8
							z"/>
					</defs>
					<clipPath id="SVGID_9_">
						<use xlink:href="#SVGID_8_"  style="overflow:visible;"/>
					</clipPath>
					
						<linearGradient id="SVGID_10_" gradientUnits="userSpaceOnUse" x1="117.4263" y1="572.749" x2="117.8855" y2="572.749" gradientTransform="matrix(26.1043 0 0 -26.1043 -2847.8132 15009.1875)">
						<stop  offset="0" style="stop-color:#007F49"/>
						<stop  offset="0.2817" style="stop-color:#1F9248"/>
						<stop  offset="0.7614" style="stop-color:#4FAF47"/>
						<stop  offset="1" style="stop-color:#62BA46"/>
					</linearGradient>
					<rect x="219.8" y="56.8" class="st0" width="3.8" height="2.4"/>
				</g>
			</g>
			<g>
				<defs>
					<path id="SVGID_11_" d="M195.5,45.5c-2.7,0-4.8,2.2-4.8,4.8v12c1.4,0.7,2.8,1.1,4.2,1.1c1.7,0,2.6-1,2.6-2.4v-5.6h4.2V61
						c0,2.2-1.3,4-6,4c-2.8,0-5-0.6-5-0.6v10.2h7.1c2.7,0,4.8-2.2,4.8-4.8V45.5H195.5z"/>
				</defs>
				<clipPath id="SVGID_12_">
					<use xlink:href="#SVGID_11_"  style="overflow:visible;"/>
				</clipPath>
				
					<linearGradient id="SVGID_13_" gradientUnits="userSpaceOnUse" x1="118.6538" y1="572.8965" x2="119.1123" y2="572.8965" gradientTransform="matrix(26.063 0 0 -26.063 -2901.7351 14991.3906)">
					<stop  offset="0" style="stop-color:#1D2D74"/>
					<stop  offset="1" style="stop-color:#016EBA"/>
				</linearGradient>
				<rect x="190.6" y="45.5" class="st1" width="11.9" height="29.1"/>
			</g>
			<g>
				<defs>
					<path id="SVGID_14_" d="M208.9,45.5c-2.7,0-4.8,2.2-4.8,4.8v6.3c1.2-1.1,3.3-1.7,6.8-1.6c1.8,0.1,3.8,0.6,3.8,0.6v2.1
						c-1-0.5-2.2-1-3.7-1.1c-2.6-0.2-4.2,1.1-4.2,3.3c0,2.3,1.6,3.5,4.2,3.3c1.5-0.1,2.7-0.6,3.7-1.1v2c0,0-2,0.5-3.8,0.6
						c-3.4,0.2-5.6-0.5-6.8-1.6v11.2h7.1c2.7,0,4.8-2.2,4.8-4.8V45.5H208.9z"/>
				</defs>
				<clipPath id="SVGID_15_">
					<use xlink:href="#SVGID_14_"  style="overflow:visible;"/>
				</clipPath>
				
					<linearGradient id="SVGID_16_" gradientUnits="userSpaceOnUse" x1="118.0474" y1="572.8965" x2="118.5054" y2="572.8965" gradientTransform="matrix(26.0644 0 0 -26.0644 -2872.7039 14992.2031)">
					<stop  offset="0" style="stop-color:#742930"/>
					<stop  offset="1" style="stop-color:#E40139"/>
				</linearGradient>
				<rect x="204" y="45.5" class="st2" width="11.9" height="29.1"/>
			</g>
		</g>
	</g>
</g>
<g id="Blank">
	<g>
		<path class="st6" d="M55,80H5c-2.8,0-5,2.2-5,5v30c0,2.7,2.2,5,5,5h50c2.8,0,5-2.3,5-5V85C60,82.2,57.8,80,55,80L55,80z"/>
		<rect x="0" y="87.8" class="st15" width="60" height="7.9"/>
	</g>
</g>
<g id="Guides">
</g>
</svg>
