<svg xmlns="http://www.w3.org/2000/svg" width="16" height="16" viewBox="0 0 16 16">
  <path fill="#0092DB" fill-rule="evenodd" d="M9.76776695,8 L14.3838835,12.6161165 C14.8720388,13.1042719 14.8720388,13.8957281 14.3838835,14.3838835 C13.8957281,14.8720388 13.1042719,14.8720388 12.6161165,14.3838835 L8,9.76776695 L3.38388348,14.3838835 C2.89572811,14.8720388 2.10427189,14.8720388 1.61611652,14.3838835 C1.12796116,13.8957281 1.12796116,13.1042719 1.61611652,12.6161165 L6.23223305,8 L1.61611652,3.38388348 C1.12796116,2.89572811 1.12796116,2.10427189 1.61611652,1.61611652 C2.10427189,1.12796116 2.89572811,1.12796116 3.38388348,1.61611652 L8,6.23223305 L12.6161165,1.61611652 C13.1042719,1.12796116 13.8957281,1.12796116 14.3838835,1.61611652 C14.8720388,2.10427189 14.8720388,2.89572811 14.3838835,3.38388348 L9.76776695,8 L9.76776695,8 Z"/>
</svg>
