<?xml version="1.0" encoding="UTF-8"?>
<svg width="44px" height="40px" viewBox="0 0 44 40" version="1.1" xmlns="http://www.w3.org/2000/svg" xmlns:xlink="http://www.w3.org/1999/xlink">
    <!-- Generator: Sketch 50.2 (55047) - http://www.bohemiancoding.com/sketch -->
    <title>icon-benefit-manager</title>
    <desc>Created with Sketch.</desc>
    <defs></defs>
    <g id="Page-1" stroke="none" stroke-width="1" fill="none" fill-rule="evenodd">
        <g id="Artboard-2-Copy" transform="translate(-405.000000, -32.000000)" fill="#FFA940">
            <g id="Group-3-Copy-4" transform="translate(405.000000, 32.000000)">
                <path d="M39.5106204,16.5011567 L35.3865405,15.8008412 C35.153102,15.0616193 34.8418507,14.3613039 34.491693,13.6609884 L36.9038906,10.2761304 C37.2540484,9.770347 37.215142,9.07003155 36.7871714,8.64206099 L33.4801262,5.33501577 C33.0521556,4.90704522 32.3518402,4.82923239 31.8460568,5.21829653 L28.4611987,7.63049422 C27.7997897,7.28033649 27.0605678,6.96908517 26.321346,6.73564669 L25.6599369,2.65047319 C25.5432177,2.02797056 25.0374343,1.6 24.4149317,1.6 L19.7461619,1.6 C19.1236593,1.6 18.6178759,2.02797056 18.5011567,2.65047319 L17.8008412,6.7745531 C17.0616193,7.00799159 16.3613039,7.3192429 15.6609884,7.66940063 L12.2761304,5.25720294 C11.770347,4.90704522 11.0700315,4.94595163 10.642061,5.37392219 L7.33501577,8.6809674 C6.90704522,9.10893796 6.82923239,9.80925342 7.21829653,10.3150368 L9.63049422,13.6998948 C9.28033649,14.3613039 8.96908517,15.1005258 8.73564669,15.8397476 L4.65047319,16.5011567 C4.02797056,16.6178759 3.6,17.1236593 3.6,17.7461619 L3.6,22.4149317 C3.6,23.0374343 4.02797056,23.5432177 4.65047319,23.6599369 L8.7745531,24.3602524 C9.00799159,25.0994742 9.3192429,25.7997897 9.66940063,26.5001052 L7.25720294,29.8849632 C6.90704522,30.3907466 6.94595163,31.091062 7.37392219,31.5190326 L10.6809674,34.8260778 C11.108938,35.2540484 11.8092534,35.3318612 12.3150368,34.9427971 L15.6998948,32.5305994 C16.3613039,32.8807571 17.1005258,33.1920084 17.8397476,33.4254469 L18.5400631,37.5495268 C18.6567823,38.1720294 19.1625657,38.6 19.7850683,38.6 L24.4538381,38.6 C25.0763407,38.6 25.5821241,38.1720294 25.6988433,37.5495268 L26.3602524,33.3865405 C27.0994742,33.153102 27.7997897,32.8418507 28.5001052,32.491693 L31.8849632,34.9038906 C32.3907466,35.2540484 33.091062,35.215142 33.5190326,34.7871714 L36.8260778,31.4801262 C37.2540484,31.0521556 37.3318612,30.3518402 36.9427971,29.8460568 L34.5305994,26.4611987 C34.8807571,25.7997897 35.1920084,25.0605678 35.4254469,24.321346 L39.5495268,23.6210305 C40.1720294,23.5043113 40.6,22.9985279 40.6,22.3760252 L40.6,17.7461619 C40.5610936,17.1236593 40.133123,16.6178759 39.5106204,16.5011567 Z M22.0805468,26.7335436 C18.3844374,26.7335436 15.4275499,23.7377497 15.4275499,20.0805468 C15.4275499,16.3844374 18.4233438,13.4275499 22.0805468,13.4275499 C25.7377497,13.4275499 28.7335436,16.3844374 28.7335436,20.0805468 C28.7335436,23.7766562 25.7766562,26.7335436 22.0805468,26.7335436 Z" id="path0_fill"></path>
            </g>
        </g>
    </g>
</svg>