<svg xmlns="http://www.w3.org/2000/svg" width="16" height="16" viewBox="0 0 16 16">
  <path fill="#0092DB" fill-rule="evenodd" d="M5.5,9 C7.43299662,9 9,7.43299662 9,5.5 C9,3.56700338 7.43299662,2 5.5,2 C3.56700338,2 2,3.56700338 2,5.5 C2,7.43299662 3.56700338,9 5.5,9 Z M10.0509072,11.1115674 L8.82264336,9.88330353 C7.89956853,10.5841006 6.74835352,11 5.5,11 C2.46243388,11 0,8.53756612 0,5.5 C0,2.46243388 2.46243388,0 5.5,0 C8.53756612,0 11,2.46243388 11,5.5 C11,6.74835352 10.5841006,7.89956853 9.88330353,8.82264336 L11.1115674,10.0509072 C11.6119926,9.91726828 12.1680662,10.0467458 12.5606602,10.4393398 L15.5606602,13.4393398 C16.1464466,14.0251263 16.1464466,14.9748737 15.5606602,15.5606602 C14.9748737,16.1464466 14.0251263,16.1464466 13.4393398,15.5606602 L10.4393398,12.5606602 C10.0467458,12.1680662 9.91726828,11.6119926 10.0509072,11.1115674 L10.0509072,11.1115674 Z"/>
</svg>
