<svg xmlns="http://www.w3.org/2000/svg" width="44" height="40" viewBox="0 0 44 40"><path fill="#FFA940" fill-rule="evenodd" d="M31 11.028C31 5.942 26.968 2 22 2s-9 3.942-9 9.028c0 3.044 1.775 6.349 4 8.025-5.09 2.113-9 8.136-9 14.099 0 6.464 28 6.464 28 0 0-5.963-3.91-11.986-9-14.1 2.225-1.675 4-4.98 4-8.024zM11.139 5.846l-.14-.001c-3.903 0-7.07 3.088-7.07 7.071 0 2.385 1.394 4.973 3.142 6.286C3.073 20.857 0 25.575 0 30.246c0 1.567 2.107 2.65 5.018 3.246A5.308 5.308 0 0 1 5 33.055c0-5.663 2.927-11.377 7.32-14.765C10.907 16.158 10 13.55 10 11c0-1.858.409-3.601 1.139-5.154zm27.843 27.646c2.91-.597 5.018-1.679 5.018-3.246 0-4.67-3.073-9.389-7.071-11.044 1.747-1.313 3.142-3.9 3.142-6.286 0-3.983-3.168-7.071-7.071-7.071l-.139.001A12.063 12.063 0 0 1 34 11c0 2.55-.906 5.158-2.32 7.29C36.072 21.678 39 27.392 39 33.055c0 .149-.006.294-.018.437z"/></svg>