<svg xmlns="http://www.w3.org/2000/svg" width="20" height="20" viewBox="0 0 20 20"><path fill="#FFF" fill-rule="evenodd" d="M0 3.002A3 3 0 0 1 3 0h14c1.657 0 3 1.352 3 3.002v9.996A3.004 3.004 0 0 1 17.003 16l-6.176.002-3.058 3.057C6.343 20.485 4 19.612 4 17.51V16h-.99A3.01 3.01 0 0 1 0 12.998V3.002zm2 9.996A1.01 1.01 0 0 0 3.01 14H6v3.51c0 .275.159.331.355.135L10 14h7.003c.544 0 .997-.449.997-1.002V3.002C18 2.456 17.552 2 17 2H3a1 1 0 0 0-1 1.002v9.996zM5 7h2v2H5V7zm4 0h2v2H9V7zm4 0h2v2h-2V7z"/></svg>