<svg xmlns="http://www.w3.org/2000/svg" width="16" height="16" viewBox="0 0 16 16">
  <path fill="#0092DB" fill-rule="evenodd" d="M6,12.1288263 C3.01424393,12.508269 0.906072617,13.5952702 0.906072617,13.5952702 C0.411586523,13.8082316 0,14.4477153 0,15 L0,16 L16,16 L16,15 C16,14.4438648 15.5943375,13.8187963 15.0939274,13.5952702 C15.0939274,13.5952702 12.9857561,12.508269 10,12.1288263 L10,11.5007476 C11.7659048,10.5748796 13,8.46038284 13,6 C13,2.6862915 10.7614237,0 8,0 C5.23857625,0 3,2.6862915 3,6 C3,8.46038284 4.23409522,10.5748796 6,11.5007476 L6,12.1288263 L6,12.1288263 Z"/>
</svg>
