<?xml version="1.0" encoding="UTF-8"?>
<svg width="44px" height="40px" viewBox="0 0 44 40" version="1.1" xmlns="http://www.w3.org/2000/svg" xmlns:xlink="http://www.w3.org/1999/xlink">
    <!-- Generator: Sketch 50.2 (55047) - http://www.bohemiancoding.com/sketch -->
    <title>icon-benefit-protect</title>
    <desc>Created with Sketch.</desc>
    <defs></defs>
    <g id="Page-1" stroke="none" stroke-width="1" fill="none" fill-rule="evenodd">
        <g id="Artboard-2-Copy" transform="translate(-225.000000, -32.000000)" fill="#FFA940">
            <g id="Group-3-Copy" transform="translate(225.000000, 32.000000)">
                <path d="M36.7761642,6.78031925 C36.7097301,6.33093716 36.329321,5.99453531 35.8752842,5.98861125 C34.0053977,5.96406872 31.2841395,5.6801371 28.2759876,4.46570526 C25.9427551,3.52378007 24.1566517,2.31231026 22.9007514,1.29210288 C22.54827,1.00563237 22.0404936,1.00563237 21.6880122,1.29210288 C20.4321119,2.31231026 18.6460085,3.52378007 16.3127761,4.46570526 C13.3046242,5.6801371 10.5829428,5.96406872 8.71347939,5.98861125 C8.25944268,5.99453531 7.87903354,6.33093716 7.81259947,6.78031925 C7.22992607,10.723626 6.12128097,22.9102591 14.1746144,32.5728205 C16.5488921,35.421446 19.1804432,37.4038896 21.4963266,38.7803867 C21.9888697,39.0732044 22.5990476,39.0732044 23.0915907,38.7803867 C25.4078973,37.4043127 28.0390253,35.4218691 30.413303,32.5728205 C38.4674827,22.9102591 37.3588376,10.723626 36.7761642,6.78031925 Z M32.0288782,14.8315369 L22.8148526,27.2927924 L22.7551889,27.3731903 C22.0548806,28.3201933 20.7194287,28.5203418 19.7724258,27.8200336 C19.6755251,27.7485217 19.5786245,27.6613534 19.4978034,27.5775703 L14.5770271,22.4227938 C13.9533085,21.7690317 13.9770047,20.733591 14.6307668,20.1094492 C15.2049773,19.5614739 16.073698,19.5140814 16.6995324,19.953308 L20.6754215,22.740154 L29.6918374,12.9053718 C30.2575849,12.2880004 31.2168591,12.246532 31.8342306,12.8122795 C32.4101336,13.3403669 32.480376,14.2162812 32.0288782,14.8315369 Z" id="path0_fill"></path>
            </g>
        </g>
    </g>
</svg>