<?xml version="1.0" encoding="UTF-8"?>
<svg width="44px" height="40px" viewBox="0 0 44 40" version="1.1" xmlns="http://www.w3.org/2000/svg" xmlns:xlink="http://www.w3.org/1999/xlink">
    <!-- Generator: Sketch 50.2 (55047) - http://www.bohemiancoding.com/sketch -->
    <title>icon-benefit-download</title>
    <desc>Created with Sketch.</desc>
    <defs></defs>
    <g id="Page-1" stroke="none" stroke-width="1" fill="none" fill-rule="evenodd">
        <g id="Artboard-2-Copy" transform="translate(-345.000000, -32.000000)" fill="#FFA940">
            <g id="Group-3-Copy-3" transform="translate(345.000000, 32.000000)">
                <path d="M5.5,33.8650169 L38.5,33.8650169 C39.8807119,33.8650169 41,34.9843051 41,36.3650169 C41,37.7457288 39.8807119,38.8650169 38.5,38.8650169 L5.5,38.8650169 C4.11928813,38.8650169 3,37.7457288 3,36.3650169 C3,34.9843051 4.11928813,33.8650169 5.5,33.8650169 Z M14.6947103,18.4087389 L18.9344504,22.6388129 L18.9344504,5.52771622 C18.9344504,4.05714801 20.1299434,2.86501694 21.6053832,2.86501694 C23.0804986,2.86501694 24.276316,4.05812478 24.276316,5.52771622 L24.276316,22.6875023 L28.5648754,18.4087389 C29.6079971,17.3683923 31.2989556,17.368117 32.3422491,18.4086348 C33.3853132,19.4489239 33.3861789,21.1347025 32.3421447,22.1759591 L22.8901364,31.6042444 C22.1944069,32.2982278 21.0655178,32.298566 20.3694492,31.6042444 L10.917441,22.1759591 C9.87431919,21.1356125 9.87404313,19.4491527 10.9173366,18.4086348 C11.9604007,17.3683457 13.6506761,17.3674823 14.6947103,18.4087389 Z" id="path0_fill"></path>
            </g>
        </g>
    </g>
</svg>