<?xml version="1.0" encoding="UTF-8"?>
<svg width="44px" height="40px" viewBox="0 0 44 40" version="1.1" xmlns="http://www.w3.org/2000/svg" xmlns:xlink="http://www.w3.org/1999/xlink">
    <!-- Generator: Sketch 50.2 (55047) - http://www.bohemiancoding.com/sketch -->
    <title>icon-benefit-gift</title>
    <desc>Created with Sketch.</desc>
    <defs></defs>
    <g id="Page-1" stroke="none" stroke-width="1" fill="none" fill-rule="evenodd">
        <g id="Artboard-2-Copy" transform="translate(-225.000000, -32.000000)" fill="#FFA940">
            <g id="Group-3-Copy" transform="translate(225.000000, 32.000000)">
                <path d="M22.0393243,7.92330707 C22.338906,7.37959807 22.5862203,6.9334125 22.8316224,6.48467729 C23.4620189,5.32841924 24.126198,4.17726045 25.1753715,3.35627899 C26.8702393,2.03238265 28.7454935,1.5645252 30.799222,2.476656 C32.0083849,3.01335351 32.6636402,3.83433497 33.0237758,5.05114678 C33.7612568,7.5414997 32.0619271,9.73545791 30.1560773,10.8968152 C29.9731412,11.0083616 29.5562764,11.2881837 29.379077,11.4080164 C29.4026611,11.4596465 29.669735,11.3595734 29.6933191,11.4118409 C29.8851789,11.4118409 30.0770387,11.4118409 30.2669863,11.4118409 C32.6094606,11.4118409 34.9519348,11.410566 37.2931343,11.4118409 C37.8648892,11.4118409 37.877,11.4258638 37.877,12.0001684 C37.8763626,14.0379617 37.877,16.0751175 37.8763626,18.1122734 C37.8763626,18.6993261 37.8451296,18.7369332 37.2599891,18.7375706 C32.6993351,18.7394828 28.1374063,18.735021 23.5748401,18.7458569 C23.1414027,18.7477691 23.0037225,18.6049898 23.0069096,18.1677279 C23.0260318,16.0700183 23.0081844,13.9710338 23.0253944,11.8733242 C23.0285814,11.4959787 22.9049243,11.3423634 22.5371399,11.3506497 C22.2184359,11.3576612 21.8978197,11.3525619 21.5784783,11.3410886 C21.2731599,11.3302526 21.1456783,11.4519976 21.1475905,11.7719764 C21.1616135,13.8849838 21.1616135,15.9986286 21.165438,18.111636 C21.1660754,18.6967765 21.1329302,18.7318339 20.5446026,18.7318339 C15.92212,18.735021 11.2990001,18.7375706 6.67588008,18.7394828 C6.05122028,18.7394828 6.03146063,18.7158987 6.02827359,18.1039871 C6.01934988,16.0668312 6.01042617,14.029038 6.00022764,11.9918821 C5.9970406,11.435425 6.01934988,11.4118409 6.59620409,11.410566 C8.83286864,11.4086538 11.0669836,11.4086538 13.3017359,11.4061042 C13.4464275,11.4061042 13.903449,11.4653831 14.0914844,11.3512871 C13.986312,11.2696989 13.5758213,11.1052476 13.4649123,11.0325831 C12.4182884,10.348007 11.5526884,9.52256365 11.0746325,8.31850001 C10.1357305,5.95626609 11.5794596,3.79354086 12.4705559,3.07072023 C13.9219338,1.89470253 15.5454119,1.72323979 17.2249819,2.38104481 C19.1722632,3.14274733 20.590496,4.52337298 21.4554586,6.44197096 C21.6581543,6.88496949 21.8149567,7.34836508 22.0393243,7.92330707 Z M20.6230038,10.7706085 C20.6402138,10.6284665 19.3966309,7.56635861 18.6036953,6.31257714 C18.0217419,5.19201394 17.3715857,4.43094882 16.3262367,4.23080272 C14.8563739,4.00579771 14.5185477,4.20148196 13.8046508,4.86948551 C13.162781,5.47183603 12.9059055,6.69056006 13.2073995,7.56189675 C13.5095309,8.43323344 14.2145041,8.88961754 14.956447,9.29883346 C16.2089536,9.98914628 20.0697337,10.6960317 20.6230038,10.7706085 Z M23.332625,10.8891663 C23.5761149,10.2249872 25.043428,6.86520985 25.7911076,5.72934885 C26.3176065,4.92876445 27.4298834,4.09057297 28.4471866,4.11861892 C29.2751795,3.99368696 30.0311454,4.35445987 30.518125,5.07983013 C31.0363377,5.84918155 30.9037569,6.67271264 30.5002776,7.45608703 C29.9157745,8.59386025 28.8646888,9.19429855 27.74795,9.62582374 C26.4928937,10.1115286 23.5990616,10.8725937 23.332625,10.8891663 Z M8.2292433,20.2902964 L21.3815193,20.2902964 C21.3815193,20.2902964 21.3821567,32.4335556 21.3815193,38.1829754 C21.3802444,38.8095474 21.3783322,38.8120971 20.753035,38.8120971 C16.7685978,38.8120971 12.7828858,38.8012611 8.7978112,38.8203834 C8.3254919,38.822933 8.22031959,38.6782414 8.22223181,38.2256818 C8.23625478,32.4596893 8.23051811,26.6956091 8.2292433,20.9308914 C8.2292433,20.736482 8.2292433,20.2902964 8.2292433,20.2902964 Z M35.9736998,20.2902964 C35.9736998,20.2902964 35.9641387,32.3927615 35.9615891,38.1842502 C35.9615891,38.788513 35.9450165,38.8120971 35.3528645,38.8120971 C31.3397439,38.8140093 27.3253485,38.8095474 23.3109532,38.8178338 C22.9559169,38.8178338 22.8405461,38.7043751 22.8405461,38.3461519 C22.8507446,32.5992816 22.8469202,26.8530488 22.8488324,21.1049038 C22.8488324,20.9742352 22.8405461,20.2902964 22.8405461,20.2902964 L35.9736998,20.2902964 Z" id="path0_fill"></path>
            </g>
        </g>
    </g>
</svg>