<?xml version="1.0" encoding="UTF-8" standalone="no"?>
<svg preserveAspectRatio="xMaxYMax meet" viewBox="0 0 66 66" version="1.1" xmlns="http://www.w3.org/2000/svg">
    <title></title>
    <desc></desc>
    <defs></defs>
    <g id="icon-newsletter" fill-rule="evenodd">
        <g id="back" transform="translate(0.000000, 10.000000)">
            <path d="M0,17 L33,0 L66,17 L66,56 L0,56 L0,17 L0,17 Z" id="front-border" fill="#0091D9"></path>
            <path d="M3,18.8312014 L3,53 L63,53 L63.0075078,18.8330879 L33.0037537,3.37664798 L3,18.8312014 Z" id="front-fill" fill="#FFFFFF"></path>
        </g>
        <path d="M58,5 L58,66 L8,66 L8,5 L58,5 L58,5 Z" id="letter" stroke="#0091D9" stroke-width="3" fill="#FFFFFF"></path>
        <g id="front" transform="translate(0.000000, 27.000000)">
            <path d="M33,17 L66,0 L66,39 L0,39 L0,0 L33,17 Z" id="front-border" fill="#0091D9"></path>
            <path d="M3,4.93389893 L3,36 L63,36 L62.9962841,4.92204354 L33,20.3746748 L3,4.93389893 Z" id="front-fill" fill="#FFFFFF"></path>
        </g>
    </g>
</svg>